<?xml version="1.0" encoding="utf-8" standalone="no"?>
<!DOCTYPE svg PUBLIC "-//W3C//DTD SVG 1.1//EN"
  "http://www.w3.org/Graphics/SVG/1.1/DTD/svg11.dtd">
<!-- Created with matplotlib (http://matplotlib.org/) -->
<svg height="298pt" version="1.1" viewBox="0 0 300 298" width="300pt" xmlns="http://www.w3.org/2000/svg" xmlns:xlink="http://www.w3.org/1999/xlink">
 <defs>
  <style type="text/css">
*{stroke-linecap:butt;stroke-linejoin:round;}
  </style>
 </defs>
 <g id="figure_1">
  <g id="patch_1">
   <path d="M 0 298.6 
L 300.4 298.6 
L 300.4 0 
L 0 0 
z
" style="fill:#ffffff;"/>
  </g>
  <g id="axes_1">
   <g id="line2d_1">
    <path clip-path="url(#p0a5995c2d3)" d="M 74.109091 276.118182 
L 23.381818 276.118182 
M 124.836364 276.118182 
L 74.109091 276.118182 
M 175.563636 276.118182 
L 124.836364 276.118182 
M 226.290909 276.118182 
L 175.563636 276.118182 
M 277.018182 276.118182 
L 226.290909 276.118182 
M 23.381818 225.390909 
L 23.381818 276.118182 
M 74.109091 225.390909 
L 23.381818 276.118182 
M 74.109091 225.390909 
L 74.109091 276.118182 
M 74.109091 225.390909 
L 23.381818 225.390909 
M 124.836364 225.390909 
L 74.109091 276.118182 
M 124.836364 225.390909 
L 124.836364 276.118182 
M 124.836364 225.390909 
L 74.109091 225.390909 
M 175.563636 225.390909 
L 124.836364 276.118182 
M 175.563636 225.390909 
L 175.563636 276.118182 
M 175.563636 225.390909 
L 124.836364 225.390909 
M 226.290909 225.390909 
L 175.563636 276.118182 
M 226.290909 225.390909 
L 226.290909 276.118182 
M 226.290909 225.390909 
L 175.563636 225.390909 
M 277.018182 225.390909 
L 226.290909 276.118182 
M 277.018182 225.390909 
L 277.018182 276.118182 
M 277.018182 225.390909 
L 226.290909 225.390909 
M 23.381818 174.663636 
L 23.381818 225.390909 
M 74.109091 174.663636 
L 23.381818 225.390909 
M 74.109091 174.663636 
L 74.109091 225.390909 
M 74.109091 174.663636 
L 23.381818 174.663636 
M 124.836364 174.663636 
L 74.109091 225.390909 
M 124.836364 174.663636 
L 124.836364 225.390909 
M 124.836364 174.663636 
L 74.109091 174.663636 
M 175.563636 174.663636 
L 124.836364 225.390909 
M 175.563636 174.663636 
L 175.563636 225.390909 
M 175.563636 174.663636 
L 124.836364 174.663636 
M 226.290909 174.663636 
L 175.563636 225.390909 
M 226.290909 174.663636 
L 226.290909 225.390909 
M 226.290909 174.663636 
L 175.563636 174.663636 
M 277.018182 174.663636 
L 226.290909 225.390909 
M 277.018182 174.663636 
L 277.018182 225.390909 
M 277.018182 174.663636 
L 226.290909 174.663636 
M 23.381818 123.936364 
L 23.381818 174.663636 
M 74.109091 123.936364 
L 23.381818 174.663636 
M 74.109091 123.936364 
L 74.109091 174.663636 
M 74.109091 123.936364 
L 23.381818 123.936364 
M 124.836364 123.936364 
L 74.109091 174.663636 
M 124.836364 123.936364 
L 124.836364 174.663636 
M 124.836364 123.936364 
L 74.109091 123.936364 
M 175.563636 123.936364 
L 124.836364 174.663636 
M 175.563636 123.936364 
L 175.563636 174.663636 
M 175.563636 123.936364 
L 124.836364 123.936364 
M 226.290909 123.936364 
L 175.563636 174.663636 
M 226.290909 123.936364 
L 226.290909 174.663636 
M 226.290909 123.936364 
L 175.563636 123.936364 
M 277.018182 123.936364 
L 226.290909 174.663636 
M 277.018182 123.936364 
L 277.018182 174.663636 
M 277.018182 123.936364 
L 226.290909 123.936364 
M 23.381818 73.209091 
L 23.381818 123.936364 
M 74.109091 73.209091 
L 23.381818 123.936364 
M 74.109091 73.209091 
L 74.109091 123.936364 
M 74.109091 73.209091 
L 23.381818 73.209091 
M 124.836364 73.209091 
L 74.109091 123.936364 
M 124.836364 73.209091 
L 124.836364 123.936364 
M 124.836364 73.209091 
L 74.109091 73.209091 
M 175.563636 73.209091 
L 124.836364 123.936364 
M 175.563636 73.209091 
L 175.563636 123.936364 
M 175.563636 73.209091 
L 124.836364 73.209091 
M 226.290909 73.209091 
L 175.563636 123.936364 
M 226.290909 73.209091 
L 226.290909 123.936364 
M 226.290909 73.209091 
L 175.563636 73.209091 
M 277.018182 73.209091 
L 226.290909 123.936364 
M 277.018182 73.209091 
L 277.018182 123.936364 
M 277.018182 73.209091 
L 226.290909 73.209091 
M 23.381818 22.481818 
L 23.381818 73.209091 
M 74.109091 22.481818 
L 23.381818 73.209091 
M 74.109091 22.481818 
L 74.109091 73.209091 
M 74.109091 22.481818 
L 23.381818 22.481818 
M 124.836364 22.481818 
L 74.109091 73.209091 
M 124.836364 22.481818 
L 124.836364 73.209091 
M 124.836364 22.481818 
L 74.109091 22.481818 
M 175.563636 22.481818 
L 124.836364 73.209091 
M 175.563636 22.481818 
L 175.563636 73.209091 
M 175.563636 22.481818 
L 124.836364 22.481818 
M 226.290909 22.481818 
L 175.563636 73.209091 
M 226.290909 22.481818 
L 226.290909 73.209091 
M 226.290909 22.481818 
L 175.563636 22.481818 
M 277.018182 22.481818 
L 226.290909 73.209091 
M 277.018182 22.481818 
L 277.018182 73.209091 
M 277.018182 22.481818 
L 226.290909 22.481818 
L 226.290909 22.481818 
" style="fill:none;opacity:0.2;stroke:#000000;stroke-linecap:square;stroke-width:0.5;"/>
   </g>
   <g id="line2d_2"/>
   <g id="line2d_3">
    <path clip-path="url(#p0a5995c2d3)" d="M 23.381818 276.118182 
L 74.109091 276.118182 
L 124.836364 276.118182 
L 175.563636 276.118182 
L 226.290909 276.118182 
L 277.018182 276.118182 
" style="fill:none;stroke:#1f77b4;stroke-linecap:square;stroke-width:1.5;"/>
   </g>
   <g id="line2d_4">
    <path clip-path="url(#p0a5995c2d3)" d="M 277.018182 276.118182 
L 277.018182 225.390909 
L 277.018182 174.663636 
L 277.018182 123.936364 
L 277.018182 73.209091 
L 277.018182 22.481818 
" style="fill:none;stroke:#ff7f0e;stroke-linecap:square;stroke-width:1.5;"/>
   </g>
   <g id="line2d_5">
    <path clip-path="url(#p0a5995c2d3)" d="M 277.018182 22.481818 
L 226.290909 22.481818 
L 175.563636 22.481818 
L 124.836364 22.481818 
L 74.109091 22.481818 
L 23.381818 22.481818 
" style="fill:none;stroke:#2ca02c;stroke-linecap:square;stroke-width:1.5;"/>
   </g>
   <g id="line2d_6">
    <path clip-path="url(#p0a5995c2d3)" d="M 23.381818 123.936364 
L 23.381818 174.663636 
L 23.381818 225.390909 
L 23.381818 276.118182 
M 23.381818 73.209091 
L 23.381818 123.936364 
M 23.381818 22.481818 
L 23.381818 73.209091 
" style="fill:none;stroke:#d62728;stroke-linecap:square;stroke-width:1.5;"/>
   </g>
  </g>
 </g>
 <defs>
  <clipPath id="p0a5995c2d3">
   <rect height="277.2" width="279" x="10.7" y="10.7"/>
  </clipPath>
 </defs>
</svg>
