<?xml version="1.0" encoding="utf-8" standalone="no"?>
<!DOCTYPE svg PUBLIC "-//W3C//DTD SVG 1.1//EN"
  "http://www.w3.org/Graphics/SVG/1.1/DTD/svg11.dtd">
<!-- Created with matplotlib (https://matplotlib.org/) -->
<svg height="314.36825pt" version="1.1" viewBox="0 0 408.445 314.36825" width="408.445pt" xmlns="http://www.w3.org/2000/svg" xmlns:xlink="http://www.w3.org/1999/xlink">
 <defs>
  <style type="text/css">
*{stroke-linecap:butt;stroke-linejoin:round;}
  </style>
 </defs>
 <g id="figure_1">
  <g id="patch_1">
   <path d="M 0 314.36825 
L 408.445 314.36825 
L 408.445 0 
L 0 0 
z
" style="fill:#ffffff;"/>
  </g>
  <g id="axes_1">
   <g id="patch_2">
    <path d="M 40.625 276.812 
L 397.745 276.812 
L 397.745 10.7 
L 40.625 10.7 
z
" style="fill:#ffffff;"/>
   </g>
   <g id="line2d_1">
    <path clip-path="url(#p04aa10bd69)" d="M 56.857727 264.716 
L 60.170529 264.578439 
L 63.48333 264.438756 
L 66.796132 264.296897 
L 70.108933 264.152803 
L 73.421735 264.006416 
L 76.734536 263.857674 
L 80.047338 263.706514 
L 83.360139 263.552869 
L 86.672941 263.39667 
L 89.985742 263.237846 
L 93.298544 263.076322 
L 96.611345 262.912022 
L 99.924147 262.744864 
L 103.236948 262.574764 
L 106.54975 262.401637 
L 109.862551 262.225389 
L 113.175353 262.045928 
L 116.488154 261.863153 
L 119.800955 261.676962 
L 123.113757 261.487246 
L 126.426558 261.293894 
L 129.73936 261.096788 
L 133.052161 260.895803 
L 136.364963 260.690813 
L 139.677764 260.481681 
L 142.990566 260.268266 
L 146.303367 260.050421 
L 149.616169 259.827989 
L 152.92897 259.600808 
L 156.241772 259.368706 
L 159.554573 259.131503 
L 162.867375 258.889008 
L 166.180176 258.641023 
L 169.492978 258.387337 
L 172.805779 258.127729 
L 176.118581 257.861963 
L 179.431382 257.589793 
L 182.744184 257.310958 
L 186.056985 257.025181 
L 189.369787 256.732168 
L 192.682588 256.43161 
L 195.99539 256.123177 
L 199.308191 255.806518 
L 202.620993 255.481263 
L 205.933794 255.147013 
L 209.246596 254.803348 
L 212.559397 254.449817 
L 215.872199 254.085938 
L 219.185 253.711196 
L 222.497801 253.32504 
L 225.810603 252.926879 
L 229.123404 252.516078 
L 232.436206 252.091952 
L 235.749007 251.653767 
L 239.061809 251.200726 
L 242.37461 250.731973 
L 245.687412 250.246577 
L 249.000213 249.743528 
L 252.313015 249.221732 
L 255.625816 248.679992 
L 258.938618 248.117007 
L 262.251419 247.531349 
L 265.564221 246.921456 
L 268.877022 246.285607 
L 272.189824 245.621909 
L 275.502625 244.928266 
L 278.815427 244.202358 
L 282.128228 243.441603 
L 285.44103 242.64312 
L 288.753831 241.803684 
L 292.066633 240.919671 
L 295.379434 239.98699 
L 298.692236 239.001005 
L 302.005037 237.956438 
L 305.317839 236.847246 
L 308.63064 235.666481 
L 311.943442 234.406098 
L 315.256243 233.056726 
L 318.569045 231.607376 
L 321.881846 230.04506 
L 325.194647 228.354295 
L 328.507449 226.516458 
L 331.82025 224.50891 
L 335.133052 222.303814 
L 338.445853 219.86649 
L 341.758655 217.153086 
L 345.071456 214.107212 
L 348.384258 210.654906 
L 351.697059 206.696916 
L 355.009861 202.096365 
L 358.322662 196.658169 
L 361.635464 190.092795 
L 364.948265 181.947946 
L 368.261067 171.468206 
L 371.573868 157.271274 
L 374.88667 136.467876 
L 378.199471 101.569791 
L 381.512273 22.796 
" style="fill:none;stroke:#808080;stroke-linecap:square;stroke-width:1.5;"/>
   </g>
   <g id="matplotlib.axis_1">
    <g id="xtick_1">
     <g id="line2d_2">
      <defs>
       <path d="M 0 0 
L 0 3.5 
" id="m5683033488" style="stroke:#000000;stroke-width:0.8;"/>
      </defs>
      <g>
       <use style="stroke:#000000;stroke-width:0.8;" x="56.857727" xlink:href="#m5683033488" y="276.812"/>
      </g>
     </g>
     <g id="text_1">
      <!-- 0.0 -->
      <defs>
       <path d="M 31.78125 66.40625 
Q 24.171875 66.40625 20.328125 58.90625 
Q 16.5 51.421875 16.5 36.375 
Q 16.5 21.390625 20.328125 13.890625 
Q 24.171875 6.390625 31.78125 6.390625 
Q 39.453125 6.390625 43.28125 13.890625 
Q 47.125 21.390625 47.125 36.375 
Q 47.125 51.421875 43.28125 58.90625 
Q 39.453125 66.40625 31.78125 66.40625 
z
M 31.78125 74.21875 
Q 44.046875 74.21875 50.515625 64.515625 
Q 56.984375 54.828125 56.984375 36.375 
Q 56.984375 17.96875 50.515625 8.265625 
Q 44.046875 -1.421875 31.78125 -1.421875 
Q 19.53125 -1.421875 13.0625 8.265625 
Q 6.59375 17.96875 6.59375 36.375 
Q 6.59375 54.828125 13.0625 64.515625 
Q 19.53125 74.21875 31.78125 74.21875 
z
" id="DejaVuSans-48"/>
       <path d="M 10.6875 12.40625 
L 21 12.40625 
L 21 0 
L 10.6875 0 
z
" id="DejaVuSans-46"/>
      </defs>
      <g transform="translate(48.906165 291.410438)scale(0.1 -0.1)">
       <use xlink:href="#DejaVuSans-48"/>
       <use x="63.623047" xlink:href="#DejaVuSans-46"/>
       <use x="95.410156" xlink:href="#DejaVuSans-48"/>
      </g>
     </g>
    </g>
    <g id="xtick_2">
     <g id="line2d_3">
      <g>
       <use style="stroke:#000000;stroke-width:0.8;" x="122.451197" xlink:href="#m5683033488" y="276.812"/>
      </g>
     </g>
     <g id="text_2">
      <!-- 0.1 -->
      <defs>
       <path d="M 12.40625 8.296875 
L 28.515625 8.296875 
L 28.515625 63.921875 
L 10.984375 60.40625 
L 10.984375 69.390625 
L 28.421875 72.90625 
L 38.28125 72.90625 
L 38.28125 8.296875 
L 54.390625 8.296875 
L 54.390625 0 
L 12.40625 0 
z
" id="DejaVuSans-49"/>
      </defs>
      <g transform="translate(114.499634 291.410438)scale(0.1 -0.1)">
       <use xlink:href="#DejaVuSans-48"/>
       <use x="63.623047" xlink:href="#DejaVuSans-46"/>
       <use x="95.410156" xlink:href="#DejaVuSans-49"/>
      </g>
     </g>
    </g>
    <g id="xtick_3">
     <g id="line2d_4">
      <g>
       <use style="stroke:#000000;stroke-width:0.8;" x="188.044666" xlink:href="#m5683033488" y="276.812"/>
      </g>
     </g>
     <g id="text_3">
      <!-- 0.2 -->
      <defs>
       <path d="M 19.1875 8.296875 
L 53.609375 8.296875 
L 53.609375 0 
L 7.328125 0 
L 7.328125 8.296875 
Q 12.9375 14.109375 22.625 23.890625 
Q 32.328125 33.6875 34.8125 36.53125 
Q 39.546875 41.84375 41.421875 45.53125 
Q 43.3125 49.21875 43.3125 52.78125 
Q 43.3125 58.59375 39.234375 62.25 
Q 35.15625 65.921875 28.609375 65.921875 
Q 23.96875 65.921875 18.8125 64.3125 
Q 13.671875 62.703125 7.8125 59.421875 
L 7.8125 69.390625 
Q 13.765625 71.78125 18.9375 73 
Q 24.125 74.21875 28.421875 74.21875 
Q 39.75 74.21875 46.484375 68.546875 
Q 53.21875 62.890625 53.21875 53.421875 
Q 53.21875 48.921875 51.53125 44.890625 
Q 49.859375 40.875 45.40625 35.40625 
Q 44.1875 33.984375 37.640625 27.21875 
Q 31.109375 20.453125 19.1875 8.296875 
z
" id="DejaVuSans-50"/>
      </defs>
      <g transform="translate(180.093104 291.410438)scale(0.1 -0.1)">
       <use xlink:href="#DejaVuSans-48"/>
       <use x="63.623047" xlink:href="#DejaVuSans-46"/>
       <use x="95.410156" xlink:href="#DejaVuSans-50"/>
      </g>
     </g>
    </g>
    <g id="xtick_4">
     <g id="line2d_5">
      <g>
       <use style="stroke:#000000;stroke-width:0.8;" x="253.638135" xlink:href="#m5683033488" y="276.812"/>
      </g>
     </g>
     <g id="text_4">
      <!-- 0.3 -->
      <defs>
       <path d="M 40.578125 39.3125 
Q 47.65625 37.796875 51.625 33 
Q 55.609375 28.21875 55.609375 21.1875 
Q 55.609375 10.40625 48.1875 4.484375 
Q 40.765625 -1.421875 27.09375 -1.421875 
Q 22.515625 -1.421875 17.65625 -0.515625 
Q 12.796875 0.390625 7.625 2.203125 
L 7.625 11.71875 
Q 11.71875 9.328125 16.59375 8.109375 
Q 21.484375 6.890625 26.8125 6.890625 
Q 36.078125 6.890625 40.9375 10.546875 
Q 45.796875 14.203125 45.796875 21.1875 
Q 45.796875 27.640625 41.28125 31.265625 
Q 36.765625 34.90625 28.71875 34.90625 
L 20.21875 34.90625 
L 20.21875 43.015625 
L 29.109375 43.015625 
Q 36.375 43.015625 40.234375 45.921875 
Q 44.09375 48.828125 44.09375 54.296875 
Q 44.09375 59.90625 40.109375 62.90625 
Q 36.140625 65.921875 28.71875 65.921875 
Q 24.65625 65.921875 20.015625 65.03125 
Q 15.375 64.15625 9.8125 62.3125 
L 9.8125 71.09375 
Q 15.4375 72.65625 20.34375 73.4375 
Q 25.25 74.21875 29.59375 74.21875 
Q 40.828125 74.21875 47.359375 69.109375 
Q 53.90625 64.015625 53.90625 55.328125 
Q 53.90625 49.265625 50.4375 45.09375 
Q 46.96875 40.921875 40.578125 39.3125 
z
" id="DejaVuSans-51"/>
      </defs>
      <g transform="translate(245.686573 291.410438)scale(0.1 -0.1)">
       <use xlink:href="#DejaVuSans-48"/>
       <use x="63.623047" xlink:href="#DejaVuSans-46"/>
       <use x="95.410156" xlink:href="#DejaVuSans-51"/>
      </g>
     </g>
    </g>
    <g id="xtick_5">
     <g id="line2d_6">
      <g>
       <use style="stroke:#000000;stroke-width:0.8;" x="319.231605" xlink:href="#m5683033488" y="276.812"/>
      </g>
     </g>
     <g id="text_5">
      <!-- 0.4 -->
      <defs>
       <path d="M 37.796875 64.3125 
L 12.890625 25.390625 
L 37.796875 25.390625 
z
M 35.203125 72.90625 
L 47.609375 72.90625 
L 47.609375 25.390625 
L 58.015625 25.390625 
L 58.015625 17.1875 
L 47.609375 17.1875 
L 47.609375 0 
L 37.796875 0 
L 37.796875 17.1875 
L 4.890625 17.1875 
L 4.890625 26.703125 
z
" id="DejaVuSans-52"/>
      </defs>
      <g transform="translate(311.280042 291.410438)scale(0.1 -0.1)">
       <use xlink:href="#DejaVuSans-48"/>
       <use x="63.623047" xlink:href="#DejaVuSans-46"/>
       <use x="95.410156" xlink:href="#DejaVuSans-52"/>
      </g>
     </g>
    </g>
    <g id="xtick_6">
     <g id="line2d_7">
      <g>
       <use style="stroke:#000000;stroke-width:0.8;" x="384.825074" xlink:href="#m5683033488" y="276.812"/>
      </g>
     </g>
     <g id="text_6">
      <!-- 0.5 -->
      <defs>
       <path d="M 10.796875 72.90625 
L 49.515625 72.90625 
L 49.515625 64.59375 
L 19.828125 64.59375 
L 19.828125 46.734375 
Q 21.96875 47.46875 24.109375 47.828125 
Q 26.265625 48.1875 28.421875 48.1875 
Q 40.625 48.1875 47.75 41.5 
Q 54.890625 34.8125 54.890625 23.390625 
Q 54.890625 11.625 47.5625 5.09375 
Q 40.234375 -1.421875 26.90625 -1.421875 
Q 22.3125 -1.421875 17.546875 -0.640625 
Q 12.796875 0.140625 7.71875 1.703125 
L 7.71875 11.625 
Q 12.109375 9.234375 16.796875 8.0625 
Q 21.484375 6.890625 26.703125 6.890625 
Q 35.15625 6.890625 40.078125 11.328125 
Q 45.015625 15.765625 45.015625 23.390625 
Q 45.015625 31 40.078125 35.4375 
Q 35.15625 39.890625 26.703125 39.890625 
Q 22.75 39.890625 18.8125 39.015625 
Q 14.890625 38.140625 10.796875 36.28125 
z
" id="DejaVuSans-53"/>
      </defs>
      <g transform="translate(376.873512 291.410438)scale(0.1 -0.1)">
       <use xlink:href="#DejaVuSans-48"/>
       <use x="63.623047" xlink:href="#DejaVuSans-46"/>
       <use x="95.410156" xlink:href="#DejaVuSans-53"/>
      </g>
     </g>
    </g>
    <g id="text_7">
     <!-- $y$ -->
     <defs>
      <path d="M 24.8125 -5.078125 
Q 18.5625 -15.578125 14.625 -18.1875 
Q 10.6875 -20.796875 4.59375 -20.796875 
L -2.484375 -20.796875 
L -0.984375 -13.28125 
L 4.203125 -13.28125 
Q 7.953125 -13.28125 10.59375 -11.234375 
Q 13.234375 -9.1875 16.5 -3.21875 
L 19.28125 2 
L 7.171875 54.6875 
L 16.703125 54.6875 
L 25.78125 12.796875 
L 50.875 54.6875 
L 60.296875 54.6875 
z
" id="DejaVuSans-Oblique-121"/>
     </defs>
     <g transform="translate(216.185 305.06825)scale(0.1 -0.1)">
      <use transform="translate(0 0.3125)" xlink:href="#DejaVuSans-Oblique-121"/>
     </g>
    </g>
   </g>
   <g id="matplotlib.axis_2">
    <g id="ytick_1">
     <g id="line2d_8">
      <defs>
       <path d="M 0 0 
L -3.5 0 
" id="m92a4e4880e" style="stroke:#000000;stroke-width:0.8;"/>
      </defs>
      <g>
       <use style="stroke:#000000;stroke-width:0.8;" x="40.625" xlink:href="#m92a4e4880e" y="253.519581"/>
      </g>
     </g>
     <g id="text_8">
      <!-- 2 -->
      <g transform="translate(27.2625 257.3188)scale(0.1 -0.1)">
       <use xlink:href="#DejaVuSans-50"/>
      </g>
     </g>
    </g>
    <g id="ytick_2">
     <g id="line2d_9">
      <g>
       <use style="stroke:#000000;stroke-width:0.8;" x="40.625" xlink:href="#m92a4e4880e" y="215.292615"/>
      </g>
     </g>
     <g id="text_9">
      <!-- 4 -->
      <g transform="translate(27.2625 219.091833)scale(0.1 -0.1)">
       <use xlink:href="#DejaVuSans-52"/>
      </g>
     </g>
    </g>
    <g id="ytick_3">
     <g id="line2d_10">
      <g>
       <use style="stroke:#000000;stroke-width:0.8;" x="40.625" xlink:href="#m92a4e4880e" y="177.065648"/>
      </g>
     </g>
     <g id="text_10">
      <!-- 6 -->
      <defs>
       <path d="M 33.015625 40.375 
Q 26.375 40.375 22.484375 35.828125 
Q 18.609375 31.296875 18.609375 23.390625 
Q 18.609375 15.53125 22.484375 10.953125 
Q 26.375 6.390625 33.015625 6.390625 
Q 39.65625 6.390625 43.53125 10.953125 
Q 47.40625 15.53125 47.40625 23.390625 
Q 47.40625 31.296875 43.53125 35.828125 
Q 39.65625 40.375 33.015625 40.375 
z
M 52.59375 71.296875 
L 52.59375 62.3125 
Q 48.875 64.0625 45.09375 64.984375 
Q 41.3125 65.921875 37.59375 65.921875 
Q 27.828125 65.921875 22.671875 59.328125 
Q 17.53125 52.734375 16.796875 39.40625 
Q 19.671875 43.65625 24.015625 45.921875 
Q 28.375 48.1875 33.59375 48.1875 
Q 44.578125 48.1875 50.953125 41.515625 
Q 57.328125 34.859375 57.328125 23.390625 
Q 57.328125 12.15625 50.6875 5.359375 
Q 44.046875 -1.421875 33.015625 -1.421875 
Q 20.359375 -1.421875 13.671875 8.265625 
Q 6.984375 17.96875 6.984375 36.375 
Q 6.984375 53.65625 15.1875 63.9375 
Q 23.390625 74.21875 37.203125 74.21875 
Q 40.921875 74.21875 44.703125 73.484375 
Q 48.484375 72.75 52.59375 71.296875 
z
" id="DejaVuSans-54"/>
      </defs>
      <g transform="translate(27.2625 180.864867)scale(0.1 -0.1)">
       <use xlink:href="#DejaVuSans-54"/>
      </g>
     </g>
    </g>
    <g id="ytick_4">
     <g id="line2d_11">
      <g>
       <use style="stroke:#000000;stroke-width:0.8;" x="40.625" xlink:href="#m92a4e4880e" y="138.838682"/>
      </g>
     </g>
     <g id="text_11">
      <!-- 8 -->
      <defs>
       <path d="M 31.78125 34.625 
Q 24.75 34.625 20.71875 30.859375 
Q 16.703125 27.09375 16.703125 20.515625 
Q 16.703125 13.921875 20.71875 10.15625 
Q 24.75 6.390625 31.78125 6.390625 
Q 38.8125 6.390625 42.859375 10.171875 
Q 46.921875 13.96875 46.921875 20.515625 
Q 46.921875 27.09375 42.890625 30.859375 
Q 38.875 34.625 31.78125 34.625 
z
M 21.921875 38.8125 
Q 15.578125 40.375 12.03125 44.71875 
Q 8.5 49.078125 8.5 55.328125 
Q 8.5 64.0625 14.71875 69.140625 
Q 20.953125 74.21875 31.78125 74.21875 
Q 42.671875 74.21875 48.875 69.140625 
Q 55.078125 64.0625 55.078125 55.328125 
Q 55.078125 49.078125 51.53125 44.71875 
Q 48 40.375 41.703125 38.8125 
Q 48.828125 37.15625 52.796875 32.3125 
Q 56.78125 27.484375 56.78125 20.515625 
Q 56.78125 9.90625 50.3125 4.234375 
Q 43.84375 -1.421875 31.78125 -1.421875 
Q 19.734375 -1.421875 13.25 4.234375 
Q 6.78125 9.90625 6.78125 20.515625 
Q 6.78125 27.484375 10.78125 32.3125 
Q 14.796875 37.15625 21.921875 38.8125 
z
M 18.3125 54.390625 
Q 18.3125 48.734375 21.84375 45.5625 
Q 25.390625 42.390625 31.78125 42.390625 
Q 38.140625 42.390625 41.71875 45.5625 
Q 45.3125 48.734375 45.3125 54.390625 
Q 45.3125 60.0625 41.71875 63.234375 
Q 38.140625 66.40625 31.78125 66.40625 
Q 25.390625 66.40625 21.84375 63.234375 
Q 18.3125 60.0625 18.3125 54.390625 
z
" id="DejaVuSans-56"/>
      </defs>
      <g transform="translate(27.2625 142.637901)scale(0.1 -0.1)">
       <use xlink:href="#DejaVuSans-56"/>
      </g>
     </g>
    </g>
    <g id="ytick_5">
     <g id="line2d_12">
      <g>
       <use style="stroke:#000000;stroke-width:0.8;" x="40.625" xlink:href="#m92a4e4880e" y="100.611716"/>
      </g>
     </g>
     <g id="text_12">
      <!-- 10 -->
      <g transform="translate(20.9 104.410935)scale(0.1 -0.1)">
       <use xlink:href="#DejaVuSans-49"/>
       <use x="63.623047" xlink:href="#DejaVuSans-48"/>
      </g>
     </g>
    </g>
    <g id="ytick_6">
     <g id="line2d_13">
      <g>
       <use style="stroke:#000000;stroke-width:0.8;" x="40.625" xlink:href="#m92a4e4880e" y="62.38475"/>
      </g>
     </g>
     <g id="text_13">
      <!-- 12 -->
      <g transform="translate(20.9 66.183969)scale(0.1 -0.1)">
       <use xlink:href="#DejaVuSans-49"/>
       <use x="63.623047" xlink:href="#DejaVuSans-50"/>
      </g>
     </g>
    </g>
    <g id="ytick_7">
     <g id="line2d_14">
      <g>
       <use style="stroke:#000000;stroke-width:0.8;" x="40.625" xlink:href="#m92a4e4880e" y="24.157784"/>
      </g>
     </g>
     <g id="text_14">
      <!-- 14 -->
      <g transform="translate(20.9 27.957002)scale(0.1 -0.1)">
       <use xlink:href="#DejaVuSans-49"/>
       <use x="63.623047" xlink:href="#DejaVuSans-52"/>
      </g>
     </g>
    </g>
    <g id="text_15">
     <!-- Flux into wire $q$ -->
     <defs>
      <path d="M 9.8125 72.90625 
L 51.703125 72.90625 
L 51.703125 64.59375 
L 19.671875 64.59375 
L 19.671875 43.109375 
L 48.578125 43.109375 
L 48.578125 34.8125 
L 19.671875 34.8125 
L 19.671875 0 
L 9.8125 0 
z
" id="DejaVuSans-70"/>
      <path d="M 9.421875 75.984375 
L 18.40625 75.984375 
L 18.40625 0 
L 9.421875 0 
z
" id="DejaVuSans-108"/>
      <path d="M 8.5 21.578125 
L 8.5 54.6875 
L 17.484375 54.6875 
L 17.484375 21.921875 
Q 17.484375 14.15625 20.5 10.265625 
Q 23.53125 6.390625 29.59375 6.390625 
Q 36.859375 6.390625 41.078125 11.03125 
Q 45.3125 15.671875 45.3125 23.6875 
L 45.3125 54.6875 
L 54.296875 54.6875 
L 54.296875 0 
L 45.3125 0 
L 45.3125 8.40625 
Q 42.046875 3.421875 37.71875 1 
Q 33.40625 -1.421875 27.6875 -1.421875 
Q 18.265625 -1.421875 13.375 4.4375 
Q 8.5 10.296875 8.5 21.578125 
z
M 31.109375 56 
z
" id="DejaVuSans-117"/>
      <path d="M 54.890625 54.6875 
L 35.109375 28.078125 
L 55.90625 0 
L 45.3125 0 
L 29.390625 21.484375 
L 13.484375 0 
L 2.875 0 
L 24.125 28.609375 
L 4.6875 54.6875 
L 15.28125 54.6875 
L 29.78125 35.203125 
L 44.28125 54.6875 
z
" id="DejaVuSans-120"/>
      <path id="DejaVuSans-32"/>
      <path d="M 9.421875 54.6875 
L 18.40625 54.6875 
L 18.40625 0 
L 9.421875 0 
z
M 9.421875 75.984375 
L 18.40625 75.984375 
L 18.40625 64.59375 
L 9.421875 64.59375 
z
" id="DejaVuSans-105"/>
      <path d="M 54.890625 33.015625 
L 54.890625 0 
L 45.90625 0 
L 45.90625 32.71875 
Q 45.90625 40.484375 42.875 44.328125 
Q 39.84375 48.1875 33.796875 48.1875 
Q 26.515625 48.1875 22.3125 43.546875 
Q 18.109375 38.921875 18.109375 30.90625 
L 18.109375 0 
L 9.078125 0 
L 9.078125 54.6875 
L 18.109375 54.6875 
L 18.109375 46.1875 
Q 21.34375 51.125 25.703125 53.5625 
Q 30.078125 56 35.796875 56 
Q 45.21875 56 50.046875 50.171875 
Q 54.890625 44.34375 54.890625 33.015625 
z
" id="DejaVuSans-110"/>
      <path d="M 18.3125 70.21875 
L 18.3125 54.6875 
L 36.8125 54.6875 
L 36.8125 47.703125 
L 18.3125 47.703125 
L 18.3125 18.015625 
Q 18.3125 11.328125 20.140625 9.421875 
Q 21.96875 7.515625 27.59375 7.515625 
L 36.8125 7.515625 
L 36.8125 0 
L 27.59375 0 
Q 17.1875 0 13.234375 3.875 
Q 9.28125 7.765625 9.28125 18.015625 
L 9.28125 47.703125 
L 2.6875 47.703125 
L 2.6875 54.6875 
L 9.28125 54.6875 
L 9.28125 70.21875 
z
" id="DejaVuSans-116"/>
      <path d="M 30.609375 48.390625 
Q 23.390625 48.390625 19.1875 42.75 
Q 14.984375 37.109375 14.984375 27.296875 
Q 14.984375 17.484375 19.15625 11.84375 
Q 23.34375 6.203125 30.609375 6.203125 
Q 37.796875 6.203125 41.984375 11.859375 
Q 46.1875 17.53125 46.1875 27.296875 
Q 46.1875 37.015625 41.984375 42.703125 
Q 37.796875 48.390625 30.609375 48.390625 
z
M 30.609375 56 
Q 42.328125 56 49.015625 48.375 
Q 55.71875 40.765625 55.71875 27.296875 
Q 55.71875 13.875 49.015625 6.21875 
Q 42.328125 -1.421875 30.609375 -1.421875 
Q 18.84375 -1.421875 12.171875 6.21875 
Q 5.515625 13.875 5.515625 27.296875 
Q 5.515625 40.765625 12.171875 48.375 
Q 18.84375 56 30.609375 56 
z
" id="DejaVuSans-111"/>
      <path d="M 4.203125 54.6875 
L 13.1875 54.6875 
L 24.421875 12.015625 
L 35.59375 54.6875 
L 46.1875 54.6875 
L 57.421875 12.015625 
L 68.609375 54.6875 
L 77.59375 54.6875 
L 63.28125 0 
L 52.6875 0 
L 40.921875 44.828125 
L 29.109375 0 
L 18.5 0 
z
" id="DejaVuSans-119"/>
      <path d="M 41.109375 46.296875 
Q 39.59375 47.171875 37.8125 47.578125 
Q 36.03125 48 33.890625 48 
Q 26.265625 48 22.1875 43.046875 
Q 18.109375 38.09375 18.109375 28.8125 
L 18.109375 0 
L 9.078125 0 
L 9.078125 54.6875 
L 18.109375 54.6875 
L 18.109375 46.1875 
Q 20.953125 51.171875 25.484375 53.578125 
Q 30.03125 56 36.53125 56 
Q 37.453125 56 38.578125 55.875 
Q 39.703125 55.765625 41.0625 55.515625 
z
" id="DejaVuSans-114"/>
      <path d="M 56.203125 29.59375 
L 56.203125 25.203125 
L 14.890625 25.203125 
Q 15.484375 15.921875 20.484375 11.0625 
Q 25.484375 6.203125 34.421875 6.203125 
Q 39.59375 6.203125 44.453125 7.46875 
Q 49.3125 8.734375 54.109375 11.28125 
L 54.109375 2.78125 
Q 49.265625 0.734375 44.1875 -0.34375 
Q 39.109375 -1.421875 33.890625 -1.421875 
Q 20.796875 -1.421875 13.15625 6.1875 
Q 5.515625 13.8125 5.515625 26.8125 
Q 5.515625 40.234375 12.765625 48.109375 
Q 20.015625 56 32.328125 56 
Q 43.359375 56 49.78125 48.890625 
Q 56.203125 41.796875 56.203125 29.59375 
z
M 47.21875 32.234375 
Q 47.125 39.59375 43.09375 43.984375 
Q 39.0625 48.390625 32.421875 48.390625 
Q 24.90625 48.390625 20.390625 44.140625 
Q 15.875 39.890625 15.1875 32.171875 
z
" id="DejaVuSans-101"/>
      <path d="M 41.703125 8.203125 
Q 38.09375 3.46875 33.171875 1.015625 
Q 28.265625 -1.421875 22.3125 -1.421875 
Q 14.015625 -1.421875 9.296875 4.171875 
Q 4.59375 9.765625 4.59375 19.578125 
Q 4.59375 27.484375 7.5 34.859375 
Q 10.40625 42.234375 15.828125 48.09375 
Q 19.34375 51.90625 23.90625 53.953125 
Q 28.46875 56 33.5 56 
Q 39.546875 56 43.453125 53.609375 
Q 47.359375 51.21875 49.125 46.390625 
L 50.6875 54.59375 
L 59.71875 54.59375 
L 45.125 -20.609375 
L 36.078125 -20.609375 
z
M 13.921875 20.90625 
Q 13.921875 13.671875 16.9375 9.890625 
Q 19.96875 6.109375 25.6875 6.109375 
Q 34.1875 6.109375 40.1875 14.234375 
Q 46.1875 22.359375 46.1875 33.984375 
Q 46.1875 41.015625 43.078125 44.75 
Q 39.984375 48.484375 34.1875 48.484375 
Q 29.9375 48.484375 26.3125 46.5 
Q 22.703125 44.53125 20.015625 40.71875 
Q 17.1875 36.71875 15.546875 31.34375 
Q 13.921875 25.984375 13.921875 20.90625 
z
" id="DejaVuSans-Oblique-113"/>
     </defs>
     <g transform="translate(14.8 182.306)rotate(-90)scale(0.1 -0.1)">
      <use transform="translate(0 0.015625)" xlink:href="#DejaVuSans-70"/>
      <use transform="translate(57.519531 0.015625)" xlink:href="#DejaVuSans-108"/>
      <use transform="translate(85.302734 0.015625)" xlink:href="#DejaVuSans-117"/>
      <use transform="translate(148.681641 0.015625)" xlink:href="#DejaVuSans-120"/>
      <use transform="translate(207.861328 0.015625)" xlink:href="#DejaVuSans-32"/>
      <use transform="translate(239.648438 0.015625)" xlink:href="#DejaVuSans-105"/>
      <use transform="translate(267.431641 0.015625)" xlink:href="#DejaVuSans-110"/>
      <use transform="translate(330.810547 0.015625)" xlink:href="#DejaVuSans-116"/>
      <use transform="translate(370.019531 0.015625)" xlink:href="#DejaVuSans-111"/>
      <use transform="translate(431.201172 0.015625)" xlink:href="#DejaVuSans-32"/>
      <use transform="translate(462.988281 0.015625)" xlink:href="#DejaVuSans-119"/>
      <use transform="translate(544.775391 0.015625)" xlink:href="#DejaVuSans-105"/>
      <use transform="translate(572.558594 0.015625)" xlink:href="#DejaVuSans-114"/>
      <use transform="translate(613.671875 0.015625)" xlink:href="#DejaVuSans-101"/>
      <use transform="translate(675.195312 0.015625)" xlink:href="#DejaVuSans-32"/>
      <use transform="translate(706.982422 0.015625)" xlink:href="#DejaVuSans-Oblique-113"/>
     </g>
    </g>
   </g>
   <g id="line2d_15">
    <defs>
     <path d="M 0 3.75 
C 0.994512 3.75 1.948425 3.354876 2.65165 2.65165 
C 3.354876 1.948425 3.75 0.994512 3.75 0 
C 3.75 -0.994512 3.354876 -1.948425 2.65165 -2.65165 
C 1.948425 -3.354876 0.994512 -3.75 0 -3.75 
C -0.994512 -3.75 -1.948425 -3.354876 -2.65165 -2.65165 
C -3.354876 -1.948425 -3.75 -0.994512 -3.75 0 
C -3.75 0.994512 -3.354876 1.948425 -2.65165 2.65165 
C -1.948425 3.354876 -0.994512 3.75 0 3.75 
z
" id="m2acdacdb4f" style="stroke:#1f77b4;"/>
    </defs>
    <g clip-path="url(#p04aa10bd69)">
     <use style="fill:#1f77b4;stroke:#1f77b4;" x="377.431378" xlink:href="#m2acdacdb4f" y="72.198119"/>
     <use style="fill:#1f77b4;stroke:#1f77b4;" x="370.037027" xlink:href="#m2acdacdb4f" y="150.438697"/>
     <use style="fill:#1f77b4;stroke:#1f77b4;" x="362.643331" xlink:href="#m2acdacdb4f" y="185.28493"/>
     <use style="fill:#1f77b4;stroke:#1f77b4;" x="355.01809" xlink:href="#m2acdacdb4f" y="191.732591"/>
     <use style="fill:#1f77b4;stroke:#1f77b4;" x="347.375139" xlink:href="#m2acdacdb4f" y="209.801118"/>
     <use style="fill:#1f77b4;stroke:#1f77b4;" x="339.731532" xlink:href="#m2acdacdb4f" y="215.999594"/>
     <use style="fill:#1f77b4;stroke:#1f77b4;" x="331.815056" xlink:href="#m2acdacdb4f" y="219.993427"/>
     <use style="fill:#1f77b4;stroke:#1f77b4;" x="323.885461" xlink:href="#m2acdacdb4f" y="226.991056"/>
     <use style="fill:#1f77b4;stroke:#1f77b4;" x="315.849606" xlink:href="#m2acdacdb4f" y="232.431852"/>
     <use style="fill:#1f77b4;stroke:#1f77b4;" x="307.594011" xlink:href="#m2acdacdb4f" y="234.418541"/>
     <use style="fill:#1f77b4;stroke:#1f77b4;" x="299.339073" xlink:href="#m2acdacdb4f" y="238.281501"/>
     <use style="fill:#1f77b4;stroke:#1f77b4;" x="291.091351" xlink:href="#m2acdacdb4f" y="239.917989"/>
     <use style="fill:#1f77b4;stroke:#1f77b4;" x="282.845595" xlink:href="#m2acdacdb4f" y="241.495769"/>
     <use style="fill:#1f77b4;stroke:#1f77b4;" x="274.769728" xlink:href="#m2acdacdb4f" y="244.086266"/>
     <use style="fill:#1f77b4;stroke:#1f77b4;" x="266.867682" xlink:href="#m2acdacdb4f" y="246.461049"/>
     <use style="fill:#1f77b4;stroke:#1f77b4;" x="258.972196" xlink:href="#m2acdacdb4f" y="246.461049"/>
     <use style="fill:#1f77b4;stroke:#1f77b4;" x="251.034731" xlink:href="#m2acdacdb4f" y="248.892408"/>
     <use style="fill:#1f77b4;stroke:#1f77b4;" x="242.717479" xlink:href="#m2acdacdb4f" y="249.975812"/>
     <use style="fill:#1f77b4;stroke:#1f77b4;" x="234.017161" xlink:href="#m2acdacdb4f" y="251.20392"/>
     <use style="fill:#1f77b4;stroke:#1f77b4;" x="224.917379" xlink:href="#m2acdacdb4f" y="252.326982"/>
     <use style="fill:#1f77b4;stroke:#1f77b4;" x="215.769714" xlink:href="#m2acdacdb4f" y="253.418983"/>
     <use style="fill:#1f77b4;stroke:#1f77b4;" x="206.923778" xlink:href="#m2acdacdb4f" y="254.88801"/>
     <use style="fill:#1f77b4;stroke:#1f77b4;" x="198.371046" xlink:href="#m2acdacdb4f" y="255.493347"/>
     <use style="fill:#1f77b4;stroke:#1f77b4;" x="190.063633" xlink:href="#m2acdacdb4f" y="256.129305"/>
     <use style="fill:#1f77b4;stroke:#1f77b4;" x="181.783769" xlink:href="#m2acdacdb4f" y="256.681718"/>
     <use style="fill:#1f77b4;stroke:#1f77b4;" x="173.477668" xlink:href="#m2acdacdb4f" y="258.029157"/>
     <use style="fill:#1f77b4;stroke:#1f77b4;" x="164.979378" xlink:href="#m2acdacdb4f" y="258.506859"/>
     <use style="fill:#1f77b4;stroke:#1f77b4;" x="156.442388" xlink:href="#m2acdacdb4f" y="258.973913"/>
     <use style="fill:#1f77b4;stroke:#1f77b4;" x="147.677789" xlink:href="#m2acdacdb4f" y="259.891516"/>
     <use style="fill:#1f77b4;stroke:#1f77b4;" x="138.842349" xlink:href="#m2acdacdb4f" y="260.376984"/>
     <use style="fill:#1f77b4;stroke:#1f77b4;" x="129.761589" xlink:href="#m2acdacdb4f" y="260.889765"/>
     <use style="fill:#1f77b4;stroke:#1f77b4;" x="120.619302" xlink:href="#m2acdacdb4f" y="261.383144"/>
     <use style="fill:#1f77b4;stroke:#1f77b4;" x="111.374034" xlink:href="#m2acdacdb4f" y="261.861531"/>
     <use style="fill:#1f77b4;stroke:#1f77b4;" x="102.128831" xlink:href="#m2acdacdb4f" y="262.367566"/>
     <use style="fill:#1f77b4;stroke:#1f77b4;" x="92.883628" xlink:href="#m2acdacdb4f" y="262.83722"/>
     <use style="fill:#1f77b4;stroke:#1f77b4;" x="83.102986" xlink:href="#m2acdacdb4f" y="263.222498"/>
     <use style="fill:#1f77b4;stroke:#1f77b4;" x="71.275828" xlink:href="#m2acdacdb4f" y="263.898612"/>
     <use style="fill:#1f77b4;stroke:#1f77b4;" x="56.857727" xlink:href="#m2acdacdb4f" y="264.27012"/>
    </g>
   </g>
   <g id="line2d_16">
    <defs>
     <path d="M 0 2.625 
C 0.696158 2.625 1.363897 2.348413 1.856155 1.856155 
C 2.348413 1.363897 2.625 0.696158 2.625 0 
C 2.625 -0.696158 2.348413 -1.363897 1.856155 -1.856155 
C 1.363897 -2.348413 0.696158 -2.625 0 -2.625 
C -0.696158 -2.625 -1.363897 -2.348413 -1.856155 -1.856155 
C -2.348413 -1.363897 -2.625 -0.696158 -2.625 0 
C -2.625 0.696158 -2.348413 1.363897 -1.856155 1.856155 
C -1.363897 2.348413 -0.696158 2.625 0 2.625 
z
" id="m9c3030dcb6" style="stroke:#ff7f0e;"/>
    </defs>
    <g clip-path="url(#p04aa10bd69)">
     <use style="fill:#ff7f0e;stroke:#ff7f0e;" x="377.431378" xlink:href="#m9c3030dcb6" y="72.198119"/>
     <use style="fill:#ff7f0e;stroke:#ff7f0e;" x="370.037027" xlink:href="#m9c3030dcb6" y="150.438697"/>
     <use style="fill:#ff7f0e;stroke:#ff7f0e;" x="362.643331" xlink:href="#m9c3030dcb6" y="185.28493"/>
     <use style="fill:#ff7f0e;stroke:#ff7f0e;" x="355.01809" xlink:href="#m9c3030dcb6" y="191.732591"/>
     <use style="fill:#ff7f0e;stroke:#ff7f0e;" x="347.375139" xlink:href="#m9c3030dcb6" y="209.801118"/>
     <use style="fill:#ff7f0e;stroke:#ff7f0e;" x="339.731532" xlink:href="#m9c3030dcb6" y="215.999594"/>
     <use style="fill:#ff7f0e;stroke:#ff7f0e;" x="331.815056" xlink:href="#m9c3030dcb6" y="219.993427"/>
     <use style="fill:#ff7f0e;stroke:#ff7f0e;" x="323.885461" xlink:href="#m9c3030dcb6" y="226.991056"/>
     <use style="fill:#ff7f0e;stroke:#ff7f0e;" x="315.849606" xlink:href="#m9c3030dcb6" y="232.431852"/>
     <use style="fill:#ff7f0e;stroke:#ff7f0e;" x="307.594011" xlink:href="#m9c3030dcb6" y="234.418541"/>
     <use style="fill:#ff7f0e;stroke:#ff7f0e;" x="299.339073" xlink:href="#m9c3030dcb6" y="238.281501"/>
     <use style="fill:#ff7f0e;stroke:#ff7f0e;" x="291.091351" xlink:href="#m9c3030dcb6" y="239.917989"/>
     <use style="fill:#ff7f0e;stroke:#ff7f0e;" x="282.845595" xlink:href="#m9c3030dcb6" y="241.495769"/>
     <use style="fill:#ff7f0e;stroke:#ff7f0e;" x="274.769728" xlink:href="#m9c3030dcb6" y="244.086266"/>
     <use style="fill:#ff7f0e;stroke:#ff7f0e;" x="266.867682" xlink:href="#m9c3030dcb6" y="246.461049"/>
     <use style="fill:#ff7f0e;stroke:#ff7f0e;" x="258.972196" xlink:href="#m9c3030dcb6" y="246.461049"/>
     <use style="fill:#ff7f0e;stroke:#ff7f0e;" x="251.034731" xlink:href="#m9c3030dcb6" y="248.892408"/>
     <use style="fill:#ff7f0e;stroke:#ff7f0e;" x="242.717479" xlink:href="#m9c3030dcb6" y="249.975812"/>
     <use style="fill:#ff7f0e;stroke:#ff7f0e;" x="234.017161" xlink:href="#m9c3030dcb6" y="251.20392"/>
     <use style="fill:#ff7f0e;stroke:#ff7f0e;" x="224.917379" xlink:href="#m9c3030dcb6" y="252.326982"/>
     <use style="fill:#ff7f0e;stroke:#ff7f0e;" x="215.769714" xlink:href="#m9c3030dcb6" y="253.418983"/>
     <use style="fill:#ff7f0e;stroke:#ff7f0e;" x="206.923778" xlink:href="#m9c3030dcb6" y="254.88801"/>
     <use style="fill:#ff7f0e;stroke:#ff7f0e;" x="198.371046" xlink:href="#m9c3030dcb6" y="255.493347"/>
     <use style="fill:#ff7f0e;stroke:#ff7f0e;" x="190.063633" xlink:href="#m9c3030dcb6" y="256.129305"/>
     <use style="fill:#ff7f0e;stroke:#ff7f0e;" x="181.783769" xlink:href="#m9c3030dcb6" y="256.681718"/>
     <use style="fill:#ff7f0e;stroke:#ff7f0e;" x="173.477668" xlink:href="#m9c3030dcb6" y="258.029157"/>
     <use style="fill:#ff7f0e;stroke:#ff7f0e;" x="164.979378" xlink:href="#m9c3030dcb6" y="258.506859"/>
     <use style="fill:#ff7f0e;stroke:#ff7f0e;" x="156.442388" xlink:href="#m9c3030dcb6" y="258.973913"/>
     <use style="fill:#ff7f0e;stroke:#ff7f0e;" x="147.677789" xlink:href="#m9c3030dcb6" y="259.891516"/>
     <use style="fill:#ff7f0e;stroke:#ff7f0e;" x="138.842349" xlink:href="#m9c3030dcb6" y="260.376984"/>
     <use style="fill:#ff7f0e;stroke:#ff7f0e;" x="129.761589" xlink:href="#m9c3030dcb6" y="260.889765"/>
     <use style="fill:#ff7f0e;stroke:#ff7f0e;" x="120.619302" xlink:href="#m9c3030dcb6" y="261.383144"/>
     <use style="fill:#ff7f0e;stroke:#ff7f0e;" x="111.374034" xlink:href="#m9c3030dcb6" y="261.861531"/>
     <use style="fill:#ff7f0e;stroke:#ff7f0e;" x="102.128831" xlink:href="#m9c3030dcb6" y="262.367566"/>
     <use style="fill:#ff7f0e;stroke:#ff7f0e;" x="92.883628" xlink:href="#m9c3030dcb6" y="262.83722"/>
     <use style="fill:#ff7f0e;stroke:#ff7f0e;" x="83.102986" xlink:href="#m9c3030dcb6" y="263.222498"/>
     <use style="fill:#ff7f0e;stroke:#ff7f0e;" x="71.275828" xlink:href="#m9c3030dcb6" y="263.898612"/>
     <use style="fill:#ff7f0e;stroke:#ff7f0e;" x="56.857727" xlink:href="#m9c3030dcb6" y="264.27012"/>
    </g>
   </g>
   <g id="line2d_17">
    <defs>
     <path d="M 0 1.8375 
C 0.487311 1.8375 0.954728 1.643889 1.299309 1.299309 
C 1.643889 0.954728 1.8375 0.487311 1.8375 0 
C 1.8375 -0.487311 1.643889 -0.954728 1.299309 -1.299309 
C 0.954728 -1.643889 0.487311 -1.8375 0 -1.8375 
C -0.487311 -1.8375 -0.954728 -1.643889 -1.299309 -1.299309 
C -1.643889 -0.954728 -1.8375 -0.487311 -1.8375 0 
C -1.8375 0.487311 -1.643889 0.954728 -1.299309 1.299309 
C -0.954728 1.643889 -0.487311 1.8375 0 1.8375 
z
" id="m1999e76dd7" style="stroke:#2ca02c;"/>
    </defs>
    <g clip-path="url(#p04aa10bd69)">
     <use style="fill:#2ca02c;stroke:#2ca02c;" x="377.431378" xlink:href="#m1999e76dd7" y="72.198119"/>
     <use style="fill:#2ca02c;stroke:#2ca02c;" x="370.037027" xlink:href="#m1999e76dd7" y="150.438697"/>
     <use style="fill:#2ca02c;stroke:#2ca02c;" x="362.643331" xlink:href="#m1999e76dd7" y="185.28493"/>
     <use style="fill:#2ca02c;stroke:#2ca02c;" x="355.01809" xlink:href="#m1999e76dd7" y="191.732591"/>
     <use style="fill:#2ca02c;stroke:#2ca02c;" x="347.375139" xlink:href="#m1999e76dd7" y="209.801118"/>
     <use style="fill:#2ca02c;stroke:#2ca02c;" x="339.731532" xlink:href="#m1999e76dd7" y="215.999594"/>
     <use style="fill:#2ca02c;stroke:#2ca02c;" x="331.815056" xlink:href="#m1999e76dd7" y="219.993427"/>
     <use style="fill:#2ca02c;stroke:#2ca02c;" x="323.885461" xlink:href="#m1999e76dd7" y="226.991056"/>
     <use style="fill:#2ca02c;stroke:#2ca02c;" x="315.849606" xlink:href="#m1999e76dd7" y="232.431852"/>
     <use style="fill:#2ca02c;stroke:#2ca02c;" x="307.594011" xlink:href="#m1999e76dd7" y="234.418541"/>
     <use style="fill:#2ca02c;stroke:#2ca02c;" x="299.339073" xlink:href="#m1999e76dd7" y="238.281501"/>
     <use style="fill:#2ca02c;stroke:#2ca02c;" x="291.091351" xlink:href="#m1999e76dd7" y="239.917989"/>
     <use style="fill:#2ca02c;stroke:#2ca02c;" x="282.845595" xlink:href="#m1999e76dd7" y="241.495769"/>
     <use style="fill:#2ca02c;stroke:#2ca02c;" x="274.769728" xlink:href="#m1999e76dd7" y="244.086266"/>
     <use style="fill:#2ca02c;stroke:#2ca02c;" x="266.867682" xlink:href="#m1999e76dd7" y="246.461049"/>
     <use style="fill:#2ca02c;stroke:#2ca02c;" x="258.972196" xlink:href="#m1999e76dd7" y="246.461049"/>
     <use style="fill:#2ca02c;stroke:#2ca02c;" x="251.034731" xlink:href="#m1999e76dd7" y="248.892408"/>
     <use style="fill:#2ca02c;stroke:#2ca02c;" x="242.717479" xlink:href="#m1999e76dd7" y="249.975812"/>
     <use style="fill:#2ca02c;stroke:#2ca02c;" x="234.017161" xlink:href="#m1999e76dd7" y="251.20392"/>
     <use style="fill:#2ca02c;stroke:#2ca02c;" x="224.917379" xlink:href="#m1999e76dd7" y="252.326982"/>
     <use style="fill:#2ca02c;stroke:#2ca02c;" x="215.769714" xlink:href="#m1999e76dd7" y="253.418983"/>
     <use style="fill:#2ca02c;stroke:#2ca02c;" x="206.923778" xlink:href="#m1999e76dd7" y="254.88801"/>
     <use style="fill:#2ca02c;stroke:#2ca02c;" x="198.371046" xlink:href="#m1999e76dd7" y="255.493347"/>
     <use style="fill:#2ca02c;stroke:#2ca02c;" x="190.063633" xlink:href="#m1999e76dd7" y="256.129305"/>
     <use style="fill:#2ca02c;stroke:#2ca02c;" x="181.783769" xlink:href="#m1999e76dd7" y="256.681718"/>
     <use style="fill:#2ca02c;stroke:#2ca02c;" x="173.477668" xlink:href="#m1999e76dd7" y="258.029157"/>
     <use style="fill:#2ca02c;stroke:#2ca02c;" x="164.979378" xlink:href="#m1999e76dd7" y="258.506859"/>
     <use style="fill:#2ca02c;stroke:#2ca02c;" x="156.442388" xlink:href="#m1999e76dd7" y="258.973913"/>
     <use style="fill:#2ca02c;stroke:#2ca02c;" x="147.677789" xlink:href="#m1999e76dd7" y="259.891516"/>
     <use style="fill:#2ca02c;stroke:#2ca02c;" x="138.842349" xlink:href="#m1999e76dd7" y="260.376984"/>
     <use style="fill:#2ca02c;stroke:#2ca02c;" x="129.761589" xlink:href="#m1999e76dd7" y="260.889765"/>
     <use style="fill:#2ca02c;stroke:#2ca02c;" x="120.619302" xlink:href="#m1999e76dd7" y="261.383144"/>
     <use style="fill:#2ca02c;stroke:#2ca02c;" x="111.374034" xlink:href="#m1999e76dd7" y="261.861531"/>
     <use style="fill:#2ca02c;stroke:#2ca02c;" x="102.128831" xlink:href="#m1999e76dd7" y="262.367566"/>
     <use style="fill:#2ca02c;stroke:#2ca02c;" x="92.883628" xlink:href="#m1999e76dd7" y="262.83722"/>
     <use style="fill:#2ca02c;stroke:#2ca02c;" x="83.102986" xlink:href="#m1999e76dd7" y="263.222498"/>
     <use style="fill:#2ca02c;stroke:#2ca02c;" x="71.275828" xlink:href="#m1999e76dd7" y="263.898612"/>
     <use style="fill:#2ca02c;stroke:#2ca02c;" x="56.857727" xlink:href="#m1999e76dd7" y="264.27012"/>
    </g>
   </g>
   <g id="patch_3">
    <path d="M 40.625 276.812 
L 40.625 10.7 
" style="fill:none;stroke:#000000;stroke-linecap:square;stroke-linejoin:miter;stroke-width:0.8;"/>
   </g>
   <g id="patch_4">
    <path d="M 397.745 276.812 
L 397.745 10.7 
" style="fill:none;stroke:#000000;stroke-linecap:square;stroke-linejoin:miter;stroke-width:0.8;"/>
   </g>
   <g id="patch_5">
    <path d="M 40.625 276.812 
L 397.745 276.812 
" style="fill:none;stroke:#000000;stroke-linecap:square;stroke-linejoin:miter;stroke-width:0.8;"/>
   </g>
   <g id="patch_6">
    <path d="M 40.625 10.7 
L 397.745 10.7 
" style="fill:none;stroke:#000000;stroke-linecap:square;stroke-linejoin:miter;stroke-width:0.8;"/>
   </g>
   <g id="legend_1">
    <g id="patch_7">
     <path d="M 47.625 77.434375 
L 107.242188 77.434375 
Q 109.242188 77.434375 109.242188 75.434375 
L 109.242188 17.7 
Q 109.242188 15.7 107.242188 15.7 
L 47.625 15.7 
Q 45.625 15.7 45.625 17.7 
L 45.625 75.434375 
Q 45.625 77.434375 47.625 77.434375 
z
" style="fill:#ffffff;opacity:0.8;stroke:#cccccc;stroke-linejoin:miter;"/>
    </g>
    <g id="line2d_18"/>
    <g id="line2d_19">
     <g>
      <use style="fill:#1f77b4;stroke:#1f77b4;" x="59.625" xlink:href="#m2acdacdb4f" y="23.798438"/>
     </g>
    </g>
    <g id="text_16">
     <!-- $a=$0 -->
     <defs>
      <path d="M 53.71875 31.203125 
L 47.609375 0 
L 38.625 0 
L 40.28125 8.296875 
Q 36.328125 3.421875 31.265625 1 
Q 26.21875 -1.421875 20.015625 -1.421875 
Q 13.03125 -1.421875 8.5625 2.84375 
Q 4.109375 7.125 4.109375 13.8125 
Q 4.109375 23.390625 11.75 28.953125 
Q 19.390625 34.515625 32.8125 34.515625 
L 45.3125 34.515625 
L 45.796875 36.921875 
Q 45.90625 37.3125 45.953125 37.765625 
Q 46 38.234375 46 39.203125 
Q 46 43.5625 42.453125 45.96875 
Q 38.921875 48.390625 32.515625 48.390625 
Q 28.125 48.390625 23.5 47.265625 
Q 18.890625 46.140625 14.015625 43.890625 
L 15.578125 52.203125 
Q 20.65625 54.109375 25.515625 55.046875 
Q 30.375 56 34.90625 56 
Q 44.578125 56 49.625 51.796875 
Q 54.6875 47.609375 54.6875 39.59375 
Q 54.6875 37.984375 54.4375 35.8125 
Q 54.203125 33.640625 53.71875 31.203125 
z
M 44 27.484375 
L 35.015625 27.484375 
Q 23.96875 27.484375 18.671875 24.53125 
Q 13.375 21.578125 13.375 15.375 
Q 13.375 11.078125 16.078125 8.640625 
Q 18.796875 6.203125 23.578125 6.203125 
Q 30.90625 6.203125 36.375 11.453125 
Q 41.84375 16.703125 43.609375 25.484375 
z
" id="DejaVuSans-Oblique-97"/>
      <path d="M 10.59375 45.40625 
L 73.1875 45.40625 
L 73.1875 37.203125 
L 10.59375 37.203125 
z
M 10.59375 25.484375 
L 73.1875 25.484375 
L 73.1875 17.1875 
L 10.59375 17.1875 
z
" id="DejaVuSans-61"/>
     </defs>
     <g transform="translate(77.625 27.298438)scale(0.1 -0.1)">
      <use transform="translate(0 0.78125)" xlink:href="#DejaVuSans-Oblique-97"/>
      <use transform="translate(80.761719 0.78125)" xlink:href="#DejaVuSans-61"/>
      <use transform="translate(184.033203 0.78125)" xlink:href="#DejaVuSans-48"/>
     </g>
    </g>
    <g id="line2d_20"/>
    <g id="line2d_21">
     <g>
      <use style="fill:#ff7f0e;stroke:#ff7f0e;" x="59.625" xlink:href="#m9c3030dcb6" y="38.476563"/>
     </g>
    </g>
    <g id="text_17">
     <!-- $a=$1 -->
     <g transform="translate(77.625 41.976563)scale(0.1 -0.1)">
      <use transform="translate(0 0.09375)" xlink:href="#DejaVuSans-Oblique-97"/>
      <use transform="translate(80.761719 0.09375)" xlink:href="#DejaVuSans-61"/>
      <use transform="translate(184.033203 0.09375)" xlink:href="#DejaVuSans-49"/>
     </g>
    </g>
    <g id="line2d_22"/>
    <g id="line2d_23">
     <g>
      <use style="fill:#2ca02c;stroke:#2ca02c;" x="59.625" xlink:href="#m1999e76dd7" y="53.15625"/>
     </g>
    </g>
    <g id="text_18">
     <!-- $a=$1j -->
     <defs>
      <path d="M 9.421875 54.6875 
L 18.40625 54.6875 
L 18.40625 -0.984375 
Q 18.40625 -11.421875 14.421875 -16.109375 
Q 10.453125 -20.796875 1.609375 -20.796875 
L -1.8125 -20.796875 
L -1.8125 -13.1875 
L 0.59375 -13.1875 
Q 5.71875 -13.1875 7.5625 -10.8125 
Q 9.421875 -8.453125 9.421875 -0.984375 
z
M 9.421875 75.984375 
L 18.40625 75.984375 
L 18.40625 64.59375 
L 9.421875 64.59375 
z
" id="DejaVuSans-106"/>
     </defs>
     <g transform="translate(77.625 56.65625)scale(0.1 -0.1)">
      <use transform="translate(0 0.015625)" xlink:href="#DejaVuSans-Oblique-97"/>
      <use transform="translate(80.761719 0.015625)" xlink:href="#DejaVuSans-61"/>
      <use transform="translate(184.033203 0.015625)" xlink:href="#DejaVuSans-49"/>
      <use transform="translate(247.65625 0.015625)" xlink:href="#DejaVuSans-106"/>
     </g>
    </g>
    <g id="line2d_24">
     <path d="M 49.625 67.854688 
L 69.625 67.854688 
" style="fill:none;stroke:#808080;stroke-linecap:square;stroke-width:1.5;"/>
    </g>
    <g id="line2d_25"/>
    <g id="text_19">
     <!-- exact -->
     <defs>
      <path d="M 34.28125 27.484375 
Q 23.390625 27.484375 19.1875 25 
Q 14.984375 22.515625 14.984375 16.5 
Q 14.984375 11.71875 18.140625 8.90625 
Q 21.296875 6.109375 26.703125 6.109375 
Q 34.1875 6.109375 38.703125 11.40625 
Q 43.21875 16.703125 43.21875 25.484375 
L 43.21875 27.484375 
z
M 52.203125 31.203125 
L 52.203125 0 
L 43.21875 0 
L 43.21875 8.296875 
Q 40.140625 3.328125 35.546875 0.953125 
Q 30.953125 -1.421875 24.3125 -1.421875 
Q 15.921875 -1.421875 10.953125 3.296875 
Q 6 8.015625 6 15.921875 
Q 6 25.140625 12.171875 29.828125 
Q 18.359375 34.515625 30.609375 34.515625 
L 43.21875 34.515625 
L 43.21875 35.40625 
Q 43.21875 41.609375 39.140625 45 
Q 35.0625 48.390625 27.6875 48.390625 
Q 23 48.390625 18.546875 47.265625 
Q 14.109375 46.140625 10.015625 43.890625 
L 10.015625 52.203125 
Q 14.9375 54.109375 19.578125 55.046875 
Q 24.21875 56 28.609375 56 
Q 40.484375 56 46.34375 49.84375 
Q 52.203125 43.703125 52.203125 31.203125 
z
" id="DejaVuSans-97"/>
      <path d="M 48.78125 52.59375 
L 48.78125 44.1875 
Q 44.96875 46.296875 41.140625 47.34375 
Q 37.3125 48.390625 33.40625 48.390625 
Q 24.65625 48.390625 19.8125 42.84375 
Q 14.984375 37.3125 14.984375 27.296875 
Q 14.984375 17.28125 19.8125 11.734375 
Q 24.65625 6.203125 33.40625 6.203125 
Q 37.3125 6.203125 41.140625 7.25 
Q 44.96875 8.296875 48.78125 10.40625 
L 48.78125 2.09375 
Q 45.015625 0.34375 40.984375 -0.53125 
Q 36.96875 -1.421875 32.421875 -1.421875 
Q 20.0625 -1.421875 12.78125 6.34375 
Q 5.515625 14.109375 5.515625 27.296875 
Q 5.515625 40.671875 12.859375 48.328125 
Q 20.21875 56 33.015625 56 
Q 37.15625 56 41.109375 55.140625 
Q 45.0625 54.296875 48.78125 52.59375 
z
" id="DejaVuSans-99"/>
     </defs>
     <g transform="translate(77.625 71.354688)scale(0.1 -0.1)">
      <use xlink:href="#DejaVuSans-101"/>
      <use x="61.507812" xlink:href="#DejaVuSans-120"/>
      <use x="120.6875" xlink:href="#DejaVuSans-97"/>
      <use x="181.966797" xlink:href="#DejaVuSans-99"/>
      <use x="236.947266" xlink:href="#DejaVuSans-116"/>
     </g>
    </g>
   </g>
  </g>
 </g>
 <defs>
  <clipPath id="p04aa10bd69">
   <rect height="266.112" width="357.12" x="40.625" y="10.7"/>
  </clipPath>
 </defs>
</svg>
