<?xml version="1.0" encoding="utf-8" standalone="no"?>
<!DOCTYPE svg PUBLIC "-//W3C//DTD SVG 1.1//EN"
  "http://www.w3.org/Graphics/SVG/1.1/DTD/svg11.dtd">
<!-- Created with matplotlib (https://matplotlib.org/) -->
<svg height="488.27625pt" version="1.1" viewBox="0 0 346.3125 488.27625" width="346.3125pt" xmlns="http://www.w3.org/2000/svg" xmlns:xlink="http://www.w3.org/1999/xlink">
 <defs>
  <style type="text/css">
*{stroke-linecap:butt;stroke-linejoin:round;}
  </style>
 </defs>
 <g id="figure_1">
  <g id="patch_1">
   <path d="M 0 488.27625 
L 346.3125 488.27625 
L 346.3125 0 
L 0 0 
z
" style="fill:#ffffff;"/>
  </g>
  <g id="axes_1">
   <g id="PathCollection_1">
    <path clip-path="url(#paa84f5d467)" d="M 331.160937 234.391765 
L 327.155716 248.306304 
L 325.765503 253.366904 
L 322.286726 265.601374 
L 319.423072 277.936868 
L 319.406098 277.99984 
L 315.624124 290.191765 
L 331.160937 290.191765 
L 331.160937 270.263185 
L 331.160937 250.334662 
" style="fill:#481769;"/>
   </g>
   <g id="PathCollection_2">
    <path clip-path="url(#paa84f5d467)" d="M 315.624124 290.191765 
L 319.406098 277.99984 
L 319.423072 277.936868 
L 322.286726 265.601374 
L 325.765503 253.366904 
L 327.155716 248.306304 
L 331.160937 234.391765 
L 331.160937 230.405971 
L 331.160937 210.477559 
L 331.160937 190.548868 
L 331.160937 178.591765 
L 328.120847 188.365745 
L 327.319793 191.008624 
L 326.169865 195.343883 
L 322.288367 208.371809 
L 319.365095 218.387532 
L 317.400351 225.01601 
L 313.815296 238.532536 
L 312.965006 240.936528 
L 312.589455 242.17482 
L 307.917657 256.616863 
L 306.458563 260.918755 
L 302.59594 274.841138 
L 302.383732 275.494497 
L 302.320365 275.737264 
L 297.196038 290.191765 
L 311.232246 290.191765 
" style="fill:#424086;"/>
   </g>
   <g id="PathCollection_3">
    <path clip-path="url(#paa84f5d467)" d="M 297.196038 290.191765 
L 302.320365 275.737264 
L 302.383732 275.494497 
L 302.59594 274.841138 
L 306.458563 260.918755 
L 307.917657 256.616863 
L 312.589455 242.17482 
L 312.965006 240.936528 
L 313.815296 238.532536 
L 317.400351 225.01601 
L 319.365095 218.387532 
L 322.288367 208.371809 
L 326.169865 195.343883 
L 327.319793 191.008624 
L 328.120847 188.365745 
L 331.160937 178.591765 
L 331.160937 170.620456 
L 331.160937 150.691765 
L 331.160937 130.763074 
L 331.160937 122.791765 
L 328.80537 129.895163 
L 327.984592 132.581509 
L 323.354674 146.851278 
L 320.720458 155.673314 
L 318.386763 163.02312 
L 314.408509 176.65131 
L 313.933708 178.177807 
L 311.584735 185.927665 
L 309.225045 192.610921 
L 308.314759 195.315684 
L 303.627655 207.810793 
L 301.414322 214.428066 
L 296.924737 228.564176 
L 296.446712 229.915676 
L 295.537348 232.91409 
L 291.226047 243.689274 
L 288.990412 249.38871 
L 285.872801 258.078086 
L 281.626249 270.460984 
L 280.206719 273.698541 
L 277.023032 282.236223 
L 273.747024 290.191765 
L 291.303834 290.191765 
" style="fill:#33638d;"/>
   </g>
   <g id="PathCollection_4">
    <path clip-path="url(#paa84f5d467)" d="M 273.747024 290.191765 
L 277.023032 282.236223 
L 280.206719 273.698541 
L 281.626249 270.460984 
L 285.872801 258.078086 
L 288.990412 249.38871 
L 291.226047 243.689274 
L 295.537348 232.91409 
L 296.446712 229.915676 
L 296.924737 228.564176 
L 301.414322 214.428066 
L 303.627655 207.810793 
L 308.314759 195.315684 
L 309.225045 192.610921 
L 311.584735 185.927665 
L 313.933708 178.177807 
L 314.408509 176.65131 
L 318.386763 163.02312 
L 320.720458 155.673314 
L 323.354674 146.851278 
L 327.984592 132.581509 
L 328.80537 129.895163 
L 331.160937 122.791765 
L 331.160937 110.834662 
L 331.160937 90.905971 
L 331.160937 70.977559 
L 331.160937 66.991765 
L 330.06134 70.100473 
L 329.592983 71.478641 
L 324.592346 85.788523 
L 322.276339 92.916525 
L 319.506945 100.997463 
L 316.79888 109.751463 
L 312.333088 123.76862 
L 312.316149 123.8197 
L 312.279975 123.938094 
L 306.593013 138.128916 
L 303.995043 145.274981 
L 300.745987 153.638899 
L 295.617506 168.211159 
L 295.051545 169.713821 
L 293.620589 173.821538 
L 288.184088 185.994733 
L 284.965118 193.754732 
L 280.952746 202.819615 
L 274.994258 217.912028 
L 274.551548 218.750922 
L 273.882341 220.240713 
L 266.894021 234.487749 
L 265.395815 237.943759 
L 258.351156 252.692296 
L 257.729319 254.182111 
L 248.607181 271.811906 
L 247.992791 273.170688 
L 238.02108 290.191765 
L 251.446731 290.191765 
L 271.375143 290.191765 
" style="fill:#26828e;"/>
   </g>
   <g id="PathCollection_5">
    <path clip-path="url(#paa84f5d467)" d="M 238.02108 290.191765 
L 247.992791 273.170688 
L 248.607181 271.811906 
L 257.729319 254.182111 
L 258.351156 252.692296 
L 265.395815 237.943759 
L 266.894021 234.487749 
L 273.882341 220.240713 
L 274.551548 218.750922 
L 274.994258 217.912028 
L 280.952746 202.819615 
L 284.965118 193.754732 
L 288.184088 185.994733 
L 293.620589 173.821538 
L 295.051545 169.713821 
L 295.617506 168.211159 
L 300.745987 153.638899 
L 303.995043 145.274981 
L 306.593013 138.128916 
L 312.279975 123.938094 
L 312.316149 123.8197 
L 312.333088 123.76862 
L 316.79888 109.751463 
L 319.506945 100.997463 
L 322.276339 92.916525 
L 324.592346 85.788523 
L 329.592983 71.478641 
L 330.06134 70.100473 
L 331.160937 66.991765 
L 331.160937 51.048868 
L 331.160937 31.120456 
L 331.160937 11.191765 
L 325.592458 26.828523 
L 322.127342 36.443384 
L 319.938336 42.562316 
L 314.727225 57.646631 
L 314.659125 57.80908 
L 314.630433 57.877496 
L 308.351313 72.936774 
L 305.157006 80.754776 
L 301.531099 89.40045 
L 294.704287 106.894225 
L 294.016158 108.21616 
L 293.488921 109.311416 
L 285.617006 125.193294 
L 279.938732 137.097055 
L 277.590789 141.849027 
L 274.621981 148.714727 
L 268.954234 157.747882 
L 264.428008 166.340207 
L 261.247749 171.863893 
L 257.871985 178.367993 
L 251.792651 186.669092 
L 246.341625 195.254881 
L 242.843435 200.463865 
L 237.378087 208.594401 
L 233.618984 213.007654 
L 231.636732 215.253598 
L 221.515694 227.655213 
L 218.138694 230.547168 
L 213.610802 234.814654 
L 205.185261 243.881065 
L 199.521995 247.797183 
L 192.37391 254.559453 
L 186.729536 257.997176 
L 179.271604 263.497182 
L 166.898969 270.831258 
L 165.50907 271.431934 
L 163.48798 272.193839 
L 151.262924 277.645594 
L 142.349123 279.551937 
L 133.325806 283.50287 
L 126.929635 283.821379 
L 112.862292 287.523377 
L 109.650226 287.102437 
L 92.328067 289.476856 
L 91.268882 289.125033 
L 72.130386 290.120532 
L 71.968961 290.018902 
L 52.160938 290.191765 
L 72.089517 290.191765 
L 92.01804 290.191765 
L 111.946731 290.191765 
L 131.875143 290.191765 
L 151.803834 290.191765 
L 171.732246 290.191765 
L 191.660937 290.191765 
L 211.589628 290.191765 
L 231.51804 290.191765 
" style="fill:#1fa088;"/>
   </g>
   <g id="PathCollection_6">
    <path clip-path="url(#paa84f5d467)" d="M 308.988118 11.191765 
L 302.823833 25.69088 
L 302.640224 26.018967 
L 295.710709 39.878066 
L 292.998244 44.738245 
L 287.491276 55.035856 
L 280.796715 68.529984 
L 278.897426 71.312861 
L 275.651574 76.209879 
L 268.375089 87.476798 
L 257.989985 102.531578 
L 256.688949 104.01798 
L 255.761638 104.887036 
L 239.855931 122.280515 
L 238.602407 123.09505 
L 223.544994 134.610003 
L 216.963388 137.223725 
L 208.928415 141.424257 
L 197.381652 143.418459 
L 195.137842 143.735704 
L 176.865239 140.407682 
L 176.558832 140.312814 
L 176.018682 139.964689 
L 162.485454 131.921166 
L 152.953211 121.645195 
L 149.345399 118.328258 
L 145.207547 112.430586 
L 140.620989 105.390901 
L 138.589307 101.022646 
L 132.530095 90.106965 
L 128.864503 80.579371 
L 125.559787 73.360362 
L 122.182729 62.49897 
L 119.058453 54.088475 
L 117.156481 46.44125 
L 113.480963 33.931521 
L 112.444162 28.727143 
L 109.046453 14.682287 
L 108.466778 11.191765 
L 92.01804 11.191765 
L 72.089517 11.191765 
L 52.160938 11.191765 
L 52.160938 31.120456 
L 52.160938 51.048868 
L 52.160938 70.977559 
L 52.160938 90.905971 
L 52.160938 110.834662 
L 52.160938 130.763074 
L 52.160938 150.691765 
L 52.160938 170.620456 
L 52.160938 190.548868 
L 52.160938 210.477559 
L 52.160938 230.405971 
L 52.160938 250.334662 
L 52.160938 270.263185 
L 52.160938 290.191765 
L 71.968961 290.018902 
L 72.130386 290.120532 
L 91.268882 289.125033 
L 92.328067 289.476856 
L 109.650226 287.102437 
L 112.862292 287.523377 
L 126.929635 283.821379 
L 133.325806 283.50287 
L 142.349123 279.551937 
L 151.262924 277.645594 
L 163.48798 272.193839 
L 165.50907 271.431934 
L 166.898969 270.831258 
L 179.271604 263.497182 
L 186.729536 257.997176 
L 192.37391 254.559453 
L 199.521995 247.797183 
L 205.185261 243.881065 
L 213.610802 234.814654 
L 218.138694 230.547168 
L 221.515694 227.655213 
L 231.636732 215.253598 
L 233.618984 213.007654 
L 237.378087 208.594401 
L 242.843435 200.463865 
L 246.341625 195.254881 
L 251.792651 186.669092 
L 257.871985 178.367993 
L 261.247749 171.863893 
L 264.428008 166.340207 
L 268.954234 157.747882 
L 274.621981 148.714727 
L 277.590789 141.849027 
L 279.938732 137.097055 
L 285.617006 125.193294 
L 293.488921 109.311416 
L 294.016158 108.21616 
L 294.704287 106.894225 
L 301.531099 89.40045 
L 305.157006 80.754776 
L 308.351313 72.936774 
L 314.630433 57.877496 
L 314.659125 57.80908 
L 314.727225 57.646631 
L 319.938336 42.562316 
L 322.127342 36.443384 
L 325.592458 26.828523 
L 331.160937 11.191765 
L 311.232246 11.191765 
" style="fill:#3fbc73;"/>
   </g>
   <g id="PathCollection_7">
    <path clip-path="url(#paa84f5d467)" d="M 272.425455 11.191765 
L 271.96607 11.933871 
L 270.564779 13.784663 
L 260.8346 23.249067 
L 253.243787 29.719101 
L 249.272303 33.456213 
L 241.416301 38.308869 
L 233.91898 41.710948 
L 228.85697 41.983319 
L 213.361487 43.247404 
L 207.479691 40.933456 
L 197.253314 36.406568 
L 190.96631 30.670261 
L 184.854826 25.617798 
L 174.144724 11.191765 
L 171.732246 11.191765 
L 151.803834 11.191765 
L 131.875143 11.191765 
L 111.946731 11.191765 
L 108.466778 11.191765 
L 109.046453 14.682287 
L 112.444162 28.727143 
L 113.480963 33.931521 
L 117.156481 46.44125 
L 119.058453 54.088475 
L 122.182729 62.49897 
L 125.559787 73.360362 
L 128.864503 80.579371 
L 132.530095 90.106965 
L 138.589307 101.022646 
L 140.620989 105.390901 
L 145.207547 112.430586 
L 149.345399 118.328258 
L 152.953211 121.645195 
L 162.485454 131.921166 
L 176.018682 139.964689 
L 176.558832 140.312814 
L 176.865239 140.407682 
L 195.137842 143.735704 
L 197.381652 143.418459 
L 208.928415 141.424257 
L 216.963388 137.223725 
L 223.544994 134.610003 
L 238.602407 123.09505 
L 239.855931 122.280515 
L 255.761638 104.887036 
L 256.688949 104.01798 
L 257.989985 102.531578 
L 268.375089 87.476798 
L 275.651574 76.209879 
L 278.897426 71.312861 
L 280.796715 68.529984 
L 287.491276 55.035856 
L 292.998244 44.738245 
L 295.710709 39.878066 
L 302.640224 26.018967 
L 302.823833 25.69088 
L 308.988118 11.191765 
L 291.303834 11.191765 
" style="fill:#84d44b;"/>
   </g>
   <g id="PathCollection_8">
    <path clip-path="url(#paa84f5d467)" d="M 174.144724 11.191765 
L 184.854826 25.617798 
L 190.96631 30.670261 
L 197.253314 36.406568 
L 207.479691 40.933456 
L 213.361487 43.247404 
L 228.85697 41.983319 
L 233.91898 41.710948 
L 241.416301 38.308869 
L 249.272303 33.456213 
L 253.243787 29.719101 
L 260.8346 23.249067 
L 270.564779 13.784663 
L 271.96607 11.933871 
L 272.425455 11.191765 
L 271.375143 11.191765 
L 251.446731 11.191765 
L 231.51804 11.191765 
L 211.589628 11.191765 
L 191.660937 11.191765 
" style="fill:#d8e219;"/>
   </g>
   <g id="line2d_1">
    <path clip-path="url(#paa84f5d467)" d="M 52.160938 270.263185 
L 52.160938 290.191765 
M 63.732909 278.20944 
L 52.160938 290.191765 
M 63.732909 278.20944 
L 52.160938 270.263185 
M 72.089517 290.191765 
L 52.160938 290.191765 
M 72.089517 290.191765 
L 63.732909 278.20944 
M 52.160938 250.334662 
L 52.160938 270.263185 
M 92.01804 290.191765 
L 72.089517 290.191765 
M 69.731632 260.952565 
L 52.160938 270.263185 
M 69.731632 260.952565 
L 63.732909 278.20944 
M 69.731632 260.952565 
L 52.160938 250.334662 
M 81.049993 274.574293 
L 63.732909 278.20944 
M 81.049993 274.574293 
L 72.089517 290.191765 
M 81.049993 274.574293 
L 92.01804 290.191765 
M 81.049993 274.574293 
L 69.731632 260.952565 
M 52.160938 230.405971 
L 52.160938 250.334662 
M 111.946731 290.191765 
L 92.01804 290.191765 
M 70.166928 242.84128 
L 52.160938 250.334662 
M 70.166928 242.84128 
L 69.731632 260.952565 
M 70.166928 242.84128 
L 52.160938 230.405971 
M 99.360483 273.260371 
L 92.01804 290.191765 
M 99.360483 273.260371 
L 81.049993 274.574293 
M 99.360483 273.260371 
L 111.946731 290.191765 
M 88.610613 254.546446 
L 69.731632 260.952565 
M 88.610613 254.546446 
L 81.049993 274.574293 
M 88.610613 254.546446 
L 70.166928 242.84128 
M 88.610613 254.546446 
L 99.360483 273.260371 
M 52.160938 210.477559 
L 52.160938 230.405971 
M 131.875143 290.191765 
L 111.946731 290.191765 
M 70.740691 223.251016 
L 52.160938 230.405971 
M 70.740691 223.251016 
L 70.166928 242.84128 
M 70.740691 223.251016 
L 52.160938 210.477559 
M 68.270649 206.511574 
L 52.160938 210.477559 
M 68.270649 206.511574 
L 70.740691 223.251016 
M 118.054878 272.389668 
L 111.946731 290.191765 
M 118.054878 272.389668 
L 99.360483 273.260371 
M 118.054878 272.389668 
L 131.875143 290.191765 
M 86.729316 232.15558 
L 70.166928 242.84128 
M 86.729316 232.15558 
L 88.610613 254.546446 
M 86.729316 232.15558 
L 70.740691 223.251016 
M 101.971924 238.879759 
L 88.610613 254.546446 
M 101.971924 238.879759 
L 86.729316 232.15558 
M 107.94615 255.283843 
L 99.360483 273.260371 
M 107.94615 255.283843 
L 88.610613 254.546446 
M 107.94615 255.283843 
L 118.054878 272.389668 
M 107.94615 255.283843 
L 101.971924 238.879759 
M 52.160938 190.548868 
L 52.160938 210.477559 
M 52.160938 190.548868 
L 68.270649 206.511574 
M 151.803834 290.191765 
L 131.875143 290.191765 
M 135.78477 272.164766 
L 131.875143 290.191765 
M 135.78477 272.164766 
L 118.054878 272.389668 
M 135.78477 272.164766 
L 151.803834 290.191765 
M 72.260823 192.791749 
L 68.270649 206.511574 
M 72.260823 192.791749 
L 52.160938 190.548868 
M 87.280341 208.936642 
L 70.740691 223.251016 
M 87.280341 208.936642 
L 68.270649 206.511574 
M 87.280341 208.936642 
L 86.729316 232.15558 
M 87.280341 208.936642 
L 72.260823 192.791749 
M 126.1509 253.62463 
L 118.054878 272.389668 
M 126.1509 253.62463 
L 107.94615 255.283843 
M 126.1509 253.62463 
L 135.78477 272.164766 
M 103.135632 220.817299 
L 86.729316 232.15558 
M 103.135632 220.817299 
L 101.971924 238.879759 
M 103.135632 220.817299 
L 87.280341 208.936642 
M 118.444641 236.302915 
L 101.971924 238.879759 
M 118.444641 236.302915 
L 107.94615 255.283843 
M 118.444641 236.302915 
L 126.1509 253.62463 
M 118.444641 236.302915 
L 103.135632 220.817299 
M 52.160938 170.620456 
L 52.160938 190.548868 
M 70.561936 177.28186 
L 52.160938 190.548868 
M 70.561936 177.28186 
L 72.260823 192.791749 
M 70.561936 177.28186 
L 52.160938 170.620456 
M 150.938097 270.111381 
L 151.803834 290.191765 
M 150.938097 270.111381 
L 135.78477 272.164766 
M 171.732246 290.191765 
L 151.803834 290.191765 
M 165.76053 272.570934 
L 151.803834 290.191765 
M 165.76053 272.570934 
L 150.938097 270.111381 
M 165.76053 272.570934 
L 171.732246 290.191765 
M 143.781747 252.511141 
L 135.78477 272.164766 
M 143.781747 252.511141 
L 126.1509 253.62463 
M 143.781747 252.511141 
L 150.938097 270.111381 
M 52.160938 150.691765 
L 52.160938 170.620456 
M 52.160938 130.763074 
L 52.160938 150.691765 
M 52.160938 110.834662 
L 52.160938 130.763074 
M 89.787714 188.975587 
L 72.260823 192.791749 
M 89.787714 188.975587 
L 87.280341 208.936642 
M 89.787714 188.975587 
L 70.561936 177.28186 
M 107.037447 202.93591 
L 87.280341 208.936642 
M 107.037447 202.93591 
L 103.135632 220.817299 
M 107.037447 202.93591 
L 89.787714 188.975587 
M 136.712724 234.715405 
L 126.1509 253.62463 
M 136.712724 234.715405 
L 118.444641 236.302915 
M 136.712724 234.715405 
L 143.781747 252.511141 
M 122.5239 218.314948 
L 103.135632 220.817299 
M 122.5239 218.314948 
L 118.444641 236.302915 
M 122.5239 218.314948 
L 107.037447 202.93591 
M 122.5239 218.314948 
L 136.712724 234.715405 
M 70.921483 159.65464 
L 52.160938 170.620456 
M 70.921483 159.65464 
L 70.561936 177.28186 
M 70.921483 159.65464 
L 52.160938 150.691765 
M 89.620872 170.346478 
L 70.561936 177.28186 
M 89.620872 170.346478 
L 89.787714 188.975587 
M 89.620872 170.346478 
L 70.921483 159.65464 
M 161.284812 252.297985 
L 150.938097 270.111381 
M 161.284812 252.297985 
L 165.76053 272.570934 
M 161.284812 252.297985 
L 143.781747 252.511141 
M 191.660937 290.191765 
L 171.732246 290.191765 
M 176.611956 255.988597 
L 165.76053 272.570934 
M 176.611956 255.988597 
L 161.284812 252.297985 
M 182.91624 273.786537 
L 171.732246 290.191765 
M 182.91624 273.786537 
L 165.76053 272.570934 
M 182.91624 273.786537 
L 191.660937 290.191765 
M 182.91624 273.786537 
L 176.611956 255.988597 
M 155.115285 234.216274 
L 143.781747 252.511141 
M 155.115285 234.216274 
L 136.712724 234.715405 
M 155.115285 234.216274 
L 161.284812 252.297985 
M 70.789935 141.577114 
L 52.160938 150.691765 
M 70.789935 141.577114 
L 52.160938 130.763074 
M 70.789935 141.577114 
L 70.921483 159.65464 
M 70.810665 123.504889 
L 52.160938 130.763074 
M 70.810665 123.504889 
L 52.160938 110.834662 
M 70.810665 123.504889 
L 70.789935 141.577114 
M 70.726714 109.395301 
L 52.160938 110.834662 
M 70.726714 109.395301 
L 70.810665 123.504889 
M 52.160938 51.048868 
L 52.160938 31.120456 
M 52.160938 90.905971 
L 52.160938 110.834662 
M 52.160938 70.977559 
L 52.160938 51.048868 
M 52.160938 70.977559 
L 52.160938 90.905971 
M 70.793869 95.190295 
L 52.160938 110.834662 
M 70.793869 95.190295 
L 70.726714 109.395301 
M 70.793869 95.190295 
L 52.160938 90.905971 
M 107.916297 185.090233 
L 89.787714 188.975587 
M 107.916297 185.090233 
L 107.037447 202.93591 
M 107.916297 185.090233 
L 89.620872 170.346478 
M 126.169035 200.169625 
L 107.037447 202.93591 
M 126.169035 200.169625 
L 122.5239 218.314948 
M 126.169035 200.169625 
L 107.916297 185.090233 
M 141.697896 215.9959 
L 136.712724 234.715405 
M 141.697896 215.9959 
L 122.5239 218.314948 
M 141.697896 215.9959 
L 155.115285 234.216274 
M 141.697896 215.9959 
L 126.169035 200.169625 
M 108.062493 167.215819 
L 89.620872 170.346478 
M 108.062493 167.215819 
L 107.916297 185.090233 
M 90.567798 151.521232 
L 70.921483 159.65464 
M 90.567798 151.521232 
L 89.620872 170.346478 
M 90.567798 151.521232 
L 70.789935 141.577114 
M 90.567798 151.521232 
L 108.062493 167.215819 
M 211.589628 290.191765 
L 191.660937 290.191765 
M 173.146497 234.31225 
L 161.284812 252.297985 
M 173.146497 234.31225 
L 176.611956 255.988597 
M 173.146497 234.31225 
L 155.115285 234.216274 
M 188.372365 243.914035 
L 176.611956 255.988597 
M 188.372365 243.914035 
L 173.146497 234.31225 
M 201.479784 272.796477 
L 191.660937 290.191765 
M 201.479784 272.796477 
L 182.91624 273.786537 
M 201.479784 272.796477 
L 211.589628 290.191765 
M 194.225505 259.485304 
L 176.611956 255.988597 
M 194.225505 259.485304 
L 182.91624 273.786537 
M 194.225505 259.485304 
L 188.372365 243.914035 
M 194.225505 259.485304 
L 201.479784 272.796477 
M 52.160938 11.191765 
L 52.160938 31.120456 
M 63.092548 22.095364 
L 52.160938 31.120456 
M 63.092548 22.095364 
L 52.160938 11.191765 
M 159.557802 215.803948 
L 155.115285 234.216274 
M 159.557802 215.803948 
L 141.697896 215.9959 
M 159.557802 215.803948 
L 173.146497 234.31225 
M 87.810162 129.966529 
L 70.789935 141.577114 
M 87.810162 129.966529 
L 70.810665 123.504889 
M 87.810162 129.966529 
L 90.567798 151.521232 
M 66.600108 39.124687 
L 52.160938 31.120456 
M 66.600108 39.124687 
L 52.160938 51.048868 
M 66.600108 39.124687 
L 63.092548 22.095364 
M 89.336292 108.07033 
L 70.810665 123.504889 
M 89.336292 108.07033 
L 70.726714 109.395301 
M 89.336292 108.07033 
L 70.793869 95.190295 
M 89.336292 108.07033 
L 87.810162 129.966529 
M 68.840785 57.65503 
L 52.160938 51.048868 
M 68.840785 57.65503 
L 52.160938 70.977559 
M 68.840785 57.65503 
L 66.600108 39.124687 
M 70.413759 76.606105 
L 52.160938 90.905971 
M 70.413759 76.606105 
L 52.160938 70.977559 
M 70.413759 76.606105 
L 70.793869 95.190295 
M 70.413759 76.606105 
L 68.840785 57.65503 
M 87.797328 85.486117 
L 70.793869 95.190295 
M 87.797328 85.486117 
L 89.336292 108.07033 
M 87.797328 85.486117 
L 70.413759 76.606105 
M 126.562146 182.388118 
L 107.916297 185.090233 
M 126.562146 182.388118 
L 126.169035 200.169625 
M 126.562146 182.388118 
L 108.062493 167.215819 
M 126.872394 164.896771 
L 108.062493 167.215819 
M 126.872394 164.896771 
L 126.562146 182.388118 
M 145.563162 196.62493 
L 126.169035 200.169625 
M 145.563162 196.62493 
L 141.697896 215.9959 
M 145.563162 196.62493 
L 159.557802 215.803948 
M 145.563162 196.62493 
L 126.562146 182.388118 
M 112.992702 150.720223 
L 108.062493 167.215819 
M 112.992702 150.720223 
L 90.567798 151.521232 
M 112.992702 150.720223 
L 126.872394 164.896771 
M 103.123077 138.432784 
L 90.567798 151.521232 
M 103.123077 138.432784 
L 87.810162 129.966529 
M 103.123077 138.432784 
L 112.992702 150.720223 
M 130.824708 148.077535 
L 126.872394 164.896771 
M 130.824708 148.077535 
L 112.992702 150.720223 
M 217.157353 271.384989 
L 211.589628 290.191765 
M 217.157353 271.384989 
L 201.479784 272.796477 
M 231.51804 290.191765 
L 211.589628 290.191765 
M 231.51804 290.191765 
L 217.157353 271.384989 
M 175.759611 213.715075 
L 173.146497 234.31225 
M 175.759611 213.715075 
L 159.557802 215.803948 
M 188.031984 225.101623 
L 173.146497 234.31225 
M 188.031984 225.101623 
L 188.372365 243.914035 
M 188.031984 225.101623 
L 175.759611 213.715075 
M 201.630723 235.212862 
L 188.372365 243.914035 
M 201.630723 235.212862 
L 188.031984 225.101623 
M 208.002246 250.750651 
L 188.372365 243.914035 
M 208.002246 250.750651 
L 201.479784 272.796477 
M 208.002246 250.750651 
L 194.225505 259.485304 
M 208.002246 250.750651 
L 217.157353 271.384989 
M 208.002246 250.750651 
L 201.630723 235.212862 
M 72.089517 11.191765 
L 52.160938 11.191765 
M 72.089517 11.191765 
L 63.092548 22.095364 
M 80.180908 25.638664 
L 63.092548 22.095364 
M 80.180908 25.638664 
L 66.600108 39.124687 
M 80.180908 25.638664 
L 72.089517 11.191765 
M 165.607917 197.23315 
L 159.557802 215.803948 
M 165.607917 197.23315 
L 145.563162 196.62493 
M 165.607917 197.23315 
L 175.759611 213.715075 
M 106.675584 122.147275 
L 87.810162 129.966529 
M 106.675584 122.147275 
L 89.336292 108.07033 
M 106.675584 122.147275 
L 103.123077 138.432784 
M 109.103721 106.7953 
L 89.336292 108.07033 
M 109.103721 106.7953 
L 106.675584 122.147275 
M 84.202971 43.293226 
L 66.600108 39.124687 
M 84.202971 43.293226 
L 68.840785 57.65503 
M 84.202971 43.293226 
L 80.180908 25.638664 
M 105.650817 91.4503 
L 89.336292 108.07033 
M 105.650817 91.4503 
L 87.797328 85.486117 
M 105.650817 91.4503 
L 109.103721 106.7953 
M 88.427868 62.630716 
L 68.840785 57.65503 
M 88.427868 62.630716 
L 70.413759 76.606105 
M 88.427868 62.630716 
L 87.797328 85.486117 
M 88.427868 62.630716 
L 84.202971 43.293226 
M 101.5431 73.63615 
L 87.797328 85.486117 
M 101.5431 73.63615 
L 105.650817 91.4503 
M 101.5431 73.63615 
L 88.427868 62.630716 
M 144.357045 159.555316 
L 126.872394 164.896771 
M 144.357045 159.555316 
L 130.824708 148.077535 
M 144.543138 175.867888 
L 126.562146 182.388118 
M 144.543138 175.867888 
L 126.872394 164.896771 
M 144.543138 175.867888 
L 145.563162 196.62493 
M 144.543138 175.867888 
L 144.357045 159.555316 
M 161.350099 180.596101 
L 145.563162 196.62493 
M 161.350099 180.596101 
L 165.607917 197.23315 
M 161.350099 180.596101 
L 144.543138 175.867888 
M 124.03887 132.920023 
L 112.992702 150.720223 
M 124.03887 132.920023 
L 103.123077 138.432784 
M 124.03887 132.920023 
L 130.824708 148.077535 
M 124.03887 132.920023 
L 106.675584 122.147275 
M 144.498219 140.9449 
L 130.824708 148.077535 
M 144.498219 140.9449 
L 144.357045 159.555316 
M 144.498219 140.9449 
L 124.03887 132.920023 
M 223.19268 254.012719 
L 217.157353 271.384989 
M 223.19268 254.012719 
L 208.002246 250.750651 
M 232.731411 270.706991 
L 217.157353 271.384989 
M 232.731411 270.706991 
L 231.51804 290.191765 
M 232.731411 270.706991 
L 223.19268 254.012719 
M 251.446731 290.191765 
L 231.51804 290.191765 
M 247.721244 271.832505 
L 231.51804 290.191765 
M 247.721244 271.832505 
L 232.731411 270.706991 
M 247.721244 271.832505 
L 251.446731 290.191765 
M 182.751351 198.016303 
L 175.759611 213.715075 
M 182.751351 198.016303 
L 165.607917 197.23315 
M 194.096049 210.214183 
L 175.759611 213.715075 
M 194.096049 210.214183 
L 188.031984 225.101623 
M 194.096049 210.214183 
L 182.751351 198.016303 
M 206.897965 220.716301 
L 188.031984 225.101623 
M 206.897965 220.716301 
L 201.630723 235.212862 
M 206.897965 220.716301 
L 194.096049 210.214183 
M 222.67374 234.513409 
L 201.630723 235.212862 
M 222.67374 234.513409 
L 208.002246 250.750651 
M 222.67374 234.513409 
L 223.19268 254.012719 
M 222.67374 234.513409 
L 206.897965 220.716301 
M 92.01804 11.191765 
L 72.089517 11.191765 
M 92.01804 11.191765 
L 80.180908 25.638664 
M 98.365011 27.537538 
L 80.180908 25.638664 
M 98.365011 27.537538 
L 84.202971 43.293226 
M 98.365011 27.537538 
L 92.01804 11.191765 
M 184.891002 184.133263 
L 165.607917 197.23315 
M 184.891002 184.133263 
L 161.350099 180.596101 
M 184.891002 184.133263 
L 182.751351 198.016303 
M 174.93405 169.784572 
L 161.350099 180.596101 
M 174.93405 169.784572 
L 184.891002 184.133263 
M 126.800133 115.113964 
L 106.675584 122.147275 
M 126.800133 115.113964 
L 109.103721 106.7953 
M 126.800133 115.113964 
L 124.03887 132.920023 
M 125.381418 96.916468 
L 109.103721 106.7953 
M 125.381418 96.916468 
L 105.650817 91.4503 
M 125.381418 96.916468 
L 126.800133 115.113964 
M 103.721532 45.55201 
L 84.202971 43.293226 
M 103.721532 45.55201 
L 88.427868 62.630716 
M 103.721532 45.55201 
L 98.365011 27.537538 
M 120.391503 78.55213 
L 105.650817 91.4503 
M 120.391503 78.55213 
L 101.5431 73.63615 
M 120.391503 78.55213 
L 125.381418 96.916468 
M 112.416009 60.790711 
L 88.427868 62.630716 
M 112.416009 60.790711 
L 101.5431 73.63615 
M 112.416009 60.790711 
L 103.721532 45.55201 
M 112.416009 60.790711 
L 120.391503 78.55213 
M 161.302389 156.965917 
L 144.357045 159.555316 
M 161.302389 156.965917 
L 144.543138 175.867888 
M 161.302389 156.965917 
L 161.350099 180.596101 
M 161.302389 156.965917 
L 144.498219 140.9449 
M 161.302389 156.965917 
L 174.93405 169.784572 
M 159.673587 136.061563 
L 144.498219 140.9449 
M 159.673587 136.061563 
L 161.302389 156.965917 
M 146.081823 121.755838 
L 124.03887 132.920023 
M 146.081823 121.755838 
L 144.498219 140.9449 
M 146.081823 121.755838 
L 126.800133 115.113964 
M 146.081823 121.755838 
L 159.673587 136.061563 
M 239.095959 251.67442 
L 223.19268 254.012719 
M 239.095959 251.67442 
L 232.731411 270.706991 
M 239.095959 251.67442 
L 247.721244 271.832505 
M 239.095959 251.67442 
L 222.67374 234.513409 
M 271.375143 290.191765 
L 251.446731 290.191765 
M 265.48071 271.419585 
L 251.446731 290.191765 
M 265.48071 271.419585 
L 247.721244 271.832505 
M 265.48071 271.419585 
L 271.375143 290.191765 
M 257.04654 252.663754 
L 247.721244 271.832505 
M 257.04654 252.663754 
L 239.095959 251.67442 
M 257.04654 252.663754 
L 265.48071 271.419585 
M 202.75872 199.0327 
L 182.751351 198.016303 
M 202.75872 199.0327 
L 194.096049 210.214183 
M 202.75872 199.0327 
L 206.897965 220.716301 
M 202.75872 199.0327 
L 184.891002 184.133263 
M 219.054831 213.081466 
L 206.897965 220.716301 
M 219.054831 213.081466 
L 222.67374 234.513409 
M 219.054831 213.081466 
L 202.75872 199.0327 
M 244.306842 233.029408 
L 222.67374 234.513409 
M 244.306842 233.029408 
L 239.095959 251.67442 
M 244.306842 233.029408 
L 257.04654 252.663754 
M 235.341735 215.893228 
L 222.67374 234.513409 
M 235.341735 215.893228 
L 219.054831 213.081466 
M 235.341735 215.893228 
L 244.306842 233.029408 
M 111.946731 11.191765 
L 92.01804 11.191765 
M 111.946731 11.191765 
L 98.365011 27.537538 
M 117.49353 29.153785 
L 98.365011 27.537538 
M 117.49353 29.153785 
L 103.721532 45.55201 
M 117.49353 29.153785 
L 111.946731 11.191765 
M 206.933955 183.335044 
L 184.891002 184.133263 
M 206.933955 183.335044 
L 202.75872 199.0327 
M 197.3238 169.436659 
L 184.891002 184.133263 
M 197.3238 169.436659 
L 174.93405 169.784572 
M 197.3238 169.436659 
L 206.933955 183.335044 
M 185.031897 156.239959 
L 174.93405 169.784572 
M 185.031897 156.239959 
L 161.302389 156.965917 
M 185.031897 156.239959 
L 197.3238 169.436659 
M 144.304593 102.799462 
L 126.800133 115.113964 
M 144.304593 102.799462 
L 125.381418 96.916468 
M 144.304593 102.799462 
L 146.081823 121.755838 
M 139.78842 83.193016 
L 125.381418 96.916468 
M 139.78842 83.193016 
L 120.391503 78.55213 
M 139.78842 83.193016 
L 144.304593 102.799462 
M 126.053808 47.030152 
L 103.721532 45.55201 
M 126.053808 47.030152 
L 112.416009 60.790711 
M 126.053808 47.030152 
L 117.49353 29.153785 
M 134.267847 64.612732 
L 120.391503 78.55213 
M 134.267847 64.612732 
L 112.416009 60.790711 
M 134.267847 64.612732 
L 139.78842 83.193016 
M 134.267847 64.612732 
L 126.053808 47.030152 
M 176.723556 140.13301 
L 161.302389 156.965917 
M 176.723556 140.13301 
L 159.673587 136.061563 
M 176.723556 140.13301 
L 185.031897 156.239959 
M 169.646721 121.376398 
L 159.673587 136.061563 
M 169.646721 121.376398 
L 146.081823 121.755838 
M 169.646721 121.376398 
L 176.723556 140.13301 
M 162.632103 104.373859 
L 146.081823 121.755838 
M 162.632103 104.373859 
L 144.304593 102.799462 
M 162.632103 104.373859 
L 169.646721 121.376398 
M 291.303834 290.191765 
L 271.375143 290.191765 
M 282.799356 274.09977 
L 271.375143 290.191765 
M 282.799356 274.09977 
L 265.48071 271.419585 
M 282.799356 274.09977 
L 291.303834 290.191765 
M 276.022446 253.078906 
L 265.48071 271.419585 
M 276.022446 253.078906 
L 257.04654 252.663754 
M 276.022446 253.078906 
L 282.799356 274.09977 
M 262.590828 233.948713 
L 257.04654 252.663754 
M 262.590828 233.948713 
L 244.306842 233.029408 
M 262.590828 233.948713 
L 276.022446 253.078906 
M 196.261647 142.345201 
L 185.031897 156.239959 
M 196.261647 142.345201 
L 176.723556 140.13301 
M 222.733446 194.774602 
L 202.75872 199.0327 
M 222.733446 194.774602 
L 219.054831 213.081466 
M 222.733446 194.774602 
L 235.341735 215.893228 
M 222.733446 194.774602 
L 206.933955 183.335044 
M 240.296496 198.134041 
L 235.341735 215.893228 
M 240.296496 198.134041 
L 222.733446 194.774602 
M 255.764256 212.283247 
L 244.306842 233.029408 
M 255.764256 212.283247 
L 235.341735 215.893228 
M 255.764256 212.283247 
L 262.590828 233.948713 
M 255.764256 212.283247 
L 240.296496 198.134041 
M 135.925945 29.526529 
L 117.49353 29.153785 
M 135.925945 29.526529 
L 126.053808 47.030152 
M 131.875143 11.191765 
L 111.946731 11.191765 
M 131.875143 11.191765 
L 117.49353 29.153785 
M 131.875143 11.191765 
L 135.925945 29.526529 
M 150.43813 29.370289 
L 135.925945 29.526529 
M 220.508421 170.166802 
L 206.933955 183.335044 
M 220.508421 170.166802 
L 197.3238 169.436659 
M 220.508421 170.166802 
L 222.733446 194.774602 
M 208.387545 153.964993 
L 197.3238 169.436659 
M 208.387545 153.964993 
L 185.031897 156.239959 
M 208.387545 153.964993 
L 196.261647 142.345201 
M 208.387545 153.964993 
L 220.508421 170.166802 
M 158.290864 85.111699 
L 144.304593 102.799462 
M 158.290864 85.111699 
L 139.78842 83.193016 
M 158.290864 85.111699 
L 162.632103 104.373859 
M 154.678092 66.174853 
L 139.78842 83.193016 
M 154.678092 66.174853 
L 134.267847 64.612732 
M 154.678092 66.174853 
L 158.290864 85.111699 
M 148.519725 47.38225 
L 126.053808 47.030152 
M 148.519725 47.38225 
L 134.267847 64.612732 
M 148.519725 47.38225 
L 135.925945 29.526529 
M 148.519725 47.38225 
L 150.43813 29.370289 
M 148.519725 47.38225 
L 154.678092 66.174853 
M 176.586846 87.28204 
L 162.632103 104.373859 
M 176.586846 87.28204 
L 158.290864 85.111699 
M 190.157964 123.94264 
L 176.723556 140.13301 
M 190.157964 123.94264 
L 169.646721 121.376398 
M 190.157964 123.94264 
L 196.261647 142.345201 
M 182.293791 105.890503 
L 169.646721 121.376398 
M 182.293791 105.890503 
L 162.632103 104.373859 
M 182.293791 105.890503 
L 176.586846 87.28204 
M 182.293791 105.890503 
L 190.157964 123.94264 
M 311.232246 290.191765 
L 291.303834 290.191765 
M 292.678467 261.532048 
L 282.799356 274.09977 
M 292.678467 261.532048 
L 276.022446 253.078906 
M 302.14968 275.460425 
L 291.303834 290.191765 
M 302.14968 275.460425 
L 282.799356 274.09977 
M 302.14968 275.460425 
L 311.232246 290.191765 
M 302.14968 275.460425 
L 292.678467 261.532048 
M 280.146345 236.147791 
L 276.022446 253.078906 
M 280.146345 236.147791 
L 262.590828 233.948713 
M 296.471751 247.259803 
L 276.022446 253.078906 
M 296.471751 247.259803 
L 292.678467 261.532048 
M 296.471751 247.259803 
L 280.146345 236.147791 
M 274.98624 218.900569 
L 262.590828 233.948713 
M 274.98624 218.900569 
L 255.764256 212.283247 
M 274.98624 218.900569 
L 280.146345 236.147791 
M 209.403105 130.417951 
L 196.261647 142.345201 
M 209.403105 130.417951 
L 208.387545 153.964993 
M 209.403105 130.417951 
L 190.157964 123.94264 
M 239.189703 179.822713 
L 222.733446 194.774602 
M 239.189703 179.822713 
L 240.296496 198.134041 
M 239.189703 179.822713 
L 220.508421 170.166802 
M 257.667594 189.860575 
L 240.296496 198.134041 
M 257.667594 189.860575 
L 255.764256 212.283247 
M 257.667594 189.860575 
L 239.189703 179.822713 
M 275.138016 200.186086 
L 255.764256 212.283247 
M 275.138016 200.186086 
L 274.98624 218.900569 
M 275.138016 200.186086 
L 257.667594 189.860575 
M 237.941736 160.87108 
L 220.508421 170.166802 
M 237.941736 160.87108 
L 239.189703 179.822713 
M 151.803834 11.191765 
L 135.925945 29.526529 
M 151.803834 11.191765 
L 131.875143 11.191765 
M 151.803834 11.191765 
L 150.43813 29.370289 
M 164.635323 29.988832 
L 150.43813 29.370289 
M 164.635323 29.988832 
L 148.519725 47.38225 
M 164.635323 29.988832 
L 151.803834 11.191765 
M 224.250648 143.783725 
L 220.508421 170.166802 
M 224.250648 143.783725 
L 208.387545 153.964993 
M 224.250648 143.783725 
L 209.403105 130.417951 
M 224.250648 143.783725 
L 237.941736 160.87108 
M 173.788477 67.731952 
L 158.290864 85.111699 
M 173.788477 67.731952 
L 154.678092 66.174853 
M 173.788477 67.731952 
L 176.586846 87.28204 
M 169.636398 48.887176 
L 154.678092 66.174853 
M 169.636398 48.887176 
L 148.519725 47.38225 
M 169.636398 48.887176 
L 164.635323 29.988832 
M 169.636398 48.887176 
L 173.788477 67.731952 
M 190.972923 73.099912 
L 176.586846 87.28204 
M 190.972923 73.099912 
L 173.788477 67.731952 
M 194.409366 91.899211 
L 176.586846 87.28204 
M 194.409366 91.899211 
L 182.293791 105.890503 
M 194.409366 91.899211 
L 190.972923 73.099912 
M 203.309466 107.787145 
L 190.157964 123.94264 
M 203.309466 107.787145 
L 182.293791 105.890503 
M 203.309466 107.787145 
L 209.403105 130.417951 
M 203.309466 107.787145 
L 194.409366 91.899211 
M 239.056341 141.677554 
L 237.941736 160.87108 
M 239.056341 141.677554 
L 224.250648 143.783725 
M 331.160937 290.191765 
L 311.232246 290.191765 
M 319.375419 277.968021 
L 311.232246 290.191765 
M 319.375419 277.968021 
L 302.14968 275.460425 
M 319.375419 277.968021 
L 331.160937 290.191765 
M 312.832869 260.635063 
L 292.678467 261.532048 
M 312.832869 260.635063 
L 302.14968 275.460425 
M 312.832869 260.635063 
L 296.471751 247.259803 
M 312.832869 260.635063 
L 319.375419 277.968021 
M 295.29186 229.14517 
L 280.146345 236.147791 
M 295.29186 229.14517 
L 296.471751 247.259803 
M 295.29186 229.14517 
L 274.98624 218.900569 
M 314.104551 241.696822 
L 296.471751 247.259803 
M 314.104551 241.696822 
L 312.832869 260.635063 
M 314.104551 241.696822 
L 295.29186 229.14517 
M 294.374508 208.898419 
L 274.98624 218.900569 
M 294.374508 208.898419 
L 275.138016 200.186086 
M 294.374508 208.898419 
L 295.29186 229.14517 
M 222.37242 119.366203 
L 209.403105 130.417951 
M 222.37242 119.366203 
L 224.250648 143.783725 
M 222.37242 119.366203 
L 203.309466 107.787145 
M 218.829399 100.470649 
L 203.309466 107.787145 
M 218.829399 100.470649 
L 222.37242 119.366203 
M 258.02025 170.031208 
L 239.189703 179.822713 
M 258.02025 170.031208 
L 257.667594 189.860575 
M 258.02025 170.031208 
L 237.941736 160.87108 
M 275.609247 180.01885 
L 257.667594 189.860575 
M 275.609247 180.01885 
L 275.138016 200.186086 
M 275.609247 180.01885 
L 258.02025 170.031208 
M 293.188479 188.372947 
L 275.138016 200.186086 
M 293.188479 188.372947 
L 294.374508 208.898419 
M 293.188479 188.372947 
L 275.609247 180.01885 
M 255.737751 153.230107 
L 237.941736 160.87108 
M 255.737751 153.230107 
L 239.056341 141.677554 
M 255.737751 153.230107 
L 258.02025 170.031208 
M 171.732246 11.191765 
L 151.803834 11.191765 
M 171.732246 11.191765 
L 164.635323 29.988832 
M 182.462865 30.687727 
L 164.635323 29.988832 
M 182.462865 30.687727 
L 169.636398 48.887176 
M 182.462865 30.687727 
L 171.732246 11.191765 
M 240.004941 123.417283 
L 224.250648 143.783725 
M 240.004941 123.417283 
L 239.056341 141.677554 
M 240.004941 123.417283 
L 222.37242 119.366203 
M 189.63763 50.996695 
L 173.788477 67.731952 
M 189.63763 50.996695 
L 169.636398 48.887176 
M 189.63763 50.996695 
L 190.972923 73.099912 
M 189.63763 50.996695 
L 182.462865 30.687727 
M 203.84431 62.416723 
L 190.972923 73.099912 
M 203.84431 62.416723 
L 189.63763 50.996695 
M 208.701978 83.01334 
L 190.972923 73.099912 
M 208.701978 83.01334 
L 194.409366 91.899211 
M 208.701978 83.01334 
L 203.309466 107.787145 
M 208.701978 83.01334 
L 218.829399 100.470649 
M 208.701978 83.01334 
L 203.84431 62.416723 
M 254.769621 137.386534 
L 239.056341 141.677554 
M 254.769621 137.386534 
L 255.737751 153.230107 
M 254.769621 137.386534 
L 240.004941 123.417283 
M 331.160937 270.263185 
L 331.160937 290.191765 
M 331.160937 270.263185 
L 319.375419 277.968021 
M 331.160937 270.263185 
L 312.832869 260.635063 
M 331.160937 250.334662 
L 312.832869 260.635063 
M 331.160937 250.334662 
L 314.104551 241.696822 
M 331.160937 250.334662 
L 331.160937 270.263185 
M 310.69266 192.998767 
L 294.374508 208.898419 
M 310.69266 192.998767 
L 293.188479 188.372947 
M 331.160937 230.405971 
L 314.104551 241.696822 
M 331.160937 230.405971 
L 331.160937 250.334662 
M 314.526678 206.529709 
L 294.374508 208.898419 
M 314.526678 206.529709 
L 310.69266 192.998767 
M 312.400698 223.057669 
L 295.29186 229.14517 
M 312.400698 223.057669 
L 314.104551 241.696822 
M 312.400698 223.057669 
L 294.374508 208.898419 
M 312.400698 223.057669 
L 331.160937 230.405971 
M 312.400698 223.057669 
L 314.526678 206.529709 
M 237.440652 103.854919 
L 222.37242 119.366203 
M 237.440652 103.854919 
L 218.829399 100.470649 
M 237.440652 103.854919 
L 240.004941 123.417283 
M 227.44185 85.208791 
L 218.829399 100.470649 
M 227.44185 85.208791 
L 208.701978 83.01334 
M 227.44185 85.208791 
L 237.440652 103.854919 
M 275.475048 159.976885 
L 258.02025 170.031208 
M 275.475048 159.976885 
L 275.609247 180.01885 
M 275.475048 159.976885 
L 255.737751 153.230107 
M 293.759034 169.159333 
L 275.609247 180.01885 
M 293.759034 169.159333 
L 293.188479 188.372947 
M 293.759034 169.159333 
L 275.475048 159.976885 
M 312.67635 177.274885 
L 293.188479 188.372947 
M 312.67635 177.274885 
L 310.69266 192.998767 
M 312.67635 177.274885 
L 293.759034 169.159333 
M 259.389861 123.297592 
L 240.004941 123.417283 
M 259.389861 123.297592 
L 254.769621 137.386534 
M 273.960915 139.987372 
L 255.737751 153.230107 
M 273.960915 139.987372 
L 254.769621 137.386534 
M 273.960915 139.987372 
L 275.475048 159.976885 
M 273.960915 139.987372 
L 259.389861 123.297592 
M 191.660937 11.191765 
L 171.732246 11.191765 
M 191.660937 11.191765 
L 182.462865 30.687727 
M 200.257485 30.651178 
L 182.462865 30.687727 
M 200.257485 30.651178 
L 189.63763 50.996695 
M 200.257485 30.651178 
L 191.660937 11.191765 
M 257.260533 104.971477 
L 240.004941 123.417283 
M 257.260533 104.971477 
L 237.440652 103.854919 
M 257.260533 104.971477 
L 259.389861 123.297592 
M 211.801947 47.087068 
L 189.63763 50.996695 
M 211.801947 47.087068 
L 203.84431 62.416723 
M 211.801947 47.087068 
L 200.257485 30.651178 
M 220.250067 65.64001 
L 203.84431 62.416723 
M 220.250067 65.64001 
L 208.701978 83.01334 
M 220.250067 65.64001 
L 227.44185 85.208791 
M 220.250067 65.64001 
L 211.801947 47.087068 
M 331.160937 190.548868 
L 310.69266 192.998767 
M 331.160937 190.548868 
L 314.526678 206.529709 
M 331.160937 190.548868 
L 312.67635 177.274885 
M 331.160937 210.477559 
L 331.160937 230.405971 
M 331.160937 210.477559 
L 314.526678 206.529709 
M 331.160937 210.477559 
L 312.400698 223.057669 
M 331.160937 210.477559 
L 331.160937 190.548868 
M 235.912569 68.344357 
L 227.44185 85.208791 
M 235.912569 68.344357 
L 220.250067 65.64001 
M 246.011811 86.206774 
L 237.440652 103.854919 
M 246.011811 86.206774 
L 227.44185 85.208791 
M 246.011811 86.206774 
L 257.260533 104.971477 
M 246.011811 86.206774 
L 235.912569 68.344357 
M 293.48115 149.998729 
L 275.475048 159.976885 
M 293.48115 149.998729 
L 293.759034 169.159333 
M 293.48115 149.998729 
L 273.960915 139.987372 
M 312.568656 159.562849 
L 293.759034 169.159333 
M 312.568656 159.562849 
L 312.67635 177.274885 
M 312.568656 159.562849 
L 293.48115 149.998729 
M 331.160937 170.620456 
L 312.67635 177.274885 
M 331.160937 170.620456 
L 331.160937 190.548868 
M 331.160937 170.620456 
L 312.568656 159.562849 
M 276.162783 118.672609 
L 259.389861 123.297592 
M 276.162783 118.672609 
L 273.960915 139.987372 
M 276.162783 118.672609 
L 257.260533 104.971477 
M 293.423118 130.57726 
L 273.960915 139.987372 
M 293.423118 130.57726 
L 293.48115 149.998729 
M 293.423118 130.57726 
L 276.162783 118.672609 
M 211.589628 11.191765 
L 191.660937 11.191765 
M 211.589628 11.191765 
L 200.257485 30.651178 
M 218.764113 29.945866 
L 200.257485 30.651178 
M 218.764113 29.945866 
L 211.801947 47.087068 
M 218.764113 29.945866 
L 211.589628 11.191765 
M 277.215729 97.048156 
L 257.260533 104.971477 
M 277.215729 97.048156 
L 276.162783 118.672609 
M 263.929749 82.664032 
L 257.260533 104.971477 
M 263.929749 82.664032 
L 246.011811 86.206774 
M 263.929749 82.664032 
L 277.215729 97.048156 
M 233.121453 29.811946 
L 218.764113 29.945866 
M 234.378627 48.568837 
L 211.801947 47.087068 
M 234.378627 48.568837 
L 220.250067 65.64001 
M 234.378627 48.568837 
L 235.912569 68.344357 
M 234.378627 48.568837 
L 218.764113 29.945866 
M 234.378627 48.568837 
L 233.121453 29.811946 
M 251.308626 65.766676 
L 235.912569 68.344357 
M 251.308626 65.766676 
L 246.011811 86.206774 
M 251.308626 65.766676 
L 263.929749 82.664032 
M 251.308626 65.766676 
L 234.378627 48.568837 
M 312.4392 141.481138 
L 293.48115 149.998729 
M 312.4392 141.481138 
L 312.568656 159.562849 
M 312.4392 141.481138 
L 293.423118 130.57726 
M 331.160937 150.691765 
L 312.568656 159.562849 
M 331.160937 150.691765 
L 331.160937 170.620456 
M 331.160937 150.691765 
L 312.4392 141.481138 
M 312.278775 123.80593 
L 293.423118 130.57726 
M 312.278775 123.80593 
L 312.4392 141.481138 
M 294.688662 108.663205 
L 276.162783 118.672609 
M 294.688662 108.663205 
L 293.423118 130.57726 
M 294.688662 108.663205 
L 277.215729 97.048156 
M 294.688662 108.663205 
L 312.278775 123.80593 
M 294.889263 85.95121 
L 277.215729 97.048156 
M 294.889263 85.95121 
L 294.688662 108.663205 
M 231.51804 11.191765 
L 211.589628 11.191765 
M 231.51804 11.191765 
L 218.764113 29.945866 
M 231.51804 11.191765 
L 233.121453 29.811946 
M 281.060628 73.2316 
L 277.215729 97.048156 
M 281.060628 73.2316 
L 263.929749 82.664032 
M 281.060628 73.2316 
L 294.889263 85.95121 
M 268.524042 62.111776 
L 263.929749 82.664032 
M 268.524042 62.111776 
L 251.308626 65.766676 
M 268.524042 62.111776 
L 281.060628 73.2316 
M 247.220718 29.846821 
L 233.121453 29.811946 
M 247.220718 29.846821 
L 234.378627 48.568837 
M 247.220718 29.846821 
L 231.51804 11.191765 
M 257.01027 47.06977 
L 234.378627 48.568837 
M 257.01027 47.06977 
L 251.308626 65.766676 
M 257.01027 47.06977 
L 268.524042 62.111776 
M 257.01027 47.06977 
L 247.220718 29.846821 
M 331.160937 130.763074 
L 312.4392 141.481138 
M 331.160937 130.763074 
L 331.160937 150.691765 
M 331.160937 130.763074 
L 312.278775 123.80593 
M 312.945864 109.460866 
L 312.278775 123.80593 
M 312.945864 109.460866 
L 294.688662 108.663205 
M 331.160937 110.834662 
L 312.278775 123.80593 
M 331.160937 110.834662 
L 331.160937 130.763074 
M 331.160937 110.834662 
L 312.945864 109.460866 
M 312.542988 95.11915 
L 294.688662 108.663205 
M 312.542988 95.11915 
L 294.889263 85.95121 
M 312.542988 95.11915 
L 312.945864 109.460866 
M 312.542988 95.11915 
L 331.160937 110.834662 
M 313.022031 76.774342 
L 294.889263 85.95121 
M 313.022031 76.774342 
L 312.542988 95.11915 
M 296.583351 63.267952 
L 294.889263 85.95121 
M 296.583351 63.267952 
L 281.060628 73.2316 
M 296.583351 63.267952 
L 313.022031 76.774342 
M 251.446731 11.191765 
L 231.51804 11.191765 
M 251.446731 11.191765 
L 247.220718 29.846821 
M 279.640239 47.927416 
L 281.060628 73.2316 
M 279.640239 47.927416 
L 268.524042 62.111776 
M 279.640239 47.927416 
L 257.01027 47.06977 
M 279.640239 47.927416 
L 296.583351 63.267952 
M 265.667082 29.455663 
L 247.220718 29.846821 
M 265.667082 29.455663 
L 257.01027 47.06977 
M 265.667082 29.455663 
L 251.446731 11.191765 
M 265.667082 29.455663 
L 279.640239 47.927416 
M 331.160937 90.905971 
L 331.160937 110.834662 
M 331.160937 90.905971 
L 312.542988 95.11915 
M 331.160937 90.905971 
L 313.022031 76.774342 
M 331.160937 70.977559 
L 313.022031 76.774342 
M 331.160937 70.977559 
L 331.160937 90.905971 
M 314.708307 57.854236 
L 313.022031 76.774342 
M 314.708307 57.854236 
L 296.583351 63.267952 
M 314.708307 57.854236 
L 331.160937 70.977559 
M 298.890681 43.331449 
L 296.583351 63.267952 
M 298.890681 43.331449 
L 279.640239 47.927416 
M 298.890681 43.331449 
L 314.708307 57.854236 
M 271.375143 11.191765 
L 251.446731 11.191765 
M 271.375143 11.191765 
L 265.667082 29.455663 
M 284.671167 27.889357 
L 279.640239 47.927416 
M 284.671167 27.889357 
L 265.667082 29.455663 
M 284.671167 27.889357 
L 298.890681 43.331449 
M 284.671167 27.889357 
L 271.375143 11.191765 
M 331.160937 51.048868 
L 331.160937 70.977559 
M 331.160937 51.048868 
L 314.708307 57.854236 
M 316.349106 39.848134 
L 314.708307 57.854236 
M 316.349106 39.848134 
L 298.890681 43.331449 
M 316.349106 39.848134 
L 331.160937 51.048868 
M 303.050571 25.976254 
L 298.890681 43.331449 
M 303.050571 25.976254 
L 284.671167 27.889357 
M 303.050571 25.976254 
L 316.349106 39.848134 
M 291.303834 11.191765 
L 271.375143 11.191765 
M 291.303834 11.191765 
L 284.671167 27.889357 
M 291.303834 11.191765 
L 303.050571 25.976254 
M 331.160937 31.120456 
L 331.160937 51.048868 
M 331.160937 31.120456 
L 316.349106 39.848134 
M 320.050599 22.557109 
L 316.349106 39.848134 
M 320.050599 22.557109 
L 303.050571 25.976254 
M 320.050599 22.557109 
L 331.160937 31.120456 
M 311.232246 11.191765 
L 303.050571 25.976254 
M 311.232246 11.191765 
L 291.303834 11.191765 
M 311.232246 11.191765 
L 320.050599 22.557109 
M 331.160937 11.191765 
L 331.160937 31.120456 
M 331.160937 11.191765 
L 320.050599 22.557109 
M 331.160937 11.191765 
L 311.232246 11.191765 
L 311.232246 11.191765 
" style="fill:none;stroke:#000000;stroke-linecap:square;stroke-opacity:0.2;stroke-width:0.5;"/>
   </g>
   <g id="line2d_2"/>
   <g id="line2d_3">
    <path d="M 331.160937 11.191765 
L 311.232246 11.191765 
L 291.303834 11.191765 
L 271.375143 11.191765 
L 251.446731 11.191765 
L 231.51804 11.191765 
L 211.589628 11.191765 
L 191.660937 11.191765 
L 171.732246 11.191765 
L 151.803834 11.191765 
L 131.875143 11.191765 
L 111.946731 11.191765 
L 92.01804 11.191765 
L 72.089517 11.191765 
L 52.160938 11.191765 
" style="fill:none;stroke:#1f77b4;stroke-linecap:square;stroke-width:2;"/>
   </g>
   <g id="line2d_4">
    <path d="M 52.160938 290.191765 
L 72.089517 290.191765 
L 92.01804 290.191765 
L 111.946731 290.191765 
L 131.875143 290.191765 
L 151.803834 290.191765 
L 171.732246 290.191765 
L 191.660937 290.191765 
L 211.589628 290.191765 
L 231.51804 290.191765 
L 251.446731 290.191765 
L 271.375143 290.191765 
L 291.303834 290.191765 
L 311.232246 290.191765 
L 331.160937 290.191765 
" style="fill:none;stroke:#ff7f0e;stroke-linecap:square;stroke-width:2;"/>
   </g>
   <g id="legend_1">
    <g id="patch_2">
     <path d="M 59.160938 174.208952 
L 111.321875 174.208952 
Q 113.321875 174.208952 113.321875 172.208952 
L 113.321875 129.174577 
Q 113.321875 127.174577 111.321875 127.174577 
L 59.160938 127.174577 
Q 57.160938 127.174577 57.160938 129.174577 
L 57.160938 172.208952 
Q 57.160938 174.208952 59.160938 174.208952 
z
" style="fill:#ffffff;opacity:0.8;stroke:#cccccc;stroke-linejoin:miter;"/>
    </g>
    <g id="text_1">
     <!-- Boundary -->
     <defs>
      <path d="M 19.671875 34.8125 
L 19.671875 8.109375 
L 35.5 8.109375 
Q 43.453125 8.109375 47.28125 11.40625 
Q 51.125 14.703125 51.125 21.484375 
Q 51.125 28.328125 47.28125 31.5625 
Q 43.453125 34.8125 35.5 34.8125 
z
M 19.671875 64.796875 
L 19.671875 42.828125 
L 34.28125 42.828125 
Q 41.5 42.828125 45.03125 45.53125 
Q 48.578125 48.25 48.578125 53.8125 
Q 48.578125 59.328125 45.03125 62.0625 
Q 41.5 64.796875 34.28125 64.796875 
z
M 9.8125 72.90625 
L 35.015625 72.90625 
Q 46.296875 72.90625 52.390625 68.21875 
Q 58.5 63.53125 58.5 54.890625 
Q 58.5 48.1875 55.375 44.234375 
Q 52.25 40.28125 46.1875 39.3125 
Q 53.46875 37.75 57.5 32.78125 
Q 61.53125 27.828125 61.53125 20.40625 
Q 61.53125 10.640625 54.890625 5.3125 
Q 48.25 0 35.984375 0 
L 9.8125 0 
z
" id="DejaVuSans-66"/>
      <path d="M 30.609375 48.390625 
Q 23.390625 48.390625 19.1875 42.75 
Q 14.984375 37.109375 14.984375 27.296875 
Q 14.984375 17.484375 19.15625 11.84375 
Q 23.34375 6.203125 30.609375 6.203125 
Q 37.796875 6.203125 41.984375 11.859375 
Q 46.1875 17.53125 46.1875 27.296875 
Q 46.1875 37.015625 41.984375 42.703125 
Q 37.796875 48.390625 30.609375 48.390625 
z
M 30.609375 56 
Q 42.328125 56 49.015625 48.375 
Q 55.71875 40.765625 55.71875 27.296875 
Q 55.71875 13.875 49.015625 6.21875 
Q 42.328125 -1.421875 30.609375 -1.421875 
Q 18.84375 -1.421875 12.171875 6.21875 
Q 5.515625 13.875 5.515625 27.296875 
Q 5.515625 40.765625 12.171875 48.375 
Q 18.84375 56 30.609375 56 
z
" id="DejaVuSans-111"/>
      <path d="M 8.5 21.578125 
L 8.5 54.6875 
L 17.484375 54.6875 
L 17.484375 21.921875 
Q 17.484375 14.15625 20.5 10.265625 
Q 23.53125 6.390625 29.59375 6.390625 
Q 36.859375 6.390625 41.078125 11.03125 
Q 45.3125 15.671875 45.3125 23.6875 
L 45.3125 54.6875 
L 54.296875 54.6875 
L 54.296875 0 
L 45.3125 0 
L 45.3125 8.40625 
Q 42.046875 3.421875 37.71875 1 
Q 33.40625 -1.421875 27.6875 -1.421875 
Q 18.265625 -1.421875 13.375 4.4375 
Q 8.5 10.296875 8.5 21.578125 
z
M 31.109375 56 
z
" id="DejaVuSans-117"/>
      <path d="M 54.890625 33.015625 
L 54.890625 0 
L 45.90625 0 
L 45.90625 32.71875 
Q 45.90625 40.484375 42.875 44.328125 
Q 39.84375 48.1875 33.796875 48.1875 
Q 26.515625 48.1875 22.3125 43.546875 
Q 18.109375 38.921875 18.109375 30.90625 
L 18.109375 0 
L 9.078125 0 
L 9.078125 54.6875 
L 18.109375 54.6875 
L 18.109375 46.1875 
Q 21.34375 51.125 25.703125 53.5625 
Q 30.078125 56 35.796875 56 
Q 45.21875 56 50.046875 50.171875 
Q 54.890625 44.34375 54.890625 33.015625 
z
" id="DejaVuSans-110"/>
      <path d="M 45.40625 46.390625 
L 45.40625 75.984375 
L 54.390625 75.984375 
L 54.390625 0 
L 45.40625 0 
L 45.40625 8.203125 
Q 42.578125 3.328125 38.25 0.953125 
Q 33.9375 -1.421875 27.875 -1.421875 
Q 17.96875 -1.421875 11.734375 6.484375 
Q 5.515625 14.40625 5.515625 27.296875 
Q 5.515625 40.1875 11.734375 48.09375 
Q 17.96875 56 27.875 56 
Q 33.9375 56 38.25 53.625 
Q 42.578125 51.265625 45.40625 46.390625 
z
M 14.796875 27.296875 
Q 14.796875 17.390625 18.875 11.75 
Q 22.953125 6.109375 30.078125 6.109375 
Q 37.203125 6.109375 41.296875 11.75 
Q 45.40625 17.390625 45.40625 27.296875 
Q 45.40625 37.203125 41.296875 42.84375 
Q 37.203125 48.484375 30.078125 48.484375 
Q 22.953125 48.484375 18.875 42.84375 
Q 14.796875 37.203125 14.796875 27.296875 
z
" id="DejaVuSans-100"/>
      <path d="M 34.28125 27.484375 
Q 23.390625 27.484375 19.1875 25 
Q 14.984375 22.515625 14.984375 16.5 
Q 14.984375 11.71875 18.140625 8.90625 
Q 21.296875 6.109375 26.703125 6.109375 
Q 34.1875 6.109375 38.703125 11.40625 
Q 43.21875 16.703125 43.21875 25.484375 
L 43.21875 27.484375 
z
M 52.203125 31.203125 
L 52.203125 0 
L 43.21875 0 
L 43.21875 8.296875 
Q 40.140625 3.328125 35.546875 0.953125 
Q 30.953125 -1.421875 24.3125 -1.421875 
Q 15.921875 -1.421875 10.953125 3.296875 
Q 6 8.015625 6 15.921875 
Q 6 25.140625 12.171875 29.828125 
Q 18.359375 34.515625 30.609375 34.515625 
L 43.21875 34.515625 
L 43.21875 35.40625 
Q 43.21875 41.609375 39.140625 45 
Q 35.0625 48.390625 27.6875 48.390625 
Q 23 48.390625 18.546875 47.265625 
Q 14.109375 46.140625 10.015625 43.890625 
L 10.015625 52.203125 
Q 14.9375 54.109375 19.578125 55.046875 
Q 24.21875 56 28.609375 56 
Q 40.484375 56 46.34375 49.84375 
Q 52.203125 43.703125 52.203125 31.203125 
z
" id="DejaVuSans-97"/>
      <path d="M 41.109375 46.296875 
Q 39.59375 47.171875 37.8125 47.578125 
Q 36.03125 48 33.890625 48 
Q 26.265625 48 22.1875 43.046875 
Q 18.109375 38.09375 18.109375 28.8125 
L 18.109375 0 
L 9.078125 0 
L 9.078125 54.6875 
L 18.109375 54.6875 
L 18.109375 46.1875 
Q 20.953125 51.171875 25.484375 53.578125 
Q 30.03125 56 36.53125 56 
Q 37.453125 56 38.578125 55.875 
Q 39.703125 55.765625 41.0625 55.515625 
z
" id="DejaVuSans-114"/>
      <path d="M 32.171875 -5.078125 
Q 28.375 -14.84375 24.75 -17.8125 
Q 21.140625 -20.796875 15.09375 -20.796875 
L 7.90625 -20.796875 
L 7.90625 -13.28125 
L 13.1875 -13.28125 
Q 16.890625 -13.28125 18.9375 -11.515625 
Q 21 -9.765625 23.484375 -3.21875 
L 25.09375 0.875 
L 2.984375 54.6875 
L 12.5 54.6875 
L 29.59375 11.921875 
L 46.6875 54.6875 
L 56.203125 54.6875 
z
" id="DejaVuSans-121"/>
     </defs>
     <g transform="translate(61.160938 138.773015)scale(0.1 -0.1)">
      <use xlink:href="#DejaVuSans-66"/>
      <use x="68.603516" xlink:href="#DejaVuSans-111"/>
      <use x="129.785156" xlink:href="#DejaVuSans-117"/>
      <use x="193.164062" xlink:href="#DejaVuSans-110"/>
      <use x="256.542969" xlink:href="#DejaVuSans-100"/>
      <use x="320.019531" xlink:href="#DejaVuSans-97"/>
      <use x="381.298828" xlink:href="#DejaVuSans-114"/>
      <use x="422.412109" xlink:href="#DejaVuSans-121"/>
     </g>
    </g>
    <g id="line2d_5">
     <path d="M 68.060156 149.95114 
L 88.060156 149.95114 
" style="fill:none;stroke:#1f77b4;stroke-linecap:square;stroke-width:2;"/>
    </g>
    <g id="line2d_6"/>
    <g id="text_2">
     <!-- 3 -->
     <defs>
      <path d="M 40.578125 39.3125 
Q 47.65625 37.796875 51.625 33 
Q 55.609375 28.21875 55.609375 21.1875 
Q 55.609375 10.40625 48.1875 4.484375 
Q 40.765625 -1.421875 27.09375 -1.421875 
Q 22.515625 -1.421875 17.65625 -0.515625 
Q 12.796875 0.390625 7.625 2.203125 
L 7.625 11.71875 
Q 11.71875 9.328125 16.59375 8.109375 
Q 21.484375 6.890625 26.8125 6.890625 
Q 36.078125 6.890625 40.9375 10.546875 
Q 45.796875 14.203125 45.796875 21.1875 
Q 45.796875 27.640625 41.28125 31.265625 
Q 36.765625 34.90625 28.71875 34.90625 
L 20.21875 34.90625 
L 20.21875 43.015625 
L 29.109375 43.015625 
Q 36.375 43.015625 40.234375 45.921875 
Q 44.09375 48.828125 44.09375 54.296875 
Q 44.09375 59.90625 40.109375 62.90625 
Q 36.140625 65.921875 28.71875 65.921875 
Q 24.65625 65.921875 20.015625 65.03125 
Q 15.375 64.15625 9.8125 62.3125 
L 9.8125 71.09375 
Q 15.4375 72.65625 20.34375 73.4375 
Q 25.25 74.21875 29.59375 74.21875 
Q 40.828125 74.21875 47.359375 69.109375 
Q 53.90625 64.015625 53.90625 55.328125 
Q 53.90625 49.265625 50.4375 45.09375 
Q 46.96875 40.921875 40.578125 39.3125 
z
" id="DejaVuSans-51"/>
     </defs>
     <g transform="translate(96.060156 153.45114)scale(0.1 -0.1)">
      <use xlink:href="#DejaVuSans-51"/>
     </g>
    </g>
    <g id="line2d_7">
     <path d="M 68.060156 164.629265 
L 88.060156 164.629265 
" style="fill:none;stroke:#ff7f0e;stroke-linecap:square;stroke-width:2;"/>
    </g>
    <g id="line2d_8"/>
    <g id="text_3">
     <!-- 1 -->
     <defs>
      <path d="M 12.40625 8.296875 
L 28.515625 8.296875 
L 28.515625 63.921875 
L 10.984375 60.40625 
L 10.984375 69.390625 
L 28.421875 72.90625 
L 38.28125 72.90625 
L 38.28125 8.296875 
L 54.390625 8.296875 
L 54.390625 0 
L 12.40625 0 
z
" id="DejaVuSans-49"/>
     </defs>
     <g transform="translate(96.060156 168.129265)scale(0.1 -0.1)">
      <use xlink:href="#DejaVuSans-49"/>
     </g>
    </g>
   </g>
  </g>
  <g id="axes_2">
   <g id="patch_3">
    <path d="M 52.160938 450.72 
L 331.160937 450.72 
L 331.160937 320.272941 
L 52.160938 320.272941 
z
" style="fill:#ffffff;"/>
   </g>
   <g id="matplotlib.axis_1">
    <g id="xtick_1">
     <g id="line2d_9">
      <defs>
       <path d="M 0 0 
L 0 3.5 
" id="m0c979e799f" style="stroke:#000000;stroke-width:0.8;"/>
      </defs>
      <g>
       <use style="stroke:#000000;stroke-width:0.8;" x="52.160938" xlink:href="#m0c979e799f" y="450.72"/>
      </g>
     </g>
     <g id="text_4">
      <!-- 0.0 -->
      <defs>
       <path d="M 31.78125 66.40625 
Q 24.171875 66.40625 20.328125 58.90625 
Q 16.5 51.421875 16.5 36.375 
Q 16.5 21.390625 20.328125 13.890625 
Q 24.171875 6.390625 31.78125 6.390625 
Q 39.453125 6.390625 43.28125 13.890625 
Q 47.125 21.390625 47.125 36.375 
Q 47.125 51.421875 43.28125 58.90625 
Q 39.453125 66.40625 31.78125 66.40625 
z
M 31.78125 74.21875 
Q 44.046875 74.21875 50.515625 64.515625 
Q 56.984375 54.828125 56.984375 36.375 
Q 56.984375 17.96875 50.515625 8.265625 
Q 44.046875 -1.421875 31.78125 -1.421875 
Q 19.53125 -1.421875 13.0625 8.265625 
Q 6.59375 17.96875 6.59375 36.375 
Q 6.59375 54.828125 13.0625 64.515625 
Q 19.53125 74.21875 31.78125 74.21875 
z
" id="DejaVuSans-48"/>
       <path d="M 10.6875 12.40625 
L 21 12.40625 
L 21 0 
L 10.6875 0 
z
" id="DejaVuSans-46"/>
      </defs>
      <g transform="translate(44.209375 465.318437)scale(0.1 -0.1)">
       <use xlink:href="#DejaVuSans-48"/>
       <use x="63.623047" xlink:href="#DejaVuSans-46"/>
       <use x="95.410156" xlink:href="#DejaVuSans-48"/>
      </g>
     </g>
    </g>
    <g id="xtick_2">
     <g id="line2d_10">
      <g>
       <use style="stroke:#000000;stroke-width:0.8;" x="107.960938" xlink:href="#m0c979e799f" y="450.72"/>
      </g>
     </g>
     <g id="text_5">
      <!-- 0.2 -->
      <defs>
       <path d="M 19.1875 8.296875 
L 53.609375 8.296875 
L 53.609375 0 
L 7.328125 0 
L 7.328125 8.296875 
Q 12.9375 14.109375 22.625 23.890625 
Q 32.328125 33.6875 34.8125 36.53125 
Q 39.546875 41.84375 41.421875 45.53125 
Q 43.3125 49.21875 43.3125 52.78125 
Q 43.3125 58.59375 39.234375 62.25 
Q 35.15625 65.921875 28.609375 65.921875 
Q 23.96875 65.921875 18.8125 64.3125 
Q 13.671875 62.703125 7.8125 59.421875 
L 7.8125 69.390625 
Q 13.765625 71.78125 18.9375 73 
Q 24.125 74.21875 28.421875 74.21875 
Q 39.75 74.21875 46.484375 68.546875 
Q 53.21875 62.890625 53.21875 53.421875 
Q 53.21875 48.921875 51.53125 44.890625 
Q 49.859375 40.875 45.40625 35.40625 
Q 44.1875 33.984375 37.640625 27.21875 
Q 31.109375 20.453125 19.1875 8.296875 
z
" id="DejaVuSans-50"/>
      </defs>
      <g transform="translate(100.009375 465.318437)scale(0.1 -0.1)">
       <use xlink:href="#DejaVuSans-48"/>
       <use x="63.623047" xlink:href="#DejaVuSans-46"/>
       <use x="95.410156" xlink:href="#DejaVuSans-50"/>
      </g>
     </g>
    </g>
    <g id="xtick_3">
     <g id="line2d_11">
      <g>
       <use style="stroke:#000000;stroke-width:0.8;" x="163.760937" xlink:href="#m0c979e799f" y="450.72"/>
      </g>
     </g>
     <g id="text_6">
      <!-- 0.4 -->
      <defs>
       <path d="M 37.796875 64.3125 
L 12.890625 25.390625 
L 37.796875 25.390625 
z
M 35.203125 72.90625 
L 47.609375 72.90625 
L 47.609375 25.390625 
L 58.015625 25.390625 
L 58.015625 17.1875 
L 47.609375 17.1875 
L 47.609375 0 
L 37.796875 0 
L 37.796875 17.1875 
L 4.890625 17.1875 
L 4.890625 26.703125 
z
" id="DejaVuSans-52"/>
      </defs>
      <g transform="translate(155.809375 465.318437)scale(0.1 -0.1)">
       <use xlink:href="#DejaVuSans-48"/>
       <use x="63.623047" xlink:href="#DejaVuSans-46"/>
       <use x="95.410156" xlink:href="#DejaVuSans-52"/>
      </g>
     </g>
    </g>
    <g id="xtick_4">
     <g id="line2d_12">
      <g>
       <use style="stroke:#000000;stroke-width:0.8;" x="219.560937" xlink:href="#m0c979e799f" y="450.72"/>
      </g>
     </g>
     <g id="text_7">
      <!-- 0.6 -->
      <defs>
       <path d="M 33.015625 40.375 
Q 26.375 40.375 22.484375 35.828125 
Q 18.609375 31.296875 18.609375 23.390625 
Q 18.609375 15.53125 22.484375 10.953125 
Q 26.375 6.390625 33.015625 6.390625 
Q 39.65625 6.390625 43.53125 10.953125 
Q 47.40625 15.53125 47.40625 23.390625 
Q 47.40625 31.296875 43.53125 35.828125 
Q 39.65625 40.375 33.015625 40.375 
z
M 52.59375 71.296875 
L 52.59375 62.3125 
Q 48.875 64.0625 45.09375 64.984375 
Q 41.3125 65.921875 37.59375 65.921875 
Q 27.828125 65.921875 22.671875 59.328125 
Q 17.53125 52.734375 16.796875 39.40625 
Q 19.671875 43.65625 24.015625 45.921875 
Q 28.375 48.1875 33.59375 48.1875 
Q 44.578125 48.1875 50.953125 41.515625 
Q 57.328125 34.859375 57.328125 23.390625 
Q 57.328125 12.15625 50.6875 5.359375 
Q 44.046875 -1.421875 33.015625 -1.421875 
Q 20.359375 -1.421875 13.671875 8.265625 
Q 6.984375 17.96875 6.984375 36.375 
Q 6.984375 53.65625 15.1875 63.9375 
Q 23.390625 74.21875 37.203125 74.21875 
Q 40.921875 74.21875 44.703125 73.484375 
Q 48.484375 72.75 52.59375 71.296875 
z
" id="DejaVuSans-54"/>
      </defs>
      <g transform="translate(211.609375 465.318437)scale(0.1 -0.1)">
       <use xlink:href="#DejaVuSans-48"/>
       <use x="63.623047" xlink:href="#DejaVuSans-46"/>
       <use x="95.410156" xlink:href="#DejaVuSans-54"/>
      </g>
     </g>
    </g>
    <g id="xtick_5">
     <g id="line2d_13">
      <g>
       <use style="stroke:#000000;stroke-width:0.8;" x="275.360937" xlink:href="#m0c979e799f" y="450.72"/>
      </g>
     </g>
     <g id="text_8">
      <!-- 0.8 -->
      <defs>
       <path d="M 31.78125 34.625 
Q 24.75 34.625 20.71875 30.859375 
Q 16.703125 27.09375 16.703125 20.515625 
Q 16.703125 13.921875 20.71875 10.15625 
Q 24.75 6.390625 31.78125 6.390625 
Q 38.8125 6.390625 42.859375 10.171875 
Q 46.921875 13.96875 46.921875 20.515625 
Q 46.921875 27.09375 42.890625 30.859375 
Q 38.875 34.625 31.78125 34.625 
z
M 21.921875 38.8125 
Q 15.578125 40.375 12.03125 44.71875 
Q 8.5 49.078125 8.5 55.328125 
Q 8.5 64.0625 14.71875 69.140625 
Q 20.953125 74.21875 31.78125 74.21875 
Q 42.671875 74.21875 48.875 69.140625 
Q 55.078125 64.0625 55.078125 55.328125 
Q 55.078125 49.078125 51.53125 44.71875 
Q 48 40.375 41.703125 38.8125 
Q 48.828125 37.15625 52.796875 32.3125 
Q 56.78125 27.484375 56.78125 20.515625 
Q 56.78125 9.90625 50.3125 4.234375 
Q 43.84375 -1.421875 31.78125 -1.421875 
Q 19.734375 -1.421875 13.25 4.234375 
Q 6.78125 9.90625 6.78125 20.515625 
Q 6.78125 27.484375 10.78125 32.3125 
Q 14.796875 37.15625 21.921875 38.8125 
z
M 18.3125 54.390625 
Q 18.3125 48.734375 21.84375 45.5625 
Q 25.390625 42.390625 31.78125 42.390625 
Q 38.140625 42.390625 41.71875 45.5625 
Q 45.3125 48.734375 45.3125 54.390625 
Q 45.3125 60.0625 41.71875 63.234375 
Q 38.140625 66.40625 31.78125 66.40625 
Q 25.390625 66.40625 21.84375 63.234375 
Q 18.3125 60.0625 18.3125 54.390625 
z
" id="DejaVuSans-56"/>
      </defs>
      <g transform="translate(267.409375 465.318437)scale(0.1 -0.1)">
       <use xlink:href="#DejaVuSans-48"/>
       <use x="63.623047" xlink:href="#DejaVuSans-46"/>
       <use x="95.410156" xlink:href="#DejaVuSans-56"/>
      </g>
     </g>
    </g>
    <g id="xtick_6">
     <g id="line2d_14">
      <g>
       <use style="stroke:#000000;stroke-width:0.8;" x="331.160937" xlink:href="#m0c979e799f" y="450.72"/>
      </g>
     </g>
     <g id="text_9">
      <!-- 1.0 -->
      <g transform="translate(323.209375 465.318437)scale(0.1 -0.1)">
       <use xlink:href="#DejaVuSans-49"/>
       <use x="63.623047" xlink:href="#DejaVuSans-46"/>
       <use x="95.410156" xlink:href="#DejaVuSans-48"/>
      </g>
     </g>
    </g>
    <g id="text_10">
     <!-- $x$ -->
     <defs>
      <path d="M 60.015625 54.6875 
L 34.90625 27.875 
L 50.296875 0 
L 39.984375 0 
L 28.421875 21.6875 
L 8.296875 0 
L -2.59375 0 
L 24.3125 28.8125 
L 10.015625 54.6875 
L 20.3125 54.6875 
L 30.8125 34.90625 
L 49.125 54.6875 
z
" id="DejaVuSans-Oblique-120"/>
     </defs>
     <g transform="translate(188.660937 478.996562)scale(0.1 -0.1)">
      <use transform="translate(0 0.3125)" xlink:href="#DejaVuSans-Oblique-120"/>
     </g>
    </g>
   </g>
   <g id="matplotlib.axis_2">
    <g id="ytick_1">
     <g id="line2d_15">
      <defs>
       <path d="M 0 0 
L -3.5 0 
" id="m227b002a45" style="stroke:#000000;stroke-width:0.8;"/>
      </defs>
      <g>
       <use style="stroke:#000000;stroke-width:0.8;" x="52.160938" xlink:href="#m227b002a45" y="444.790588"/>
      </g>
     </g>
     <g id="text_11">
      <!-- 1.0 -->
      <defs>
       <path d="M 10.59375 35.5 
L 73.1875 35.5 
L 73.1875 27.203125 
L 10.59375 27.203125 
z
" id="DejaVuSans-8722"/>
      </defs>
      <g transform="translate(20.878125 448.589807)scale(0.1 -0.1)">
       <use xlink:href="#DejaVuSans-8722"/>
       <use x="83.789062" xlink:href="#DejaVuSans-49"/>
       <use x="147.412109" xlink:href="#DejaVuSans-46"/>
       <use x="179.199219" xlink:href="#DejaVuSans-48"/>
      </g>
     </g>
    </g>
    <g id="ytick_2">
     <g id="line2d_16">
      <g>
       <use style="stroke:#000000;stroke-width:0.8;" x="52.160938" xlink:href="#m227b002a45" y="404.511145"/>
      </g>
     </g>
     <g id="text_12">
      <!-- 0.5 -->
      <defs>
       <path d="M 10.796875 72.90625 
L 49.515625 72.90625 
L 49.515625 64.59375 
L 19.828125 64.59375 
L 19.828125 46.734375 
Q 21.96875 47.46875 24.109375 47.828125 
Q 26.265625 48.1875 28.421875 48.1875 
Q 40.625 48.1875 47.75 41.5 
Q 54.890625 34.8125 54.890625 23.390625 
Q 54.890625 11.625 47.5625 5.09375 
Q 40.234375 -1.421875 26.90625 -1.421875 
Q 22.3125 -1.421875 17.546875 -0.640625 
Q 12.796875 0.140625 7.71875 1.703125 
L 7.71875 11.625 
Q 12.109375 9.234375 16.796875 8.0625 
Q 21.484375 6.890625 26.703125 6.890625 
Q 35.15625 6.890625 40.078125 11.328125 
Q 45.015625 15.765625 45.015625 23.390625 
Q 45.015625 31 40.078125 35.4375 
Q 35.15625 39.890625 26.703125 39.890625 
Q 22.75 39.890625 18.8125 39.015625 
Q 14.890625 38.140625 10.796875 36.28125 
z
" id="DejaVuSans-53"/>
      </defs>
      <g transform="translate(20.878125 408.310363)scale(0.1 -0.1)">
       <use xlink:href="#DejaVuSans-8722"/>
       <use x="83.789062" xlink:href="#DejaVuSans-48"/>
       <use x="147.412109" xlink:href="#DejaVuSans-46"/>
       <use x="179.199219" xlink:href="#DejaVuSans-53"/>
      </g>
     </g>
    </g>
    <g id="ytick_3">
     <g id="line2d_17">
      <g>
       <use style="stroke:#000000;stroke-width:0.8;" x="52.160938" xlink:href="#m227b002a45" y="364.231701"/>
      </g>
     </g>
     <g id="text_13">
      <!-- 0.0 -->
      <g transform="translate(29.257812 368.03092)scale(0.1 -0.1)">
       <use xlink:href="#DejaVuSans-48"/>
       <use x="63.623047" xlink:href="#DejaVuSans-46"/>
       <use x="95.410156" xlink:href="#DejaVuSans-48"/>
      </g>
     </g>
    </g>
    <g id="ytick_4">
     <g id="line2d_18">
      <g>
       <use style="stroke:#000000;stroke-width:0.8;" x="52.160938" xlink:href="#m227b002a45" y="323.952258"/>
      </g>
     </g>
     <g id="text_14">
      <!-- 0.5 -->
      <g transform="translate(29.257812 327.751476)scale(0.1 -0.1)">
       <use xlink:href="#DejaVuSans-48"/>
       <use x="63.623047" xlink:href="#DejaVuSans-46"/>
       <use x="95.410156" xlink:href="#DejaVuSans-53"/>
      </g>
     </g>
    </g>
    <g id="text_15">
     <!-- $u$ -->
     <defs>
      <path d="M 6.6875 21.6875 
L 13.09375 54.6875 
L 22.125 54.6875 
L 15.71875 22.015625 
Q 15.234375 19.625 15.015625 17.921875 
Q 14.796875 16.21875 14.796875 15.09375 
Q 14.796875 10.9375 17.328125 8.65625 
Q 19.875 6.390625 24.515625 6.390625 
Q 31.734375 6.390625 37 11.265625 
Q 42.28125 16.15625 43.890625 24.421875 
L 49.90625 54.6875 
L 58.890625 54.6875 
L 48.296875 0 
L 39.3125 0 
L 41.109375 8.59375 
Q 37.3125 3.8125 32.0625 1.1875 
Q 26.8125 -1.421875 20.90625 -1.421875 
Q 13.71875 -1.421875 9.71875 2.515625 
Q 5.71875 6.453125 5.71875 13.484375 
Q 5.71875 14.9375 5.953125 17.140625 
Q 6.203125 19.34375 6.6875 21.6875 
z
" id="DejaVuSans-Oblique-117"/>
     </defs>
     <g transform="translate(14.798438 388.696471)rotate(-90)scale(0.1 -0.1)">
      <use transform="translate(0 0.3125)" xlink:href="#DejaVuSans-Oblique-117"/>
     </g>
    </g>
   </g>
   <g id="line2d_19">
    <path clip-path="url(#p09db557734)" d="M 331.160937 364.231701 
L 311.232246 349.319759 
L 291.303834 338.664925 
L 271.375143 331.637792 
L 251.446731 327.659789 
L 231.51804 326.202353 
L 211.589628 326.787412 
L 191.660937 328.987188 
L 171.732246 332.424218 
L 151.803834 336.771294 
L 131.875143 341.751733 
L 111.946731 347.138919 
L 92.01804 352.756852 
L 72.089517 358.47959 
L 52.160938 364.231701 
" style="fill:none;stroke:#1f77b4;stroke-linecap:square;stroke-width:1.5;"/>
   </g>
   <g id="line2d_20">
    <path clip-path="url(#p09db557734)" d="M 52.160938 364.231701 
L 72.089517 364.233798 
L 92.01804 364.265253 
L 111.946731 364.40156 
L 131.875143 364.768535 
L 151.803834 365.542337 
L 171.732246 366.94942 
L 191.660937 369.266632 
L 211.589628 372.821096 
L 231.51804 377.990197 
L 251.446731 385.201874 
L 271.375143 394.934037 
L 291.303834 407.715411 
L 311.232246 424.124405 
L 331.160937 444.790588 
" style="fill:none;stroke:#ff7f0e;stroke-linecap:square;stroke-width:1.5;"/>
   </g>
   <g id="patch_4">
    <path d="M 52.160938 450.72 
L 52.160938 320.272941 
" style="fill:none;stroke:#000000;stroke-linecap:square;stroke-linejoin:miter;stroke-width:0.8;"/>
   </g>
   <g id="patch_5">
    <path d="M 331.160937 450.72 
L 331.160937 320.272941 
" style="fill:none;stroke:#000000;stroke-linecap:square;stroke-linejoin:miter;stroke-width:0.8;"/>
   </g>
   <g id="patch_6">
    <path d="M 52.160938 450.72 
L 331.160937 450.72 
" style="fill:none;stroke:#000000;stroke-linecap:square;stroke-linejoin:miter;stroke-width:0.8;"/>
   </g>
   <g id="patch_7">
    <path d="M 52.160938 320.272941 
L 331.160937 320.272941 
" style="fill:none;stroke:#000000;stroke-linecap:square;stroke-linejoin:miter;stroke-width:0.8;"/>
   </g>
  </g>
 </g>
 <defs>
  <clipPath id="paa84f5d467">
   <rect height="286.983529" width="279" x="52.160938" y="7.2"/>
  </clipPath>
  <clipPath id="p09db557734">
   <rect height="130.447059" width="279" x="52.160938" y="320.272941"/>
  </clipPath>
 </defs>
</svg>
