<?xml version="1.0" encoding="utf-8" standalone="no"?>
<!DOCTYPE svg PUBLIC "-//W3C//DTD SVG 1.1//EN"
  "http://www.w3.org/Graphics/SVG/1.1/DTD/svg11.dtd">
<!-- Created with matplotlib (https://matplotlib.org/) -->
<svg height="291.6pt" version="1.1" viewBox="0 0 293.4 291.6" width="293.4pt" xmlns="http://www.w3.org/2000/svg" xmlns:xlink="http://www.w3.org/1999/xlink">
 <defs>
  <style type="text/css">
*{stroke-linecap:butt;stroke-linejoin:round;}
  </style>
 </defs>
 <g id="figure_1">
  <g id="patch_1">
   <path d="M 0 291.6 
L 293.4 291.6 
L 293.4 0 
L 0 0 
z
" style="fill:#ffffff;"/>
  </g>
  <g id="axes_1">
   <g id="line2d_1">
    <path clip-path="url(#p768dfd9512)" d="M 272.433235 105.818907 
L 273.518182 114.095455 
M 269.196957 97.683974 
L 272.433235 105.818907 
M 263.864723 89.829846 
L 269.196957 97.683974 
M 256.527767 82.390909 
L 263.864723 89.829846 
M 247.311628 75.494446 
L 256.527767 82.390909 
M 236.373996 69.258456 
L 247.311628 75.494446 
M 223.902018 63.78964 
L 236.373996 69.258456 
M 210.109091 59.181571 
L 223.902018 63.78964 
M 195.231217 55.513093 
L 210.109091 59.181571 
M 179.522961 52.846976 
L 195.231217 55.513093 
M 163.253094 51.228837 
L 179.522961 52.846976 
M 146.7 50.686364 
L 163.253094 51.228837 
M 130.146906 51.228837 
L 146.7 50.686364 
M 113.877039 52.846976 
L 130.146906 51.228837 
M 98.168783 55.513093 
L 113.877039 52.846976 
M 83.290909 59.181571 
L 98.168783 55.513093 
M 69.497982 63.78964 
L 83.290909 59.181571 
M 57.026004 69.258456 
L 69.497982 63.78964 
M 46.088372 75.494446 
L 57.026004 69.258456 
M 36.872233 82.390909 
L 46.088372 75.494446 
M 29.535277 89.829846 
L 36.872233 82.390909 
M 24.203043 97.683974 
L 29.535277 89.829846 
M 20.966765 105.818907 
L 24.203043 97.683974 
M 19.881818 114.095455 
L 20.966765 105.818907 
M 20.966765 130.648549 
L 19.881818 114.095455 
M 24.203043 146.918415 
L 20.966765 130.648549 
M 29.535277 162.626672 
L 24.203043 146.918415 
M 36.872233 177.504545 
L 29.535277 162.626672 
M 46.088372 191.297472 
L 36.872233 177.504545 
M 57.026004 203.769451 
L 46.088372 191.297472 
M 69.497982 214.707083 
L 57.026004 203.769451 
M 83.290909 223.923222 
L 69.497982 214.707083 
M 98.168783 231.260177 
L 83.290909 223.923222 
M 113.877039 236.592412 
L 98.168783 231.260177 
M 130.146906 239.828689 
L 113.877039 236.592412 
M 146.7 240.913636 
L 130.146906 239.828689 
M 163.253094 239.828689 
L 146.7 240.913636 
M 179.522961 236.592412 
L 163.253094 239.828689 
M 195.231217 231.260177 
L 179.522961 236.592412 
M 210.109091 223.923222 
L 195.231217 231.260177 
M 223.902018 214.707083 
L 210.109091 223.923222 
M 236.373996 203.769451 
L 223.902018 214.707083 
M 247.311628 191.297472 
L 236.373996 203.769451 
M 256.527767 177.504545 
L 247.311628 191.297472 
M 263.864723 162.626672 
L 256.527767 177.504545 
M 269.196957 146.918415 
L 263.864723 162.626672 
M 272.433235 130.648549 
L 273.518182 114.095455 
M 272.433235 130.648549 
L 269.196957 146.918415 
M 146.7 114.095455 
L 273.518182 114.095455 
M 146.7 114.095455 
L 272.433235 105.818907 
M 146.7 114.095455 
L 269.196957 97.683974 
M 146.7 114.095455 
L 263.864723 89.829846 
M 146.7 114.095455 
L 256.527767 82.390909 
M 146.7 114.095455 
L 247.311628 75.494446 
M 146.7 114.095455 
L 236.373996 69.258456 
M 146.7 114.095455 
L 223.902018 63.78964 
M 146.7 114.095455 
L 210.109091 59.181571 
M 146.7 114.095455 
L 195.231217 55.513093 
M 146.7 114.095455 
L 179.522961 52.846976 
M 146.7 114.095455 
L 163.253094 51.228837 
M 146.7 114.095455 
L 146.7 50.686364 
M 146.7 114.095455 
L 130.146906 51.228837 
M 146.7 114.095455 
L 113.877039 52.846976 
M 146.7 114.095455 
L 98.168783 55.513093 
M 146.7 114.095455 
L 83.290909 59.181571 
M 146.7 114.095455 
L 69.497982 63.78964 
M 146.7 114.095455 
L 57.026004 69.258456 
M 146.7 114.095455 
L 46.088372 75.494446 
M 146.7 114.095455 
L 36.872233 82.390909 
M 146.7 114.095455 
L 29.535277 89.829846 
M 146.7 114.095455 
L 24.203043 97.683974 
M 146.7 114.095455 
L 20.966765 105.818907 
M 146.7 114.095455 
L 19.881818 114.095455 
M 146.7 114.095455 
L 20.966765 130.648549 
M 146.7 114.095455 
L 24.203043 146.918415 
M 146.7 114.095455 
L 29.535277 162.626672 
M 146.7 114.095455 
L 36.872233 177.504545 
M 146.7 114.095455 
L 46.088372 191.297472 
M 146.7 114.095455 
L 57.026004 203.769451 
M 146.7 114.095455 
L 69.497982 214.707083 
M 146.7 114.095455 
L 83.290909 223.923222 
M 146.7 114.095455 
L 98.168783 231.260177 
M 146.7 114.095455 
L 113.877039 236.592412 
M 146.7 114.095455 
L 130.146906 239.828689 
M 146.7 114.095455 
L 146.7 240.913636 
M 146.7 114.095455 
L 163.253094 239.828689 
M 146.7 114.095455 
L 179.522961 236.592412 
M 146.7 114.095455 
L 195.231217 231.260177 
M 146.7 114.095455 
L 210.109091 223.923222 
M 146.7 114.095455 
L 223.902018 214.707083 
M 146.7 114.095455 
L 236.373996 203.769451 
M 146.7 114.095455 
L 247.311628 191.297472 
M 146.7 114.095455 
L 256.527767 177.504545 
M 146.7 114.095455 
L 263.864723 162.626672 
M 146.7 114.095455 
L 269.196957 146.918415 
M 146.7 114.095455 
L 272.433235 130.648549 
L 272.433235 130.648549 
" style="fill:none;stroke:#1f77b4;stroke-linecap:square;stroke-opacity:0.5;stroke-width:0.75;"/>
   </g>
   <g id="line2d_2"/>
   <g id="line2d_3">
    <path clip-path="url(#p768dfd9512)" d="M 273.518182 114.095455 
L 272.433235 105.818907 
L 269.196957 97.683974 
L 263.864723 89.829846 
L 256.527767 82.390909 
L 247.311628 75.494446 
L 236.373996 69.258456 
L 223.902018 63.78964 
L 210.109091 59.181571 
L 195.231217 55.513093 
L 179.522961 52.846976 
L 163.253094 51.228837 
L 146.7 50.686364 
L 130.146906 51.228837 
L 113.877039 52.846976 
L 98.168783 55.513093 
L 83.290909 59.181571 
L 69.497982 63.78964 
L 57.026004 69.258456 
L 46.088372 75.494446 
L 36.872233 82.390909 
L 29.535277 89.829846 
L 24.203043 97.683974 
L 20.966765 105.818907 
L 19.881818 114.095455 
" style="fill:none;stroke:#2ca02c;stroke-linecap:square;stroke-width:1.5;"/>
   </g>
   <g id="line2d_4">
    <path clip-path="url(#p768dfd9512)" d="M 19.881818 114.095455 
L 20.966765 130.648549 
L 24.203043 146.918415 
L 29.535277 162.626672 
L 36.872233 177.504545 
L 46.088372 191.297472 
L 57.026004 203.769451 
L 69.497982 214.707083 
L 83.290909 223.923222 
L 98.168783 231.260177 
L 113.877039 236.592412 
L 130.146906 239.828689 
L 146.7 240.913636 
L 163.253094 239.828689 
L 179.522961 236.592412 
L 195.231217 231.260177 
L 210.109091 223.923222 
L 223.902018 214.707083 
L 236.373996 203.769451 
L 247.311628 191.297472 
L 256.527767 177.504545 
L 263.864723 162.626672 
L 269.196957 146.918415 
L 272.433235 130.648549 
L 273.518182 114.095455 
" style="fill:none;stroke:#d62728;stroke-linecap:square;stroke-width:1.5;"/>
   </g>
   <g id="legend_1">
    <g id="patch_2">
     <path d="M 211.032812 44.55625 
L 279.2 44.55625 
Q 281.2 44.55625 281.2 42.55625 
L 281.2 14.2 
Q 281.2 12.2 279.2 12.2 
L 211.032812 12.2 
Q 209.032812 12.2 209.032812 14.2 
L 209.032812 42.55625 
Q 209.032812 44.55625 211.032812 44.55625 
z
" style="fill:#ffffff;opacity:0.8;stroke:#cccccc;stroke-linejoin:miter;"/>
    </g>
    <g id="line2d_5">
     <path d="M 213.032812 20.298437 
L 233.032812 20.298437 
" style="fill:none;stroke:#2ca02c;stroke-linecap:square;stroke-width:1.5;"/>
    </g>
    <g id="line2d_6"/>
    <g id="text_1">
     <!-- top -->
     <defs>
      <path d="M 18.3125 70.21875 
L 18.3125 54.6875 
L 36.8125 54.6875 
L 36.8125 47.703125 
L 18.3125 47.703125 
L 18.3125 18.015625 
Q 18.3125 11.328125 20.140625 9.421875 
Q 21.96875 7.515625 27.59375 7.515625 
L 36.8125 7.515625 
L 36.8125 0 
L 27.59375 0 
Q 17.1875 0 13.234375 3.875 
Q 9.28125 7.765625 9.28125 18.015625 
L 9.28125 47.703125 
L 2.6875 47.703125 
L 2.6875 54.6875 
L 9.28125 54.6875 
L 9.28125 70.21875 
z
" id="DejaVuSans-116"/>
      <path d="M 30.609375 48.390625 
Q 23.390625 48.390625 19.1875 42.75 
Q 14.984375 37.109375 14.984375 27.296875 
Q 14.984375 17.484375 19.15625 11.84375 
Q 23.34375 6.203125 30.609375 6.203125 
Q 37.796875 6.203125 41.984375 11.859375 
Q 46.1875 17.53125 46.1875 27.296875 
Q 46.1875 37.015625 41.984375 42.703125 
Q 37.796875 48.390625 30.609375 48.390625 
z
M 30.609375 56 
Q 42.328125 56 49.015625 48.375 
Q 55.71875 40.765625 55.71875 27.296875 
Q 55.71875 13.875 49.015625 6.21875 
Q 42.328125 -1.421875 30.609375 -1.421875 
Q 18.84375 -1.421875 12.171875 6.21875 
Q 5.515625 13.875 5.515625 27.296875 
Q 5.515625 40.765625 12.171875 48.375 
Q 18.84375 56 30.609375 56 
z
" id="DejaVuSans-111"/>
      <path d="M 18.109375 8.203125 
L 18.109375 -20.796875 
L 9.078125 -20.796875 
L 9.078125 54.6875 
L 18.109375 54.6875 
L 18.109375 46.390625 
Q 20.953125 51.265625 25.265625 53.625 
Q 29.59375 56 35.59375 56 
Q 45.5625 56 51.78125 48.09375 
Q 58.015625 40.1875 58.015625 27.296875 
Q 58.015625 14.40625 51.78125 6.484375 
Q 45.5625 -1.421875 35.59375 -1.421875 
Q 29.59375 -1.421875 25.265625 0.953125 
Q 20.953125 3.328125 18.109375 8.203125 
z
M 48.6875 27.296875 
Q 48.6875 37.203125 44.609375 42.84375 
Q 40.53125 48.484375 33.40625 48.484375 
Q 26.265625 48.484375 22.1875 42.84375 
Q 18.109375 37.203125 18.109375 27.296875 
Q 18.109375 17.390625 22.1875 11.75 
Q 26.265625 6.109375 33.40625 6.109375 
Q 40.53125 6.109375 44.609375 11.75 
Q 48.6875 17.390625 48.6875 27.296875 
z
" id="DejaVuSans-112"/>
     </defs>
     <g transform="translate(241.032812 23.798437)scale(0.1 -0.1)">
      <use xlink:href="#DejaVuSans-116"/>
      <use x="39.208984" xlink:href="#DejaVuSans-111"/>
      <use x="100.390625" xlink:href="#DejaVuSans-112"/>
     </g>
    </g>
    <g id="line2d_7">
     <path d="M 213.032812 34.976562 
L 233.032812 34.976562 
" style="fill:none;stroke:#d62728;stroke-linecap:square;stroke-width:1.5;"/>
    </g>
    <g id="line2d_8"/>
    <g id="text_2">
     <!-- bottom -->
     <defs>
      <path d="M 48.6875 27.296875 
Q 48.6875 37.203125 44.609375 42.84375 
Q 40.53125 48.484375 33.40625 48.484375 
Q 26.265625 48.484375 22.1875 42.84375 
Q 18.109375 37.203125 18.109375 27.296875 
Q 18.109375 17.390625 22.1875 11.75 
Q 26.265625 6.109375 33.40625 6.109375 
Q 40.53125 6.109375 44.609375 11.75 
Q 48.6875 17.390625 48.6875 27.296875 
z
M 18.109375 46.390625 
Q 20.953125 51.265625 25.265625 53.625 
Q 29.59375 56 35.59375 56 
Q 45.5625 56 51.78125 48.09375 
Q 58.015625 40.1875 58.015625 27.296875 
Q 58.015625 14.40625 51.78125 6.484375 
Q 45.5625 -1.421875 35.59375 -1.421875 
Q 29.59375 -1.421875 25.265625 0.953125 
Q 20.953125 3.328125 18.109375 8.203125 
L 18.109375 0 
L 9.078125 0 
L 9.078125 75.984375 
L 18.109375 75.984375 
z
" id="DejaVuSans-98"/>
      <path d="M 52 44.1875 
Q 55.375 50.25 60.0625 53.125 
Q 64.75 56 71.09375 56 
Q 79.640625 56 84.28125 50.015625 
Q 88.921875 44.046875 88.921875 33.015625 
L 88.921875 0 
L 79.890625 0 
L 79.890625 32.71875 
Q 79.890625 40.578125 77.09375 44.375 
Q 74.3125 48.1875 68.609375 48.1875 
Q 61.625 48.1875 57.5625 43.546875 
Q 53.515625 38.921875 53.515625 30.90625 
L 53.515625 0 
L 44.484375 0 
L 44.484375 32.71875 
Q 44.484375 40.625 41.703125 44.40625 
Q 38.921875 48.1875 33.109375 48.1875 
Q 26.21875 48.1875 22.15625 43.53125 
Q 18.109375 38.875 18.109375 30.90625 
L 18.109375 0 
L 9.078125 0 
L 9.078125 54.6875 
L 18.109375 54.6875 
L 18.109375 46.1875 
Q 21.1875 51.21875 25.484375 53.609375 
Q 29.78125 56 35.6875 56 
Q 41.65625 56 45.828125 52.96875 
Q 50 49.953125 52 44.1875 
z
" id="DejaVuSans-109"/>
     </defs>
     <g transform="translate(241.032812 38.476562)scale(0.1 -0.1)">
      <use xlink:href="#DejaVuSans-98"/>
      <use x="63.476562" xlink:href="#DejaVuSans-111"/>
      <use x="124.658203" xlink:href="#DejaVuSans-116"/>
      <use x="163.867188" xlink:href="#DejaVuSans-116"/>
      <use x="203.076172" xlink:href="#DejaVuSans-111"/>
      <use x="264.257812" xlink:href="#DejaVuSans-109"/>
     </g>
    </g>
   </g>
  </g>
 </g>
 <defs>
  <clipPath id="p768dfd9512">
   <rect height="277.2" width="279" x="7.2" y="7.2"/>
  </clipPath>
 </defs>
</svg>
