<?xml version="1.0" encoding="utf-8" standalone="no"?>
<!DOCTYPE svg PUBLIC "-//W3C//DTD SVG 1.1//EN"
  "http://www.w3.org/Graphics/SVG/1.1/DTD/svg11.dtd">
<!-- Created with matplotlib (https://matplotlib.org/) -->
<svg height="291.6pt" version="1.1" viewBox="0 0 293.4 291.6" width="293.4pt" xmlns="http://www.w3.org/2000/svg" xmlns:xlink="http://www.w3.org/1999/xlink">
 <defs>
  <style type="text/css">
*{stroke-linecap:butt;stroke-linejoin:round;}
  </style>
 </defs>
 <g id="figure_1">
  <g id="patch_1">
   <path d="M 0 291.6 
L 293.4 291.6 
L 293.4 0 
L 0 0 
z
" style="fill:#ffffff;"/>
  </g>
  <g id="axes_1">
   <g id="line2d_1">
    <path clip-path="url(#p57a46a4d1d)" d="M 20.966748 105.900388 
L 19.881818 114.176935 
M 20.532903 127.010808 
L 19.881818 114.176935 
M 25.6977 152.140719 
L 30.159164 164.187685 
M 22.478167 139.705435 
L 20.532903 127.010808 
M 22.478167 139.705435 
L 25.6977 152.140719 
M 32.386091 117.045436 
L 19.881818 114.176935 
M 32.386091 117.045436 
L 20.966748 105.900388 
M 32.386091 117.045436 
L 20.532903 127.010808 
M 35.817537 175.72294 
L 30.159164 164.187685 
M 42.612963 186.624612 
L 35.817537 175.72294 
M 24.203021 97.765394 
L 20.966748 105.900388 
M 33.692445 106.076335 
L 20.966748 105.900388 
M 33.692445 106.076335 
L 32.386091 117.045436 
M 33.692445 106.076335 
L 24.203021 97.765394 
M 33.480025 128.154708 
L 20.532903 127.010808 
M 33.480025 128.154708 
L 22.478167 139.705435 
M 33.480025 128.154708 
L 32.386091 117.045436 
M 43.230821 123.411391 
L 32.386091 117.045436 
M 43.230821 123.411391 
L 33.480025 128.154708 
M 35.549697 137.696508 
L 22.478167 139.705435 
M 35.549697 137.696508 
L 33.480025 128.154708 
M 39.538763 160.175538 
L 30.159164 164.187685 
M 39.538763 160.175538 
L 25.6977 152.140719 
M 39.538763 160.175538 
L 35.817537 175.72294 
M 37.341511 148.208975 
L 25.6977 152.140719 
M 37.341511 148.208975 
L 22.478167 139.705435 
M 37.341511 148.208975 
L 35.549697 137.696508 
M 37.341511 148.208975 
L 39.538763 160.175538 
M 45.67727 112.46333 
L 32.386091 117.045436 
M 45.67727 112.46333 
L 33.692445 106.076335 
M 45.67727 112.46333 
L 43.230821 123.411391 
M 46.811152 170.179717 
L 35.817537 175.72294 
M 46.811152 170.179717 
L 42.612963 186.624612 
M 46.811152 170.179717 
L 39.538763 160.175538 
M 53.168547 179.843643 
L 42.612963 186.624612 
M 53.168547 179.843643 
L 46.811152 170.179717 
M 59.325697 206.092978 
L 69.074084 214.461837 
M 50.475563 196.782241 
L 42.612963 186.624612 
M 50.475563 196.782241 
L 53.168547 179.843643 
M 50.475563 196.782241 
L 59.325697 206.092978 
M 79.618762 221.800932 
L 69.074084 214.461837 
M 29.535218 89.911291 
L 24.203021 97.765394 
M 38.888186 95.099422 
L 24.203021 97.765394 
M 38.888186 95.099422 
L 33.692445 106.076335 
M 38.888186 95.099422 
L 29.535218 89.911291 
M 48.918236 102.406039 
L 33.692445 106.076335 
M 48.918236 102.406039 
L 45.67727 112.46333 
M 48.918236 102.406039 
L 38.888186 95.099422 
M 53.98589 120.719523 
L 43.230821 123.411391 
M 53.98589 120.719523 
L 45.67727 112.46333 
M 47.860826 133.414366 
L 33.480025 128.154708 
M 47.860826 133.414366 
L 43.230821 123.411391 
M 47.860826 133.414366 
L 35.549697 137.696508 
M 47.860826 133.414366 
L 53.98589 120.719523 
M 49.49361 144.102729 
L 35.549697 137.696508 
M 49.49361 144.102729 
L 37.341511 148.208975 
M 49.49361 144.102729 
L 47.860826 133.414366 
M 50.486343 155.484914 
L 39.538763 160.175538 
M 50.486343 155.484914 
L 37.341511 148.208975 
M 50.486343 155.484914 
L 46.811152 170.179717 
M 50.486343 155.484914 
L 49.49361 144.102729 
M 60.937683 109.397209 
L 45.67727 112.46333 
M 60.937683 109.397209 
L 48.918236 102.406039 
M 60.937683 109.397209 
L 53.98589 120.719523 
M 63.665288 172.20437 
L 53.168547 179.843643 
M 57.815926 164.090416 
L 46.811152 170.179717 
M 57.815926 164.090416 
L 53.168547 179.843643 
M 57.815926 164.090416 
L 50.486343 155.484914 
M 57.815926 164.090416 
L 63.665288 172.20437 
M 61.73296 187.188445 
L 53.168547 179.843643 
M 61.73296 187.188445 
L 50.475563 196.782241 
M 61.73296 187.188445 
L 63.665288 172.20437 
M 75.369338 206.33203 
L 69.074084 214.461837 
M 75.369338 206.33203 
L 59.325697 206.092978 
M 75.369338 206.33203 
L 79.618762 221.800932 
M 67.43889 196.930872 
L 59.325697 206.092978 
M 67.43889 196.930872 
L 50.475563 196.782241 
M 67.43889 196.930872 
L 61.73296 187.188445 
M 67.43889 196.930872 
L 75.369338 206.33203 
M 71.143122 179.108478 
L 63.665288 172.20437 
M 71.143122 179.108478 
L 61.73296 187.188445 
M 86.428898 211.732456 
L 79.618762 221.800932 
M 86.428898 211.732456 
L 75.369338 206.33203 
M 102.654524 233.100432 
L 114.912135 236.946573 
M 90.850287 228.034679 
L 79.618762 221.800932 
M 90.850287 228.034679 
L 86.428898 211.732456 
M 90.850287 228.034679 
L 102.654524 233.100432 
M 38.587246 81.031355 
L 29.535218 89.911291 
M 38.587246 81.031355 
L 38.888186 95.099422 
M 49.764494 88.627764 
L 38.888186 95.099422 
M 49.764494 88.627764 
L 48.918236 102.406039 
M 49.764494 88.627764 
L 38.587246 81.031355 
M 60.65082 95.343928 
L 48.918236 102.406039 
M 60.65082 95.343928 
L 60.937683 109.397209 
M 60.65082 95.343928 
L 49.764494 88.627764 
M 71.870932 100.975036 
L 60.937683 109.397209 
M 71.870932 100.975036 
L 60.65082 95.343928 
M 127.497318 239.532777 
L 114.912135 236.946573 
M 65.645427 121.009176 
L 53.98589 120.719523 
M 65.645427 121.009176 
L 60.937683 109.397209 
M 59.724033 130.584291 
L 53.98589 120.719523 
M 59.724033 130.584291 
L 47.860826 133.414366 
M 59.724033 130.584291 
L 65.645427 121.009176 
M 62.0793 139.761616 
L 47.860826 133.414366 
M 62.0793 139.761616 
L 49.49361 144.102729 
M 62.0793 139.761616 
L 59.724033 130.584291 
M 62.519486 150.17732 
L 49.49361 144.102729 
M 62.519486 150.17732 
L 50.486343 155.484914 
M 62.519486 150.17732 
L 57.815926 164.090416 
M 62.519486 150.17732 
L 62.0793 139.761616 
M 75.6387 115.212193 
L 60.937683 109.397209 
M 75.6387 115.212193 
L 71.870932 100.975036 
M 75.6387 115.212193 
L 65.645427 121.009176 
M 78.995577 172.323706 
L 71.143122 179.108478 
M 74.54185 165.233935 
L 63.665288 172.20437 
M 74.54185 165.233935 
L 71.143122 179.108478 
M 74.54185 165.233935 
L 78.995577 172.323706 
M 69.585415 157.535818 
L 63.665288 172.20437 
M 69.585415 157.535818 
L 57.815926 164.090416 
M 69.585415 157.535818 
L 62.519486 150.17732 
M 69.585415 157.535818 
L 74.54185 165.233935 
M 76.860213 187.667184 
L 61.73296 187.188445 
M 76.860213 187.667184 
L 67.43889 196.930872 
M 76.860213 187.667184 
L 71.143122 179.108478 
M 82.919966 196.598608 
L 75.369338 206.33203 
M 82.919966 196.598608 
L 67.43889 196.930872 
M 82.919966 196.598608 
L 86.428898 211.732456 
M 82.919966 196.598608 
L 76.860213 187.667184 
M 85.316322 177.846257 
L 71.143122 179.108478 
M 85.316322 177.846257 
L 78.995577 172.323706 
M 85.316322 177.846257 
L 76.860213 187.667184 
M 117.483754 227.069466 
L 114.912135 236.946573 
M 117.483754 227.069466 
L 102.654524 233.100432 
M 117.483754 227.069466 
L 127.497318 239.532777 
M 92.964854 200.603272 
L 86.428898 211.732456 
M 92.964854 200.603272 
L 82.919966 196.598608 
M 97.38117 214.783955 
L 86.428898 211.732456 
M 97.38117 214.783955 
L 90.850287 228.034679 
M 97.38117 214.783955 
L 92.964854 200.603272 
M 106.566991 221.420857 
L 102.654524 233.100432 
M 106.566991 221.420857 
L 90.850287 228.034679 
M 106.566991 221.420857 
L 117.483754 227.069466 
M 106.566991 221.420857 
L 97.38117 214.783955 
M 48.98304 73.759347 
L 38.587246 81.031355 
M 48.98304 73.759347 
L 49.764494 88.627764 
M 59.81902 81.209154 
L 49.764494 88.627764 
M 59.81902 81.209154 
L 60.65082 95.343928 
M 59.81902 81.209154 
L 48.98304 73.759347 
M 70.740982 86.560881 
L 60.65082 95.343928 
M 70.740982 86.560881 
L 71.870932 100.975036 
M 70.740982 86.560881 
L 59.81902 81.209154 
M 80.986496 92.154704 
L 71.870932 100.975036 
M 80.986496 92.154704 
L 70.740982 86.560881 
M 84.03381 103.811781 
L 71.870932 100.975036 
M 84.03381 103.811781 
L 75.6387 115.212193 
M 84.03381 103.811781 
L 80.986496 92.154704 
M 129.915614 227.466787 
L 127.497318 239.532777 
M 129.915614 227.466787 
L 117.483754 227.069466 
M 140.27742 240.832156 
L 127.497318 239.532777 
M 140.27742 240.832156 
L 129.915614 227.466787 
M 73.428005 130.978442 
L 65.645427 121.009176 
M 73.428005 130.978442 
L 59.724033 130.584291 
M 73.428005 130.978442 
L 62.0793 139.761616 
M 73.428005 130.978442 
L 75.6387 115.212193 
M 75.006258 144.198984 
L 62.0793 139.761616 
M 75.006258 144.198984 
L 62.519486 150.17732 
M 75.006258 144.198984 
L 69.585415 157.535818 
M 75.006258 144.198984 
L 73.428005 130.978442 
M 84.75921 126.152059 
L 75.6387 115.212193 
M 84.75921 126.152059 
L 73.428005 130.978442 
M 89.506141 115.461172 
L 75.6387 115.212193 
M 89.506141 115.461172 
L 84.03381 103.811781 
M 89.506141 115.461172 
L 84.75921 126.152059 
M 87.883503 164.447028 
L 78.995577 172.323706 
M 87.883503 164.447028 
L 74.54185 165.233935 
M 87.883503 164.447028 
L 85.316322 177.846257 
M 83.271125 153.501097 
L 74.54185 165.233935 
M 83.271125 153.501097 
L 69.585415 157.535818 
M 83.271125 153.501097 
L 75.006258 144.198984 
M 83.271125 153.501097 
L 87.883503 164.447028 
M 99.612409 190.743286 
L 92.964854 200.603272 
M 91.826407 185.396377 
L 76.860213 187.667184 
M 91.826407 185.396377 
L 82.919966 196.598608 
M 91.826407 185.396377 
L 85.316322 177.846257 
M 91.826407 185.396377 
L 92.964854 200.603272 
M 91.826407 185.396377 
L 99.612409 190.743286 
M 96.967109 171.355829 
L 85.316322 177.846257 
M 96.967109 171.355829 
L 87.883503 164.447028 
M 96.967109 171.355829 
L 91.826407 185.396377 
M 120.54895 215.547654 
L 117.483754 227.069466 
M 120.54895 215.547654 
L 106.566991 221.420857 
M 120.54895 215.547654 
L 129.915614 227.466787 
M 103.138081 203.412042 
L 92.964854 200.603272 
M 103.138081 203.412042 
L 97.38117 214.783955 
M 103.138081 203.412042 
L 99.612409 190.743286 
M 111.39572 209.302873 
L 97.38117 214.783955 
M 111.39572 209.302873 
L 106.566991 221.420857 
M 111.39572 209.302873 
L 120.54895 215.547654 
M 111.39572 209.302873 
L 103.138081 203.412042 
M 108.281446 191.863597 
L 99.612409 190.743286 
M 108.281446 191.863597 
L 103.138081 203.412042 
M 60.19085 67.81132 
L 48.98304 73.759347 
M 60.19085 67.81132 
L 59.81902 81.209154 
M 70.862347 74.222233 
L 59.81902 81.209154 
M 70.862347 74.222233 
L 70.740982 86.560881 
M 70.862347 74.222233 
L 60.19085 67.81132 
M 82.185181 80.961224 
L 70.740982 86.560881 
M 82.185181 80.961224 
L 80.986496 92.154704 
M 82.185181 80.961224 
L 70.862347 74.222233 
M 91.599529 91.664679 
L 80.986496 92.154704 
M 91.599529 91.664679 
L 84.03381 103.811781 
M 91.599529 91.664679 
L 82.185181 80.961224 
M 96.307147 103.434066 
L 84.03381 103.811781 
M 96.307147 103.434066 
L 89.506141 115.461172 
M 96.307147 103.434066 
L 91.599529 91.664679 
M 131.710091 215.025797 
L 129.915614 227.466787 
M 131.710091 215.025797 
L 120.54895 215.547654 
M 142.006814 227.448145 
L 129.915614 227.466787 
M 142.006814 227.448145 
L 140.27742 240.832156 
M 142.006814 227.448145 
L 131.710091 215.025797 
M 153.12258 240.832156 
L 140.27742 240.832156 
M 153.12258 240.832156 
L 142.006814 227.448145 
M 87.537035 138.536932 
L 73.428005 130.978442 
M 87.537035 138.536932 
L 75.006258 144.198984 
M 87.537035 138.536932 
L 84.75921 126.152059 
M 87.537035 138.536932 
L 83.271125 153.501097 
M 93.342899 147.321882 
L 83.271125 153.501097 
M 93.342899 147.321882 
L 87.537035 138.536932 
M 98.02325 128.994498 
L 84.75921 126.152059 
M 98.02325 128.994498 
L 89.506141 115.461172 
M 98.02325 128.994498 
L 87.537035 138.536932 
M 100.046381 116.445953 
L 89.506141 115.461172 
M 100.046381 116.445953 
L 96.307147 103.434066 
M 100.046381 116.445953 
L 98.02325 128.994498 
M 98.584675 156.466867 
L 87.883503 164.447028 
M 98.584675 156.466867 
L 83.271125 153.501097 
M 98.584675 156.466867 
L 96.967109 171.355829 
M 98.584675 156.466867 
L 93.342899 147.321882 
M 106.030677 178.895931 
L 99.612409 190.743286 
M 106.030677 178.895931 
L 91.826407 185.396377 
M 106.030677 178.895931 
L 96.967109 171.355829 
M 106.030677 178.895931 
L 108.281446 191.863597 
M 107.993315 164.359904 
L 96.967109 171.355829 
M 107.993315 164.359904 
L 98.584675 156.466867 
M 107.993315 164.359904 
L 106.030677 178.895931 
M 123.898471 202.583412 
L 120.54895 215.547654 
M 123.898471 202.583412 
L 111.39572 209.302873 
M 123.898471 202.583412 
L 131.710091 215.025797 
M 115.825099 196.951543 
L 103.138081 203.412042 
M 115.825099 196.951543 
L 111.39572 209.302873 
M 115.825099 196.951543 
L 108.281446 191.863597 
M 115.825099 196.951543 
L 123.898471 202.583412 
M 117.236078 183.440587 
L 108.281446 191.863597 
M 117.236078 183.440587 
L 106.030677 178.895931 
M 117.236078 183.440587 
L 115.825099 196.951543 
M 71.917855 62.965344 
L 60.19085 67.81132 
M 71.917855 62.965344 
L 70.862347 74.222233 
M 82.502607 70.358463 
L 70.862347 74.222233 
M 82.502607 70.358463 
L 82.185181 80.961224 
M 82.502607 70.358463 
L 71.917855 62.965344 
M 93.391724 79.575862 
L 82.185181 80.961224 
M 93.391724 79.575862 
L 91.599529 91.664679 
M 93.391724 79.575862 
L 82.502607 70.358463 
M 103.294702 90.88145 
L 91.599529 91.664679 
M 103.294702 90.88145 
L 96.307147 103.434066 
M 103.294702 90.88145 
L 93.391724 79.575862 
M 107.130571 106.342679 
L 96.307147 103.434066 
M 107.130571 106.342679 
L 100.046381 116.445953 
M 107.130571 106.342679 
L 103.294702 90.88145 
M 165.902682 239.532777 
L 153.12258 240.832156 
M 133.621748 201.67793 
L 131.710091 215.025797 
M 133.621748 201.67793 
L 123.898471 202.583412 
M 141.545297 213.620017 
L 131.710091 215.025797 
M 141.545297 213.620017 
L 142.006814 227.448145 
M 141.545297 213.620017 
L 133.621748 201.67793 
M 150.996296 216.835746 
L 142.006814 227.448145 
M 150.996296 216.835746 
L 141.545297 213.620017 
M 153.525202 227.490756 
L 142.006814 227.448145 
M 153.525202 227.490756 
L 153.12258 240.832156 
M 153.525202 227.490756 
L 150.996296 216.835746 
M 163.845691 227.358992 
L 153.12258 240.832156 
M 163.845691 227.358992 
L 165.902682 239.532777 
M 163.845691 227.358992 
L 153.525202 227.490756 
M 103.570405 141.872504 
L 87.537035 138.536932 
M 103.570405 141.872504 
L 93.342899 147.321882 
M 103.570405 141.872504 
L 98.02325 128.994498 
M 103.570405 141.872504 
L 98.584675 156.466867 
M 111.42324 131.860843 
L 98.02325 128.994498 
M 111.42324 131.860843 
L 103.570405 141.872504 
M 110.079348 120.802691 
L 98.02325 128.994498 
M 110.079348 120.802691 
L 100.046381 116.445953 
M 110.079348 120.802691 
L 107.130571 106.342679 
M 110.079348 120.802691 
L 111.42324 131.860843 
M 111.937741 150.77755 
L 98.584675 156.466867 
M 111.937741 150.77755 
L 107.993315 164.359904 
M 111.937741 150.77755 
L 103.570405 141.872504 
M 117.751087 170.498412 
L 106.030677 178.895931 
M 117.751087 170.498412 
L 107.993315 164.359904 
M 117.751087 170.498412 
L 117.236078 183.440587 
M 119.746571 158.547954 
L 107.993315 164.359904 
M 119.746571 158.547954 
L 111.937741 150.77755 
M 119.746571 158.547954 
L 117.751087 170.498412 
M 127.704919 188.646854 
L 123.898471 202.583412 
M 127.704919 188.646854 
L 115.825099 196.951543 
M 127.704919 188.646854 
L 117.236078 183.440587 
M 127.704919 188.646854 
L 133.621748 201.67793 
M 126.805144 175.31522 
L 117.236078 183.440587 
M 126.805144 175.31522 
L 117.751087 170.498412 
M 126.805144 175.31522 
L 127.704919 188.646854 
M 178.487865 236.946573 
L 165.902682 239.532777 
M 83.991833 59.062134 
L 71.917855 62.965344 
M 83.991833 59.062134 
L 82.502607 70.358463 
M 93.3325 67.429471 
L 82.502607 70.358463 
M 93.3325 67.429471 
L 93.391724 79.575862 
M 93.3325 67.429471 
L 83.991833 59.062134 
M 103.575097 75.590601 
L 93.391724 79.575862 
M 103.575097 75.590601 
L 103.294702 90.88145 
M 103.575097 75.590601 
L 93.3325 67.429471 
M 112.238427 81.831577 
L 103.294702 90.88145 
M 112.238427 81.831577 
L 103.575097 75.590601 
M 114.608405 96.667656 
L 103.294702 90.88145 
M 114.608405 96.667656 
L 107.130571 106.342679 
M 114.608405 96.667656 
L 112.238427 81.831577 
M 118.533682 110.95479 
L 107.130571 106.342679 
M 118.533682 110.95479 
L 110.079348 120.802691 
M 118.533682 110.95479 
L 114.608405 96.667656 
M 176.02569 227.262357 
L 165.902682 239.532777 
M 176.02569 227.262357 
L 163.845691 227.358992 
M 176.02569 227.262357 
L 178.487865 236.946573 
M 142.893717 200.804406 
L 133.621748 201.67793 
M 142.893717 200.804406 
L 141.545297 213.620017 
M 139.364989 189.158439 
L 133.621748 201.67793 
M 139.364989 189.158439 
L 127.704919 188.646854 
M 139.364989 189.158439 
L 142.893717 200.804406 
M 151.365704 204.644714 
L 141.545297 213.620017 
M 151.365704 204.644714 
L 150.996296 216.835746 
M 151.365704 204.644714 
L 142.893717 200.804406 
M 161.480279 214.285052 
L 150.996296 216.835746 
M 161.480279 214.285052 
L 153.525202 227.490756 
M 161.480279 214.285052 
L 163.845691 227.358992 
M 161.480279 214.285052 
L 151.365704 204.644714 
M 172.876921 215.327117 
L 163.845691 227.358992 
M 172.876921 215.327117 
L 176.02569 227.262357 
M 172.876921 215.327117 
L 161.480279 214.285052 
M 119.234606 138.944399 
L 103.570405 141.872504 
M 119.234606 138.944399 
L 111.42324 131.860843 
M 119.234606 138.944399 
L 111.937741 150.77755 
M 123.116764 124.496283 
L 111.42324 131.860843 
M 123.116764 124.496283 
L 110.079348 120.802691 
M 123.116764 124.496283 
L 118.533682 110.95479 
M 123.116764 124.496283 
L 119.234606 138.944399 
M 126.728673 148.259322 
L 111.937741 150.77755 
M 126.728673 148.259322 
L 119.746571 158.547954 
M 126.728673 148.259322 
L 119.234606 138.944399 
M 130.911644 162.757303 
L 117.751087 170.498412 
M 130.911644 162.757303 
L 119.746571 158.547954 
M 130.911644 162.757303 
L 126.805144 175.31522 
M 130.911644 162.757303 
L 126.728673 148.259322 
M 146.30842 178.454604 
L 139.364989 189.158439 
M 136.391483 176.224252 
L 127.704919 188.646854 
M 136.391483 176.224252 
L 126.805144 175.31522 
M 136.391483 176.224252 
L 139.364989 189.158439 
M 136.391483 176.224252 
L 130.911644 162.757303 
M 136.391483 176.224252 
L 146.30842 178.454604 
M 190.745476 233.100432 
L 178.487865 236.946573 
M 190.745476 233.100432 
L 176.02569 227.262357 
M 96.303469 55.989583 
L 83.991833 59.062134 
M 96.303469 55.989583 
L 93.3325 67.429471 
M 104.182429 64.58012 
L 93.3325 67.429471 
M 104.182429 64.58012 
L 103.575097 75.590601 
M 104.182429 64.58012 
L 96.303469 55.989583 
M 114.487294 65.670629 
L 103.575097 75.590601 
M 114.487294 65.670629 
L 112.238427 81.831577 
M 114.487294 65.670629 
L 104.182429 64.58012 
M 120.759595 74.593557 
L 112.238427 81.831577 
M 120.759595 74.593557 
L 114.487294 65.670629 
M 123.065276 87.173667 
L 112.238427 81.831577 
M 123.065276 87.173667 
L 114.608405 96.667656 
M 123.065276 87.173667 
L 120.759595 74.593557 
M 126.824167 100.364026 
L 114.608405 96.667656 
M 126.824167 100.364026 
L 118.533682 110.95479 
M 126.824167 100.364026 
L 123.065276 87.173667 
M 131.777939 112.280433 
L 118.533682 110.95479 
M 131.777939 112.280433 
L 123.116764 124.496283 
M 131.777939 112.280433 
L 126.824167 100.364026 
M 186.857738 221.407922 
L 176.02569 227.262357 
M 186.857738 221.407922 
L 172.876921 215.327117 
M 186.857738 221.407922 
L 190.745476 233.100432 
M 151.808439 190.449448 
L 142.893717 200.804406 
M 151.808439 190.449448 
L 139.364989 189.158439 
M 151.808439 190.449448 
L 151.365704 204.644714 
M 151.808439 190.449448 
L 146.30842 178.454604 
M 159.976976 200.444877 
L 151.365704 204.644714 
M 159.976976 200.444877 
L 161.480279 214.285052 
M 159.976976 200.444877 
L 151.808439 190.449448 
M 169.513069 202.451013 
L 161.480279 214.285052 
M 169.513069 202.451013 
L 172.876921 215.327117 
M 169.513069 202.451013 
L 159.976976 200.444877 
M 182.141116 209.374652 
L 172.876921 215.327117 
M 182.141116 209.374652 
L 186.857738 221.407922 
M 182.141116 209.374652 
L 169.513069 202.451013 
M 136.652373 142.990026 
L 126.728673 148.259322 
M 132.884047 133.902108 
L 119.234606 138.944399 
M 132.884047 133.902108 
L 123.116764 124.496283 
M 132.884047 133.902108 
L 126.728673 148.259322 
M 132.884047 133.902108 
L 136.652373 142.990026 
M 136.598589 122.499619 
L 123.116764 124.496283 
M 136.598589 122.499619 
L 131.777939 112.280433 
M 136.598589 122.499619 
L 132.884047 133.902108 
M 140.082361 152.746783 
L 126.728673 148.259322 
M 140.082361 152.746783 
L 130.911644 162.757303 
M 140.082361 152.746783 
L 136.652373 142.990026 
M 156.067476 176.697157 
L 146.30842 178.454604 
M 156.067476 176.697157 
L 151.808439 190.449448 
M 145.214439 165.270586 
L 130.911644 162.757303 
M 145.214439 165.270586 
L 146.30842 178.454604 
M 145.214439 165.270586 
L 136.391483 176.224252 
M 145.214439 165.270586 
L 140.082361 152.746783 
M 145.214439 165.270586 
L 156.067476 176.697157 
M 202.549713 228.034679 
L 190.745476 233.100432 
M 202.549713 228.034679 
L 186.857738 221.407922 
M 108.77832 53.669064 
L 96.303469 55.989583 
M 108.77832 53.669064 
L 104.182429 64.58012 
M 108.77832 53.669064 
L 114.487294 65.670629 
M 121.362615 52.046172 
L 114.487294 65.670629 
M 121.362615 52.046172 
L 108.77832 53.669064 
M 126.611239 63.419733 
L 114.487294 65.670629 
M 126.611239 63.419733 
L 120.759595 74.593557 
M 126.611239 63.419733 
L 121.362615 52.046172 
M 131.55867 76.296344 
L 120.759595 74.593557 
M 131.55867 76.296344 
L 123.065276 87.173667 
M 131.55867 76.296344 
L 126.611239 63.419733 
M 135.21934 89.177901 
L 123.065276 87.173667 
M 135.21934 89.177901 
L 126.824167 100.364026 
M 135.21934 89.177901 
L 131.55867 76.296344 
M 140.329377 101.590852 
L 126.824167 100.364026 
M 140.329377 101.590852 
L 131.777939 112.280433 
M 140.329377 101.590852 
L 135.21934 89.177901 
M 146.782081 113.659561 
L 131.777939 112.280433 
M 146.782081 113.659561 
L 136.598589 122.499619 
M 146.782081 113.659561 
L 140.329377 101.590852 
M 196.018069 214.572676 
L 186.857738 221.407922 
M 196.018069 214.572676 
L 182.141116 209.374652 
M 196.018069 214.572676 
L 202.549713 228.034679 
M 190.464955 203.470378 
L 182.141116 209.374652 
M 190.464955 203.470378 
L 196.018069 214.572676 
M 165.63611 188.255493 
L 151.808439 190.449448 
M 165.63611 188.255493 
L 159.976976 200.444877 
M 165.63611 188.255493 
L 169.513069 202.451013 
M 165.63611 188.255493 
L 156.067476 176.697157 
M 177.328874 196.71452 
L 169.513069 202.451013 
M 177.328874 196.71452 
L 182.141116 209.374652 
M 177.328874 196.71452 
L 190.464955 203.470378 
M 177.328874 196.71452 
L 165.63611 188.255493 
M 185.35862 193.523267 
L 190.464955 203.470378 
M 185.35862 193.523267 
L 177.328874 196.71452 
M 147.274675 139.513559 
L 136.652373 142.990026 
M 147.274675 139.513559 
L 132.884047 133.902108 
M 147.274675 139.513559 
L 140.082361 152.746783 
M 147.384994 127.785541 
L 132.884047 133.902108 
M 147.384994 127.785541 
L 136.598589 122.499619 
M 147.384994 127.785541 
L 146.782081 113.659561 
M 147.384994 127.785541 
L 147.274675 139.513559 
M 157.388211 142.472227 
L 147.274675 139.513559 
M 152.450989 152.675257 
L 140.082361 152.746783 
M 152.450989 152.675257 
L 145.214439 165.270586 
M 152.450989 152.675257 
L 147.274675 139.513559 
M 152.450989 152.675257 
L 157.388211 142.472227 
M 166.961995 174.460719 
L 156.067476 176.697157 
M 166.961995 174.460719 
L 165.63611 188.255493 
M 158.581938 162.985702 
L 156.067476 176.697157 
M 158.581938 162.985702 
L 145.214439 165.270586 
M 158.581938 162.985702 
L 152.450989 152.675257 
M 158.581938 162.985702 
L 166.961995 174.460719 
M 213.781238 221.800932 
L 202.549713 228.034679 
M 206.90579 211.591814 
L 202.549713 228.034679 
M 206.90579 211.591814 
L 196.018069 214.572676 
M 206.90579 211.591814 
L 213.781238 221.800932 
M 134.014885 51.085777 
L 121.362615 52.046172 
M 134.014885 51.085777 
L 126.611239 63.419733 
M 137.439736 63.542874 
L 126.611239 63.419733 
M 137.439736 63.542874 
L 131.55867 76.296344 
M 137.439736 63.542874 
L 134.014885 51.085777 
M 142.916164 76.745661 
L 131.55867 76.296344 
M 142.916164 76.745661 
L 135.21934 89.177901 
M 142.916164 76.745661 
L 137.439736 63.542874 
M 146.835941 88.839677 
L 135.21934 89.177901 
M 146.835941 88.839677 
L 140.329377 101.590852 
M 146.835941 88.839677 
L 142.916164 76.745661 
M 153.279885 101.113394 
L 140.329377 101.590852 
M 153.279885 101.113394 
L 146.782081 113.659561 
M 153.279885 101.113394 
L 146.835941 88.839677 
M 161.122905 111.33338 
L 146.782081 113.659561 
M 161.122905 111.33338 
L 153.279885 101.113394 
M 157.798988 121.478619 
L 146.782081 113.659561 
M 157.798988 121.478619 
L 147.384994 127.785541 
M 157.798988 121.478619 
L 161.122905 111.33338 
M 200.245173 199.949525 
L 196.018069 214.572676 
M 200.245173 199.949525 
L 190.464955 203.470378 
M 200.245173 199.949525 
L 206.90579 211.591814 
M 192.637857 189.309099 
L 190.464955 203.470378 
M 192.637857 189.309099 
L 185.35862 193.523267 
M 192.637857 189.309099 
L 200.245173 199.949525 
M 178.697242 183.122274 
L 165.63611 188.255493 
M 178.697242 183.122274 
L 177.328874 196.71452 
M 178.697242 183.122274 
L 185.35862 193.523267 
M 178.697242 183.122274 
L 166.961995 174.460719 
M 178.697242 183.122274 
L 192.637857 189.309099 
M 162.158502 132.980774 
L 147.274675 139.513559 
M 162.158502 132.980774 
L 147.384994 127.785541 
M 162.158502 132.980774 
L 157.388211 142.472227 
M 162.158502 132.980774 
L 157.798988 121.478619 
M 165.954297 148.459821 
L 157.388211 142.472227 
M 165.954297 148.459821 
L 152.450989 152.675257 
M 165.954297 148.459821 
L 158.581938 162.985702 
M 165.954297 148.459821 
L 162.158502 132.980774 
M 177.049747 169.659002 
L 166.961995 174.460719 
M 177.049747 169.659002 
L 178.697242 183.122274 
M 169.18144 160.803162 
L 166.961995 174.460719 
M 169.18144 160.803162 
L 158.581938 162.985702 
M 169.18144 160.803162 
L 165.954297 148.459821 
M 169.18144 160.803162 
L 177.049747 169.659002 
M 224.325916 214.461837 
L 213.781238 221.800932 
M 210.461899 196.519093 
L 206.90579 211.591814 
M 210.461899 196.519093 
L 200.245173 199.949525 
M 218.026096 206.332157 
L 213.781238 221.800932 
M 218.026096 206.332157 
L 206.90579 211.591814 
M 218.026096 206.332157 
L 224.325916 214.461837 
M 218.026096 206.332157 
L 210.461899 196.519093 
M 147.063744 64.714167 
L 137.439736 63.542874 
M 147.063744 64.714167 
L 142.916164 76.745661 
M 146.7 50.767844 
L 134.014885 51.085777 
M 146.7 50.767844 
L 137.439736 63.542874 
M 146.7 50.767844 
L 147.063744 64.714167 
M 156.045676 87.148176 
L 146.835941 88.839677 
M 156.045676 87.148176 
L 153.279885 101.113394 
M 155.935737 75.15739 
L 142.916164 76.745661 
M 155.935737 75.15739 
L 146.835941 88.839677 
M 155.935737 75.15739 
L 147.063744 64.714167 
M 155.935737 75.15739 
L 156.045676 87.148176 
M 163.13031 94.241244 
L 153.279885 101.113394 
M 163.13031 94.241244 
L 156.045676 87.148176 
M 167.390894 101.92342 
L 153.279885 101.113394 
M 167.390894 101.92342 
L 161.122905 111.33338 
M 167.390894 101.92342 
L 163.13031 94.241244 
M 173.99495 110.509924 
L 161.122905 111.33338 
M 173.99495 110.509924 
L 167.390894 101.92342 
M 173.234168 129.855594 
L 162.158502 132.980774 
M 171.387061 120.216106 
L 161.122905 111.33338 
M 171.387061 120.216106 
L 157.798988 121.478619 
M 171.387061 120.216106 
L 162.158502 132.980774 
M 171.387061 120.216106 
L 173.99495 110.509924 
M 171.387061 120.216106 
L 173.234168 129.855594 
M 201.83319 184.568382 
L 200.245173 199.949525 
M 201.83319 184.568382 
L 192.637857 189.309099 
M 201.83319 184.568382 
L 210.461899 196.519093 
M 189.8107 176.580865 
L 192.637857 189.309099 
M 189.8107 176.580865 
L 178.697242 183.122274 
M 189.8107 176.580865 
L 177.049747 169.659002 
M 189.8107 176.580865 
L 201.83319 184.568382 
M 186.275896 164.574734 
L 177.049747 169.659002 
M 186.275896 164.574734 
L 189.8107 176.580865 
M 176.10901 139.654708 
L 162.158502 132.980774 
M 176.10901 139.654708 
L 165.954297 148.459821 
M 176.10901 139.654708 
L 173.234168 129.855594 
M 178.470237 153.492601 
L 165.954297 148.459821 
M 178.470237 153.492601 
L 177.049747 169.659002 
M 178.470237 153.492601 
L 169.18144 160.803162 
M 178.470237 153.492601 
L 186.275896 164.574734 
M 178.470237 153.492601 
L 176.10901 139.654708 
M 234.074303 206.092978 
L 224.325916 214.461837 
M 234.074303 206.092978 
L 218.026096 206.332157 
M 208.70813 178.369128 
L 201.83319 184.568382 
M 216.745994 187.762044 
L 210.461899 196.519093 
M 216.745994 187.762044 
L 201.83319 184.568382 
M 216.745994 187.762044 
L 208.70813 178.369128 
M 225.959842 197.004933 
L 210.461899 196.519093 
M 225.959842 197.004933 
L 218.026096 206.332157 
M 225.959842 197.004933 
L 234.074303 206.092978 
M 225.959842 197.004933 
L 216.745994 187.762044 
M 155.793536 62.014715 
L 147.063744 64.714167 
M 155.793536 62.014715 
L 146.7 50.767844 
M 155.793536 62.014715 
L 155.935737 75.15739 
M 159.385115 51.085777 
L 146.7 50.767844 
M 159.385115 51.085777 
L 155.793536 62.014715 
M 165.84739 63.472109 
L 155.935737 75.15739 
M 165.84739 63.472109 
L 155.793536 62.014715 
M 165.84739 63.472109 
L 159.385115 51.085777 
M 166.837586 83.108383 
L 156.045676 87.148176 
M 166.837586 83.108383 
L 155.935737 75.15739 
M 166.837586 83.108383 
L 163.13031 94.241244 
M 169.878052 73.674505 
L 155.935737 75.15739 
M 169.878052 73.674505 
L 165.84739 63.472109 
M 169.878052 73.674505 
L 166.837586 83.108383 
M 179.088095 100.980108 
L 167.390894 101.92342 
M 179.088095 100.980108 
L 173.99495 110.509924 
M 175.886317 90.617922 
L 163.13031 94.241244 
M 175.886317 90.617922 
L 167.390894 101.92342 
M 175.886317 90.617922 
L 166.837586 83.108383 
M 175.886317 90.617922 
L 179.088095 100.980108 
M 185.011265 112.494578 
L 173.99495 110.509924 
M 185.011265 112.494578 
L 171.387061 120.216106 
M 185.011265 112.494578 
L 179.088095 100.980108 
M 184.210662 126.740026 
L 173.234168 129.855594 
M 184.210662 126.740026 
L 171.387061 120.216106 
M 184.210662 126.740026 
L 176.10901 139.654708 
M 184.210662 126.740026 
L 185.011265 112.494578 
M 190.257353 154.597314 
L 186.275896 164.574734 
M 190.257353 154.597314 
L 178.470237 153.492601 
M 199.336267 167.305003 
L 201.83319 184.568382 
M 199.336267 167.305003 
L 189.8107 176.580865 
M 199.336267 167.305003 
L 186.275896 164.574734 
M 199.336267 167.305003 
L 208.70813 178.369128 
M 199.336267 167.305003 
L 190.257353 154.597314 
M 189.028739 141.576257 
L 176.10901 139.654708 
M 189.028739 141.576257 
L 178.470237 153.492601 
M 189.028739 141.576257 
L 184.210662 126.740026 
M 189.028739 141.576257 
L 190.257353 154.597314 
M 242.924437 196.782241 
L 234.074303 206.092978 
M 242.924437 196.782241 
L 225.959842 197.004933 
M 212.323083 170.414585 
L 208.70813 178.369128 
M 212.323083 170.414585 
L 199.336267 167.305003 
M 222.197907 178.829352 
L 208.70813 178.369128 
M 222.197907 178.829352 
L 216.745994 187.762044 
M 222.197907 178.829352 
L 212.323083 170.414585 
M 231.648779 187.45489 
L 216.745994 187.762044 
M 231.648779 187.45489 
L 225.959842 197.004933 
M 231.648779 187.45489 
L 242.924437 196.782241 
M 231.648779 187.45489 
L 222.197907 178.829352 
M 172.037385 52.046172 
L 159.385115 51.085777 
M 172.037385 52.046172 
L 165.84739 63.472109 
M 177.651626 64.346774 
L 165.84739 63.472109 
M 177.651626 64.346774 
L 169.878052 73.674505 
M 177.651626 64.346774 
L 172.037385 52.046172 
M 180.094398 77.827167 
L 166.837586 83.108383 
M 180.094398 77.827167 
L 169.878052 73.674505 
M 180.094398 77.827167 
L 175.886317 90.617922 
M 180.094398 77.827167 
L 177.651626 64.346774 
M 188.085211 86.648132 
L 175.886317 90.617922 
M 188.085211 86.648132 
L 180.094398 77.827167 
M 189.483889 97.579098 
L 179.088095 100.980108 
M 189.483889 97.579098 
L 175.886317 90.617922 
M 189.483889 97.579098 
L 185.011265 112.494578 
M 189.483889 97.579098 
L 188.085211 86.648132 
M 196.134108 107.571712 
L 185.011265 112.494578 
M 196.134108 107.571712 
L 189.483889 97.579098 
M 196.296055 119.559885 
L 185.011265 112.494578 
M 196.296055 119.559885 
L 184.210662 126.740026 
M 196.296055 119.559885 
L 196.134108 107.571712 
M 195.889983 130.801531 
L 184.210662 126.740026 
M 195.889983 130.801531 
L 189.028739 141.576257 
M 195.889983 130.801531 
L 196.296055 119.559885 
M 200.364635 151.296617 
L 190.257353 154.597314 
M 200.364635 151.296617 
L 199.336267 167.305003 
M 200.364635 151.296617 
L 189.028739 141.576257 
M 209.769091 159.083 
L 199.336267 167.305003 
M 209.769091 159.083 
L 212.323083 170.414585 
M 209.769091 159.083 
L 200.364635 151.296617 
M 204.647159 139.146674 
L 189.028739 141.576257 
M 204.647159 139.146674 
L 195.889983 130.801531 
M 204.647159 139.146674 
L 200.364635 151.296617 
M 250.787037 186.624612 
L 242.924437 196.782241 
M 240.916905 181.349863 
L 242.924437 196.782241 
M 240.916905 181.349863 
L 231.648779 187.45489 
M 240.916905 181.349863 
L 250.787037 186.624612 
M 221.22927 166.228951 
L 212.323083 170.414585 
M 221.22927 166.228951 
L 222.197907 178.829352 
M 221.22927 166.228951 
L 209.769091 159.083 
M 231.547578 173.212701 
L 222.197907 178.829352 
M 231.547578 173.212701 
L 231.648779 187.45489 
M 231.547578 173.212701 
L 240.916905 181.349863 
M 231.547578 173.212701 
L 221.22927 166.228951 
M 184.62168 53.669064 
L 172.037385 52.046172 
M 184.62168 53.669064 
L 177.651626 64.346774 
M 191.976374 76.112585 
L 180.094398 77.827167 
M 191.976374 76.112585 
L 188.085211 86.648132 
M 188.595908 65.806071 
L 177.651626 64.346774 
M 188.595908 65.806071 
L 180.094398 77.827167 
M 188.595908 65.806071 
L 184.62168 53.669064 
M 188.595908 65.806071 
L 191.976374 76.112585 
M 199.903017 85.379062 
L 188.085211 86.648132 
M 199.903017 85.379062 
L 189.483889 97.579098 
M 199.903017 85.379062 
L 191.976374 76.112585 
M 206.776563 112.895374 
L 196.134108 107.571712 
M 206.776563 112.895374 
L 196.296055 119.559885 
M 203.053688 98.829272 
L 189.483889 97.579098 
M 203.053688 98.829272 
L 196.134108 107.571712 
M 203.053688 98.829272 
L 199.903017 85.379062 
M 203.053688 98.829272 
L 206.776563 112.895374 
M 209.443042 126.530446 
L 196.296055 119.559885 
M 209.443042 126.530446 
L 195.889983 130.801531 
M 209.443042 126.530446 
L 204.647159 139.146674 
M 209.443042 126.530446 
L 206.776563 112.895374 
M 214.406198 147.830676 
L 200.364635 151.296617 
M 214.406198 147.830676 
L 209.769091 159.083 
M 214.406198 147.830676 
L 204.647159 139.146674 
M 222.892364 156.996967 
L 209.769091 159.083 
M 222.892364 156.996967 
L 221.22927 166.228951 
M 222.892364 156.996967 
L 214.406198 147.830676 
M 219.815501 136.729012 
L 204.647159 139.146674 
M 219.815501 136.729012 
L 209.443042 126.530446 
M 219.815501 136.729012 
L 214.406198 147.830676 
M 257.582463 175.72294 
L 250.787037 186.624612 
M 245.651281 170.297151 
L 250.787037 186.624612 
M 245.651281 170.297151 
L 240.916905 181.349863 
M 245.651281 170.297151 
L 231.547578 173.212701 
M 245.651281 170.297151 
L 257.582463 175.72294 
M 234.27531 162.692372 
L 221.22927 166.228951 
M 234.27531 162.692372 
L 231.547578 173.212701 
M 234.27531 162.692372 
L 222.892364 156.996967 
M 234.27531 162.692372 
L 245.651281 170.297151 
M 197.096531 55.989583 
L 184.62168 53.669064 
M 197.096531 55.989583 
L 188.595908 65.806071 
M 200.906276 69.395279 
L 191.976374 76.112585 
M 200.906276 69.395279 
L 188.595908 65.806071 
M 200.906276 69.395279 
L 199.903017 85.379062 
M 200.906276 69.395279 
L 197.096531 55.989583 
M 212.266141 91.564873 
L 199.903017 85.379062 
M 212.266141 91.564873 
L 203.053688 98.829272 
M 210.832589 79.567873 
L 199.903017 85.379062 
M 210.832589 79.567873 
L 200.906276 69.395279 
M 210.832589 79.567873 
L 212.266141 91.564873 
M 217.918428 116.509147 
L 206.776563 112.895374 
M 217.918428 116.509147 
L 209.443042 126.530446 
M 215.609576 104.499884 
L 206.776563 112.895374 
M 215.609576 104.499884 
L 203.053688 98.829272 
M 215.609576 104.499884 
L 212.266141 91.564873 
M 215.609576 104.499884 
L 217.918428 116.509147 
M 224.807445 124.135206 
L 209.443042 126.530446 
M 224.807445 124.135206 
L 219.815501 136.729012 
M 224.807445 124.135206 
L 217.918428 116.509147 
M 263.240836 164.187685 
L 257.582463 175.72294 
M 229.316465 149.170637 
L 214.406198 147.830676 
M 229.316465 149.170637 
L 222.892364 156.996967 
M 229.316465 149.170637 
L 219.815501 136.729012 
M 229.316465 149.170637 
L 234.27531 162.692372 
M 232.678796 140.389239 
L 219.815501 136.729012 
M 232.678796 140.389239 
L 229.316465 149.170637 
M 232.95006 131.433719 
L 219.815501 136.729012 
M 232.95006 131.433719 
L 224.807445 124.135206 
M 232.95006 131.433719 
L 232.678796 140.389239 
M 253.910569 160.251756 
L 257.582463 175.72294 
M 253.910569 160.251756 
L 245.651281 170.297151 
M 253.910569 160.251756 
L 263.240836 164.187685 
M 242.279693 155.166854 
L 245.651281 170.297151 
M 242.279693 155.166854 
L 234.27531 162.692372 
M 242.279693 155.166854 
L 229.316465 149.170637 
M 242.279693 155.166854 
L 253.910569 160.251756 
M 209.408167 59.062134 
L 197.096531 55.989583 
M 209.408167 59.062134 
L 200.906276 69.395279 
M 211.773326 69.510811 
L 200.906276 69.395279 
M 211.773326 69.510811 
L 210.832589 79.567873 
M 211.773326 69.510811 
L 209.408167 59.062134 
M 223.986805 97.494891 
L 212.266141 91.564873 
M 223.986805 97.494891 
L 215.609576 104.499884 
M 223.166798 85.504105 
L 212.266141 91.564873 
M 223.166798 85.504105 
L 210.832589 79.567873 
M 223.166798 85.504105 
L 223.986805 97.494891 
M 223.024001 74.279047 
L 210.832589 79.567873 
M 223.024001 74.279047 
L 211.773326 69.510811 
M 223.024001 74.279047 
L 223.166798 85.504105 
M 229.870661 110.004896 
L 217.918428 116.509147 
M 229.870661 110.004896 
L 215.609576 104.499884 
M 229.870661 110.004896 
L 224.807445 124.135206 
M 229.870661 110.004896 
L 223.986805 97.494891 
M 238.961876 121.941632 
L 224.807445 124.135206 
M 238.961876 121.941632 
L 232.95006 131.433719 
M 238.961876 121.941632 
L 229.870661 110.004896 
M 267.7023 152.140719 
L 263.240836 164.187685 
M 267.7023 152.140719 
L 253.910569 160.251756 
M 244.27467 144.258335 
L 229.316465 149.170637 
M 244.27467 144.258335 
L 232.678796 140.389239 
M 244.27467 144.258335 
L 242.279693 155.166854 
M 245.198033 133.711247 
L 232.678796 140.389239 
M 245.198033 133.711247 
L 232.95006 131.433719 
M 245.198033 133.711247 
L 238.961876 121.941632 
M 245.198033 133.711247 
L 244.27467 144.258335 
M 256.195579 147.958255 
L 253.910569 160.251756 
M 256.195579 147.958255 
L 242.279693 155.166854 
M 256.195579 147.958255 
L 267.7023 152.140719 
M 256.195579 147.958255 
L 244.27467 144.258335 
M 221.482145 62.965344 
L 209.408167 59.062134 
M 221.482145 62.965344 
L 211.773326 69.510811 
M 221.482145 62.965344 
L 223.024001 74.279047 
M 233.20915 67.81132 
L 223.024001 74.279047 
M 233.20915 67.81132 
L 221.482145 62.965344 
M 233.88192 94.530897 
L 223.986805 97.494891 
M 233.88192 94.530897 
L 223.166798 85.504105 
M 233.88192 94.530897 
L 229.870661 110.004896 
M 234.662993 81.441358 
L 223.166798 85.504105 
M 234.662993 81.441358 
L 223.024001 74.279047 
M 234.662993 81.441358 
L 233.20915 67.81132 
M 234.662993 81.441358 
L 233.88192 94.530897 
M 240.400248 103.525882 
L 229.870661 110.004896 
M 240.400248 103.525882 
L 233.88192 94.530897 
M 246.116831 114.268 
L 229.870661 110.004896 
M 246.116831 114.268 
L 238.961876 121.941632 
M 246.116831 114.268 
L 240.400248 103.525882 
M 254.549479 125.293754 
L 238.961876 121.941632 
M 254.549479 125.293754 
L 245.198033 133.711247 
M 254.549479 125.293754 
L 246.116831 114.268 
M 270.921833 139.705435 
L 267.7023 152.140719 
M 270.921833 139.705435 
L 256.195579 147.958255 
M 258.567333 136.424395 
L 244.27467 144.258335 
M 258.567333 136.424395 
L 245.198033 133.711247 
M 258.567333 136.424395 
L 256.195579 147.958255 
M 258.567333 136.424395 
L 254.549479 125.293754 
M 258.567333 136.424395 
L 270.921833 139.705435 
M 244.41696 73.759347 
L 233.20915 67.81132 
M 244.41696 73.759347 
L 234.662993 81.441358 
M 245.342986 90.15047 
L 233.88192 94.530897 
M 245.342986 90.15047 
L 234.662993 81.441358 
M 245.342986 90.15047 
L 240.400248 103.525882 
M 245.342986 90.15047 
L 244.41696 73.759347 
M 251.830751 104.520885 
L 240.400248 103.525882 
M 251.830751 104.520885 
L 246.116831 114.268 
M 251.830751 104.520885 
L 245.342986 90.15047 
M 260.871365 116.869716 
L 246.116831 114.268 
M 260.871365 116.869716 
L 254.549479 125.293754 
M 260.871365 116.869716 
L 251.830751 104.520885 
M 272.867097 127.010808 
L 254.549479 125.293754 
M 272.867097 127.010808 
L 270.921833 139.705435 
M 272.867097 127.010808 
L 258.567333 136.424395 
M 272.867097 127.010808 
L 260.871365 116.869716 
M 254.812754 81.031355 
L 244.41696 73.759347 
M 254.812754 81.031355 
L 245.342986 90.15047 
M 255.989119 94.65911 
L 245.342986 90.15047 
M 255.989119 94.65911 
L 251.830751 104.520885 
M 255.989119 94.65911 
L 254.812754 81.031355 
M 262.042405 106.205246 
L 251.830751 104.520885 
M 262.042405 106.205246 
L 260.871365 116.869716 
M 262.042405 106.205246 
L 255.989119 94.65911 
M 273.518182 114.176935 
L 260.871365 116.869716 
M 273.518182 114.176935 
L 272.867097 127.010808 
M 273.518182 114.176935 
L 262.042405 106.205246 
M 269.196979 97.765394 
L 255.989119 94.65911 
M 269.196979 97.765394 
L 262.042405 106.205246 
M 263.864782 89.911291 
L 254.812754 81.031355 
M 263.864782 89.911291 
L 255.989119 94.65911 
M 263.864782 89.911291 
L 269.196979 97.765394 
M 272.433252 105.900388 
L 262.042405 106.205246 
M 272.433252 105.900388 
L 273.518182 114.176935 
M 272.433252 105.900388 
L 269.196979 97.765394 
L 269.196979 97.765394 
" style="fill:none;stroke:#1f77b4;stroke-linecap:square;stroke-opacity:0.5;stroke-width:0.75;"/>
   </g>
   <g id="line2d_2"/>
   <g id="line2d_3">
    <path clip-path="url(#p57a46a4d1d)" d="M 273.518182 114.176935 
L 272.433252 105.900388 
L 269.196979 97.765394 
L 263.864782 89.911291 
L 254.812754 81.031355 
L 244.41696 73.759347 
L 233.20915 67.81132 
L 221.482145 62.965344 
L 209.408167 59.062134 
L 197.096531 55.989583 
L 184.62168 53.669064 
L 172.037385 52.046172 
L 159.385115 51.085777 
L 146.7 50.767844 
L 134.014885 51.085777 
L 121.362615 52.046172 
L 108.77832 53.669064 
L 96.303469 55.989583 
L 83.991833 59.062134 
L 71.917855 62.965344 
L 60.19085 67.81132 
L 48.98304 73.759347 
L 38.587246 81.031355 
L 29.535218 89.911291 
L 24.203021 97.765394 
L 20.966748 105.900388 
L 19.881818 114.176935 
" style="fill:none;stroke:#2ca02c;stroke-linecap:square;stroke-width:1.5;"/>
   </g>
   <g id="line2d_4">
    <path clip-path="url(#p57a46a4d1d)" d="M 19.881818 114.176935 
L 20.532903 127.010808 
L 22.478167 139.705435 
L 25.6977 152.140719 
L 30.159164 164.187685 
L 35.817537 175.72294 
L 42.612963 186.624612 
L 50.475563 196.782241 
L 59.325697 206.092978 
L 69.074084 214.461837 
L 79.618762 221.800932 
L 90.850287 228.034679 
L 102.654524 233.100432 
L 114.912135 236.946573 
L 127.497318 239.532777 
L 140.27742 240.832156 
L 153.12258 240.832156 
L 165.902682 239.532777 
L 178.487865 236.946573 
L 190.745476 233.100432 
L 202.549713 228.034679 
L 213.781238 221.800932 
L 224.325916 214.461837 
L 234.074303 206.092978 
L 242.924437 196.782241 
L 250.787037 186.624612 
L 257.582463 175.72294 
L 263.240836 164.187685 
L 267.7023 152.140719 
L 270.921833 139.705435 
L 272.867097 127.010808 
L 273.518182 114.176935 
" style="fill:none;stroke:#d62728;stroke-linecap:square;stroke-width:1.5;"/>
   </g>
   <g id="legend_1">
    <g id="patch_2">
     <path d="M 211.032812 44.55625 
L 279.2 44.55625 
Q 281.2 44.55625 281.2 42.55625 
L 281.2 14.2 
Q 281.2 12.2 279.2 12.2 
L 211.032812 12.2 
Q 209.032812 12.2 209.032812 14.2 
L 209.032812 42.55625 
Q 209.032812 44.55625 211.032812 44.55625 
z
" style="fill:#ffffff;opacity:0.8;stroke:#cccccc;stroke-linejoin:miter;"/>
    </g>
    <g id="line2d_5">
     <path d="M 213.032812 20.298437 
L 233.032812 20.298437 
" style="fill:none;stroke:#2ca02c;stroke-linecap:square;stroke-width:1.5;"/>
    </g>
    <g id="line2d_6"/>
    <g id="text_1">
     <!-- top -->
     <defs>
      <path d="M 18.3125 70.21875 
L 18.3125 54.6875 
L 36.8125 54.6875 
L 36.8125 47.703125 
L 18.3125 47.703125 
L 18.3125 18.015625 
Q 18.3125 11.328125 20.140625 9.421875 
Q 21.96875 7.515625 27.59375 7.515625 
L 36.8125 7.515625 
L 36.8125 0 
L 27.59375 0 
Q 17.1875 0 13.234375 3.875 
Q 9.28125 7.765625 9.28125 18.015625 
L 9.28125 47.703125 
L 2.6875 47.703125 
L 2.6875 54.6875 
L 9.28125 54.6875 
L 9.28125 70.21875 
z
" id="DejaVuSans-116"/>
      <path d="M 30.609375 48.390625 
Q 23.390625 48.390625 19.1875 42.75 
Q 14.984375 37.109375 14.984375 27.296875 
Q 14.984375 17.484375 19.15625 11.84375 
Q 23.34375 6.203125 30.609375 6.203125 
Q 37.796875 6.203125 41.984375 11.859375 
Q 46.1875 17.53125 46.1875 27.296875 
Q 46.1875 37.015625 41.984375 42.703125 
Q 37.796875 48.390625 30.609375 48.390625 
z
M 30.609375 56 
Q 42.328125 56 49.015625 48.375 
Q 55.71875 40.765625 55.71875 27.296875 
Q 55.71875 13.875 49.015625 6.21875 
Q 42.328125 -1.421875 30.609375 -1.421875 
Q 18.84375 -1.421875 12.171875 6.21875 
Q 5.515625 13.875 5.515625 27.296875 
Q 5.515625 40.765625 12.171875 48.375 
Q 18.84375 56 30.609375 56 
z
" id="DejaVuSans-111"/>
      <path d="M 18.109375 8.203125 
L 18.109375 -20.796875 
L 9.078125 -20.796875 
L 9.078125 54.6875 
L 18.109375 54.6875 
L 18.109375 46.390625 
Q 20.953125 51.265625 25.265625 53.625 
Q 29.59375 56 35.59375 56 
Q 45.5625 56 51.78125 48.09375 
Q 58.015625 40.1875 58.015625 27.296875 
Q 58.015625 14.40625 51.78125 6.484375 
Q 45.5625 -1.421875 35.59375 -1.421875 
Q 29.59375 -1.421875 25.265625 0.953125 
Q 20.953125 3.328125 18.109375 8.203125 
z
M 48.6875 27.296875 
Q 48.6875 37.203125 44.609375 42.84375 
Q 40.53125 48.484375 33.40625 48.484375 
Q 26.265625 48.484375 22.1875 42.84375 
Q 18.109375 37.203125 18.109375 27.296875 
Q 18.109375 17.390625 22.1875 11.75 
Q 26.265625 6.109375 33.40625 6.109375 
Q 40.53125 6.109375 44.609375 11.75 
Q 48.6875 17.390625 48.6875 27.296875 
z
" id="DejaVuSans-112"/>
     </defs>
     <g transform="translate(241.032812 23.798437)scale(0.1 -0.1)">
      <use xlink:href="#DejaVuSans-116"/>
      <use x="39.208984" xlink:href="#DejaVuSans-111"/>
      <use x="100.390625" xlink:href="#DejaVuSans-112"/>
     </g>
    </g>
    <g id="line2d_7">
     <path d="M 213.032812 34.976562 
L 233.032812 34.976562 
" style="fill:none;stroke:#d62728;stroke-linecap:square;stroke-width:1.5;"/>
    </g>
    <g id="line2d_8"/>
    <g id="text_2">
     <!-- bottom -->
     <defs>
      <path d="M 48.6875 27.296875 
Q 48.6875 37.203125 44.609375 42.84375 
Q 40.53125 48.484375 33.40625 48.484375 
Q 26.265625 48.484375 22.1875 42.84375 
Q 18.109375 37.203125 18.109375 27.296875 
Q 18.109375 17.390625 22.1875 11.75 
Q 26.265625 6.109375 33.40625 6.109375 
Q 40.53125 6.109375 44.609375 11.75 
Q 48.6875 17.390625 48.6875 27.296875 
z
M 18.109375 46.390625 
Q 20.953125 51.265625 25.265625 53.625 
Q 29.59375 56 35.59375 56 
Q 45.5625 56 51.78125 48.09375 
Q 58.015625 40.1875 58.015625 27.296875 
Q 58.015625 14.40625 51.78125 6.484375 
Q 45.5625 -1.421875 35.59375 -1.421875 
Q 29.59375 -1.421875 25.265625 0.953125 
Q 20.953125 3.328125 18.109375 8.203125 
L 18.109375 0 
L 9.078125 0 
L 9.078125 75.984375 
L 18.109375 75.984375 
z
" id="DejaVuSans-98"/>
      <path d="M 52 44.1875 
Q 55.375 50.25 60.0625 53.125 
Q 64.75 56 71.09375 56 
Q 79.640625 56 84.28125 50.015625 
Q 88.921875 44.046875 88.921875 33.015625 
L 88.921875 0 
L 79.890625 0 
L 79.890625 32.71875 
Q 79.890625 40.578125 77.09375 44.375 
Q 74.3125 48.1875 68.609375 48.1875 
Q 61.625 48.1875 57.5625 43.546875 
Q 53.515625 38.921875 53.515625 30.90625 
L 53.515625 0 
L 44.484375 0 
L 44.484375 32.71875 
Q 44.484375 40.625 41.703125 44.40625 
Q 38.921875 48.1875 33.109375 48.1875 
Q 26.21875 48.1875 22.15625 43.53125 
Q 18.109375 38.875 18.109375 30.90625 
L 18.109375 0 
L 9.078125 0 
L 9.078125 54.6875 
L 18.109375 54.6875 
L 18.109375 46.1875 
Q 21.1875 51.21875 25.484375 53.609375 
Q 29.78125 56 35.6875 56 
Q 41.65625 56 45.828125 52.96875 
Q 50 49.953125 52 44.1875 
z
" id="DejaVuSans-109"/>
     </defs>
     <g transform="translate(241.032812 38.476562)scale(0.1 -0.1)">
      <use xlink:href="#DejaVuSans-98"/>
      <use x="63.476562" xlink:href="#DejaVuSans-111"/>
      <use x="124.658203" xlink:href="#DejaVuSans-116"/>
      <use x="163.867188" xlink:href="#DejaVuSans-116"/>
      <use x="203.076172" xlink:href="#DejaVuSans-111"/>
      <use x="264.257812" xlink:href="#DejaVuSans-109"/>
     </g>
    </g>
   </g>
  </g>
 </g>
 <defs>
  <clipPath id="p57a46a4d1d">
   <rect height="277.2" width="279" x="7.2" y="7.2"/>
  </clipPath>
 </defs>
</svg>
