<?xml version="1.0" encoding="utf-8" standalone="no"?>
<!DOCTYPE svg PUBLIC "-//W3C//DTD SVG 1.1//EN"
  "http://www.w3.org/Graphics/SVG/1.1/DTD/svg11.dtd">
<!-- Created with matplotlib (https://matplotlib.org/) -->
<svg height="331.750125pt" version="1.1" viewBox="0 0 410.754375 331.750125" width="410.754375pt" xmlns="http://www.w3.org/2000/svg" xmlns:xlink="http://www.w3.org/1999/xlink">
 <defs>
  <style type="text/css">
*{stroke-linecap:butt;stroke-linejoin:round;}
  </style>
 </defs>
 <g id="figure_1">
  <g id="patch_1">
   <path d="M 0 331.750125 
L 410.754375 331.750125 
L 410.754375 0 
L 0 0 
z
" style="fill:#ffffff;"/>
  </g>
  <g id="axes_1">
   <g id="PathCollection_1">
    <path clip-path="url(#pc531998f9e)" d="M 38.482813 154.757647 
L 45.485169 154.757647 
L 52.487483 154.757647 
L 59.489871 154.757647 
L 66.492259 154.757647 
L 73.494542 154.757647 
L 80.49693 154.757647 
L 87.499318 154.757647 
L 94.501601 154.757647 
L 101.503989 154.757647 
L 108.506377 154.757647 
L 115.50866 154.757647 
L 122.511048 154.757647 
L 129.513436 154.757647 
L 136.515719 154.757647 
L 143.518107 154.757647 
L 143.518107 147.755291 
L 143.518107 140.752976 
L 143.518107 133.750588 
L 143.518107 126.7482 
L 143.518107 119.745917 
L 143.518107 112.743529 
L 143.518107 105.741141 
L 143.518107 98.738859 
L 143.518107 91.736471 
L 143.518107 84.734083 
L 143.518107 77.7318 
L 143.518107 70.729412 
L 143.518107 63.727024 
L 143.518107 56.724741 
L 143.518107 49.722353 
L 136.515719 49.722353 
L 129.513436 49.722353 
L 122.511048 49.722353 
L 115.50866 49.722353 
L 108.506377 49.722353 
L 101.503989 49.722353 
L 94.501601 49.722353 
L 87.499318 49.722353 
L 80.49693 49.722353 
L 73.494542 49.722353 
L 66.492259 49.722353 
L 59.489871 49.722353 
L 52.487483 49.722353 
L 45.485169 49.722353 
L 38.482813 49.722353 
L 38.482813 56.724741 
L 38.482813 63.727024 
L 38.482813 70.729412 
L 38.482813 77.7318 
L 38.482813 84.734083 
L 38.482813 91.736471 
L 38.482813 98.738859 
L 38.482813 105.741141 
L 38.482813 112.743529 
L 38.482813 119.745917 
L 38.482813 126.7482 
L 38.482813 133.750588 
L 38.482813 140.752976 
L 38.482813 147.755291 
M 73.073285 134.171852 
L 72.775113 133.750588 
L 68.085321 132.157503 
L 66.492259 129.593693 
L 64.475768 128.764692 
L 63.646767 126.7482 
L 61.082957 125.155139 
L 59.489871 120.465346 
L 59.068608 120.167175 
L 58.968017 119.745917 
L 56.020538 116.212863 
L 55.409633 112.743529 
L 54.618931 110.612081 
L 54.142623 105.741141 
L 54.142623 104.086027 
L 54.142623 98.738859 
L 54.842041 96.3843 
L 55.409633 91.736471 
L 58.770439 85.453515 
L 58.968017 84.734083 
L 59.489871 84.014654 
L 63.646767 77.7318 
L 66.492259 74.886307 
L 72.775113 70.729412 
L 73.494542 70.207557 
L 74.213974 70.00998 
L 80.49693 66.649174 
L 85.14476 66.081582 
L 87.499318 65.382163 
L 92.846487 65.382163 
L 94.501601 65.382163 
L 99.372541 65.858472 
L 101.503989 66.649174 
L 104.973322 67.260078 
L 108.506377 70.207557 
L 108.927634 70.308148 
L 109.225806 70.729412 
L 113.915598 72.322497 
L 115.50866 74.886307 
L 117.525151 75.715308 
L 118.354152 77.7318 
L 120.917963 79.324861 
L 122.511048 84.014654 
L 122.932312 84.312825 
L 123.032902 84.734083 
L 125.980381 88.267137 
L 126.591286 91.736471 
L 127.381988 93.867919 
L 127.858296 98.738859 
L 127.858296 100.393973 
L 127.858296 105.741141 
L 127.158878 108.0957 
L 126.591286 112.743529 
L 123.23048 119.026485 
L 123.032902 119.745917 
L 122.511048 120.465346 
L 118.354152 126.7482 
L 115.50866 129.593693 
L 109.225806 133.750588 
L 108.506377 134.272443 
L 107.786945 134.47002 
L 101.503989 137.830826 
L 96.856159 138.398418 
L 94.501601 139.097837 
L 89.154433 139.097837 
L 87.499318 139.097837 
L 82.628378 138.621528 
L 80.49693 137.830826 
L 77.027597 137.219922 
L 73.494542 134.272443 
" style="fill:#481b6d;"/>
   </g>
   <g id="PathCollection_2">
    <path clip-path="url(#pc531998f9e)" d="M 73.494542 134.272443 
L 77.027597 137.219922 
L 80.49693 137.830826 
L 82.628378 138.621528 
L 87.499318 139.097837 
L 89.154433 139.097837 
L 94.501601 139.097837 
L 96.856159 138.398418 
L 101.503989 137.830826 
L 107.786945 134.47002 
L 108.506377 134.272443 
L 109.225806 133.750588 
L 115.50866 129.593693 
L 118.354152 126.7482 
L 122.511048 120.465346 
L 123.032902 119.745917 
L 123.23048 119.026485 
L 126.591286 112.743529 
L 127.158878 108.0957 
L 127.858296 105.741141 
L 127.858296 100.393973 
L 127.858296 98.738859 
L 127.381988 93.867919 
L 126.591286 91.736471 
L 125.980381 88.267137 
L 123.032902 84.734083 
L 122.932312 84.312825 
L 122.511048 84.014654 
L 120.917963 79.324861 
L 118.354152 77.7318 
L 117.525151 75.715308 
L 115.50866 74.886307 
L 113.915598 72.322497 
L 109.225806 70.729412 
L 108.927634 70.308148 
L 108.506377 70.207557 
L 104.973322 67.260078 
L 101.503989 66.649174 
L 99.372541 65.858472 
L 94.501601 65.382163 
L 92.846487 65.382163 
L 87.499318 65.382163 
L 85.14476 66.081582 
L 80.49693 66.649174 
L 74.213974 70.00998 
L 73.494542 70.207557 
L 72.775113 70.729412 
L 66.492259 74.886307 
L 63.646767 77.7318 
L 59.489871 84.014654 
L 58.968017 84.734083 
L 58.770439 85.453515 
L 55.409633 91.736471 
L 54.842041 96.3843 
L 54.142623 98.738859 
L 54.142623 104.086027 
L 54.142623 105.741141 
L 54.618931 110.612081 
L 55.409633 112.743529 
L 56.020538 116.212863 
L 58.968017 119.745917 
L 59.068608 120.167175 
L 59.489871 120.465346 
L 61.082957 125.155139 
L 63.646767 126.7482 
L 64.475768 128.764692 
L 66.492259 129.593693 
L 68.085321 132.157503 
L 72.775113 133.750588 
L 73.073285 134.171852 
M 85.43323 128.814288 
L 80.543942 126.7482 
L 80.505097 126.740033 
L 80.49693 126.735856 
L 75.426592 124.816179 
L 73.494542 122.594111 
L 71.612585 121.627875 
L 70.646349 119.745917 
L 68.42428 117.813867 
L 66.504603 112.743529 
L 66.500426 112.735362 
L 66.492259 112.696517 
L 64.426171 107.80723 
L 64.138762 105.741141 
L 64.138762 101.09232 
L 64.138762 98.738859 
L 66.492259 91.783483 
L 66.504603 91.736471 
L 66.539273 91.689456 
L 70.646349 84.734083 
L 73.494542 81.885889 
L 80.449916 77.778813 
L 80.49693 77.744144 
L 80.543942 77.7318 
L 87.499318 75.378302 
L 89.85278 75.378302 
L 94.501601 75.378302 
L 96.567689 75.665712 
L 101.456977 77.7318 
L 101.495822 77.739967 
L 101.503989 77.744144 
L 106.574327 79.663821 
L 108.506377 81.885889 
L 110.388335 82.852125 
L 111.35457 84.734083 
L 113.576639 86.666133 
L 115.496316 91.736471 
L 115.500493 91.744638 
L 115.50866 91.783483 
L 117.574748 96.67277 
L 117.862157 98.738859 
L 117.862157 103.38768 
L 117.862157 105.741141 
L 115.50866 112.696517 
L 115.496316 112.743529 
L 115.461646 112.790544 
L 111.35457 119.745917 
L 108.506377 122.594111 
L 101.551003 126.701187 
L 101.503989 126.735856 
L 101.456977 126.7482 
L 94.501601 129.101698 
L 92.148139 129.101698 
L 87.499318 129.101698 
" style="fill:#3f4788;"/>
   </g>
   <g id="PathCollection_3">
    <path clip-path="url(#pc531998f9e)" d="M 87.499318 129.101698 
L 92.148139 129.101698 
L 94.501601 129.101698 
L 101.456977 126.7482 
L 101.503989 126.735856 
L 101.551003 126.701187 
L 108.506377 122.594111 
L 111.35457 119.745917 
L 115.461646 112.790544 
L 115.496316 112.743529 
L 115.50866 112.696517 
L 117.862157 105.741141 
L 117.862157 103.38768 
L 117.862157 98.738859 
L 117.574748 96.67277 
L 115.50866 91.783483 
L 115.500493 91.744638 
L 115.496316 91.736471 
L 113.576639 86.666133 
L 111.35457 84.734083 
L 110.388335 82.852125 
L 108.506377 81.885889 
L 106.574327 79.663821 
L 101.503989 77.744144 
L 101.495822 77.739967 
L 101.456977 77.7318 
L 96.567689 75.665712 
L 94.501601 75.378302 
L 89.85278 75.378302 
L 87.499318 75.378302 
L 80.543942 77.7318 
L 80.49693 77.744144 
L 80.449916 77.778813 
L 73.494542 81.885889 
L 70.646349 84.734083 
L 66.539273 91.689456 
L 66.504603 91.736471 
L 66.492259 91.783483 
L 64.138762 98.738859 
L 64.138762 101.09232 
L 64.138762 105.741141 
L 64.426171 107.80723 
L 66.492259 112.696517 
L 66.500426 112.735362 
L 66.504603 112.743529 
L 68.42428 117.813867 
L 70.646349 119.745917 
L 71.612585 121.627875 
L 73.494542 122.594111 
L 75.426592 124.816179 
L 80.49693 126.735856 
L 80.505097 126.740033 
L 80.543942 126.7482 
L 85.43323 128.814288 
M 79.452918 120.789914 
L 78.545181 119.745917 
L 75.467735 117.772725 
L 73.494542 114.695279 
L 72.450546 113.787542 
L 72.055273 112.743529 
L 70.172897 109.062836 
L 69.474505 105.741141 
L 69.474505 102.758896 
L 69.474505 98.738859 
L 71.542787 93.688255 
L 72.055273 91.736471 
L 73.494542 89.784721 
L 78.545181 84.734083 
L 80.49693 83.294813 
L 82.448714 82.782328 
L 87.499318 80.714046 
L 91.519355 80.714046 
L 94.501601 80.714046 
L 97.823296 81.412438 
L 101.503989 83.294813 
L 102.548001 83.690086 
L 103.455738 84.734083 
L 106.533184 86.707275 
L 108.506377 89.784721 
L 109.550374 90.692458 
L 109.945646 91.736471 
L 111.828022 95.417164 
L 112.526414 98.738859 
L 112.526414 101.721104 
L 112.526414 105.741141 
L 110.458132 110.791745 
L 109.945646 112.743529 
L 108.506377 114.695279 
L 103.455738 119.745917 
L 101.503989 121.185187 
L 99.552205 121.697672 
L 94.501601 123.765954 
L 90.481564 123.765954 
L 87.499318 123.765954 
L 84.177623 123.067562 
L 80.49693 121.185187 
" style="fill:#2e6e8e;"/>
   </g>
   <g id="PathCollection_4">
    <path clip-path="url(#pc531998f9e)" d="M 80.49693 121.185187 
L 84.177623 123.067562 
L 87.499318 123.765954 
L 90.481564 123.765954 
L 94.501601 123.765954 
L 99.552205 121.697672 
L 101.503989 121.185187 
L 103.455738 119.745917 
L 108.506377 114.695279 
L 109.945646 112.743529 
L 110.458132 110.791745 
L 112.526414 105.741141 
L 112.526414 101.721104 
L 112.526414 98.738859 
L 111.828022 95.417164 
L 109.945646 91.736471 
L 109.550374 90.692458 
L 108.506377 89.784721 
L 106.533184 86.707275 
L 103.455738 84.734083 
L 102.548001 83.690086 
L 101.503989 83.294813 
L 97.823296 81.412438 
L 94.501601 80.714046 
L 91.519355 80.714046 
L 87.499318 80.714046 
L 82.448714 82.782328 
L 80.49693 83.294813 
L 78.545181 84.734083 
L 73.494542 89.784721 
L 72.055273 91.736471 
L 71.542787 93.688255 
L 69.474505 98.738859 
L 69.474505 102.758896 
L 69.474505 105.741141 
L 70.172897 109.062836 
L 72.055273 112.743529 
L 72.450546 113.787542 
L 73.494542 114.695279 
L 75.467735 117.772725 
L 78.545181 119.745917 
L 79.452918 120.789914 
M 78.408433 114.832026 
L 77.069334 112.743529 
L 75.605408 110.632664 
L 73.863715 105.741141 
L 73.863715 105.371974 
L 73.863715 98.738859 
L 74.324753 97.908647 
L 77.069334 91.736471 
L 80.49693 88.308874 
L 86.669107 85.564294 
L 87.499318 85.103255 
L 94.132434 85.103255 
L 94.501601 85.103255 
L 99.393124 86.844948 
L 101.503989 88.308874 
L 103.592486 89.647974 
L 104.931586 91.736471 
L 106.395511 93.847336 
L 108.137204 98.738859 
L 108.137204 99.108026 
L 108.137204 105.741141 
L 107.676166 106.571353 
L 104.931586 112.743529 
L 101.503989 116.171126 
L 95.331812 118.915706 
L 94.501601 119.376745 
L 87.868485 119.376745 
L 87.499318 119.376745 
L 82.607796 117.635052 
L 80.49693 116.171126 
" style="fill:#21918c;"/>
   </g>
   <g id="PathCollection_5">
    <path clip-path="url(#pc531998f9e)" d="M 80.49693 116.171126 
L 82.607796 117.635052 
L 87.499318 119.376745 
L 87.868485 119.376745 
L 94.501601 119.376745 
L 95.331812 118.915706 
L 101.503989 116.171126 
L 104.931586 112.743529 
L 107.676166 106.571353 
L 108.137204 105.741141 
L 108.137204 99.108026 
L 108.137204 98.738859 
L 106.395511 93.847336 
L 104.931586 91.736471 
L 103.592486 89.647974 
L 101.503989 88.308874 
L 99.393124 86.844948 
L 94.501601 85.103255 
L 94.132434 85.103255 
L 87.499318 85.103255 
L 86.669107 85.564294 
L 80.49693 88.308874 
L 77.069334 91.736471 
L 74.324753 97.908647 
L 73.863715 98.738859 
L 73.863715 105.371974 
L 73.863715 105.741141 
L 75.605408 110.632664 
L 77.069334 112.743529 
L 78.408433 114.832026 
M 85.457607 114.78524 
L 82.513622 112.743529 
L 81.393696 111.846763 
L 80.49693 110.726837 
L 78.45522 107.782852 
L 77.728241 105.741141 
L 77.728241 101.507506 
L 77.728241 98.738859 
L 80.49693 93.753163 
L 82.513622 91.736471 
L 87.499318 88.967781 
L 90.267966 88.967781 
L 94.501601 88.967781 
L 96.543312 89.69476 
L 99.487297 91.736471 
L 100.607223 92.633237 
L 101.503989 93.753163 
L 103.5457 96.697148 
L 104.272678 98.738859 
L 104.272678 102.972494 
L 104.272678 105.741141 
L 101.503989 110.726837 
L 99.487297 112.743529 
L 94.501601 115.512219 
L 91.732953 115.512219 
L 87.499318 115.512219 
" style="fill:#2db27d;"/>
   </g>
   <g id="PathCollection_6">
    <path clip-path="url(#pc531998f9e)" d="M 87.499318 115.512219 
L 91.732953 115.512219 
L 94.501601 115.512219 
L 99.487297 112.743529 
L 101.503989 110.726837 
L 104.272678 105.741141 
L 104.272678 102.972494 
L 104.272678 98.738859 
L 103.5457 96.697148 
L 101.503989 93.753163 
L 100.607223 92.633237 
L 99.487297 91.736471 
L 96.543312 89.69476 
L 94.501601 88.967781 
L 90.267966 88.967781 
L 87.499318 88.967781 
L 82.513622 91.736471 
L 80.49693 93.753163 
L 77.728241 98.738859 
L 77.728241 101.507506 
L 77.728241 105.741141 
L 78.45522 107.782852 
L 80.49693 110.726837 
L 81.393696 111.846763 
L 82.513622 112.743529 
L 85.457607 114.78524 
M 84.488174 108.752285 
L 82.07704 105.741141 
L 82.07704 104.161055 
L 82.07704 98.738859 
L 87.499318 93.31658 
L 92.921515 93.31658 
L 94.501601 93.31658 
L 97.512745 95.727715 
L 99.923879 98.738859 
L 99.923879 100.318945 
L 99.923879 105.741141 
L 94.501601 111.16342 
L 89.079404 111.16342 
L 87.499318 111.16342 
" style="fill:#73d056;"/>
   </g>
   <g id="PathCollection_7">
    <path clip-path="url(#pc531998f9e)" d="M 87.499318 111.16342 
L 89.079404 111.16342 
L 94.501601 111.16342 
L 99.923879 105.741141 
L 99.923879 100.318945 
L 99.923879 98.738859 
L 97.512745 95.727715 
L 94.501601 93.31658 
L 92.921515 93.31658 
L 87.499318 93.31658 
L 82.07704 98.738859 
L 82.07704 104.161055 
L 82.07704 105.741141 
L 84.488174 108.752285 
" style="fill:#d0e11c;"/>
   </g>
   <g id="text_1">
    <!-- Diffusivity -->
    <defs>
     <path d="M 19.671875 64.796875 
L 19.671875 8.109375 
L 31.59375 8.109375 
Q 46.6875 8.109375 53.6875 14.9375 
Q 60.6875 21.78125 60.6875 36.53125 
Q 60.6875 51.171875 53.6875 57.984375 
Q 46.6875 64.796875 31.59375 64.796875 
z
M 9.8125 72.90625 
L 30.078125 72.90625 
Q 51.265625 72.90625 61.171875 64.09375 
Q 71.09375 55.28125 71.09375 36.53125 
Q 71.09375 17.671875 61.125 8.828125 
Q 51.171875 0 30.078125 0 
L 9.8125 0 
z
" id="DejaVuSans-68"/>
     <path d="M 9.421875 54.6875 
L 18.40625 54.6875 
L 18.40625 0 
L 9.421875 0 
z
M 9.421875 75.984375 
L 18.40625 75.984375 
L 18.40625 64.59375 
L 9.421875 64.59375 
z
" id="DejaVuSans-105"/>
     <path d="M 37.109375 75.984375 
L 37.109375 68.5 
L 28.515625 68.5 
Q 23.6875 68.5 21.796875 66.546875 
Q 19.921875 64.59375 19.921875 59.515625 
L 19.921875 54.6875 
L 34.71875 54.6875 
L 34.71875 47.703125 
L 19.921875 47.703125 
L 19.921875 0 
L 10.890625 0 
L 10.890625 47.703125 
L 2.296875 47.703125 
L 2.296875 54.6875 
L 10.890625 54.6875 
L 10.890625 58.5 
Q 10.890625 67.625 15.140625 71.796875 
Q 19.390625 75.984375 28.609375 75.984375 
z
" id="DejaVuSans-102"/>
     <path d="M 8.5 21.578125 
L 8.5 54.6875 
L 17.484375 54.6875 
L 17.484375 21.921875 
Q 17.484375 14.15625 20.5 10.265625 
Q 23.53125 6.390625 29.59375 6.390625 
Q 36.859375 6.390625 41.078125 11.03125 
Q 45.3125 15.671875 45.3125 23.6875 
L 45.3125 54.6875 
L 54.296875 54.6875 
L 54.296875 0 
L 45.3125 0 
L 45.3125 8.40625 
Q 42.046875 3.421875 37.71875 1 
Q 33.40625 -1.421875 27.6875 -1.421875 
Q 18.265625 -1.421875 13.375 4.4375 
Q 8.5 10.296875 8.5 21.578125 
z
M 31.109375 56 
z
" id="DejaVuSans-117"/>
     <path d="M 44.28125 53.078125 
L 44.28125 44.578125 
Q 40.484375 46.53125 36.375 47.5 
Q 32.28125 48.484375 27.875 48.484375 
Q 21.1875 48.484375 17.84375 46.4375 
Q 14.5 44.390625 14.5 40.28125 
Q 14.5 37.15625 16.890625 35.375 
Q 19.28125 33.59375 26.515625 31.984375 
L 29.59375 31.296875 
Q 39.15625 29.25 43.1875 25.515625 
Q 47.21875 21.78125 47.21875 15.09375 
Q 47.21875 7.46875 41.1875 3.015625 
Q 35.15625 -1.421875 24.609375 -1.421875 
Q 20.21875 -1.421875 15.453125 -0.5625 
Q 10.6875 0.296875 5.421875 2 
L 5.421875 11.28125 
Q 10.40625 8.6875 15.234375 7.390625 
Q 20.0625 6.109375 24.8125 6.109375 
Q 31.15625 6.109375 34.5625 8.28125 
Q 37.984375 10.453125 37.984375 14.40625 
Q 37.984375 18.0625 35.515625 20.015625 
Q 33.0625 21.96875 24.703125 23.78125 
L 21.578125 24.515625 
Q 13.234375 26.265625 9.515625 29.90625 
Q 5.8125 33.546875 5.8125 39.890625 
Q 5.8125 47.609375 11.28125 51.796875 
Q 16.75 56 26.8125 56 
Q 31.78125 56 36.171875 55.265625 
Q 40.578125 54.546875 44.28125 53.078125 
z
" id="DejaVuSans-115"/>
     <path d="M 2.984375 54.6875 
L 12.5 54.6875 
L 29.59375 8.796875 
L 46.6875 54.6875 
L 56.203125 54.6875 
L 35.6875 0 
L 23.484375 0 
z
" id="DejaVuSans-118"/>
     <path d="M 18.3125 70.21875 
L 18.3125 54.6875 
L 36.8125 54.6875 
L 36.8125 47.703125 
L 18.3125 47.703125 
L 18.3125 18.015625 
Q 18.3125 11.328125 20.140625 9.421875 
Q 21.96875 7.515625 27.59375 7.515625 
L 36.8125 7.515625 
L 36.8125 0 
L 27.59375 0 
Q 17.1875 0 13.234375 3.875 
Q 9.28125 7.765625 9.28125 18.015625 
L 9.28125 47.703125 
L 2.6875 47.703125 
L 2.6875 54.6875 
L 9.28125 54.6875 
L 9.28125 70.21875 
z
" id="DejaVuSans-116"/>
     <path d="M 32.171875 -5.078125 
Q 28.375 -14.84375 24.75 -17.8125 
Q 21.140625 -20.796875 15.09375 -20.796875 
L 7.90625 -20.796875 
L 7.90625 -13.28125 
L 13.1875 -13.28125 
Q 16.890625 -13.28125 18.9375 -11.515625 
Q 21 -9.765625 23.484375 -3.21875 
L 25.09375 0.875 
L 2.984375 54.6875 
L 12.5 54.6875 
L 29.59375 11.921875 
L 46.6875 54.6875 
L 56.203125 54.6875 
z
" id="DejaVuSans-121"/>
    </defs>
    <g transform="translate(60.772647 35.76)scale(0.12 -0.12)">
     <use xlink:href="#DejaVuSans-68"/>
     <use x="77.001953" xlink:href="#DejaVuSans-105"/>
     <use x="104.785156" xlink:href="#DejaVuSans-102"/>
     <use x="139.990234" xlink:href="#DejaVuSans-102"/>
     <use x="175.195312" xlink:href="#DejaVuSans-117"/>
     <use x="238.574219" xlink:href="#DejaVuSans-115"/>
     <use x="290.673828" xlink:href="#DejaVuSans-105"/>
     <use x="318.457031" xlink:href="#DejaVuSans-118"/>
     <use x="377.636719" xlink:href="#DejaVuSans-105"/>
     <use x="405.419922" xlink:href="#DejaVuSans-116"/>
     <use x="444.628906" xlink:href="#DejaVuSans-121"/>
    </g>
   </g>
  </g>
  <g id="axes_2">
   <g id="PathCollection_8">
    <path clip-path="url(#pcbc6e9ae27)" d="M 164.525165 105.741141 
L 171.527522 103.407047 
L 173.861627 103.407047 
L 176.195732 105.741141 
L 176.195732 108.075271 
L 178.529836 108.075271 
L 185.532224 105.741141 
L 182.03103 112.743529 
L 184.754181 113.521573 
L 185.532224 113.910594 
L 191.898031 113.38011 
L 192.534612 113.743871 
L 199.536895 112.743529 
L 206.539283 112.743529 
L 213.541671 108.075271 
L 214.541997 105.741141 
L 220.543954 101.539772 
L 224.045148 98.738859 
L 225.212213 94.0706 
L 224.745387 91.736471 
L 223.544977 88.735447 
L 224.045148 84.734083 
L 227.546342 79.132256 
L 230.092665 82.187798 
L 234.54873 83.17802 
L 241.551013 77.7318 
L 248.553401 75.39767 
L 250.109487 76.175714 
L 255.555789 77.7318 
L 262.558072 77.7318 
L 269.56046 77.7318 
L 269.56046 70.729412 
L 269.56046 63.727024 
L 269.56046 56.724741 
L 269.56046 49.722353 
L 262.558072 49.722353 
L 255.555789 49.722353 
L 248.553401 49.722353 
L 241.551013 49.722353 
L 234.54873 49.722353 
L 227.546342 49.722353 
L 220.543954 49.722353 
L 213.541671 49.722353 
L 206.539283 49.722353 
L 199.536895 49.722353 
L 192.534612 49.722353 
L 185.532224 49.722353 
L 178.529836 49.722353 
L 171.527522 49.722353 
L 164.525165 49.722353 
L 164.525165 56.724741 
L 164.525165 63.727024 
L 164.525165 70.729412 
L 164.525165 77.7318 
L 164.525165 84.734083 
L 164.525165 91.736471 
L 164.525165 98.738859 
" style="fill:#3b528b;"/>
   </g>
   <g id="PathCollection_9">
    <path clip-path="url(#pcbc6e9ae27)" d="M 269.56046 77.7318 
L 262.558072 77.7318 
L 255.555789 77.7318 
L 250.109487 76.175714 
L 248.553401 75.39767 
L 241.551013 77.7318 
L 234.54873 83.17802 
L 230.092665 82.187798 
L 227.546342 79.132256 
L 224.045148 84.734083 
L 223.544977 88.735447 
L 224.745387 91.736471 
L 225.212213 94.0706 
L 224.045148 98.738859 
L 220.543954 101.539772 
L 214.541997 105.741141 
L 213.541671 108.075271 
L 206.539283 112.743529 
L 199.536895 112.743529 
L 192.534612 113.743871 
L 191.898031 113.38011 
L 185.532224 113.910594 
L 184.754181 113.521573 
L 182.03103 112.743529 
L 185.532224 105.741141 
L 178.529836 108.075271 
L 176.195732 108.075271 
L 176.195732 105.741141 
L 173.861627 103.407047 
L 171.527522 103.407047 
L 164.525165 105.741141 
L 164.525165 112.743529 
L 164.525165 119.745917 
L 164.525165 126.7482 
L 164.525165 133.750588 
L 164.525165 140.752976 
L 164.525165 147.755291 
L 164.525165 154.757647 
L 171.527522 154.757647 
L 178.529836 154.757647 
L 185.532224 154.757647 
L 192.534612 154.757647 
L 199.536895 154.757647 
L 206.539283 154.757647 
L 213.541671 154.757647 
L 220.543954 154.757647 
L 227.546342 154.757647 
L 234.54873 154.757647 
L 241.551013 154.757647 
L 248.553401 154.757647 
L 255.555789 154.757647 
L 262.558072 154.757647 
L 269.56046 154.757647 
L 269.56046 147.755291 
L 269.56046 140.752976 
L 269.56046 133.750588 
L 269.56046 126.7482 
L 269.56046 119.745917 
L 269.56046 112.743529 
L 269.56046 105.741141 
L 269.56046 98.738859 
L 269.56046 91.736471 
L 269.56046 84.734083 
" style="fill:#5ec962;"/>
   </g>
   <g id="text_2">
    <!-- $\sigma=$-0.0 -->
    <defs>
     <path d="M 34.671875 47.5625 
Q 27.25 47.5625 22.21875 42.1875 
Q 16.890625 36.578125 15.140625 27.296875 
Q 13.1875 17.484375 16.3125 11.8125 
Q 19.390625 6.203125 26.65625 6.203125 
Q 33.84375 6.203125 39.109375 11.859375 
Q 44.4375 17.53125 46.34375 27.296875 
Q 48.046875 36.234375 45.015625 42.1875 
Q 42.1875 47.5625 34.671875 47.5625 
z
M 36.078125 54.734375 
L 65.921875 54.6875 
L 64.15625 45.703125 
L 54.109375 45.703125 
Q 57.90625 38.09375 55.859375 27.296875 
Q 53.21875 13.875 45.0625 6.25 
Q 36.859375 -1.421875 25.140625 -1.421875 
Q 13.375 -1.421875 8.203125 6.25 
Q 3.03125 13.875 5.671875 27.296875 
Q 8.25 40.765625 16.40625 48.390625 
Q 23.1875 54.734375 36.078125 54.734375 
z
" id="DejaVuSans-Oblique-963"/>
     <path d="M 10.59375 45.40625 
L 73.1875 45.40625 
L 73.1875 37.203125 
L 10.59375 37.203125 
z
M 10.59375 25.484375 
L 73.1875 25.484375 
L 73.1875 17.1875 
L 10.59375 17.1875 
z
" id="DejaVuSans-61"/>
     <path d="M 4.890625 31.390625 
L 31.203125 31.390625 
L 31.203125 23.390625 
L 4.890625 23.390625 
z
" id="DejaVuSans-45"/>
     <path d="M 31.78125 66.40625 
Q 24.171875 66.40625 20.328125 58.90625 
Q 16.5 51.421875 16.5 36.375 
Q 16.5 21.390625 20.328125 13.890625 
Q 24.171875 6.390625 31.78125 6.390625 
Q 39.453125 6.390625 43.28125 13.890625 
Q 47.125 21.390625 47.125 36.375 
Q 47.125 51.421875 43.28125 58.90625 
Q 39.453125 66.40625 31.78125 66.40625 
z
M 31.78125 74.21875 
Q 44.046875 74.21875 50.515625 64.515625 
Q 56.984375 54.828125 56.984375 36.375 
Q 56.984375 17.96875 50.515625 8.265625 
Q 44.046875 -1.421875 31.78125 -1.421875 
Q 19.53125 -1.421875 13.0625 8.265625 
Q 6.59375 17.96875 6.59375 36.375 
Q 6.59375 54.828125 13.0625 64.515625 
Q 19.53125 74.21875 31.78125 74.21875 
z
" id="DejaVuSans-48"/>
     <path d="M 10.6875 12.40625 
L 21 12.40625 
L 21 0 
L 10.6875 0 
z
" id="DejaVuSans-46"/>
    </defs>
    <g transform="translate(194.122813 35.76)scale(0.12 -0.12)">
     <use transform="translate(0 0.78125)" xlink:href="#DejaVuSans-Oblique-963"/>
     <use transform="translate(82.861328 0.78125)" xlink:href="#DejaVuSans-61"/>
     <use transform="translate(186.132812 0.78125)" xlink:href="#DejaVuSans-45"/>
     <use transform="translate(222.216797 0.78125)" xlink:href="#DejaVuSans-48"/>
     <use transform="translate(285.839844 0.78125)" xlink:href="#DejaVuSans-46"/>
     <use transform="translate(317.626953 0.78125)" xlink:href="#DejaVuSans-48"/>
    </g>
   </g>
  </g>
  <g id="axes_3">
   <g id="PathCollection_10">
    <path clip-path="url(#ped0738693e)" d="M 290.567518 74.823294 
L 294.10381 74.195492 
L 297.569875 73.556682 
L 303.098224 70.729412 
L 304.572189 69.767139 
L 310.612305 63.727024 
L 311.574577 62.253061 
L 314.401837 56.724741 
L 315.040651 53.258667 
L 315.66846 49.722353 
L 311.574577 49.722353 
L 304.572189 49.722353 
L 297.569875 49.722353 
L 290.567518 49.722353 
L 290.567518 56.724741 
L 290.567518 63.727024 
L 290.567518 70.729412 
" style="fill:#481769;"/>
   </g>
   <g id="PathCollection_11">
    <path clip-path="url(#ped0738693e)" d="M 315.66846 49.722353 
L 315.040651 53.258667 
L 314.401837 56.724741 
L 311.574577 62.253061 
L 310.612305 63.727024 
L 304.572189 69.767139 
L 303.098224 70.729412 
L 297.569875 73.556682 
L 294.10381 74.195492 
L 290.567518 74.823294 
L 290.567518 77.7318 
L 290.567518 84.734083 
L 290.567518 91.736471 
L 290.567518 95.687577 
L 294.140623 95.165738 
L 297.569875 94.67914 
L 304.53812 91.736471 
L 304.572189 91.721747 
L 304.618659 91.690001 
L 311.574577 86.948904 
L 314.120896 84.734083 
L 318.576965 80.718971 
L 321.564137 77.7318 
L 325.579248 73.275731 
L 327.794069 70.729412 
L 332.535166 63.773494 
L 332.566913 63.727024 
L 332.581636 63.692955 
L 335.524296 56.724741 
L 336.010898 53.295479 
L 336.532742 49.722353 
L 332.581636 49.722353 
L 325.579248 49.722353 
L 318.576965 49.722353 
" style="fill:#424086;"/>
   </g>
   <g id="PathCollection_12">
    <path clip-path="url(#ped0738693e)" d="M 336.532742 49.722353 
L 336.010898 53.295479 
L 335.524296 56.724741 
L 332.581636 63.692955 
L 332.566913 63.727024 
L 332.535166 63.773494 
L 327.794069 70.729412 
L 325.579248 73.275731 
L 321.564137 77.7318 
L 318.576965 80.718971 
L 314.120896 84.734083 
L 311.574577 86.948904 
L 304.618659 91.690001 
L 304.572189 91.721747 
L 304.53812 91.736471 
L 297.569875 94.67914 
L 294.140623 95.165738 
L 290.567518 95.687577 
L 290.567518 98.738859 
L 290.567518 105.741141 
L 290.567518 112.743529 
L 290.567518 115.886753 
L 295.061098 115.252317 
L 297.569875 114.920634 
L 302.919683 112.743529 
L 304.572189 112.103133 
L 306.420468 110.895251 
L 311.574577 107.625627 
L 313.792977 105.741141 
L 318.576965 101.666954 
L 321.586429 98.738859 
L 325.579248 94.866799 
L 328.698846 91.736471 
L 332.581636 87.853681 
L 335.711965 84.734083 
L 339.584024 80.741264 
L 342.51212 77.7318 
L 346.586307 72.947812 
L 348.470793 70.729412 
L 351.740417 65.575302 
L 352.948298 63.727024 
L 353.588695 62.074519 
L 355.76579 56.724741 
L 356.097476 54.21596 
L 356.731919 49.722353 
L 353.588695 49.722353 
L 346.586307 49.722353 
L 339.584024 49.722353 
" style="fill:#33638d;"/>
   </g>
   <g id="PathCollection_13">
    <path clip-path="url(#ped0738693e)" d="M 290.567518 154.757647 
L 297.569875 147.755291 
L 297.569875 147.755291 
L 304.572189 140.752976 
L 304.572189 140.752976 
L 311.574577 133.750588 
L 311.574577 133.750588 
L 318.576965 126.7482 
L 318.576965 126.7482 
L 325.579248 119.745917 
L 325.579248 119.745917 
L 332.581636 112.743529 
L 332.581636 112.743529 
L 339.584024 105.741141 
L 339.584024 105.741141 
L 343.078256 102.246909 
L 346.586307 98.738859 
L 346.586307 98.738859 
L 353.588695 91.736471 
L 353.588695 91.736471 
L 360.591083 84.734083 
L 360.591083 84.734083 
L 367.593366 77.7318 
L 367.593366 77.7318 
L 374.595754 70.729412 
L 374.595754 70.729412 
L 381.598142 63.727024 
L 381.598142 63.727024 
L 388.600425 56.724741 
L 388.600425 56.724741 
L 395.602812 49.722353 
L 388.600425 49.722353 
L 381.598142 49.722353 
L 374.595754 49.722353 
L 367.593366 49.722353 
L 360.591083 49.722353 
L 356.731919 49.722353 
L 356.097476 54.21596 
L 355.76579 56.724741 
L 353.588695 62.074519 
L 352.948298 63.727024 
L 351.740417 65.575302 
L 348.470793 70.729412 
L 346.586307 72.947812 
L 342.51212 77.7318 
L 339.584024 80.741264 
L 335.711965 84.734083 
L 332.581636 87.853681 
L 328.698846 91.736471 
L 325.579248 94.866799 
L 321.586429 98.738859 
L 318.576965 101.666954 
L 313.792977 105.741141 
L 311.574577 107.625627 
L 306.420468 110.895251 
L 304.572189 112.103133 
L 302.919683 112.743529 
L 297.569875 114.920634 
L 295.061098 115.252317 
L 290.567518 115.886753 
L 290.567518 119.745917 
L 290.567518 126.7482 
L 290.567518 133.750588 
L 290.567518 140.752976 
L 290.567518 147.755291 
L 290.567518 154.757647 
" style="fill:#26828e;"/>
   </g>
   <g id="PathCollection_14">
    <path clip-path="url(#ped0738693e)" d="M 329.438412 154.757647 
L 330.072848 150.264067 
L 330.404532 147.755291 
L 332.581636 142.405483 
L 333.222033 140.752976 
L 334.429914 138.904698 
L 337.699538 133.750588 
L 339.584024 131.532188 
L 343.658211 126.7482 
L 346.586307 123.738736 
L 350.458366 119.745917 
L 353.588695 116.626319 
L 357.471485 112.743529 
L 360.591083 109.613201 
L 364.583902 105.741141 
L 367.593366 102.813046 
L 372.377353 98.738859 
L 374.595754 96.854373 
L 379.749863 93.584749 
L 381.598142 92.376867 
L 383.250646 91.736471 
L 388.600425 89.559375 
L 391.109206 89.227689 
L 395.602813 88.593247 
L 395.602813 84.734083 
L 395.602813 77.7318 
L 395.602813 70.729412 
L 395.602813 63.727024 
L 395.602813 56.724741 
L 395.602813 49.722353 
L 395.602812 49.722353 
L 388.600425 56.724741 
L 388.600425 56.724741 
L 381.598142 63.727024 
L 381.598142 63.727024 
L 374.595754 70.729412 
L 374.595754 70.729412 
L 367.593366 77.7318 
L 367.593366 77.7318 
L 360.591083 84.734083 
L 360.591083 84.734083 
L 353.588695 91.736471 
L 353.588695 91.736471 
L 346.586307 98.738859 
L 346.586307 98.738859 
L 343.078256 102.246909 
L 339.584024 105.741141 
L 339.584024 105.741141 
L 332.581636 112.743529 
L 332.581636 112.743529 
L 325.579248 119.745917 
L 325.579248 119.745917 
L 318.576965 126.7482 
L 318.576965 126.7482 
L 311.574577 133.750588 
L 311.574577 133.750588 
L 304.572189 140.752976 
L 304.572189 140.752976 
L 297.569875 147.755291 
L 297.569875 147.755291 
L 290.567518 154.757647 
L 297.569875 154.757647 
L 304.572189 154.757647 
L 311.574577 154.757647 
L 318.576965 154.757647 
L 325.579248 154.757647 
" style="fill:#1fa088;"/>
   </g>
   <g id="PathCollection_15">
    <path clip-path="url(#ped0738693e)" d="M 349.637589 154.757647 
L 350.159428 151.184542 
L 350.646026 147.755291 
L 353.588695 140.787045 
L 353.603418 140.752976 
L 353.635165 140.706506 
L 358.376262 133.750588 
L 360.591083 131.204269 
L 364.606194 126.7482 
L 367.593366 123.761029 
L 372.049435 119.745917 
L 374.595754 117.531096 
L 381.551672 112.789999 
L 381.598142 112.758253 
L 381.632211 112.743529 
L 388.600425 109.800869 
L 392.029686 109.314268 
L 395.602813 108.792423 
L 395.602813 105.741141 
L 395.602813 98.738859 
L 395.602813 91.736471 
L 395.602813 88.593247 
L 391.109206 89.227689 
L 388.600425 89.559375 
L 383.250646 91.736471 
L 381.598142 92.376867 
L 379.749863 93.584749 
L 374.595754 96.854373 
L 372.377353 98.738859 
L 367.593366 102.813046 
L 364.583902 105.741141 
L 360.591083 109.613201 
L 357.471485 112.743529 
L 353.588695 116.626319 
L 350.458366 119.745917 
L 346.586307 123.738736 
L 343.658211 126.7482 
L 339.584024 131.532188 
L 337.699538 133.750588 
L 334.429914 138.904698 
L 333.222033 140.752976 
L 332.581636 142.405483 
L 330.404532 147.755291 
L 330.072848 150.264067 
L 329.438412 154.757647 
L 332.581636 154.757647 
L 339.584024 154.757647 
L 346.586307 154.757647 
" style="fill:#3fbc73;"/>
   </g>
   <g id="PathCollection_16">
    <path clip-path="url(#ped0738693e)" d="M 370.501871 154.757647 
L 371.129673 151.221356 
L 371.768483 147.755291 
L 374.595754 142.226942 
L 375.558026 140.752976 
L 381.598142 134.712861 
L 383.072105 133.750588 
L 388.600425 130.923329 
L 392.066499 130.284514 
L 395.602813 129.656706 
L 395.602813 126.7482 
L 395.602813 119.745917 
L 395.602813 112.743529 
L 395.602813 108.792423 
L 392.029686 109.314268 
L 388.600425 109.800869 
L 381.632211 112.743529 
L 381.598142 112.758253 
L 381.551672 112.789999 
L 374.595754 117.531096 
L 372.049435 119.745917 
L 367.593366 123.761029 
L 364.606194 126.7482 
L 360.591083 131.204269 
L 358.376262 133.750588 
L 353.635165 140.706506 
L 353.603418 140.752976 
L 353.588695 140.787045 
L 350.646026 147.755291 
L 350.159428 151.184542 
L 349.637589 154.757647 
L 353.588695 154.757647 
L 360.591083 154.757647 
L 367.593366 154.757647 
" style="fill:#84d44b;"/>
   </g>
   <g id="PathCollection_17">
    <path clip-path="url(#ped0738693e)" d="M 395.602813 129.656706 
L 392.066499 130.284514 
L 388.600425 130.923329 
L 383.072105 133.750588 
L 381.598142 134.712861 
L 375.558026 140.752976 
L 374.595754 142.226942 
L 371.768483 147.755291 
L 371.129673 151.221356 
L 370.501871 154.757647 
L 374.595754 154.757647 
L 381.598142 154.757647 
L 388.600425 154.757647 
L 395.602813 154.757647 
L 395.602813 147.755291 
L 395.602813 140.752976 
L 395.602813 133.750588 
" style="fill:#d8e219;"/>
   </g>
   <g id="text_3">
    <!-- $\sigma=$-11.7 -->
    <defs>
     <path d="M 12.40625 8.296875 
L 28.515625 8.296875 
L 28.515625 63.921875 
L 10.984375 60.40625 
L 10.984375 69.390625 
L 28.421875 72.90625 
L 38.28125 72.90625 
L 38.28125 8.296875 
L 54.390625 8.296875 
L 54.390625 0 
L 12.40625 0 
z
" id="DejaVuSans-49"/>
     <path d="M 8.203125 72.90625 
L 55.078125 72.90625 
L 55.078125 68.703125 
L 28.609375 0 
L 18.3125 0 
L 43.21875 64.59375 
L 8.203125 64.59375 
z
" id="DejaVuSans-55"/>
    </defs>
    <g transform="translate(316.385165 35.76)scale(0.12 -0.12)">
     <use transform="translate(0 0.09375)" xlink:href="#DejaVuSans-Oblique-963"/>
     <use transform="translate(82.861328 0.09375)" xlink:href="#DejaVuSans-61"/>
     <use transform="translate(186.132812 0.09375)" xlink:href="#DejaVuSans-45"/>
     <use transform="translate(222.216797 0.09375)" xlink:href="#DejaVuSans-49"/>
     <use transform="translate(285.839844 0.09375)" xlink:href="#DejaVuSans-49"/>
     <use transform="translate(349.462891 0.09375)" xlink:href="#DejaVuSans-46"/>
     <use transform="translate(381.140625 0.09375)" xlink:href="#DejaVuSans-55"/>
    </g>
   </g>
  </g>
  <g id="axes_4">
   <g id="PathCollection_18">
    <path clip-path="url(#p9b1e7873ff)" d="M 63.482722 299.909647 
L 62.880634 296.5189 
L 62.258292 292.907291 
L 61.302734 291.094447 
L 59.489871 287.487781 
L 58.860465 286.534376 
L 58.462182 285.904976 
L 55.430627 282.961833 
L 52.487483 279.930278 
L 51.858084 279.531995 
L 50.904679 278.902588 
L 47.298013 277.089725 
L 45.485169 276.134167 
L 41.87356 275.511825 
L 38.482813 274.909738 
L 38.482813 278.902588 
L 38.482813 285.904976 
L 38.482813 292.907291 
L 38.482813 299.909647 
L 45.485169 299.909647 
L 52.487483 299.909647 
L 59.489871 299.909647 
" style="fill:#481769;"/>
   </g>
   <g id="PathCollection_19">
    <path clip-path="url(#p9b1e7873ff)" d="M 84.300618 299.909647 
L 83.853789 296.552804 
L 83.3439 292.907291 
L 82.530235 290.874008 
L 80.49693 286.100669 
L 80.438394 285.963512 
L 80.413082 285.904976 
L 77.621943 281.777575 
L 75.634158 278.902588 
L 74.649803 277.747327 
L 73.494542 276.452681 
L 71.327614 274.06716 
L 69.382561 271.9002 
L 67.94861 270.44385 
L 66.492259 269.009898 
L 64.325299 267.064845 
L 61.939778 264.897917 
L 60.645133 263.742656 
L 59.489871 262.758301 
L 56.614884 260.770517 
L 52.487483 257.979377 
L 52.428948 257.954066 
L 52.291791 257.895529 
L 47.518452 255.862225 
L 45.485169 255.04856 
L 41.839656 254.538671 
L 38.482813 254.091842 
L 38.482813 257.895529 
L 38.482813 264.897917 
L 38.482813 271.9002 
L 38.482813 274.909738 
L 41.87356 275.511825 
L 45.485169 276.134167 
L 47.298013 277.089725 
L 50.904679 278.902588 
L 51.858084 279.531995 
L 52.487483 279.930278 
L 55.430627 282.961833 
L 58.462182 285.904976 
L 58.860465 286.534376 
L 59.489871 287.487781 
L 61.302734 291.094447 
L 62.258292 292.907291 
L 62.880634 296.5189 
L 63.482722 299.909647 
L 66.492259 299.909647 
L 73.494542 299.909647 
L 80.49693 299.909647 
" style="fill:#424086;"/>
   </g>
   <g id="PathCollection_20">
    <path clip-path="url(#p9b1e7873ff)" d="M 104.532188 299.909647 
L 104.20113 297.212518 
L 103.628435 292.907291 
L 103.055277 291.356019 
L 101.503989 287.555291 
L 101.06154 286.347421 
L 100.879704 285.904976 
L 98.50313 281.903447 
L 96.464454 278.902588 
L 95.602321 277.801868 
L 94.501601 276.575244 
L 92.427132 273.9747 
L 90.53057 271.9002 
L 89.085819 270.313699 
L 87.499318 268.784423 
L 85.641621 266.755587 
L 83.721428 264.897917 
L 82.15477 263.240078 
L 80.49693 261.687587 
L 78.655418 259.737042 
L 76.704872 257.895529 
L 75.152382 256.23769 
L 73.494542 254.671031 
L 71.636873 252.750839 
L 69.608037 250.893141 
L 68.078761 249.30664 
L 66.492259 247.86189 
L 64.417759 245.965327 
L 61.817216 243.890859 
L 60.590591 242.790139 
L 59.489871 241.928006 
L 56.489012 239.88933 
L 52.487483 237.512755 
L 52.045039 237.33092 
L 50.837168 236.888471 
L 47.03644 235.337183 
L 45.485169 234.764024 
L 41.179941 234.19133 
L 38.482813 233.860271 
L 38.482813 236.888471 
L 38.482813 243.890859 
L 38.482813 250.893141 
L 38.482813 254.091842 
L 41.839656 254.538671 
L 45.485169 255.04856 
L 47.518452 255.862225 
L 52.291791 257.895529 
L 52.428948 257.954066 
L 52.487483 257.979377 
L 56.614884 260.770517 
L 59.489871 262.758301 
L 60.645133 263.742656 
L 61.939778 264.897917 
L 64.325299 267.064845 
L 66.492259 269.009898 
L 67.94861 270.44385 
L 69.382561 271.9002 
L 71.327614 274.06716 
L 73.494542 276.452681 
L 74.649803 277.747327 
L 75.634158 278.902588 
L 77.621943 281.777575 
L 80.413082 285.904976 
L 80.438394 285.963512 
L 80.49693 286.100669 
L 82.530235 290.874008 
L 83.3439 292.907291 
L 83.853789 296.552804 
L 84.300618 299.909647 
L 87.499318 299.909647 
L 94.501601 299.909647 
L 101.503989 299.909647 
" style="fill:#33638d;"/>
   </g>
   <g id="PathCollection_21">
    <path clip-path="url(#p9b1e7873ff)" d="M 143.518107 299.909646 
L 140.016929 296.408453 
L 136.515782 292.907291 
L 136.515735 292.907275 
L 136.515719 292.907269 
L 133.014583 289.406128 
L 129.513436 285.904976 
L 129.513436 285.904976 
L 129.513436 285.904976 
L 126.012242 282.403782 
L 122.511048 278.902588 
L 122.511048 278.902588 
L 122.511048 278.902588 
L 119.009854 275.401394 
L 115.50866 271.9002 
L 115.50866 271.9002 
L 115.50866 271.9002 
L 112.007518 268.399059 
L 108.506377 264.897917 
L 108.506377 264.897917 
L 108.506377 264.897917 
L 105.005183 261.396723 
L 101.503989 257.895529 
L 101.503989 257.895529 
L 101.503989 257.895529 
L 98.002795 254.394335 
L 94.501601 250.893141 
L 94.501601 250.893141 
L 94.501601 250.893141 
L 91.00046 247.392 
L 87.499318 243.890859 
L 87.499318 243.890859 
L 87.499318 243.890859 
L 83.998124 240.389665 
L 80.49693 236.888471 
L 80.49693 236.888471 
L 80.49693 236.888471 
L 76.995736 233.387277 
L 73.494542 229.886083 
L 73.494542 229.886083 
L 73.494542 229.886083 
L 69.993401 226.384941 
L 66.492259 222.8838 
L 66.492259 222.8838 
L 66.492259 222.8838 
L 62.991065 219.382606 
L 59.489871 215.881412 
L 59.489871 215.881412 
L 59.489871 215.881412 
L 55.988677 212.380218 
L 52.487483 208.879024 
L 52.487483 208.879024 
L 52.487483 208.879024 
L 48.986332 205.377877 
L 45.48519 201.876741 
L 45.485185 201.876725 
L 45.485169 201.876677 
L 41.984007 198.375531 
L 38.482814 194.874353 
L 38.482813 194.874353 
L 38.482813 201.876741 
L 38.482813 208.879024 
L 38.482813 215.881412 
L 38.482813 222.8838 
L 38.482813 229.886083 
L 38.482813 233.860271 
L 41.179941 234.19133 
L 45.485169 234.764024 
L 47.03644 235.337183 
L 50.837168 236.888471 
L 52.045039 237.33092 
L 52.487483 237.512755 
L 56.489012 239.88933 
L 59.489871 241.928006 
L 60.590591 242.790139 
L 61.817216 243.890859 
L 64.417759 245.965327 
L 66.492259 247.86189 
L 68.078761 249.30664 
L 69.608037 250.893141 
L 71.636873 252.750839 
L 73.494542 254.671031 
L 75.152382 256.23769 
L 76.704872 257.895529 
L 78.655418 259.737042 
L 80.49693 261.687587 
L 82.15477 263.240078 
L 83.721428 264.897917 
L 85.641621 266.755587 
L 87.499318 268.784423 
L 89.085819 270.313699 
L 90.53057 271.9002 
L 92.427132 273.9747 
L 94.501601 276.575244 
L 95.602321 277.801868 
L 96.464454 278.902588 
L 98.50313 281.903447 
L 100.879704 285.904976 
L 101.06154 286.347421 
L 101.503989 287.555291 
L 103.055277 291.356019 
L 103.628435 292.907291 
L 104.20113 297.212518 
L 104.532188 299.909647 
L 108.506377 299.909647 
L 115.50866 299.909647 
L 122.511048 299.909647 
L 129.513436 299.909647 
L 136.515719 299.909647 
L 143.518107 299.909647 
" style="fill:#26828e;"/>
   </g>
   <g id="PathCollection_22">
    <path clip-path="url(#p9b1e7873ff)" d="M 143.518107 260.923729 
L 140.820968 260.592668 
L 136.515719 260.019968 
L 134.964459 259.446812 
L 131.163749 257.895529 
L 129.955879 257.45308 
L 129.513436 257.271245 
L 125.511907 254.89467 
L 122.511048 252.855994 
L 121.410328 251.993861 
L 120.183703 250.893141 
L 117.58316 248.818673 
L 115.50866 246.92211 
L 113.922159 245.47736 
L 112.392882 243.890859 
L 110.364046 242.033161 
L 108.506377 240.112969 
L 106.848537 238.54631 
L 105.296047 236.888471 
L 103.345502 235.046958 
L 101.503989 233.096413 
L 99.846149 231.543922 
L 98.279491 229.886083 
L 96.359298 228.028413 
L 94.501601 225.999577 
L 92.9151 224.470301 
L 91.470349 222.8838 
L 89.573787 220.8093 
L 87.499318 218.208756 
L 86.398598 216.982132 
L 85.536465 215.881412 
L 83.497789 212.880553 
L 81.121215 208.879024 
L 80.93938 208.436581 
L 80.49693 207.228711 
L 78.945647 203.428 
L 78.372492 201.876741 
L 77.799792 197.571491 
L 77.468731 194.874353 
L 73.494542 194.874353 
L 66.492259 194.874353 
L 59.489871 194.874353 
L 52.487483 194.874353 
L 45.485169 194.874353 
L 38.482814 194.874353 
L 41.984007 198.375531 
L 45.485169 201.876677 
L 45.485185 201.876725 
L 45.48519 201.876741 
L 48.986332 205.377877 
L 52.487483 208.879024 
L 52.487483 208.879024 
L 52.487483 208.879024 
L 55.988677 212.380218 
L 59.489871 215.881412 
L 59.489871 215.881412 
L 59.489871 215.881412 
L 62.991065 219.382606 
L 66.492259 222.8838 
L 66.492259 222.8838 
L 66.492259 222.8838 
L 69.993401 226.384941 
L 73.494542 229.886083 
L 73.494542 229.886083 
L 73.494542 229.886083 
L 76.995736 233.387277 
L 80.49693 236.888471 
L 80.49693 236.888471 
L 80.49693 236.888471 
L 83.998124 240.389665 
L 87.499318 243.890859 
L 87.499318 243.890859 
L 87.499318 243.890859 
L 91.00046 247.392 
L 94.501601 250.893141 
L 94.501601 250.893141 
L 94.501601 250.893141 
L 98.002795 254.394335 
L 101.503989 257.895529 
L 101.503989 257.895529 
L 101.503989 257.895529 
L 105.005183 261.396723 
L 108.506377 264.897917 
L 108.506377 264.897917 
L 108.506377 264.897917 
L 112.007518 268.399059 
L 115.50866 271.9002 
L 115.50866 271.9002 
L 115.50866 271.9002 
L 119.009854 275.401394 
L 122.511048 278.902588 
L 122.511048 278.902588 
L 122.511048 278.902588 
L 126.012242 282.403782 
L 129.513436 285.904976 
L 129.513436 285.904976 
L 129.513436 285.904976 
L 133.014583 289.406128 
L 136.515719 292.907269 
L 136.515735 292.907275 
L 136.515782 292.907291 
L 140.016929 296.408453 
L 143.518107 299.909646 
L 143.518107 292.907291 
L 143.518107 285.904976 
L 143.518107 278.902588 
L 143.518107 271.9002 
L 143.518107 264.897917 
" style="fill:#1fa088;"/>
   </g>
   <g id="PathCollection_23">
    <path clip-path="url(#p9b1e7873ff)" d="M 143.518107 240.692158 
L 140.161252 240.245326 
L 136.515719 239.735432 
L 134.482449 238.921771 
L 129.709128 236.888471 
L 129.571971 236.829934 
L 129.513436 236.804623 
L 125.386035 234.013483 
L 122.511048 232.025699 
L 121.355787 231.041344 
L 120.061141 229.886083 
L 117.67562 227.719155 
L 115.50866 225.774102 
L 114.052309 224.34015 
L 112.618358 222.8838 
L 110.673305 220.71684 
L 108.506377 218.331319 
L 107.351116 217.036673 
L 106.366761 215.881412 
L 104.378976 213.006425 
L 101.587837 208.879024 
L 101.562525 208.820488 
L 101.503989 208.683331 
L 99.470689 203.91001 
L 98.657028 201.876741 
L 98.147134 198.231208 
L 97.700301 194.874353 
L 94.501601 194.874353 
L 87.499318 194.874353 
L 80.49693 194.874353 
L 77.468731 194.874353 
L 77.799792 197.571491 
L 78.372492 201.876741 
L 78.945647 203.428 
L 80.49693 207.228711 
L 80.93938 208.436581 
L 81.121215 208.879024 
L 83.497789 212.880553 
L 85.536465 215.881412 
L 86.398598 216.982132 
L 87.499318 218.208756 
L 89.573787 220.8093 
L 91.470349 222.8838 
L 92.9151 224.470301 
L 94.501601 225.999577 
L 96.359298 228.028413 
L 98.279491 229.886083 
L 99.846149 231.543922 
L 101.503989 233.096413 
L 103.345502 235.046958 
L 105.296047 236.888471 
L 106.848537 238.54631 
L 108.506377 240.112969 
L 110.364046 242.033161 
L 112.392882 243.890859 
L 113.922159 245.47736 
L 115.50866 246.92211 
L 117.58316 248.818673 
L 120.183703 250.893141 
L 121.410328 251.993861 
L 122.511048 252.855994 
L 125.511907 254.89467 
L 129.513436 257.271245 
L 129.955879 257.45308 
L 131.163749 257.895529 
L 134.964459 259.446812 
L 136.515719 260.019968 
L 140.820968 260.592668 
L 143.518107 260.923729 
L 143.518107 257.895529 
L 143.518107 250.893141 
L 143.518107 243.890859 
" style="fill:#3fbc73;"/>
   </g>
   <g id="PathCollection_24">
    <path clip-path="url(#p9b1e7873ff)" d="M 143.518107 219.874262 
L 140.127348 219.27217 
L 136.515719 218.649822 
L 134.702888 217.69427 
L 131.096238 215.881412 
L 130.142833 215.252005 
L 129.513436 214.853722 
L 126.570292 211.822167 
L 123.538737 208.879024 
L 123.140455 208.249626 
L 122.511048 207.296222 
L 120.69819 203.689572 
L 119.742638 201.876741 
L 119.120289 198.265111 
L 118.518197 194.874353 
L 115.50866 194.874353 
L 108.506377 194.874353 
L 101.503989 194.874353 
L 97.700301 194.874353 
L 98.147134 198.231208 
L 98.657028 201.876741 
L 99.470689 203.91001 
L 101.503989 208.683331 
L 101.562525 208.820488 
L 101.587837 208.879024 
L 104.378976 213.006425 
L 106.366761 215.881412 
L 107.351116 217.036673 
L 108.506377 218.331319 
L 110.673305 220.71684 
L 112.618358 222.8838 
L 114.052309 224.34015 
L 115.50866 225.774102 
L 117.67562 227.719155 
L 120.061141 229.886083 
L 121.355787 231.041344 
L 122.511048 232.025699 
L 125.386035 234.013483 
L 129.513436 236.804623 
L 129.571971 236.829934 
L 129.709128 236.888471 
L 134.482449 238.921771 
L 136.515719 239.735432 
L 140.161252 240.245326 
L 143.518107 240.692158 
L 143.518107 236.888471 
L 143.518107 229.886083 
L 143.518107 222.8838 
" style="fill:#84d44b;"/>
   </g>
   <g id="PathCollection_25">
    <path clip-path="url(#p9b1e7873ff)" d="M 118.518197 194.874353 
L 119.120289 198.265111 
L 119.742638 201.876741 
L 120.69819 203.689572 
L 122.511048 207.296222 
L 123.140455 208.249626 
L 123.538737 208.879024 
L 126.570292 211.822167 
L 129.513436 214.853722 
L 130.142833 215.252005 
L 131.096238 215.881412 
L 134.702888 217.69427 
L 136.515719 218.649822 
L 140.127348 219.27217 
L 143.518107 219.874262 
L 143.518107 215.881412 
L 143.518107 208.879024 
L 143.518107 201.876741 
L 143.518107 194.874353 
L 136.515719 194.874353 
L 129.513436 194.874353 
L 122.511048 194.874353 
" style="fill:#d8e219;"/>
   </g>
   <g id="text_4">
    <!-- $\sigma=$-11.7 -->
    <g transform="translate(64.30046 180.912)scale(0.12 -0.12)">
     <use transform="translate(0 0.09375)" xlink:href="#DejaVuSans-Oblique-963"/>
     <use transform="translate(82.861328 0.09375)" xlink:href="#DejaVuSans-61"/>
     <use transform="translate(186.132812 0.09375)" xlink:href="#DejaVuSans-45"/>
     <use transform="translate(222.216797 0.09375)" xlink:href="#DejaVuSans-49"/>
     <use transform="translate(285.839844 0.09375)" xlink:href="#DejaVuSans-49"/>
     <use transform="translate(349.462891 0.09375)" xlink:href="#DejaVuSans-46"/>
     <use transform="translate(381.140625 0.09375)" xlink:href="#DejaVuSans-55"/>
    </g>
   </g>
  </g>
  <g id="axes_5">
   <g id="PathCollection_26">
    <path clip-path="url(#p0df3cb642f)" d="M 180.863868 299.909647 
L 180.520406 297.919087 
L 179.515244 292.907291 
L 179.172108 292.265026 
L 178.529836 291.244543 
L 175.953413 288.4814 
L 173.190269 285.904976 
L 172.169786 285.262705 
L 171.527522 284.919569 
L 166.515726 283.914407 
L 164.525165 283.570944 
L 164.525165 285.904976 
L 164.525165 292.907291 
L 164.525165 299.909647 
L 171.527522 299.909647 
L 178.529836 299.909647 
M 253.221756 194.874353 
L 253.565221 196.86492 
L 254.570393 201.876741 
L 254.913525 202.518995 
L 255.555789 203.539465 
L 258.132209 206.302603 
L 260.895348 208.879024 
L 261.915817 209.521288 
L 262.558072 209.864419 
L 267.569892 210.869591 
L 269.56046 211.213056 
L 269.56046 208.879024 
L 269.56046 201.876741 
L 269.56046 194.874353 
L 262.558072 194.874353 
L 255.555789 194.874353 
" style="fill:#481769;"/>
   </g>
   <g id="PathCollection_27">
    <path clip-path="url(#p0df3cb642f)" d="M 195.450982 299.909647 
L 195.25752 297.186711 
L 194.843939 292.907291 
L 194.411926 291.029969 
L 192.774806 285.904976 
L 192.706733 285.732853 
L 192.534612 285.434541 
L 190.097858 281.339343 
L 188.214457 278.902588 
L 186.984422 277.450391 
L 185.532224 276.220356 
L 183.09547 274.336955 
L 179.000272 271.9002 
L 178.70196 271.728079 
L 178.529836 271.660006 
L 173.404844 270.022887 
L 171.527522 269.590874 
L 167.248102 269.177293 
L 164.525165 268.98383 
L 164.525165 271.9002 
L 164.525165 278.902588 
L 164.525165 283.570944 
L 166.515726 283.914407 
L 171.527522 284.919569 
L 172.169786 285.262705 
L 173.190269 285.904976 
L 175.953413 288.4814 
L 178.529836 291.244543 
L 179.172108 292.265026 
L 179.515244 292.907291 
L 180.520406 297.919087 
L 180.863868 299.909647 
L 185.532224 299.909647 
L 192.534612 299.909647 
M 269.56046 211.213056 
L 267.569892 210.869591 
L 262.558072 209.864419 
L 261.915817 209.521288 
L 260.895348 208.879024 
L 258.132209 206.302603 
L 255.555789 203.539465 
L 254.913525 202.518995 
L 254.570393 201.876741 
L 253.565221 196.86492 
L 253.221756 194.874353 
L 248.553401 194.874353 
L 241.551013 194.874353 
L 238.634643 194.874353 
L 238.828107 197.5973 
L 239.241692 201.876741 
L 239.673703 203.754051 
L 241.310819 208.879024 
L 241.378892 209.051147 
L 241.551013 209.349459 
L 243.987767 213.444657 
L 245.871168 215.881412 
L 247.101203 217.333609 
L 248.553401 218.563644 
L 250.990155 220.447045 
L 255.085353 222.8838 
L 255.383665 223.055921 
L 255.555789 223.123994 
L 260.680762 224.76111 
L 262.558072 225.193121 
L 266.837513 225.606706 
L 269.56046 225.80017 
L 269.56046 222.8838 
L 269.56046 215.881412 
" style="fill:#424086;"/>
   </g>
   <g id="PathCollection_28">
    <path clip-path="url(#p0df3cb642f)" d="M 206.63101 299.909647 
L 206.630436 299.818494 
L 206.539283 297.355001 
L 206.377345 293.069228 
L 206.36662 292.907291 
L 205.578562 286.865687 
L 205.359999 285.904976 
L 204.274582 281.167289 
L 203.319766 278.902588 
L 202.375347 276.064136 
L 199.596994 271.9002 
L 199.578552 271.858544 
L 199.536895 271.817355 
L 196.585542 267.849271 
L 192.617457 264.897917 
L 192.576269 264.85626 
L 192.534612 264.837818 
L 188.370676 262.059465 
L 185.532224 261.115047 
L 183.267524 260.16023 
L 178.529836 259.074814 
L 177.569125 258.856251 
L 171.527522 258.068193 
L 171.365585 258.057467 
L 167.079811 257.895529 
L 164.616318 257.804376 
L 164.525165 257.803803 
L 164.525165 257.895529 
L 164.525165 264.897917 
L 164.525165 268.98383 
L 167.248102 269.177293 
L 171.527522 269.590874 
L 173.404844 270.022887 
L 178.529836 271.660006 
L 178.70196 271.728079 
L 179.000272 271.9002 
L 183.09547 274.336955 
L 185.532224 276.220356 
L 186.984422 277.450391 
L 188.214457 278.902588 
L 190.097858 281.339343 
L 192.534612 285.434541 
L 192.706733 285.732853 
L 192.774806 285.904976 
L 194.411926 291.029969 
L 194.843939 292.907291 
L 195.25752 297.186711 
L 195.450982 299.909647 
L 199.536895 299.909647 
L 206.539283 299.909647 
M 269.56046 225.80017 
L 266.837513 225.606706 
L 262.558072 225.193121 
L 260.680762 224.76111 
L 255.555789 223.123994 
L 255.383665 223.055921 
L 255.085353 222.8838 
L 250.990155 220.447045 
L 248.553401 218.563644 
L 247.101203 217.333609 
L 245.871168 215.881412 
L 243.987767 213.444657 
L 241.551013 209.349459 
L 241.378892 209.051147 
L 241.310819 208.879024 
L 239.673703 203.754051 
L 239.241692 201.876741 
L 238.828107 197.5973 
L 238.634643 194.874353 
L 234.54873 194.874353 
L 227.546342 194.874353 
L 227.454615 194.874353 
L 227.455189 194.965506 
L 227.546342 197.428987 
L 227.708282 201.714801 
L 227.719008 201.876741 
L 228.507064 207.918316 
L 228.725626 208.879024 
L 229.811043 213.616711 
L 230.765859 215.881412 
L 231.710278 218.719864 
L 234.488631 222.8838 
L 234.507073 222.925456 
L 234.54873 222.966645 
L 237.500084 226.934729 
L 241.468168 229.886083 
L 241.509356 229.92774 
L 241.551013 229.946181 
L 245.714949 232.724535 
L 248.553401 233.668953 
L 250.818101 234.62377 
L 255.555789 235.709186 
L 256.516496 235.927749 
L 262.558072 236.715805 
L 262.720012 236.726531 
L 267.005826 236.888471 
L 269.469306 236.979624 
L 269.56046 236.980197 
L 269.56046 236.888471 
L 269.56046 229.886083 
" style="fill:#33638d;"/>
   </g>
   <g id="PathCollection_29">
    <path clip-path="url(#p0df3cb642f)" d="M 216.844946 299.909647 
L 216.926823 296.52446 
L 216.903737 292.907291 
L 217.106842 289.342103 
L 216.97474 285.904976 
L 217.320213 282.126377 
L 217.063189 278.902588 
L 217.57808 274.866119 
L 217.179376 271.9002 
L 217.904464 267.537407 
L 217.34937 264.897917 
L 218.42315 260.016365 
L 217.676344 257.895529 
L 219.837327 251.599779 
L 219.117589 250.893141 
L 220.543954 249.466777 
L 221.250591 250.186515 
L 227.546342 248.025531 
L 229.667177 248.772338 
L 234.54873 247.698558 
L 237.188219 248.253652 
L 241.551013 247.528564 
L 244.516931 247.927268 
L 248.553401 247.412376 
L 251.77719 247.669401 
L 255.555789 247.323928 
L 258.992901 247.456029 
L 262.558072 247.252925 
L 266.175257 247.276011 
L 269.56046 247.194133 
L 269.56046 243.890859 
L 269.56046 236.980197 
L 269.469306 236.979624 
L 267.005826 236.888471 
L 262.720012 236.726531 
L 262.558072 236.715805 
L 256.516496 235.927749 
L 255.555789 235.709186 
L 250.818101 234.62377 
L 248.553401 233.668953 
L 245.714949 232.724535 
L 241.551013 229.946181 
L 241.509356 229.92774 
L 241.468168 229.886083 
L 237.500084 226.934729 
L 234.54873 222.966645 
L 234.507073 222.925456 
L 234.488631 222.8838 
L 231.710278 218.719864 
L 230.765859 215.881412 
L 229.811043 213.616711 
L 228.725626 208.879024 
L 228.507064 207.918316 
L 227.719008 201.876741 
L 227.708282 201.714801 
L 227.546342 197.428987 
L 227.455189 194.965506 
L 227.454615 194.874353 
L 220.543954 194.874353 
L 217.24068 194.874353 
L 217.158802 198.259556 
L 217.181888 201.876741 
L 216.978783 205.441912 
L 217.110885 208.879024 
L 216.765412 212.657623 
L 217.022437 215.881412 
L 216.507545 219.917881 
L 216.906249 222.8838 
L 216.181161 227.246593 
L 216.736255 229.886083 
L 215.662475 234.767635 
L 216.409281 236.888471 
L 214.248298 243.184221 
L 214.968036 243.890859 
L 213.541671 245.317223 
L 212.835034 244.597485 
L 206.539283 246.758469 
L 204.418448 246.011662 
L 199.536895 247.085442 
L 196.897406 246.530348 
L 192.534612 247.255436 
L 189.568694 246.856732 
L 185.532224 247.371624 
L 182.308435 247.114599 
L 178.529836 247.460072 
L 175.092709 247.32797 
L 171.527522 247.531075 
L 167.910353 247.50799 
L 164.525165 247.589867 
L 164.525165 250.893141 
L 164.525165 257.803803 
L 164.616318 257.804376 
L 167.079811 257.895529 
L 171.365585 258.057467 
L 171.527522 258.068193 
L 177.569125 258.856251 
L 178.529836 259.074814 
L 183.267524 260.16023 
L 185.532224 261.115047 
L 188.370676 262.059465 
L 192.534612 264.837818 
L 192.576269 264.85626 
L 192.617457 264.897917 
L 196.585542 267.849271 
L 199.536895 271.817355 
L 199.578552 271.858544 
L 199.596994 271.9002 
L 202.375347 276.064136 
L 203.319766 278.902588 
L 204.274582 281.167289 
L 205.359999 285.904976 
L 205.578562 286.865687 
L 206.36662 292.907291 
L 206.377345 293.069228 
L 206.539283 297.355001 
L 206.630436 299.818494 
L 206.63101 299.909647 
L 213.541671 299.909647 
" style="fill:#26828e;"/>
   </g>
   <g id="PathCollection_30">
    <path clip-path="url(#p0df3cb642f)" d="M 227.04147 299.909647 
L 227.404049 293.049583 
L 227.407643 292.907291 
L 227.546342 291.943287 
L 228.530578 285.904976 
L 229.132482 284.318836 
L 230.687455 278.902588 
L 234.469375 271.979555 
L 234.504003 271.9002 
L 234.54873 271.83931 
L 241.490122 264.897917 
L 241.551013 264.85319 
L 241.630367 264.818563 
L 248.553401 261.036643 
L 253.969649 259.48167 
L 255.555789 258.879766 
L 261.594091 257.895529 
L 262.558072 257.756834 
L 262.700362 257.753239 
L 269.56046 257.390658 
L 269.56046 250.893141 
L 269.56046 247.194133 
L 266.175257 247.276011 
L 262.558072 247.252925 
L 258.992901 247.456029 
L 255.555789 247.323928 
L 251.77719 247.669401 
L 248.553401 247.412376 
L 244.516931 247.927268 
L 241.551013 247.528564 
L 237.188219 248.253652 
L 234.54873 247.698558 
L 229.667177 248.772338 
L 227.546342 248.025531 
L 221.250591 250.186515 
L 220.543954 249.466777 
L 219.117589 250.893141 
L 219.837327 251.599779 
L 217.676344 257.895529 
L 218.42315 260.016365 
L 217.34937 264.897917 
L 217.904464 267.537407 
L 217.179376 271.9002 
L 217.57808 274.866119 
L 217.063189 278.902588 
L 217.320213 282.126377 
L 216.97474 285.904976 
L 217.106842 289.342103 
L 216.903737 292.907291 
L 216.926823 296.52446 
L 216.844946 299.909647 
L 220.543954 299.909647 
M 207.044155 194.874353 
L 206.681573 201.734451 
L 206.677979 201.876741 
L 206.539283 202.840722 
L 205.555047 208.879024 
L 204.953143 210.465164 
L 203.39817 215.881412 
L 199.61625 222.804445 
L 199.581622 222.8838 
L 199.536895 222.94469 
L 192.595503 229.886083 
L 192.534612 229.93081 
L 192.455258 229.965437 
L 185.532224 233.747357 
L 180.115977 235.30233 
L 178.529836 235.904234 
L 172.491526 236.888471 
L 171.527522 237.027169 
L 171.385229 237.030764 
L 164.525165 237.393342 
L 164.525165 243.890859 
L 164.525165 247.589867 
L 167.910353 247.50799 
L 171.527522 247.531075 
L 175.092709 247.32797 
L 178.529836 247.460072 
L 182.308435 247.114599 
L 185.532224 247.371624 
L 189.568694 246.856732 
L 192.534612 247.255436 
L 196.897406 246.530348 
L 199.536895 247.085442 
L 204.418448 246.011662 
L 206.539283 246.758469 
L 212.835034 244.597485 
L 213.541671 245.317223 
L 214.968036 243.890859 
L 214.248298 243.184221 
L 216.409281 236.888471 
L 215.662475 234.767635 
L 216.736255 229.886083 
L 216.181161 227.246593 
L 216.906249 222.8838 
L 216.507545 219.917881 
L 217.022437 215.881412 
L 216.765412 212.657623 
L 217.110885 208.879024 
L 216.978783 205.441912 
L 217.181888 201.876741 
L 217.158802 198.259556 
L 217.24068 194.874353 
L 213.541671 194.874353 
" style="fill:#1fa088;"/>
   </g>
   <g id="PathCollection_31">
    <path clip-path="url(#p0df3cb642f)" d="M 238.15579 299.909647 
L 238.593626 295.864709 
L 238.860462 292.907291 
L 240.799084 286.656908 
L 240.998084 285.904976 
L 241.551013 284.842388 
L 245.535366 278.902588 
L 248.553401 275.884554 
L 254.493201 271.9002 
L 255.555789 271.347271 
L 256.307717 271.148272 
L 262.558072 269.209656 
L 265.515499 268.942817 
L 269.56046 268.504977 
L 269.56046 264.897917 
L 269.56046 257.895529 
L 269.56046 257.390658 
L 262.700362 257.753239 
L 262.558072 257.756834 
L 261.594091 257.895529 
L 255.555789 258.879766 
L 253.969649 259.48167 
L 248.553401 261.036643 
L 241.630367 264.818563 
L 241.551013 264.85319 
L 241.490122 264.897917 
L 234.54873 271.83931 
L 234.504003 271.9002 
L 234.469375 271.979555 
L 230.687455 278.902588 
L 229.132482 284.318836 
L 228.530578 285.904976 
L 227.546342 291.943287 
L 227.407643 292.907291 
L 227.404049 293.049583 
L 227.04147 299.909647 
L 227.546342 299.909647 
L 234.54873 299.909647 
M 195.929835 194.874353 
L 195.491995 198.919314 
L 195.225157 201.876741 
L 193.28654 208.127096 
L 193.087541 208.879024 
L 192.534612 209.941612 
L 188.550259 215.881412 
L 185.532224 218.899446 
L 179.592424 222.8838 
L 178.529836 223.436729 
L 177.777904 223.635729 
L 171.527522 225.574351 
L 168.570104 225.841187 
L 164.525165 226.279023 
L 164.525165 229.886083 
L 164.525165 236.888471 
L 164.525165 237.393342 
L 171.385229 237.030764 
L 171.527522 237.027169 
L 172.491526 236.888471 
L 178.529836 235.904234 
L 180.115977 235.30233 
L 185.532224 233.747357 
L 192.455258 229.965437 
L 192.534612 229.93081 
L 192.595503 229.886083 
L 199.536895 222.94469 
L 199.581622 222.8838 
L 199.61625 222.804445 
L 203.39817 215.881412 
L 204.953143 210.465164 
L 205.555047 208.879024 
L 206.539283 202.840722 
L 206.677979 201.876741 
L 206.681573 201.734451 
L 207.044155 194.874353 
L 206.539283 194.874353 
L 199.536895 194.874353 
" style="fill:#3fbc73;"/>
   </g>
   <g id="PathCollection_32">
    <path clip-path="url(#p0df3cb642f)" d="M 252.754406 299.909647 
L 253.819762 294.64331 
L 254.156442 292.907291 
L 255.555789 290.564654 
L 260.21546 285.904976 
L 262.558072 284.505642 
L 264.294087 284.168961 
L 269.56046 283.103593 
L 269.56046 278.902588 
L 269.56046 271.9002 
L 269.56046 268.504977 
L 265.515499 268.942817 
L 262.558072 269.209656 
L 256.307717 271.148272 
L 255.555789 271.347271 
L 254.493201 271.9002 
L 248.553401 275.884554 
L 245.535366 278.902588 
L 241.551013 284.842388 
L 240.998084 285.904976 
L 240.799084 286.656908 
L 238.860462 292.907291 
L 238.593626 295.864709 
L 238.15579 299.909647 
L 241.551013 299.909647 
L 248.553401 299.909647 
M 181.33122 194.874353 
L 180.265852 200.140725 
L 179.929171 201.876741 
L 178.529836 204.219353 
L 173.870158 208.879024 
L 171.527522 210.278371 
L 169.791503 210.615051 
L 164.525165 211.680407 
L 164.525165 215.881412 
L 164.525165 222.8838 
L 164.525165 226.279023 
L 168.570104 225.841187 
L 171.527522 225.574351 
L 177.777904 223.635729 
L 178.529836 223.436729 
L 179.592424 222.8838 
L 185.532224 218.899446 
L 188.550259 215.881412 
L 192.534612 209.941612 
L 193.087541 208.879024 
L 193.28654 208.127096 
L 195.225157 201.876741 
L 195.491995 198.919314 
L 195.929835 194.874353 
L 192.534612 194.874353 
L 185.532224 194.874353 
" style="fill:#84d44b;"/>
   </g>
   <g id="PathCollection_33">
    <path clip-path="url(#p0df3cb642f)" d="M 269.56046 283.103593 
L 264.294087 284.168961 
L 262.558072 284.505642 
L 260.21546 285.904976 
L 255.555789 290.564654 
L 254.156442 292.907291 
L 253.819762 294.64331 
L 252.754406 299.909647 
L 255.555789 299.909647 
L 262.558072 299.909647 
L 269.56046 299.909647 
L 269.56046 292.907291 
L 269.56046 285.904976 
M 164.525165 211.680407 
L 169.791503 210.615051 
L 171.527522 210.278371 
L 173.870158 208.879024 
L 178.529836 204.219353 
L 179.929171 201.876741 
L 180.265852 200.140725 
L 181.33122 194.874353 
L 178.529836 194.874353 
L 171.527522 194.874353 
L 164.525165 194.874353 
L 164.525165 201.876741 
L 164.525165 208.879024 
" style="fill:#d8e219;"/>
   </g>
   <g id="text_5">
    <!-- $\sigma=$-21.2 -->
    <defs>
     <path d="M 19.1875 8.296875 
L 53.609375 8.296875 
L 53.609375 0 
L 7.328125 0 
L 7.328125 8.296875 
Q 12.9375 14.109375 22.625 23.890625 
Q 32.328125 33.6875 34.8125 36.53125 
Q 39.546875 41.84375 41.421875 45.53125 
Q 43.3125 49.21875 43.3125 52.78125 
Q 43.3125 58.59375 39.234375 62.25 
Q 35.15625 65.921875 28.609375 65.921875 
Q 23.96875 65.921875 18.8125 64.3125 
Q 13.671875 62.703125 7.8125 59.421875 
L 7.8125 69.390625 
Q 13.765625 71.78125 18.9375 73 
Q 24.125 74.21875 28.421875 74.21875 
Q 39.75 74.21875 46.484375 68.546875 
Q 53.21875 62.890625 53.21875 53.421875 
Q 53.21875 48.921875 51.53125 44.890625 
Q 49.859375 40.875 45.40625 35.40625 
Q 44.1875 33.984375 37.640625 27.21875 
Q 31.109375 20.453125 19.1875 8.296875 
z
" id="DejaVuSans-50"/>
    </defs>
    <g transform="translate(190.342813 180.912)scale(0.12 -0.12)">
     <use transform="translate(0 0.78125)" xlink:href="#DejaVuSans-Oblique-963"/>
     <use transform="translate(82.861328 0.78125)" xlink:href="#DejaVuSans-61"/>
     <use transform="translate(186.132812 0.78125)" xlink:href="#DejaVuSans-45"/>
     <use transform="translate(222.216797 0.78125)" xlink:href="#DejaVuSans-50"/>
     <use transform="translate(285.839844 0.78125)" xlink:href="#DejaVuSans-49"/>
     <use transform="translate(349.462891 0.78125)" xlink:href="#DejaVuSans-46"/>
     <use transform="translate(381.171875 0.78125)" xlink:href="#DejaVuSans-50"/>
    </g>
   </g>
  </g>
  <g id="axes_6">
   <g id="PathCollection_34">
    <path clip-path="url(#p2234993df1)" d="M 339.584024 260.242451 
L 344.179947 260.301926 
L 346.586307 260.341477 
L 351.187433 257.895529 
L 353.588695 255.494268 
L 356.034642 250.893141 
L 355.995091 248.486781 
L 355.935616 243.890859 
L 354.99078 242.488774 
L 353.588695 239.628818 
L 352.122255 238.35491 
L 350.848348 236.888471 
L 347.988392 235.486386 
L 346.586307 234.541549 
L 341.990384 234.482074 
L 339.584024 234.442524 
L 334.982898 236.888471 
L 332.581636 239.289732 
L 330.135689 243.890859 
L 330.17524 246.297219 
L 330.234714 250.893141 
L 331.179551 252.295227 
L 332.581636 255.155183 
L 334.048075 256.42909 
L 335.321982 257.895529 
L 338.181939 259.297615 
" style="fill:#481668;"/>
   </g>
   <g id="PathCollection_35">
    <path clip-path="url(#p2234993df1)" d="M 338.181939 259.297615 
L 335.321982 257.895529 
L 334.048075 256.42909 
L 332.581636 255.155183 
L 331.179551 252.295227 
L 330.234714 250.893141 
L 330.17524 246.297219 
L 330.135689 243.890859 
L 332.581636 239.289732 
L 334.982898 236.888471 
L 339.584024 234.442524 
L 341.990384 234.482074 
L 346.586307 234.541549 
L 347.988392 235.486386 
L 350.848348 236.888471 
L 352.122255 238.35491 
L 353.588695 239.628818 
L 354.99078 242.488774 
L 355.935616 243.890859 
L 355.995091 248.486781 
L 356.034642 250.893141 
L 353.588695 255.494268 
L 351.187433 257.895529 
L 346.586307 260.341477 
L 344.179947 260.301926 
L 339.584024 260.242451 
M 339.584024 274.050406 
L 344.400506 274.086034 
L 346.586307 274.095142 
L 351.844665 271.9002 
L 353.588695 271.07625 
L 357.472195 268.016758 
L 360.591083 265.476624 
L 361.16979 264.897917 
L 363.709923 261.77903 
L 366.769415 257.895529 
L 367.593366 256.151499 
L 369.788307 250.893141 
L 369.7792 248.70734 
L 369.743571 243.890859 
L 369.032306 242.451918 
L 367.593366 238.885053 
L 366.899992 237.581855 
L 366.621826 236.888471 
L 363.702829 233.776678 
L 360.995456 229.886083 
L 360.780746 229.69642 
L 360.591083 229.481709 
L 356.700487 226.774337 
L 353.588695 223.85534 
L 352.895311 223.577173 
L 351.592112 222.8838 
L 348.025248 221.444859 
L 346.586307 220.733594 
L 341.769825 220.697966 
L 339.584024 220.688858 
L 334.325666 222.8838 
L 332.581636 223.70775 
L 328.698135 226.767242 
L 325.579248 229.307376 
L 325.000541 229.886083 
L 322.460407 233.00497 
L 319.400916 236.888471 
L 318.576965 238.6325 
L 316.382024 243.890859 
L 316.391131 246.07666 
L 316.426759 250.893141 
L 317.138024 252.332082 
L 318.576965 255.898948 
L 319.270339 257.202146 
L 319.548505 257.895529 
L 322.467502 261.007322 
L 325.174874 264.897917 
L 325.389585 265.087581 
L 325.579248 265.302291 
L 329.469843 268.009663 
L 332.581636 270.928661 
L 333.27502 271.206827 
L 334.578218 271.9002 
L 338.145083 273.339141 
" style="fill:#443983;"/>
   </g>
   <g id="PathCollection_36">
    <path clip-path="url(#p2234993df1)" d="M 338.145083 273.339141 
L 334.578218 271.9002 
L 333.27502 271.206827 
L 332.581636 270.928661 
L 329.469843 268.009663 
L 325.579248 265.302291 
L 325.389585 265.087581 
L 325.174874 264.897917 
L 322.467502 261.007322 
L 319.548505 257.895529 
L 319.270339 257.202146 
L 318.576965 255.898948 
L 317.138024 252.332082 
L 316.426759 250.893141 
L 316.391131 246.07666 
L 316.382024 243.890859 
L 318.576965 238.6325 
L 319.400916 236.888471 
L 322.460407 233.00497 
L 325.000541 229.886083 
L 325.579248 229.307376 
L 328.698135 226.767242 
L 332.581636 223.70775 
L 334.325666 222.8838 
L 339.584024 220.688858 
L 341.769825 220.697966 
L 346.586307 220.733594 
L 348.025248 221.444859 
L 351.592112 222.8838 
L 352.895311 223.577173 
L 353.588695 223.85534 
L 356.700487 226.774337 
L 360.591083 229.481709 
L 360.780746 229.69642 
L 360.995456 229.886083 
L 363.702829 233.776678 
L 366.621826 236.888471 
L 366.899992 237.581855 
L 367.593366 238.885053 
L 369.032306 242.451918 
L 369.743571 243.890859 
L 369.7792 248.70734 
L 369.788307 250.893141 
L 367.593366 256.151499 
L 366.769415 257.895529 
L 363.709923 261.77903 
L 361.16979 264.897917 
L 360.591083 265.476624 
L 357.472195 268.016758 
L 353.588695 271.07625 
L 351.844665 271.9002 
L 346.586307 274.095142 
L 344.400506 274.086034 
L 339.584024 274.050406 
M 332.581636 280.801713 
L 336.01867 282.467942 
L 339.584024 284.42376 
L 341.058912 284.430066 
L 346.586307 284.429914 
L 349.520483 282.9708 
L 353.588695 280.852529 
L 355.748145 278.902588 
L 360.591083 275.076868 
L 363.859285 271.9002 
L 367.593366 268.16612 
L 370.770034 264.897917 
L 374.595754 260.054979 
L 376.545694 257.895529 
L 378.663965 253.827318 
L 380.123079 250.893141 
L 380.123231 245.365747 
L 380.116925 243.890859 
L 378.161107 240.325505 
L 376.494878 236.888471 
L 375.554484 235.929741 
L 374.595754 234.812092 
L 372.295744 232.186092 
L 370.666953 229.886083 
L 369.081088 228.398383 
L 367.593366 226.739113 
L 365.546308 224.930858 
L 363.738052 222.8838 
L 362.078783 221.396078 
L 360.591083 219.810212 
L 358.291073 218.181421 
L 355.665073 215.881412 
L 354.547425 214.922682 
L 353.588695 213.982287 
L 350.151661 212.316058 
L 346.586307 210.360241 
L 345.111418 210.353935 
L 339.584024 210.354086 
L 336.649847 211.8132 
L 332.581636 213.931471 
L 330.422186 215.881412 
L 325.579248 219.707132 
L 322.311046 222.8838 
L 318.576965 226.61788 
L 315.400297 229.886083 
L 311.574577 234.729021 
L 309.624636 236.888471 
L 307.506366 240.956682 
L 306.047252 243.890859 
L 306.0471 249.418253 
L 306.053406 250.893141 
L 308.009223 254.458495 
L 309.675452 257.895529 
L 310.615847 258.85426 
L 311.574577 259.971908 
L 313.874586 262.597908 
L 315.503377 264.897917 
L 317.089243 266.385617 
L 318.576965 268.044887 
L 320.624023 269.853143 
L 322.432278 271.9002 
L 324.091548 273.387923 
L 325.579248 274.973788 
L 327.879257 276.602579 
L 330.505257 278.902588 
L 331.622906 279.861318 
" style="fill:#375a8c;"/>
   </g>
   <g id="PathCollection_37">
    <path clip-path="url(#p2234993df1)" d="M 350.060907 299.909647 
L 353.19074 293.305243 
L 353.37406 292.907291 
L 353.588695 292.743089 
L 358.648912 285.904976 
L 360.591083 284.139643 
L 365.216157 278.902588 
L 367.593366 276.586824 
L 372.279989 271.9002 
L 374.595754 269.522992 
L 379.832808 264.897917 
L 381.598142 262.955747 
L 388.436247 257.895529 
L 388.600425 257.680925 
L 388.998325 257.497629 
L 395.602813 254.367742 
L 395.602813 250.893141 
L 395.602813 243.890859 
L 395.602813 240.109209 
L 393.387155 239.104128 
L 388.600425 236.925078 
L 388.584273 236.904622 
L 388.572303 236.888471 
L 384.468897 234.017672 
L 381.598142 231.842621 
L 380.629317 230.854907 
L 379.79825 229.886083 
L 376.952182 227.529689 
L 374.595754 225.348397 
L 373.324087 224.155447 
L 372.183912 222.8838 
L 369.819344 220.657822 
L 367.593366 218.293253 
L 366.321718 217.153078 
L 365.128768 215.881412 
L 362.947476 213.524983 
L 360.591083 210.678916 
L 359.622258 209.847848 
L 358.634544 208.879024 
L 356.459494 206.008268 
L 353.588695 201.904863 
L 353.572543 201.892892 
L 353.552087 201.876741 
L 351.373038 197.09001 
L 350.367957 194.874353 
L 346.586307 194.874353 
L 339.584024 194.874353 
L 336.109423 194.874353 
L 332.979537 201.47884 
L 332.796241 201.876741 
L 332.581636 202.040919 
L 327.521419 208.879024 
L 325.579248 210.644357 
L 320.954174 215.881412 
L 318.576965 218.197176 
L 313.890341 222.8838 
L 311.574577 225.261008 
L 306.337523 229.886083 
L 304.572189 231.828253 
L 297.734076 236.888471 
L 297.569875 237.103106 
L 297.171922 237.286425 
L 290.567518 240.416259 
L 290.567518 243.890859 
L 290.567518 250.893141 
L 290.567518 254.674791 
L 292.783172 255.679866 
L 297.569875 257.858893 
L 297.586038 257.879366 
L 297.598018 257.895529 
L 301.701424 260.766325 
L 304.572189 262.941379 
L 305.541014 263.929093 
L 306.372081 264.897917 
L 309.218148 267.254311 
L 311.574577 269.435603 
L 312.846244 270.628553 
L 313.986418 271.9002 
L 316.350987 274.126179 
L 318.576965 276.490747 
L 319.848612 277.630922 
L 321.041562 278.902588 
L 323.222855 281.259017 
L 325.579248 284.105085 
L 326.548072 284.936152 
L 327.535786 285.904976 
L 329.710841 288.775741 
L 332.581636 292.879147 
L 332.5978 292.891127 
L 332.618272 292.907291 
L 334.7973 297.693993 
L 335.802375 299.909647 
L 339.584024 299.909647 
L 346.586307 299.909647 
M 331.622906 279.861318 
L 330.505257 278.902588 
L 327.879257 276.602579 
L 325.579248 274.973788 
L 324.091548 273.387923 
L 322.432278 271.9002 
L 320.624023 269.853143 
L 318.576965 268.044887 
L 317.089243 266.385617 
L 315.503377 264.897917 
L 313.874586 262.597908 
L 311.574577 259.971908 
L 310.615847 258.85426 
L 309.675452 257.895529 
L 308.009223 254.458495 
L 306.053406 250.893141 
L 306.0471 249.418253 
L 306.047252 243.890859 
L 307.506366 240.956682 
L 309.624636 236.888471 
L 311.574577 234.729021 
L 315.400297 229.886083 
L 318.576965 226.61788 
L 322.311046 222.8838 
L 325.579248 219.707132 
L 330.422186 215.881412 
L 332.581636 213.931471 
L 336.649847 211.8132 
L 339.584024 210.354086 
L 345.111418 210.353935 
L 346.586307 210.360241 
L 350.151661 212.316058 
L 353.588695 213.982287 
L 354.547425 214.922682 
L 355.665073 215.881412 
L 358.291073 218.181421 
L 360.591083 219.810212 
L 362.078783 221.396078 
L 363.738052 222.8838 
L 365.546308 224.930858 
L 367.593366 226.739113 
L 369.081088 228.398383 
L 370.666953 229.886083 
L 372.295744 232.186092 
L 374.595754 234.812092 
L 375.554484 235.929741 
L 376.494878 236.888471 
L 378.161107 240.325505 
L 380.116925 243.890859 
L 380.123231 245.365747 
L 380.123079 250.893141 
L 378.663965 253.827318 
L 376.545694 257.895529 
L 374.595754 260.054979 
L 370.770034 264.897917 
L 367.593366 268.16612 
L 363.859285 271.9002 
L 360.591083 275.076868 
L 355.748145 278.902588 
L 353.588695 280.852529 
L 349.520483 282.9708 
L 346.586307 284.429914 
L 341.058912 284.430066 
L 339.584024 284.42376 
L 336.01867 282.467942 
L 332.581636 280.801713 
" style="fill:#2b758e;"/>
   </g>
   <g id="PathCollection_38">
    <path clip-path="url(#p2234993df1)" d="M 335.802375 299.909647 
L 334.7973 297.693993 
L 332.618272 292.907291 
L 332.5978 292.891127 
L 332.581636 292.879147 
L 329.710841 288.775741 
L 327.535786 285.904976 
L 326.548072 284.936152 
L 325.579248 284.105085 
L 323.222855 281.259017 
L 321.041562 278.902588 
L 319.848612 277.630922 
L 318.576965 276.490747 
L 316.350987 274.126179 
L 313.986418 271.9002 
L 312.846244 270.628553 
L 311.574577 269.435603 
L 309.218148 267.254311 
L 306.372081 264.897917 
L 305.541014 263.929093 
L 304.572189 262.941379 
L 301.701424 260.766325 
L 297.598018 257.895529 
L 297.586038 257.879366 
L 297.569875 257.858893 
L 292.783172 255.679866 
L 290.567518 254.674791 
L 290.567518 257.895529 
L 290.567518 264.897917 
L 290.567518 265.758693 
L 295.723341 266.744432 
L 297.569875 267.112854 
L 300.635014 268.835075 
L 304.572189 271.213651 
L 304.947777 271.524618 
L 305.353515 271.9002 
L 308.76964 274.705138 
L 311.574577 277.205329 
L 312.448827 278.028338 
L 313.271837 278.902588 
L 315.772027 281.707526 
L 318.576965 285.12365 
L 318.952547 285.529388 
L 319.263514 285.904976 
L 321.64209 289.842152 
L 323.364311 292.907291 
L 323.732733 294.753825 
L 324.718472 299.909647 
L 325.579248 299.909647 
L 332.581636 299.909647 
M 361.226062 299.909647 
L 361.409201 299.091521 
L 362.752543 292.907291 
L 366.061545 287.436804 
L 366.973451 285.904976 
L 367.593366 285.207287 
L 373.020794 278.902588 
L 374.595754 277.327629 
L 380.900453 271.9002 
L 381.598142 271.280286 
L 383.129955 270.368387 
L 388.600425 267.059391 
L 394.78468 265.716038 
L 395.602813 265.532897 
L 395.602813 264.897917 
L 395.602813 257.895529 
L 395.602813 254.367742 
L 388.998325 257.497629 
L 388.600425 257.680925 
L 388.436247 257.895529 
L 381.598142 262.955747 
L 379.832808 264.897917 
L 374.595754 269.522992 
L 372.279989 271.9002 
L 367.593366 276.586824 
L 365.216157 278.902588 
L 360.591083 284.139643 
L 358.648912 285.904976 
L 353.588695 292.743089 
L 353.37406 292.907291 
L 353.19074 293.305243 
L 350.060907 299.909647 
L 353.588695 299.909647 
L 360.591083 299.909647 
M 395.602813 229.025307 
L 390.446974 228.039561 
L 388.600425 227.671134 
L 385.535304 225.948921 
L 381.598142 223.570349 
L 381.222553 223.259382 
L 380.816815 222.8838 
L 377.400691 220.078862 
L 374.595754 217.578672 
L 373.721503 216.755662 
L 372.898494 215.881412 
L 370.398303 213.076474 
L 367.593366 209.66035 
L 367.217783 209.254612 
L 366.906816 208.879024 
L 364.528245 204.941862 
L 362.806031 201.876741 
L 362.437605 200.030191 
L 361.451859 194.874353 
L 360.591083 194.874353 
L 353.588695 194.874353 
L 350.367957 194.874353 
L 351.373038 197.09001 
L 353.552087 201.876741 
L 353.572543 201.892892 
L 353.588695 201.904863 
L 356.459494 206.008268 
L 358.634544 208.879024 
L 359.622258 209.847848 
L 360.591083 210.678916 
L 362.947476 213.524983 
L 365.128768 215.881412 
L 366.321718 217.153078 
L 367.593366 218.293253 
L 369.819344 220.657822 
L 372.183912 222.8838 
L 373.324087 224.155447 
L 374.595754 225.348397 
L 376.952182 227.529689 
L 379.79825 229.886083 
L 380.629317 230.854907 
L 381.598142 231.842621 
L 384.468897 234.017672 
L 388.572303 236.888471 
L 388.584273 236.904622 
L 388.600425 236.925078 
L 393.387155 239.104128 
L 395.602813 240.109209 
L 395.602813 236.888471 
L 395.602813 229.886083 
M 324.944268 194.874353 
L 324.761128 195.692486 
L 323.417774 201.876741 
L 320.108779 207.34721 
L 319.196879 208.879024 
L 318.576965 209.576713 
L 313.149536 215.881412 
L 311.574577 217.456371 
L 305.269878 222.8838 
L 304.572189 223.503714 
L 303.040361 224.415621 
L 297.569875 227.724622 
L 291.385645 229.067965 
L 290.567518 229.251103 
L 290.567518 229.886083 
L 290.567518 236.888471 
L 290.567518 240.416259 
L 297.171922 237.286425 
L 297.569875 237.103106 
L 297.734076 236.888471 
L 304.572189 231.828253 
L 306.337523 229.886083 
L 311.574577 225.261008 
L 313.890341 222.8838 
L 318.576965 218.197176 
L 320.954174 215.881412 
L 325.579248 210.644357 
L 327.521419 208.879024 
L 332.581636 202.040919 
L 332.796241 201.876741 
L 332.979537 201.47884 
L 336.109423 194.874353 
L 332.581636 194.874353 
L 325.579248 194.874353 
" style="fill:#21918c;"/>
   </g>
   <g id="PathCollection_39">
    <path clip-path="url(#p2234993df1)" d="M 324.718472 299.909647 
L 323.732733 294.753825 
L 323.364311 292.907291 
L 321.64209 289.842152 
L 319.263514 285.904976 
L 318.952547 285.529388 
L 318.576965 285.12365 
L 315.772027 281.707526 
L 313.271837 278.902588 
L 312.448827 278.028338 
L 311.574577 277.205329 
L 308.76964 274.705138 
L 305.353515 271.9002 
L 304.947777 271.524618 
L 304.572189 271.213651 
L 300.635014 268.835075 
L 297.569875 267.112854 
L 295.723341 266.744432 
L 290.567518 265.758693 
L 290.567518 271.9002 
L 290.567518 273.219203 
L 295.360073 274.110012 
L 297.569875 274.541502 
L 300.379253 276.093181 
L 304.572189 278.55283 
L 304.764249 278.710528 
L 304.979719 278.902588 
L 308.329018 282.148148 
L 311.574577 285.497446 
L 311.766637 285.712916 
L 311.924335 285.904976 
L 314.383985 290.097913 
L 315.935664 292.907291 
L 316.367154 295.117092 
L 317.257963 299.909647 
L 318.576965 299.909647 
M 368.789654 299.909647 
L 369.121415 298.381604 
L 370.296839 292.907291 
L 374.165247 286.335478 
L 374.41626 285.904976 
L 374.595754 285.697429 
L 381.390595 278.902588 
L 381.598142 278.723094 
L 382.02864 278.472083 
L 388.600425 274.603687 
L 394.074759 273.428254 
L 395.602813 273.096489 
L 395.602813 271.9002 
L 395.602813 265.532897 
L 394.78468 265.716038 
L 388.600425 267.059391 
L 383.129955 270.368387 
L 381.598142 271.280286 
L 380.900453 271.9002 
L 374.595754 277.327629 
L 373.020794 278.902588 
L 367.593366 285.207287 
L 366.973451 285.904976 
L 366.061545 287.436804 
L 362.752543 292.907291 
L 361.409201 299.091521 
L 361.226062 299.909647 
L 367.593366 299.909647 
M 395.602813 221.564798 
L 390.810243 220.673982 
L 388.600425 220.242487 
L 385.791064 218.690815 
L 381.598142 216.23117 
L 381.406081 216.073472 
L 381.190611 215.881412 
L 377.841313 212.635852 
L 374.595754 209.286554 
L 374.403693 209.071084 
L 374.245995 208.879024 
L 371.786351 204.686102 
L 370.234679 201.876741 
L 369.803184 199.666923 
L 368.912368 194.874353 
L 367.593366 194.874353 
L 361.451859 194.874353 
L 362.437605 200.030191 
L 362.806031 201.876741 
L 364.528245 204.941862 
L 366.906816 208.879024 
L 367.217783 209.254612 
L 367.593366 209.66035 
L 370.398303 213.076474 
L 372.898494 215.881412 
L 373.721503 216.755662 
L 374.595754 217.578672 
L 377.400691 220.078862 
L 380.816815 222.8838 
L 381.222553 223.259382 
L 381.598142 223.570349 
L 385.535304 225.948921 
L 388.600425 227.671134 
L 390.446974 228.039561 
L 395.602813 229.025307 
L 395.602813 222.8838 
M 317.380676 194.874353 
L 317.048911 196.402407 
L 315.873479 201.876741 
L 312.005082 208.448526 
L 311.754071 208.879024 
L 311.574577 209.086571 
L 304.779736 215.881412 
L 304.572189 216.060906 
L 304.141687 216.311919 
L 297.569875 220.180327 
L 292.095561 221.35575 
L 290.567518 221.687511 
L 290.567518 222.8838 
L 290.567518 229.251103 
L 291.385645 229.067965 
L 297.569875 227.724622 
L 303.040361 224.415621 
L 304.572189 223.503714 
L 305.269878 222.8838 
L 311.574577 217.456371 
L 313.149536 215.881412 
L 318.576965 209.576713 
L 319.196879 208.879024 
L 320.108779 207.34721 
L 323.417774 201.876741 
L 324.761128 195.692486 
L 324.944268 194.874353 
L 318.576965 194.874353 
" style="fill:#25ab82;"/>
   </g>
   <g id="PathCollection_40">
    <path clip-path="url(#p2234993df1)" d="M 317.257963 299.909647 
L 316.367154 295.117092 
L 315.935664 292.907291 
L 314.383985 290.097913 
L 311.924335 285.904976 
L 311.766637 285.712916 
L 311.574577 285.497446 
L 308.329018 282.148148 
L 304.979719 278.902588 
L 304.764249 278.710528 
L 304.572189 278.55283 
L 300.379253 276.093181 
L 297.569875 274.541502 
L 295.360073 274.110012 
L 290.567518 273.219203 
L 290.567518 278.902588 
L 290.567518 280.471913 
L 295.029552 281.442923 
L 297.569875 282.034015 
L 299.919373 283.555453 
L 303.348471 285.904976 
L 303.970862 286.506303 
L 304.572189 287.128695 
L 306.921712 290.557792 
L 308.443151 292.907291 
L 309.034242 295.447614 
L 310.005253 299.909647 
L 311.574577 299.909647 
M 376.30665 299.909647 
L 376.867724 297.637687 
L 378.050826 292.907291 
L 381.598142 287.68903 
L 383.382193 285.904976 
L 388.600425 282.357676 
L 393.330836 281.174565 
L 395.602813 280.613484 
L 395.602813 278.902588 
L 395.602813 273.096489 
L 394.074759 273.428254 
L 388.600425 274.603687 
L 382.02864 278.472083 
L 381.598142 278.723094 
L 381.390595 278.902588 
L 374.595754 285.697429 
L 374.41626 285.904976 
L 374.165247 286.335478 
L 370.296839 292.907291 
L 369.121415 298.381604 
L 368.789654 299.909647 
L 374.595754 299.909647 
M 395.602813 214.312088 
L 391.140766 213.34107 
L 388.600425 212.749972 
L 386.250942 211.228541 
L 382.821858 208.879024 
L 382.199468 208.277698 
L 381.598142 207.655308 
L 379.248624 204.226223 
L 377.727194 201.876741 
L 377.136095 199.3364 
L 376.165078 194.874353 
L 374.595754 194.874353 
L 368.912368 194.874353 
L 369.803184 199.666923 
L 370.234679 201.876741 
L 371.786351 204.686102 
L 374.245995 208.879024 
L 374.403693 209.071084 
L 374.595754 209.286554 
L 377.841313 212.635852 
L 381.190611 215.881412 
L 381.406081 216.073472 
L 381.598142 216.23117 
L 385.791064 218.690815 
L 388.600425 220.242487 
L 390.810243 220.673982 
L 395.602813 221.564798 
L 395.602813 215.881412 
M 309.863681 194.874353 
L 309.3026 197.14633 
L 308.119489 201.876741 
L 304.572189 207.094973 
L 302.788136 208.879024 
L 297.569875 212.426339 
L 292.839478 213.609442 
L 290.567518 214.170516 
L 290.567518 215.881412 
L 290.567518 221.687511 
L 292.095561 221.35575 
L 297.569875 220.180327 
L 304.141687 216.311919 
L 304.572189 216.060906 
L 304.779736 215.881412 
L 311.574577 209.086571 
L 311.754071 208.879024 
L 312.005082 208.448526 
L 315.873479 201.876741 
L 317.048911 196.402407 
L 317.380676 194.874353 
L 311.574577 194.874353 
" style="fill:#4ec36b;"/>
   </g>
   <g id="PathCollection_41">
    <path clip-path="url(#p2234993df1)" d="M 310.005253 299.909647 
L 309.034242 295.447614 
L 308.443151 292.907291 
L 306.921712 290.557792 
L 304.572189 287.128695 
L 303.970862 286.506303 
L 303.348471 285.904976 
L 299.919373 283.555453 
L 297.569875 282.034015 
L 295.029552 281.442923 
L 290.567518 280.471913 
L 290.567518 285.904976 
L 290.567518 289.465143 
L 293.16606 290.308764 
L 297.569875 291.935117 
L 298.064329 292.412836 
L 298.542049 292.907291 
L 300.168401 297.311105 
L 301.012022 299.909647 
L 304.572189 299.909647 
M 386.381011 299.909647 
L 388.600425 293.535061 
L 389.228193 292.907291 
L 395.602813 290.687855 
L 395.602813 285.904976 
L 395.602813 280.613484 
L 393.330836 281.174565 
L 388.600425 282.357676 
L 383.382193 285.904976 
L 381.598142 287.68903 
L 378.050826 292.907291 
L 376.867724 297.637687 
L 376.30665 299.909647 
L 381.598142 299.909647 
M 395.602813 205.31886 
L 393.004276 204.475238 
L 388.600425 202.848869 
L 388.105994 202.371172 
L 387.628297 201.876741 
L 386.001927 197.472889 
L 385.158305 194.874353 
L 381.598142 194.874353 
L 376.165078 194.874353 
L 377.136095 199.3364 
L 377.727194 201.876741 
L 379.248624 204.226223 
L 381.598142 207.655308 
L 382.199468 208.277698 
L 382.821858 208.879024 
L 386.250942 211.228541 
L 388.600425 212.749972 
L 391.140766 213.34107 
L 395.602813 214.312088 
L 395.602813 208.879024 
M 299.78931 194.874353 
L 297.569875 201.248972 
L 296.942104 201.876741 
L 290.567518 204.096154 
L 290.567518 208.879024 
L 290.567518 214.170516 
L 292.839478 213.609442 
L 297.569875 212.426339 
L 302.788136 208.879024 
L 304.572189 207.094973 
L 308.119489 201.876741 
L 309.3026 197.14633 
L 309.863681 194.874353 
L 304.572189 194.874353 
" style="fill:#90d743;"/>
   </g>
   <g id="PathCollection_42">
    <path clip-path="url(#p2234993df1)" d="M 301.012022 299.909647 
L 300.168401 297.311105 
L 298.542049 292.907291 
L 298.064329 292.412836 
L 297.569875 291.935117 
L 293.16606 290.308764 
L 290.567518 289.465143 
L 290.567518 292.907291 
L 290.567518 299.909647 
L 297.569875 299.909647 
M 395.602813 290.687855 
L 389.228193 292.907291 
L 388.600425 293.535061 
L 386.381011 299.909647 
L 388.600425 299.909647 
L 395.602813 299.909647 
L 395.602813 292.907291 
M 385.158305 194.874353 
L 386.001927 197.472889 
L 387.628297 201.876741 
L 388.105994 202.371172 
L 388.600425 202.848869 
L 393.004276 204.475238 
L 395.602813 205.31886 
L 395.602813 201.876741 
L 395.602813 194.874353 
L 388.600425 194.874353 
M 290.567518 204.096154 
L 296.942104 201.876741 
L 297.569875 201.248972 
L 299.78931 194.874353 
L 297.569875 194.874353 
L 290.567518 194.874353 
L 290.567518 201.876741 
" style="fill:#dae319;"/>
   </g>
   <g id="text_6">
    <!-- $\sigma=$-43.2 -->
    <defs>
     <path d="M 37.796875 64.3125 
L 12.890625 25.390625 
L 37.796875 25.390625 
z
M 35.203125 72.90625 
L 47.609375 72.90625 
L 47.609375 25.390625 
L 58.015625 25.390625 
L 58.015625 17.1875 
L 47.609375 17.1875 
L 47.609375 0 
L 37.796875 0 
L 37.796875 17.1875 
L 4.890625 17.1875 
L 4.890625 26.703125 
z
" id="DejaVuSans-52"/>
     <path d="M 40.578125 39.3125 
Q 47.65625 37.796875 51.625 33 
Q 55.609375 28.21875 55.609375 21.1875 
Q 55.609375 10.40625 48.1875 4.484375 
Q 40.765625 -1.421875 27.09375 -1.421875 
Q 22.515625 -1.421875 17.65625 -0.515625 
Q 12.796875 0.390625 7.625 2.203125 
L 7.625 11.71875 
Q 11.71875 9.328125 16.59375 8.109375 
Q 21.484375 6.890625 26.8125 6.890625 
Q 36.078125 6.890625 40.9375 10.546875 
Q 45.796875 14.203125 45.796875 21.1875 
Q 45.796875 27.640625 41.28125 31.265625 
Q 36.765625 34.90625 28.71875 34.90625 
L 20.21875 34.90625 
L 20.21875 43.015625 
L 29.109375 43.015625 
Q 36.375 43.015625 40.234375 45.921875 
Q 44.09375 48.828125 44.09375 54.296875 
Q 44.09375 59.90625 40.109375 62.90625 
Q 36.140625 65.921875 28.71875 65.921875 
Q 24.65625 65.921875 20.015625 65.03125 
Q 15.375 64.15625 9.8125 62.3125 
L 9.8125 71.09375 
Q 15.4375 72.65625 20.34375 73.4375 
Q 25.25 74.21875 29.59375 74.21875 
Q 40.828125 74.21875 47.359375 69.109375 
Q 53.90625 64.015625 53.90625 55.328125 
Q 53.90625 49.265625 50.4375 45.09375 
Q 46.96875 40.921875 40.578125 39.3125 
z
" id="DejaVuSans-51"/>
    </defs>
    <g transform="translate(316.385165 180.912)scale(0.12 -0.12)">
     <use transform="translate(0 0.78125)" xlink:href="#DejaVuSans-Oblique-963"/>
     <use transform="translate(82.861328 0.78125)" xlink:href="#DejaVuSans-61"/>
     <use transform="translate(186.132812 0.78125)" xlink:href="#DejaVuSans-45"/>
     <use transform="translate(222.216797 0.78125)" xlink:href="#DejaVuSans-52"/>
     <use transform="translate(285.839844 0.78125)" xlink:href="#DejaVuSans-51"/>
     <use transform="translate(349.462891 0.78125)" xlink:href="#DejaVuSans-46"/>
     <use transform="translate(381.171875 0.78125)" xlink:href="#DejaVuSans-50"/>
    </g>
   </g>
  </g>
  <g id="text_7">
   <!-- Classical diffusion -->
   <defs>
    <path d="M 64.40625 67.28125 
L 64.40625 56.890625 
Q 59.421875 61.53125 53.78125 63.8125 
Q 48.140625 66.109375 41.796875 66.109375 
Q 29.296875 66.109375 22.65625 58.46875 
Q 16.015625 50.828125 16.015625 36.375 
Q 16.015625 21.96875 22.65625 14.328125 
Q 29.296875 6.6875 41.796875 6.6875 
Q 48.140625 6.6875 53.78125 8.984375 
Q 59.421875 11.28125 64.40625 15.921875 
L 64.40625 5.609375 
Q 59.234375 2.09375 53.4375 0.328125 
Q 47.65625 -1.421875 41.21875 -1.421875 
Q 24.65625 -1.421875 15.125 8.703125 
Q 5.609375 18.84375 5.609375 36.375 
Q 5.609375 53.953125 15.125 64.078125 
Q 24.65625 74.21875 41.21875 74.21875 
Q 47.75 74.21875 53.53125 72.484375 
Q 59.328125 70.75 64.40625 67.28125 
z
" id="DejaVuSans-67"/>
    <path d="M 9.421875 75.984375 
L 18.40625 75.984375 
L 18.40625 0 
L 9.421875 0 
z
" id="DejaVuSans-108"/>
    <path d="M 34.28125 27.484375 
Q 23.390625 27.484375 19.1875 25 
Q 14.984375 22.515625 14.984375 16.5 
Q 14.984375 11.71875 18.140625 8.90625 
Q 21.296875 6.109375 26.703125 6.109375 
Q 34.1875 6.109375 38.703125 11.40625 
Q 43.21875 16.703125 43.21875 25.484375 
L 43.21875 27.484375 
z
M 52.203125 31.203125 
L 52.203125 0 
L 43.21875 0 
L 43.21875 8.296875 
Q 40.140625 3.328125 35.546875 0.953125 
Q 30.953125 -1.421875 24.3125 -1.421875 
Q 15.921875 -1.421875 10.953125 3.296875 
Q 6 8.015625 6 15.921875 
Q 6 25.140625 12.171875 29.828125 
Q 18.359375 34.515625 30.609375 34.515625 
L 43.21875 34.515625 
L 43.21875 35.40625 
Q 43.21875 41.609375 39.140625 45 
Q 35.0625 48.390625 27.6875 48.390625 
Q 23 48.390625 18.546875 47.265625 
Q 14.109375 46.140625 10.015625 43.890625 
L 10.015625 52.203125 
Q 14.9375 54.109375 19.578125 55.046875 
Q 24.21875 56 28.609375 56 
Q 40.484375 56 46.34375 49.84375 
Q 52.203125 43.703125 52.203125 31.203125 
z
" id="DejaVuSans-97"/>
    <path d="M 48.78125 52.59375 
L 48.78125 44.1875 
Q 44.96875 46.296875 41.140625 47.34375 
Q 37.3125 48.390625 33.40625 48.390625 
Q 24.65625 48.390625 19.8125 42.84375 
Q 14.984375 37.3125 14.984375 27.296875 
Q 14.984375 17.28125 19.8125 11.734375 
Q 24.65625 6.203125 33.40625 6.203125 
Q 37.3125 6.203125 41.140625 7.25 
Q 44.96875 8.296875 48.78125 10.40625 
L 48.78125 2.09375 
Q 45.015625 0.34375 40.984375 -0.53125 
Q 36.96875 -1.421875 32.421875 -1.421875 
Q 20.0625 -1.421875 12.78125 6.34375 
Q 5.515625 14.109375 5.515625 27.296875 
Q 5.515625 40.671875 12.859375 48.328125 
Q 20.21875 56 33.015625 56 
Q 37.15625 56 41.109375 55.140625 
Q 45.0625 54.296875 48.78125 52.59375 
z
" id="DejaVuSans-99"/>
    <path id="DejaVuSans-32"/>
    <path d="M 45.40625 46.390625 
L 45.40625 75.984375 
L 54.390625 75.984375 
L 54.390625 0 
L 45.40625 0 
L 45.40625 8.203125 
Q 42.578125 3.328125 38.25 0.953125 
Q 33.9375 -1.421875 27.875 -1.421875 
Q 17.96875 -1.421875 11.734375 6.484375 
Q 5.515625 14.40625 5.515625 27.296875 
Q 5.515625 40.1875 11.734375 48.09375 
Q 17.96875 56 27.875 56 
Q 33.9375 56 38.25 53.625 
Q 42.578125 51.265625 45.40625 46.390625 
z
M 14.796875 27.296875 
Q 14.796875 17.390625 18.875 11.75 
Q 22.953125 6.109375 30.078125 6.109375 
Q 37.203125 6.109375 41.296875 11.75 
Q 45.40625 17.390625 45.40625 27.296875 
Q 45.40625 37.203125 41.296875 42.84375 
Q 37.203125 48.484375 30.078125 48.484375 
Q 22.953125 48.484375 18.875 42.84375 
Q 14.796875 37.203125 14.796875 27.296875 
z
" id="DejaVuSans-100"/>
    <path d="M 30.609375 48.390625 
Q 23.390625 48.390625 19.1875 42.75 
Q 14.984375 37.109375 14.984375 27.296875 
Q 14.984375 17.484375 19.15625 11.84375 
Q 23.34375 6.203125 30.609375 6.203125 
Q 37.796875 6.203125 41.984375 11.859375 
Q 46.1875 17.53125 46.1875 27.296875 
Q 46.1875 37.015625 41.984375 42.703125 
Q 37.796875 48.390625 30.609375 48.390625 
z
M 30.609375 56 
Q 42.328125 56 49.015625 48.375 
Q 55.71875 40.765625 55.71875 27.296875 
Q 55.71875 13.875 49.015625 6.21875 
Q 42.328125 -1.421875 30.609375 -1.421875 
Q 18.84375 -1.421875 12.171875 6.21875 
Q 5.515625 13.875 5.515625 27.296875 
Q 5.515625 40.765625 12.171875 48.375 
Q 18.84375 56 30.609375 56 
z
" id="DejaVuSans-111"/>
    <path d="M 54.890625 33.015625 
L 54.890625 0 
L 45.90625 0 
L 45.90625 32.71875 
Q 45.90625 40.484375 42.875 44.328125 
Q 39.84375 48.1875 33.796875 48.1875 
Q 26.515625 48.1875 22.3125 43.546875 
Q 18.109375 38.921875 18.109375 30.90625 
L 18.109375 0 
L 9.078125 0 
L 9.078125 54.6875 
L 18.109375 54.6875 
L 18.109375 46.1875 
Q 21.34375 51.125 25.703125 53.5625 
Q 30.078125 56 35.796875 56 
Q 45.21875 56 50.046875 50.171875 
Q 54.890625 44.34375 54.890625 33.015625 
z
" id="DejaVuSans-110"/>
   </defs>
   <g transform="translate(157.5125 16.318125)scale(0.12 -0.12)">
    <use xlink:href="#DejaVuSans-67"/>
    <use x="69.824219" xlink:href="#DejaVuSans-108"/>
    <use x="97.607422" xlink:href="#DejaVuSans-97"/>
    <use x="158.886719" xlink:href="#DejaVuSans-115"/>
    <use x="210.986328" xlink:href="#DejaVuSans-115"/>
    <use x="263.085938" xlink:href="#DejaVuSans-105"/>
    <use x="290.869141" xlink:href="#DejaVuSans-99"/>
    <use x="345.849609" xlink:href="#DejaVuSans-97"/>
    <use x="407.128906" xlink:href="#DejaVuSans-108"/>
    <use x="434.912109" xlink:href="#DejaVuSans-32"/>
    <use x="466.699219" xlink:href="#DejaVuSans-100"/>
    <use x="530.175781" xlink:href="#DejaVuSans-105"/>
    <use x="557.958984" xlink:href="#DejaVuSans-102"/>
    <use x="593.164062" xlink:href="#DejaVuSans-102"/>
    <use x="628.369141" xlink:href="#DejaVuSans-117"/>
    <use x="691.748047" xlink:href="#DejaVuSans-115"/>
    <use x="743.847656" xlink:href="#DejaVuSans-105"/>
    <use x="771.630859" xlink:href="#DejaVuSans-111"/>
    <use x="832.8125" xlink:href="#DejaVuSans-110"/>
   </g>
  </g>
 </g>
 <defs>
  <clipPath id="pc531998f9e">
   <rect height="120.96" width="105.035294" x="38.482813" y="41.76"/>
  </clipPath>
  <clipPath id="pcbc6e9ae27">
   <rect height="120.96" width="105.035294" x="164.525165" y="41.76"/>
  </clipPath>
  <clipPath id="ped0738693e">
   <rect height="120.96" width="105.035294" x="290.567518" y="41.76"/>
  </clipPath>
  <clipPath id="p9b1e7873ff">
   <rect height="120.96" width="105.035294" x="38.482813" y="186.912"/>
  </clipPath>
  <clipPath id="p0df3cb642f">
   <rect height="120.96" width="105.035294" x="164.525165" y="186.912"/>
  </clipPath>
  <clipPath id="p2234993df1">
   <rect height="120.96" width="105.035294" x="290.567518" y="186.912"/>
  </clipPath>
 </defs>
</svg>
