<?xml version="1.0" encoding="utf-8" standalone="no"?>
<!DOCTYPE svg PUBLIC "-//W3C//DTD SVG 1.1//EN"
  "http://www.w3.org/Graphics/SVG/1.1/DTD/svg11.dtd">
<!-- Created with matplotlib (https://matplotlib.org/) -->
<svg height="212.3pt" version="1.1" viewBox="0 0 422.9 212.3" width="422.9pt" xmlns="http://www.w3.org/2000/svg" xmlns:xlink="http://www.w3.org/1999/xlink">
 <metadata>
  <rdf:RDF xmlns:cc="http://creativecommons.org/ns#" xmlns:dc="http://purl.org/dc/elements/1.1/" xmlns:rdf="http://www.w3.org/1999/02/22-rdf-syntax-ns#">
   <cc:Work>
    <dc:type rdf:resource="http://purl.org/dc/dcmitype/StillImage"/>
    <dc:date>2024-04-02T16:26:57.206801</dc:date>
    <dc:format>image/svg+xml</dc:format>
    <dc:creator>
     <cc:Agent>
      <dc:title>Matplotlib v3.3.4, https://matplotlib.org/</dc:title>
     </cc:Agent>
    </dc:creator>
   </cc:Work>
  </rdf:RDF>
 </metadata>
 <defs>
  <style type="text/css">*{stroke-linecap:butt;stroke-linejoin:round;}</style>
 </defs>
 <g id="figure_1">
  <g id="patch_1">
   <path d="M 0 212.3 
L 422.9 212.3 
L 422.9 0 
L 0 0 
z
" style="fill:#ffffff;"/>
  </g>
  <g id="axes_1">
   <g id="patch_2">
    <path d="M 10.7 201.6 
L 205.1 201.6 
L 205.1 7.2 
L 10.7 7.2 
z
" style="fill:#ffffff;"/>
   </g>
   <g id="patch_3">
    <path clip-path="url(#p511d9f71c9)" d="M 19.536364 192.763636 
L 160.918182 192.763636 
z
" style="fill:none;stroke:#ff0000;stroke-linejoin:miter;stroke-width:3;"/>
   </g>
   <g id="patch_4">
    <path clip-path="url(#p511d9f71c9)" d="M 160.918182 192.763636 
L 196.263636 192.763636 
z
" style="fill:none;stroke:#ff0000;stroke-linejoin:miter;stroke-width:3;"/>
   </g>
   <g id="patch_5">
    <path clip-path="url(#p511d9f71c9)" d="M 196.263636 192.763636 
L 196.263636 16.036364 
z
" style="fill:none;stroke:#ff0000;stroke-linejoin:miter;stroke-width:3;"/>
   </g>
   <g id="patch_6">
    <path clip-path="url(#p511d9f71c9)" d="M 196.263636 16.036364 
L 19.536364 16.036364 
z
" style="fill:none;stroke:#ff0000;stroke-linejoin:miter;stroke-width:3;"/>
   </g>
   <g id="patch_7">
    <path clip-path="url(#p511d9f71c9)" d="M 19.536364 16.036364 
L 19.536364 192.763636 
z
" style="fill:none;stroke:#ff0000;stroke-linejoin:miter;stroke-width:3;"/>
   </g>
   <g id="patch_8">
    <path clip-path="url(#p511d9f71c9)" d="M 160.918182 192.763636 
L 37.209091 104.4 
z
" style="fill:none;stroke:#ff0000;stroke-linejoin:miter;stroke-width:3;"/>
   </g>
   <g id="patch_9">
    <path clip-path="url(#p511d9f71c9)" d="M 37.209091 104.4 
L 107.9 113.236364 
z
" style="fill:none;stroke:#ff0000;stroke-linejoin:miter;stroke-width:3;"/>
   </g>
   <g id="PathCollection_1">
    <defs>
     <path d="M 0 3 
C 0.795609 3 1.55874 2.683901 2.12132 2.12132 
C 2.683901 1.55874 3 0.795609 3 0 
C 3 -0.795609 2.683901 -1.55874 2.12132 -2.12132 
C 1.55874 -2.683901 0.795609 -3 0 -3 
C -0.795609 -3 -1.55874 -2.683901 -2.12132 -2.12132 
C -2.683901 -1.55874 -3 -0.795609 -3 0 
C -3 0.795609 -2.683901 1.55874 -2.12132 2.12132 
C -1.55874 2.683901 -0.795609 3 0 3 
z
" id="me7beb3eb63" style="stroke:#000000;"/>
    </defs>
    <g clip-path="url(#p511d9f71c9)">
     <use style="stroke:#000000;" x="19.536364" xlink:href="#me7beb3eb63" y="192.763636"/>
     <use style="stroke:#000000;" x="196.263636" xlink:href="#me7beb3eb63" y="192.763636"/>
     <use style="stroke:#000000;" x="196.263636" xlink:href="#me7beb3eb63" y="16.036364"/>
     <use style="stroke:#000000;" x="19.536364" xlink:href="#me7beb3eb63" y="16.036364"/>
     <use style="stroke:#000000;" x="160.918182" xlink:href="#me7beb3eb63" y="192.763636"/>
     <use style="stroke:#000000;" x="37.209091" xlink:href="#me7beb3eb63" y="104.4"/>
     <use style="stroke:#000000;" x="107.9" xlink:href="#me7beb3eb63" y="113.236364"/>
    </g>
   </g>
   <g id="patch_10">
    <path d="M 10.7 201.6 
L 10.7 7.2 
" style="fill:none;stroke:#000000;stroke-linecap:square;stroke-linejoin:miter;stroke-width:0.8;"/>
   </g>
   <g id="patch_11">
    <path d="M 205.1 201.6 
L 205.1 7.2 
" style="fill:none;stroke:#000000;stroke-linecap:square;stroke-linejoin:miter;stroke-width:0.8;"/>
   </g>
   <g id="patch_12">
    <path d="M 10.7 201.6 
L 205.1 201.6 
" style="fill:none;stroke:#000000;stroke-linecap:square;stroke-linejoin:miter;stroke-width:0.8;"/>
   </g>
   <g id="patch_13">
    <path d="M 10.7 7.2 
L 205.1 7.2 
" style="fill:none;stroke:#000000;stroke-linecap:square;stroke-linejoin:miter;stroke-width:0.8;"/>
   </g>
  </g>
  <g id="axes_2">
   <g id="patch_14">
    <path d="M 221.3 201.6 
L 415.7 201.6 
L 415.7 7.2 
L 221.3 7.2 
z
" style="fill:#ffffff;"/>
   </g>
   <g id="patch_15">
    <path clip-path="url(#pc2ac73f862)" d="M 371.518182 192.763636 
L 230.136364 192.763636 
z
" style="fill:none;stroke:#ff0000;stroke-linejoin:miter;stroke-width:3;"/>
   </g>
   <g id="patch_16">
    <path clip-path="url(#pc2ac73f862)" d="M 406.863636 192.763636 
L 371.518182 192.763636 
z
" style="fill:none;stroke:#ff0000;stroke-linejoin:miter;stroke-width:3;"/>
   </g>
   <g id="patch_17">
    <path clip-path="url(#pc2ac73f862)" d="M 406.863636 16.036364 
L 406.863636 192.763636 
z
" style="fill:none;stroke:#ff0000;stroke-linejoin:miter;stroke-width:3;"/>
   </g>
   <g id="patch_18">
    <path clip-path="url(#pc2ac73f862)" d="M 230.136364 16.036364 
L 406.863636 16.036364 
z
" style="fill:none;stroke:#ff0000;stroke-linejoin:miter;stroke-width:3;"/>
   </g>
   <g id="patch_19">
    <path clip-path="url(#pc2ac73f862)" d="M 230.136364 192.763636 
L 230.136364 16.036364 
z
" style="fill:none;stroke:#ff0000;stroke-linejoin:miter;stroke-width:3;"/>
   </g>
   <g id="patch_20">
    <path clip-path="url(#pc2ac73f862)" d="M 371.518182 192.763636 
L 247.809091 104.4 
z
" style="fill:none;stroke:#ff0000;stroke-linejoin:miter;stroke-width:3;"/>
   </g>
   <g id="patch_21">
    <path clip-path="url(#pc2ac73f862)" d="M 318.5 113.236364 
L 247.809091 104.4 
z
" style="fill:none;stroke:#ff0000;stroke-linejoin:miter;stroke-width:3;"/>
   </g>
   <g id="PathCollection_2">
    <g clip-path="url(#pc2ac73f862)">
     <use style="stroke:#000000;" x="230.136364" xlink:href="#me7beb3eb63" y="192.763636"/>
     <use style="stroke:#000000;" x="406.863636" xlink:href="#me7beb3eb63" y="192.763636"/>
     <use style="stroke:#000000;" x="406.863636" xlink:href="#me7beb3eb63" y="16.036364"/>
     <use style="stroke:#000000;" x="230.136364" xlink:href="#me7beb3eb63" y="16.036364"/>
     <use style="stroke:#000000;" x="371.518182" xlink:href="#me7beb3eb63" y="192.763636"/>
     <use style="stroke:#000000;" x="247.809091" xlink:href="#me7beb3eb63" y="104.4"/>
     <use style="stroke:#000000;" x="318.5" xlink:href="#me7beb3eb63" y="113.236364"/>
    </g>
   </g>
   <g id="line2d_1">
    <path clip-path="url(#pc2ac73f862)" d="M 406.863636 16.036364 
L 406.863636 192.763636 
M 230.136364 16.036364 
L 230.136364 192.763636 
M 230.136364 16.036364 
L 406.863636 16.036364 
M 371.518182 192.763636 
L 230.136364 192.763636 
M 371.518182 192.763636 
L 406.863636 192.763636 
M 247.809091 104.4 
L 230.136364 192.763636 
M 247.809091 104.4 
L 230.136364 16.036364 
M 247.809091 104.4 
L 371.518182 192.763636 
M 318.5 113.236364 
L 406.863636 192.763636 
M 318.5 113.236364 
L 406.863636 16.036364 
M 318.5 113.236364 
L 230.136364 16.036364 
M 318.5 113.236364 
L 371.518182 192.763636 
M 318.5 113.236364 
L 247.809091 104.4 
" style="fill:none;stroke:#000000;stroke-linecap:square;stroke-width:1.5;"/>
   </g>
   <g id="line2d_2">
    <g clip-path="url(#pc2ac73f862)">
     <use style="stroke:#000000;" x="230.136364" xlink:href="#me7beb3eb63" y="192.763636"/>
     <use style="stroke:#000000;" x="406.863636" xlink:href="#me7beb3eb63" y="192.763636"/>
     <use style="stroke:#000000;" x="406.863636" xlink:href="#me7beb3eb63" y="16.036364"/>
     <use style="stroke:#000000;" x="230.136364" xlink:href="#me7beb3eb63" y="16.036364"/>
     <use style="stroke:#000000;" x="371.518182" xlink:href="#me7beb3eb63" y="192.763636"/>
     <use style="stroke:#000000;" x="247.809091" xlink:href="#me7beb3eb63" y="104.4"/>
     <use style="stroke:#000000;" x="318.5" xlink:href="#me7beb3eb63" y="113.236364"/>
    </g>
   </g>
   <g id="patch_22">
    <path d="M 221.3 201.6 
L 221.3 7.2 
" style="fill:none;stroke:#000000;stroke-linecap:square;stroke-linejoin:miter;stroke-width:0.8;"/>
   </g>
   <g id="patch_23">
    <path d="M 415.7 201.6 
L 415.7 7.2 
" style="fill:none;stroke:#000000;stroke-linecap:square;stroke-linejoin:miter;stroke-width:0.8;"/>
   </g>
   <g id="patch_24">
    <path d="M 221.3 201.6 
L 415.7 201.6 
" style="fill:none;stroke:#000000;stroke-linecap:square;stroke-linejoin:miter;stroke-width:0.8;"/>
   </g>
   <g id="patch_25">
    <path d="M 221.3 7.2 
L 415.7 7.2 
" style="fill:none;stroke:#000000;stroke-linecap:square;stroke-linejoin:miter;stroke-width:0.8;"/>
   </g>
  </g>
 </g>
 <defs>
  <clipPath id="p511d9f71c9">
   <rect height="194.4" width="194.4" x="10.7" y="7.2"/>
  </clipPath>
  <clipPath id="pc2ac73f862">
   <rect height="194.4" width="194.4" x="221.3" y="7.2"/>
  </clipPath>
 </defs>
</svg>
