<?xml version="1.0" encoding="utf-8" standalone="no"?>
<!DOCTYPE svg PUBLIC "-//W3C//DTD SVG 1.1//EN"
  "http://www.w3.org/Graphics/SVG/1.1/DTD/svg11.dtd">
<!-- Created with matplotlib (https://matplotlib.org/) -->
<svg height="280.512pt" version="1.1" viewBox="0 0 371.52 280.512" width="371.52pt" xmlns="http://www.w3.org/2000/svg" xmlns:xlink="http://www.w3.org/1999/xlink">
 <defs>
  <style type="text/css">
*{stroke-linecap:butt;stroke-linejoin:round;}
  </style>
 </defs>
 <g id="figure_1">
  <g id="patch_1">
   <path d="M 0 280.512 
L 371.52 280.512 
L 371.52 0 
L 0 0 
z
" style="fill:#ffffff;"/>
  </g>
  <g id="axes_1">
   <g id="line2d_1">
    <path clip-path="url(#p1b9dc9690c)" d="M 114.661526 238.114696 
L 87.901304 211.354474 
M 185.76 261.216 
L 223.138696 255.295855 
M 148.381304 255.295855 
L 114.661526 238.114696 
M 148.381304 255.295855 
L 185.76 261.216 
M 137.376 212.832 
L 114.661526 238.114696 
M 137.376 212.832 
L 148.381304 255.295855 
M 256.858474 238.114696 
L 223.138696 255.295855 
M 234.144 212.832 
L 223.138696 255.295855 
M 234.144 212.832 
L 256.858474 238.114696 
M 70.720145 177.634696 
L 87.901304 211.354474 
M 113.184 188.64 
L 87.901304 211.354474 
M 113.184 188.64 
L 114.661526 238.114696 
M 113.184 188.64 
L 137.376 212.832 
M 113.184 188.64 
L 70.720145 177.634696 
M 161.568 196.70404 
L 137.376 212.832 
M 161.568 196.70404 
L 113.184 188.64 
M 185.76 220.89604 
L 223.138696 255.295855 
M 185.76 220.89604 
L 185.76 261.216 
M 185.76 220.89604 
L 148.381304 255.295855 
M 185.76 220.89604 
L 137.376 212.832 
M 185.76 220.89604 
L 234.144 212.832 
M 185.76 220.89604 
L 161.568 196.70404 
M 283.618696 211.354474 
L 256.858474 238.114696 
M 283.618696 211.354474 
L 234.144 212.832 
M 209.952 196.70404 
L 234.144 212.832 
M 209.952 196.70404 
L 185.76 220.89604 
M 258.336 188.64 
L 234.144 212.832 
M 258.336 188.64 
L 283.618696 211.354474 
M 258.336 188.64 
L 209.952 196.70404 
M 64.8 140.256 
L 70.720145 177.634696 
M 113.184 156.38396 
L 70.720145 177.634696 
M 113.184 156.38396 
L 113.184 188.64 
M 113.184 156.38396 
L 64.8 140.256 
M 149.472 164.448 
L 113.184 188.64 
M 149.472 164.448 
L 161.568 196.70404 
M 149.472 164.448 
L 113.184 156.38396 
M 185.76 180.57596 
L 161.568 196.70404 
M 185.76 180.57596 
L 185.76 220.89604 
M 185.76 180.57596 
L 209.952 196.70404 
M 185.76 180.57596 
L 149.472 164.448 
M 70.720145 102.877304 
L 64.8 140.256 
M 87.901304 69.157526 
L 70.720145 102.877304 
M 300.799855 177.634696 
L 283.618696 211.354474 
M 300.799855 177.634696 
L 258.336 188.64 
M 222.048 164.448 
L 209.952 196.70404 
M 222.048 164.448 
L 258.336 188.64 
M 222.048 164.448 
L 185.76 180.57596 
M 258.336 156.38396 
L 258.336 188.64 
M 258.336 156.38396 
L 300.799855 177.634696 
M 258.336 156.38396 
L 222.048 164.448 
M 113.184 124.12804 
L 64.8 140.256 
M 113.184 124.12804 
L 113.184 156.38396 
M 113.184 124.12804 
L 70.720145 102.877304 
M 149.472 130.176004 
L 113.184 156.38396 
M 149.472 130.176004 
L 149.472 164.448 
M 149.472 130.176004 
L 113.184 124.12804 
M 185.76 140.256 
L 149.472 164.448 
M 185.76 140.256 
L 185.76 180.57596 
M 185.76 140.256 
L 222.048 164.448 
M 185.76 140.256 
L 149.472 130.176004 
M 113.184 91.872 
L 70.720145 102.877304 
M 113.184 91.872 
L 87.901304 69.157526 
M 113.184 91.872 
L 113.184 124.12804 
M 114.661526 42.397304 
L 87.901304 69.157526 
M 114.661526 42.397304 
L 113.184 91.872 
M 306.72 140.256 
L 300.799855 177.634696 
M 306.72 140.256 
L 258.336 156.38396 
M 222.048 130.176004 
L 222.048 164.448 
M 222.048 130.176004 
L 258.336 156.38396 
M 222.048 130.176004 
L 185.76 140.256 
M 258.336 124.12804 
L 258.336 156.38396 
M 258.336 124.12804 
L 306.72 140.256 
M 258.336 124.12804 
L 222.048 130.176004 
M 149.472 95.90396 
L 113.184 124.12804 
M 149.472 95.90396 
L 149.472 130.176004 
M 149.472 95.90396 
L 113.184 91.872 
M 185.76 99.93604 
L 149.472 130.176004 
M 185.76 99.93604 
L 185.76 140.256 
M 185.76 99.93604 
L 222.048 130.176004 
M 185.76 99.93604 
L 149.472 95.90396 
M 137.376 67.68 
L 113.184 91.872 
M 137.376 67.68 
L 114.661526 42.397304 
M 137.376 67.68 
L 149.472 95.90396 
M 148.381304 25.216145 
L 114.661526 42.397304 
M 148.381304 25.216145 
L 137.376 67.68 
M 300.799855 102.877304 
L 306.72 140.256 
M 300.799855 102.877304 
L 258.336 124.12804 
M 222.048 95.90396 
L 222.048 130.176004 
M 222.048 95.90396 
L 258.336 124.12804 
M 222.048 95.90396 
L 185.76 99.93604 
M 258.336 91.872 
L 258.336 124.12804 
M 258.336 91.872 
L 300.799855 102.877304 
M 258.336 91.872 
L 222.048 95.90396 
M 185.76 59.61596 
L 149.472 95.90396 
M 185.76 59.61596 
L 185.76 99.93604 
M 185.76 59.61596 
L 137.376 67.68 
M 185.76 59.61596 
L 148.381304 25.216145 
M 185.76 59.61596 
L 222.048 95.90396 
M 185.76 19.296 
L 148.381304 25.216145 
M 185.76 19.296 
L 185.76 59.61596 
M 283.618696 69.157526 
L 300.799855 102.877304 
M 283.618696 69.157526 
L 258.336 91.872 
M 234.144 67.68 
L 222.048 95.90396 
M 234.144 67.68 
L 258.336 91.872 
M 234.144 67.68 
L 185.76 59.61596 
M 234.144 67.68 
L 283.618696 69.157526 
M 223.138696 25.216145 
L 185.76 59.61596 
M 223.138696 25.216145 
L 185.76 19.296 
M 223.138696 25.216145 
L 234.144 67.68 
M 256.858474 42.397304 
L 283.618696 69.157526 
M 256.858474 42.397304 
L 234.144 67.68 
M 256.858474 42.397304 
L 223.138696 25.216145 
L 223.138696 25.216145 
" style="fill:none;stroke:#1f77b4;stroke-linecap:square;stroke-width:1.5;"/>
   </g>
   <g id="line2d_2"/>
   <g id="line2d_3">
    <defs>
     <path d="M 0 5 
C 1.326016 5 2.597899 4.473168 3.535534 3.535534 
C 4.473168 2.597899 5 1.326016 5 0 
C 5 -1.326016 4.473168 -2.597899 3.535534 -3.535534 
C 2.597899 -4.473168 1.326016 -5 0 -5 
C -1.326016 -5 -2.597899 -4.473168 -3.535534 -3.535534 
C -4.473168 -2.597899 -5 -1.326016 -5 0 
C -5 1.326016 -4.473168 2.597899 -3.535534 3.535534 
C -2.597899 4.473168 -1.326016 5 0 5 
z
" id="m0bcb760813" style="stroke:#1f77b4;"/>
    </defs>
    <g clip-path="url(#p1b9dc9690c)">
     <use style="fill:#1f77b4;stroke:#1f77b4;" x="87.901304" xlink:href="#m0bcb760813" y="211.354474"/>
    </g>
   </g>
   <g id="line2d_4">
    <g clip-path="url(#p1b9dc9690c)">
     <use style="fill:#1f77b4;stroke:#1f77b4;" x="114.661526" xlink:href="#m0bcb760813" y="238.114696"/>
    </g>
   </g>
   <g id="line2d_5">
    <g clip-path="url(#p1b9dc9690c)">
     <use style="fill:#1f77b4;stroke:#1f77b4;" x="223.138696" xlink:href="#m0bcb760813" y="255.295855"/>
    </g>
   </g>
   <g id="line2d_6">
    <g clip-path="url(#p1b9dc9690c)">
     <use style="fill:#1f77b4;stroke:#1f77b4;" x="185.76" xlink:href="#m0bcb760813" y="261.216"/>
    </g>
   </g>
   <g id="line2d_7">
    <g clip-path="url(#p1b9dc9690c)">
     <use style="fill:#1f77b4;stroke:#1f77b4;" x="148.381304" xlink:href="#m0bcb760813" y="255.295855"/>
    </g>
   </g>
   <g id="line2d_8">
    <g clip-path="url(#p1b9dc9690c)">
     <use style="fill:#1f77b4;stroke:#1f77b4;" x="137.376" xlink:href="#m0bcb760813" y="212.832"/>
    </g>
   </g>
   <g id="line2d_9">
    <g clip-path="url(#p1b9dc9690c)">
     <use style="fill:#1f77b4;stroke:#1f77b4;" x="256.858474" xlink:href="#m0bcb760813" y="238.114696"/>
    </g>
   </g>
   <g id="line2d_10">
    <g clip-path="url(#p1b9dc9690c)">
     <use style="fill:#1f77b4;stroke:#1f77b4;" x="234.144" xlink:href="#m0bcb760813" y="212.832"/>
    </g>
   </g>
   <g id="line2d_11">
    <g clip-path="url(#p1b9dc9690c)">
     <use style="fill:#1f77b4;stroke:#1f77b4;" x="70.720145" xlink:href="#m0bcb760813" y="177.634696"/>
    </g>
   </g>
   <g id="line2d_12">
    <g clip-path="url(#p1b9dc9690c)">
     <use style="fill:#1f77b4;stroke:#1f77b4;" x="113.184" xlink:href="#m0bcb760813" y="188.64"/>
    </g>
   </g>
   <g id="line2d_13">
    <g clip-path="url(#p1b9dc9690c)">
     <use style="fill:#1f77b4;stroke:#1f77b4;" x="161.568" xlink:href="#m0bcb760813" y="196.70404"/>
    </g>
   </g>
   <g id="line2d_14">
    <g clip-path="url(#p1b9dc9690c)">
     <use style="fill:#1f77b4;stroke:#1f77b4;" x="185.76" xlink:href="#m0bcb760813" y="220.89604"/>
    </g>
   </g>
   <g id="line2d_15">
    <g clip-path="url(#p1b9dc9690c)">
     <use style="fill:#1f77b4;stroke:#1f77b4;" x="283.618696" xlink:href="#m0bcb760813" y="211.354474"/>
    </g>
   </g>
   <g id="line2d_16">
    <g clip-path="url(#p1b9dc9690c)">
     <use style="fill:#1f77b4;stroke:#1f77b4;" x="209.952" xlink:href="#m0bcb760813" y="196.70404"/>
    </g>
   </g>
   <g id="line2d_17">
    <g clip-path="url(#p1b9dc9690c)">
     <use style="fill:#1f77b4;stroke:#1f77b4;" x="258.336" xlink:href="#m0bcb760813" y="188.64"/>
    </g>
   </g>
   <g id="line2d_18">
    <g clip-path="url(#p1b9dc9690c)">
     <use style="fill:#1f77b4;stroke:#1f77b4;" x="64.8" xlink:href="#m0bcb760813" y="140.256"/>
    </g>
   </g>
   <g id="line2d_19">
    <g clip-path="url(#p1b9dc9690c)">
     <use style="fill:#1f77b4;stroke:#1f77b4;" x="113.184" xlink:href="#m0bcb760813" y="156.38396"/>
    </g>
   </g>
   <g id="line2d_20">
    <g clip-path="url(#p1b9dc9690c)">
     <use style="fill:#1f77b4;stroke:#1f77b4;" x="149.472" xlink:href="#m0bcb760813" y="164.448"/>
    </g>
   </g>
   <g id="line2d_21">
    <g clip-path="url(#p1b9dc9690c)">
     <use style="fill:#1f77b4;stroke:#1f77b4;" x="185.76" xlink:href="#m0bcb760813" y="180.57596"/>
    </g>
   </g>
   <g id="line2d_22">
    <g clip-path="url(#p1b9dc9690c)">
     <use style="fill:#1f77b4;stroke:#1f77b4;" x="70.720145" xlink:href="#m0bcb760813" y="102.877304"/>
    </g>
   </g>
   <g id="line2d_23">
    <g clip-path="url(#p1b9dc9690c)">
     <use style="fill:#1f77b4;stroke:#1f77b4;" x="87.901304" xlink:href="#m0bcb760813" y="69.157526"/>
    </g>
   </g>
   <g id="line2d_24">
    <g clip-path="url(#p1b9dc9690c)">
     <use style="fill:#1f77b4;stroke:#1f77b4;" x="300.799855" xlink:href="#m0bcb760813" y="177.634696"/>
    </g>
   </g>
   <g id="line2d_25">
    <g clip-path="url(#p1b9dc9690c)">
     <use style="fill:#1f77b4;stroke:#1f77b4;" x="222.048" xlink:href="#m0bcb760813" y="164.448"/>
    </g>
   </g>
   <g id="line2d_26">
    <g clip-path="url(#p1b9dc9690c)">
     <use style="fill:#1f77b4;stroke:#1f77b4;" x="258.336" xlink:href="#m0bcb760813" y="156.38396"/>
    </g>
   </g>
   <g id="line2d_27">
    <g clip-path="url(#p1b9dc9690c)">
     <use style="fill:#1f77b4;stroke:#1f77b4;" x="113.184" xlink:href="#m0bcb760813" y="124.12804"/>
    </g>
   </g>
   <g id="line2d_28">
    <g clip-path="url(#p1b9dc9690c)">
     <use style="fill:#1f77b4;stroke:#1f77b4;" x="149.472" xlink:href="#m0bcb760813" y="130.176004"/>
    </g>
   </g>
   <g id="line2d_29">
    <g clip-path="url(#p1b9dc9690c)">
     <use style="fill:#1f77b4;stroke:#1f77b4;" x="185.76" xlink:href="#m0bcb760813" y="140.256"/>
    </g>
   </g>
   <g id="line2d_30">
    <g clip-path="url(#p1b9dc9690c)">
     <use style="fill:#1f77b4;stroke:#1f77b4;" x="113.184" xlink:href="#m0bcb760813" y="91.872"/>
    </g>
   </g>
   <g id="line2d_31">
    <g clip-path="url(#p1b9dc9690c)">
     <use style="fill:#1f77b4;stroke:#1f77b4;" x="114.661526" xlink:href="#m0bcb760813" y="42.397304"/>
    </g>
   </g>
   <g id="line2d_32">
    <g clip-path="url(#p1b9dc9690c)">
     <use style="fill:#1f77b4;stroke:#1f77b4;" x="306.72" xlink:href="#m0bcb760813" y="140.256"/>
    </g>
   </g>
   <g id="line2d_33">
    <g clip-path="url(#p1b9dc9690c)">
     <use style="fill:#1f77b4;stroke:#1f77b4;" x="222.048" xlink:href="#m0bcb760813" y="130.176004"/>
    </g>
   </g>
   <g id="line2d_34">
    <g clip-path="url(#p1b9dc9690c)">
     <use style="fill:#1f77b4;stroke:#1f77b4;" x="258.336" xlink:href="#m0bcb760813" y="124.12804"/>
    </g>
   </g>
   <g id="line2d_35">
    <g clip-path="url(#p1b9dc9690c)">
     <use style="fill:#1f77b4;stroke:#1f77b4;" x="149.472" xlink:href="#m0bcb760813" y="95.90396"/>
    </g>
   </g>
   <g id="line2d_36">
    <g clip-path="url(#p1b9dc9690c)">
     <use style="fill:#1f77b4;stroke:#1f77b4;" x="185.76" xlink:href="#m0bcb760813" y="99.93604"/>
    </g>
   </g>
   <g id="line2d_37">
    <g clip-path="url(#p1b9dc9690c)">
     <use style="fill:#1f77b4;stroke:#1f77b4;" x="137.376" xlink:href="#m0bcb760813" y="67.68"/>
    </g>
   </g>
   <g id="line2d_38">
    <g clip-path="url(#p1b9dc9690c)">
     <use style="fill:#1f77b4;stroke:#1f77b4;" x="148.381304" xlink:href="#m0bcb760813" y="25.216145"/>
    </g>
   </g>
   <g id="line2d_39">
    <g clip-path="url(#p1b9dc9690c)">
     <use style="fill:#1f77b4;stroke:#1f77b4;" x="300.799855" xlink:href="#m0bcb760813" y="102.877304"/>
    </g>
   </g>
   <g id="line2d_40">
    <g clip-path="url(#p1b9dc9690c)">
     <use style="fill:#1f77b4;stroke:#1f77b4;" x="222.048" xlink:href="#m0bcb760813" y="95.90396"/>
    </g>
   </g>
   <g id="line2d_41">
    <g clip-path="url(#p1b9dc9690c)">
     <use style="fill:#1f77b4;stroke:#1f77b4;" x="258.336" xlink:href="#m0bcb760813" y="91.872"/>
    </g>
   </g>
   <g id="line2d_42">
    <g clip-path="url(#p1b9dc9690c)">
     <use style="fill:#1f77b4;stroke:#1f77b4;" x="185.76" xlink:href="#m0bcb760813" y="59.61596"/>
    </g>
   </g>
   <g id="line2d_43">
    <g clip-path="url(#p1b9dc9690c)">
     <use style="fill:#1f77b4;stroke:#1f77b4;" x="185.76" xlink:href="#m0bcb760813" y="19.296"/>
    </g>
   </g>
   <g id="line2d_44">
    <g clip-path="url(#p1b9dc9690c)">
     <use style="fill:#1f77b4;stroke:#1f77b4;" x="283.618696" xlink:href="#m0bcb760813" y="69.157526"/>
    </g>
   </g>
   <g id="line2d_45">
    <g clip-path="url(#p1b9dc9690c)">
     <use style="fill:#1f77b4;stroke:#1f77b4;" x="234.144" xlink:href="#m0bcb760813" y="67.68"/>
    </g>
   </g>
   <g id="line2d_46">
    <g clip-path="url(#p1b9dc9690c)">
     <use style="fill:#1f77b4;stroke:#1f77b4;" x="223.138696" xlink:href="#m0bcb760813" y="25.216145"/>
    </g>
   </g>
   <g id="line2d_47">
    <g clip-path="url(#p1b9dc9690c)">
     <use style="fill:#1f77b4;stroke:#1f77b4;" x="256.858474" xlink:href="#m0bcb760813" y="42.397304"/>
    </g>
   </g>
   <g id="line2d_48"/>
   <g id="line2d_49">
    <path clip-path="url(#p1b9dc9690c)" d="M 306.72 140.256 
L 300.799855 102.877304 
" style="fill:none;stroke:#ff0000;stroke-linecap:square;stroke-width:1.5;"/>
   </g>
   <g id="line2d_50">
    <path clip-path="url(#p1b9dc9690c)" d="M 300.799855 102.877304 
L 283.618696 69.157526 
" style="fill:none;stroke:#ff0000;stroke-linecap:square;stroke-width:1.5;"/>
   </g>
   <g id="line2d_51">
    <path clip-path="url(#p1b9dc9690c)" d="M 283.618696 69.157526 
L 256.858474 42.397304 
" style="fill:none;stroke:#ff0000;stroke-linecap:square;stroke-width:1.5;"/>
   </g>
   <g id="line2d_52">
    <path clip-path="url(#p1b9dc9690c)" d="M 256.858474 42.397304 
L 223.138696 25.216145 
" style="fill:none;stroke:#ff0000;stroke-linecap:square;stroke-width:1.5;"/>
   </g>
   <g id="line2d_53">
    <path clip-path="url(#p1b9dc9690c)" d="M 223.138696 25.216145 
L 185.76 19.296 
" style="fill:none;stroke:#ff0000;stroke-linecap:square;stroke-width:1.5;"/>
   </g>
   <g id="line2d_54">
    <path clip-path="url(#p1b9dc9690c)" d="M 185.76 19.296 
L 148.381304 25.216145 
" style="fill:none;stroke:#ff0000;stroke-linecap:square;stroke-width:1.5;"/>
   </g>
   <g id="line2d_55">
    <path clip-path="url(#p1b9dc9690c)" d="M 148.381304 25.216145 
L 114.661526 42.397304 
" style="fill:none;stroke:#ff0000;stroke-linecap:square;stroke-width:1.5;"/>
   </g>
   <g id="line2d_56">
    <path clip-path="url(#p1b9dc9690c)" d="M 114.661526 42.397304 
L 87.901304 69.157526 
" style="fill:none;stroke:#ff0000;stroke-linecap:square;stroke-width:1.5;"/>
   </g>
   <g id="line2d_57">
    <path clip-path="url(#p1b9dc9690c)" d="M 87.901304 69.157526 
L 70.720145 102.877304 
" style="fill:none;stroke:#ff0000;stroke-linecap:square;stroke-width:1.5;"/>
   </g>
   <g id="line2d_58">
    <path clip-path="url(#p1b9dc9690c)" d="M 70.720145 102.877304 
L 64.8 140.256 
" style="fill:none;stroke:#ff0000;stroke-linecap:square;stroke-width:1.5;"/>
   </g>
   <g id="line2d_59">
    <path clip-path="url(#p1b9dc9690c)" d="M 64.8 140.256 
L 70.720145 177.634696 
" style="fill:none;stroke:#ff0000;stroke-linecap:square;stroke-width:1.5;"/>
   </g>
   <g id="line2d_60">
    <path clip-path="url(#p1b9dc9690c)" d="M 70.720145 177.634696 
L 87.901304 211.354474 
" style="fill:none;stroke:#ff0000;stroke-linecap:square;stroke-width:1.5;"/>
   </g>
   <g id="line2d_61">
    <path clip-path="url(#p1b9dc9690c)" d="M 87.901304 211.354474 
L 114.661526 238.114696 
" style="fill:none;stroke:#ff0000;stroke-linecap:square;stroke-width:1.5;"/>
   </g>
   <g id="line2d_62">
    <path clip-path="url(#p1b9dc9690c)" d="M 114.661526 238.114696 
L 148.381304 255.295855 
" style="fill:none;stroke:#ff0000;stroke-linecap:square;stroke-width:1.5;"/>
   </g>
   <g id="line2d_63">
    <path clip-path="url(#p1b9dc9690c)" d="M 148.381304 255.295855 
L 185.76 261.216 
" style="fill:none;stroke:#ff0000;stroke-linecap:square;stroke-width:1.5;"/>
   </g>
   <g id="line2d_64">
    <path clip-path="url(#p1b9dc9690c)" d="M 185.76 261.216 
L 223.138696 255.295855 
" style="fill:none;stroke:#ff0000;stroke-linecap:square;stroke-width:1.5;"/>
   </g>
   <g id="line2d_65">
    <path clip-path="url(#p1b9dc9690c)" d="M 223.138696 255.295855 
L 256.858474 238.114696 
" style="fill:none;stroke:#ff0000;stroke-linecap:square;stroke-width:1.5;"/>
   </g>
   <g id="line2d_66">
    <path clip-path="url(#p1b9dc9690c)" d="M 256.858474 238.114696 
L 283.618696 211.354474 
" style="fill:none;stroke:#ff0000;stroke-linecap:square;stroke-width:1.5;"/>
   </g>
   <g id="line2d_67">
    <path clip-path="url(#p1b9dc9690c)" d="M 283.618696 211.354474 
L 300.799855 177.634696 
" style="fill:none;stroke:#ff0000;stroke-linecap:square;stroke-width:1.5;"/>
   </g>
   <g id="line2d_68">
    <path clip-path="url(#p1b9dc9690c)" d="M 300.799855 177.634696 
L 306.72 140.256 
" style="fill:none;stroke:#ff0000;stroke-linecap:square;stroke-width:1.5;"/>
   </g>
   <g id="text_1">
    <!-- 0 -->
    <defs>
     <path d="M 31.78125 66.40625 
Q 24.171875 66.40625 20.328125 58.90625 
Q 16.5 51.421875 16.5 36.375 
Q 16.5 21.390625 20.328125 13.890625 
Q 24.171875 6.390625 31.78125 6.390625 
Q 39.453125 6.390625 43.28125 13.890625 
Q 47.125 21.390625 47.125 36.375 
Q 47.125 51.421875 43.28125 58.90625 
Q 39.453125 66.40625 31.78125 66.40625 
z
M 31.78125 74.21875 
Q 44.046875 74.21875 50.515625 64.515625 
Q 56.984375 54.828125 56.984375 36.375 
Q 56.984375 17.96875 50.515625 8.265625 
Q 44.046875 -1.421875 31.78125 -1.421875 
Q 19.53125 -1.421875 13.0625 8.265625 
Q 6.59375 17.96875 6.59375 36.375 
Q 6.59375 54.828125 13.0625 64.515625 
Q 19.53125 74.21875 31.78125 74.21875 
z
" id="DejaVuSans-48"/>
    </defs>
    <g style="fill:#1f77b4;" transform="translate(153.991185 232.434007)scale(0.1 -0.1)">
     <use xlink:href="#DejaVuSans-48"/>
    </g>
   </g>
   <g id="text_2">
    <!-- 0 -->
    <g style="fill:#1f77b4;" transform="translate(195.038315 248.562007)scale(0.1 -0.1)">
     <use xlink:href="#DejaVuSans-48"/>
    </g>
   </g>
   <g id="text_3">
    <!-- 0 -->
    <g style="fill:#1f77b4;" transform="translate(158.38675 212.903402)scale(0.1 -0.1)">
     <use xlink:href="#DejaVuSans-48"/>
    </g>
   </g>
   <g id="text_4">
    <!-- 0 -->
    <g style="fill:#1f77b4;" transform="translate(174.51475 202.151388)scale(0.1 -0.1)">
     <use xlink:href="#DejaVuSans-48"/>
    </g>
   </g>
   <g id="text_5">
    <!-- 0 -->
    <g style="fill:#1f77b4;" transform="translate(162.41875 183.335375)scale(0.1 -0.1)">
     <use xlink:href="#DejaVuSans-48"/>
    </g>
   </g>
   <g id="text_6">
    <!-- 0 -->
    <g style="fill:#1f77b4;" transform="translate(194.67475 164.519362)scale(0.1 -0.1)">
     <use xlink:href="#DejaVuSans-48"/>
    </g>
   </g>
   <g id="text_7">
    <!-- 0 -->
    <g style="fill:#1f77b4;" transform="translate(226.93075 186.023388)scale(0.1 -0.1)">
     <use xlink:href="#DejaVuSans-48"/>
    </g>
   </g>
   <g id="text_8">
    <!-- 0 -->
    <g style="fill:#1f77b4;" transform="translate(285.437368 125.179823)scale(0.1 -0.1)">
     <use xlink:href="#DejaVuSans-48"/>
    </g>
   </g>
   <g id="text_9">
    <!-- 0 -->
    <g style="fill:#1f77b4;" transform="translate(243.05875 172.583362)scale(0.1 -0.1)">
     <use xlink:href="#DejaVuSans-48"/>
    </g>
   </g>
   <g id="text_10">
    <!-- 0 -->
    <g style="fill:#1f77b4;" transform="translate(269.309368 176.978927)scale(0.1 -0.1)">
     <use xlink:href="#DejaVuSans-48"/>
    </g>
   </g>
   <g id="text_11">
    <!-- 0 -->
    <g style="fill:#1f77b4;" transform="translate(170.48275 164.519362)scale(0.1 -0.1)">
     <use xlink:href="#DejaVuSans-48"/>
    </g>
   </g>
   <g id="text_12">
    <!-- 0 -->
    <g style="fill:#1f77b4;" transform="translate(202.73875 183.335375)scale(0.1 -0.1)">
     <use xlink:href="#DejaVuSans-48"/>
    </g>
   </g>
   <g id="text_13">
    <!-- 0 -->
    <g style="fill:#1f77b4;" transform="translate(122.09875 106.727375)scale(0.1 -0.1)">
     <use xlink:href="#DejaVuSans-48"/>
    </g>
   </g>
   <g id="text_14">
    <!-- 0 -->
    <g style="fill:#1f77b4;" transform="translate(158.38675 111.431376)scale(0.1 -0.1)">
     <use xlink:href="#DejaVuSans-48"/>
    </g>
   </g>
   <g id="text_15">
    <!-- 0 -->
    <g style="fill:#1f77b4;" transform="translate(170.48275 87.911362)scale(0.1 -0.1)">
     <use xlink:href="#DejaVuSans-48"/>
    </g>
   </g>
   <g id="text_16">
    <!-- 0 -->
    <g style="fill:#1f77b4;" transform="translate(271.28275 143.015375)scale(0.1 -0.1)">
     <use xlink:href="#DejaVuSans-48"/>
    </g>
   </g>
   <g id="text_17">
    <!-- 0 -->
    <g style="fill:#1f77b4;" transform="translate(243.05875 106.727375)scale(0.1 -0.1)">
     <use xlink:href="#DejaVuSans-48"/>
    </g>
   </g>
   <g id="text_18">
    <!-- 0 -->
    <g style="fill:#1f77b4;" transform="translate(230.96275 153.095363)scale(0.1 -0.1)">
     <use xlink:href="#DejaVuSans-48"/>
    </g>
   </g>
   <g id="text_19">
    <!-- 0 -->
    <g style="fill:#1f77b4;" transform="translate(230.96275 119.495376)scale(0.1 -0.1)">
     <use xlink:href="#DejaVuSans-48"/>
    </g>
   </g>
   <g id="text_20">
    <!-- 0 -->
    <g style="fill:#1f77b4;" transform="translate(206.77075 111.431376)scale(0.1 -0.1)">
     <use xlink:href="#DejaVuSans-48"/>
    </g>
   </g>
   <g id="text_21">
    <!-- 0 -->
    <g style="fill:#1f77b4;" transform="translate(154.35475 77.159348)scale(0.1 -0.1)">
     <use xlink:href="#DejaVuSans-48"/>
    </g>
   </g>
   <g id="text_22">
    <!-- 0 -->
    <g style="fill:#1f77b4;" transform="translate(170.119185 37.468743)scale(0.1 -0.1)">
     <use xlink:href="#DejaVuSans-48"/>
    </g>
   </g>
   <g id="text_23">
    <!-- 0 -->
    <g style="fill:#1f77b4;" transform="translate(255.518315 78.995884)scale(0.1 -0.1)">
     <use xlink:href="#DejaVuSans-48"/>
    </g>
   </g>
   <g id="text_24">
    <!-- 0 -->
    <g style="fill:#1f77b4;" transform="translate(211.166315 53.596743)scale(0.1 -0.1)">
     <use xlink:href="#DejaVuSans-48"/>
    </g>
   </g>
   <g id="text_25">
    <!-- 0 -->
    <g style="fill:#1f77b4;" transform="translate(130.16275 87.911362)scale(0.1 -0.1)">
     <use xlink:href="#DejaVuSans-48"/>
    </g>
   </g>
   <g id="text_26">
    <!-- 0 -->
    <g style="fill:#1f77b4;" transform="translate(130.291693 238.173559)scale(0.1 -0.1)">
     <use xlink:href="#DejaVuSans-48"/>
    </g>
   </g>
   <g id="text_27">
    <!-- 0 -->
    <g style="fill:#1f77b4;" transform="translate(102.067693 215.462432)scale(0.1 -0.1)">
     <use xlink:href="#DejaVuSans-48"/>
    </g>
   </g>
   <g id="text_28">
    <!-- 0 -->
    <g style="fill:#1f77b4;" transform="translate(118.559259 215.95494)scale(0.1 -0.1)">
     <use xlink:href="#DejaVuSans-48"/>
    </g>
   </g>
   <g id="text_29">
    <!-- 0 -->
    <g style="fill:#1f77b4;" transform="translate(170.119185 248.562007)scale(0.1 -0.1)">
     <use xlink:href="#DejaVuSans-48"/>
    </g>
   </g>
   <g id="text_30">
    <!-- 0 -->
    <g style="fill:#1f77b4;" transform="translate(211.166315 232.434007)scale(0.1 -0.1)">
     <use xlink:href="#DejaVuSans-48"/>
    </g>
   </g>
   <g id="text_31">
    <!-- 0 -->
    <g style="fill:#1f77b4;" transform="translate(87.420566 195.302432)scale(0.1 -0.1)">
     <use xlink:href="#DejaVuSans-48"/>
    </g>
   </g>
   <g id="text_32">
    <!-- 0 -->
    <g style="fill:#1f77b4;" transform="translate(234.865807 238.173559)scale(0.1 -0.1)">
     <use xlink:href="#DejaVuSans-48"/>
    </g>
   </g>
   <g id="text_33">
    <!-- 0 -->
    <g style="fill:#1f77b4;" transform="translate(95.848132 176.978927)scale(0.1 -0.1)">
     <use xlink:href="#DejaVuSans-48"/>
    </g>
   </g>
   <g id="text_34">
    <!-- 0 -->
    <g style="fill:#1f77b4;" transform="translate(122.09875 172.583362)scale(0.1 -0.1)">
     <use xlink:href="#DejaVuSans-48"/>
    </g>
   </g>
   <g id="text_35">
    <!-- 0 -->
    <g style="fill:#1f77b4;" transform="translate(93.87475 143.015375)scale(0.1 -0.1)">
     <use xlink:href="#DejaVuSans-48"/>
    </g>
   </g>
   <g id="text_36">
    <!-- 0 -->
    <g style="fill:#1f77b4;" transform="translate(95.848132 109.051823)scale(0.1 -0.1)">
     <use xlink:href="#DejaVuSans-48"/>
    </g>
   </g>
   <g id="text_37">
    <!-- 0 -->
    <g style="fill:#1f77b4;" transform="translate(79.720132 160.850927)scale(0.1 -0.1)">
     <use xlink:href="#DejaVuSans-48"/>
    </g>
   </g>
   <g id="text_38">
    <!-- 0 -->
    <g style="fill:#1f77b4;" transform="translate(134.19475 119.495376)scale(0.1 -0.1)">
     <use xlink:href="#DejaVuSans-48"/>
    </g>
   </g>
   <g id="text_39">
    <!-- 0 -->
    <g style="fill:#1f77b4;" transform="translate(122.09875 139.655376)scale(0.1 -0.1)">
     <use xlink:href="#DejaVuSans-48"/>
    </g>
   </g>
   <g id="text_40">
    <!-- 0 -->
    <g style="fill:#1f77b4;" transform="translate(158.38675 147.719376)scale(0.1 -0.1)">
     <use xlink:href="#DejaVuSans-48"/>
    </g>
   </g>
   <g id="text_41">
    <!-- 0 -->
    <g style="fill:#1f77b4;" transform="translate(134.19475 202.151388)scale(0.1 -0.1)">
     <use xlink:href="#DejaVuSans-48"/>
    </g>
   </g>
   <g id="text_42">
    <!-- 0 -->
    <g style="fill:#1f77b4;" transform="translate(170.48275 126.21539)scale(0.1 -0.1)">
     <use xlink:href="#DejaVuSans-48"/>
    </g>
   </g>
   <g id="text_43">
    <!-- 0 -->
    <g style="fill:#1f77b4;" transform="translate(153.991185 53.596743)scale(0.1 -0.1)">
     <use xlink:href="#DejaVuSans-48"/>
    </g>
   </g>
   <g id="text_44">
    <!-- 0 -->
    <g style="fill:#1f77b4;" transform="translate(130.291693 47.857191)scale(0.1 -0.1)">
     <use xlink:href="#DejaVuSans-48"/>
    </g>
   </g>
   <g id="text_45">
    <!-- 0 -->
    <g style="fill:#1f77b4;" transform="translate(134.19475 153.095363)scale(0.1 -0.1)">
     <use xlink:href="#DejaVuSans-48"/>
    </g>
   </g>
   <g id="text_46">
    <!-- 0 -->
    <g style="fill:#1f77b4;" transform="translate(118.559259 70.07581)scale(0.1 -0.1)">
     <use xlink:href="#DejaVuSans-48"/>
    </g>
   </g>
   <g id="text_47">
    <!-- 0 -->
    <g style="fill:#1f77b4;" transform="translate(102.067693 70.568318)scale(0.1 -0.1)">
     <use xlink:href="#DejaVuSans-48"/>
    </g>
   </g>
   <g id="text_48">
    <!-- 0 -->
    <g style="fill:#1f77b4;" transform="translate(87.420566 90.728318)scale(0.1 -0.1)">
     <use xlink:href="#DejaVuSans-48"/>
    </g>
   </g>
   <g id="text_49">
    <!-- 0 -->
    <g style="fill:#1f77b4;" transform="translate(138.22675 186.023388)scale(0.1 -0.1)">
     <use xlink:href="#DejaVuSans-48"/>
    </g>
   </g>
   <g id="text_50">
    <!-- 0 -->
    <g style="fill:#1f77b4;" transform="translate(79.720132 125.179823)scale(0.1 -0.1)">
     <use xlink:href="#DejaVuSans-48"/>
    </g>
   </g>
   <g id="text_51">
    <!-- 0 -->
    <g style="fill:#1f77b4;" transform="translate(194.67475 126.21539)scale(0.1 -0.1)">
     <use xlink:href="#DejaVuSans-48"/>
    </g>
   </g>
   <g id="text_52">
    <!-- 0 -->
    <g style="fill:#1f77b4;" transform="translate(206.77075 147.719376)scale(0.1 -0.1)">
     <use xlink:href="#DejaVuSans-48"/>
    </g>
   </g>
   <g id="text_53">
    <!-- 0 -->
    <g style="fill:#1f77b4;" transform="translate(234.99475 87.911362)scale(0.1 -0.1)">
     <use xlink:href="#DejaVuSans-48"/>
    </g>
   </g>
   <g id="text_54">
    <!-- 0 -->
    <g style="fill:#1f77b4;" transform="translate(255.025807 62.504318)scale(0.1 -0.1)">
     <use xlink:href="#DejaVuSans-48"/>
    </g>
   </g>
   <g id="text_55">
    <!-- 0 -->
    <g style="fill:#1f77b4;" transform="translate(234.865807 47.857191)scale(0.1 -0.1)">
     <use xlink:href="#DejaVuSans-48"/>
    </g>
   </g>
   <g id="text_56">
    <!-- 0 -->
    <g style="fill:#1f77b4;" transform="translate(269.309368 109.051823)scale(0.1 -0.1)">
     <use xlink:href="#DejaVuSans-48"/>
    </g>
   </g>
   <g id="text_57">
    <!-- 0 -->
    <g style="fill:#1f77b4;" transform="translate(255.518315 207.034866)scale(0.1 -0.1)">
     <use xlink:href="#DejaVuSans-48"/>
    </g>
   </g>
   <g id="text_58">
    <!-- 0 -->
    <g style="fill:#1f77b4;" transform="translate(285.437368 160.850927)scale(0.1 -0.1)">
     <use xlink:href="#DejaVuSans-48"/>
    </g>
   </g>
   <g id="text_59">
    <!-- 0 -->
    <g style="fill:#1f77b4;" transform="translate(190.64275 202.151388)scale(0.1 -0.1)">
     <use xlink:href="#DejaVuSans-48"/>
    </g>
   </g>
   <g id="text_60">
    <!-- 0 -->
    <g style="fill:#1f77b4;" transform="translate(206.77075 212.903402)scale(0.1 -0.1)">
     <use xlink:href="#DejaVuSans-48"/>
    </g>
   </g>
   <g id="text_61">
    <!-- 0 -->
    <g style="fill:#1f77b4;" transform="translate(230.96275 202.151388)scale(0.1 -0.1)">
     <use xlink:href="#DejaVuSans-48"/>
    </g>
   </g>
   <g id="text_62">
    <!-- 0 -->
    <g style="fill:#1f77b4;" transform="translate(255.025807 223.526432)scale(0.1 -0.1)">
     <use xlink:href="#DejaVuSans-48"/>
    </g>
   </g>
   <g id="text_63">
    <!-- 0 -->
    <g style="fill:#1f77b4;" transform="translate(277.736934 195.302432)scale(0.1 -0.1)">
     <use xlink:href="#DejaVuSans-48"/>
    </g>
   </g>
   <g id="text_64">
    <!-- 0 -->
    <g style="fill:#1f77b4;" transform="translate(194.67475 87.911362)scale(0.1 -0.1)">
     <use xlink:href="#DejaVuSans-48"/>
    </g>
   </g>
   <g id="text_65">
    <!-- 0 -->
    <g style="fill:#1f77b4;" transform="translate(210.80275 77.159348)scale(0.1 -0.1)">
     <use xlink:href="#DejaVuSans-48"/>
    </g>
   </g>
   <g id="text_66">
    <!-- 0 -->
    <g style="fill:#1f77b4;" transform="translate(243.05875 139.655376)scale(0.1 -0.1)">
     <use xlink:href="#DejaVuSans-48"/>
    </g>
   </g>
   <g id="text_67">
    <!-- 0 -->
    <g style="fill:#1f77b4;" transform="translate(277.736934 90.728318)scale(0.1 -0.1)">
     <use xlink:href="#DejaVuSans-48"/>
    </g>
   </g>
   <g id="text_68">
    <!-- 0 -->
    <g style="fill:#1f77b4;" transform="translate(195.038315 37.468743)scale(0.1 -0.1)">
     <use xlink:href="#DejaVuSans-48"/>
    </g>
   </g>
   <g id="text_69">
    <!-- 1 -->
    <defs>
     <path d="M 12.40625 8.296875 
L 28.515625 8.296875 
L 28.515625 63.921875 
L 10.984375 60.40625 
L 10.984375 69.390625 
L 28.421875 72.90625 
L 38.28125 72.90625 
L 38.28125 8.296875 
L 54.390625 8.296875 
L 54.390625 0 
L 12.40625 0 
z
" id="DejaVuSans-49"/>
    </defs>
    <g style="fill:#ffffff;" transform="translate(84.720054 214.113849)scale(0.1 -0.1)">
     <use xlink:href="#DejaVuSans-49"/>
    </g>
   </g>
   <g id="text_70">
    <!-- 1 -->
    <g style="fill:#ffffff;" transform="translate(111.480276 240.874071)scale(0.1 -0.1)">
     <use xlink:href="#DejaVuSans-49"/>
    </g>
   </g>
   <g id="text_71">
    <!-- 1 -->
    <g style="fill:#ffffff;" transform="translate(219.957446 258.05523)scale(0.1 -0.1)">
     <use xlink:href="#DejaVuSans-49"/>
    </g>
   </g>
   <g id="text_72">
    <!-- 1 -->
    <g style="fill:#ffffff;" transform="translate(182.57875 263.975375)scale(0.1 -0.1)">
     <use xlink:href="#DejaVuSans-49"/>
    </g>
   </g>
   <g id="text_73">
    <!-- 1 -->
    <g style="fill:#ffffff;" transform="translate(145.200054 258.05523)scale(0.1 -0.1)">
     <use xlink:href="#DejaVuSans-49"/>
    </g>
   </g>
   <g id="text_74">
    <!-- 0 -->
    <g style="fill:#ffffff;" transform="translate(134.19475 215.591375)scale(0.1 -0.1)">
     <use xlink:href="#DejaVuSans-48"/>
    </g>
   </g>
   <g id="text_75">
    <!-- 1 -->
    <g style="fill:#ffffff;" transform="translate(253.677224 240.874071)scale(0.1 -0.1)">
     <use xlink:href="#DejaVuSans-49"/>
    </g>
   </g>
   <g id="text_76">
    <!-- 0 -->
    <g style="fill:#ffffff;" transform="translate(230.96275 215.591375)scale(0.1 -0.1)">
     <use xlink:href="#DejaVuSans-48"/>
    </g>
   </g>
   <g id="text_77">
    <!-- 1 -->
    <g style="fill:#ffffff;" transform="translate(67.538895 180.394071)scale(0.1 -0.1)">
     <use xlink:href="#DejaVuSans-49"/>
    </g>
   </g>
   <g id="text_78">
    <!-- 0 -->
    <g style="fill:#ffffff;" transform="translate(110.00275 191.399375)scale(0.1 -0.1)">
     <use xlink:href="#DejaVuSans-48"/>
    </g>
   </g>
   <g id="text_79">
    <!-- 0 -->
    <g style="fill:#ffffff;" transform="translate(158.38675 199.463415)scale(0.1 -0.1)">
     <use xlink:href="#DejaVuSans-48"/>
    </g>
   </g>
   <g id="text_80">
    <!-- 0 -->
    <g style="fill:#ffffff;" transform="translate(182.57875 223.655415)scale(0.1 -0.1)">
     <use xlink:href="#DejaVuSans-48"/>
    </g>
   </g>
   <g id="text_81">
    <!-- 1 -->
    <g style="fill:#ffffff;" transform="translate(280.437446 214.113849)scale(0.1 -0.1)">
     <use xlink:href="#DejaVuSans-49"/>
    </g>
   </g>
   <g id="text_82">
    <!-- 0 -->
    <g style="fill:#ffffff;" transform="translate(206.77075 199.463415)scale(0.1 -0.1)">
     <use xlink:href="#DejaVuSans-48"/>
    </g>
   </g>
   <g id="text_83">
    <!-- 0 -->
    <g style="fill:#ffffff;" transform="translate(255.15475 191.399375)scale(0.1 -0.1)">
     <use xlink:href="#DejaVuSans-48"/>
    </g>
   </g>
   <g id="text_84">
    <!-- 1 -->
    <g style="fill:#ffffff;" transform="translate(61.61875 143.015375)scale(0.1 -0.1)">
     <use xlink:href="#DejaVuSans-49"/>
    </g>
   </g>
   <g id="text_85">
    <!-- 0 -->
    <g style="fill:#ffffff;" transform="translate(110.00275 159.143335)scale(0.1 -0.1)">
     <use xlink:href="#DejaVuSans-48"/>
    </g>
   </g>
   <g id="text_86">
    <!-- 0 -->
    <g style="fill:#ffffff;" transform="translate(146.29075 167.207375)scale(0.1 -0.1)">
     <use xlink:href="#DejaVuSans-48"/>
    </g>
   </g>
   <g id="text_87">
    <!-- 0 -->
    <g style="fill:#ffffff;" transform="translate(182.57875 183.335335)scale(0.1 -0.1)">
     <use xlink:href="#DejaVuSans-48"/>
    </g>
   </g>
   <g id="text_88">
    <!-- 1 -->
    <g style="fill:#ffffff;" transform="translate(67.538895 105.636679)scale(0.1 -0.1)">
     <use xlink:href="#DejaVuSans-49"/>
    </g>
   </g>
   <g id="text_89">
    <!-- 1 -->
    <g style="fill:#ffffff;" transform="translate(84.720054 71.916901)scale(0.1 -0.1)">
     <use xlink:href="#DejaVuSans-49"/>
    </g>
   </g>
   <g id="text_90">
    <!-- 1 -->
    <g style="fill:#ffffff;" transform="translate(297.618605 180.394071)scale(0.1 -0.1)">
     <use xlink:href="#DejaVuSans-49"/>
    </g>
   </g>
   <g id="text_91">
    <!-- 0 -->
    <g style="fill:#ffffff;" transform="translate(218.86675 167.207375)scale(0.1 -0.1)">
     <use xlink:href="#DejaVuSans-48"/>
    </g>
   </g>
   <g id="text_92">
    <!-- 0 -->
    <g style="fill:#ffffff;" transform="translate(255.15475 159.143335)scale(0.1 -0.1)">
     <use xlink:href="#DejaVuSans-48"/>
    </g>
   </g>
   <g id="text_93">
    <!-- 0 -->
    <g style="fill:#ffffff;" transform="translate(110.00275 126.887415)scale(0.1 -0.1)">
     <use xlink:href="#DejaVuSans-48"/>
    </g>
   </g>
   <g id="text_94">
    <!-- 0 -->
    <g style="fill:#ffffff;" transform="translate(146.29075 132.935379)scale(0.1 -0.1)">
     <use xlink:href="#DejaVuSans-48"/>
    </g>
   </g>
   <g id="text_95">
    <!-- 0 -->
    <g style="fill:#ffffff;" transform="translate(182.57875 143.015375)scale(0.1 -0.1)">
     <use xlink:href="#DejaVuSans-48"/>
    </g>
   </g>
   <g id="text_96">
    <!-- 0 -->
    <g style="fill:#ffffff;" transform="translate(110.00275 94.631375)scale(0.1 -0.1)">
     <use xlink:href="#DejaVuSans-48"/>
    </g>
   </g>
   <g id="text_97">
    <!-- 1 -->
    <g style="fill:#ffffff;" transform="translate(111.480276 45.156679)scale(0.1 -0.1)">
     <use xlink:href="#DejaVuSans-49"/>
    </g>
   </g>
   <g id="text_98">
    <!-- 1 -->
    <g style="fill:#ffffff;" transform="translate(303.53875 143.015375)scale(0.1 -0.1)">
     <use xlink:href="#DejaVuSans-49"/>
    </g>
   </g>
   <g id="text_99">
    <!-- 0 -->
    <g style="fill:#ffffff;" transform="translate(218.86675 132.935379)scale(0.1 -0.1)">
     <use xlink:href="#DejaVuSans-48"/>
    </g>
   </g>
   <g id="text_100">
    <!-- 0 -->
    <g style="fill:#ffffff;" transform="translate(255.15475 126.887415)scale(0.1 -0.1)">
     <use xlink:href="#DejaVuSans-48"/>
    </g>
   </g>
   <g id="text_101">
    <!-- 0 -->
    <g style="fill:#ffffff;" transform="translate(146.29075 98.663335)scale(0.1 -0.1)">
     <use xlink:href="#DejaVuSans-48"/>
    </g>
   </g>
   <g id="text_102">
    <!-- 0 -->
    <g style="fill:#ffffff;" transform="translate(182.57875 102.695415)scale(0.1 -0.1)">
     <use xlink:href="#DejaVuSans-48"/>
    </g>
   </g>
   <g id="text_103">
    <!-- 0 -->
    <g style="fill:#ffffff;" transform="translate(134.19475 70.439375)scale(0.1 -0.1)">
     <use xlink:href="#DejaVuSans-48"/>
    </g>
   </g>
   <g id="text_104">
    <!-- 1 -->
    <g style="fill:#ffffff;" transform="translate(145.200054 27.97552)scale(0.1 -0.1)">
     <use xlink:href="#DejaVuSans-49"/>
    </g>
   </g>
   <g id="text_105">
    <!-- 1 -->
    <g style="fill:#ffffff;" transform="translate(297.618605 105.636679)scale(0.1 -0.1)">
     <use xlink:href="#DejaVuSans-49"/>
    </g>
   </g>
   <g id="text_106">
    <!-- 0 -->
    <g style="fill:#ffffff;" transform="translate(218.86675 98.663335)scale(0.1 -0.1)">
     <use xlink:href="#DejaVuSans-48"/>
    </g>
   </g>
   <g id="text_107">
    <!-- 0 -->
    <g style="fill:#ffffff;" transform="translate(255.15475 94.631375)scale(0.1 -0.1)">
     <use xlink:href="#DejaVuSans-48"/>
    </g>
   </g>
   <g id="text_108">
    <!-- 0 -->
    <g style="fill:#ffffff;" transform="translate(182.57875 62.375335)scale(0.1 -0.1)">
     <use xlink:href="#DejaVuSans-48"/>
    </g>
   </g>
   <g id="text_109">
    <!-- 1 -->
    <g style="fill:#ffffff;" transform="translate(182.57875 22.055375)scale(0.1 -0.1)">
     <use xlink:href="#DejaVuSans-49"/>
    </g>
   </g>
   <g id="text_110">
    <!-- 1 -->
    <g style="fill:#ffffff;" transform="translate(280.437446 71.916901)scale(0.1 -0.1)">
     <use xlink:href="#DejaVuSans-49"/>
    </g>
   </g>
   <g id="text_111">
    <!-- 0 -->
    <g style="fill:#ffffff;" transform="translate(230.96275 70.439375)scale(0.1 -0.1)">
     <use xlink:href="#DejaVuSans-48"/>
    </g>
   </g>
   <g id="text_112">
    <!-- 1 -->
    <g style="fill:#ffffff;" transform="translate(219.957446 27.97552)scale(0.1 -0.1)">
     <use xlink:href="#DejaVuSans-49"/>
    </g>
   </g>
   <g id="text_113">
    <!-- 1 -->
    <g style="fill:#ffffff;" transform="translate(253.677224 45.156679)scale(0.1 -0.1)">
     <use xlink:href="#DejaVuSans-49"/>
    </g>
   </g>
  </g>
 </g>
 <defs>
  <clipPath id="p1b9dc9690c">
   <rect height="266.112" width="357.12" x="7.2" y="7.2"/>
  </clipPath>
 </defs>
</svg>
