<?xml version="1.0" encoding="utf-8" standalone="no"?>
<!DOCTYPE svg PUBLIC "-//W3C//DTD SVG 1.1//EN"
  "http://www.w3.org/Graphics/SVG/1.1/DTD/svg11.dtd">
<!-- Created with matplotlib (https://matplotlib.org/) -->
<svg height="228.108191pt" version="1.1" viewBox="0 0 500.034375 228.108191" width="500.034375pt" xmlns="http://www.w3.org/2000/svg" xmlns:xlink="http://www.w3.org/1999/xlink">
 <defs>
  <style type="text/css">
*{stroke-linecap:butt;stroke-linejoin:round;}
  </style>
 </defs>
 <g id="figure_1">
  <g id="patch_1">
   <path d="M 0 228.108191 
L 500.034375 228.108191 
L 500.034375 0 
L 0 0 
z
" style="fill:#ffffff;"/>
  </g>
  <g id="axes_1">
   <g id="LineCollection_1"/>
   <g id="LineCollection_2">
    <path clip-path="url(#p6a9b0b33aa)" d="M 38.483269 70.287227 
L 39.25713 71.326034 
L 40.0376 72.85718 
L 40.040837 72.862533 
L 40.042861 72.868047 
L 40.6094 74.465816 
L 40.671418 75.468646 
L 40.775275 75.994754 
L 40.71049 76.624398 
L 40.625548 77.307427 
L 40.400595 77.752837 
L 40.202242 78.338594 
L 39.910985 78.686627 
L 39.677997 78.890592 
L 39.260944 79.240806 
L 38.719595 79.366994 
L 38.483391 79.438308 
" style="fill:none;stroke:#1f77b4;stroke-dasharray:1.5,2.475;stroke-dashoffset:0;stroke-opacity:0.5;stroke-width:1.5;"/>
   </g>
   <g id="LineCollection_3">
    <path clip-path="url(#p6a9b0b33aa)" d="M 38.882935 62.170899 
L 39.685324 62.720284 
L 40.569969 63.224898 
L 41.784422 64.29423 
L 41.846641 64.349289 
L 42.66855 65.281565 
L 43.310739 65.999448 
L 43.347176 66.047758 
L 43.604496 66.453931 
L 44.529055 67.86507 
L 44.617812 68.018092 
L 45.471269 69.946451 
L 45.473835 69.953018 
L 46.049688 71.975672 
L 46.077361 72.147701 
L 46.330317 73.974135 
L 46.289857 74.837624 
L 46.241461 75.952796 
L 45.696503 78.044164 
L 45.689375 78.084424 
L 45.68415 78.099587 
L 45.652804 78.15594 
L 44.717777 80.118402 
L 44.359623 80.578824 
L 43.233236 81.737613 
L 42.908679 82.075287 
L 42.303171 82.401044 
L 41.288741 83.070319 
L 40.376267 83.326058 
L 39.019716 83.541474 
L 38.483348 83.647847 
" style="fill:none;stroke:#1f77b4;stroke-dasharray:1.5,2.475;stroke-dashoffset:0;stroke-opacity:0.5;stroke-width:1.5;"/>
   </g>
   <g id="LineCollection_4">
    <path clip-path="url(#p6a9b0b33aa)" d="M 47.434893 54.054571 
L 48.552267 55.231148 
L 50.567702 57.357242 
L 52.305428 59.841485 
L 52.870129 60.626122 
L 54.905104 64.522395 
L 54.931112 64.576169 
L 56.220461 68.301077 
L 56.397947 68.888321 
L 56.563873 70.157908 
L 57.058089 72.95792 
L 56.982862 76.182882 
L 56.963312 77.038934 
L 56.639607 78.539539 
L 56.241589 80.7863 
L 55.145472 83.686813 
L 54.618625 84.726977 
L 52.926487 87.587435 
L 51.621939 88.927124 
L 50.279849 90.353732 
L 48.187506 91.87822 
L 46.876596 92.734767 
L 43.368813 94.007928 
L 42.798517 94.265391 
L 42.603116 94.305535 
L 38.788294 94.81381 
L 38.483301 94.845144 
" style="fill:none;stroke:#1f77b4;stroke-dasharray:1.5,2.475;stroke-dashoffset:0;stroke-opacity:0.5;stroke-width:1.5;"/>
   </g>
   <g id="LineCollection_5">
    <path clip-path="url(#p6a9b0b33aa)" d="M 62.832359 45.938243 
L 65.666692 49.423708 
L 66.159411 49.993695 
L 66.372455 50.301868 
L 69.782118 55.279387 
L 69.974033 55.587565 
L 70.275328 56.207588 
L 72.361304 59.858654 
L 74.089942 64.077878 
L 74.399301 64.803345 
L 74.537293 65.371681 
L 76.190738 70.318681 
L 76.818402 74.340885 
L 77.240681 76.068529 
L 77.440254 78.740283 
L 77.696376 82.129452 
L 77.408676 85.271352 
L 77.387287 88.444327 
L 76.668608 92.350775 
L 76.233588 94.512321 
L 74.593896 99.12253 
L 73.993641 101.15607 
L 73.80673 101.748619 
L 70.521793 107.971487 
L 70.44466 108.121211 
L 68.697559 110.407171 
L 65.595722 114.560809 
L 65.299591 114.809491 
L 59.864825 119.985743 
L 56.719247 121.760618 
L 53.059585 123.990617 
L 46.405053 125.971545 
L 45.778377 126.205703 
L 45.110875 126.255802 
L 38.483256 127.275866 
" style="fill:none;stroke:#1f77b4;stroke-dasharray:1.5,2.475;stroke-dashoffset:0;stroke-opacity:0.5;stroke-width:1.5;"/>
   </g>
   <g id="LineCollection_6">
    <path clip-path="url(#p6a9b0b33aa)" d="M 87.473322 37.821915 
L 87.565209 37.92519 
L 87.680724 38.0669 
L 94.648104 45.713554 
L 95.874176 47.443937 
L 100.378853 52.983191 
L 102.667448 56.586912 
L 106.173192 61.790162 
L 106.970681 63.312836 
L 111.11148 70.147513 
L 113.359306 75.007321 
L 115.132774 78.159755 
L 116.305073 80.508999 
L 118.885628 86.880764 
L 120.671494 90.528845 
L 122.9559 97.19283 
L 124.202489 99.93307 
L 126.435022 107.209341 
L 127.42856 109.57848 
L 129.53658 117.263071 
L 130.405606 119.519551 
L 132.421983 127.719073 
L 133.122446 129.682609 
L 135.137981 138.65398 
L 135.549781 139.884709 
L 136.685609 145.133059 
L 137.640423 149.687281 
L 137.889528 151.560936 
L 139.57194 159.552328 
L 140.605869 166.836424 
L 141.159547 169.438933 
L 141.795216 173.858158 
L 142.520453 179.391787 
L 142.943109 184.082649 
L 143.622965 189.716899 
L 144.175052 197.882671 
L 144.336434 200.148476 
" style="fill:none;stroke:#1f77b4;stroke-dasharray:1.5,2.475;stroke-dashoffset:0;stroke-opacity:0.5;stroke-width:1.5;"/>
   </g>
   <g id="LineCollection_7">
    <path clip-path="url(#p6a9b0b33aa)" d="M 128.828773 29.705587 
L 135.439281 34.620218 
L 141.431376 38.882283 
L 142.918958 40.076517 
L 144.473491 41.303187 
L 150.339265 45.55071 
L 155.923878 49.255864 
L 159.023145 51.667265 
L 168.951395 58.108534 
L 169.073864 58.202049 
L 169.291145 58.341899 
L 178.156722 63.816399 
L 185.467758 67.654553 
L 187.417847 68.829675 
L 189.477829 69.869087 
L 196.642101 73.230617 
L 203.952266 76.130129 
L 206.823017 77.114158 
L 213.48226 79.326621 
L 217.802455 80.395903 
L 226.392561 81.811299 
L 229.589433 82.479274 
L 237.65219 82.871614 
L 241.39186 83.116001 
" style="fill:none;stroke:#1f77b4;stroke-dasharray:1.5,2.475;stroke-dashoffset:0;stroke-opacity:0.5;stroke-width:1.5;"/>
   </g>
   <g id="LineCollection_8"/>
   <g id="LineCollection_9"/>
   <g id="LineCollection_10">
    <path clip-path="url(#p6a9b0b33aa)" d="M 38.483435 78.403555 
L 38.483435 78.403555 
L 38.483435 78.410417 
" style="fill:none;stroke:#1f77b4;stroke-opacity:0.5;stroke-width:1.5;"/>
    <path clip-path="url(#p6a9b0b33aa)" d="M 46.768071 204.187401 
L 49.159744 204.170491 
L 49.164148 204.173288 
L 58.782232 204.021102 
" style="fill:none;stroke:#1f77b4;stroke-opacity:0.5;stroke-width:1.5;"/>
    <path clip-path="url(#p6a9b0b33aa)" d="M 62.869483 203.926759 
L 70.521512 203.730873 
L 70.521843 203.730946 
L 81.200854 203.368716 
L 91.88 202.923047 
L 91.880324 202.923073 
L 91.880507 202.923083 
L 102.559495 202.416936 
L 102.559728 202.416941 
L 113.238962 201.861803 
L 113.239193 201.861801 
L 123.918439 201.278653 
L 123.918665 201.278644 
L 134.597716 200.684682 
L 134.597924 200.684667 
L 145.277181 200.096458 
L 145.277388 200.096439 
L 155.956439 199.529576 
L 155.956646 199.529552 
L 166.6359 198.997377 
L 166.6361 198.997349 
L 177.315346 198.51256 
L 177.315552 198.512528 
L 187.994564 198.089338 
L 187.994711 198.089315 
L 187.994915 198.089281 
L 198.674089 197.726336 
L 198.674329 197.726278 
L 209.353406 197.439296 
L 209.353524 197.439258 
L 220.032629 197.22884 
L 220.033381 197.228512 
L 223.13844 197.19226 
" style="fill:none;stroke:#1f77b4;stroke-opacity:0.5;stroke-width:1.5;"/>
    <path clip-path="url(#p6a9b0b33aa)" d="M 232.867511 197.0935 
L 241.37237 197.041675 
L 241.34798 186.219285 
L 241.372889 186.185265 
L 241.375524 175.252233 
L 241.381589 175.237934 
L 241.381037 164.204787 
L 241.384066 164.19476 
L 241.38409 153.064013 
L 241.385805 153.056843 
L 241.385736 141.823989 
L 241.386699 141.818984 
L 241.387415 141.815619 
L 241.387369 130.478817 
L 241.388011 130.47492 
L 241.387982 119.024594 
L 241.38852 119.020822 
L 241.388481 107.445054 
L 241.388934 107.441668 
L 241.388907 95.736358 
L 241.389268 95.733516 
L 241.389235 83.891566 
L 241.389513 83.889379 
L 241.389492 71.900026 
L 241.389695 71.898056 
L 241.389869 71.895817 
L 241.389825 59.752834 
L 241.389992 59.750823 
L 241.390046 47.445472 
L 241.390185 47.443551 
L 241.389901 34.970206 
L 241.390044 34.967647 
L 241.390925 22.31895 
L 241.390958 22.31813 
" style="fill:none;stroke:#1f77b4;stroke-opacity:0.5;stroke-width:1.5;"/>
   </g>
   <g id="LineCollection_11">
    <path clip-path="url(#p6a9b0b33aa)" d="M 38.483417 78.164858 
L 38.576882 78.173085 
L 38.836506 78.278182 
L 39.04979 78.407212 
L 39.131805 78.554425 
L 39.431734 78.809655 
L 39.616044 79.177739 
L 39.786858 79.33176 
L 40.089356 79.767318 
L 40.244422 80.07597 
L 40.468423 80.582824 
L 40.726622 80.985049 
L 41.045715 81.37768 
L 41.390283 82.157526 
L 41.878838 83.362764 
L 42.436774 84.109098 
L 43.342149 86.202701 
L 43.609747 86.550498 
L 44.588621 88.739327 
L 45.843568 90.892389 
L 46.12776 91.691345 
L 47.006632 93.439025 
L 47.948057 95.127016 
L 48.840801 96.455569 
L 50.349574 99.393235 
L 51.393217 101.433332 
L 53.093478 103.797734 
L 55.438089 107.074614 
L 55.840091 107.877607 
L 56.895406 109.359088 
L 59.373976 112.760257 
L 61.320127 114.586469 
L 63.871815 118.047695 
L 68.710052 122.382368 
L 68.810872 122.46912 
L 69.147547 122.711558 
L 74.963161 127.269605 
L 76.390904 128.436062 
L 82.64156 131.874888 
L 85.238833 133.345717 
L 92.430598 135.872164 
L 94.464561 136.651314 
L 100.822374 137.900901 
L 104.216759 138.673806 
L 105.877596 138.754135 
L 114.258072 139.468678 
L 122.127023 138.907883 
L 123.996956 138.846316 
L 126.774519 138.351693 
L 133.496539 137.351262 
L 136.940009 136.309686 
L 142.993575 134.74162 
L 151.635657 131.127121 
L 152.037291 130.969942 
L 152.443875 130.738335 
L 160.998071 126.291333 
L 165.404571 123.182745 
L 169.546029 120.256667 
L 175.119725 115.196966 
L 177.747159 112.751214 
L 182.960757 106.681172 
L 185.646285 103.470614 
L 190.172445 96.457905 
L 192.272581 93.287455 
L 195.332177 87.343787 
L 197.869047 82.485261 
L 199.50254 78.366464 
L 201.876761 72.79339 
L 203.045409 69.30762 
L 205.30026 62.753368 
L 206.024107 60.113203 
L 207.136472 55.71171 
L 208.575927 51.045435 
L 210.481582 42.593303 
L 210.610872 42.158903 
L 211.299602 38.803051 
L 212.558771 32.846164 
L 212.640631 32.226422 
L 213.105441 29.463486 
L 214.337207 22.712809 
" style="fill:none;stroke:#1f77b4;stroke-opacity:0.5;stroke-width:1.5;"/>
   </g>
   <g id="LineCollection_12">
    <path clip-path="url(#p6a9b0b33aa)" d="M 38.483393 77.55606 
L 38.703116 77.554498 
L 39.070895 77.517881 
L 39.56576 77.674383 
L 39.845655 77.706785 
L 40.468098 78.06121 
L 40.85348 78.17281 
L 41.495717 78.529332 
L 41.875331 78.857245 
L 42.618177 79.263765 
L 43.536788 79.948467 
L 43.850477 80.256057 
L 44.468171 80.807888 
L 45.446561 81.481344 
L 47.36451 83.10213 
L 47.617874 83.250126 
L 48.301609 83.754506 
L 50.192271 85.254404 
L 50.738966 85.881973 
L 52.869531 87.504707 
L 54.158722 88.395513 
L 55.261873 89.017297 
L 57.805915 91.011643 
L 61.257364 93.259415 
L 62.416294 93.888758 
L 63.957576 94.535013 
L 67.855717 96.848849 
L 72.132488 98.8463 
L 74.320438 99.562597 
L 79.538225 101.213703 
L 80.49032 101.587878 
L 82.934307 102.121106 
L 87.294547 103.119564 
L 88.005323 103.151067 
L 95.655583 104.039583 
L 96.735309 103.96727 
L 104.527781 103.938646 
L 107.372884 103.417216 
L 113.245868 102.728546 
L 120.365 100.674915 
L 121.536543 100.413175 
L 123.101741 99.797929 
L 129.778607 97.357402 
L 135.908573 94.002011 
L 138.041242 92.964531 
L 140.005741 91.628389 
L 146.014801 87.71971 
L 153.746386 80.952886 
L 154.103 80.662553 
L 154.352981 80.396459 
L 163.188634 70.721199 
L 163.747161 70.079642 
L 165.252358 67.893589 
L 170.660772 60.378214 
L 171.832901 58.346847 
L 174.096264 54.043092 
L 177.324097 48.474367 
L 178.90256 45.240618 
L 181.616435 39.413757 
L 183.359051 34.615004 
L 184.983698 30.876911 
L 187.282861 23.913824 
" style="fill:none;stroke:#1f77b4;stroke-opacity:0.5;stroke-width:1.5;"/>
   </g>
   <g id="LineCollection_13">
    <path clip-path="url(#p6a9b0b33aa)" d="M 38.483372 76.508633 
L 38.774476 76.473772 
L 39.540164 76.310253 
L 39.81329 76.340222 
L 40.932794 76.302561 
L 41.168052 76.372727 
L 41.767691 76.511892 
L 42.681657 76.575859 
L 43.739747 76.812707 
L 43.980083 76.889026 
L 44.400346 77.036205 
L 45.59889 77.363373 
L 46.426323 77.495521 
L 48.031633 78.0869 
L 49.302491 78.367708 
L 50.372432 78.775839 
L 52.227976 79.405185 
L 53.247728 79.680196 
L 53.850629 79.748619 
L 57.035454 80.717288 
L 57.226888 80.737319 
L 60.672893 81.72396 
L 61.850007 81.836509 
L 66.19978 82.686296 
L 66.579982 82.785467 
L 66.777409 82.834486 
L 72.074501 83.446302 
L 73.50578 83.716171 
L 78.392868 83.762671 
L 80.328435 83.932466 
L 85.919771 83.476239 
L 87.544002 83.459578 
L 94.766234 82.205362 
L 94.884297 82.192453 
L 95.749579 81.957207 
L 103.172466 80.010471 
L 103.954834 79.699069 
L 110.857759 77.096428 
L 113.273344 75.773165 
L 119.654443 72.431355 
L 122.811453 70.390803 
L 128.944851 65.872201 
L 129.727929 65.267881 
L 135.808656 59.98033 
L 137.926831 57.807755 
L 144.543432 50.483189 
L 146.830875 47.663727 
L 152.856967 38.968499 
L 153.240927 38.354628 
L 157.573844 31.407716 
L 160.228484 25.989929 
" style="fill:none;stroke:#1f77b4;stroke-opacity:0.5;stroke-width:1.5;"/>
   </g>
   <g id="LineCollection_14">
    <path clip-path="url(#p6a9b0b33aa)" d="M 38.483345 75.003923 
L 38.641467 74.964497 
L 39.476739 74.684589 
L 39.815021 74.556947 
L 39.908027 74.512919 
L 41.355448 74.204337 
L 41.435047 74.174518 
L 41.734787 74.127117 
L 42.998663 73.947229 
L 44.760522 73.798509 
L 44.76094 73.798536 
L 44.762998 73.798469 
L 46.969528 73.676042 
L 47.556435 73.587766 
L 49.554441 73.590289 
L 50.965555 73.426435 
L 52.300506 73.493209 
L 55.154286 73.286572 
L 55.703667 73.34275 
L 58.548457 73.169044 
L 59.916168 73.072406 
L 60.314533 72.980946 
L 65.79594 72.46154 
L 65.826877 72.45336 
L 66.387938 72.359547 
L 72.024824 71.43386 
L 72.366324 71.407549 
L 79.016766 69.781407 
L 79.055429 69.77545 
L 79.242755 69.715267 
L 85.803036 67.646197 
L 87.739162 66.726136 
L 92.817964 64.754555 
L 99.214434 61.257597 
L 99.648408 61.01718 
L 100.122977 60.675906 
L 106.429278 56.654084 
L 109.532546 54.559283 
L 114.366584 50.342576 
L 116.13448 48.828018 
L 118.369859 46.49197 
L 123.161838 41.8265 
L 125.445085 39.176512 
L 129.841594 33.800211 
L 133.174116 29.107293 
" style="fill:none;stroke:#1f77b4;stroke-opacity:0.5;stroke-width:1.5;"/>
   </g>
   <g id="LineCollection_15">
    <path clip-path="url(#p6a9b0b33aa)" d="M 38.483313 72.912365 
L 39.48424 72.408286 
L 40.132899 72.012522 
L 40.955924 71.694936 
L 42.07672 71.16323 
L 42.42744 71.057374 
L 43.678169 70.514185 
L 45.356692 69.9279 
L 45.454541 69.882773 
L 45.577553 69.828645 
L 47.481333 69.14352 
L 49.24572 68.609531 
L 49.898822 68.324877 
L 51.249503 67.803453 
L 52.730485 67.353271 
L 53.68624 67.12048 
L 55.869701 66.31015 
L 59.261936 65.079422 
L 59.407209 65.018056 
L 59.517913 64.963045 
L 63.859178 63.342957 
L 64.65788 62.934508 
L 69.591358 60.86349 
L 70.236108 60.506269 
L 76.68919 57.233965 
L 76.711944 57.219891 
L 76.762297 57.186778 
L 83.065401 53.533217 
L 88.155518 49.873606 
L 89.616075 48.946859 
L 92.258857 46.754028 
L 95.231302 44.349555 
L 96.138512 43.424466 
L 100.589176 39.532503 
L 105.999723 33.686385 
L 106.062182 33.62584 
L 106.119772 33.559342 
" style="fill:none;stroke:#1f77b4;stroke-opacity:0.5;stroke-width:1.5;"/>
   </g>
   <g id="LineCollection_16">
    <path clip-path="url(#p6a9b0b33aa)" d="M 38.483265 70.098079 
L 38.710198 69.952519 
L 39.374227 69.432909 
L 39.76491 69.113034 
L 40.005314 68.90449 
L 40.877492 68.239673 
L 41.700841 67.682891 
L 42.184983 67.276264 
L 43.013233 66.652043 
L 43.505209 66.326773 
L 44.052549 65.980647 
L 45.063122 65.247515 
L 45.836026 64.64224 
L 46.841018 64.052581 
L 48.180549 63.050259 
L 49.502555 62.305362 
L 50.500233 61.541947 
L 52.835779 60.091144 
L 53.105961 59.867041 
L 56.162804 57.89172 
L 56.479737 57.636564 
L 59.343335 55.806376 
L 60.535502 54.873238 
L 63.010658 53.280507 
L 66.178977 50.863859 
L 66.871334 50.408075 
L 67.597402 49.886835 
L 70.401379 47.768092 
L 72.84491 45.549952 
L 74.914127 43.968195 
L 79.065482 40.173277 
" style="fill:none;stroke:#1f77b4;stroke-opacity:0.5;stroke-width:1.5;"/>
   </g>
   <g id="LineCollection_17">
    <path clip-path="url(#p6a9b0b33aa)" d="M 38.483172 66.071291 
L 39.042525 65.353186 
L 39.789181 64.439579 
L 39.908015 64.244809 
L 40.437514 63.53679 
L 40.960677 62.862316 
L 41.18244 62.630985 
L 42.291527 61.189159 
L 42.723395 60.762256 
L 43.774193 59.463443 
L 44.906098 58.361254 
L 45.698106 57.424709 
L 46.558383 56.622227 
L 48.419003 54.634438 
L 49.100851 54.068494 
L 51.744662 51.41867 
L 51.809202 51.366423 
L 52.011424 51.173746 
" style="fill:none;stroke:#1f77b4;stroke-opacity:0.5;stroke-width:1.5;"/>
   </g>
   <g id="LineCollection_18"/>
   <g id="line2d_1">
    <path d="M 241.391755 22.318125 
L 228.619126 22.399858 
L 215.84645 22.660699 
L 203.073962 23.101697 
L 190.301247 23.7219 
L 177.528769 24.534038 
L 164.756051 25.550828 
L 151.983573 26.789552 
L 139.334509 28.259091 
L 127.295603 29.916683 
L 116.370543 31.665204 
L 106.025798 33.576706 
L 96.396246 35.629646 
L 87.647551 37.773847 
L 79.836532 39.928817 
L 72.825928 42.151517 
L 66.48682 44.435708 
L 60.832594 46.760448 
L 55.938195 49.057112 
L 51.732486 51.324101 
L 48.172269 53.529637 
L 45.142449 55.686551 
L 42.744302 57.686131 
L 40.94981 59.418547 
L 39.590595 61.046717 
L 38.482813 62.80653 
" style="fill:none;stroke:#1f77b4;stroke-linecap:square;stroke-width:1.5;"/>
   </g>
   <g id="line2d_2">
    <path d="M 38.482813 62.80653 
L 38.4832 64.594655 
L 38.483169 66.224139 
L 38.48324 67.946597 
L 38.483259 69.799917 
L 38.483296 71.596305 
L 38.483317 73.277028 
L 38.483342 74.797802 
L 38.483365 76.100435 
L 38.483382 77.124636 
L 38.483401 77.842262 
L 38.483421 78.245149 
L 38.483435 78.403555 
" style="fill:none;stroke:#ff7f0e;stroke-linecap:square;stroke-width:1.5;"/>
   </g>
   <g id="line2d_3">
    <path d="M 38.483435 78.403555 
L 38.48342 78.527296 
L 38.4834 78.948819 
L 38.483386 79.673474 
L 38.483373 80.713969 
L 38.48335 82.14985 
L 38.483348 83.953065 
L 38.483323 86.148625 
L 38.483317 88.729734 
L 38.483303 91.706641 
L 38.483301 95.1853 
L 38.483281 99.315201 
L 38.483282 104.072429 
L 38.48327 109.607621 
L 38.483265 116.051689 
L 38.483258 123.504068 
L 38.483254 132.208704 
L 38.483248 141.918912 
L 38.483244 151.90485 
L 38.483242 162.085814 
L 38.483237 172.424449 
L 38.483243 182.909141 
L 38.483207 193.506115 
L 38.483332 204.230066 
" style="fill:none;stroke:#808080;stroke-dasharray:1.5,2.475;stroke-dashoffset:0;stroke-width:1.5;"/>
   </g>
   <g id="line2d_4">
    <path d="M 38.483332 204.230066 
L 49.162847 204.175069 
L 59.842157 204.004137 
L 70.521633 203.731172 
L 81.200893 203.368898 
L 91.880361 202.923293 
L 102.559623 202.417137 
L 113.239088 201.862007 
L 123.918553 201.278852 
L 134.597814 200.68488 
L 145.277279 200.096654 
L 155.95654 199.529769 
L 166.636003 198.997567 
L 177.315467 198.512745 
L 187.994727 198.089511 
L 198.674191 197.726547 
L 209.353448 197.439394 
L 220.03292 197.229376 
L 230.712146 197.101741 
L 241.391738 197.06091 
" style="fill:none;stroke:#808080;stroke-linecap:square;stroke-width:1.5;"/>
   </g>
   <g id="line2d_5">
    <path d="M 241.391738 197.06091 
L 241.391867 186.196965 
L 241.391835 175.242454 
L 241.391846 164.19733 
L 241.391845 153.058133 
L 241.391847 141.818873 
L 241.39185 130.477614 
L 241.391851 119.022386 
L 241.391854 107.44294 
L 241.391856 95.734514 
L 241.391859 83.890018 
L 241.391862 71.898249 
L 241.391867 59.752583 
L 241.39186 47.44491 
L 241.391903 34.969146 
L 241.391755 22.318125 
" style="fill:none;stroke:#808080;stroke-dasharray:5.55,2.4;stroke-dashoffset:0;stroke-width:1.5;"/>
   </g>
   <g id="text_1">
    <!-- $z$ -->
    <defs>
     <path d="M 11.625 54.6875 
L 54.296875 54.6875 
L 52.6875 46.484375 
L 11.53125 7.171875 
L 45.515625 7.171875 
L 44.09375 0 
L -0.296875 0 
L 1.3125 8.203125 
L 42.484375 47.515625 
L 10.203125 47.515625 
z
" id="DejaVuSans-Oblique-122"/>
    </defs>
    <g transform="translate(136.757358 16.318125)scale(0.12 -0.12)">
     <use transform="translate(0 0.3125)" xlink:href="#DejaVuSans-Oblique-122"/>
    </g>
   </g>
  </g>
  <g id="axes_2">
   <g id="LineCollection_19"/>
   <g id="LineCollection_20">
    <path clip-path="url(#p83a4633e5e)" d="M 306.07436 32.110459 
L 304.833085 33.14927 
L 302.66253 34.680424 
L 302.65467 34.685776 
L 302.644907 34.691291 
L 300.149958 36.289066 
L 298.291123 37.291901 
L 297.231521 37.818011 
L 295.580763 38.447658 
L 294.045718 39.130689 
L 292.662496 39.576102 
L 290.768115 40.161862 
L 288.953566 40.509896 
L 287.903422 40.713862 
L 285.537084 41.064078 
L 283.275127 41.190266 
L 281.973722 41.26158 
" style="fill:none;stroke:#1f77b4;stroke-dasharray:1.5,2.475;stroke-dashoffset:0;stroke-opacity:0.5;stroke-width:1.5;"/>
   </g>
   <g id="LineCollection_21">
    <path clip-path="url(#p83a4633e5e)" d="M 312.750074 32.110459 
L 312.688975 32.659846 
L 312.549346 33.164462 
L 312.236351 34.2338 
L 312.210233 34.288858 
L 311.816759 35.221139 
L 311.519478 35.939025 
L 311.502762 35.987335 
L 311.285411 36.39351 
L 310.547533 37.804655 
L 310.438135 37.957678 
L 309.187811 39.886045 
L 309.182135 39.892612 
L 307.595594 41.915275 
L 307.415067 42.087305 
L 305.78461 43.913747 
L 304.723078 44.77724 
L 303.568773 45.892416 
L 300.630559 47.983793 
L 300.576278 48.024054 
L 300.548901 48.039217 
L 300.441778 48.09557 
L 297.016607 50.058041 
L 296.090335 50.518465 
L 292.930889 51.677259 
L 292.136096 52.014935 
L 290.815105 52.340692 
L 288.279216 53.009971 
L 286.11895 53.265711 
L 283.217873 53.481128 
L 281.973722 53.587501 
" style="fill:none;stroke:#1f77b4;stroke-dasharray:1.5,2.475;stroke-dashoffset:0;stroke-opacity:0.5;stroke-width:1.5;"/>
   </g>
   <g id="LineCollection_22">
    <path clip-path="url(#p83a4633e5e)" d="M 320.018996 32.110459 
L 320.138829 33.287042 
L 320.483708 35.413145 
L 320.455131 37.897399 
L 320.411515 38.682039 
L 319.852509 42.578329 
L 319.83902 42.632103 
L 318.854108 46.357028 
L 318.629143 46.944274 
L 318.022652 48.213867 
L 316.955465 51.013891 
L 315.022591 54.238867 
L 314.580463 55.094923 
L 313.440679 56.595535 
L 311.735046 58.842305 
L 309.067835 61.742831 
L 307.829212 62.783 
L 304.51575 65.64347 
L 302.176389 66.983165 
L 299.955898 68.409779 
L 296.496113 69.934274 
L 294.522455 70.790825 
L 289.212822 72.063991 
L 288.327658 72.321455 
L 288.017609 72.3616 
L 282.445926 72.869877 
L 281.973722 72.901211 
" style="fill:none;stroke:#1f77b4;stroke-dasharray:1.5,2.475;stroke-dashoffset:0;stroke-opacity:0.5;stroke-width:1.5;"/>
   </g>
   <g id="LineCollection_23">
    <path clip-path="url(#p83a4633e5e)" d="M 333.106847 32.110459 
L 334.122074 35.59594 
L 334.300339 36.165928 
L 334.35309 36.474104 
L 335.417534 41.451645 
L 335.457135 41.759823 
L 335.493968 42.379849 
L 335.998187 46.030932 
L 336.13691 50.250174 
L 336.14781 50.975644 
L 336.074219 51.543983 
L 335.962231 56.491004 
L 335.277658 60.513225 
L 335.163101 62.240877 
L 334.605236 64.912643 
L 333.817812 68.301827 
L 332.647707 71.443741 
L 331.778427 74.61673 
L 330.103128 78.523195 
L 329.078773 80.68475 
L 326.316237 85.294979 
L 325.228163 87.328529 
L 324.924374 87.92108 
L 320.18173 94.143976 
L 320.076981 94.293699 
L 317.796964 96.57967 
L 313.727955 100.733326 
L 313.35571 100.982009 
L 306.690245 106.158284 
L 302.924544 107.933166 
L 298.677274 110.163175 
L 291.022099 112.144112 
L 290.288727 112.378271 
L 289.517777 112.42837 
L 281.973722 113.448439 
" style="fill:none;stroke:#1f77b4;stroke-dasharray:1.5,2.475;stroke-dashoffset:0;stroke-opacity:0.5;stroke-width:1.5;"/>
   </g>
   <g id="LineCollection_24">
    <path clip-path="url(#p83a4633e5e)" d="M 354.051726 32.110459 
L 354.100598 32.213734 
L 354.163259 32.355445 
L 358.235038 40.002133 
L 358.893752 41.732523 
L 361.612948 47.271802 
L 362.845312 50.875538 
L 364.979952 56.078811 
L 365.393813 57.601492 
L 367.896284 64.436199 
L 369.142641 69.296028 
L 370.247034 72.448476 
L 370.99877 74.79773 
L 372.433607 81.169524 
L 373.612803 84.81762 
L 374.890463 91.481635 
L 375.743292 94.221887 
L 377.024875 101.49819 
L 377.723291 103.867339 
L 378.958313 111.551964 
L 379.582316 113.808453 
L 380.787625 122.008011 
L 381.301058 123.971556 
L 382.541275 132.942967 
L 382.849364 134.173701 
L 383.587287 139.422074 
L 384.186968 143.976316 
L 384.30551 145.849979 
L 385.427239 153.841406 
L 386.001354 161.125534 
L 386.390765 163.728054 
L 386.769059 168.147299 
L 387.161836 173.680952 
L 387.319634 178.371834 
L 387.684027 184.006109 
L 387.791198 192.171917 
L 387.827174 194.437732 
" style="fill:none;stroke:#1f77b4;stroke-dasharray:1.5,2.475;stroke-dashoffset:0;stroke-opacity:0.5;stroke-width:1.5;"/>
   </g>
   <g id="LineCollection_25">
    <path clip-path="url(#p83a4633e5e)" d="M 389.203989 32.110459 
L 394.135257 37.025112 
L 398.776957 41.287195 
L 399.903717 42.481435 
L 401.124082 43.70811 
L 405.706909 47.955652 
L 410.219081 51.660822 
L 412.706398 54.072233 
L 420.91178 60.513531 
L 421.01253 60.607046 
L 421.196392 60.746897 
L 428.653714 66.221421 
L 434.95336 70.059592 
L 436.628621 71.234719 
L 438.435446 72.274135 
L 444.677144 75.63568 
L 451.164892 78.535205 
L 453.698406 79.519239 
L 459.673788 81.731711 
L 463.527292 82.800997 
L 471.283301 84.2164 
L 474.184243 84.884378 
L 481.499594 85.276719 
L 484.882812 85.521108 
" style="fill:none;stroke:#1f77b4;stroke-dasharray:1.5,2.475;stroke-dashoffset:0;stroke-opacity:0.5;stroke-width:1.5;"/>
   </g>
   <g id="LineCollection_26"/>
   <g id="LineCollection_27"/>
   <g id="LineCollection_28">
    <path clip-path="url(#p83a4633e5e)" d="M 281.973722 32.110459 
L 281.973722 32.11046 
L 281.973722 32.295396 
" style="fill:none;stroke:#1f77b4;stroke-opacity:0.5;stroke-width:1.5;"/>
    <path clip-path="url(#p83a4633e5e)" d="M 290.258394 194.437732 
L 292.650077 194.433114 
L 292.654482 194.435962 
L 302.272608 194.437732 
" style="fill:none;stroke:#1f77b4;stroke-opacity:0.5;stroke-width:1.5;"/>
    <path clip-path="url(#p83a4633e5e)" d="M 306.359877 194.437732 
L 314.01194 194.437429 
L 314.012271 194.437512 
L 324.691329 194.437548 
L 335.370521 194.43747 
L 335.370845 194.43751 
L 335.371028 194.437528 
L 346.050063 194.437524 
L 346.050296 194.437541 
L 356.729576 194.437522 
L 356.729808 194.437532 
L 367.4091 194.437527 
L 367.409327 194.43753 
L 378.088424 194.437529 
L 378.088633 194.437526 
L 388.767936 194.437531 
L 388.768143 194.437524 
L 399.447241 194.437534 
L 399.447448 194.437521 
L 410.126748 194.437537 
L 410.126949 194.437519 
L 420.806242 194.437542 
L 420.806448 194.437519 
L 431.485507 194.437553 
L 431.485654 194.437536 
L 431.485858 194.437509 
L 442.165078 194.437519 
L 442.165318 194.437468 
L 452.844442 194.437633 
L 452.84456 194.437598 
L 463.523712 194.437192 
L 463.524464 194.436877 
L 466.629537 194.437732 
" style="fill:none;stroke:#1f77b4;stroke-opacity:0.5;stroke-width:1.5;"/>
    <path clip-path="url(#p83a4633e5e)" d="M 476.358651 194.437732 
L 484.863547 194.418497 
L 484.839156 183.638046 
L 484.864065 183.604342 
L 484.866701 172.803618 
L 484.872765 172.789553 
L 484.872214 161.979535 
L 484.875243 161.969744 
L 484.875267 151.156202 
L 484.876981 151.149256 
L 484.876912 140.33347 
L 484.877876 140.328653 
L 484.878591 140.325445 
L 484.878546 129.507947 
L 484.879188 129.504257 
L 484.879159 118.687138 
L 484.879697 118.683591 
L 484.879658 107.865075 
L 484.880111 107.861925 
L 484.880084 97.043054 
L 484.880445 97.040438 
L 484.880412 86.221014 
L 484.88069 86.219026 
L 484.880669 75.399252 
L 484.880872 75.39748 
L 484.881045 75.395488 
L 484.881002 64.576127 
L 484.881169 64.574355 
L 484.881223 53.754647 
L 484.881362 53.752975 
L 484.881078 42.933178 
L 484.881221 42.930978 
L 484.882101 32.11116 
L 484.882135 32.110459 
" style="fill:none;stroke:#1f77b4;stroke-opacity:0.5;stroke-width:1.5;"/>
   </g>
   <g id="LineCollection_29">
    <path clip-path="url(#p83a4633e5e)" d="M 286.031885 32.110459 
L 286.125351 32.674655 
L 286.384977 35.591025 
L 286.598261 36.925349 
L 286.680276 38.044697 
L 286.980207 39.931834 
L 287.164518 41.573909 
L 287.335333 42.474602 
L 287.637831 44.06801 
L 287.792898 45.301754 
L 288.0169 46.753173 
L 288.2751 48.107964 
L 288.594195 49.196685 
L 288.938765 51.247134 
L 289.427321 53.987599 
L 289.98526 55.711584 
L 290.890639 59.802446 
L 291.158238 60.483708 
L 292.137117 64.403453 
L 293.392069 67.917292 
L 293.676263 69.194727 
L 294.555139 71.810858 
L 295.496567 74.420343 
L 296.389315 76.336826 
L 297.898094 80.513173 
L 298.941743 83.210662 
L 300.642011 86.499626 
L 302.986632 90.743805 
L 303.388636 91.772083 
L 304.443956 93.617862 
L 306.922536 97.936387 
L 308.868696 100.253399 
L 311.420395 104.456863 
L 316.258654 109.749996 
L 316.359474 109.858678 
L 316.696151 110.155551 
L 322.51179 115.702691 
L 323.939539 117.063315 
L 330.190222 121.339025 
L 332.787507 123.093992 
L 339.979304 126.410977 
L 342.013275 127.380805 
L 348.371116 129.225702 
L 351.765516 130.330732 
L 353.426361 130.569238 
L 361.806873 132.014209 
L 369.675858 132.136108 
L 371.5458 132.224837 
L 374.323375 131.957406 
L 381.045425 131.528018 
L 384.48891 130.792422 
L 390.542502 129.717154 
L 399.184622 126.846226 
L 399.586258 126.72531 
L 399.992843 126.53223 
L 408.547077 122.847659 
L 412.953596 120.142681 
L 417.095072 117.639472 
L 422.668793 113.160009 
L 425.296238 111.027891 
L 430.509859 105.596676 
L 433.195399 102.769148 
L 437.721579 96.474533 
L 439.821724 93.672943 
L 442.881333 88.340162 
L 445.418215 84.047209 
L 447.051715 80.360929 
L 449.425946 75.456393 
L 450.594599 72.352452 
L 452.84946 66.615784 
L 453.573311 64.281207 
L 454.68568 60.442817 
L 456.125142 56.384074 
L 458.030805 49.078178 
L 458.160095 48.706213 
L 458.848829 45.831978 
L 460.108004 40.724072 
L 460.189864 40.190705 
L 460.654675 37.846861 
L 461.886447 32.110459 
" style="fill:none;stroke:#1f77b4;stroke-opacity:0.5;stroke-width:1.5;"/>
   </g>
   <g id="LineCollection_30">
    <path clip-path="url(#p83a4633e5e)" d="M 290.090044 32.110459 
L 290.309767 33.4368 
L 290.677548 34.778765 
L 291.172416 37.023191 
L 291.452311 37.891965 
L 292.074757 40.3781 
L 292.460141 41.466458 
L 293.102381 43.237024 
L 293.481997 44.550573 
L 294.224846 46.433335 
L 295.143461 48.604742 
L 295.457151 49.567898 
L 296.074848 51.000215 
L 297.053242 52.997547 
L 298.9712 56.771582 
L 299.224564 57.168503 
L 299.908303 58.229054 
L 301.798973 61.428621 
L 302.345671 62.528489 
L 304.476245 65.510375 
L 305.765442 67.265021 
L 306.868597 68.417852 
L 309.41265 71.798057 
L 312.864115 75.410933 
L 314.02305 76.528594 
L 315.564338 77.663541 
L 319.462496 81.310835 
L 323.739287 84.403189 
L 325.927246 85.706925 
L 331.145055 88.475649 
L 332.097154 89.059413 
L 334.541152 90.049862 
L 338.901412 91.888457 
L 339.612191 92.055666 
L 347.262484 94.219042 
L 348.342215 94.331191 
L 356.134721 95.476657 
L 358.979837 95.395292 
L 364.852846 95.521028 
L 371.97201 94.478788 
L 373.143558 94.368321 
L 374.708762 93.961106 
L 381.385658 92.461964 
L 387.515651 90.006907 
L 389.648329 89.258843 
L 391.612837 88.205035 
L 397.621923 85.216598 
L 405.353542 79.73571 
L 405.710158 79.506951 
L 405.96014 79.290866 
L 414.795832 71.284549 
L 415.35436 70.762118 
L 416.859564 68.936386 
L 422.268002 62.653762 
L 423.440136 60.921973 
L 425.703509 57.298401 
L 428.931356 52.63857 
L 430.509826 49.954682 
L 433.223713 45.046486 
L 434.966337 41.017652 
L 436.590991 37.926378 
L 438.890164 32.110459 
" style="fill:none;stroke:#1f77b4;stroke-opacity:0.5;stroke-width:1.5;"/>
   </g>
   <g id="LineCollection_31">
    <path clip-path="url(#p83a4633e5e)" d="M 294.148204 32.110459 
L 294.439309 33.191149 
L 295.205001 35.181958 
L 295.478128 36.036424 
L 296.597638 38.56019 
L 296.832896 39.211765 
L 297.432538 40.451391 
L 298.346507 42.181956 
L 299.404602 43.950071 
L 299.644939 44.426047 
L 300.065204 45.106675 
L 301.263753 47.026489 
L 302.09119 48.025205 
L 303.696507 50.297292 
L 304.967371 51.644738 
L 306.037316 53.019367 
L 307.892869 54.91924 
L 308.912625 55.950083 
L 309.515529 56.385372 
L 312.700367 59.20414 
L 312.891803 59.321604 
L 316.337822 62.022358 
L 317.514942 62.67625 
L 321.864734 65.210437 
L 322.244938 65.466731 
L 322.442365 65.580361 
L 327.739481 68.019752 
L 329.170766 68.708232 
L 334.057875 70.181908 
L 335.993451 70.842541 
L 341.584811 71.817658 
L 343.20905 72.164651 
L 350.431313 72.55222 
L 350.549377 72.562987 
L 351.414663 72.507845 
L 358.837582 72.122746 
L 359.619953 71.991977 
L 366.522909 70.771243 
L 368.938505 69.98395 
L 375.319631 67.88777 
L 378.476656 66.548318 
L 384.61008 63.309362 
L 385.393162 62.886234 
L 391.473915 58.938679 
L 393.5921 57.310375 
L 400.208729 51.607228 
L 402.496183 49.436927 
L 408.522301 42.5145 
L 408.906263 42.032178 
L 413.239199 36.497246 
L 415.89385 32.110459 
" style="fill:none;stroke:#1f77b4;stroke-opacity:0.5;stroke-width:1.5;"/>
   </g>
   <g id="LineCollection_32">
    <path clip-path="url(#p83a4633e5e)" d="M 298.20636 32.110459 
L 298.364482 32.538825 
L 299.199757 34.189795 
L 299.538042 34.897877 
L 299.631047 35.044753 
L 301.078474 37.536053 
L 301.158074 37.6427 
L 301.457816 38.051496 
L 302.721697 39.919575 
L 304.483564 42.040273 
L 304.483982 42.040854 
L 304.48604 42.042998 
L 306.692579 44.363225 
L 307.279489 44.819154 
L 309.277504 46.636921 
L 310.688624 47.55296 
L 312.023581 48.630161 
L 314.877374 50.272284 
L 315.426757 50.676031 
L 318.271559 52.028197 
L 319.639276 52.696969 
L 320.037643 52.810782 
L 325.519074 54.778354 
L 325.550011 54.783962 
L 326.111074 54.907641 
L 331.747985 56.183576 
L 332.089487 56.272251 
L 338.739958 56.906333 
L 338.778621 56.911912 
L 338.965948 56.907986 
L 345.526258 56.859736 
L 347.462392 56.53263 
L 352.541216 55.986693 
L 358.937715 54.250505 
L 359.371691 54.138078 
L 359.846261 53.935208 
L 366.152591 51.664598 
L 369.255871 50.355404 
L 374.089931 47.504941 
L 375.857834 46.515716 
L 378.093223 44.861521 
L 382.885224 41.581164 
L 385.168481 39.608962 
L 389.565009 35.68294 
L 392.897546 32.110459 
" style="fill:none;stroke:#1f77b4;stroke-opacity:0.5;stroke-width:1.5;"/>
   </g>
   <g id="LineCollection_33">
    <path clip-path="url(#p83a4633e5e)" d="M 302.264509 32.110459 
L 303.265441 33.765471 
L 303.914103 34.590893 
L 304.737131 35.721121 
L 305.857932 36.887558 
L 306.208654 37.273293 
L 307.459388 38.454057 
L 309.137919 39.760978 
L 309.235767 39.833838 
L 309.35878 39.902391 
L 311.262569 41.151134 
L 313.026963 42.101217 
L 313.680068 42.404666 
L 315.030755 42.88214 
L 316.511743 43.554421 
L 317.467502 43.915736 
L 319.650973 44.56679 
L 323.043223 45.248941 
L 323.188497 45.276729 
L 323.299202 45.283016 
L 327.640485 45.865357 
L 328.439191 45.856898 
L 333.372691 45.966406 
L 334.017444 45.906185 
L 340.470554 45.210063 
L 340.493307 45.205948 
L 340.543661 45.19245 
L 346.846793 43.892198 
L 351.936932 42.070052 
L 353.397495 41.628689 
L 356.040288 40.35662 
L 359.012747 39.013473 
L 359.91996 38.438324 
L 364.370644 36.073969 
L 369.781215 32.196492 
L 369.843674 32.15702 
L 369.901265 32.110459 
" style="fill:none;stroke:#1f77b4;stroke-opacity:0.5;stroke-width:1.5;"/>
   </g>
   <g id="LineCollection_34">
    <path clip-path="url(#p83a4633e5e)" d="M 306.322643 32.110459 
L 306.549576 32.4151 
L 307.213609 33.112359 
L 307.604294 33.551686 
L 307.844699 33.754165 
L 308.71688 34.582557 
L 309.540233 35.173782 
L 310.024377 35.518551 
L 310.852631 35.944954 
L 311.344609 36.252025 
L 311.891951 36.492293 
L 312.902529 36.942311 
L 313.675436 37.135697 
L 314.680433 37.503801 
L 316.01997 37.75095 
L 317.341981 38.032517 
L 318.339663 38.12228 
L 320.67522 38.317889 
L 320.945403 38.298822 
L 324.002259 38.318592 
L 324.319194 38.273743 
L 327.182804 38.13095 
L 328.374977 37.899206 
L 330.850143 37.618532 
L 334.018476 36.839177 
L 334.710836 36.725376 
L 335.436908 36.528484 
L 338.240896 35.780058 
L 340.684438 34.745117 
L 342.753665 34.061219 
L 346.905038 32.110459 
" style="fill:none;stroke:#1f77b4;stroke-opacity:0.5;stroke-width:1.5;"/>
   </g>
   <g id="LineCollection_35">
    <path clip-path="url(#p83a4633e5e)" d="M 310.380732 32.110459 
L 310.940087 32.568745 
L 311.686746 32.956947 
L 311.805581 33.033997 
L 312.335082 33.157421 
L 312.858248 33.327783 
L 313.080012 33.378503 
L 314.189104 33.453821 
L 314.620974 33.499065 
L 315.671776 33.440689 
L 316.803686 33.439489 
L 317.595697 33.29135 
L 318.455978 33.270123 
L 320.316607 32.874421 
L 320.998457 32.827187 
L 323.64228 32.176149 
L 323.70682 32.167725 
L 323.909044 32.110459 
" style="fill:none;stroke:#1f77b4;stroke-opacity:0.5;stroke-width:1.5;"/>
   </g>
   <g id="LineCollection_36"/>
   <g id="line2d_6">
    <path d="M 484.882812 32.110459 
L 474.026162 32.110459 
L 463.169308 32.110459 
L 452.312657 32.110459 
L 441.455803 32.110459 
L 430.599152 32.110459 
L 419.742298 32.110459 
L 408.885647 32.110459 
L 398.1339 32.110459 
L 387.900789 32.110459 
L 378.614452 32.110459 
L 369.821386 32.110459 
L 361.636236 32.110459 
L 354.199821 32.110459 
L 347.560433 32.110459 
L 341.601399 32.110459 
L 336.213148 32.110459 
L 331.407043 32.110459 
L 327.246798 32.110459 
L 323.671946 32.110459 
L 320.645759 32.110459 
L 318.070437 32.110459 
L 316.032012 32.110459 
L 314.506745 32.110459 
L 313.351381 32.110459 
L 312.410085 32.110459 
" style="fill:none;stroke:#1f77b4;stroke-linecap:square;stroke-width:1.5;"/>
   </g>
   <g id="line2d_7">
    <path d="M 312.410085 32.110459 
L 311.448499 32.110459 
L 310.270206 32.110459 
L 308.715111 32.110459 
L 306.714021 32.110459 
L 304.356015 32.110459 
L 301.68498 32.110459 
L 298.716948 32.110459 
L 295.490145 32.110459 
L 292.123113 32.110459 
L 288.741328 32.110459 
L 285.357535 32.110459 
L 281.973722 32.110459 
" style="fill:none;stroke:#ff7f0e;stroke-linecap:square;stroke-width:1.5;"/>
   </g>
   <g id="line2d_8">
    <path d="M 281.973722 32.110459 
L 281.973722 35.445595 
L 281.973722 38.878025 
L 281.973722 42.406716 
L 281.973722 46.14284 
L 281.973722 50.112554 
L 281.973722 54.295524 
L 281.973722 58.718537 
L 281.973722 63.336748 
L 281.973722 68.177144 
L 281.973722 73.413213 
L 281.973722 79.234675 
L 281.973722 85.59202 
L 281.973722 92.609834 
L 281.973722 100.439892 
L 281.973722 109.170665 
L 281.973722 119.043004 
L 281.973722 129.761068 
L 281.973722 140.537367 
L 281.973722 151.317318 
L 281.973722 162.097472 
L 281.973722 172.877626 
L 281.973722 183.657578 
L 281.973722 194.437732 
" style="fill:none;stroke:#808080;stroke-dasharray:1.5,2.475;stroke-dashoffset:0;stroke-width:1.5;"/>
   </g>
   <g id="line2d_9">
    <path d="M 281.973722 194.437732 
L 292.653152 194.437732 
L 303.332541 194.437732 
L 314.012052 194.437732 
L 324.691361 194.437732 
L 335.370872 194.437732 
L 346.050181 194.437732 
L 356.729692 194.437732 
L 367.409203 194.437732 
L 378.088511 194.437732 
L 388.768023 194.437732 
L 399.447331 194.437732 
L 410.126842 194.437732 
L 420.806354 194.437732 
L 431.485662 194.437732 
L 442.165173 194.437732 
L 452.844482 194.437732 
L 463.523993 194.437732 
L 474.203301 194.437732 
L 484.882812 194.437732 
" style="fill:none;stroke:#808080;stroke-linecap:square;stroke-width:1.5;"/>
   </g>
   <g id="line2d_10">
    <path d="M 484.882812 194.437732 
L 484.882812 183.615981 
L 484.882812 172.794028 
L 484.882812 161.972277 
L 484.882812 151.150527 
L 484.882812 140.328573 
L 484.882812 129.506823 
L 484.882812 118.685072 
L 484.882812 107.863119 
L 484.882812 97.041368 
L 484.882812 86.219618 
L 484.882812 75.397664 
L 484.882812 64.575914 
L 484.882812 53.754163 
L 484.882812 42.93227 
L 484.882812 32.110459 
" style="fill:none;stroke:#808080;stroke-dasharray:5.55,2.4;stroke-dashoffset:0;stroke-width:1.5;"/>
   </g>
   <g id="text_2">
    <!-- $\omega$ -->
    <defs>
     <path d="M 21.390625 -1.421875 
Q 1.125 -1.421875 6.78125 27.59375 
Q 8.984375 39.0625 19.625 54.6875 
L 29.296875 54.6875 
Q 19.234375 39.0625 17 27.34375 
Q 12.796875 6.203125 23.734375 6.203125 
Q 33.84375 6.203125 38.71875 32.46875 
L 47.015625 32.46875 
Q 41.703125 6.0625 51.8125 6.203125 
Q 62.703125 6.296875 66.796875 27.34375 
Q 69.046875 39.0625 65.140625 54.6875 
L 74.8125 54.6875 
Q 79.296875 39.0625 77.09375 27.59375 
Q 71.53125 -1.46875 51.21875 -1.421875 
Q 37.9375 -1.375 39.109375 13.1875 
Q 34.28125 -1.421875 21.390625 -1.421875 
z
" id="DejaVuSans-Oblique-969"/>
    </defs>
    <g transform="translate(378.388267 26.110459)scale(0.12 -0.12)">
     <use transform="translate(0 0.3125)" xlink:href="#DejaVuSans-Oblique-969"/>
    </g>
   </g>
  </g>
 </g>
 <defs>
  <clipPath id="p6a9b0b33aa">
   <rect height="181.911941" width="202.909091" x="38.482813" y="22.318125"/>
  </clipPath>
  <clipPath id="p83a4633e5e">
   <rect height="162.327273" width="202.909091" x="281.973722" y="32.110459"/>
  </clipPath>
 </defs>
</svg>
