<?xml version="1.0" encoding="utf-8" standalone="no"?>
<!DOCTYPE svg PUBLIC "-//W3C//DTD SVG 1.1//EN"
  "http://www.w3.org/Graphics/SVG/1.1/DTD/svg11.dtd">
<!-- Created with matplotlib (https://matplotlib.org/) -->
<svg height="244.432145pt" version="1.1" viewBox="0 0 500.034375 244.432145" width="500.034375pt" xmlns="http://www.w3.org/2000/svg" xmlns:xlink="http://www.w3.org/1999/xlink">
 <defs>
  <style type="text/css">
*{stroke-linecap:butt;stroke-linejoin:round;}
  </style>
 </defs>
 <g id="figure_1">
  <g id="patch_1">
   <path d="M 0 244.432145 
L 500.034375 244.432145 
L 500.034375 -0 
L 0 -0 
z
" style="fill:#ffffff;"/>
  </g>
  <g id="axes_1">
   <g id="LineCollection_1"/>
   <g id="LineCollection_2">
    <path clip-path="url(#p04966ed1b2)" d="M 38.483627 119.112325 
L 38.483632 119.112429 
L 38.483628 119.112431 
" style="fill:none;stroke:#1f77b4;stroke-dasharray:1.5,2.475;stroke-dashoffset:0;stroke-opacity:0.5;stroke-width:1.5;"/>
   </g>
   <g id="LineCollection_3">
    <path clip-path="url(#p04966ed1b2)" d="M 38.483487 106.93785 
L 39.132392 107.937803 
L 39.785525 109.231592 
L 40.192456 109.948461 
L 40.464719 110.610663 
L 40.901977 111.738278 
L 41.157239 112.862476 
L 41.333333 113.455387 
L 41.385882 113.699416 
L 41.531747 115.003722 
L 41.550461 115.743855 
L 41.506974 116.346431 
L 41.277404 117.490541 
L 41.272411 117.535942 
L 41.268709 117.552567 
L 40.923331 118.589246 
L 40.6965 118.952905 
L 40.43992 119.336706 
L 39.972609 119.750494 
L 39.868165 119.869992 
L 39.799015 119.915555 
L 39.248983 120.285458 
L 38.67925 120.352154 
L 38.483586 120.40409 
" style="fill:none;stroke:#1f77b4;stroke-dasharray:1.5,2.475;stroke-dashoffset:0;stroke-opacity:0.5;stroke-width:1.5;"/>
   </g>
   <g id="LineCollection_4">
    <path clip-path="url(#p04966ed1b2)" d="M 38.483381 94.763017 
L 39.041093 95.220757 
L 40.626102 96.727887 
L 40.843407 96.933739 
L 41.990132 98.218453 
L 42.646777 98.937951 
L 42.768255 99.097733 
L 44.5851 101.591532 
L 45.008087 102.212558 
L 45.475618 103.123947 
L 46.3989 104.81295 
L 47.252365 107.021179 
L 47.275266 107.079139 
L 47.294325 107.154245 
L 47.973472 109.440654 
L 48.221414 111.15924 
L 48.33728 111.769667 
L 48.355786 112.378915 
L 48.367143 114.362053 
L 48.336037 115.023019 
L 47.955323 117.052758 
L 47.930622 117.184546 
L 47.735283 117.711702 
L 47.236816 119.266397 
L 46.951526 119.814268 
L 46.131808 121.263859 
L 45.54822 121.984936 
L 44.715428 122.964458 
L 43.479837 123.879757 
L 43.453398 123.90084 
L 42.009827 124.773683 
L 41.039887 125.073299 
L 40.453917 125.286527 
L 38.926434 125.477521 
L 38.483544 125.514832 
" style="fill:none;stroke:#1f77b4;stroke-dasharray:1.5,2.475;stroke-dashoffset:0;stroke-opacity:0.5;stroke-width:1.5;"/>
   </g>
   <g id="LineCollection_5">
    <path clip-path="url(#p04966ed1b2)" d="M 38.482822 82.5883 
L 42.083414 84.227862 
L 42.1515 84.267447 
L 44.696245 85.860435 
L 44.787935 85.922702 
L 45.279202 86.30245 
L 47.136995 87.701674 
L 47.818647 88.322811 
L 49.30382 89.635666 
L 50.229882 90.634783 
L 51.692149 92.184064 
L 52.787984 93.576608 
L 53.715632 94.740782 
L 55.01641 96.803848 
L 55.1678 97.024356 
L 55.245122 97.168577 
L 56.692971 99.63285 
L 57.233447 100.859176 
L 57.834129 102.095207 
L 58.667512 104.457201 
L 58.935808 105.157795 
L 59.296107 106.617536 
L 59.758975 108.349723 
L 59.879818 109.353086 
L 60.260477 111.632802 
L 60.338365 113.843305 
L 60.375489 114.903887 
L 60.149804 117.314577 
L 60.11244 118.148133 
L 60.060996 118.50265 
L 59.55101 120.847468 
L 59.280332 122.212733 
L 59.223545 122.394841 
L 58.78147 123.555563 
L 58.106652 125.446403 
L 57.802131 126.030713 
L 56.897083 127.871925 
L 55.881115 129.285455 
L 55.195678 130.393948 
L 54.294141 131.384587 
L 53.127495 132.754766 
L 51.530794 134.032747 
L 50.63955 134.83782 
L 49.718569 135.403885 
L 48.11061 136.392164 
L 46.387488 137.228132 
L 45.193176 137.693385 
L 42.283376 138.442618 
L 42.22521 138.458347 
L 42.007533 138.474606 
L 39.126086 138.791162 
L 38.483496 138.836869 
" style="fill:none;stroke:#1f77b4;stroke-dasharray:1.5,2.475;stroke-dashoffset:0;stroke-opacity:0.5;stroke-width:1.5;"/>
   </g>
   <g id="LineCollection_6">
    <path clip-path="url(#p04966ed1b2)" d="M 48.8451 70.41359 
L 51.439833 72.004388 
L 52.107719 72.414761 
L 52.86382 72.946525 
L 55.158652 74.487439 
L 57.610016 76.391141 
L 57.671162 76.436709 
L 60.176689 78.507896 
L 61.45205 79.667808 
L 63.095702 81.209693 
L 65.752962 84.048722 
L 65.781577 84.083201 
L 68.371958 87.080761 
L 70.307621 89.749507 
L 70.792171 90.405981 
L 71.306017 91.243909 
L 72.932948 93.676442 
L 74.455805 96.458621 
L 74.630095 96.770396 
L 74.759801 97.053543 
L 76.138459 99.766369 
L 76.918975 101.488557 
L 77.532952 102.999492 
L 78.667819 106.178079 
L 78.682628 106.231316 
L 79.752208 109.559957 
L 80.76034 114.114852 
L 80.762713 114.125985 
L 80.764141 114.138353 
L 81.599099 119.337581 
L 81.747922 122.394778 
L 81.898303 123.946232 
L 81.933529 124.863429 
L 81.860559 128.829751 
L 81.830366 130.189289 
L 81.463784 133.409605 
L 81.301689 135.096625 
L 80.694663 138.19385 
L 80.516381 139.341025 
L 79.593043 142.970406 
L 79.583968 143.011438 
L 78.651789 146.184349 
L 78.160602 147.776039 
L 77.166147 150.182704 
L 76.493115 151.89766 
L 75.597657 153.743185 
L 74.09252 156.676296 
L 73.714903 157.308878 
L 72.699868 158.909604 
L 71.551651 160.88121 
L 70.500194 162.432221 
L 69.177244 164.255276 
L 68.073836 165.524044 
L 66.416276 167.671834 
L 63.769283 170.31969 
L 63.635999 170.471731 
L 63.446733 170.647643 
L 60.752809 173.074214 
L 57.87851 175.225995 
L 57.461397 175.589112 
L 56.926404 175.937791 
L 53.959372 177.77279 
L 50.895526 179.359811 
L 49.949004 179.737128 
L 47.585477 180.807617 
L 44.035868 181.725291 
L 44.014942 181.730392 
L 43.84988 181.744003 
L 38.974267 182.199869 
L 38.483444 182.236918 
" style="fill:none;stroke:#1f77b4;stroke-dasharray:1.5,2.475;stroke-dashoffset:0;stroke-opacity:0.5;stroke-width:1.5;"/>
   </g>
   <g id="LineCollection_7">
    <path clip-path="url(#p04966ed1b2)" d="M 66.473557 58.238779 
L 69.185533 60.067877 
L 72.072613 62.02092 
L 75.080342 64.323956 
L 76.480394 65.337865 
L 77.534877 66.152079 
L 81.369171 69.433686 
L 82.907597 70.726079 
L 83.318609 71.123491 
L 85.219466 72.92466 
L 87.581737 75.103728 
L 89.679894 77.27823 
L 91.646594 79.301352 
L 92.129629 79.891238 
L 95.692335 83.847156 
L 97.532103 86.239302 
L 99.268189 88.293158 
L 100.353089 89.61093 
L 103.32394 93.807801 
L 103.710661 94.296117 
L 104.581318 95.583415 
L 106.701436 98.709118 
L 107.587447 100.22791 
L 109.325435 102.840107 
L 111.478613 106.557941 
L 111.547838 106.678353 
L 111.590076 106.762851 
L 113.786562 110.652445 
L 114.435207 111.985582 
L 115.724885 114.336697 
L 117.480899 117.890008 
L 117.737559 118.353916 
L 118.369912 119.650697 
L 119.66596 122.359249 
L 120.555966 124.385656 
L 121.279384 125.956109 
L 121.625273 126.623312 
L 123.048113 129.899619 
L 123.372413 130.648241 
L 123.448802 130.855128 
L 125.310134 135.188803 
L 125.511263 135.759067 
L 127.114876 139.802453 
L 127.211259 140.109995 
L 128.830442 144.473266 
L 128.974211 144.936956 
L 130.61565 149.373533 
L 130.834406 150.123346 
L 131.43424 151.940794 
L 132.330255 154.513717 
L 133.650958 158.760944 
L 133.871569 159.3578 
L 134.151833 160.169307 
L 135.417763 164.176284 
L 136.911527 169.345306 
L 136.946103 169.475759 
L 136.962321 169.544026 
L 137.231212 170.54738 
L 138.425631 175.005699 
L 138.513712 175.2931 
L 138.63793 175.795129 
L 139.599856 180.042964 
L 140.164164 182.352117 
L 140.68805 184.976836 
L 141.225185 187.44478 
L 141.682928 189.892475 
L 142.199649 192.348663 
L 142.588413 194.814908 
L 143.021334 197.074036 
L 143.493817 199.955402 
L 143.797422 201.793658 
L 144.328627 205.83498 
L 144.428975 206.529894 
L 144.639809 208.556242 
L 144.919124 211.157488 
L 145.004637 212.118986 
L 145.380407 215.963576 
L 145.594646 219.030141 
L 145.688107 220.29679 
" style="fill:none;stroke:#1f77b4;stroke-dasharray:1.5,2.475;stroke-dashoffset:0;stroke-opacity:0.5;stroke-width:1.5;"/>
   </g>
   <g id="LineCollection_8">
    <path clip-path="url(#p04966ed1b2)" d="M 92.691031 46.064272 
L 95.404215 47.768632 
L 99.712239 50.429111 
L 100.832853 51.189838 
L 105.03089 53.995223 
L 106.364229 54.865388 
L 106.829759 55.16085 
L 111.641482 58.456478 
L 116.185974 61.682744 
L 117.126741 62.374169 
L 117.731645 62.858038 
L 122.348731 66.266363 
L 125.265115 68.566196 
L 127.335627 70.053063 
L 130.128825 72.203426 
L 131.754865 73.509822 
L 133.037523 74.563342 
L 136.033726 76.85947 
L 138.68255 79.031239 
L 140.803365 80.605618 
L 144.163935 83.205694 
L 145.660975 84.42816 
L 146.477052 85.112768 
L 150.236745 87.958458 
L 151.366649 88.88907 
L 154.95875 91.587237 
L 156.071828 92.5012 
L 159.916173 95.431291 
L 160.529242 95.883227 
L 160.931177 96.16406 
L 165.43677 99.525266 
L 169.02337 102.06327 
L 169.852554 102.692863 
L 171.109617 103.587007 
L 174.161743 105.697714 
L 177.105391 107.584937 
L 178.679357 108.658532 
L 179.596721 109.294116 
L 182.822726 111.353956 
L 185.968248 113.204972 
L 186.744274 113.708499 
L 190.768727 116.009656 
L 191.43629 116.427748 
L 192.488055 117.017978 
L 196.084421 118.952274 
L 200.815991 121.279445 
L 200.836198 121.29005 
L 200.849919 121.296933 
L 206.223407 123.675747 
L 207.50336 124.240059 
L 212.530908 126.070152 
L 213.528779 126.440659 
L 213.835861 126.526408 
L 220.149066 128.311826 
L 220.680608 128.422312 
L 225.502509 129.547363 
L 227.70926 129.85173 
L 230.807349 130.325846 
L 235.265526 130.677794 
L 236.170681 130.76811 
L 237.287433 130.788756 
L 241.391813 130.927255 
" style="fill:none;stroke:#1f77b4;stroke-dasharray:1.5,2.475;stroke-dashoffset:0;stroke-opacity:0.5;stroke-width:1.5;"/>
   </g>
   <g id="LineCollection_9">
    <path clip-path="url(#p04966ed1b2)" d="M 133.19692 33.889793 
L 140.345327 37.213789 
L 141.448952 37.676631 
L 143.156905 38.406461 
L 148.182477 40.684416 
L 151.45224 42.165352 
L 154.625459 43.476317 
L 157.268434 44.670606 
L 163.212058 47.139065 
L 163.359033 47.204973 
L 163.663488 47.329956 
L 169.272588 49.617125 
L 172.765834 50.909883 
L 175.195045 51.875514 
L 177.100032 52.579744 
L 181.726475 54.170573 
L 183.782125 54.921203 
L 187.298112 56.07392 
L 190.021027 56.970821 
L 191.467952 57.370141 
L 196.959132 58.983352 
L 197.93295 59.225419 
L 202.145898 60.340292 
L 206.066669 61.24674 
L 207.518193 61.556666 
L 209.761471 61.968707 
L 213.12263 62.668861 
L 215.714541 63.106572 
L 219.37003 63.674975 
L 222.150339 64.10098 
L 228.061788 64.704783 
L 228.54052 64.757616 
L 229.549023 64.814122 
L 234.731337 65.166877 
L 239.269771 65.231749 
L 241.391845 65.287754 
" style="fill:none;stroke:#1f77b4;stroke-dasharray:1.5,2.475;stroke-dashoffset:0;stroke-opacity:0.5;stroke-width:1.5;"/>
   </g>
   <g id="LineCollection_10"/>
   <g id="LineCollection_11"/>
   <g id="LineCollection_12">
    <path clip-path="url(#p04966ed1b2)" d="M 38.483628 119.112427 
L 38.483628 119.112427 
L 38.483624 119.148458 
" style="fill:none;stroke:#1f77b4;stroke-opacity:0.5;stroke-width:1.5;"/>
    <path clip-path="url(#p04966ed1b2)" d="M 42.489498 220.54915 
L 43.574457 220.544757 
L 43.57699 220.546545 
L 47.664268 220.5528 
" style="fill:none;stroke:#1f77b4;stroke-opacity:0.5;stroke-width:1.5;"/>
    <path clip-path="url(#p04966ed1b2)" d="M 51.908862 220.548107 
L 53.758313 220.544618 
L 53.758419 220.544648 
L 58.846649 220.529245 
L 58.846655 220.529246 
L 58.84666 220.529247 
L 63.932139 220.504455 
L 69.013741 220.492079 
L 69.013769 220.492082 
L 74.091724 220.479693 
L 74.091749 220.479695 
L 79.166455 220.458023 
L 79.166476 220.458024 
L 84.236723 220.442547 
L 84.236737 220.442548 
L 89.30212 220.436363 
L 89.302124 220.436363 
L 89.302127 220.436363 
L 94.364067 220.430166 
L 94.364075 220.430166 
L 99.424792 220.405394 
L 99.424804 220.405394 
L 104.483692 220.362049 
L 104.483705 220.362049 
L 109.54016 220.324899 
L 109.540169 220.324899 
L 114.595003 220.290842 
L 114.595011 220.290842 
L 119.649441 220.259882 
L 119.649447 220.259882 
L 124.70246 220.253695 
L 124.702461 220.253695 
L 125.905529 220.255171 
" style="fill:none;stroke:#1f77b4;stroke-opacity:0.5;stroke-width:1.5;"/>
    <path clip-path="url(#p04966ed1b2)" d="M 227.381476 220.343484 
L 231.206622 220.343078 
L 231.207249 220.342825 
L 232.239537 220.342228 
" style="fill:none;stroke:#1f77b4;stroke-opacity:0.5;stroke-width:1.5;"/>
    <path clip-path="url(#p04966ed1b2)" d="M 237.385388 220.337952 
L 241.367682 220.316588 
L 241.337364 215.257655 
L 241.369693 215.209918 
L 241.372814 210.083435 
L 241.379939 210.066405 
L 241.379291 204.89069 
L 241.382191 204.880991 
L 241.383616 204.874507 
L 241.383662 199.647772 
L 241.38537 199.638925 
L 241.385298 194.365035 
L 241.386414 194.358494 
L 241.38638 189.039452 
L 241.387119 189.034548 
L 241.387671 189.029817 
L 241.387638 183.660578 
L 241.3876 178.254328 
L 241.388009 178.24941 
L 241.388361 178.246706 
L 241.388337 172.792218 
L 241.388694 172.789067 
L 241.388667 167.293847 
L 241.388964 167.29068 
L 241.38894 161.736276 
L 241.389142 161.733961 
L 241.389332 161.731966 
L 241.389311 156.127449 
L 241.389506 156.125285 
L 241.389484 150.468025 
L 241.389647 150.465921 
L 241.389632 144.746977 
L 241.389773 144.744987 
L 241.38975 138.979249 
L 241.389855 138.97752 
L 241.389968 138.975857 
L 241.389953 133.141791 
L 241.39007 133.139993 
L 241.390053 127.24693 
L 241.390164 127.245144 
L 241.390148 121.271459 
L 241.390252 121.269706 
L 241.390237 115.237105 
L 241.390336 115.235335 
L 241.390321 109.143815 
L 241.390409 109.142197 
L 241.390395 102.982489 
L 241.390469 102.981019 
L 241.390454 96.734599 
L 241.39052 96.733171 
L 241.390509 90.412628 
L 241.390547 90.411513 
L 241.390603 90.410351 
L 241.390588 84.002684 
L 241.390644 84.001461 
L 241.390633 77.519579 
L 241.390686 77.518403 
L 241.390672 70.946528 
L 241.390725 70.945268 
L 241.390717 64.283571 
L 241.390764 64.282458 
L 241.390748 57.527694 
L 241.390784 57.526704 
L 241.390781 50.676384 
L 241.390817 50.67525 
L 241.390795 43.725603 
L 241.390822 43.724767 
L 241.390847 43.723983 
L 241.390871 36.693773 
L 241.3909 36.692719 
L 241.390769 29.560606 
L 241.390802 29.559166 
L 241.39123 22.318608 
L 241.391239 22.318128 
" style="fill:none;stroke:#1f77b4;stroke-opacity:0.5;stroke-width:1.5;"/>
   </g>
   <g id="LineCollection_13">
    <path clip-path="url(#p04966ed1b2)" d="M 38.483601 118.64271 
L 38.606946 118.676994 
L 38.968724 118.68134 
L 39.4953 118.989749 
L 39.552357 119.006253 
L 39.614502 119.050885 
L 40.102246 119.477404 
L 40.574209 119.902992 
L 40.790328 120.232186 
L 41.187473 120.638674 
L 41.735182 121.293911 
L 42.009366 121.789606 
L 42.682713 122.581872 
L 43.483343 123.854273 
L 43.536157 123.910823 
L 44.584822 125.490585 
L 45.393524 126.617143 
L 45.793458 127.233852 
L 45.977769 127.601644 
L 47.308947 129.464291 
L 47.860766 130.480677 
L 48.871364 131.771596 
L 49.804147 133.161655 
L 50.319593 133.896532 
L 50.595033 134.183857 
L 52.605011 136.894128 
L 52.77499 137.062033 
L 54.62553 139.46908 
L 55.963463 140.862668 
L 56.825579 142.005068 
L 57.730775 143.024594 
L 59.080485 144.409738 
L 60.963563 146.169303 
L 61.666248 146.940848 
L 64.166133 149.100676 
L 64.484751 149.418633 
L 67.78595 151.97731 
L 68.185132 152.326914 
L 68.816586 152.788618 
L 71.559991 154.609081 
L 73.837277 155.991393 
L 75.141735 156.692374 
L 78.640742 158.38935 
L 79.134442 158.646809 
L 79.286771 158.726359 
L 79.743005 158.909818 
L 83.359554 160.388533 
L 86.826393 161.519005 
L 87.483986 161.705187 
L 91.871008 162.807241 
L 91.893792 162.811633 
L 96.549277 163.662127 
L 96.596603 163.667635 
L 101.179713 164.218262 
L 101.437538 164.230639 
L 106.055095 164.502748 
L 107.222318 164.494397 
L 110.602945 164.513798 
L 114.295744 164.284719 
L 115.087265 164.253308 
L 115.933826 164.163976 
L 119.386879 163.840473 
L 121.916584 163.429492 
L 123.836 163.163216 
L 127.342208 162.451045 
L 128.586417 162.201349 
L 130.089218 161.797959 
L 133.318989 161.006002 
L 134.680536 160.619384 
L 138.46147 159.389389 
L 139.892829 158.899493 
L 143.366679 157.563805 
L 145.653642 156.571407 
L 147.583817 155.741267 
L 149.007349 155.004077 
L 151.96657 153.564744 
L 154.808774 151.932102 
L 156.250095 151.114894 
L 158.535312 149.610577 
L 160.140934 148.597976 
L 161.301973 147.745386 
L 163.690815 146.076371 
L 165.569221 144.559338 
L 167.680963 142.908044 
L 170.43217 140.365745 
L 171.329449 139.574 
L 172.149131 138.734898 
L 174.702907 136.218662 
L 176.504319 134.154015 
L 177.881675 132.670861 
L 178.891129 131.443102 
L 180.957928 128.960012 
L 182.706597 126.521351 
L 184.212553 124.479868 
L 186.118496 121.55773 
L 187.384772 119.610845 
L 189.155821 116.505864 
L 190.197479 114.770805 
L 191.300632 112.70111 
L 192.858466 109.633654 
L 194.77315 105.573779 
L 195.400548 104.175411 
L 195.785084 103.173664 
L 197.614901 98.86986 
L 199.021438 95.206536 
L 199.645602 93.389239 
L 201.067348 89.341503 
L 201.517309 87.845998 
L 202.873408 83.637017 
L 203.468325 81.403248 
L 204.731889 77.027055 
L 205.150037 75.237431 
L 206.362101 70.530994 
L 206.68016 68.995907 
L 207.870173 63.805001 
L 208.090507 62.61789 
L 209.04836 57.997492 
L 209.286505 56.658414 
L 209.880253 53.451372 
L 210.188778 51.946167 
L 211.228592 45.617098 
L 211.531948 43.951374 
L 212.346322 38.254527 
L 212.693419 36.097371 
L 213.410824 30.504058 
L 213.996473 26.075137 
L 214.337218 22.997768 
" style="fill:none;stroke:#1f77b4;stroke-opacity:0.5;stroke-width:1.5;"/>
   </g>
   <g id="LineCollection_14">
    <path clip-path="url(#p04966ed1b2)" d="M 38.483576 117.197558 
L 38.887016 117.17722 
L 39.854466 117.10285 
L 40.050853 117.123166 
L 40.690913 117.25507 
L 41.249835 117.330393 
L 41.553702 117.378751 
L 42.589171 117.739849 
L 43.331102 117.939012 
L 44.296835 118.41974 
L 44.896755 118.608888 
L 46.199626 119.220097 
L 46.630088 119.444216 
L 46.878677 119.609389 
L 48.455934 120.336859 
L 50.107877 121.245647 
L 50.499514 121.392985 
L 52.878232 122.578836 
L 52.916895 122.591049 
L 53.074222 122.661776 
L 55.491906 123.884138 
L 57.257114 124.723383 
L 58.005427 125.027606 
L 59.699773 125.708991 
L 60.898556 126.217935 
L 61.223017 126.399431 
L 62.657986 126.950396 
L 64.747443 127.740728 
L 65.52663 127.927573 
L 68.473103 128.942271 
L 70.964196 129.516979 
L 72.399467 129.963576 
L 74.632313 130.417323 
L 76.43381 130.758595 
L 77.608187 130.872122 
L 80.319443 131.335458 
L 83.717324 131.629933 
L 84.479266 131.671968 
L 86.036438 131.674728 
L 89.089102 131.778666 
L 90.640909 131.77163 
L 94.133273 131.546585 
L 96.345417 131.416465 
L 99.084671 131.038896 
L 101.228395 130.689635 
L 104.604936 130.042456 
L 106.254765 129.639556 
L 109.382385 128.836652 
L 110.600047 128.454261 
L 113.709134 127.494606 
L 115.438526 126.82867 
L 118.736809 125.564634 
L 120.569606 124.756208 
L 123.142689 123.487236 
L 125.184193 122.546727 
L 128.619906 120.614395 
L 129.499735 120.126749 
L 129.9204 119.850522 
L 133.551809 117.609038 
L 136.690478 115.363098 
L 137.32213 114.919099 
L 138.365367 114.081239 
L 140.878405 112.160573 
L 142.533815 110.701224 
L 144.431416 109.10394 
L 146.288256 107.295739 
L 148.528236 105.18659 
L 150.344937 103.267444 
L 153.29236 99.996694 
L 154.460921 98.669327 
L 155.666178 97.112304 
L 158.635121 93.35717 
L 160.21693 91.144156 
L 162.514122 87.781558 
L 163.300656 86.562823 
L 164.946287 83.839092 
L 166.01226 82.152387 
L 167.422318 79.624345 
L 168.567686 77.60705 
L 168.896124 76.960821 
L 171.582369 71.675354 
L 171.898244 70.991829 
L 174.051258 66.368629 
L 174.656113 64.938689 
L 175.611111 62.568275 
L 176.515828 60.450738 
L 178.32656 55.653421 
L 178.429599 55.381389 
L 179.776501 51.695525 
L 181.225209 47.185779 
L 181.609408 46.084645 
L 182.092992 44.506128 
L 183.673922 39.184579 
L 184.931343 34.645915 
L 185.434903 32.636354 
L 186.458654 28.71194 
L 187.28286 25.080072 
" style="fill:none;stroke:#1f77b4;stroke-opacity:0.5;stroke-width:1.5;"/>
   </g>
   <g id="LineCollection_15">
    <path clip-path="url(#p04966ed1b2)" d="M 38.48355 114.795717 
L 38.896896 114.675015 
L 39.790261 114.487223 
L 40.238266 114.33446 
L 40.903909 114.198297 
L 41.849601 114.103369 
L 43.280804 113.975361 
L 43.432746 113.98457 
L 44.488576 113.971521 
L 45.283394 113.953309 
L 45.394076 113.939828 
L 45.81862 113.945328 
L 47.238005 113.962312 
L 47.968069 114.036638 
L 48.907568 114.040389 
L 50.059075 114.055168 
L 50.904415 114.134837 
L 52.047451 114.260683 
L 53.343254 114.302795 
L 54.286722 114.274405 
L 56.883582 114.479321 
L 57.642393 114.438947 
L 60.925879 114.558228 
L 61.230734 114.53319 
L 61.79502 114.501695 
L 64.652283 114.497831 
L 66.395659 114.477509 
L 67.970323 114.312088 
L 70.767007 114.174058 
L 72.407759 113.911593 
L 75.095656 113.642693 
L 76.549184 113.353288 
L 79.569615 112.857394 
L 81.149804 112.446376 
L 85.602859 111.352665 
L 85.685931 111.325479 
L 90.67582 109.764562 
L 91.125685 109.581116 
L 95.376285 107.986339 
L 96.248151 107.566927 
L 100.202398 105.80308 
L 101.59386 105.031781 
L 105.772506 102.792037 
L 107.198153 101.880835 
L 110.389208 99.931553 
L 114.011122 97.320354 
L 114.696688 96.856019 
L 115.678538 96.073331 
L 118.804245 93.653559 
L 121.196734 91.493347 
L 122.719885 90.207913 
L 123.832171 89.133432 
L 126.643889 86.424869 
L 129.156633 83.733691 
L 130.608838 82.146238 
L 133.524093 78.690458 
L 134.040398 78.049533 
L 137.05085 74.18749 
L 138.011294 72.831497 
L 140.547907 69.2814 
L 142.407403 66.423843 
L 144.043855 63.803537 
L 145.330935 61.67817 
L 147.766802 57.306213 
L 147.929079 57.015134 
L 150.266034 52.530663 
L 150.659797 51.756547 
L 151.122239 50.756516 
L 153.391511 45.995275 
L 154.415117 43.583577 
L 155.624068 40.842273 
L 157.742208 35.448659 
L 157.913316 35.015316 
L 160.228505 28.651698 
" style="fill:none;stroke:#1f77b4;stroke-opacity:0.5;stroke-width:1.5;"/>
   </g>
   <g id="LineCollection_16">
    <path clip-path="url(#p04966ed1b2)" d="M 38.483521 111.267989 
L 39.312775 110.916535 
L 40.488801 110.349477 
L 40.891675 110.22534 
L 42.536181 109.566275 
L 42.998589 109.449785 
L 44.687635 108.825056 
L 45.555904 108.61452 
L 47.029431 108.104802 
L 47.890478 107.922528 
L 49.721753 107.352862 
L 50.028184 107.293729 
L 51.027922 107.034882 
L 52.262756 106.686896 
L 52.986091 106.427085 
L 55.059532 105.871865 
L 57.704978 105.095634 
L 58.175321 104.926118 
L 58.533305 104.780449 
L 61.740235 103.789386 
L 62.658123 103.393951 
L 64.956612 102.665809 
L 67.0121 101.790084 
L 68.06029 101.447069 
L 71.02065 100.133273 
L 71.975537 99.753355 
L 74.784554 98.384802 
L 77.429911 97.088587 
L 78.369159 96.5856 
L 80.25187 95.479945 
L 82.046665 94.500503 
L 82.962109 93.988912 
L 86.351118 91.8031 
L 88.512831 90.452408 
L 91.796545 87.958998 
L 93.116094 87.045386 
L 97.321997 83.555942 
L 97.711426 83.24812 
L 98.330573 82.691355 
L 102.09066 79.299747 
L 105.420815 75.859516 
L 106.247402 75.067783 
L 107.204251 74.008364 
L 110.333649 70.557383 
L 113.365894 66.797641 
L 113.672191 66.435385 
L 114.987052 64.678263 
L 117.114915 61.865044 
L 117.354714 61.517758 
L 120.590841 56.831586 
L 121.478275 55.392904 
L 123.610436 52.104861 
L 125.16575 49.406934 
L 126.870223 46.476555 
L 129.729871 41.035891 
L 130.239697 40.056066 
L 131.86308 36.63969 
L 132.974271 34.356386 
L 133.17416 33.894897 
" style="fill:none;stroke:#1f77b4;stroke-opacity:0.5;stroke-width:1.5;"/>
   </g>
   <g id="LineCollection_17">
    <path clip-path="url(#p04966ed1b2)" d="M 38.483483 106.399209 
L 38.908325 106.143467 
L 40.051704 105.39459 
L 40.566903 105.035848 
L 40.768944 104.883166 
L 42.664825 103.723752 
L 43.101013 103.409133 
L 44.906575 102.313031 
L 45.550074 101.92845 
L 45.729659 101.845243 
L 46.06187 101.665258 
L 48.385576 100.234783 
L 50.602543 98.931321 
L 51.199431 98.541493 
L 51.59594 98.26005 
L 54.503789 96.498072 
L 55.5454 95.755311 
L 57.25123 94.738388 
L 59.643891 93.071978 
L 60.082593 92.810009 
L 63.121147 90.607424 
L 63.762526 90.201592 
L 66.058548 88.428362 
L 66.464113 88.118057 
L 66.550205 88.040102 
L 69.886235 85.443613 
L 70.384891 84.985142 
L 73.666456 82.212514 
L 74.066947 81.815279 
L 75.99593 80.037311 
L 77.184395 78.972236 
L 77.771486 78.420474 
L 80.333544 75.951703 
L 82.781028 73.280594 
L 84.336736 71.723673 
L 85.313234 70.708361 
L 89.210129 66.162521 
L 90.198567 65.001762 
L 93.456631 60.805944 
L 95.101506 58.603134 
L 97.361072 55.443765 
L 100.922603 50.04328 
L 101.052652 49.838208 
L 101.35798 49.321911 
L 104.774286 43.72445 
L 106.119827 41.346161 
" style="fill:none;stroke:#1f77b4;stroke-opacity:0.5;stroke-width:1.5;"/>
   </g>
   <g id="LineCollection_18">
    <path clip-path="url(#p04966ed1b2)" d="M 38.48343 99.762323 
L 39.414085 98.923959 
L 40.585403 97.777276 
L 41.026804 97.398584 
L 42.682126 95.824819 
L 42.833965 95.677206 
L 42.868114 95.639168 
L 43.021189 95.488031 
L 44.797754 93.775043 
L 46.898654 91.672483 
L 47.118557 91.467944 
L 47.243565 91.361038 
L 48.022403 90.568383 
L 49.718322 88.830181 
L 49.93939 88.564432 
L 50.686646 87.736576 
L 52.433155 85.932841 
L 54.038072 84.259791 
L 55.219338 82.93094 
L 56.015356 81.982101 
L 57.938787 79.921448 
L 58.986563 78.651618 
L 60.828398 76.443208 
L 61.983262 75.124561 
L 62.764484 74.263589 
L 65.411622 70.87863 
L 67.057195 68.944079 
L 69.45556 65.645207 
L 70.274888 64.644866 
L 72.238307 61.898394 
L 73.234838 60.496675 
L 73.978999 59.363084 
L 76.596264 55.571084 
L 79.065528 51.800442 
" style="fill:none;stroke:#1f77b4;stroke-opacity:0.5;stroke-width:1.5;"/>
   </g>
   <g id="LineCollection_19">
    <path clip-path="url(#p04966ed1b2)" d="M 38.483329 90.316367 
L 39.663304 88.580705 
L 40.662773 86.994849 
L 41.010603 86.406654 
L 42.035986 84.640612 
L 42.275172 84.25251 
L 42.332084 84.169627 
L 43.547572 82.027261 
L 43.715408 81.773352 
L 44.74666 79.954732 
L 45.793541 78.180427 
L 45.97944 77.847592 
L 46.071574 77.670342 
L 47.559077 75.183961 
L 48.181984 74.072545 
L 49.37114 72.190906 
L 50.875839 69.627676 
L 51.292746 68.984875 
L 52.011351 67.80913 
" style="fill:none;stroke:#1f77b4;stroke-opacity:0.5;stroke-width:1.5;"/>
   </g>
   <g id="LineCollection_20"/>
   <g id="line2d_1">
    <path d="M 241.391724 22.318125 
L 234.12917 22.361471 
L 226.86714 22.500797 
L 219.604757 22.748487 
L 212.342682 23.092157 
L 205.08031 23.544192 
L 197.817942 24.086015 
L 190.555861 24.742395 
L 183.293491 25.491658 
L 176.031121 26.364767 
L 168.769041 27.343143 
L 161.506671 28.439173 
L 154.24459 29.646664 
L 146.98222 30.971807 
L 139.719848 32.426988 
L 132.457766 34.055553 
L 125.195395 35.829635 
L 117.933312 37.770908 
L 110.670939 39.894853 
L 103.408565 42.210758 
L 96.14648 44.731008 
L 88.892509 47.529909 
L 81.879421 50.496001 
L 75.354174 53.52092 
L 69.27185 56.644915 
L 63.803467 59.759621 
L 58.920028 62.827886 
L 54.510238 65.88067 
L 50.686854 68.831281 
L 47.436236 71.62399 
L 44.728554 74.218547 
L 42.477935 76.683066 
L 40.421409 79.348834 
L 38.482813 82.531655 
" style="fill:none;stroke:#1f77b4;stroke-linecap:square;stroke-width:1.5;"/>
   </g>
   <g id="line2d_2">
    <path d="M 38.482813 82.531655 
L 38.483336 85.668035 
L 38.483272 88.268783 
L 38.483338 90.658996 
L 38.483361 93.073977 
L 38.48339 95.560169 
L 38.483416 98.098995 
L 38.483437 100.705936 
L 38.48346 103.306685 
L 38.483479 105.774301 
L 38.483495 108.077821 
L 38.483511 110.232727 
L 38.483531 112.201866 
L 38.483538 113.972852 
L 38.48356 115.530205 
L 38.483571 116.812003 
L 38.483584 117.855399 
L 38.4836 118.579893 
L 38.483609 118.979294 
L 38.483628 119.112427 
" style="fill:none;stroke:#ff7f0e;stroke-linecap:square;stroke-width:1.5;"/>
   </g>
   <g id="line2d_3">
    <path d="M 38.483628 119.112427 
L 38.48361 119.267234 
L 38.483595 119.759518 
L 38.483583 120.573801 
L 38.483572 121.700792 
L 38.483557 123.19003 
L 38.483548 125.001266 
L 38.483534 127.100442 
L 38.483524 129.475173 
L 38.483515 132.116172 
L 38.483506 134.992477 
L 38.483498 138.082414 
L 38.483491 141.367408 
L 38.483484 144.825784 
L 38.483478 148.442064 
L 38.483472 152.21315 
L 38.483467 156.129754 
L 38.483462 160.170203 
L 38.483458 164.309729 
L 38.483454 168.557618 
L 38.483451 172.889104 
L 38.483446 177.322762 
L 38.483444 181.840015 
L 38.48344 186.428479 
L 38.483438 191.09125 
L 38.483434 195.840713 
L 38.483432 200.649003 
L 38.483427 205.525407 
L 38.483433 210.46683 
L 38.483396 215.470176 
L 38.483521 220.55402 
" style="fill:none;stroke:#808080;stroke-dasharray:1.5,2.475;stroke-dashoffset:0;stroke-width:1.5;"/>
   </g>
   <g id="line2d_4">
    <path d="M 38.483521 220.55402 
L 43.576174 220.547828 
L 48.667932 220.55402 
L 53.758376 220.544732 
L 58.846655 220.529251 
L 63.932138 220.504482 
L 69.013764 220.492098 
L 74.091739 220.479713 
L 79.166467 220.45804 
L 84.236731 220.44256 
L 89.302124 220.436368 
L 94.36407 220.430175 
L 99.424797 220.405406 
L 104.483698 220.36206 
L 109.540164 220.324907 
L 114.595007 220.290849 
L 119.649444 220.259888 
L 124.70246 220.253696 
L 129.754056 220.259888 
L 134.805652 220.269177 
L 139.859075 220.272273 
L 144.913918 220.293946 
L 149.969369 220.312522 
L 155.02685 220.340388 
L 160.08778 220.340388 
L 165.151348 220.337291 
L 170.217351 220.349676 
L 175.286397 220.374445 
L 180.358488 220.386829 
L 185.433825 220.380637 
L 190.511799 220.383733 
L 195.592209 220.371349 
L 200.675053 220.368253 
L 205.759724 220.36206 
L 210.846423 220.36206 
L 215.934543 220.365157 
L 221.024287 220.355868 
L 226.115042 220.343484 
L 231.206824 220.343484 
L 236.298967 220.337291 
L 241.39168 220.340388 
" style="fill:none;stroke:#808080;stroke-linecap:square;stroke-width:1.5;"/>
   </g>
   <g id="line2d_5">
    <path d="M 241.39168 220.340388 
L 241.39181 215.222485 
L 241.391777 210.070525 
L 241.391788 204.881412 
L 241.391787 199.642761 
L 241.391789 194.360763 
L 241.391791 189.03542 
L 241.391793 183.660539 
L 241.391795 178.248504 
L 241.391796 172.790028 
L 241.391798 167.291301 
L 241.3918 161.733749 
L 241.391802 156.126658 
L 241.391805 150.466933 
L 241.391806 144.745285 
L 241.391809 138.977195 
L 241.391812 133.140991 
L 241.391814 127.24596 
L 241.391817 121.27043 
L 241.39182 115.236073 
L 241.391823 109.14289 
L 241.391826 102.981592 
L 241.391829 96.733602 
L 241.391832 90.411305 
L 241.391835 84.002317 
L 241.391838 77.519021 
L 241.391843 70.945938 
L 241.391845 64.283067 
L 241.391851 57.527312 
L 241.391852 50.675577 
L 241.39186 43.724766 
L 241.391851 36.693455 
L 241.391903 29.559972 
L 241.391724 22.318125 
" style="fill:none;stroke:#808080;stroke-dasharray:5.55,2.4;stroke-dashoffset:0;stroke-width:1.5;"/>
   </g>
   <g id="text_1">
    <!-- $z$ -->
    <defs>
     <path d="M 11.625 54.6875 
L 54.296875 54.6875 
L 52.6875 46.484375 
L 11.53125 7.171875 
L 45.515625 7.171875 
L 44.09375 0 
L -0.296875 0 
L 1.3125 8.203125 
L 42.484375 47.515625 
L 10.203125 47.515625 
z
" id="DejaVuSans-Oblique-122"/>
    </defs>
    <g transform="translate(136.757358 16.318125)scale(0.12 -0.12)">
     <use transform="translate(0 0.3125)" xlink:href="#DejaVuSans-Oblique-122"/>
    </g>
   </g>
  </g>
  <g id="axes_2">
   <g id="LineCollection_21"/>
   <g id="LineCollection_22">
    <path clip-path="url(#pf4f0ed9f69)" d="M 281.977061 37.20927 
L 281.973792 37.209374 
L 281.973722 37.209376 
" style="fill:none;stroke:#1f77b4;stroke-dasharray:1.5,2.475;stroke-dashoffset:0;stroke-opacity:0.5;stroke-width:1.5;"/>
   </g>
   <g id="LineCollection_23">
    <path clip-path="url(#pf4f0ed9f69)" d="M 321.756345 37.209272 
L 320.342386 38.209231 
L 318.303792 39.503028 
L 317.154694 40.2199 
L 315.958366 40.882106 
L 314.097842 42.009728 
L 311.92984 43.133931 
L 310.79203 43.726846 
L 310.214703 43.970877 
L 307.463234 45.27519 
L 305.507244 46.015327 
L 304.090391 46.617906 
L 300.565499 47.762022 
L 300.43246 47.807424 
L 300.367991 47.824048 
L 296.802767 48.860733 
L 294.985024 49.224395 
L 293.326036 49.608197 
L 290.45811 50.021988 
L 289.742116 50.141487 
L 289.243553 50.187051 
L 286.137128 50.556955 
L 283.246994 50.623651 
L 281.973722 50.675588 
" style="fill:none;stroke:#1f77b4;stroke-dasharray:1.5,2.475;stroke-dashoffset:0;stroke-opacity:0.5;stroke-width:1.5;"/>
   </g>
   <g id="LineCollection_24">
    <path clip-path="url(#pf4f0ed9f69)" d="M 335.400577 37.208917 
L 335.053536 37.66666 
L 333.775581 39.173798 
L 333.626997 39.379651 
L 332.561931 40.664372 
L 331.958975 41.383874 
L 331.808415 41.543657 
L 329.728535 44.03747 
L 329.125449 44.6585 
L 328.234521 45.569894 
L 326.763786 47.258906 
L 324.527965 49.467148 
L 324.475883 49.525108 
L 324.397443 49.600214 
L 321.958961 51.886636 
L 319.958073 53.605231 
L 319.207569 54.215662 
L 318.354879 54.824913 
L 315.784874 56.808062 
L 314.770781 57.469032 
L 311.586404 59.498783 
L 311.347818 59.630572 
L 310.343712 60.15773 
L 307.545639 61.712434 
L 306.476906 62.260308 
L 303.14017 63.709907 
L 301.357713 64.430989 
L 298.506408 65.410515 
L 295.057414 66.325819 
L 294.972228 66.346903 
L 291.02527 67.219751 
L 288.411838 67.519368 
L 286.9659 67.732598 
L 282.983656 67.923593 
L 281.973722 67.960904 
" style="fill:none;stroke:#1f77b4;stroke-dasharray:1.5,2.475;stroke-dashoffset:0;stroke-opacity:0.5;stroke-width:1.5;"/>
   </g>
   <g id="LineCollection_25">
    <path clip-path="url(#pf4f0ed9f69)" d="M 342.822335 37.208678 
L 342.565159 38.848248 
L 342.549347 38.887834 
L 342.223285 40.480831 
L 342.201394 40.543097 
L 342.100859 40.922848 
L 341.767433 42.32208 
L 341.617715 42.94322 
L 341.242355 44.256082 
L 340.862601 45.255205 
L 340.427409 46.804495 
L 339.851039 48.197047 
L 339.478417 49.361227 
L 338.599025 51.424305 
L 338.502509 51.644814 
L 338.426381 51.789035 
L 337.376502 54.253323 
L 336.726899 55.479655 
L 336.170673 56.715693 
L 334.838548 59.077701 
L 334.50798 59.778298 
L 333.645053 61.238048 
L 332.583827 62.970244 
L 331.850019 63.973613 
L 330.380137 66.253341 
L 328.761656 68.463857 
L 327.906927 69.524445 
L 325.811941 71.935149 
L 325.139692 72.768709 
L 324.848072 73.123228 
L 322.551812 75.468059 
L 321.239493 76.833332 
L 321.027376 77.015441 
L 319.693568 78.17617 
L 317.577583 80.06702 
L 316.838453 80.651333 
L 314.479058 82.492555 
L 312.246962 83.906093 
L 310.718695 85.014593 
L 308.984962 86.005237 
L 306.595589 87.375424 
L 303.652808 88.653412 
L 302.02939 89.458489 
L 300.470871 90.024558 
L 297.621451 91.012843 
L 294.79306 91.848815 
L 292.751641 92.31407 
L 288.071543 93.063308 
L 287.973425 93.079037 
L 287.620831 93.095296 
L 282.962859 93.411854 
L 281.973722 93.457561 
" style="fill:none;stroke:#1f77b4;stroke-dasharray:1.5,2.475;stroke-dashoffset:0;stroke-opacity:0.5;stroke-width:1.5;"/>
   </g>
   <g id="LineCollection_26">
    <path clip-path="url(#pf4f0ed9f69)" d="M 350.0997 37.208445 
L 350.558706 38.799251 
L 350.700524 39.209627 
L 350.829621 39.741393 
L 351.194795 41.282316 
L 351.510181 43.186029 
L 351.520675 43.231597 
L 351.802956 45.302796 
L 351.964681 46.462714 
L 352.041006 48.004608 
L 352.177605 50.843652 
L 352.176078 50.878131 
L 352.210245 53.875709 
L 352.108559 56.544469 
L 352.064363 57.200947 
L 351.970002 58.03888 
L 351.835274 60.471427 
L 351.503324 63.253621 
L 351.460621 63.565398 
L 351.41102 63.848546 
L 351.035551 66.561387 
L 350.812675 68.283585 
L 350.493193 69.794529 
L 349.861539 72.973134 
L 349.846222 73.026371 
L 349.116756 76.355031 
L 347.864324 80.909951 
L 347.860865 80.921084 
L 347.856369 80.933452 
L 346.276112 86.132709 
L 345.092289 89.189923 
L 344.581811 90.741386 
L 344.263331 91.658588 
L 342.568444 95.624932 
L 342.041341 96.984478 
L 340.432332 100.204812 
L 339.682122 101.891842 
L 337.95832 104.989084 
L 337.40058 106.136266 
L 335.256688 109.765667 
L 335.235133 109.806699 
L 333.266418 112.979627 
L 332.305442 114.571326 
L 330.544833 116.978005 
L 329.382843 118.692971 
L 327.911825 120.538505 
L 325.577859 123.471634 
L 325.002955 124.104218 
L 323.535183 125.704953 
L 321.838006 127.676571 
L 320.380085 129.22759 
L 318.541298 131.050656 
L 317.083158 132.31943 
L 314.873053 134.467233 
L 311.506612 137.115104 
L 311.335804 137.267145 
L 311.102208 137.443059 
L 307.747433 139.869643 
L 304.275511 142.021436 
L 303.768878 142.384555 
L 303.139744 142.733236 
L 299.617527 144.568245 
L 296.067893 146.155275 
L 294.968548 146.532594 
L 292.255947 147.603089 
L 288.231835 148.520768 
L 288.207866 148.525869 
L 288.021659 148.53948 
L 282.520289 148.995349 
L 281.973722 149.032399 
" style="fill:none;stroke:#1f77b4;stroke-dasharray:1.5,2.475;stroke-dashoffset:0;stroke-opacity:0.5;stroke-width:1.5;"/>
   </g>
   <g id="LineCollection_27">
    <path clip-path="url(#pf4f0ed9f69)" d="M 362.439627 37.208111 
L 363.283019 39.037219 
L 364.295536 40.990273 
L 365.250067 43.293322 
L 365.722301 44.307236 
L 366.103434 45.121455 
L 367.346606 48.403081 
L 367.83772 49.695481 
L 367.948363 50.092894 
L 368.573817 51.894074 
L 369.365735 54.073154 
L 370.057939 56.247668 
L 370.689611 58.270801 
L 370.817226 58.860691 
L 371.999529 62.816631 
L 372.541602 65.20879 
L 373.139776 67.262658 
L 373.539503 68.580437 
L 374.461507 72.777332 
L 374.610714 73.265651 
L 374.908661 74.552956 
L 375.597286 77.678676 
L 375.852087 79.197477 
L 376.486557 81.809689 
L 377.199712 85.527543 
L 377.220664 85.647956 
L 377.231685 85.732454 
L 377.986917 89.62207 
L 378.177186 90.955215 
L 378.644712 93.306343 
L 379.254114 96.859674 
L 379.358552 97.323585 
L 379.596165 98.620372 
L 380.055538 101.328939 
L 380.369003 103.355358 
L 380.633951 104.92582 
L 380.790599 105.593027 
L 381.333387 108.869351 
L 381.452761 109.617978 
L 381.47658 109.824866 
L 382.231615 114.158565 
L 382.293066 114.728833 
L 382.93787 118.772241 
L 382.964109 119.079785 
L 383.609764 123.44308 
L 383.654137 123.906773 
L 384.365351 128.343374 
L 384.431634 129.093192 
L 384.678943 130.91065 
L 385.066982 133.483587 
L 385.605897 137.730838 
L 385.715769 138.327697 
L 385.855606 139.139209 
L 386.41751 143.146208 
L 387.064477 148.31526 
L 387.0774 148.445713 
L 387.082804 148.51398 
L 387.19663 149.517341 
L 387.699161 153.975685 
L 387.743666 154.263087 
L 387.794973 154.765118 
L 388.130416 159.012977 
L 388.36959 161.322143 
L 388.526243 163.946877 
L 388.73041 166.414835 
L 388.859618 168.862544 
L 389.05717 171.318746 
L 389.127053 173.785004 
L 389.276488 176.044144 
L 389.388643 178.925527 
L 389.468904 180.763793 
L 389.51066 184.805137 
L 389.529145 185.500055 
L 389.501241 187.526415 
L 389.471305 190.127676 
L 389.44272 191.089179 
L 389.372211 194.93379 
L 389.229993 198.000373 
L 389.178806 199.267029 
" style="fill:none;stroke:#1f77b4;stroke-dasharray:1.5,2.475;stroke-dashoffset:0;stroke-opacity:0.5;stroke-width:1.5;"/>
   </g>
   <g id="LineCollection_28">
    <path clip-path="url(#pf4f0ed9f69)" d="M 380.791924 37.208081 
L 382.033513 38.91245 
L 384.139241 41.572945 
L 384.657821 42.333676 
L 386.73371 45.139076 
L 387.392315 46.009246 
L 387.637699 46.30471 
L 390.07524 49.600357 
L 392.475885 52.82664 
L 392.958497 53.51807 
L 393.274287 54.001941 
L 395.760099 57.410285 
L 397.370458 59.710131 
L 398.54708 61.197006 
L 400.16486 63.347382 
L 401.080199 64.653785 
L 401.830036 65.707311 
L 403.600537 68.003451 
L 405.19559 70.175232 
L 406.505373 71.749621 
L 408.634904 74.349711 
L 409.561917 75.572184 
L 410.083724 76.256796 
L 412.535178 79.102501 
L 413.274996 80.033118 
L 415.683692 82.731301 
L 416.422365 83.645269 
L 419.074386 86.575377 
L 419.495978 87.027315 
L 419.782246 87.308149 
L 422.954528 90.669375 
L 425.558895 93.207392 
L 426.154955 93.836989 
L 427.085583 94.731138 
L 429.335072 96.841857 
L 431.564137 98.729091 
L 432.747538 99.802691 
L 433.450366 100.438279 
L 435.918349 102.49813 
L 438.381333 104.349156 
L 438.987876 104.852686 
L 442.171506 107.153856 
L 442.699723 107.571951 
L 443.548226 108.162184 
L 446.431252 110.096491 
L 450.30094 112.423675 
L 450.31741 112.43428 
L 450.328771 112.441164 
L 454.765428 114.81999 
L 455.836473 115.384306 
L 460.068003 117.214409 
L 460.904534 117.584918 
L 461.163376 117.670668 
L 466.539079 119.456095 
L 466.991538 119.566582 
L 471.132061 120.69164 
L 473.027903 120.996008 
L 475.710421 121.470127 
L 479.566409 121.822077 
L 480.35455 121.912393 
L 481.327201 121.933039 
L 484.882812 122.071539 
" style="fill:none;stroke:#1f77b4;stroke-dasharray:1.5,2.475;stroke-dashoffset:0;stroke-opacity:0.5;stroke-width:1.5;"/>
   </g>
   <g id="LineCollection_29">
    <path clip-path="url(#pf4f0ed9f69)" d="M 409.146175 37.208079 
L 413.440967 40.532093 
L 414.114768 40.994938 
L 415.186377 41.724772 
L 418.299209 44.00274 
L 420.376876 45.483685 
L 422.416009 46.794657 
L 424.117013 47.988953 
L 428.032487 50.457426 
L 428.129266 50.523334 
L 428.334243 50.648318 
L 432.086372 52.935499 
L 434.473702 54.228264 
L 436.129122 55.193901 
L 437.457933 55.898135 
L 440.680752 57.488973 
L 442.124584 58.239607 
L 444.630959 59.39233 
L 446.558238 60.289237 
L 447.594133 60.688559 
L 451.571514 62.301779 
L 452.278108 62.543848 
L 455.354521 63.658726 
L 458.258019 64.56518 
L 459.322041 64.875107 
L 460.987974 65.287151 
L 463.491462 65.987308 
L 465.444463 66.425022 
L 468.176246 66.993428 
L 470.279959 67.419435 
L 474.74705 68.023242 
L 475.112573 68.076075 
L 475.881713 68.132582 
L 479.816617 68.485339 
L 483.261844 68.550211 
L 484.882812 68.606216 
" style="fill:none;stroke:#1f77b4;stroke-dasharray:1.5,2.475;stroke-dashoffset:0;stroke-opacity:0.5;stroke-width:1.5;"/>
   </g>
   <g id="LineCollection_30"/>
   <g id="LineCollection_31"/>
   <g id="LineCollection_32">
    <path clip-path="url(#pf4f0ed9f69)" d="M 281.973726 37.20927 
L 281.973726 37.209276 
L 281.973722 38.33405 
" style="fill:none;stroke:#1f77b4;stroke-opacity:0.5;stroke-width:1.5;"/>
    <path clip-path="url(#pf4f0ed9f69)" d="M 285.979618 189.565431 
L 287.064583 189.569082 
L 287.067116 189.570906 
L 291.154418 189.644845 
" style="fill:none;stroke:#1f77b4;stroke-opacity:0.5;stroke-width:1.5;"/>
    <path clip-path="url(#pf4f0ed9f69)" d="M 295.399035 189.757635 
L 297.248496 189.811704 
L 297.248602 189.811738 
L 302.336861 190.019594 
L 302.336867 190.019595 
L 302.336872 190.019596 
L 307.42238 190.291471 
L 312.50401 190.625669 
L 312.504038 190.625674 
L 317.582021 191.011195 
L 317.582046 191.0112 
L 322.656781 191.437916 
L 322.656802 191.43792 
L 327.727077 191.913337 
L 327.727092 191.913339 
L 332.792503 192.439692 
L 332.792507 192.439692 
L 332.79251 192.439693 
L 337.854478 192.997485 
L 337.854486 192.997486 
L 342.915231 193.567859 
L 342.915243 193.567861 
L 347.974159 194.151832 
L 347.974172 194.151834 
L 353.030655 194.757519 
L 353.030665 194.75752 
L 358.085527 195.376189 
L 358.085535 195.37619 
L 363.139993 195.99973 
L 363.14 195.999731 
L 368.19304 196.633218 
L 368.193042 196.633218 
L 369.396117 196.78689 
" style="fill:none;stroke:#1f77b4;stroke-opacity:0.5;stroke-width:1.5;"/>
    <path clip-path="url(#pf4f0ed9f69)" d="M 470.872631 205.508541 
L 474.697799 205.581305 
L 474.698426 205.581063 
L 475.73072 205.593894 
" style="fill:none;stroke:#1f77b4;stroke-opacity:0.5;stroke-width:1.5;"/>
    <path clip-path="url(#pf4f0ed9f69)" d="M 480.8766 205.646535 
L 484.858916 205.640255 
L 484.828597 200.59416 
L 484.860927 200.546754 
L 484.864048 195.467427 
L 484.871173 195.450597 
L 484.870524 190.358987 
L 484.873424 190.349469 
L 484.87485 190.343166 
L 484.874896 185.249991 
L 484.876603 185.241412 
L 484.876531 180.144461 
L 484.877648 180.138163 
L 484.877614 175.039618 
L 484.878353 175.034927 
L 484.878904 175.030447 
L 484.878872 169.931019 
L 484.878834 164.831687 
L 484.879243 164.827035 
L 484.879594 164.824502 
L 484.879571 159.723648 
L 484.879928 159.720715 
L 484.879901 154.619183 
L 484.880197 154.616251 
L 484.880174 149.514357 
L 484.880375 149.512225 
L 484.880566 149.510412 
L 484.880545 144.407968 
L 484.88074 144.406011 
L 484.880718 139.30365 
L 484.880881 139.301763 
L 484.880866 134.199387 
L 484.881007 134.197614 
L 484.880984 129.094909 
L 484.881088 129.09338 
L 484.881201 129.091923 
L 484.881187 123.989209 
L 484.881304 123.987646 
L 484.881287 118.884563 
L 484.881398 118.883027 
L 484.881382 113.779817 
L 484.881486 113.778324 
L 484.881471 108.675226 
L 484.88157 108.673734 
L 484.881555 103.570339 
L 484.881643 103.56899 
L 484.881628 98.465521 
L 484.881703 98.46431 
L 484.881688 93.360806 
L 484.881754 93.359645 
L 484.881743 88.256477 
L 484.881781 88.255575 
L 484.881837 88.254648 
L 484.881821 83.150914 
L 484.881878 83.149949 
L 484.881867 78.046275 
L 484.88192 78.045354 
L 484.881905 72.941709 
L 484.881959 72.940737 
L 484.881951 67.83685 
L 484.881998 67.836004 
L 484.881981 62.731966 
L 484.882018 62.731225 
L 484.882015 57.627493 
L 484.882051 57.62665 
L 484.882028 52.52286 
L 484.882056 52.522246 
L 484.882081 52.521679 
L 484.882105 47.417752 
L 484.882134 47.416994 
L 484.882003 42.313247 
L 484.882036 42.312226 
L 484.882464 37.208405 
L 484.882472 37.208066 
" style="fill:none;stroke:#1f77b4;stroke-opacity:0.5;stroke-width:1.5;"/>
   </g>
   <g id="LineCollection_33">
    <path clip-path="url(#pf4f0ed9f69)" d="M 290.090063 37.209271 
L 290.213408 38.468326 
L 290.575189 41.193399 
L 291.101768 45.139219 
L 291.158825 45.459588 
L 291.22097 45.811136 
L 291.708717 49.35398 
L 292.180683 51.883857 
L 292.396803 53.443493 
L 292.79395 55.588643 
L 293.341662 58.107249 
L 293.615848 59.860507 
L 294.289198 62.705972 
L 295.089833 66.273091 
L 295.142647 66.443536 
L 296.191317 70.610169 
L 297.000024 73.266289 
L 297.399961 74.741769 
L 297.584272 75.499523 
L 298.915458 79.560105 
L 299.46728 81.517634 
L 300.477884 84.062437 
L 301.410672 86.589817 
L 301.926121 87.955192 
L 302.201562 88.500627 
L 304.211552 93.19226 
L 304.381532 93.492142 
L 306.232082 97.468495 
L 307.570022 99.737887 
L 308.432143 101.523195 
L 309.337344 103.067176 
L 310.687062 105.26274 
L 312.570151 107.980081 
L 313.27284 109.12148 
L 315.772739 112.392558 
L 316.091358 112.849765 
L 319.392575 116.6758 
L 319.79176 117.176006 
L 320.423218 117.845534 
L 323.166638 120.594953 
L 325.443936 122.644008 
L 326.748402 123.736464 
L 330.247429 126.363959 
L 330.741131 126.755906 
L 330.893461 126.87286 
L 331.349698 127.166022 
L 334.966266 129.547423 
L 338.433125 131.472864 
L 339.090722 131.814382 
L 343.477769 133.862221 
L 343.500553 133.871719 
L 348.156064 135.680726 
L 348.20339 135.696323 
L 352.786525 137.148314 
L 353.044353 137.213439 
L 357.661935 138.368646 
L 358.829165 138.585384 
L 362.20981 139.232538 
L 365.90263 139.686843 
L 366.694155 139.79645 
L 367.540721 139.856317 
L 370.993794 140.158747 
L 373.523513 140.211559 
L 375.44294 140.278376 
L 378.949167 140.1836 
L 380.193383 140.158521 
L 381.696192 140.026798 
L 384.925982 139.805113 
L 386.287536 139.649455 
L 390.068491 139.097382 
L 391.499858 138.853067 
L 394.973728 138.148118 
L 397.260704 137.560177 
L 399.190889 137.081165 
L 400.614429 136.611979 
L 403.573667 135.709439 
L 406.415887 134.602902 
L 407.857216 134.06193 
L 410.142446 133.005422 
L 411.748076 132.29931 
L 412.909122 131.675716 
L 415.297978 130.480441 
L 417.176394 129.361115 
L 419.288148 128.131869 
L 422.039371 126.194799 
L 422.936654 125.602088 
L 423.756341 124.958366 
L 426.310131 123.019943 
L 428.111553 121.407403 
L 429.488917 120.261575 
L 430.498377 119.301165 
L 432.565187 117.336882 
L 434.313866 115.392545 
L 435.819831 113.788136 
L 437.725784 111.451201 
L 438.992067 109.917659 
L 440.763126 107.429557 
L 441.80479 106.056809 
L 442.907949 104.422643 
L 444.465792 101.971507 
L 446.380487 98.769356 
L 447.007888 97.654193 
L 447.392427 96.855523 
L 449.222253 93.467907 
L 450.628799 90.607707 
L 451.252966 89.169624 
L 452.67472 86.034875 
L 453.124684 84.866383 
L 454.480789 81.620774 
L 455.07571 79.89426 
L 456.339281 76.559427 
L 456.757431 75.188465 
L 457.969503 71.63863 
L 458.287563 70.472798 
L 459.477583 66.589238 
L 459.697918 65.697463 
L 460.655776 62.275361 
L 460.893923 61.289368 
L 461.487674 58.923476 
L 461.796201 57.830029 
L 462.836021 53.230116 
L 463.139378 52.036557 
L 463.953757 47.944133 
L 464.300856 46.420289 
L 465.018265 42.453995 
L 465.603917 39.366085 
L 465.944664 37.208067 
" style="fill:none;stroke:#1f77b4;stroke-opacity:0.5;stroke-width:1.5;"/>
   </g>
   <g id="LineCollection_34">
    <path clip-path="url(#pf4f0ed9f69)" d="M 298.206401 37.20927 
L 298.609844 39.048564 
L 299.577299 42.531387 
L 299.773687 43.393207 
L 300.413751 45.564505 
L 300.972676 47.457117 
L 301.276545 48.265756 
L 302.312019 51.536678 
L 303.053954 53.360927 
L 304.019693 55.996106 
L 304.619616 57.371244 
L 305.922494 60.230601 
L 306.352959 61.268672 
L 306.601549 61.834405 
L 308.178816 64.969959 
L 309.830767 68.009739 
L 310.222407 68.646508 
L 312.601138 72.46346 
L 312.639802 72.514541 
L 312.797129 72.729893 
L 315.214826 76.298081 
L 316.980044 78.563501 
L 317.728361 79.492497 
L 319.422717 81.37745 
L 320.621506 82.773153 
L 320.945969 83.178416 
L 322.380946 84.609607 
L 324.470416 86.731996 
L 325.249606 87.358874 
L 328.196096 89.989126 
L 330.687203 91.777087 
L 332.122482 92.915711 
L 334.35534 94.333263 
L 336.156848 95.482928 
L 337.331231 96.072592 
L 340.042503 97.629078 
L 343.440403 99.170328 
L 344.202348 99.508615 
L 345.759529 100.059481 
L 348.812211 101.238401 
L 350.364026 101.724239 
L 353.85641 102.656515 
L 356.068566 103.206328 
L 358.807836 103.661763 
L 360.951572 103.995244 
L 364.328131 104.342627 
L 365.977969 104.45245 
L 369.105607 104.542359 
L 370.323276 104.528402 
L 373.432381 104.444651 
L 375.161782 104.296259 
L 378.460084 103.95508 
L 380.292891 103.688953 
L 382.865988 103.16306 
L 384.907504 102.790708 
L 388.343236 101.854431 
L 389.22307 101.62643 
L 389.643738 101.480614 
L 393.275167 100.312796 
L 396.413853 99.012056 
L 397.045509 98.767029 
L 398.088752 98.263294 
L 400.601804 97.124483 
L 402.257222 96.20042 
L 404.154834 95.224838 
L 406.011684 94.073463 
L 408.251677 92.711408 
L 410.068388 91.424573 
L 413.015828 89.258291 
L 414.184396 88.353431 
L 415.389659 87.2729 
L 418.358619 84.720665 
L 419.940437 83.163913 
L 422.237642 80.840184 
L 423.02418 79.9745 
L 424.66982 78.06249 
L 425.735799 76.886826 
L 427.145865 75.115663 
L 428.291239 73.697084 
L 428.61968 73.232463 
L 431.305939 69.517241 
L 431.621816 69.027396 
L 433.774843 65.780899 
L 434.3797 64.761073 
L 435.334704 63.098405 
L 436.239426 61.624114 
L 438.050168 58.259886 
L 438.153208 58.072115 
L 439.500117 55.497037 
L 440.948833 52.356576 
L 441.333035 51.598315 
L 441.816622 50.514495 
L 443.39756 46.825354 
L 444.654988 43.725368 
L 445.158551 42.342548 
L 446.182308 39.687156 
L 447.006518 37.20807 
" style="fill:none;stroke:#1f77b4;stroke-opacity:0.5;stroke-width:1.5;"/>
   </g>
   <g id="LineCollection_35">
    <path clip-path="url(#pf4f0ed9f69)" d="M 306.322738 37.20928 
L 306.736087 38.490354 
L 307.629457 40.704477 
L 308.077465 41.770969 
L 308.743112 43.168787 
L 309.688808 45.387383 
L 311.12002 48.124216 
L 311.271962 48.452849 
L 312.327799 50.321548 
L 313.122621 51.750471 
L 313.233304 51.917788 
L 313.65785 52.567157 
L 315.077243 54.832805 
L 315.807312 55.913915 
L 316.746816 57.262821 
L 317.898329 58.652531 
L 318.743674 59.824071 
L 319.886716 61.177011 
L 321.182526 62.688569 
L 322.125999 63.591712 
L 324.722874 66.228572 
L 325.481689 66.872627 
L 328.765194 69.631553 
L 329.07005 69.852688 
L 329.634339 70.219739 
L 332.491618 72.307109 
L 334.235004 73.389437 
L 335.809677 74.259503 
L 338.606376 75.786498 
L 340.247138 76.496764 
L 342.93505 77.673725 
L 344.388586 78.19867 
L 347.409034 79.208166 
L 348.989232 79.610955 
L 353.442312 80.604499 
L 353.525384 80.618078 
L 358.515301 81.288585 
L 358.965169 81.31624 
L 363.215792 81.535223 
L 364.087664 81.510938 
L 368.041932 81.389974 
L 369.433402 81.23455 
L 373.612072 80.706202 
L 375.037727 80.418921 
L 378.228799 79.77014 
L 381.850734 78.707751 
L 382.536304 78.518177 
L 383.518159 78.146649 
L 386.643884 77.063327 
L 389.036386 75.971717 
L 390.559546 75.33016 
L 391.671837 74.741146 
L 394.483572 73.322238 
L 396.996329 71.792786 
L 398.448543 70.915703 
L 401.363814 68.883659 
L 401.880122 68.514386 
L 404.89059 66.193968 
L 405.85104 65.38062 
L 408.387668 63.202238 
L 410.247174 61.40442 
L 411.883635 59.789156 
L 413.170722 58.433629 
L 415.606602 55.667541 
L 415.768881 55.47943 
L 418.105848 52.621025 
L 418.499614 52.115735 
L 418.962058 51.461717 
L 421.231343 48.414105 
L 422.254955 46.842767 
L 423.463913 45.088751 
L 425.582065 41.600068 
L 425.753173 41.324797 
L 428.068376 37.208074 
" style="fill:none;stroke:#1f77b4;stroke-opacity:0.5;stroke-width:1.5;"/>
   </g>
   <g id="LineCollection_36">
    <path clip-path="url(#pf4f0ed9f69)" d="M 314.439074 37.209307 
L 315.268332 38.882249 
L 316.444365 40.858164 
L 316.847241 41.587556 
L 318.491756 44.107285 
L 318.954167 44.799181 
L 320.643222 47.054922 
L 321.511496 48.185915 
L 322.985031 49.848839 
L 323.846083 50.840456 
L 325.677368 52.595083 
L 325.983802 52.920713 
L 326.983545 53.787878 
L 328.218386 54.89986 
L 328.941725 55.419487 
L 331.015178 57.040678 
L 333.660638 58.732864 
L 334.130984 59.026724 
L 334.48897 59.20469 
L 337.695918 60.94188 
L 338.613811 61.302241 
L 340.912312 62.340135 
L 342.967812 63.002032 
L 344.016009 63.373581 
L 346.976385 64.136534 
L 347.931277 64.361291 
L 350.74031 64.861581 
L 353.385681 65.178549 
L 354.324935 65.281557 
L 356.207657 65.315557 
L 358.002461 65.414662 
L 358.91791 65.405789 
L 362.306939 65.237877 
L 364.468664 65.055597 
L 367.752396 64.480243 
L 369.071953 64.265501 
L 373.277879 63.169324 
L 373.66731 63.064748 
L 374.286461 62.846006 
L 378.046568 61.590846 
L 381.376743 60.090271 
L 382.203334 59.749177 
L 383.160189 59.238315 
L 386.289603 57.646462 
L 389.321866 55.739264 
L 389.628164 55.556466 
L 390.943033 54.63191 
L 393.070908 53.162591 
L 393.310708 52.981943 
L 396.546853 50.445785 
L 397.434293 49.649013 
L 399.566465 47.821678 
L 401.121788 46.259173 
L 402.826271 44.607434 
L 405.685935 41.425338 
L 406.195763 40.865255 
L 407.819155 38.842058 
L 408.930352 37.489178 
L 409.130243 37.208079 
" style="fill:none;stroke:#1f77b4;stroke-opacity:0.5;stroke-width:1.5;"/>
   </g>
   <g id="LineCollection_37">
    <path clip-path="url(#pf4f0ed9f69)" d="M 322.5554 37.209262 
L 322.980244 37.863933 
L 324.123629 39.336729 
L 324.638831 40.035652 
L 324.840873 40.2646 
L 326.736764 42.46225 
L 327.172955 42.909716 
L 328.978527 44.575087 
L 329.62203 45.200664 
L 329.801616 45.37292 
L 330.133828 45.63083 
L 332.457548 47.469223 
L 334.674527 48.865052 
L 335.271418 49.239257 
L 335.66793 49.424911 
L 338.575794 50.881892 
L 339.617412 51.256297 
L 341.323252 51.930981 
L 343.715926 52.568841 
L 344.15463 52.687959 
L 347.193202 53.244312 
L 347.834584 53.367745 
L 350.130618 53.530763 
L 350.536186 53.569871 
L 350.622278 53.567881 
L 353.958327 53.638745 
L 354.456985 53.605838 
L 357.738569 53.353294 
L 358.139062 53.291874 
L 360.068056 52.963469 
L 361.256528 52.791819 
L 361.843623 52.6572 
L 364.405695 52.102811 
L 366.853192 51.272065 
L 368.408908 50.82678 
L 369.385412 50.473912 
L 373.282329 48.819639 
L 374.270773 48.344197 
L 377.528855 46.623591 
L 379.173739 45.624102 
L 381.433318 44.221362 
L 384.994869 41.619322 
L 385.124918 41.523086 
L 385.430248 41.26308 
L 388.846573 38.466336 
L 390.192122 37.208085 
" style="fill:none;stroke:#1f77b4;stroke-opacity:0.5;stroke-width:1.5;"/>
   </g>
   <g id="LineCollection_38">
    <path clip-path="url(#pf4f0ed9f69)" d="M 330.671709 37.209071 
L 331.60237 38.190707 
L 332.773695 39.226819 
L 333.215099 39.630646 
L 334.870429 40.883413 
L 335.022269 41.002911 
L 335.056418 41.025457 
L 335.209494 41.120756 
L 336.986069 42.274029 
L 339.086981 43.288009 
L 339.306885 43.402193 
L 339.431894 43.458766 
L 340.210737 43.70948 
L 341.906665 44.289929 
L 342.127734 44.344635 
L 342.874994 44.466393 
L 344.621513 44.841838 
L 346.226439 44.970868 
L 347.407712 45.05735 
L 348.203734 45.015111 
L 350.127176 44.974929 
L 351.174958 44.873591 
L 353.016803 44.560956 
L 354.171673 44.421579 
L 354.9529 44.280201 
L 357.600052 43.57231 
L 359.245635 43.132965 
L 361.644014 42.173246 
L 362.463346 41.891301 
L 364.426776 40.975157 
L 365.423313 40.523801 
L 366.167478 40.100615 
L 368.784757 38.737035 
L 371.254035 37.208053 
" style="fill:none;stroke:#1f77b4;stroke-opacity:0.5;stroke-width:1.5;"/>
   </g>
   <g id="LineCollection_39">
    <path clip-path="url(#pf4f0ed9f69)" d="M 338.787972 37.208803 
L 339.967954 37.950373 
L 340.967429 38.394975 
L 341.315261 38.584274 
L 342.340649 38.877198 
L 342.579837 38.952465 
L 342.636749 38.960778 
L 343.852244 39.063758 
L 344.02008 39.069105 
L 345.051338 39.042236 
L 346.098225 38.907347 
L 346.284125 38.885397 
L 346.37626 38.859779 
L 347.863771 38.600621 
L 348.486681 38.405835 
L 349.675844 38.136818 
L 351.180552 37.607678 
L 351.597461 37.48966 
L 352.31607 37.208372 
" style="fill:none;stroke:#1f77b4;stroke-opacity:0.5;stroke-width:1.5;"/>
   </g>
   <g id="LineCollection_40"/>
   <g id="line2d_6">
    <path d="M 484.882812 37.208066 
L 479.799128 37.208066 
L 474.715647 37.208067 
L 469.631962 37.208067 
L 464.548481 37.208067 
L 459.464796 37.208068 
L 454.381112 37.208069 
L 449.297631 37.208069 
L 444.213946 37.20807 
L 439.130262 37.208071 
L 434.046781 37.208072 
L 428.963096 37.208074 
L 423.879615 37.208075 
L 418.79593 37.208076 
L 413.712246 37.208078 
L 408.628764 37.208079 
L 403.54508 37.208081 
L 398.461599 37.208083 
L 393.377914 37.208084 
L 388.29423 37.208085 
L 383.210748 37.208087 
L 378.132948 37.208074 
L 373.223766 37.208055 
L 368.656079 37.208051 
L 364.398438 37.208079 
L 360.570558 37.208141 
L 357.152149 37.208225 
L 354.065292 37.208316 
L 351.388922 37.208402 
L 349.113499 37.208478 
L 347.218125 37.208541 
L 345.642739 37.208591 
L 344.203099 37.208635 
L 342.846449 37.208677 
" style="fill:none;stroke:#1f77b4;stroke-linecap:square;stroke-width:1.5;"/>
   </g>
   <g id="line2d_7">
    <path d="M 342.846449 37.208677 
L 341.511307 37.208717 
L 340.098248 37.208761 
L 338.568719 37.208811 
L 336.796309 37.20887 
L 334.741854 37.208939 
L 332.39034 37.209017 
L 329.696722 37.209101 
L 326.694074 37.209183 
L 323.482428 37.20925 
L 320.065236 37.209293 
L 316.44473 37.20931 
L 312.629836 37.209305 
L 308.581799 37.209288 
L 304.306302 37.209273 
L 299.88055 37.20927 
L 295.349935 37.20927 
L 290.793409 37.209271 
L 286.321394 37.209271 
L 281.973722 37.20927 
" style="fill:none;stroke:#ff7f0e;stroke-linecap:square;stroke-width:1.5;"/>
   </g>
   <g id="line2d_8">
    <path d="M 281.973722 37.20927 
L 281.973722 42.041855 
L 281.973722 46.868332 
L 281.973722 51.678008 
L 281.973722 56.549287 
L 281.973722 61.60148 
L 281.973722 66.712557 
L 281.973722 71.815112 
L 281.973722 76.925378 
L 281.973722 82.044165 
L 281.973722 87.162953 
L 281.973722 92.281943 
L 281.973722 97.400731 
L 281.973722 102.519722 
L 281.973722 107.638509 
L 281.973722 112.7575 
L 281.973722 117.876287 
L 281.973722 122.995075 
L 281.973722 128.114066 
L 281.973722 133.232853 
L 281.973722 138.351844 
L 281.973722 143.470631 
L 281.973722 148.589622 
L 281.973722 153.70841 
L 281.973722 158.827197 
L 281.973722 163.946188 
L 281.973722 169.064975 
L 281.973722 174.183966 
L 281.973722 179.302754 
L 281.973722 184.421744 
L 281.973722 189.540532 
" style="fill:none;stroke:#808080;stroke-dasharray:1.5,2.475;stroke-dashoffset:0;stroke-width:1.5;"/>
   </g>
   <g id="line2d_9">
    <path d="M 281.973722 189.540532 
L 287.066273 189.572186 
L 292.158094 189.662683 
L 297.248556 189.811821 
L 302.336866 190.0196 
L 307.422377 190.291498 
L 312.504032 190.62569 
L 317.582035 191.011217 
L 322.656791 191.437935 
L 327.727084 191.913351 
L 332.792506 192.439697 
L 337.854479 192.997494 
L 342.915235 193.567871 
L 347.974164 194.151844 
L 353.030659 194.757527 
L 358.08553 195.376197 
L 363.139996 195.999737 
L 368.193041 196.633219 
L 373.244666 197.27847 
L 378.29629 197.922909 
L 383.349741 198.553348 
L 388.404612 199.173032 
L 393.460092 199.786832 
L 398.517602 200.383588 
L 403.57856 200.952139 
L 408.642156 201.494109 
L 413.708188 202.013759 
L 418.777263 202.504597 
L 423.849381 202.959722 
L 428.924746 203.378932 
L 434.002749 203.765068 
L 439.083187 204.116912 
L 444.16606 204.433653 
L 449.250759 204.7159 
L 454.337487 204.963855 
L 459.425635 205.175692 
L 464.515407 205.349179 
L 469.606193 205.484317 
L 474.697994 205.581713 
L 479.7902 205.641774 
L 484.882812 205.664094 
" style="fill:none;stroke:#808080;stroke-linecap:square;stroke-width:1.5;"/>
   </g>
   <g id="line2d_10">
    <path d="M 484.882812 205.664094 
L 484.882812 200.559307 
L 484.882812 195.454723 
L 484.882812 190.349936 
L 484.882812 185.245149 
L 484.882812 180.140362 
L 484.882812 175.035778 
L 484.882812 169.930991 
L 484.882812 164.826205 
L 484.882812 159.721621 
L 484.882812 154.616834 
L 484.882812 149.512047 
L 484.882812 144.40726 
L 484.882812 139.302676 
L 484.882812 134.197889 
L 484.882812 129.093102 
L 484.882812 123.988518 
L 484.882812 118.883731 
L 484.882812 113.778944 
L 484.882812 108.67436 
L 484.882812 103.569573 
L 484.882812 98.464786 
L 484.882812 93.359999 
L 484.882812 88.255415 
L 484.882812 83.150629 
L 484.882812 78.045842 
L 484.882812 72.941258 
L 484.882812 67.836471 
L 484.882812 62.731684 
L 484.882812 57.626897 
L 484.882812 52.522252 
L 484.882812 47.417526 
L 484.882812 42.3128 
L 484.882812 37.208066 
" style="fill:none;stroke:#808080;stroke-dasharray:5.55,2.4;stroke-dashoffset:0;stroke-width:1.5;"/>
   </g>
   <g id="text_2">
    <!-- $\omega$ -->
    <defs>
     <path d="M 21.390625 -1.421875 
Q 1.125 -1.421875 6.78125 27.59375 
Q 8.984375 39.0625 19.625 54.6875 
L 29.296875 54.6875 
Q 19.234375 39.0625 17 27.34375 
Q 12.796875 6.203125 23.734375 6.203125 
Q 33.84375 6.203125 38.71875 32.46875 
L 47.015625 32.46875 
Q 41.703125 6.0625 51.8125 6.203125 
Q 62.703125 6.296875 66.796875 27.34375 
Q 69.046875 39.0625 65.140625 54.6875 
L 74.8125 54.6875 
Q 79.296875 39.0625 77.09375 27.59375 
Q 71.53125 -1.46875 51.21875 -1.421875 
Q 37.9375 -1.375 39.109375 13.1875 
Q 34.28125 -1.421875 21.390625 -1.421875 
z
" id="DejaVuSans-Oblique-969"/>
    </defs>
    <g transform="translate(378.388267 31.208051)scale(0.12 -0.12)">
     <use transform="translate(0 0.3125)" xlink:href="#DejaVuSans-Oblique-969"/>
    </g>
   </g>
   <g id="legend_1">
    <g id="patch_2">
     <path d="M 333.031392 160.048573 
L 433.825142 160.048573 
Q 435.825142 160.048573 435.825142 158.048573 
L 435.825142 84.823573 
Q 435.825142 82.823573 433.825142 82.823573 
L 333.031392 82.823573 
Q 331.031392 82.823573 331.031392 84.823573 
L 331.031392 158.048573 
Q 331.031392 160.048573 333.031392 160.048573 
z
" style="fill:#ffffff;opacity:0.8;stroke:#cccccc;stroke-linejoin:miter;"/>
    </g>
    <g id="line2d_11">
     <path d="M 335.031392 90.92201 
L 355.031392 90.92201 
" style="fill:none;stroke:#1f77b4;stroke-linecap:square;stroke-width:1.5;"/>
    </g>
    <g id="line2d_12"/>
    <g id="text_3">
     <!-- free_surface -->
     <defs>
      <path d="M 37.109375 75.984375 
L 37.109375 68.5 
L 28.515625 68.5 
Q 23.6875 68.5 21.796875 66.546875 
Q 19.921875 64.59375 19.921875 59.515625 
L 19.921875 54.6875 
L 34.71875 54.6875 
L 34.71875 47.703125 
L 19.921875 47.703125 
L 19.921875 0 
L 10.890625 0 
L 10.890625 47.703125 
L 2.296875 47.703125 
L 2.296875 54.6875 
L 10.890625 54.6875 
L 10.890625 58.5 
Q 10.890625 67.625 15.140625 71.796875 
Q 19.390625 75.984375 28.609375 75.984375 
z
" id="DejaVuSans-102"/>
      <path d="M 41.109375 46.296875 
Q 39.59375 47.171875 37.8125 47.578125 
Q 36.03125 48 33.890625 48 
Q 26.265625 48 22.1875 43.046875 
Q 18.109375 38.09375 18.109375 28.8125 
L 18.109375 0 
L 9.078125 0 
L 9.078125 54.6875 
L 18.109375 54.6875 
L 18.109375 46.1875 
Q 20.953125 51.171875 25.484375 53.578125 
Q 30.03125 56 36.53125 56 
Q 37.453125 56 38.578125 55.875 
Q 39.703125 55.765625 41.0625 55.515625 
z
" id="DejaVuSans-114"/>
      <path d="M 56.203125 29.59375 
L 56.203125 25.203125 
L 14.890625 25.203125 
Q 15.484375 15.921875 20.484375 11.0625 
Q 25.484375 6.203125 34.421875 6.203125 
Q 39.59375 6.203125 44.453125 7.46875 
Q 49.3125 8.734375 54.109375 11.28125 
L 54.109375 2.78125 
Q 49.265625 0.734375 44.1875 -0.34375 
Q 39.109375 -1.421875 33.890625 -1.421875 
Q 20.796875 -1.421875 13.15625 6.1875 
Q 5.515625 13.8125 5.515625 26.8125 
Q 5.515625 40.234375 12.765625 48.109375 
Q 20.015625 56 32.328125 56 
Q 43.359375 56 49.78125 48.890625 
Q 56.203125 41.796875 56.203125 29.59375 
z
M 47.21875 32.234375 
Q 47.125 39.59375 43.09375 43.984375 
Q 39.0625 48.390625 32.421875 48.390625 
Q 24.90625 48.390625 20.390625 44.140625 
Q 15.875 39.890625 15.1875 32.171875 
z
" id="DejaVuSans-101"/>
      <path d="M 50.984375 -16.609375 
L 50.984375 -23.578125 
L -0.984375 -23.578125 
L -0.984375 -16.609375 
z
" id="DejaVuSans-95"/>
      <path d="M 44.28125 53.078125 
L 44.28125 44.578125 
Q 40.484375 46.53125 36.375 47.5 
Q 32.28125 48.484375 27.875 48.484375 
Q 21.1875 48.484375 17.84375 46.4375 
Q 14.5 44.390625 14.5 40.28125 
Q 14.5 37.15625 16.890625 35.375 
Q 19.28125 33.59375 26.515625 31.984375 
L 29.59375 31.296875 
Q 39.15625 29.25 43.1875 25.515625 
Q 47.21875 21.78125 47.21875 15.09375 
Q 47.21875 7.46875 41.1875 3.015625 
Q 35.15625 -1.421875 24.609375 -1.421875 
Q 20.21875 -1.421875 15.453125 -0.5625 
Q 10.6875 0.296875 5.421875 2 
L 5.421875 11.28125 
Q 10.40625 8.6875 15.234375 7.390625 
Q 20.0625 6.109375 24.8125 6.109375 
Q 31.15625 6.109375 34.5625 8.28125 
Q 37.984375 10.453125 37.984375 14.40625 
Q 37.984375 18.0625 35.515625 20.015625 
Q 33.0625 21.96875 24.703125 23.78125 
L 21.578125 24.515625 
Q 13.234375 26.265625 9.515625 29.90625 
Q 5.8125 33.546875 5.8125 39.890625 
Q 5.8125 47.609375 11.28125 51.796875 
Q 16.75 56 26.8125 56 
Q 31.78125 56 36.171875 55.265625 
Q 40.578125 54.546875 44.28125 53.078125 
z
" id="DejaVuSans-115"/>
      <path d="M 8.5 21.578125 
L 8.5 54.6875 
L 17.484375 54.6875 
L 17.484375 21.921875 
Q 17.484375 14.15625 20.5 10.265625 
Q 23.53125 6.390625 29.59375 6.390625 
Q 36.859375 6.390625 41.078125 11.03125 
Q 45.3125 15.671875 45.3125 23.6875 
L 45.3125 54.6875 
L 54.296875 54.6875 
L 54.296875 0 
L 45.3125 0 
L 45.3125 8.40625 
Q 42.046875 3.421875 37.71875 1 
Q 33.40625 -1.421875 27.6875 -1.421875 
Q 18.265625 -1.421875 13.375 4.4375 
Q 8.5 10.296875 8.5 21.578125 
z
M 31.109375 56 
z
" id="DejaVuSans-117"/>
      <path d="M 34.28125 27.484375 
Q 23.390625 27.484375 19.1875 25 
Q 14.984375 22.515625 14.984375 16.5 
Q 14.984375 11.71875 18.140625 8.90625 
Q 21.296875 6.109375 26.703125 6.109375 
Q 34.1875 6.109375 38.703125 11.40625 
Q 43.21875 16.703125 43.21875 25.484375 
L 43.21875 27.484375 
z
M 52.203125 31.203125 
L 52.203125 0 
L 43.21875 0 
L 43.21875 8.296875 
Q 40.140625 3.328125 35.546875 0.953125 
Q 30.953125 -1.421875 24.3125 -1.421875 
Q 15.921875 -1.421875 10.953125 3.296875 
Q 6 8.015625 6 15.921875 
Q 6 25.140625 12.171875 29.828125 
Q 18.359375 34.515625 30.609375 34.515625 
L 43.21875 34.515625 
L 43.21875 35.40625 
Q 43.21875 41.609375 39.140625 45 
Q 35.0625 48.390625 27.6875 48.390625 
Q 23 48.390625 18.546875 47.265625 
Q 14.109375 46.140625 10.015625 43.890625 
L 10.015625 52.203125 
Q 14.9375 54.109375 19.578125 55.046875 
Q 24.21875 56 28.609375 56 
Q 40.484375 56 46.34375 49.84375 
Q 52.203125 43.703125 52.203125 31.203125 
z
" id="DejaVuSans-97"/>
      <path d="M 48.78125 52.59375 
L 48.78125 44.1875 
Q 44.96875 46.296875 41.140625 47.34375 
Q 37.3125 48.390625 33.40625 48.390625 
Q 24.65625 48.390625 19.8125 42.84375 
Q 14.984375 37.3125 14.984375 27.296875 
Q 14.984375 17.28125 19.8125 11.734375 
Q 24.65625 6.203125 33.40625 6.203125 
Q 37.3125 6.203125 41.140625 7.25 
Q 44.96875 8.296875 48.78125 10.40625 
L 48.78125 2.09375 
Q 45.015625 0.34375 40.984375 -0.53125 
Q 36.96875 -1.421875 32.421875 -1.421875 
Q 20.0625 -1.421875 12.78125 6.34375 
Q 5.515625 14.109375 5.515625 27.296875 
Q 5.515625 40.671875 12.859375 48.328125 
Q 20.21875 56 33.015625 56 
Q 37.15625 56 41.109375 55.140625 
Q 45.0625 54.296875 48.78125 52.59375 
z
" id="DejaVuSans-99"/>
     </defs>
     <g transform="translate(363.031392 94.42201)scale(0.1 -0.1)">
      <use xlink:href="#DejaVuSans-102"/>
      <use x="35.205078" xlink:href="#DejaVuSans-114"/>
      <use x="76.287109" xlink:href="#DejaVuSans-101"/>
      <use x="137.810547" xlink:href="#DejaVuSans-101"/>
      <use x="199.333984" xlink:href="#DejaVuSans-95"/>
      <use x="249.333984" xlink:href="#DejaVuSans-115"/>
      <use x="301.433594" xlink:href="#DejaVuSans-117"/>
      <use x="364.8125" xlink:href="#DejaVuSans-114"/>
      <use x="405.925781" xlink:href="#DejaVuSans-102"/>
      <use x="441.130859" xlink:href="#DejaVuSans-97"/>
      <use x="502.410156" xlink:href="#DejaVuSans-99"/>
      <use x="557.390625" xlink:href="#DejaVuSans-101"/>
     </g>
    </g>
    <g id="line2d_13">
     <path d="M 335.031392 105.87826 
L 355.031392 105.87826 
" style="fill:none;stroke:#ff7f0e;stroke-linecap:square;stroke-width:1.5;"/>
    </g>
    <g id="line2d_14"/>
    <g id="text_4">
     <!-- seepage_face -->
     <defs>
      <path d="M 18.109375 8.203125 
L 18.109375 -20.796875 
L 9.078125 -20.796875 
L 9.078125 54.6875 
L 18.109375 54.6875 
L 18.109375 46.390625 
Q 20.953125 51.265625 25.265625 53.625 
Q 29.59375 56 35.59375 56 
Q 45.5625 56 51.78125 48.09375 
Q 58.015625 40.1875 58.015625 27.296875 
Q 58.015625 14.40625 51.78125 6.484375 
Q 45.5625 -1.421875 35.59375 -1.421875 
Q 29.59375 -1.421875 25.265625 0.953125 
Q 20.953125 3.328125 18.109375 8.203125 
z
M 48.6875 27.296875 
Q 48.6875 37.203125 44.609375 42.84375 
Q 40.53125 48.484375 33.40625 48.484375 
Q 26.265625 48.484375 22.1875 42.84375 
Q 18.109375 37.203125 18.109375 27.296875 
Q 18.109375 17.390625 22.1875 11.75 
Q 26.265625 6.109375 33.40625 6.109375 
Q 40.53125 6.109375 44.609375 11.75 
Q 48.6875 17.390625 48.6875 27.296875 
z
" id="DejaVuSans-112"/>
      <path d="M 45.40625 27.984375 
Q 45.40625 37.75 41.375 43.109375 
Q 37.359375 48.484375 30.078125 48.484375 
Q 22.859375 48.484375 18.828125 43.109375 
Q 14.796875 37.75 14.796875 27.984375 
Q 14.796875 18.265625 18.828125 12.890625 
Q 22.859375 7.515625 30.078125 7.515625 
Q 37.359375 7.515625 41.375 12.890625 
Q 45.40625 18.265625 45.40625 27.984375 
z
M 54.390625 6.78125 
Q 54.390625 -7.171875 48.1875 -13.984375 
Q 42 -20.796875 29.203125 -20.796875 
Q 24.46875 -20.796875 20.265625 -20.09375 
Q 16.0625 -19.390625 12.109375 -17.921875 
L 12.109375 -9.1875 
Q 16.0625 -11.328125 19.921875 -12.34375 
Q 23.78125 -13.375 27.78125 -13.375 
Q 36.625 -13.375 41.015625 -8.765625 
Q 45.40625 -4.15625 45.40625 5.171875 
L 45.40625 9.625 
Q 42.625 4.78125 38.28125 2.390625 
Q 33.9375 0 27.875 0 
Q 17.828125 0 11.671875 7.65625 
Q 5.515625 15.328125 5.515625 27.984375 
Q 5.515625 40.671875 11.671875 48.328125 
Q 17.828125 56 27.875 56 
Q 33.9375 56 38.28125 53.609375 
Q 42.625 51.21875 45.40625 46.390625 
L 45.40625 54.6875 
L 54.390625 54.6875 
z
" id="DejaVuSans-103"/>
     </defs>
     <g transform="translate(363.031392 109.37826)scale(0.1 -0.1)">
      <use xlink:href="#DejaVuSans-115"/>
      <use x="52.099609" xlink:href="#DejaVuSans-101"/>
      <use x="113.623047" xlink:href="#DejaVuSans-101"/>
      <use x="175.146484" xlink:href="#DejaVuSans-112"/>
      <use x="238.623047" xlink:href="#DejaVuSans-97"/>
      <use x="299.902344" xlink:href="#DejaVuSans-103"/>
      <use x="363.378906" xlink:href="#DejaVuSans-101"/>
      <use x="424.902344" xlink:href="#DejaVuSans-95"/>
      <use x="474.902344" xlink:href="#DejaVuSans-102"/>
      <use x="510.107422" xlink:href="#DejaVuSans-97"/>
      <use x="571.386719" xlink:href="#DejaVuSans-99"/>
      <use x="626.367188" xlink:href="#DejaVuSans-101"/>
     </g>
    </g>
    <g id="line2d_15">
     <path d="M 335.031392 120.83451 
L 355.031392 120.83451 
" style="fill:none;stroke:#808080;stroke-dasharray:1.5,2.475;stroke-dashoffset:0;stroke-width:1.5;"/>
    </g>
    <g id="line2d_16"/>
    <g id="text_5">
     <!-- river_wall -->
     <defs>
      <path d="M 9.421875 54.6875 
L 18.40625 54.6875 
L 18.40625 0 
L 9.421875 0 
z
M 9.421875 75.984375 
L 18.40625 75.984375 
L 18.40625 64.59375 
L 9.421875 64.59375 
z
" id="DejaVuSans-105"/>
      <path d="M 2.984375 54.6875 
L 12.5 54.6875 
L 29.59375 8.796875 
L 46.6875 54.6875 
L 56.203125 54.6875 
L 35.6875 0 
L 23.484375 0 
z
" id="DejaVuSans-118"/>
      <path d="M 4.203125 54.6875 
L 13.1875 54.6875 
L 24.421875 12.015625 
L 35.59375 54.6875 
L 46.1875 54.6875 
L 57.421875 12.015625 
L 68.609375 54.6875 
L 77.59375 54.6875 
L 63.28125 0 
L 52.6875 0 
L 40.921875 44.828125 
L 29.109375 0 
L 18.5 0 
z
" id="DejaVuSans-119"/>
      <path d="M 9.421875 75.984375 
L 18.40625 75.984375 
L 18.40625 0 
L 9.421875 0 
z
" id="DejaVuSans-108"/>
     </defs>
     <g transform="translate(363.031392 124.33451)scale(0.1 -0.1)">
      <use xlink:href="#DejaVuSans-114"/>
      <use x="41.113281" xlink:href="#DejaVuSans-105"/>
      <use x="68.896484" xlink:href="#DejaVuSans-118"/>
      <use x="128.076172" xlink:href="#DejaVuSans-101"/>
      <use x="189.599609" xlink:href="#DejaVuSans-114"/>
      <use x="230.712891" xlink:href="#DejaVuSans-95"/>
      <use x="280.712891" xlink:href="#DejaVuSans-119"/>
      <use x="362.5" xlink:href="#DejaVuSans-97"/>
      <use x="423.779297" xlink:href="#DejaVuSans-108"/>
      <use x="451.5625" xlink:href="#DejaVuSans-108"/>
     </g>
    </g>
    <g id="line2d_17">
     <path d="M 335.031392 135.79076 
L 355.031392 135.79076 
" style="fill:none;stroke:#808080;stroke-linecap:square;stroke-width:1.5;"/>
    </g>
    <g id="line2d_18"/>
    <g id="text_6">
     <!-- bottom -->
     <defs>
      <path d="M 48.6875 27.296875 
Q 48.6875 37.203125 44.609375 42.84375 
Q 40.53125 48.484375 33.40625 48.484375 
Q 26.265625 48.484375 22.1875 42.84375 
Q 18.109375 37.203125 18.109375 27.296875 
Q 18.109375 17.390625 22.1875 11.75 
Q 26.265625 6.109375 33.40625 6.109375 
Q 40.53125 6.109375 44.609375 11.75 
Q 48.6875 17.390625 48.6875 27.296875 
z
M 18.109375 46.390625 
Q 20.953125 51.265625 25.265625 53.625 
Q 29.59375 56 35.59375 56 
Q 45.5625 56 51.78125 48.09375 
Q 58.015625 40.1875 58.015625 27.296875 
Q 58.015625 14.40625 51.78125 6.484375 
Q 45.5625 -1.421875 35.59375 -1.421875 
Q 29.59375 -1.421875 25.265625 0.953125 
Q 20.953125 3.328125 18.109375 8.203125 
L 18.109375 0 
L 9.078125 0 
L 9.078125 75.984375 
L 18.109375 75.984375 
z
" id="DejaVuSans-98"/>
      <path d="M 30.609375 48.390625 
Q 23.390625 48.390625 19.1875 42.75 
Q 14.984375 37.109375 14.984375 27.296875 
Q 14.984375 17.484375 19.15625 11.84375 
Q 23.34375 6.203125 30.609375 6.203125 
Q 37.796875 6.203125 41.984375 11.859375 
Q 46.1875 17.53125 46.1875 27.296875 
Q 46.1875 37.015625 41.984375 42.703125 
Q 37.796875 48.390625 30.609375 48.390625 
z
M 30.609375 56 
Q 42.328125 56 49.015625 48.375 
Q 55.71875 40.765625 55.71875 27.296875 
Q 55.71875 13.875 49.015625 6.21875 
Q 42.328125 -1.421875 30.609375 -1.421875 
Q 18.84375 -1.421875 12.171875 6.21875 
Q 5.515625 13.875 5.515625 27.296875 
Q 5.515625 40.765625 12.171875 48.375 
Q 18.84375 56 30.609375 56 
z
" id="DejaVuSans-111"/>
      <path d="M 18.3125 70.21875 
L 18.3125 54.6875 
L 36.8125 54.6875 
L 36.8125 47.703125 
L 18.3125 47.703125 
L 18.3125 18.015625 
Q 18.3125 11.328125 20.140625 9.421875 
Q 21.96875 7.515625 27.59375 7.515625 
L 36.8125 7.515625 
L 36.8125 0 
L 27.59375 0 
Q 17.1875 0 13.234375 3.875 
Q 9.28125 7.765625 9.28125 18.015625 
L 9.28125 47.703125 
L 2.6875 47.703125 
L 2.6875 54.6875 
L 9.28125 54.6875 
L 9.28125 70.21875 
z
" id="DejaVuSans-116"/>
      <path d="M 52 44.1875 
Q 55.375 50.25 60.0625 53.125 
Q 64.75 56 71.09375 56 
Q 79.640625 56 84.28125 50.015625 
Q 88.921875 44.046875 88.921875 33.015625 
L 88.921875 0 
L 79.890625 0 
L 79.890625 32.71875 
Q 79.890625 40.578125 77.09375 44.375 
Q 74.3125 48.1875 68.609375 48.1875 
Q 61.625 48.1875 57.5625 43.546875 
Q 53.515625 38.921875 53.515625 30.90625 
L 53.515625 0 
L 44.484375 0 
L 44.484375 32.71875 
Q 44.484375 40.625 41.703125 44.40625 
Q 38.921875 48.1875 33.109375 48.1875 
Q 26.21875 48.1875 22.15625 43.53125 
Q 18.109375 38.875 18.109375 30.90625 
L 18.109375 0 
L 9.078125 0 
L 9.078125 54.6875 
L 18.109375 54.6875 
L 18.109375 46.1875 
Q 21.1875 51.21875 25.484375 53.609375 
Q 29.78125 56 35.6875 56 
Q 41.65625 56 45.828125 52.96875 
Q 50 49.953125 52 44.1875 
z
" id="DejaVuSans-109"/>
     </defs>
     <g transform="translate(363.031392 139.29076)scale(0.1 -0.1)">
      <use xlink:href="#DejaVuSans-98"/>
      <use x="63.476562" xlink:href="#DejaVuSans-111"/>
      <use x="124.658203" xlink:href="#DejaVuSans-116"/>
      <use x="163.867188" xlink:href="#DejaVuSans-116"/>
      <use x="203.076172" xlink:href="#DejaVuSans-111"/>
      <use x="264.257812" xlink:href="#DejaVuSans-109"/>
     </g>
    </g>
    <g id="line2d_19">
     <path d="M 335.031392 150.468885 
L 355.031392 150.468885 
" style="fill:none;stroke:#808080;stroke-dasharray:5.55,2.4;stroke-dashoffset:0;stroke-width:1.5;"/>
    </g>
    <g id="line2d_20"/>
    <g id="text_7">
     <!-- divide -->
     <defs>
      <path d="M 45.40625 46.390625 
L 45.40625 75.984375 
L 54.390625 75.984375 
L 54.390625 0 
L 45.40625 0 
L 45.40625 8.203125 
Q 42.578125 3.328125 38.25 0.953125 
Q 33.9375 -1.421875 27.875 -1.421875 
Q 17.96875 -1.421875 11.734375 6.484375 
Q 5.515625 14.40625 5.515625 27.296875 
Q 5.515625 40.1875 11.734375 48.09375 
Q 17.96875 56 27.875 56 
Q 33.9375 56 38.25 53.625 
Q 42.578125 51.265625 45.40625 46.390625 
z
M 14.796875 27.296875 
Q 14.796875 17.390625 18.875 11.75 
Q 22.953125 6.109375 30.078125 6.109375 
Q 37.203125 6.109375 41.296875 11.75 
Q 45.40625 17.390625 45.40625 27.296875 
Q 45.40625 37.203125 41.296875 42.84375 
Q 37.203125 48.484375 30.078125 48.484375 
Q 22.953125 48.484375 18.875 42.84375 
Q 14.796875 37.203125 14.796875 27.296875 
z
" id="DejaVuSans-100"/>
     </defs>
     <g transform="translate(363.031392 153.968885)scale(0.1 -0.1)">
      <use xlink:href="#DejaVuSans-100"/>
      <use x="63.476562" xlink:href="#DejaVuSans-105"/>
      <use x="91.259766" xlink:href="#DejaVuSans-118"/>
      <use x="150.439453" xlink:href="#DejaVuSans-105"/>
      <use x="178.222656" xlink:href="#DejaVuSans-100"/>
      <use x="241.699219" xlink:href="#DejaVuSans-101"/>
     </g>
    </g>
   </g>
  </g>
 </g>
 <defs>
  <clipPath id="p04966ed1b2">
   <rect height="198.235895" width="202.909091" x="38.482813" y="22.318125"/>
  </clipPath>
  <clipPath id="pf4f0ed9f69">
   <rect height="168.456042" width="202.909091" x="281.973722" y="37.208051"/>
  </clipPath>
 </defs>
</svg>
