<?xml version="1.0" encoding="utf-8" standalone="no"?>
<!DOCTYPE svg PUBLIC "-//W3C//DTD SVG 1.1//EN"
  "http://www.w3.org/Graphics/SVG/1.1/DTD/svg11.dtd">
<!-- Created with matplotlib (https://matplotlib.org/) -->
<svg height="103.68pt" version="1.1" viewBox="0 0 371.52 103.68" width="371.52pt" xmlns="http://www.w3.org/2000/svg" xmlns:xlink="http://www.w3.org/1999/xlink">
 <defs>
  <style type="text/css">
*{stroke-linecap:butt;stroke-linejoin:round;}
  </style>
 </defs>
 <g id="figure_1">
  <g id="patch_1">
   <path d="M 0 103.68 
L 371.52 103.68 
L 371.52 -0 
L 0 -0 
z
" style="fill:#ffffff;"/>
  </g>
  <g id="axes_1">
   <g id="PathCollection_1">
    <path clip-path="url(#pe9db3326d6)" d="M 257.811914 7.2 
L 261.310215 10.120354 
L 263.921586 11.520798 
L 265.296243 12.452787 
L 266.956638 13.153548 
L 269.374727 14.131018 
L 272.710544 15.105305 
L 274.181549 15.325967 
L 277.504894 15.840325 
L 281.22257 15.698834 
L 282.116058 15.649186 
L 285.954559 15.097867 
L 288.981132 14.146052 
L 291.035007 13.445596 
L 292.893123 12.367935 
L 295.532149 11.179805 
L 297.64176 9.68609 
L 299.613875 8.266598 
L 300.623652 7.2 
L 298.848 7.2 
L 292.896 7.2 
L 286.944 7.2 
L 280.992 7.2 
L 275.04 7.2 
L 269.088 7.2 
L 263.136 7.2 
M 70.896348 7.2 
L 71.799087 8.204322 
L 72.75602 8.988941 
L 77.653037 12.007958 
L 78.49107 12.521848 
L 83.634395 14.482472 
L 83.995681 14.634139 
L 84.355213 14.706809 
L 90.348332 15.707332 
L 90.607465 15.735432 
L 91.329786 15.698814 
L 95.383548 15.673977 
L 99.400028 14.913204 
L 100.819721 14.480492 
L 104.290425 13.354401 
L 105.513697 12.752191 
L 107.739768 11.339201 
L 110.124802 10.127444 
L 113.708086 7.2 
L 108.384 7.2 
L 102.432 7.2 
L 96.48 7.2 
L 90.528 7.2 
L 84.576 7.2 
L 78.624 7.2 
L 72.672 7.2 
" style="fill:#48186a;"/>
   </g>
   <g id="PathCollection_2">
    <path clip-path="url(#pe9db3326d6)" d="M 300.623652 7.2 
L 299.613875 8.266598 
L 297.64176 9.68609 
L 295.532149 11.179805 
L 292.893123 12.367935 
L 291.035007 13.445596 
L 288.981132 14.146052 
L 285.954559 15.097867 
L 282.116058 15.649186 
L 281.22257 15.698834 
L 277.504894 15.840325 
L 274.181549 15.325967 
L 272.710544 15.105305 
L 269.374727 14.131018 
L 266.956638 13.153548 
L 265.296243 12.452787 
L 263.921586 11.520798 
L 261.310215 10.120354 
L 257.811914 7.2 
L 257.184 7.2 
L 251.232 7.2 
L 248.175745 7.2 
L 249.698884 10.219526 
L 251.692778 12.640203 
L 253.253055 14.771745 
L 255.267599 16.725745 
L 256.4643 18.145013 
L 258.030684 19.624052 
L 260.886972 21.687758 
L 263.109581 23.316358 
L 267.369243 25.342582 
L 268.00628 25.695732 
L 268.517313 25.870992 
L 272.850117 27.167307 
L 273.687715 27.314945 
L 277.900459 27.869415 
L 279.997859 27.857108 
L 284.109842 27.488685 
L 285.826917 27.141275 
L 289.061797 26.068405 
L 290.480095 25.694186 
L 294.898641 23.509303 
L 294.924812 23.498517 
L 296.180162 22.642348 
L 299.085092 20.670646 
L 299.128987 20.625523 
L 302.653077 17.641747 
L 303.6831 16.28263 
L 306.967518 12.402083 
L 307.202594 12.143565 
L 307.265004 12.079008 
L 310.397204 7.2 
L 304.8 7.2 
M 113.708086 7.2 
L 110.124802 10.127444 
L 107.739768 11.339201 
L 105.513697 12.752191 
L 104.290425 13.354401 
L 100.819721 14.480492 
L 99.400028 14.913204 
L 95.383548 15.673977 
L 91.329786 15.698814 
L 90.607465 15.735432 
L 90.348332 15.707332 
L 84.355213 14.706809 
L 83.995681 14.634139 
L 83.634395 14.482472 
L 78.49107 12.521848 
L 77.653037 12.007958 
L 72.75602 8.988941 
L 71.799087 8.204322 
L 70.896348 7.2 
L 66.72 7.2 
L 61.122796 7.2 
L 63.264255 10.795244 
L 64.203031 11.835044 
L 65.926295 14.376624 
L 68.146058 16.898688 
L 69.163247 17.894818 
L 71.195274 19.452175 
L 73.006168 21.188145 
L 74.937254 22.508525 
L 77.981519 24.180248 
L 79.902773 25.298131 
L 81.724787 25.954078 
L 85.330001 27.045218 
L 87.887615 27.6135 
L 91.941813 27.783071 
L 92.914618 27.892172 
L 93.492246 27.813747 
L 98.078455 27.271452 
L 98.998612 27.17961 
L 101.785856 26.203065 
L 103.744455 25.611493 
L 104.357098 25.318005 
L 105.301851 24.735325 
L 109.165337 22.836781 
L 112.733283 20.146164 
L 112.785314 20.11367 
L 112.821356 20.082638 
L 115.788141 17.542999 
L 117.498858 15.432812 
L 118.677602 14.258312 
L 120.297887 11.997349 
L 121.923148 9.993806 
L 123.344255 7.2 
L 120.288 7.2 
L 114.336 7.2 
" style="fill:#424086;"/>
   </g>
   <g id="PathCollection_3">
    <path clip-path="url(#pe9db3326d6)" d="M 310.397204 7.2 
L 307.265004 12.079008 
L 307.202594 12.143565 
L 306.967518 12.402083 
L 303.6831 16.28263 
L 302.653077 17.641747 
L 299.128987 20.625523 
L 299.085092 20.670646 
L 296.180162 22.642348 
L 294.924812 23.498517 
L 294.898641 23.509303 
L 290.480095 25.694186 
L 289.061797 26.068405 
L 285.826917 27.141275 
L 284.109842 27.488685 
L 279.997859 27.857108 
L 277.900459 27.869415 
L 273.687715 27.314945 
L 272.850117 27.167307 
L 268.517313 25.870992 
L 268.00628 25.695732 
L 267.369243 25.342582 
L 263.109581 23.316358 
L 260.886972 21.687758 
L 258.030684 19.624052 
L 256.4643 18.145013 
L 255.267599 16.725745 
L 253.253055 14.771745 
L 251.692778 12.640203 
L 249.698884 10.219526 
L 248.175745 7.2 
L 245.28 7.2 
L 240.046163 7.2 
L 240.577831 8.831278 
L 241.396947 11.981544 
L 242.023661 14.328916 
L 242.644676 16.060688 
L 243.729112 18.273983 
L 244.460941 20.599315 
L 245.339922 22.867524 
L 246.811099 25.440108 
L 248.040123 28.001932 
L 249.875156 30.625918 
L 250.985818 32.528239 
L 253.949062 36.048719 
L 254.173283 36.374662 
L 254.737074 36.942619 
L 257.339534 39.664365 
L 259.09317 40.932719 
L 260.660067 42.349247 
L 262.589268 43.556137 
L 264.179891 44.564914 
L 267.044135 45.804947 
L 267.972863 46.304861 
L 268.517838 46.50632 
L 271.93822 47.637986 
L 273.826595 48.036311 
L 276.300804 48.387717 
L 278.829138 48.540485 
L 281.128447 48.454711 
L 283.676565 48.222746 
L 286.521521 47.595024 
L 288.332416 47.140647 
L 292.495703 45.390608 
L 292.669003 45.329783 
L 292.736063 45.293633 
L 296.696061 43.17492 
L 300.165864 40.398089 
L 300.273706 40.328954 
L 300.54968 40.060646 
L 304.07426 36.73023 
L 304.875776 35.60547 
L 307.526335 32.537303 
L 308.439734 30.839322 
L 310.05844 28.719605 
L 311.345215 26.004285 
L 312.145134 24.824484 
L 313.84772 20.82128 
L 314.271042 20.131883 
L 315.691733 16.232103 
L 315.904704 15.817644 
L 317.034609 12.188815 
L 318.042833 9.390637 
L 318.452359 7.2 
L 316.704 7.2 
L 310.752 7.2 
M 123.344255 7.2 
L 121.923148 9.993806 
L 120.297887 11.997349 
L 118.677602 14.258312 
L 117.498858 15.432812 
L 115.788141 17.542999 
L 112.821356 20.082638 
L 112.785314 20.11367 
L 112.733283 20.146164 
L 109.165337 22.836781 
L 105.301851 24.735325 
L 104.357098 25.318005 
L 103.744455 25.611493 
L 101.785856 26.203065 
L 98.998612 27.17961 
L 98.078455 27.271452 
L 93.492246 27.813747 
L 92.914618 27.892172 
L 91.941813 27.783071 
L 87.887615 27.6135 
L 85.330001 27.045218 
L 81.724787 25.954078 
L 79.902773 25.298131 
L 77.981519 24.180248 
L 74.937254 22.508525 
L 73.006168 21.188145 
L 71.195274 19.452175 
L 69.163247 17.894818 
L 68.146058 16.898688 
L 65.926295 14.376624 
L 64.203031 11.835044 
L 63.264255 10.795244 
L 61.122796 7.2 
L 60.768 7.2 
L 54.816 7.2 
L 53.067641 7.2 
L 53.374682 9.059629 
L 54.359664 11.853056 
L 55.057033 14.470042 
L 55.883789 16.344639 
L 56.874107 19.445662 
L 57.809364 21.215885 
L 59.756912 25.327874 
L 59.822848 25.501554 
L 59.874842 25.620457 
L 62.481052 30.084061 
L 62.786635 30.71899 
L 65.538031 34.373386 
L 65.714249 34.631018 
L 69.287007 38.526781 
L 70.515619 39.680203 
L 72.8735 41.715293 
L 75.164466 43.020009 
L 77.570166 44.73899 
L 81.496134 46.433408 
L 83.167837 47.084544 
L 86.578591 47.720171 
L 89.136819 48.327831 
L 89.967176 48.391987 
L 95.02489 48.363758 
L 95.816322 48.270459 
L 99.616219 47.457859 
L 100.636662 47.272767 
L 100.808169 47.220889 
L 104.872966 45.788877 
L 106.892591 44.741965 
L 108.584874 43.825721 
L 110.13646 42.630957 
L 111.929741 41.524731 
L 113.675419 39.996953 
L 115.038964 38.826755 
L 115.784685 37.910118 
L 118.082445 35.659286 
L 119.794393 33.216373 
L 121.103617 31.696316 
L 122.862449 28.662561 
L 124.059636 26.94839 
L 125.334108 24.167574 
L 127.14087 20.570825 
L 127.701797 18.959892 
L 129.507342 14.277572 
L 129.73396 13.404476 
L 129.826993 12.829856 
L 130.479476 10.463405 
L 131.473837 7.2 
L 126.24 7.2 
" style="fill:#33638d;"/>
   </g>
   <g id="PathCollection_4">
    <path clip-path="url(#pe9db3326d6)" d="M 318.452359 7.2 
L 318.042833 9.390637 
L 317.034609 12.188815 
L 315.904704 15.817644 
L 315.691733 16.232103 
L 314.271042 20.131883 
L 313.84772 20.82128 
L 312.145134 24.824484 
L 311.345215 26.004285 
L 310.05844 28.719605 
L 308.439734 30.839322 
L 307.526335 32.537303 
L 304.875776 35.60547 
L 304.07426 36.73023 
L 300.54968 40.060646 
L 300.273706 40.328954 
L 300.165864 40.398089 
L 296.696061 43.17492 
L 292.736063 45.293633 
L 292.669003 45.329783 
L 292.495703 45.390608 
L 288.332416 47.140647 
L 286.521521 47.595024 
L 283.676565 48.222746 
L 281.128447 48.454711 
L 278.829138 48.540485 
L 276.300804 48.387717 
L 273.826595 48.036311 
L 271.93822 47.637986 
L 268.517838 46.50632 
L 267.972863 46.304861 
L 267.044135 45.804947 
L 264.179891 44.564914 
L 262.589268 43.556137 
L 260.660067 42.349247 
L 259.09317 40.932719 
L 257.339534 39.664365 
L 254.737074 36.942619 
L 254.173283 36.374662 
L 253.949062 36.048719 
L 250.985818 32.528239 
L 249.875156 30.625918 
L 248.040123 28.001932 
L 246.811099 25.440108 
L 245.339922 22.867524 
L 244.460941 20.599315 
L 243.729112 18.273983 
L 242.644676 16.060688 
L 242.023661 14.328916 
L 241.396947 11.981544 
L 240.577831 8.831278 
L 240.046163 7.2 
L 239.328 7.2 
L 233.376 7.2 
L 232.503386 7.2 
L 232.420052 9.148749 
L 232.519961 11.948558 
L 232.635981 14.200409 
L 232.51315 16.602242 
L 232.363445 19.222142 
L 232.506519 21.391249 
L 232.622005 24.600299 
L 232.501488 26.363688 
L 232.472959 30.595039 
L 232.506524 31.380658 
L 232.545772 31.932594 
L 232.48271 36.262784 
L 232.632064 40.052463 
L 232.491649 41.3111 
L 232.460395 45.25195 
L 232.499959 46.296346 
L 232.56229 46.832149 
L 232.505562 51.01642 
L 232.368001 54.637133 
L 232.517037 55.75252 
L 232.634178 57.974335 
L 232.519498 60.728371 
L 232.422318 64.607526 
L 232.516651 65.931036 
L 232.618364 67.324793 
L 232.52755 71.208591 
L 232.590441 75.800739 
L 232.521799 76.535671 
L 232.426313 77.382474 
L 232.521521 81.964428 
L 232.561066 86.608022 
L 232.522076 86.964202 
L 232.460874 87.25169 
L 232.532363 92.122623 
L 232.407366 92.865585 
L 232.503386 96.48 
L 233.376 96.48 
L 239.328 96.48 
L 245.28 96.48 
L 251.232 96.48 
L 257.184 96.48 
L 263.136 96.48 
L 269.088 96.48 
L 275.04 96.48 
L 280.992 96.48 
L 286.944 96.48 
L 292.896 96.48 
L 298.848 96.48 
L 304.8 96.48 
L 310.752 96.48 
L 316.704 96.48 
L 322.656 96.48 
L 325.999485 96.48 
L 325.905964 92.944168 
L 326.012555 91.955654 
L 325.977362 86.947166 
L 326.005375 86.751869 
L 325.862259 82.471196 
L 326.043894 81.080584 
L 325.849365 77.170623 
L 326.023692 75.320922 
L 325.949064 69.814634 
L 325.99045 69.425681 
L 326.036872 69.107845 
L 325.910197 63.060197 
L 326.133119 60.911371 
L 325.927319 57.270382 
L 325.972544 53.118944 
L 326.00351 52.755823 
L 325.94286 47.948639 
L 326.001126 47.54257 
L 326.040236 47.129494 
L 325.920509 42.675858 
L 326.133546 40.646685 
L 325.922528 37.318289 
L 326.10561 35.805814 
L 325.91294 31.796499 
L 326.092784 30.178713 
L 325.902512 26.891081 
L 326.067734 23.424491 
L 325.997713 22.624105 
L 325.91272 21.665156 
L 325.957611 18.157923 
L 326.088504 14.132321 
L 325.991484 12.908883 
L 325.908118 12.011283 
L 325.999485 7.2 
L 322.656 7.2 
M 131.473837 7.2 
L 130.479476 10.463405 
L 129.826993 12.829856 
L 129.73396 13.404476 
L 129.507342 14.277572 
L 127.701797 18.959892 
L 127.14087 20.570825 
L 125.334108 24.167574 
L 124.059636 26.94839 
L 122.862449 28.662561 
L 121.103617 31.696316 
L 119.794393 33.216373 
L 118.082445 35.659286 
L 115.784685 37.910118 
L 115.038964 38.826755 
L 113.675419 39.996953 
L 111.929741 41.524731 
L 110.13646 42.630957 
L 108.584874 43.825721 
L 106.892591 44.741965 
L 104.872966 45.788877 
L 100.808169 47.220889 
L 100.636662 47.272767 
L 99.616219 47.457859 
L 95.816322 48.270459 
L 95.02489 48.363758 
L 89.967176 48.391987 
L 89.136819 48.327831 
L 86.578591 47.720171 
L 83.167837 47.084544 
L 81.496134 46.433408 
L 77.570166 44.73899 
L 75.164466 43.020009 
L 72.8735 41.715293 
L 70.515619 39.680203 
L 69.287007 38.526781 
L 65.714249 34.631018 
L 65.538031 34.373386 
L 62.786635 30.71899 
L 62.481052 30.084061 
L 59.874842 25.620457 
L 59.822848 25.501554 
L 59.756912 25.327874 
L 57.809364 21.215885 
L 56.874107 19.445662 
L 55.883789 16.344639 
L 55.057033 14.470042 
L 54.359664 11.853056 
L 53.374682 9.059629 
L 53.067641 7.2 
L 48.864 7.2 
L 45.520515 7.2 
L 45.461177 12.869449 
L 45.509023 13.275387 
L 45.581131 13.812837 
L 45.475228 20.492306 
L 45.623851 21.444428 
L 45.540749 24.943318 
L 45.519291 25.700993 
L 45.497934 25.944588 
L 45.569536 30.04816 
L 45.372591 32.901686 
L 45.584711 35.073709 
L 45.34347 39.062876 
L 45.52575 40.601674 
L 45.725035 43.126576 
L 45.528646 46.026322 
L 45.34724 49.297229 
L 45.574132 51.404496 
L 45.516841 55.839023 
L 45.522347 55.879089 
L 45.456446 60.822463 
L 45.545729 66.379228 
L 45.530093 66.762826 
L 45.494111 66.940844 
L 45.520715 72.824226 
L 45.515375 72.855122 
L 45.514489 73.145831 
L 45.502056 78.420504 
L 45.584427 79.731281 
L 45.495557 83.490499 
L 45.722788 87.561653 
L 45.476948 89.657576 
L 45.255664 92.644338 
L 45.520515 96.48 
L 48.864 96.48 
L 54.816 96.48 
L 60.768 96.48 
L 66.72 96.48 
L 72.672 96.48 
L 78.624 96.48 
L 84.576 96.48 
L 90.528 96.48 
L 96.48 96.48 
L 102.432 96.48 
L 108.384 96.48 
L 114.336 96.48 
L 120.288 96.48 
L 126.24 96.48 
L 132.192 96.48 
L 138.144 96.48 
L 139.016614 96.48 
L 139.134588 93.000744 
L 138.936849 91.741988 
L 139.122754 87.600988 
L 138.889425 85.776677 
L 139.170296 81.693997 
L 138.963617 79.690213 
L 138.903221 76.330957 
L 139.020071 74.504916 
L 139.084342 72.381083 
L 139.03347 69.473513 
L 138.917341 68.159658 
L 139.018267 64.60714 
L 138.929113 61.171861 
L 139.009457 60.352004 
L 139.078004 59.156103 
L 139.035629 56.247753 
L 138.882983 54.71725 
L 139.036142 51.701497 
L 138.909692 48.205775 
L 139.026196 46.926101 
L 139.081876 44.540845 
L 139.026997 42.084842 
L 138.930973 41.29074 
L 139.042313 37.435518 
L 138.890995 34.751481 
L 139.023901 33.11914 
L 139.09494 30.739216 
L 139.026467 28.913566 
L 138.919433 28.249588 
L 139.015644 24.409352 
L 138.996804 24.187467 
L 139.008992 19.985694 
L 139.082098 16.429116 
L 139.015524 15.423411 
L 138.954239 14.68687 
L 139.007219 11.188383 
L 139.099386 8.41891 
L 139.016614 7.2 
L 138.144 7.2 
L 132.192 7.2 
" style="fill:#26828e;"/>
   </g>
   <g id="PathCollection_5">
    <path clip-path="url(#pe9db3326d6)" d="M 325.999485 7.2 
L 325.908118 12.011283 
L 325.991484 12.908883 
L 326.088504 14.132321 
L 325.957611 18.157923 
L 325.91272 21.665156 
L 325.997713 22.624105 
L 326.067734 23.424491 
L 325.902512 26.891081 
L 326.092784 30.178713 
L 325.91294 31.796499 
L 326.10561 35.805814 
L 325.922528 37.318289 
L 326.133546 40.646685 
L 325.920509 42.675858 
L 326.040236 47.129494 
L 326.001126 47.54257 
L 325.94286 47.948639 
L 326.00351 52.755823 
L 325.972544 53.118944 
L 325.927319 57.270382 
L 326.133119 60.911371 
L 325.910197 63.060197 
L 326.036872 69.107845 
L 325.99045 69.425681 
L 325.949064 69.814634 
L 326.023692 75.320922 
L 325.849365 77.170623 
L 326.043894 81.080584 
L 325.862259 82.471196 
L 326.005375 86.751869 
L 325.977362 86.947166 
L 326.012555 91.955654 
L 325.905964 92.944168 
L 325.999485 96.48 
L 328.608 96.48 
L 334.56 96.48 
L 340.512 96.48 
L 346.464 96.48 
L 352.416 96.48 
L 358.368 96.48 
L 364.32 96.48 
L 364.32 90.528 
L 364.32 84.576 
L 364.32 78.624 
L 364.32 72.672 
L 364.32 66.72 
L 364.32 60.768 
L 364.32 54.816 
L 364.32 48.864 
L 364.32 47.36246 
L 359.281959 45.237786 
L 358.562733 44.955771 
L 358.392266 44.844276 
L 353.761881 42.087598 
L 352.944369 41.304269 
L 349.53521 38.442614 
L 348.585323 37.432562 
L 347.662749 36.104319 
L 344.797174 32.947131 
L 341.789345 28.151103 
L 341.691116 28.02194 
L 341.600794 27.867291 
L 338.870518 22.988924 
L 338.132656 20.977312 
L 337.396574 18.664771 
L 335.928425 15.5568 
L 335.189487 12.704883 
L 333.761832 8.538403 
L 333.538619 7.2 
L 328.608 7.2 
M 224.948019 7.2 
L 224.07815 10.857767 
L 223.637885 11.875226 
L 222.097117 16.659144 
L 221.979044 16.878503 
L 221.533903 17.850542 
L 219.656934 22.290546 
L 219.377324 23.250221 
L 218.336959 25.39792 
L 216.67511 28.150583 
L 214.516031 31.731892 
L 213.476827 32.969013 
L 211.896346 35.218307 
L 210.69436 36.712018 
L 208.214102 39.039411 
L 206.776343 40.4715 
L 204.709414 41.986848 
L 202.779434 43.441917 
L 200.06914 44.831473 
L 199.16992 45.427861 
L 196.791072 46.334158 
L 195.225304 46.977718 
L 194.128795 47.180017 
L 190.585657 48.187441 
L 187.871023 48.417732 
L 185.877957 48.534216 
L 181.947574 48.274844 
L 180.43682 48.035384 
L 177.325176 47.4565 
L 174.522165 46.290113 
L 174.141886 46.158186 
L 173.734627 45.929039 
L 169.917853 44.144156 
L 168.479211 43.217959 
L 166.380003 41.413391 
L 163.93429 39.712434 
L 160.100898 35.637597 
L 159.643709 35.164033 
L 159.544451 35.019433 
L 159.47837 34.892962 
L 156.078549 30.379865 
L 155.727102 29.597833 
L 153.339606 25.747091 
L 152.960507 24.726662 
L 150.971026 20.68465 
L 150.753139 19.970306 
L 149.922518 17.72521 
L 149.095324 15.730336 
L 147.779149 11.539168 
L 147.595728 11.1316 
L 146.571981 7.2 
L 144.096 7.2 
L 139.016614 7.2 
L 139.099386 8.41891 
L 139.007219 11.188383 
L 138.954239 14.68687 
L 139.015524 15.423411 
L 139.082098 16.429116 
L 139.008992 19.985694 
L 138.996804 24.187467 
L 139.015644 24.409352 
L 138.919433 28.249588 
L 139.026467 28.913566 
L 139.09494 30.739216 
L 139.023901 33.11914 
L 138.890995 34.751481 
L 139.042313 37.435518 
L 138.930973 41.29074 
L 139.026997 42.084842 
L 139.081876 44.540845 
L 139.026196 46.926101 
L 138.909692 48.205775 
L 139.036142 51.701497 
L 138.882983 54.71725 
L 139.035629 56.247753 
L 139.078004 59.156103 
L 139.009457 60.352004 
L 138.929113 61.171861 
L 139.018267 64.60714 
L 138.917341 68.159658 
L 139.03347 69.473513 
L 139.084342 72.381083 
L 139.020071 74.504916 
L 138.903221 76.330957 
L 138.963617 79.690213 
L 139.170296 81.693997 
L 138.889425 85.776677 
L 139.122754 87.600988 
L 138.936849 91.741988 
L 139.134588 93.000744 
L 139.016614 96.48 
L 144.096 96.48 
L 150.048 96.48 
L 156 96.48 
L 161.952 96.48 
L 167.904 96.48 
L 173.856 96.48 
L 179.808 96.48 
L 185.76 96.48 
L 191.712 96.48 
L 197.664 96.48 
L 203.616 96.48 
L 209.568 96.48 
L 215.52 96.48 
L 221.472 96.48 
L 227.424 96.48 
L 232.503386 96.48 
L 232.407366 92.865585 
L 232.532363 92.122623 
L 232.460874 87.25169 
L 232.522076 86.964202 
L 232.561066 86.608022 
L 232.521521 81.964428 
L 232.426313 77.382474 
L 232.521799 76.535671 
L 232.590441 75.800739 
L 232.52755 71.208591 
L 232.618364 67.324793 
L 232.516651 65.931036 
L 232.422318 64.607526 
L 232.519498 60.728371 
L 232.634178 57.974335 
L 232.517037 55.75252 
L 232.368001 54.637133 
L 232.505562 51.01642 
L 232.56229 46.832149 
L 232.499959 46.296346 
L 232.460395 45.25195 
L 232.491649 41.3111 
L 232.632064 40.052463 
L 232.48271 36.262784 
L 232.545772 31.932594 
L 232.506524 31.380658 
L 232.472959 30.595039 
L 232.501488 26.363688 
L 232.622005 24.600299 
L 232.506519 21.391249 
L 232.363445 19.222142 
L 232.51315 16.602242 
L 232.635981 14.200409 
L 232.519961 11.948558 
L 232.420052 9.148749 
L 232.503386 7.2 
L 227.424 7.2 
M 37.981381 7.2 
L 37.134378 10.538206 
L 36.661227 12.274871 
L 36.274115 12.992613 
L 35.297855 15.533916 
L 34.167918 19.053692 
L 33.546502 20.802422 
L 31.807064 24.199016 
L 30.85897 26.487932 
L 28.918858 29.266956 
L 27.632643 31.671689 
L 24.714346 35.296935 
L 24.580863 35.505403 
L 24.435984 35.687914 
L 21.260356 39.048207 
L 18.642072 41.370257 
L 16.947403 42.535032 
L 13.019884 45.133761 
L 10.810558 46.010678 
L 7.2 47.36246 
L 7.2 48.864 
L 7.2 54.816 
L 7.2 60.768 
L 7.2 66.72 
L 7.2 72.672 
L 7.2 78.624 
L 7.2 84.576 
L 7.2 90.528 
L 7.2 96.48 
L 13.152 96.48 
L 19.104 96.48 
L 25.056 96.48 
L 31.008 96.48 
L 36.96 96.48 
L 42.912 96.48 
L 45.520515 96.48 
L 45.255664 92.644338 
L 45.476948 89.657576 
L 45.722788 87.561653 
L 45.495557 83.490499 
L 45.584427 79.731281 
L 45.502056 78.420504 
L 45.514489 73.145831 
L 45.515375 72.855122 
L 45.520715 72.824226 
L 45.494111 66.940844 
L 45.530093 66.762826 
L 45.545729 66.379228 
L 45.456446 60.822463 
L 45.522347 55.879089 
L 45.516841 55.839023 
L 45.574132 51.404496 
L 45.34724 49.297229 
L 45.528646 46.026322 
L 45.725035 43.126576 
L 45.52575 40.601674 
L 45.34347 39.062876 
L 45.584711 35.073709 
L 45.372591 32.901686 
L 45.569536 30.04816 
L 45.497934 25.944588 
L 45.519291 25.700993 
L 45.540749 24.943318 
L 45.623851 21.444428 
L 45.475228 20.492306 
L 45.581131 13.812837 
L 45.509023 13.275387 
L 45.461177 12.869449 
L 45.520515 7.2 
L 42.912 7.2 
" style="fill:#1fa088;"/>
   </g>
   <g id="PathCollection_6">
    <path clip-path="url(#pe9db3326d6)" d="M 333.538619 7.2 
L 333.761832 8.538403 
L 335.189487 12.704883 
L 335.928425 15.5568 
L 337.396574 18.664771 
L 338.132656 20.977312 
L 338.870518 22.988924 
L 341.600794 27.867291 
L 341.691116 28.02194 
L 341.789345 28.151103 
L 344.797174 32.947131 
L 347.662749 36.104319 
L 348.585323 37.432562 
L 349.53521 38.442614 
L 352.944369 41.304269 
L 353.761881 42.087598 
L 358.392266 44.844276 
L 358.562733 44.955771 
L 359.281959 45.237786 
L 364.32 47.36246 
L 364.32 42.912 
L 364.32 36.96 
L 364.32 31.008 
L 364.32 26.735455 
L 362.564253 26.016814 
L 358.37726 24.428731 
L 356.124537 22.980786 
L 352.775779 20.393152 
L 351.820599 19.802164 
L 351.302156 19.390727 
L 348.030147 16.340614 
L 345.825019 13.344907 
L 344.483067 11.947087 
L 341.639651 7.2 
L 340.512 7.2 
L 334.56 7.2 
M 216.868057 7.2 
L 216.336143 8.387979 
L 214.164101 11.517447 
L 212.865514 13.297876 
L 211.595753 14.618042 
L 209.39775 17.31097 
L 207.64453 19.024071 
L 205.618028 20.730567 
L 202.088885 23.187837 
L 201.176136 23.711615 
L 199.353929 24.449408 
L 196.256815 26.04008 
L 193.890999 26.715092 
L 191.173406 27.41315 
L 187.183699 27.808367 
L 185.901964 27.902739 
L 181.124439 27.49639 
L 179.329251 27.127179 
L 175.670758 26.260817 
L 173.337951 25.022347 
L 170.582886 23.940736 
L 167.602116 21.824737 
L 165.921788 20.81167 
L 163.03587 18.143659 
L 160.304561 15.298988 
L 159.255123 14.152259 
L 158.826656 13.418996 
L 155.363441 8.750208 
L 154.651943 7.2 
L 150.048 7.2 
L 146.571981 7.2 
L 147.595728 11.1316 
L 147.779149 11.539168 
L 149.095324 15.730336 
L 149.922518 17.72521 
L 150.753139 19.970306 
L 150.971026 20.68465 
L 152.960507 24.726662 
L 153.339606 25.747091 
L 155.727102 29.597833 
L 156.078549 30.379865 
L 159.47837 34.892962 
L 159.544451 35.019433 
L 159.643709 35.164033 
L 160.100898 35.637597 
L 163.93429 39.712434 
L 166.380003 41.413391 
L 168.479211 43.217959 
L 169.917853 44.144156 
L 173.734627 45.929039 
L 174.141886 46.158186 
L 174.522165 46.290113 
L 177.325176 47.4565 
L 180.43682 48.035384 
L 181.947574 48.274844 
L 185.877957 48.534216 
L 187.871023 48.417732 
L 190.585657 48.187441 
L 194.128795 47.180017 
L 195.225304 46.977718 
L 196.791072 46.334158 
L 199.16992 45.427861 
L 200.06914 44.831473 
L 202.779434 43.441917 
L 204.709414 41.986848 
L 206.776343 40.4715 
L 208.214102 39.039411 
L 210.69436 36.712018 
L 211.896346 35.218307 
L 213.476827 32.969013 
L 214.516031 31.731892 
L 216.67511 28.150583 
L 218.336959 25.39792 
L 219.377324 23.250221 
L 219.656934 22.290546 
L 221.533903 17.850542 
L 221.979044 16.878503 
L 222.097117 16.659144 
L 223.637885 11.875226 
L 224.07815 10.857767 
L 224.948019 7.2 
L 221.472 7.2 
M 29.880349 7.2 
L 26.604758 12.277845 
L 26.504881 12.443734 
L 26.469421 12.496947 
L 22.948189 16.762121 
L 20.181828 19.429201 
L 18.862951 20.332154 
L 15.939168 22.736022 
L 13.552903 24.173519 
L 9.178916 25.90834 
L 7.2 26.735455 
L 7.2 31.008 
L 7.2 36.96 
L 7.2 42.912 
L 7.2 47.36246 
L 10.810558 46.010678 
L 13.019884 45.133761 
L 16.947403 42.535032 
L 18.642072 41.370257 
L 21.260356 39.048207 
L 24.435984 35.687914 
L 24.580863 35.505403 
L 24.714346 35.296935 
L 27.632643 31.671689 
L 28.918858 29.266956 
L 30.85897 26.487932 
L 31.807064 24.199016 
L 33.546502 20.802422 
L 34.167918 19.053692 
L 35.297855 15.533916 
L 36.274115 12.992613 
L 36.661227 12.274871 
L 37.134378 10.538206 
L 37.981381 7.2 
L 36.96 7.2 
L 31.008 7.2 
" style="fill:#3fbc73;"/>
   </g>
   <g id="PathCollection_7">
    <path clip-path="url(#pe9db3326d6)" d="M 341.639651 7.2 
L 344.483067 11.947087 
L 345.825019 13.344907 
L 348.030147 16.340614 
L 351.302156 19.390727 
L 351.820599 19.802164 
L 352.775779 20.393152 
L 356.124537 22.980786 
L 358.37726 24.428731 
L 362.564253 26.016814 
L 364.32 26.735455 
L 364.32 25.056 
L 364.32 19.104 
L 364.32 14.660719 
L 360.687827 13.112393 
L 359.0485 12.537011 
L 358.48496 12.275152 
L 355.707384 10.383722 
L 352.15464 8.086306 
L 351.335821 7.2 
L 346.464 7.2 
M 207.101978 7.2 
L 205.616866 8.657139 
L 203.399334 10.285029 
L 202.073994 11.119312 
L 198.542181 13.016781 
L 196.039952 13.833247 
L 194.001076 14.661401 
L 193.044648 14.917595 
L 190.461937 15.192056 
L 186.795063 15.807142 
L 185.285443 15.786891 
L 180.246384 15.306204 
L 177.838322 14.77966 
L 175.094248 13.876097 
L 170.785941 11.810958 
L 170.690174 11.774438 
L 170.615556 11.728746 
L 166.566023 9.220123 
L 164.418022 7.2 
L 161.952 7.2 
L 156 7.2 
L 154.651943 7.2 
L 155.363441 8.750208 
L 158.826656 13.418996 
L 159.255123 14.152259 
L 160.304561 15.298988 
L 163.03587 18.143659 
L 165.921788 20.81167 
L 167.602116 21.824737 
L 170.582886 23.940736 
L 173.337951 25.022347 
L 175.670758 26.260817 
L 179.329251 27.127179 
L 181.124439 27.49639 
L 185.901964 27.902739 
L 187.183699 27.808367 
L 191.173406 27.41315 
L 193.890999 26.715092 
L 196.256815 26.04008 
L 199.353929 24.449408 
L 201.176136 23.711615 
L 202.088885 23.187837 
L 205.618028 20.730567 
L 207.64453 19.024071 
L 209.39775 17.31097 
L 211.595753 14.618042 
L 212.865514 13.297876 
L 214.164101 11.517447 
L 216.336143 8.387979 
L 216.868057 7.2 
L 215.52 7.2 
L 209.568 7.2 
M 20.184179 7.2 
L 19.576673 7.867079 
L 19.185731 8.257289 
L 15.972826 10.282196 
L 13.068481 12.264823 
L 12.457572 12.548985 
L 10.726737 13.154152 
L 7.2 14.660719 
L 7.2 19.104 
L 7.2 25.056 
L 7.2 26.735455 
L 9.178916 25.90834 
L 13.552903 24.173519 
L 15.939168 22.736022 
L 18.862951 20.332154 
L 20.181828 19.429201 
L 22.948189 16.762121 
L 26.469421 12.496947 
L 26.504881 12.443734 
L 26.604758 12.277845 
L 29.880349 7.2 
L 25.056 7.2 
" style="fill:#84d44b;"/>
   </g>
   <g id="PathCollection_8">
    <path clip-path="url(#pe9db3326d6)" d="M 351.335821 7.2 
L 352.15464 8.086306 
L 355.707384 10.383722 
L 358.48496 12.275152 
L 359.0485 12.537011 
L 360.687827 13.112393 
L 364.32 14.660719 
L 364.32 13.152 
L 364.32 7.2 
L 358.368 7.2 
L 352.416 7.2 
M 185.76 7.2 
L 179.808 7.2 
L 173.856 7.2 
L 167.904 7.2 
L 164.418022 7.2 
L 166.566023 9.220123 
L 170.615556 11.728746 
L 170.690174 11.774438 
L 170.785941 11.810958 
L 175.094248 13.876097 
L 177.838322 14.77966 
L 180.246384 15.306204 
L 185.285443 15.786891 
L 186.795063 15.807142 
L 190.461937 15.192056 
L 193.044648 14.917595 
L 194.001076 14.661401 
L 196.039952 13.833247 
L 198.542181 13.016781 
L 202.073994 11.119312 
L 203.399334 10.285029 
L 205.616866 8.657139 
L 207.101978 7.2 
L 203.616 7.2 
L 197.664 7.2 
L 191.712 7.2 
M 7.2 14.660719 
L 10.726737 13.154152 
L 12.457572 12.548985 
L 13.068481 12.264823 
L 15.972826 10.282196 
L 19.185731 8.257289 
L 19.576673 7.867079 
L 20.184179 7.2 
L 19.104 7.2 
L 13.152 7.2 
L 7.2 7.2 
L 7.2 13.152 
" style="fill:#d8e219;"/>
   </g>
  </g>
 </g>
 <defs>
  <clipPath id="pe9db3326d6">
   <rect height="89.28" width="357.12" x="7.2" y="7.2"/>
  </clipPath>
 </defs>
</svg>
