<?xml version="1.0" encoding="utf-8" standalone="no"?>
<!DOCTYPE svg PUBLIC "-//W3C//DTD SVG 1.1//EN"
  "http://www.w3.org/Graphics/SVG/1.1/DTD/svg11.dtd">
<!-- Created with matplotlib (https://matplotlib.org/) -->
<svg height="177.224007pt" version="1.1" viewBox="0 0 516.6 177.224007" width="516.6pt" xmlns="http://www.w3.org/2000/svg" xmlns:xlink="http://www.w3.org/1999/xlink">
 <defs>
  <style type="text/css">
*{stroke-linecap:butt;stroke-linejoin:round;}
  </style>
 </defs>
 <g id="figure_1">
  <g id="patch_1">
   <path d="M 0 177.224007 
L 516.6 177.224007 
L 516.6 0 
L 0 0 
z
" style="fill:#ffffff;"/>
  </g>
  <g id="axes_1">
   <g id="PathCollection_1">
    <path clip-path="url(#pe3c051ba9c)" d="M 30.880675 170.024007 
L 28.071616 169.930896 
L 27.976101 169.934569 
L 14.156647 170.024007 
L 28.001419 170.024007 
M 57.621718 170.024007 
L 56.320041 169.171508 
L 54.909792 168.670136 
L 45.284908 170.024007 
L 55.493768 170.024007 
M 86.26277 170.024007 
L 77.653681 168.557405 
L 76.407551 169.023749 
L 74.890967 170.024007 
L 77.127982 170.024007 
M 111.500169 170.024007 
L 100.664129 169.924377 
L 100.552845 169.920826 
L 98.240539 170.024007 
L 100.644649 170.024007 
M 146.352954 170.024007 
L 130.617451 170.018817 
L 127.54108 170.024007 
L 130.618161 170.024007 
" style="fill:#48186a;"/>
   </g>
   <g id="PathCollection_2">
    <path clip-path="url(#pe3c051ba9c)" d="M 14.156647 170.024007 
L 27.976101 169.934569 
L 28.071616 169.930896 
L 30.880675 170.024007 
L 42.753397 170.024007 
L 45.284908 170.024007 
L 54.909792 168.670136 
L 56.320041 169.171508 
L 57.621718 170.024007 
L 66.282353 170.024007 
L 74.890967 170.024007 
L 76.407551 169.023749 
L 77.653681 168.557405 
L 86.26277 170.024007 
L 88.655791 170.024007 
L 98.240539 170.024007 
L 100.552845 169.920826 
L 100.664129 169.924377 
L 111.500169 170.024007 
L 114.133741 170.024007 
L 127.54108 170.024007 
L 130.617451 170.018817 
L 146.352954 170.024007 
L 154.905882 170.024007 
L 154.905882 146.040856 
L 154.905882 144.909262 
L 144.491159 144.776423 
L 140.017971 144.733707 
L 139.209037 144.722087 
L 122.305761 144.058312 
L 118.191796 143.898367 
L 110.035728 143.169345 
L 104.962807 142.706038 
L 98.833211 141.805123 
L 94.175069 141.256245 
L 91.111468 140.539022 
L 84.365951 139.146421 
L 80.431028 137.877471 
L 75.855731 136.135152 
L 71.615181 134.704654 
L 68.420829 131.512757 
L 66.282353 131.073405 
L 63.643218 132.015004 
L 62.992518 132.152721 
L 62.534422 133.276035 
L 60.036867 134.258032 
L 55.122786 136.563978 
L 52.588986 137.164236 
L 45.123471 139.183529 
L 42.671003 139.618593 
L 35.440847 140.663699 
L 31.472773 141.047769 
L 26.223998 141.473789 
L 19.782674 141.881752 
L 13.291913 141.968185 
L 7.2 142.128744 
L 7.2 148.72541 
L 7.2 170.024007 
M 66.282353 140.913033 
L 65.977065 140.627889 
L 66.282353 140.702788 
L 66.678626 140.676256 
" style="fill:#424086;"/>
   </g>
   <g id="PathCollection_3">
    <path clip-path="url(#pe3c051ba9c)" d="M 7.2 142.128744 
L 13.291913 141.968185 
L 19.782674 141.881752 
L 26.223998 141.473789 
L 31.472773 141.047769 
L 35.440847 140.663699 
L 42.671003 139.618593 
L 45.123471 139.183529 
L 52.588986 137.164236 
L 55.122786 136.563978 
L 60.036867 134.258032 
L 62.534422 133.276035 
L 62.992518 132.152721 
L 63.643218 132.015004 
L 66.282353 131.073405 
L 68.420829 131.512757 
L 71.615181 134.704654 
L 75.855731 136.135152 
L 80.431028 137.877471 
L 84.365951 139.146421 
L 91.111468 140.539022 
L 94.175069 141.256245 
L 98.833211 141.805123 
L 104.962807 142.706038 
L 110.035728 143.169345 
L 118.191796 143.898367 
L 122.305761 144.058312 
L 139.209037 144.722087 
L 140.017971 144.733707 
L 144.491159 144.776423 
L 154.905882 144.909262 
L 154.905882 128.816873 
L 154.905882 120.740833 
L 146.053148 120.56423 
L 142.612531 120.497056 
L 130.82806 119.966863 
L 129.612493 119.891369 
L 119.399884 119.08123 
L 117.297237 118.865542 
L 109.679724 117.987878 
L 105.385882 117.358199 
L 99.369995 116.387635 
L 94.989352 115.567068 
L 88.570902 114.236812 
L 86.024509 113.643027 
L 81.157631 112.468314 
L 78.851285 111.795127 
L 75.172912 110.856732 
L 72.182432 110.27658 
L 69.621875 109.557154 
L 67.328291 109.163833 
L 66.282353 109.058326 
L 63.926672 109.402786 
L 63.20918 109.448408 
L 58.099175 110.457197 
L 57.469202 110.537298 
L 56.767813 110.661668 
L 49.326637 112.207836 
L 48.059609 112.444146 
L 39.405772 113.914032 
L 38.912739 113.987992 
L 34.762653 114.501834 
L 29.318649 115.197646 
L 28.792248 115.2624 
L 27.928787 115.326022 
L 19.807848 115.984182 
L 16.458499 116.219001 
L 12.974336 116.271413 
L 7.2 116.392606 
L 7.2 122.733901 
L 7.2 133.971217 
M 66.678626 140.676256 
L 66.282353 140.702788 
L 65.977065 140.627889 
L 66.282353 140.913033 
" style="fill:#33638d;"/>
   </g>
   <g id="PathCollection_4">
    <path clip-path="url(#pe3c051ba9c)" d="M 7.2 116.392606 
L 12.974336 116.271413 
L 16.458499 116.219001 
L 19.807848 115.984182 
L 27.928787 115.326022 
L 28.792248 115.2624 
L 29.318649 115.197646 
L 34.762653 114.501834 
L 38.912739 113.987992 
L 39.405772 113.914032 
L 48.059609 112.444146 
L 49.326637 112.207836 
L 56.767813 110.661668 
L 57.469202 110.537298 
L 58.099175 110.457197 
L 63.20918 109.448408 
L 63.926672 109.402786 
L 66.282353 109.058326 
L 67.328291 109.163833 
L 69.621875 109.557154 
L 72.182432 110.27658 
L 75.172912 110.856732 
L 78.851285 111.795127 
L 81.157631 112.468314 
L 86.024509 113.643027 
L 88.570902 114.236812 
L 94.989352 115.567068 
L 99.369995 116.387635 
L 105.385882 117.358199 
L 109.679724 117.987878 
L 117.297237 118.865542 
L 119.399884 119.08123 
L 129.612493 119.891369 
L 130.82806 119.966863 
L 142.612531 120.497056 
L 146.053148 120.56423 
L 154.905882 120.740833 
L 154.905882 114.869892 
L 154.905882 101.873252 
L 154.905882 97.830077 
L 149.295602 97.717312 
L 143.023457 97.640861 
L 133.209554 97.154214 
L 129.5895 96.972076 
L 123.146695 96.367592 
L 117.174774 95.849559 
L 115.352143 95.614157 
L 106.994258 94.477657 
L 106.259237 94.384621 
L 106.118777 94.360723 
L 98.697046 93.094182 
L 96.447731 92.650959 
L 90.537772 91.279187 
L 90.266657 91.220141 
L 90.092731 91.172189 
L 85.314088 89.903844 
L 83.345739 89.208091 
L 81.169447 88.48516 
L 79.063188 87.539808 
L 78.399842 87.288438 
L 77.806998 86.984099 
L 75.694824 85.953578 
L 73.636647 84.456242 
L 73.416301 84.329335 
L 73.279114 84.240058 
L 71.379184 82.767943 
L 69.99192 81.572348 
L 69.858963 81.493771 
L 69.743846 81.428609 
L 68.530521 80.517632 
L 67.189262 79.877981 
L 67.107463 79.839514 
L 67.067566 79.836453 
L 65.727235 79.895183 
L 65.17606 79.911322 
L 65.152142 79.934189 
L 63.592194 80.745637 
L 62.48163 81.46314 
L 61.599051 82.342783 
L 60.661665 82.92793 
L 58.571089 84.420758 
L 58.295572 84.646905 
L 58.151048 84.758141 
L 54.756182 86.484827 
L 54.164217 86.777329 
L 49.735399 88.324897 
L 49.516032 88.393675 
L 48.399169 88.674462 
L 44.146013 89.788097 
L 42.407003 90.117753 
L 38.352464 90.934571 
L 35.052444 91.394108 
L 32.031006 91.855511 
L 30.448883 92.010226 
L 24.689671 92.648522 
L 22.431154 92.786324 
L 15.164801 93.166723 
L 14.664088 93.199862 
L 13.477374 93.218571 
L 7.2 93.353624 
L 7.2 94.51676 
L 7.2 103.513082 
L 7.2 112.842481 
" style="fill:#26828e;"/>
   </g>
   <g id="PathCollection_5">
    <path clip-path="url(#pe3c051ba9c)" d="M 7.2 93.353624 
L 13.477374 93.218571 
L 14.664088 93.199862 
L 15.164801 93.166723 
L 22.431154 92.786324 
L 24.689671 92.648522 
L 30.448883 92.010226 
L 32.031006 91.855511 
L 35.052444 91.394108 
L 38.352464 90.934571 
L 42.407003 90.117753 
L 44.146013 89.788097 
L 48.399169 88.674462 
L 49.516032 88.393675 
L 49.735399 88.324897 
L 54.164217 86.777329 
L 54.756182 86.484827 
L 58.151048 84.758141 
L 58.295572 84.646905 
L 58.571089 84.420758 
L 60.661665 82.92793 
L 61.599051 82.342783 
L 62.48163 81.46314 
L 63.592194 80.745637 
L 65.152142 79.934189 
L 65.17606 79.911322 
L 65.727235 79.895183 
L 67.067566 79.836453 
L 67.107463 79.839514 
L 67.189262 79.877981 
L 68.530521 80.517632 
L 69.743846 81.428609 
L 69.858963 81.493771 
L 69.99192 81.572348 
L 71.379184 82.767943 
L 73.279114 84.240058 
L 73.416301 84.329335 
L 73.636647 84.456242 
L 75.694824 85.953578 
L 77.806998 86.984099 
L 78.399842 87.288438 
L 79.063188 87.539808 
L 81.169447 88.48516 
L 83.345739 89.208091 
L 85.314088 89.903844 
L 90.092731 91.172189 
L 90.266657 91.220141 
L 90.537772 91.279187 
L 96.447731 92.650959 
L 98.697046 93.094182 
L 106.118777 94.360723 
L 106.259237 94.384621 
L 106.994258 94.477657 
L 115.352143 95.614157 
L 117.174774 95.849559 
L 123.146695 96.367592 
L 129.5895 96.972076 
L 133.209554 97.154214 
L 143.023457 97.640861 
L 149.295602 97.717312 
L 154.905882 97.830077 
L 154.905882 89.019295 
L 154.905882 76.178811 
L 153.41816 76.153243 
L 142.945056 76.055169 
L 138.633054 75.891145 
L 130.995191 75.578867 
L 124.280764 75.130387 
L 119.482745 74.784157 
L 110.274125 73.852839 
L 109.321578 73.76999 
L 108.890464 73.722568 
L 100.259109 72.650492 
L 96.121436 72.074949 
L 92.100648 71.399076 
L 87.253723 70.613302 
L 86.574179 70.475421 
L 83.882242 69.997975 
L 81.697272 69.614181 
L 81.22728 69.557397 
L 76.725913 68.779045 
L 75.338561 68.637349 
L 71.241792 68.141489 
L 70.650993 68.102921 
L 66.581207 67.891748 
L 65.662739 67.88297 
L 61.760282 68.002987 
L 60.975407 68.038426 
L 57.228075 68.399828 
L 55.708419 68.520192 
L 51.808792 69.085314 
L 50.948597 69.170914 
L 47.180134 69.717969 
L 43.722286 70.13149 
L 42.431438 70.336706 
L 40.683071 70.557844 
L 37.038963 70.968912 
L 31.116937 71.533486 
L 30.549273 71.581197 
L 29.06259 71.661696 
L 21.826815 72.172839 
L 18.9893 72.354805 
L 13.581534 72.460904 
L 7.2 72.607506 
L 7.2 76.39768 
L 7.2 85.573612 
" style="fill:#1fa088;"/>
   </g>
   <g id="PathCollection_6">
    <path clip-path="url(#pe3c051ba9c)" d="M 7.2 72.607506 
L 13.581534 72.460904 
L 18.9893 72.354805 
L 21.826815 72.172839 
L 29.06259 71.661696 
L 30.549273 71.581197 
L 31.116937 71.533486 
L 37.038963 70.968912 
L 40.683071 70.557844 
L 42.431438 70.336706 
L 43.722286 70.13149 
L 47.180134 69.717969 
L 50.948597 69.170914 
L 51.808792 69.085314 
L 55.708419 68.520192 
L 57.228075 68.399828 
L 60.975407 68.038426 
L 61.760282 68.002987 
L 65.662739 67.88297 
L 66.581207 67.891748 
L 70.650993 68.102921 
L 71.241792 68.141489 
L 75.338561 68.637349 
L 76.725913 68.779045 
L 81.22728 69.557397 
L 81.697272 69.614181 
L 83.882242 69.997975 
L 86.574179 70.475421 
L 87.253723 70.613302 
L 92.100648 71.399076 
L 96.121436 72.074949 
L 100.259109 72.650492 
L 108.890464 73.722568 
L 109.321578 73.76999 
L 110.274125 73.852839 
L 119.482745 74.784157 
L 124.280764 75.130387 
L 130.995191 75.578867 
L 138.633054 75.891145 
L 142.945056 76.055169 
L 153.41816 76.153243 
L 154.905882 76.178811 
L 154.905882 75.6624 
L 154.905882 61.234194 
L 154.905882 55.591319 
L 146.348128 55.492346 
L 143.391632 55.475689 
L 137.916497 55.315566 
L 131.736867 55.186197 
L 129.05571 55.09586 
L 120.411973 54.729068 
L 113.042107 54.338121 
L 109.272982 54.099342 
L 104.707269 53.742852 
L 99.536878 53.457239 
L 93.886927 53.040257 
L 91.688368 52.870453 
L 90.723191 52.779121 
L 84.213769 52.406066 
L 81.425679 52.181169 
L 79.486865 52.036193 
L 74.45558 51.852238 
L 70.102113 51.721792 
L 62.682747 51.649676 
L 57.275036 51.725707 
L 52.700121 51.811845 
L 50.612774 51.931 
L 40.460281 52.32009 
L 39.53957 52.379157 
L 38.357328 52.44927 
L 28.163422 52.860061 
L 20.44523 53.091711 
L 15.330817 53.167845 
L 7.2 53.247216 
L 7.2 55.184604 
L 7.2 66.485876 
" style="fill:#3fbc73;"/>
   </g>
   <g id="PathCollection_7">
    <path clip-path="url(#pe3c051ba9c)" d="M 7.2 53.247216 
L 15.330817 53.167845 
L 20.44523 53.091711 
L 28.163422 52.860061 
L 38.357328 52.44927 
L 39.53957 52.379157 
L 40.460281 52.32009 
L 50.612774 51.931 
L 52.700121 51.811845 
L 57.275036 51.725707 
L 62.682747 51.649676 
L 70.102113 51.721792 
L 74.45558 51.852238 
L 79.486865 52.036193 
L 81.425679 52.181169 
L 84.213769 52.406066 
L 90.723191 52.779121 
L 91.688368 52.870453 
L 93.886927 53.040257 
L 99.536878 53.457239 
L 104.707269 53.742852 
L 109.272982 54.099342 
L 113.042107 54.338121 
L 120.411973 54.729068 
L 129.05571 55.09586 
L 131.736867 55.186197 
L 137.916497 55.315566 
L 143.391632 55.475689 
L 146.348128 55.492346 
L 154.905882 55.591319 
L 154.905882 44.270026 
L 154.905882 35.55304 
L 143.69057 35.492363 
L 143.059252 35.491208 
L 142.399306 35.47872 
L 132.721353 35.406983 
L 123.581931 35.268177 
L 122.150448 35.234172 
L 119.484705 35.162945 
L 111.65416 34.996898 
L 108.609887 34.996897 
L 104.721268 34.897106 
L 99.985842 34.742184 
L 90.505654 34.520079 
L 87.205412 34.453629 
L 86.342412 34.453629 
L 73.93996 34.228282 
L 72.002136 34.228282 
L 57.679988 34.174756 
L 54.692594 34.174757 
L 40.8796 34.34299 
L 37.15829 34.342991 
L 20.450035 34.543689 
L 20.165126 34.547625 
L 20.02256 34.548935 
L 7.2 34.627826 
L 7.2 41.069978 
" style="fill:#84d44b;"/>
   </g>
   <g id="PathCollection_8">
    <path clip-path="url(#pe3c051ba9c)" d="M 7.2 34.627826 
L 20.02256 34.548935 
L 20.165126 34.547625 
L 20.450035 34.543689 
L 37.15829 34.342991 
L 40.8796 34.34299 
L 54.692594 34.174757 
L 57.679988 34.174756 
L 72.002136 34.228282 
L 73.93996 34.228282 
L 86.342412 34.453629 
L 87.205412 34.453629 
L 90.505654 34.520079 
L 99.985842 34.742184 
L 104.721268 34.897106 
L 108.609887 34.996897 
L 111.65416 34.996898 
L 119.484705 35.162945 
L 122.150448 35.234172 
L 123.581931 35.268177 
L 132.721353 35.406983 
L 142.399306 35.47872 
L 143.059252 35.491208 
L 143.69057 35.492363 
L 154.905882 35.55304 
L 154.905882 22.318125 
L 133.257517 22.318125 
L 116.883286 22.318125 
L 103.064515 22.318125 
L 90.003297 22.318125 
L 76.442745 22.318125 
L 61.255922 22.318125 
L 44.747869 22.318125 
L 27.460668 22.318125 
L 7.2 22.318125 
" style="fill:#d8e219;"/>
   </g>
   <g id="line2d_1">
    <path d="M 154.905882 22.318125 
L 133.257517 22.318125 
L 116.883286 22.318125 
L 103.064515 22.318125 
L 90.003297 22.318125 
L 76.442745 22.318125 
L 61.255922 22.318125 
L 44.747869 22.318125 
L 27.460668 22.318125 
L 7.2 22.318125 
" style="fill:none;stroke:#1f77b4;stroke-linecap:square;stroke-width:1.5;"/>
   </g>
   <g id="line2d_2">
    <path d="M 66.282353 170.024007 
L 66.282353 161.504022 
L 66.282353 155.169522 
L 66.282353 149.915772 
L 66.282353 145.176628 
L 66.282353 140.799217 
L 66.282353 136.687676 
L 66.282353 132.80242 
L 66.282353 129.061917 
L 66.282353 125.325844 
L 66.282353 121.618722 
L 66.282353 118.22769 
L 66.282353 115.182881 
L 66.282353 112.4614 
L 66.282353 109.837701 
L 66.282353 107.214001 
L 66.282353 104.590154 
L 66.282353 101.967636 
L 66.282353 99.419119 
L 66.282353 97.017421 
L 66.282353 94.756487 
L 66.282353 92.631295 
L 66.282353 90.619984 
L 66.282353 88.662438 
L 66.282353 86.757475 
L 66.282353 84.929467 
L 66.282353 83.135136 
L 66.282353 81.400478 
" style="fill:none;stroke:#ff7f0e;stroke-linecap:square;stroke-width:1.5;"/>
   </g>
   <g id="line2d_3">
    <path d="M 7.2 170.024007 
L 28.001419 170.024007 
L 42.753397 170.024007 
L 55.493768 170.024007 
L 66.282353 170.024007 
L 77.127982 170.024007 
L 88.655791 170.024007 
L 100.644649 170.024007 
L 114.133741 170.024007 
L 130.618161 170.024007 
L 154.905882 170.024007 
" style="fill:none;stroke:#2ca02c;stroke-linecap:square;stroke-width:1.5;"/>
   </g>
   <g id="line2d_4">
    <path d="M 154.905882 170.024007 
L 154.905882 146.040856 
L 154.905882 128.816873 
L 154.905882 114.869892 
L 154.905882 101.873252 
L 154.905882 89.019295 
L 154.905882 75.6624 
L 154.905882 61.234194 
L 154.905882 44.270026 
L 154.905882 22.318125 
M 7.2 22.318125 
L 7.2 41.069978 
L 7.2 55.184604 
L 7.2 66.485876 
L 7.2 76.39768 
L 7.2 85.573612 
L 7.2 94.51676 
L 7.2 103.513082 
L 7.2 112.842481 
L 7.2 122.733901 
L 7.2 133.971217 
L 7.2 148.72541 
L 7.2 170.024007 
" style="fill:none;stroke:#d62728;stroke-linecap:square;stroke-width:1.5;"/>
   </g>
   <g id="text_1">
    <!-- $\kappa=$0.1 -->
    <defs>
     <path d="M 14.65625 54.6875 
L 23.921875 54.6875 
L 19.484375 31.984375 
L 47.515625 54.6875 
L 58.453125 54.6875 
L 32.90625 34.078125 
L 51.171875 0 
L 40.1875 0 
L 25.4375 28.21875 
L 17.53125 21.921875 
L 13.28125 0 
L 4 0 
z
" id="DejaVuSans-Oblique-954"/>
     <path d="M 10.59375 45.40625 
L 73.1875 45.40625 
L 73.1875 37.203125 
L 10.59375 37.203125 
z
M 10.59375 25.484375 
L 73.1875 25.484375 
L 73.1875 17.1875 
L 10.59375 17.1875 
z
" id="DejaVuSans-61"/>
     <path d="M 31.78125 66.40625 
Q 24.171875 66.40625 20.328125 58.90625 
Q 16.5 51.421875 16.5 36.375 
Q 16.5 21.390625 20.328125 13.890625 
Q 24.171875 6.390625 31.78125 6.390625 
Q 39.453125 6.390625 43.28125 13.890625 
Q 47.125 21.390625 47.125 36.375 
Q 47.125 51.421875 43.28125 58.90625 
Q 39.453125 66.40625 31.78125 66.40625 
z
M 31.78125 74.21875 
Q 44.046875 74.21875 50.515625 64.515625 
Q 56.984375 54.828125 56.984375 36.375 
Q 56.984375 17.96875 50.515625 8.265625 
Q 44.046875 -1.421875 31.78125 -1.421875 
Q 19.53125 -1.421875 13.0625 8.265625 
Q 6.59375 17.96875 6.59375 36.375 
Q 6.59375 54.828125 13.0625 64.515625 
Q 19.53125 74.21875 31.78125 74.21875 
z
" id="DejaVuSans-48"/>
     <path d="M 10.6875 12.40625 
L 21 12.40625 
L 21 0 
L 10.6875 0 
z
" id="DejaVuSans-46"/>
     <path d="M 12.40625 8.296875 
L 28.515625 8.296875 
L 28.515625 63.921875 
L 10.984375 60.40625 
L 10.984375 69.390625 
L 28.421875 72.90625 
L 38.28125 72.90625 
L 38.28125 8.296875 
L 54.390625 8.296875 
L 54.390625 0 
L 12.40625 0 
z
" id="DejaVuSans-49"/>
    </defs>
    <g transform="translate(60.592941 16.318125)scale(0.12 -0.12)">
     <use transform="translate(0 0.78125)" xlink:href="#DejaVuSans-Oblique-954"/>
     <use transform="translate(78.417969 0.78125)" xlink:href="#DejaVuSans-61"/>
     <use transform="translate(181.689453 0.78125)" xlink:href="#DejaVuSans-48"/>
     <use transform="translate(245.3125 0.78125)" xlink:href="#DejaVuSans-46"/>
     <use transform="translate(277.099609 0.78125)" xlink:href="#DejaVuSans-49"/>
    </g>
   </g>
  </g>
  <g id="axes_2">
   <g id="PathCollection_9">
    <path clip-path="url(#p7389ed98f8)" d="M 208.113978 170.024007 
L 205.266302 170.000366 
L 205.242228 170.001929 
L 191.474381 170.024007 
L 205.248478 170.024007 
M 234.86817 170.024007 
L 233.044369 169.710831 
L 232.571423 169.631269 
L 222.534723 170.024007 
L 232.740826 170.024007 
M 263.50726 170.024007 
L 254.518539 169.623674 
L 254.127827 169.680771 
L 252.138647 170.024007 
L 254.375041 170.024007 
M 288.690724 170.024007 
L 277.896205 170.001011 
L 277.869376 169.998908 
L 275.498785 170.024007 
L 277.891708 170.024007 
M 321.893718 170.024007 
L 307.865083 170.023007 
L 305.101737 170.024007 
L 307.86522 170.024007 
" style="fill:#48186a;"/>
   </g>
   <g id="PathCollection_10">
    <path clip-path="url(#p7389ed98f8)" d="M 191.474381 170.024007 
L 205.242228 170.001929 
L 205.266302 170.000366 
L 208.113978 170.024007 
L 220.000456 170.024007 
L 222.534723 170.024007 
L 232.571423 169.631269 
L 233.044369 169.710831 
L 234.86817 170.024007 
L 243.529412 170.024007 
L 252.138647 170.024007 
L 254.127827 169.680771 
L 254.518539 169.623674 
L 263.50726 170.024007 
L 265.90285 170.024007 
L 275.498785 170.024007 
L 277.869376 169.998908 
L 277.896205 170.001011 
L 288.690724 170.024007 
L 291.3808 170.024007 
L 305.101737 170.024007 
L 307.865083 170.023007 
L 321.893718 170.024007 
L 332.152941 170.024007 
L 332.152941 146.040856 
L 332.152941 140.983521 
L 320.429405 140.673654 
L 315.882011 140.437051 
L 298.523094 138.736568 
L 297.328466 138.582911 
L 296.412822 138.380719 
L 290.848438 137.20005 
L 282.67107 135.612454 
L 280.794455 135.109618 
L 272.375395 132.335249 
L 268.644395 130.676329 
L 264.58799 128.858732 
L 255.687761 123.035239 
L 255.359375 122.81768 
L 254.89415 122.355688 
L 248.79326 115.903167 
L 246.94958 113.546947 
L 246.049825 112.236392 
L 245.733495 111.862693 
L 244.510713 110.420138 
L 243.853089 109.629165 
L 243.529412 109.212248 
L 242.928169 109.867221 
L 241.787829 111.014223 
L 239.668078 113.445305 
L 239.306941 113.832925 
L 236.942918 116.121078 
L 234.201887 118.848763 
L 233.91274 119.228903 
L 233.569456 119.422496 
L 227.1325 123.799159 
L 224.318021 125.150399 
L 219.741212 127.304377 
L 214.468134 129.014186 
L 210.785032 130.015715 
L 204.825455 131.383875 
L 199.513186 131.976183 
L 194.699123 132.690992 
L 185.431724 132.974909 
L 184.447059 133.034705 
L 184.447059 133.971217 
L 184.447059 148.72541 
L 184.447059 170.024007 
" style="fill:#424086;"/>
   </g>
   <g id="PathCollection_11">
    <path clip-path="url(#p7389ed98f8)" d="M 184.447059 133.034705 
L 185.431724 132.974909 
L 194.699123 132.690992 
L 199.513186 131.976183 
L 204.825455 131.383875 
L 210.785032 130.015715 
L 214.468134 129.014186 
L 219.741212 127.304377 
L 224.318021 125.150399 
L 227.1325 123.799159 
L 233.569456 119.422496 
L 233.91274 119.228903 
L 234.201887 118.848763 
L 236.942918 116.121078 
L 239.306941 113.832925 
L 239.668078 113.445305 
L 241.787829 111.014223 
L 242.928169 109.867221 
L 243.529412 109.212248 
L 243.853089 109.629165 
L 244.510713 110.420138 
L 245.733495 111.862693 
L 246.049825 112.236392 
L 246.94958 113.546947 
L 248.79326 115.903167 
L 254.89415 122.355688 
L 255.359375 122.81768 
L 255.687761 123.035239 
L 264.58799 128.858732 
L 268.644395 130.676329 
L 272.375395 132.335249 
L 280.794455 135.109618 
L 282.67107 135.612454 
L 290.848438 137.20005 
L 296.412822 138.380719 
L 297.328466 138.582911 
L 298.523094 138.736568 
L 315.882011 140.437051 
L 320.429405 140.673654 
L 332.152941 140.983521 
L 332.152941 128.816873 
L 332.152941 114.869892 
L 332.152941 114.438817 
L 331.750516 114.423867 
L 321.446085 114.206305 
L 317.502172 113.794474 
L 311.259576 113.229348 
L 304.027086 112.120566 
L 300.791857 111.533186 
L 295.348346 110.413788 
L 290.727324 109.104177 
L 285.411266 107.446628 
L 282.068368 106.154044 
L 276.032431 103.562786 
L 274.674865 102.800369 
L 269.777824 99.906779 
L 267.127031 98.439714 
L 266.471121 98.079381 
L 265.495988 97.359878 
L 260.931312 93.985853 
L 258.623123 91.718369 
L 257.061528 90.477727 
L 255.804897 89.21827 
L 254.569703 87.803137 
L 252.854478 86.138929 
L 251.565086 84.498044 
L 250.881259 83.868745 
L 250.000838 83.008078 
L 249.031657 81.933063 
L 248.626838 81.438349 
L 247.352185 80.455074 
L 246.351203 79.726021 
L 245.973702 79.579495 
L 244.835492 78.938646 
L 243.822816 78.846663 
L 243.064815 78.884822 
L 242.081591 78.962351 
L 240.928748 79.483195 
L 240.370496 79.838484 
L 239.216325 80.769431 
L 238.691239 81.076603 
L 238.273663 81.399442 
L 237.082026 82.454806 
L 235.465399 84.156697 
L 235.161782 84.386102 
L 234.556903 84.906131 
L 232.602164 86.760596 
L 231.470277 87.988386 
L 229.181974 89.767942 
L 226.743294 91.723345 
L 225.752433 92.326208 
L 222.482191 94.531635 
L 220.579872 95.464022 
L 217.749866 97.096134 
L 215.067937 98.30551 
L 212.249023 99.452916 
L 205.184011 101.641811 
L 203.232096 102.144752 
L 198.592141 102.853818 
L 193.695805 103.789905 
L 185.189533 104.194182 
L 184.447059 104.234363 
L 184.447059 112.842481 
L 184.447059 122.733901 
" style="fill:#33638d;"/>
   </g>
   <g id="PathCollection_12">
    <path clip-path="url(#p7389ed98f8)" d="M 184.447059 104.234363 
L 185.189533 104.194182 
L 193.695805 103.789905 
L 198.592141 102.853818 
L 203.232096 102.144752 
L 205.184011 101.641811 
L 212.249023 99.452916 
L 215.067937 98.30551 
L 217.749866 97.096134 
L 220.579872 95.464022 
L 222.482191 94.531635 
L 225.752433 92.326208 
L 226.743294 91.723345 
L 229.181974 89.767942 
L 231.470277 87.988386 
L 232.602164 86.760596 
L 234.556903 84.906131 
L 235.161782 84.386102 
L 235.465399 84.156697 
L 237.082026 82.454806 
L 238.273663 81.399442 
L 238.691239 81.076603 
L 239.216325 80.769431 
L 240.370496 79.838484 
L 240.928748 79.483195 
L 242.081591 78.962351 
L 243.064815 78.884822 
L 243.822816 78.846663 
L 244.835492 78.938646 
L 245.973702 79.579495 
L 246.351203 79.726021 
L 247.352185 80.455074 
L 248.626838 81.438349 
L 249.031657 81.933063 
L 250.000838 83.008078 
L 250.881259 83.868745 
L 251.565086 84.498044 
L 252.854478 86.138929 
L 254.569703 87.803137 
L 255.804897 89.21827 
L 257.061528 90.477727 
L 258.623123 91.718369 
L 260.931312 93.985853 
L 265.495988 97.359878 
L 266.471121 98.079381 
L 267.127031 98.439714 
L 269.777824 99.906779 
L 274.674865 102.800369 
L 276.032431 103.562786 
L 282.068368 106.154044 
L 285.411266 107.446628 
L 290.727324 109.104177 
L 295.348346 110.413788 
L 300.791857 111.533186 
L 304.027086 112.120566 
L 311.259576 113.229348 
L 317.502172 113.794474 
L 321.446085 114.206305 
L 331.750516 114.423867 
L 332.152941 114.438817 
L 332.152941 101.873252 
L 332.152941 91.394338 
L 322.615648 90.972745 
L 318.681826 90.856924 
L 317.587827 90.751044 
L 305.597402 89.36564 
L 304.946844 89.250881 
L 295.218784 87.495557 
L 286.55279 85.153013 
L 285.281641 84.79856 
L 284.623761 84.544644 
L 281.754253 83.565192 
L 275.882878 81.705992 
L 271.689173 80.060408 
L 270.433999 79.555835 
L 269.94871 79.323062 
L 266.156096 77.778833 
L 261.928311 76.032216 
L 261.596328 75.873125 
L 261.419369 75.779345 
L 257.58809 74.255286 
L 257.223564 74.110145 
L 257.186655 74.099645 
L 253.571554 72.848885 
L 251.678874 72.204575 
L 249.306171 71.696483 
L 248.788879 71.556171 
L 246.859194 71.299483 
L 245.481166 71.089101 
L 245.028344 71.057464 
L 241.536545 71.024405 
L 241.072689 71.04322 
L 237.810464 71.430593 
L 237.550628 71.47344 
L 234.919054 71.944241 
L 233.655183 72.350861 
L 231.27329 73.105964 
L 229.554061 73.511518 
L 227.877862 73.972642 
L 224.85009 75.056909 
L 221.323427 76.12489 
L 220.245134 76.553557 
L 215.042332 78.115294 
L 214.31942 78.328733 
L 214.175302 78.358068 
L 208.862759 79.739852 
L 206.156628 80.173372 
L 203.065571 80.924779 
L 198.396481 81.52486 
L 194.13898 82.060763 
L 190.334649 82.295279 
L 184.447059 82.549035 
L 184.447059 85.573612 
L 184.447059 94.51676 
L 184.447059 103.513082 
" style="fill:#26828e;"/>
   </g>
   <g id="PathCollection_13">
    <path clip-path="url(#p7389ed98f8)" d="M 184.447059 82.549035 
L 190.334649 82.295279 
L 194.13898 82.060763 
L 198.396481 81.52486 
L 203.065571 80.924779 
L 206.156628 80.173372 
L 208.862759 79.739852 
L 214.175302 78.358068 
L 214.31942 78.328733 
L 215.042332 78.115294 
L 220.245134 76.553557 
L 221.323427 76.12489 
L 224.85009 75.056909 
L 227.877862 73.972642 
L 229.554061 73.511518 
L 231.27329 73.105964 
L 233.655183 72.350861 
L 234.919054 71.944241 
L 237.550628 71.47344 
L 237.810464 71.430593 
L 241.072689 71.04322 
L 241.536545 71.024405 
L 245.028344 71.057464 
L 245.481166 71.089101 
L 246.859194 71.299483 
L 248.788879 71.556171 
L 249.306171 71.696483 
L 251.678874 72.204575 
L 253.571554 72.848885 
L 257.186655 74.099645 
L 257.223564 74.110145 
L 257.58809 74.255286 
L 261.419369 75.779345 
L 261.596328 75.873125 
L 261.928311 76.032216 
L 266.156096 77.778833 
L 269.94871 79.323062 
L 270.433999 79.555835 
L 271.689173 80.060408 
L 275.882878 81.705992 
L 281.754253 83.565192 
L 284.623761 84.544644 
L 285.281641 84.79856 
L 286.55279 85.153013 
L 295.218784 87.495557 
L 304.946844 89.250881 
L 305.597402 89.36564 
L 317.587827 90.751044 
L 318.681826 90.856924 
L 322.615648 90.972745 
L 332.152941 91.394338 
L 332.152941 89.019295 
L 332.152941 75.6624 
L 332.152941 70.928722 
L 325.128318 70.712926 
L 320.280834 70.618076 
L 308.837666 69.70463 
L 308.467077 69.672992 
L 307.602714 69.551763 
L 297.194118 68.326747 
L 292.555147 67.604543 
L 287.083782 66.652458 
L 282.016165 65.545687 
L 278.557026 64.973722 
L 274.71661 64.199505 
L 270.942921 63.355164 
L 267.9347 62.665447 
L 263.547097 61.820707 
L 261.187874 61.480667 
L 257.771132 60.777044 
L 254.739137 60.422842 
L 253.192114 60.153489 
L 250.153678 59.89103 
L 248.722807 59.7438 
L 243.516093 59.535014 
L 243.178926 59.529782 
L 237.912543 59.568789 
L 235.987106 59.695888 
L 233.089177 59.850023 
L 231.881658 60.014356 
L 227.186288 60.443661 
L 225.110141 60.782159 
L 218.823835 61.571133 
L 218.147466 61.694998 
L 217.205622 61.850502 
L 209.363935 62.757121 
L 207.02796 63.128687 
L 202.880626 63.561943 
L 195.856116 64.160257 
L 186.532004 64.443032 
L 184.447059 64.496483 
L 184.447059 66.485876 
L 184.447059 76.39768 
" style="fill:#1fa088;"/>
   </g>
   <g id="PathCollection_14">
    <path clip-path="url(#p7389ed98f8)" d="M 184.447059 64.496483 
L 186.532004 64.443032 
L 195.856116 64.160257 
L 202.880626 63.561943 
L 207.02796 63.128687 
L 209.363935 62.757121 
L 217.205622 61.850502 
L 218.147466 61.694998 
L 218.823835 61.571133 
L 225.110141 60.782159 
L 227.186288 60.443661 
L 231.881658 60.014356 
L 233.089177 59.850023 
L 235.987106 59.695888 
L 237.912543 59.568789 
L 243.178926 59.529782 
L 243.516093 59.535014 
L 248.722807 59.7438 
L 250.153678 59.89103 
L 253.192114 60.153489 
L 254.739137 60.422842 
L 257.771132 60.777044 
L 261.187874 61.480667 
L 263.547097 61.820707 
L 267.9347 62.665447 
L 270.942921 63.355164 
L 274.71661 64.199505 
L 278.557026 64.973722 
L 282.016165 65.545687 
L 287.083782 66.652458 
L 292.555147 67.604543 
L 297.194118 68.326747 
L 307.602714 69.551763 
L 308.467077 69.672992 
L 308.837666 69.70463 
L 320.280834 70.618076 
L 325.128318 70.712926 
L 332.152941 70.928722 
L 332.152941 61.234194 
L 332.152941 52.104908 
L 322.736827 51.88524 
L 320.653085 51.877647 
L 318.877394 51.810882 
L 309.192725 51.407743 
L 301.499981 50.893952 
L 297.771714 50.582374 
L 290.737304 49.852535 
L 286.413272 49.506081 
L 282.482463 49.169125 
L 275.137678 48.415845 
L 271.453395 47.919482 
L 262.541578 47.124285 
L 259.065961 46.838 
L 257.718856 46.795657 
L 244.184859 46.146542 
L 243.32106 46.142338 
L 230.076539 46.336782 
L 226.195182 46.422773 
L 216.794723 46.98464 
L 207.570725 47.421654 
L 204.455634 47.64966 
L 202.446463 47.761544 
L 189.190356 48.127545 
L 184.447059 48.214461 
L 184.447059 55.184604 
" style="fill:#3fbc73;"/>
   </g>
   <g id="PathCollection_15">
    <path clip-path="url(#p7389ed98f8)" d="M 184.447059 48.214461 
L 189.190356 48.127545 
L 202.446463 47.761544 
L 204.455634 47.64966 
L 207.570725 47.421654 
L 216.794723 46.98464 
L 226.195182 46.422773 
L 230.076539 46.336782 
L 243.32106 46.142338 
L 244.184859 46.146542 
L 257.718856 46.795657 
L 259.065961 46.838 
L 262.541578 47.124285 
L 271.453395 47.919482 
L 275.137678 48.415845 
L 282.482463 49.169125 
L 286.413272 49.506081 
L 290.737304 49.852535 
L 297.771714 50.582374 
L 301.499981 50.893952 
L 309.192725 51.407743 
L 318.877394 51.810882 
L 320.653085 51.877647 
L 322.736827 51.88524 
L 332.152941 52.104908 
L 332.152941 44.270026 
L 332.152941 34.130857 
L 321.209239 34.013665 
L 319.541351 34.013665 
L 310.031143 33.875601 
L 300.049037 33.579723 
L 299.280338 33.579723 
L 289.64615 33.190705 
L 285.066962 33.190701 
L 279.013005 32.902432 
L 277.891011 32.834815 
L 275.89973 32.749997 
L 264.936993 32.352072 
L 261.875102 32.35207 
L 251.650114 32.024525 
L 247.260804 32.024524 
L 235.599054 31.946597 
L 230.070789 31.946598 
L 218.820672 32.185589 
L 212.665483 32.185591 
L 198.586229 32.488459 
L 195.250494 32.48846 
L 184.447059 32.61001 
L 184.447059 41.069978 
" style="fill:#84d44b;"/>
   </g>
   <g id="PathCollection_16">
    <path clip-path="url(#p7389ed98f8)" d="M 184.447059 32.61001 
L 195.250494 32.48846 
L 198.586229 32.488459 
L 212.665483 32.185591 
L 218.820672 32.185589 
L 230.070789 31.946598 
L 235.599054 31.946597 
L 247.260804 32.024524 
L 251.650114 32.024525 
L 261.875102 32.35207 
L 264.936993 32.352072 
L 275.89973 32.749997 
L 277.891011 32.834815 
L 279.013005 32.902432 
L 285.066962 33.190701 
L 289.64615 33.190705 
L 299.280338 33.579723 
L 300.049037 33.579723 
L 310.031143 33.875601 
L 319.541351 34.013665 
L 321.209239 34.013665 
L 332.152941 34.130857 
L 332.152941 22.318125 
L 310.504576 22.318125 
L 294.130345 22.318125 
L 280.311574 22.318125 
L 267.250356 22.318125 
L 253.689804 22.318125 
L 238.502981 22.318125 
L 221.994928 22.318125 
L 204.707727 22.318125 
L 184.447059 22.318125 
" style="fill:#d8e219;"/>
   </g>
   <g id="line2d_5">
    <path d="M 332.152941 22.318125 
L 310.504576 22.318125 
L 294.130345 22.318125 
L 280.311574 22.318125 
L 267.250356 22.318125 
L 253.689804 22.318125 
L 238.502981 22.318125 
L 221.994928 22.318125 
L 204.707727 22.318125 
L 184.447059 22.318125 
" style="fill:none;stroke:#1f77b4;stroke-linecap:square;stroke-width:1.5;"/>
   </g>
   <g id="line2d_6">
    <path d="M 243.529412 170.024007 
L 243.529412 161.504022 
L 243.529412 155.169522 
L 243.529412 149.915772 
L 243.529412 145.176628 
L 243.529412 140.799217 
L 243.529412 136.687676 
L 243.529412 132.80242 
L 243.529412 129.061917 
L 243.529412 125.325844 
L 243.529412 121.618722 
L 243.529412 118.22769 
L 243.529412 115.182881 
L 243.529412 112.4614 
L 243.529412 109.837701 
L 243.529412 107.214001 
L 243.529412 104.590154 
L 243.529412 101.967636 
L 243.529412 99.419119 
L 243.529412 97.017421 
L 243.529412 94.756487 
L 243.529412 92.631295 
L 243.529412 90.619984 
L 243.529412 88.662438 
L 243.529412 86.757475 
L 243.529412 84.929467 
L 243.529412 83.135136 
L 243.529412 81.400478 
" style="fill:none;stroke:#ff7f0e;stroke-linecap:square;stroke-width:1.5;"/>
   </g>
   <g id="line2d_7">
    <path d="M 184.447059 170.024007 
L 205.248478 170.024007 
L 220.000456 170.024007 
L 232.740826 170.024007 
L 243.529412 170.024007 
L 254.375041 170.024007 
L 265.90285 170.024007 
L 277.891708 170.024007 
L 291.3808 170.024007 
L 307.86522 170.024007 
L 332.152941 170.024007 
" style="fill:none;stroke:#2ca02c;stroke-linecap:square;stroke-width:1.5;"/>
   </g>
   <g id="line2d_8">
    <path d="M 332.152941 170.024007 
L 332.152941 146.040856 
L 332.152941 128.816873 
L 332.152941 114.869892 
L 332.152941 101.873252 
L 332.152941 89.019295 
L 332.152941 75.6624 
L 332.152941 61.234194 
L 332.152941 44.270026 
L 332.152941 22.318125 
M 184.447059 22.318125 
L 184.447059 41.069978 
L 184.447059 55.184604 
L 184.447059 66.485876 
L 184.447059 76.39768 
L 184.447059 85.573612 
L 184.447059 94.51676 
L 184.447059 103.513082 
L 184.447059 112.842481 
L 184.447059 122.733901 
L 184.447059 133.971217 
L 184.447059 148.72541 
L 184.447059 170.024007 
" style="fill:none;stroke:#d62728;stroke-linecap:square;stroke-width:1.5;"/>
   </g>
   <g id="text_2">
    <!-- $\kappa=$1.0 -->
    <g transform="translate(237.84 16.318125)scale(0.12 -0.12)">
     <use transform="translate(0 0.78125)" xlink:href="#DejaVuSans-Oblique-954"/>
     <use transform="translate(78.417969 0.78125)" xlink:href="#DejaVuSans-61"/>
     <use transform="translate(181.689453 0.78125)" xlink:href="#DejaVuSans-49"/>
     <use transform="translate(245.3125 0.78125)" xlink:href="#DejaVuSans-46"/>
     <use transform="translate(277.099609 0.78125)" xlink:href="#DejaVuSans-48"/>
    </g>
   </g>
  </g>
  <g id="axes_3">
   <g id="PathCollection_17">
    <path clip-path="url(#pdee9d8a83c)" d="M 368.532527 170.024007 
L 361.703895 170.012885 
L 361.694118 170.013771 
L 361.694118 170.024007 
M 399.775596 170.024007 
L 397.402939 169.844973 
L 397.209978 169.905897 
L 385.395794 170.024007 
L 397.247514 170.024007 
M 429.384557 170.024007 
L 423.599414 167.454902 
L 420.776471 165.134049 
L 417.999728 166.904232 
L 412.116362 170.024007 
L 420.776471 170.024007 
M 452.716344 170.024007 
L 443.184451 169.914374 
L 443.068456 169.865314 
L 440.760524 170.024007 
L 443.149909 170.024007 
M 481.434197 170.024007 
L 468.631538 170.020463 
L 468.62796 170.019959 
L 468.623383 170.019147 
L 466.097595 170.024007 
L 468.627859 170.024007 
M 509.4 170.023763 
L 509.399853 170.023757 
L 509.399498 170.023739 
L 504.329022 170.024007 
L 509.4 170.024007 
" style="fill:#48186a;"/>
   </g>
   <g id="PathCollection_18">
    <path clip-path="url(#pdee9d8a83c)" d="M 361.694118 170.013771 
L 361.703895 170.012885 
L 368.532527 170.024007 
L 382.495537 170.024007 
L 385.395794 170.024007 
L 397.209978 169.905897 
L 397.402939 169.844973 
L 399.775596 170.024007 
L 409.987885 170.024007 
L 412.116362 170.024007 
L 417.999728 166.904232 
L 420.776471 165.134049 
L 423.599414 167.454902 
L 429.384557 170.024007 
L 431.6221 170.024007 
L 440.760524 170.024007 
L 443.068456 169.865314 
L 443.184451 169.914374 
L 452.716344 170.024007 
L 455.138767 170.024007 
L 466.097595 170.024007 
L 468.623383 170.019147 
L 468.62796 170.019959 
L 468.631538 170.020463 
L 481.434197 170.024007 
L 485.112279 170.024007 
L 504.329022 170.024007 
L 509.399498 170.023739 
L 509.399853 170.023757 
L 509.4 170.023763 
L 509.4 146.040856 
L 509.4 136.337032 
L 502.284768 136.012974 
L 491.601359 135.050635 
L 484.152485 133.780333 
L 475.873025 131.894971 
L 467.616313 128.626679 
L 464.620521 127.465441 
L 457.030337 122.790371 
L 455.506974 121.938414 
L 455.127643 121.654451 
L 448.625692 116.472915 
L 444.702417 111.849891 
L 443.383538 110.667057 
L 438.980161 104.583845 
L 438.417016 103.993078 
L 437.684027 102.958504 
L 434.817643 98.505191 
L 433.865939 96.477426 
L 432.023924 93.783873 
L 431.111208 91.78638 
L 429.114201 88.501145 
L 429.007505 88.274372 
L 428.945576 88.119437 
L 427.129389 85.116706 
L 426.525065 84.048959 
L 425.730411 83.062201 
L 424.614174 81.559976 
L 424.382999 81.367531 
L 424.051148 81.109596 
L 423.163267 80.246802 
L 422.554588 79.888583 
L 421.80964 79.449814 
L 421.347621 79.405641 
L 419.934504 79.477552 
L 419.524122 79.510817 
L 419.05622 79.731431 
L 417.943916 80.47007 
L 416.81688 81.43288 
L 416.081282 82.511566 
L 415.470355 83.107962 
L 414.886118 83.804041 
L 413.856629 85.303264 
L 412.576771 87.315843 
L 412.142518 87.816526 
L 410.960261 89.472841 
L 409.658079 91.408701 
L 409.267385 92.20289 
L 406.518547 95.991334 
L 405.90785 96.825882 
L 405.765077 96.965102 
L 402.083466 101.555579 
L 401.54721 102.016757 
L 397.371211 106.418259 
L 396.912623 106.770438 
L 395.991546 107.372072 
L 391.080424 111.476421 
L 385.013121 114.695032 
L 384.023884 115.38926 
L 383.223644 115.808665 
L 379.439537 117.12584 
L 376.23874 118.314108 
L 370.790116 119.881371 
L 363.870534 120.298112 
L 361.694118 120.493131 
L 361.694118 122.733901 
L 361.694118 133.971217 
L 361.694118 148.72541 
" style="fill:#424086;"/>
   </g>
   <g id="PathCollection_19">
    <path clip-path="url(#pdee9d8a83c)" d="M 361.694118 120.493131 
L 363.870534 120.298112 
L 370.790116 119.881371 
L 376.23874 118.314108 
L 379.439537 117.12584 
L 383.223644 115.808665 
L 384.023884 115.38926 
L 385.013121 114.695032 
L 391.080424 111.476421 
L 395.991546 107.372072 
L 396.912623 106.770438 
L 397.371211 106.418259 
L 401.54721 102.016757 
L 402.083466 101.555579 
L 405.765077 96.965102 
L 405.90785 96.825882 
L 406.518547 95.991334 
L 409.267385 92.20289 
L 409.658079 91.408701 
L 410.960261 89.472841 
L 412.142518 87.816526 
L 412.576771 87.315843 
L 413.856629 85.303264 
L 414.886118 83.804041 
L 415.470355 83.107962 
L 416.081282 82.511566 
L 416.81688 81.43288 
L 417.943916 80.47007 
L 419.05622 79.731431 
L 419.524122 79.510817 
L 419.934504 79.477552 
L 421.347621 79.405641 
L 421.80964 79.449814 
L 422.554588 79.888583 
L 423.163267 80.246802 
L 424.051148 81.109596 
L 424.382999 81.367531 
L 424.614174 81.559976 
L 425.730411 83.062201 
L 426.525065 84.048959 
L 427.129389 85.116706 
L 428.945576 88.119437 
L 429.007505 88.274372 
L 429.114201 88.501145 
L 431.111208 91.78638 
L 432.023924 93.783873 
L 433.865939 96.477426 
L 434.817643 98.505191 
L 437.684027 102.958504 
L 438.417016 103.993078 
L 438.980161 104.583845 
L 443.383538 110.667057 
L 444.702417 111.849891 
L 448.625692 116.472915 
L 455.127643 121.654451 
L 455.506974 121.938414 
L 457.030337 122.790371 
L 464.620521 127.465441 
L 467.616313 128.626679 
L 475.873025 131.894971 
L 484.152485 133.780333 
L 491.601359 135.050635 
L 502.284768 136.012974 
L 509.4 136.337032 
L 509.4 128.816873 
L 509.4 114.869892 
L 509.4 108.501192 
L 503.344657 108.158496 
L 499.037351 108.017655 
L 493.920983 107.192394 
L 489.421572 106.558106 
L 481.867013 105.004708 
L 476.278407 103.07734 
L 471.908655 101.804269 
L 466.263763 99.331174 
L 461.132446 96.883961 
L 459.408114 95.871736 
L 457.860361 94.806853 
L 453.647429 92.489379 
L 450.561924 90.473766 
L 449.716389 89.814447 
L 445.629397 87.123315 
L 443.409955 85.304426 
L 441.194534 83.868021 
L 437.612509 81.178786 
L 437.169953 80.918756 
L 435.856899 80.078045 
L 433.790465 78.673917 
L 433.292836 78.328502 
L 430.823387 76.932284 
L 429.258859 76.092566 
L 428.519879 75.801932 
L 426.883707 75.043837 
L 425.210801 74.583593 
L 424.444569 74.312481 
L 422.41435 74.014751 
L 422.237228 73.982844 
L 421.348098 73.95901 
L 419.747903 73.898964 
L 419.629969 73.912557 
L 416.804857 74.241882 
L 416.505537 74.344506 
L 413.889859 75.037035 
L 412.706251 75.609854 
L 410.89029 76.273355 
L 409.495439 76.778503 
L 406.756411 78.340616 
L 405.36649 78.963811 
L 403.14795 80.338956 
L 400.423478 81.699153 
L 398.333606 83.059249 
L 395.17234 84.555692 
L 392.781558 85.937802 
L 390.362994 86.945987 
L 386.538098 88.800921 
L 383.14028 89.830514 
L 379.432724 91.192119 
L 376.439616 91.789664 
L 369.235046 93.023461 
L 369.127231 93.049077 
L 368.671472 93.073812 
L 361.694118 93.555552 
L 361.694118 94.51676 
L 361.694118 103.513082 
L 361.694118 112.842481 
" style="fill:#33638d;"/>
   </g>
   <g id="PathCollection_20">
    <path clip-path="url(#pdee9d8a83c)" d="M 361.694118 93.555552 
L 368.671472 93.073812 
L 369.127231 93.049077 
L 369.235046 93.023461 
L 376.439616 91.789664 
L 379.432724 91.192119 
L 383.14028 89.830514 
L 386.538098 88.800921 
L 390.362994 86.945987 
L 392.781558 85.937802 
L 395.17234 84.555692 
L 398.333606 83.059249 
L 400.423478 81.699153 
L 403.14795 80.338956 
L 405.36649 78.963811 
L 406.756411 78.340616 
L 409.495439 76.778503 
L 410.89029 76.273355 
L 412.706251 75.609854 
L 413.889859 75.037035 
L 416.505537 74.344506 
L 416.804857 74.241882 
L 419.629969 73.912557 
L 419.747903 73.898964 
L 421.348098 73.95901 
L 422.237228 73.982844 
L 422.41435 74.014751 
L 424.444569 74.312481 
L 425.210801 74.583593 
L 426.883707 75.043837 
L 428.519879 75.801932 
L 429.258859 76.092566 
L 430.823387 76.932284 
L 433.292836 78.328502 
L 433.790465 78.673917 
L 435.856899 80.078045 
L 437.169953 80.918756 
L 437.612509 81.178786 
L 441.194534 83.868021 
L 443.409955 85.304426 
L 445.629397 87.123315 
L 449.716389 89.814447 
L 450.561924 90.473766 
L 453.647429 92.489379 
L 457.860361 94.806853 
L 459.408114 95.871736 
L 461.132446 96.883961 
L 466.263763 99.331174 
L 471.908655 101.804269 
L 476.278407 103.07734 
L 481.867013 105.004708 
L 489.421572 106.558106 
L 493.920983 107.192394 
L 499.037351 108.017655 
L 503.344657 108.158496 
L 509.4 108.501192 
L 509.4 101.873252 
L 509.4 89.019295 
L 509.4 86.058553 
L 505.342986 85.849248 
L 496.623405 85.48581 
L 489.015344 84.446861 
L 484.404706 83.697139 
L 476.494129 81.73594 
L 473.318778 81.085933 
L 471.169203 80.469626 
L 463.346062 78.075913 
L 456.469749 75.395903 
L 454.292244 74.708282 
L 452.437237 74.070898 
L 446.469666 71.681949 
L 441.742807 69.937171 
L 441.210952 69.772009 
L 437.180757 68.298251 
L 434.867621 67.743551 
L 432.287221 66.898856 
L 428.99773 66.27958 
L 427.623183 65.98328 
L 423.474089 65.504303 
L 422.834733 65.446003 
L 418.306688 65.360571 
L 417.745387 65.387796 
L 413.448945 65.711533 
L 412.474339 65.872243 
L 408.888015 66.377584 
L 407.073418 66.861883 
L 403.584451 67.53061 
L 401.632812 68.09709 
L 396.974442 69.258978 
L 396.840009 69.305548 
L 396.55535 69.387077 
L 391.467021 70.698402 
L 385.22105 72.109719 
L 385.133294 72.132258 
L 385.096946 72.144428 
L 385.025787 72.159154 
L 377.407964 73.559856 
L 373.314575 74.261814 
L 364.393822 74.732229 
L 361.694118 74.894555 
L 361.694118 76.39768 
L 361.694118 85.573612 
" style="fill:#26828e;"/>
   </g>
   <g id="PathCollection_21">
    <path clip-path="url(#pdee9d8a83c)" d="M 361.694118 74.894555 
L 364.393822 74.732229 
L 373.314575 74.261814 
L 377.407964 73.559856 
L 385.025787 72.159154 
L 385.096946 72.144428 
L 385.133294 72.132258 
L 385.22105 72.109719 
L 391.467021 70.698402 
L 396.55535 69.387077 
L 396.840009 69.305548 
L 396.974442 69.258978 
L 401.632812 68.09709 
L 403.584451 67.53061 
L 407.073418 66.861883 
L 408.888015 66.377584 
L 412.474339 65.872243 
L 413.448945 65.711533 
L 417.745387 65.387796 
L 418.306688 65.360571 
L 422.834733 65.446003 
L 423.474089 65.504303 
L 427.623183 65.98328 
L 428.99773 66.27958 
L 432.287221 66.898856 
L 434.867621 67.743551 
L 437.180757 68.298251 
L 441.210952 69.772009 
L 441.742807 69.937171 
L 446.469666 71.681949 
L 452.437237 74.070898 
L 454.292244 74.708282 
L 456.469749 75.395903 
L 463.346062 78.075913 
L 471.169203 80.469626 
L 473.318778 81.085933 
L 476.494129 81.73594 
L 484.404706 83.697139 
L 489.015344 84.446861 
L 496.623405 85.48581 
L 505.342986 85.849248 
L 509.4 86.058553 
L 509.4 75.6624 
L 509.4 66.945359 
L 499.164469 66.518002 
L 497.603045 66.493978 
L 496.517201 66.40749 
L 485.85068 65.475185 
L 480.291643 64.708261 
L 474.614898 63.821498 
L 467.167402 62.293351 
L 464.476979 61.867356 
L 462.268373 61.444776 
L 455.311488 59.981219 
L 451.549995 59.024791 
L 447.521526 58.320077 
L 441.919439 57.150409 
L 441.90595 57.147236 
L 441.888603 57.144202 
L 436.067283 56.164688 
L 432.384413 55.597187 
L 427.833601 55.257408 
L 425.898524 55.020834 
L 424.68003 54.961958 
L 416.636124 54.8072 
L 415.553577 54.815131 
L 413.921444 54.939748 
L 408.424799 55.135221 
L 403.729143 55.667271 
L 399.68976 55.984378 
L 394.643057 56.668511 
L 386.957441 57.663401 
L 383.593024 57.964813 
L 378.05154 58.345776 
L 372.359456 58.955515 
L 369.258099 59.074631 
L 361.694118 59.318651 
L 361.694118 66.485876 
" style="fill:#1fa088;"/>
   </g>
   <g id="PathCollection_22">
    <path clip-path="url(#pdee9d8a83c)" d="M 361.694118 59.318651 
L 369.258099 59.074631 
L 372.359456 58.955515 
L 378.05154 58.345776 
L 383.593024 57.964813 
L 386.957441 57.663401 
L 394.643057 56.668511 
L 399.68976 55.984378 
L 403.729143 55.667271 
L 408.424799 55.135221 
L 413.921444 54.939748 
L 415.553577 54.815131 
L 416.636124 54.8072 
L 424.68003 54.961958 
L 425.898524 55.020834 
L 427.833601 55.257408 
L 432.384413 55.597187 
L 436.067283 56.164688 
L 441.888603 57.144202 
L 441.90595 57.147236 
L 441.919439 57.150409 
L 447.521526 58.320077 
L 451.549995 59.024791 
L 455.311488 59.981219 
L 462.268373 61.444776 
L 464.476979 61.867356 
L 467.167402 62.293351 
L 474.614898 63.821498 
L 480.291643 64.708261 
L 485.85068 65.475185 
L 496.517201 66.40749 
L 497.603045 66.493978 
L 499.164469 66.518002 
L 509.4 66.945359 
L 509.4 61.234194 
L 509.4 49.593863 
L 503.059887 49.397546 
L 497.84713 49.372541 
L 493.341101 49.150222 
L 486.584963 48.780549 
L 475.193216 47.784749 
L 475.095086 47.774054 
L 474.928481 47.751651 
L 463.926503 46.627832 
L 452.78796 45.417723 
L 451.34496 45.2317 
L 450.678949 45.119874 
L 449.184126 44.955149 
L 437.683509 43.78927 
L 432.933489 43.606024 
L 423.451432 43.049677 
L 417.492833 43.012224 
L 408.675191 43.160422 
L 400.280153 43.381371 
L 394.133439 43.822504 
L 383.655019 44.424215 
L 380.57296 44.517818 
L 376.189588 44.607721 
L 364.343465 45.01195 
L 361.694118 45.072244 
L 361.694118 55.184604 
" style="fill:#3fbc73;"/>
   </g>
   <g id="PathCollection_23">
    <path clip-path="url(#pdee9d8a83c)" d="M 361.694118 45.072244 
L 364.343465 45.01195 
L 376.189588 44.607721 
L 380.57296 44.517818 
L 383.655019 44.424215 
L 394.133439 43.822504 
L 400.280153 43.381371 
L 408.675191 43.160422 
L 417.492833 43.012224 
L 423.451432 43.049677 
L 432.933489 43.606024 
L 437.683509 43.78927 
L 449.184126 44.955149 
L 450.678949 45.119874 
L 451.34496 45.2317 
L 452.78796 45.417723 
L 463.926503 46.627832 
L 474.928481 47.751651 
L 475.095086 47.774054 
L 475.193216 47.784749 
L 486.584963 48.780549 
L 493.341101 49.150222 
L 497.84713 49.372541 
L 503.059887 49.397546 
L 509.4 49.593863 
L 509.4 44.270026 
L 509.4 33.137506 
L 499.407228 32.997406 
L 496.003178 32.997405 
L 487.32089 32.833476 
L 478.310385 32.487238 
L 476.027797 32.487237 
L 467.367527 32.040654 
L 461.811017 32.040648 
L 455.468623 31.660596 
L 454.662142 31.660596 
L 442.46998 31.111892 
L 438.110469 31.111889 
L 429.162975 30.759634 
L 423.366585 30.759633 
L 413.230166 30.673203 
L 406.249791 30.673204 
L 396.474435 30.921312 
L 388.892949 30.921314 
L 376.582938 31.24298 
L 371.174544 31.242981 
L 361.694118 31.373868 
L 361.694118 41.069978 
" style="fill:#84d44b;"/>
   </g>
   <g id="PathCollection_24">
    <path clip-path="url(#pdee9d8a83c)" d="M 361.694118 31.373868 
L 371.174544 31.242981 
L 376.582938 31.24298 
L 388.892949 30.921314 
L 396.474435 30.921312 
L 406.249791 30.673204 
L 413.230166 30.673203 
L 423.366585 30.759633 
L 429.162975 30.759634 
L 438.110469 31.111889 
L 442.46998 31.111892 
L 454.662142 31.660596 
L 455.468623 31.660596 
L 461.811017 32.040648 
L 467.367527 32.040654 
L 476.027797 32.487237 
L 478.310385 32.487238 
L 487.32089 32.833476 
L 496.003178 32.997405 
L 499.407228 32.997406 
L 509.4 33.137506 
L 509.4 22.318125 
L 487.751635 22.318125 
L 471.377404 22.318125 
L 457.558633 22.318125 
L 444.497415 22.318125 
L 430.936863 22.318125 
L 415.750039 22.318125 
L 399.241987 22.318125 
L 381.954786 22.318125 
L 361.694118 22.318125 
" style="fill:#d8e219;"/>
   </g>
   <g id="line2d_9">
    <path d="M 509.4 22.318125 
L 487.751635 22.318125 
L 471.377404 22.318125 
L 457.558633 22.318125 
L 444.497415 22.318125 
L 430.936863 22.318125 
L 415.750039 22.318125 
L 399.241987 22.318125 
L 381.954786 22.318125 
L 361.694118 22.318125 
" style="fill:none;stroke:#1f77b4;stroke-linecap:square;stroke-width:1.5;"/>
   </g>
   <g id="line2d_10">
    <path d="M 420.776471 170.024007 
L 420.776471 161.504022 
L 420.776471 155.169522 
L 420.776471 149.915772 
L 420.776471 145.176628 
L 420.776471 140.799217 
L 420.776471 136.687676 
L 420.776471 132.80242 
L 420.776471 129.061917 
L 420.776471 125.325844 
L 420.776471 121.618722 
L 420.776471 118.22769 
L 420.776471 115.182881 
L 420.776471 112.4614 
L 420.776471 109.837701 
L 420.776471 107.214001 
L 420.776471 104.590154 
L 420.776471 101.967636 
L 420.776471 99.419119 
L 420.776471 97.017421 
L 420.776471 94.756487 
L 420.776471 92.631295 
L 420.776471 90.619984 
L 420.776471 88.662438 
L 420.776471 86.757475 
L 420.776471 84.929467 
L 420.776471 83.135136 
L 420.776471 81.400478 
" style="fill:none;stroke:#ff7f0e;stroke-linecap:square;stroke-width:1.5;"/>
   </g>
   <g id="line2d_11">
    <path d="M 361.694118 170.024007 
L 382.495537 170.024007 
L 397.247514 170.024007 
L 409.987885 170.024007 
L 420.776471 170.024007 
L 431.6221 170.024007 
L 443.149909 170.024007 
L 455.138767 170.024007 
L 468.627859 170.024007 
L 485.112279 170.024007 
L 509.4 170.024007 
" style="fill:none;stroke:#2ca02c;stroke-linecap:square;stroke-width:1.5;"/>
   </g>
   <g id="line2d_12">
    <path d="M 509.4 170.024007 
L 509.4 146.040856 
L 509.4 128.816873 
L 509.4 114.869892 
L 509.4 101.873252 
L 509.4 89.019295 
L 509.4 75.6624 
L 509.4 61.234194 
L 509.4 44.270026 
L 509.4 22.318125 
M 361.694118 22.318125 
L 361.694118 41.069978 
L 361.694118 55.184604 
L 361.694118 66.485876 
L 361.694118 76.39768 
L 361.694118 85.573612 
L 361.694118 94.51676 
L 361.694118 103.513082 
L 361.694118 112.842481 
L 361.694118 122.733901 
L 361.694118 133.971217 
L 361.694118 148.72541 
L 361.694118 170.024007 
" style="fill:none;stroke:#d62728;stroke-linecap:square;stroke-width:1.5;"/>
   </g>
   <g id="text_3">
    <!-- $\kappa=$10.0 -->
    <g transform="translate(411.247059 16.318125)scale(0.12 -0.12)">
     <use transform="translate(0 0.78125)" xlink:href="#DejaVuSans-Oblique-954"/>
     <use transform="translate(78.417969 0.78125)" xlink:href="#DejaVuSans-61"/>
     <use transform="translate(181.689453 0.78125)" xlink:href="#DejaVuSans-49"/>
     <use transform="translate(245.3125 0.78125)" xlink:href="#DejaVuSans-48"/>
     <use transform="translate(308.935547 0.78125)" xlink:href="#DejaVuSans-46"/>
     <use transform="translate(340.722656 0.78125)" xlink:href="#DejaVuSans-48"/>
    </g>
   </g>
  </g>
 </g>
 <defs>
  <clipPath id="pe3c051ba9c">
   <rect height="147.705882" width="147.705882" x="7.2" y="22.318125"/>
  </clipPath>
  <clipPath id="p7389ed98f8">
   <rect height="147.705882" width="147.705882" x="184.447059" y="22.318125"/>
  </clipPath>
  <clipPath id="pdee9d8a83c">
   <rect height="147.705882" width="147.705882" x="361.694118" y="22.318125"/>
  </clipPath>
 </defs>
</svg>
