<?xml version="1.0" encoding="utf-8" standalone="no"?>
<!DOCTYPE svg PUBLIC "-//W3C//DTD SVG 1.1//EN"
  "http://www.w3.org/Graphics/SVG/1.1/DTD/svg11.dtd">
<!-- Created with matplotlib (https://matplotlib.org/) -->
<svg height="280.512pt" version="1.1" viewBox="0 0 271.498332 280.512" width="271.498332pt" xmlns="http://www.w3.org/2000/svg" xmlns:xlink="http://www.w3.org/1999/xlink">
 <defs>
  <style type="text/css">
*{stroke-linecap:butt;stroke-linejoin:round;}
  </style>
 </defs>
 <g id="figure_1">
  <g id="patch_1">
   <path d="M 0 280.512 
L 271.498332 280.512 
L 271.498332 0 
L 0 0 
z
" style="fill:#ffffff;"/>
  </g>
  <g id="axes_1">
   <g id="line2d_1">
    <path clip-path="url(#pb8d7cdff0d)" d="M 246.047935 125.018054 
L 252.612044 140.256 
M 228.972853 113.669988 
L 246.047935 125.018054 
M 207.958558 107.579513 
L 228.972853 113.669988 
M 190.352367 104.563073 
L 207.958558 107.579513 
M 180.832024 100.00202 
L 190.352367 104.563073 
M 179.436153 89.538192 
L 180.832024 100.00202 
M 182.007959 71.861579 
L 179.436153 89.538192 
M 182.709348 49.993736 
L 179.436153 89.538192 
M 182.709348 49.993736 
L 182.007959 71.861579 
M 177.193186 30.247623 
L 179.436153 89.538192 
M 177.193186 30.247623 
L 182.709348 49.993736 
M 164.72946 19.296 
L 179.436153 89.538192 
M 164.72946 19.296 
L 177.193186 30.247623 
M 148.208891 20.830055 
L 179.436153 89.538192 
M 148.208891 20.830055 
L 164.72946 19.296 
M 132.139748 33.562677 
L 179.436153 89.538192 
M 132.139748 33.562677 
L 148.208891 20.830055 
M 119.853588 51.6664 
L 179.436153 89.538192 
M 119.853588 51.6664 
L 132.139748 33.562677 
M 111.544171 67.47875 
L 179.436153 89.538192 
M 111.544171 67.47875 
L 119.853588 51.6664 
M 104.264404 75.123692 
L 179.436153 89.538192 
M 104.264404 75.123692 
L 111.544171 67.47875 
M 93.881365 73.217744 
L 179.436153 89.538192 
M 93.881365 73.217744 
L 104.264404 75.123692 
M 77.864638 65.309436 
L 93.881365 73.217744 
M 57.283824 57.884841 
L 93.881365 73.217744 
M 57.283824 57.884841 
L 77.864638 65.309436 
M 36.799567 57.029138 
L 93.881365 73.217744 
M 36.799567 57.029138 
L 57.283824 57.884841 
M 22.532452 65.498609 
L 93.881365 73.217744 
M 22.532452 65.498609 
L 36.799567 57.029138 
M 18.886288 81.684652 
L 93.881365 73.217744 
M 18.886288 81.684652 
L 22.532452 65.498609 
M 26.030093 100.901912 
L 93.881365 73.217744 
M 26.030093 100.901912 
L 18.886288 81.684652 
M 39.451124 118.181102 
L 93.881365 73.217744 
M 39.451124 118.181102 
L 26.030093 100.901912 
M 56.943012 140.256 
L 93.881365 73.217744 
M 56.943012 140.256 
L 39.451124 118.181102 
M 51.921812 149.541887 
L 93.881365 73.217744 
M 51.921812 149.541887 
L 56.943012 140.256 
M 39.451124 162.330898 
L 51.921812 149.541887 
M 26.030093 179.610088 
L 51.921812 149.541887 
M 26.030093 179.610088 
L 39.451124 162.330898 
M 18.886288 198.827348 
L 51.921812 149.541887 
M 18.886288 198.827348 
L 26.030093 179.610088 
M 22.532452 215.013391 
L 51.921812 149.541887 
M 22.532452 215.013391 
L 18.886288 198.827348 
M 36.799567 223.482862 
L 51.921812 149.541887 
M 36.799567 223.482862 
L 22.532452 215.013391 
M 57.283824 222.627159 
L 51.921812 149.541887 
M 57.283824 222.627159 
L 36.799567 223.482862 
M 77.864638 215.202564 
L 51.921812 149.541887 
M 77.864638 215.202564 
L 57.283824 222.627159 
M 93.881365 207.294256 
L 51.921812 149.541887 
M 93.881365 207.294256 
L 77.864638 215.202564 
M 104.264404 205.388308 
L 51.921812 149.541887 
M 104.264404 205.388308 
L 93.881365 207.294256 
M 111.544171 213.03325 
L 51.921812 149.541887 
M 111.544171 213.03325 
L 104.264404 205.388308 
M 119.853588 228.8456 
L 111.544171 213.03325 
M 132.139748 246.949323 
L 111.544171 213.03325 
M 132.139748 246.949323 
L 119.853588 228.8456 
M 148.208891 259.681945 
L 111.544171 213.03325 
M 148.208891 259.681945 
L 132.139748 246.949323 
M 164.72946 261.216 
L 111.544171 213.03325 
M 164.72946 261.216 
L 148.208891 259.681945 
M 177.193186 250.264377 
L 111.544171 213.03325 
M 177.193186 250.264377 
L 164.72946 261.216 
M 182.709348 230.518264 
L 111.544171 213.03325 
M 182.709348 230.518264 
L 177.193186 250.264377 
M 182.007959 208.650421 
L 111.544171 213.03325 
M 182.007959 208.650421 
L 182.709348 230.518264 
M 179.436153 190.973808 
L 111.544171 213.03325 
M 179.436153 190.973808 
L 182.007959 208.650421 
M 180.832024 180.50998 
L 111.544171 213.03325 
M 180.832024 180.50998 
L 179.436153 190.973808 
M 190.352367 175.948927 
L 180.832024 100.00202 
M 190.352367 175.948927 
L 179.436153 89.538192 
M 190.352367 175.948927 
L 93.881365 73.217744 
M 190.352367 175.948927 
L 51.921812 149.541887 
M 190.352367 175.948927 
L 111.544171 213.03325 
M 190.352367 175.948927 
L 180.832024 180.50998 
M 207.958558 172.932487 
L 190.352367 175.948927 
M 228.972853 166.842012 
L 190.352367 175.948927 
M 228.972853 166.842012 
L 207.958558 172.932487 
M 246.047935 155.493946 
L 252.612044 140.256 
M 246.047935 155.493946 
L 246.047935 125.018054 
M 246.047935 155.493946 
L 228.972853 113.669988 
M 246.047935 155.493946 
L 207.958558 107.579513 
M 246.047935 155.493946 
L 190.352367 104.563073 
M 246.047935 155.493946 
L 180.832024 100.00202 
M 246.047935 155.493946 
L 190.352367 175.948927 
M 246.047935 155.493946 
L 228.972853 166.842012 
L 228.972853 166.842012 
" style="fill:none;stroke:#d3d3d3;stroke-linecap:square;stroke-width:1.5;"/>
   </g>
   <g id="line2d_2">
    <defs>
     <path d="M 0 3 
C 0.795609 3 1.55874 2.683901 2.12132 2.12132 
C 2.683901 1.55874 3 0.795609 3 0 
C 3 -0.795609 2.683901 -1.55874 2.12132 -2.12132 
C 1.55874 -2.683901 0.795609 -3 0 -3 
C -0.795609 -3 -1.55874 -2.683901 -2.12132 -2.12132 
C -2.683901 -1.55874 -3 -0.795609 -3 0 
C -3 0.795609 -2.683901 1.55874 -2.12132 2.12132 
C -1.55874 2.683901 -0.795609 3 0 3 
z
" id="mb66f30969c" style="stroke:#808080;"/>
    </defs>
    <g clip-path="url(#pb8d7cdff0d)">
     <use style="fill:#808080;stroke:#808080;" x="252.612044" xlink:href="#mb66f30969c" y="140.256"/>
     <use style="fill:#808080;stroke:#808080;" x="246.047935" xlink:href="#mb66f30969c" y="125.018054"/>
     <use style="fill:#808080;stroke:#808080;" x="228.972853" xlink:href="#mb66f30969c" y="113.669988"/>
     <use style="fill:#808080;stroke:#808080;" x="207.958558" xlink:href="#mb66f30969c" y="107.579513"/>
     <use style="fill:#808080;stroke:#808080;" x="190.352367" xlink:href="#mb66f30969c" y="104.563073"/>
     <use style="fill:#808080;stroke:#808080;" x="180.832024" xlink:href="#mb66f30969c" y="100.00202"/>
     <use style="fill:#808080;stroke:#808080;" x="179.436153" xlink:href="#mb66f30969c" y="89.538192"/>
     <use style="fill:#808080;stroke:#808080;" x="182.007959" xlink:href="#mb66f30969c" y="71.861579"/>
     <use style="fill:#808080;stroke:#808080;" x="182.709348" xlink:href="#mb66f30969c" y="49.993736"/>
     <use style="fill:#808080;stroke:#808080;" x="177.193186" xlink:href="#mb66f30969c" y="30.247623"/>
     <use style="fill:#808080;stroke:#808080;" x="164.72946" xlink:href="#mb66f30969c" y="19.296"/>
     <use style="fill:#808080;stroke:#808080;" x="148.208891" xlink:href="#mb66f30969c" y="20.830055"/>
     <use style="fill:#808080;stroke:#808080;" x="132.139748" xlink:href="#mb66f30969c" y="33.562677"/>
     <use style="fill:#808080;stroke:#808080;" x="119.853588" xlink:href="#mb66f30969c" y="51.6664"/>
     <use style="fill:#808080;stroke:#808080;" x="111.544171" xlink:href="#mb66f30969c" y="67.47875"/>
     <use style="fill:#808080;stroke:#808080;" x="104.264404" xlink:href="#mb66f30969c" y="75.123692"/>
     <use style="fill:#808080;stroke:#808080;" x="93.881365" xlink:href="#mb66f30969c" y="73.217744"/>
     <use style="fill:#808080;stroke:#808080;" x="77.864638" xlink:href="#mb66f30969c" y="65.309436"/>
     <use style="fill:#808080;stroke:#808080;" x="57.283824" xlink:href="#mb66f30969c" y="57.884841"/>
     <use style="fill:#808080;stroke:#808080;" x="36.799567" xlink:href="#mb66f30969c" y="57.029138"/>
     <use style="fill:#808080;stroke:#808080;" x="22.532452" xlink:href="#mb66f30969c" y="65.498609"/>
     <use style="fill:#808080;stroke:#808080;" x="18.886288" xlink:href="#mb66f30969c" y="81.684652"/>
     <use style="fill:#808080;stroke:#808080;" x="26.030093" xlink:href="#mb66f30969c" y="100.901912"/>
     <use style="fill:#808080;stroke:#808080;" x="39.451124" xlink:href="#mb66f30969c" y="118.181102"/>
     <use style="fill:#808080;stroke:#808080;" x="51.921812" xlink:href="#mb66f30969c" y="130.970113"/>
     <use style="fill:#808080;stroke:#808080;" x="56.943012" xlink:href="#mb66f30969c" y="140.256"/>
     <use style="fill:#808080;stroke:#808080;" x="51.921812" xlink:href="#mb66f30969c" y="149.541887"/>
     <use style="fill:#808080;stroke:#808080;" x="39.451124" xlink:href="#mb66f30969c" y="162.330898"/>
     <use style="fill:#808080;stroke:#808080;" x="26.030093" xlink:href="#mb66f30969c" y="179.610088"/>
     <use style="fill:#808080;stroke:#808080;" x="18.886288" xlink:href="#mb66f30969c" y="198.827348"/>
     <use style="fill:#808080;stroke:#808080;" x="22.532452" xlink:href="#mb66f30969c" y="215.013391"/>
     <use style="fill:#808080;stroke:#808080;" x="36.799567" xlink:href="#mb66f30969c" y="223.482862"/>
     <use style="fill:#808080;stroke:#808080;" x="57.283824" xlink:href="#mb66f30969c" y="222.627159"/>
     <use style="fill:#808080;stroke:#808080;" x="77.864638" xlink:href="#mb66f30969c" y="215.202564"/>
     <use style="fill:#808080;stroke:#808080;" x="93.881365" xlink:href="#mb66f30969c" y="207.294256"/>
     <use style="fill:#808080;stroke:#808080;" x="104.264404" xlink:href="#mb66f30969c" y="205.388308"/>
     <use style="fill:#808080;stroke:#808080;" x="111.544171" xlink:href="#mb66f30969c" y="213.03325"/>
     <use style="fill:#808080;stroke:#808080;" x="119.853588" xlink:href="#mb66f30969c" y="228.8456"/>
     <use style="fill:#808080;stroke:#808080;" x="132.139748" xlink:href="#mb66f30969c" y="246.949323"/>
     <use style="fill:#808080;stroke:#808080;" x="148.208891" xlink:href="#mb66f30969c" y="259.681945"/>
     <use style="fill:#808080;stroke:#808080;" x="164.72946" xlink:href="#mb66f30969c" y="261.216"/>
     <use style="fill:#808080;stroke:#808080;" x="177.193186" xlink:href="#mb66f30969c" y="250.264377"/>
     <use style="fill:#808080;stroke:#808080;" x="182.709348" xlink:href="#mb66f30969c" y="230.518264"/>
     <use style="fill:#808080;stroke:#808080;" x="182.007959" xlink:href="#mb66f30969c" y="208.650421"/>
     <use style="fill:#808080;stroke:#808080;" x="179.436153" xlink:href="#mb66f30969c" y="190.973808"/>
     <use style="fill:#808080;stroke:#808080;" x="180.832024" xlink:href="#mb66f30969c" y="180.50998"/>
     <use style="fill:#808080;stroke:#808080;" x="190.352367" xlink:href="#mb66f30969c" y="175.948927"/>
     <use style="fill:#808080;stroke:#808080;" x="207.958558" xlink:href="#mb66f30969c" y="172.932487"/>
     <use style="fill:#808080;stroke:#808080;" x="228.972853" xlink:href="#mb66f30969c" y="166.842012"/>
     <use style="fill:#808080;stroke:#808080;" x="246.047935" xlink:href="#mb66f30969c" y="155.493946"/>
     <use style="fill:#808080;stroke:#808080;" x="252.612044" xlink:href="#mb66f30969c" y="140.256"/>
    </g>
   </g>
   <g id="line2d_3"/>
   <g id="line2d_4">
    <path clip-path="url(#pb8d7cdff0d)" d="M 252.612044 140.256 
L 246.047935 125.018054 
L 228.972853 113.669988 
L 207.958558 107.579513 
L 190.352367 104.563073 
L 180.832024 100.00202 
L 179.436153 89.538192 
L 182.007959 71.861579 
L 182.709348 49.993736 
L 177.193186 30.247623 
L 164.72946 19.296 
L 148.208891 20.830055 
L 132.139748 33.562677 
L 119.853588 51.6664 
L 111.544171 67.47875 
L 104.264404 75.123692 
L 93.881365 73.217744 
L 77.864638 65.309436 
L 57.283824 57.884841 
L 36.799567 57.029138 
L 22.532452 65.498609 
L 18.886288 81.684652 
L 26.030093 100.901912 
L 39.451124 118.181102 
L 56.943012 140.256 
" style="fill:none;stroke:#1f77b4;stroke-linecap:square;stroke-width:1.5;"/>
   </g>
   <g id="line2d_5">
    <path clip-path="url(#pb8d7cdff0d)" d="M 56.943012 140.256 
L 51.921812 149.541887 
L 39.451124 162.330898 
L 26.030093 179.610088 
L 18.886288 198.827348 
L 22.532452 215.013391 
L 36.799567 223.482862 
L 57.283824 222.627159 
L 77.864638 215.202564 
L 93.881365 207.294256 
L 104.264404 205.388308 
L 111.544171 213.03325 
L 119.853588 228.8456 
L 132.139748 246.949323 
L 148.208891 259.681945 
L 164.72946 261.216 
L 177.193186 250.264377 
L 182.709348 230.518264 
L 182.007959 208.650421 
L 179.436153 190.973808 
L 180.832024 180.50998 
L 190.352367 175.948927 
L 207.958558 172.932487 
L 228.972853 166.842012 
L 246.047935 155.493946 
L 252.612044 140.256 
" style="fill:none;stroke:#ff7f0e;stroke-linecap:square;stroke-width:1.5;"/>
   </g>
   <g id="legend_1">
    <g id="patch_2">
     <path d="M 189.131144 44.55625 
L 257.298332 44.55625 
Q 259.298332 44.55625 259.298332 42.55625 
L 259.298332 14.2 
Q 259.298332 12.2 257.298332 12.2 
L 189.131144 12.2 
Q 187.131144 12.2 187.131144 14.2 
L 187.131144 42.55625 
Q 187.131144 44.55625 189.131144 44.55625 
z
" style="fill:#ffffff;opacity:0.8;stroke:#cccccc;stroke-linejoin:miter;"/>
    </g>
    <g id="line2d_6">
     <path d="M 191.131144 20.298437 
L 211.131144 20.298437 
" style="fill:none;stroke:#1f77b4;stroke-linecap:square;stroke-width:1.5;"/>
    </g>
    <g id="line2d_7"/>
    <g id="text_1">
     <!-- top -->
     <defs>
      <path d="M 18.3125 70.21875 
L 18.3125 54.6875 
L 36.8125 54.6875 
L 36.8125 47.703125 
L 18.3125 47.703125 
L 18.3125 18.015625 
Q 18.3125 11.328125 20.140625 9.421875 
Q 21.96875 7.515625 27.59375 7.515625 
L 36.8125 7.515625 
L 36.8125 0 
L 27.59375 0 
Q 17.1875 0 13.234375 3.875 
Q 9.28125 7.765625 9.28125 18.015625 
L 9.28125 47.703125 
L 2.6875 47.703125 
L 2.6875 54.6875 
L 9.28125 54.6875 
L 9.28125 70.21875 
z
" id="DejaVuSans-116"/>
      <path d="M 30.609375 48.390625 
Q 23.390625 48.390625 19.1875 42.75 
Q 14.984375 37.109375 14.984375 27.296875 
Q 14.984375 17.484375 19.15625 11.84375 
Q 23.34375 6.203125 30.609375 6.203125 
Q 37.796875 6.203125 41.984375 11.859375 
Q 46.1875 17.53125 46.1875 27.296875 
Q 46.1875 37.015625 41.984375 42.703125 
Q 37.796875 48.390625 30.609375 48.390625 
z
M 30.609375 56 
Q 42.328125 56 49.015625 48.375 
Q 55.71875 40.765625 55.71875 27.296875 
Q 55.71875 13.875 49.015625 6.21875 
Q 42.328125 -1.421875 30.609375 -1.421875 
Q 18.84375 -1.421875 12.171875 6.21875 
Q 5.515625 13.875 5.515625 27.296875 
Q 5.515625 40.765625 12.171875 48.375 
Q 18.84375 56 30.609375 56 
z
" id="DejaVuSans-111"/>
      <path d="M 18.109375 8.203125 
L 18.109375 -20.796875 
L 9.078125 -20.796875 
L 9.078125 54.6875 
L 18.109375 54.6875 
L 18.109375 46.390625 
Q 20.953125 51.265625 25.265625 53.625 
Q 29.59375 56 35.59375 56 
Q 45.5625 56 51.78125 48.09375 
Q 58.015625 40.1875 58.015625 27.296875 
Q 58.015625 14.40625 51.78125 6.484375 
Q 45.5625 -1.421875 35.59375 -1.421875 
Q 29.59375 -1.421875 25.265625 0.953125 
Q 20.953125 3.328125 18.109375 8.203125 
z
M 48.6875 27.296875 
Q 48.6875 37.203125 44.609375 42.84375 
Q 40.53125 48.484375 33.40625 48.484375 
Q 26.265625 48.484375 22.1875 42.84375 
Q 18.109375 37.203125 18.109375 27.296875 
Q 18.109375 17.390625 22.1875 11.75 
Q 26.265625 6.109375 33.40625 6.109375 
Q 40.53125 6.109375 44.609375 11.75 
Q 48.6875 17.390625 48.6875 27.296875 
z
" id="DejaVuSans-112"/>
     </defs>
     <g transform="translate(219.131144 23.798437)scale(0.1 -0.1)">
      <use xlink:href="#DejaVuSans-116"/>
      <use x="39.208984" xlink:href="#DejaVuSans-111"/>
      <use x="100.390625" xlink:href="#DejaVuSans-112"/>
     </g>
    </g>
    <g id="line2d_8">
     <path d="M 191.131144 34.976562 
L 211.131144 34.976562 
" style="fill:none;stroke:#ff7f0e;stroke-linecap:square;stroke-width:1.5;"/>
    </g>
    <g id="line2d_9"/>
    <g id="text_2">
     <!-- bottom -->
     <defs>
      <path d="M 48.6875 27.296875 
Q 48.6875 37.203125 44.609375 42.84375 
Q 40.53125 48.484375 33.40625 48.484375 
Q 26.265625 48.484375 22.1875 42.84375 
Q 18.109375 37.203125 18.109375 27.296875 
Q 18.109375 17.390625 22.1875 11.75 
Q 26.265625 6.109375 33.40625 6.109375 
Q 40.53125 6.109375 44.609375 11.75 
Q 48.6875 17.390625 48.6875 27.296875 
z
M 18.109375 46.390625 
Q 20.953125 51.265625 25.265625 53.625 
Q 29.59375 56 35.59375 56 
Q 45.5625 56 51.78125 48.09375 
Q 58.015625 40.1875 58.015625 27.296875 
Q 58.015625 14.40625 51.78125 6.484375 
Q 45.5625 -1.421875 35.59375 -1.421875 
Q 29.59375 -1.421875 25.265625 0.953125 
Q 20.953125 3.328125 18.109375 8.203125 
L 18.109375 0 
L 9.078125 0 
L 9.078125 75.984375 
L 18.109375 75.984375 
z
" id="DejaVuSans-98"/>
      <path d="M 52 44.1875 
Q 55.375 50.25 60.0625 53.125 
Q 64.75 56 71.09375 56 
Q 79.640625 56 84.28125 50.015625 
Q 88.921875 44.046875 88.921875 33.015625 
L 88.921875 0 
L 79.890625 0 
L 79.890625 32.71875 
Q 79.890625 40.578125 77.09375 44.375 
Q 74.3125 48.1875 68.609375 48.1875 
Q 61.625 48.1875 57.5625 43.546875 
Q 53.515625 38.921875 53.515625 30.90625 
L 53.515625 0 
L 44.484375 0 
L 44.484375 32.71875 
Q 44.484375 40.625 41.703125 44.40625 
Q 38.921875 48.1875 33.109375 48.1875 
Q 26.21875 48.1875 22.15625 43.53125 
Q 18.109375 38.875 18.109375 30.90625 
L 18.109375 0 
L 9.078125 0 
L 9.078125 54.6875 
L 18.109375 54.6875 
L 18.109375 46.1875 
Q 21.1875 51.21875 25.484375 53.609375 
Q 29.78125 56 35.6875 56 
Q 41.65625 56 45.828125 52.96875 
Q 50 49.953125 52 44.1875 
z
" id="DejaVuSans-109"/>
     </defs>
     <g transform="translate(219.131144 38.476562)scale(0.1 -0.1)">
      <use xlink:href="#DejaVuSans-98"/>
      <use x="63.476562" xlink:href="#DejaVuSans-111"/>
      <use x="124.658203" xlink:href="#DejaVuSans-116"/>
      <use x="163.867188" xlink:href="#DejaVuSans-116"/>
      <use x="203.076172" xlink:href="#DejaVuSans-111"/>
      <use x="264.257812" xlink:href="#DejaVuSans-109"/>
     </g>
    </g>
   </g>
  </g>
 </g>
 <defs>
  <clipPath id="pb8d7cdff0d">
   <rect height="266.112" width="257.098332" x="7.2" y="7.2"/>
  </clipPath>
 </defs>
</svg>
