<?xml version="1.0" encoding="utf-8" standalone="no"?>
<!DOCTYPE svg PUBLIC "-//W3C//DTD SVG 1.1//EN"
  "http://www.w3.org/Graphics/SVG/1.1/DTD/svg11.dtd">
<!-- Created with matplotlib (http://matplotlib.org/) -->
<svg height="287pt" version="1.1" viewBox="0 0 378 287" width="378pt" xmlns="http://www.w3.org/2000/svg" xmlns:xlink="http://www.w3.org/1999/xlink">
 <defs>
  <style type="text/css">
*{stroke-linecap:butt;stroke-linejoin:round;}
  </style>
 </defs>
 <g id="figure_1">
  <g id="patch_1">
   <path d="M 0 287.512 
L 378.52 287.512 
L 378.52 0 
L 0 0 
z
" style="fill:#ffffff;"/>
  </g>
  <g id="axes_1">
   <g id="PathCollection_1">
    <path clip-path="url(#peaf78c8990)" d="M 177.684321 157.28283 
L 179.006047 156.788581 
L 181.427116 155.91553 
L 183.276023 155.077033 
L 183.791644 154.831374 
L 184.954766 154.341327 
L 187.666268 152.986769 
L 189.805588 152.008436 
L 191.060772 151.334157 
L 194.477475 149.656708 
L 194.716109 149.533596 
L 197.896799 147.744682 
L 198.226795 147.582734 
L 198.858268 147.29909 
L 201.715084 145.230941 
L 205.459025 142.587571 
L 205.911809 142.115321 
L 206.178792 141.766406 
L 208.843228 137.962118 
L 209.527127 135.91241 
L 209.998629 133.411524 
L 209.307459 128.932553 
L 209.181448 128.176989 
L 208.373268 126.646306 
L 206.629555 123.532865 
L 205.91574 122.686787 
L 202.245724 118.601456 
L 201.94156 118.34035 
L 201.29347 117.846056 
L 197.642965 115.206994 
L 195.30491 113.740436 
L 193.541662 112.861149 
L 192.350192 112.364666 
L 189.031937 111.133465 
L 185.493589 110.159265 
L 184.52189 109.968822 
L 180.308039 109.556777 
L 179.602834 109.54143 
L 174.910392 109.982361 
L 173.685665 110.204657 
L 171.063822 110.986909 
L 168.482898 111.974048 
L 167.119258 112.638751 
L 165.438956 113.663631 
L 163.664075 114.919913 
L 162.164755 116.13705 
L 160.740283 117.522574 
L 159.742316 118.601456 
L 158.074341 120.845999 
L 156.373496 123.431358 
L 155.973913 124.284751 
L 154.498673 127.934308 
L 154.119156 129.162334 
L 153.339566 132.543647 
L 152.998181 134.992105 
L 152.835408 136.822388 
L 152.932136 142.358143 
L 152.941607 142.723521 
L 152.967529 142.93426 
L 153.928365 146.957731 
L 154.550649 149.155295 
L 155.89196 152.11899 
L 156.600904 153.762219 
L 157.822065 155.572702 
L 158.982038 156.610947 
L 162.73851 159.032472 
L 164.317572 159.451603 
L 166.893134 159.788194 
L 171.554474 159.335557 
L 171.942871 159.298099 
L 172.169046 159.273837 
L 175.365981 158.019584 
" style="fill:#48186a;"/>
   </g>
   <g id="PathCollection_2">
    <path clip-path="url(#peaf78c8990)" d="M 175.365981 158.019584 
L 172.169046 159.273837 
L 171.942871 159.298099 
L 171.554474 159.335557 
L 166.893134 159.788194 
L 164.317572 159.451603 
L 162.73851 159.032472 
L 158.982038 156.610947 
L 157.822065 155.572702 
L 156.600904 153.762219 
L 155.89196 152.11899 
L 154.550649 149.155295 
L 153.928365 146.957731 
L 152.967529 142.93426 
L 152.941607 142.723521 
L 152.932136 142.358143 
L 152.835408 136.822388 
L 152.998181 134.992105 
L 153.339566 132.543647 
L 154.119156 129.162334 
L 154.498673 127.934308 
L 155.973913 124.284751 
L 156.373496 123.431358 
L 158.074341 120.845999 
L 159.742316 118.601456 
L 160.740283 117.522574 
L 162.164755 116.13705 
L 163.664075 114.919913 
L 165.438956 113.663631 
L 167.119258 112.638751 
L 168.482898 111.974048 
L 171.063822 110.986909 
L 173.685665 110.204657 
L 174.910392 109.982361 
L 179.602834 109.54143 
L 180.308039 109.556777 
L 184.52189 109.968822 
L 185.493589 110.159265 
L 189.031937 111.133465 
L 192.350192 112.364666 
L 193.541662 112.861149 
L 195.30491 113.740436 
L 197.642965 115.206994 
L 201.29347 117.846056 
L 201.94156 118.34035 
L 202.245724 118.601456 
L 205.91574 122.686787 
L 206.629555 123.532865 
L 208.373268 126.646306 
L 209.181448 128.176989 
L 209.307459 128.932553 
L 209.998629 133.411524 
L 209.527127 135.91241 
L 208.843228 137.962118 
L 206.178792 141.766406 
L 205.911809 142.115321 
L 205.459025 142.587571 
L 201.715084 145.230941 
L 198.858268 147.29909 
L 198.226795 147.582734 
L 197.896799 147.744682 
L 194.716109 149.533596 
L 194.477475 149.656708 
L 191.060772 151.334157 
L 189.805588 152.008436 
L 187.666268 152.986769 
L 184.954766 154.341327 
L 183.791644 154.831374 
L 183.276023 155.077033 
L 181.427116 155.91553 
L 179.006047 156.788581 
L 177.684321 157.28283 
M 234.494412 143.377714 
L 234.59505 143.066826 
L 235.839999 138.098214 
L 235.809249 135.985887 
L 235.63682 133.330359 
L 234.133345 128.946373 
L 233.894983 128.245868 
L 230.828992 123.672865 
L 230.66986 123.421683 
L 226.844036 119.380433 
L 226.169529 118.601456 
L 223.049212 115.815355 
L 220.98999 113.769343 
L 218.961959 112.013483 
L 215.922066 109.263234 
L 215.3409 108.762763 
L 212.620746 106.618986 
L 210.598508 104.881413 
L 209.010512 103.706001 
L 207.482261 102.605394 
L 205.755496 101.553431 
L 201.849996 99.279252 
L 200.635939 98.667714 
L 197.996023 97.597302 
L 195.189865 96.51625 
L 193.070482 95.742192 
L 190.912912 95.074725 
L 189.67897 94.741761 
L 189.144245 94.592009 
L 184.921739 93.639361 
L 183.809389 93.432121 
L 178.803143 92.909453 
L 176.613113 92.799982 
L 172.858759 92.974008 
L 172.310732 93.053468 
L 168.952424 93.726646 
L 165.713197 94.67778 
L 164.504473 95.063593 
L 163.959185 95.277635 
L 161.169138 96.636693 
L 156.219585 99.276945 
L 156.20101 99.288229 
L 156.185319 99.298592 
L 156.111046 99.353265 
L 151.914968 102.506012 
L 150.541182 103.673455 
L 147.986005 106.115982 
L 146.21386 108.191389 
L 145.165118 109.540777 
L 143.318227 112.274265 
L 142.266796 114.133497 
L 140.724023 117.346302 
L 140.246604 118.601456 
L 139.085774 122.217406 
L 138.723104 123.606043 
L 137.945485 127.2953 
L 137.720801 128.638623 
L 137.169248 132.969363 
L 137.096692 133.787303 
L 137.07934 134.375417 
L 136.943948 137.45424 
L 136.917206 138.972763 
L 136.923728 139.265548 
L 137.17251 143.772548 
L 137.238134 145.583026 
L 137.513726 148.105578 
L 137.794673 151.703768 
L 137.88819 152.403288 
L 138.048199 154.015878 
L 138.493349 156.581758 
L 138.658645 157.711959 
L 139.270335 161.80812 
L 139.755398 163.816478 
L 140.342625 166.874206 
L 141.46458 170.612041 
L 141.936734 172.450111 
L 142.983298 174.73783 
L 144.071739 176.67332 
L 145.413133 178.548261 
L 146.202491 179.663319 
L 146.757785 180.349013 
L 149.514769 182.459798 
L 150.547325 183.251047 
L 154.956628 184.71214 
L 155.601925 184.942222 
L 156.688731 184.974873 
L 159.768625 184.919857 
L 163.726615 183.726529 
L 165.604215 183.113284 
L 169.053616 180.976275 
L 172.236066 179.031205 
L 173.567619 177.866634 
L 175.30596 176.492325 
L 177.617458 174.617894 
L 178.970535 173.736178 
L 181.866314 171.25799 
L 184.755874 169.39541 
L 186.263756 168.258092 
L 190.663902 165.721376 
L 191.745071 165.101791 
L 195.356942 163.618759 
L 197.493542 162.605714 
L 198.068871 162.360795 
L 201.377145 161.269955 
L 201.832297 161.101472 
L 203.145363 160.729824 
L 207.260863 159.447273 
L 208.236371 159.244322 
L 212.343678 158.052829 
L 213.100683 157.913636 
L 215.223646 157.368318 
L 219.469198 155.764644 
L 222.844516 154.142025 
L 224.440608 153.475327 
L 225.884253 152.693597 
L 229.723626 149.677326 
L 230.615329 148.960027 
L 231.299717 148.188263 
L 233.790265 144.440472 
" style="fill:#424086;"/>
   </g>
   <g id="PathCollection_3">
    <path clip-path="url(#peaf78c8990)" d="M 233.790265 144.440472 
L 231.299717 148.188263 
L 230.615329 148.960027 
L 229.723626 149.677326 
L 225.884253 152.693597 
L 224.440608 153.475327 
L 222.844516 154.142025 
L 219.469198 155.764644 
L 215.223646 157.368318 
L 213.100683 157.913636 
L 212.343678 158.052829 
L 208.236371 159.244322 
L 207.260863 159.447273 
L 203.145363 160.729824 
L 201.832297 161.101472 
L 201.377145 161.269955 
L 198.068871 162.360795 
L 197.493542 162.605714 
L 195.356942 163.618759 
L 191.745071 165.101791 
L 190.663902 165.721376 
L 186.263756 168.258092 
L 184.755874 169.39541 
L 181.866314 171.25799 
L 178.970535 173.736178 
L 177.617458 174.617894 
L 175.30596 176.492325 
L 173.567619 177.866634 
L 172.236066 179.031205 
L 169.053616 180.976275 
L 165.604215 183.113284 
L 163.726615 183.726529 
L 159.768625 184.919857 
L 156.688731 184.974873 
L 155.601925 184.942222 
L 154.956628 184.71214 
L 150.547325 183.251047 
L 149.514769 182.459798 
L 146.757785 180.349013 
L 146.202491 179.663319 
L 145.413133 178.548261 
L 144.071739 176.67332 
L 142.983298 174.73783 
L 141.936734 172.450111 
L 141.46458 170.612041 
L 140.342625 166.874206 
L 139.755398 163.816478 
L 139.270335 161.80812 
L 138.658645 157.711959 
L 138.493349 156.581758 
L 138.048199 154.015878 
L 137.88819 152.403288 
L 137.794673 151.703768 
L 137.513726 148.105578 
L 137.238134 145.583026 
L 137.17251 143.772548 
L 136.923728 139.265548 
L 136.917206 138.972763 
L 136.943948 137.45424 
L 137.07934 134.375417 
L 137.096692 133.787303 
L 137.169248 132.969363 
L 137.720801 128.638623 
L 137.945485 127.2953 
L 138.723104 123.606043 
L 139.085774 122.217406 
L 140.246604 118.601456 
L 140.724023 117.346302 
L 142.266796 114.133497 
L 143.318227 112.274265 
L 145.165118 109.540777 
L 146.21386 108.191389 
L 147.986005 106.115982 
L 150.541182 103.673455 
L 151.914968 102.506012 
L 156.111046 99.353265 
L 156.185319 99.298592 
L 156.20101 99.288229 
L 156.219585 99.276945 
L 161.169138 96.636693 
L 163.959185 95.277635 
L 164.504473 95.063593 
L 165.713197 94.67778 
L 168.952424 93.726646 
L 172.310732 93.053468 
L 172.858759 92.974008 
L 176.613113 92.799982 
L 178.803143 92.909453 
L 183.809389 93.432121 
L 184.921739 93.639361 
L 189.144245 94.592009 
L 189.67897 94.741761 
L 190.912912 95.074725 
L 193.070482 95.742192 
L 195.189865 96.51625 
L 197.996023 97.597302 
L 200.635939 98.667714 
L 201.849996 99.279252 
L 205.755496 101.553431 
L 207.482261 102.605394 
L 209.010512 103.706001 
L 210.598508 104.881413 
L 212.620746 106.618986 
L 215.3409 108.762763 
L 215.922066 109.263234 
L 218.961959 112.013483 
L 220.98999 113.769343 
L 223.049212 115.815355 
L 226.169529 118.601456 
L 226.844036 119.380433 
L 230.66986 123.421683 
L 230.828992 123.672865 
L 233.894983 128.245868 
L 234.133345 128.946373 
L 235.63682 133.330359 
L 235.809249 135.985887 
L 235.839999 138.098214 
L 234.59505 143.066826 
L 234.494412 143.377714 
M 254.742391 133.778198 
L 254.295801 130.913202 
L 253.380894 127.456538 
L 253.100117 126.655646 
L 251.938862 124.407653 
L 251.052251 122.658254 
L 250.709516 122.16643 
L 247.583553 118.601456 
L 247.243181 118.311546 
L 246.788674 118.015234 
L 243.417296 115.580996 
L 240.187029 113.622909 
L 239.193533 113.169283 
L 238.52424 112.85285 
L 234.019414 110.599682 
L 230.976888 108.596235 
L 230.907296 108.557337 
L 227.635983 106.499867 
L 225.423844 104.556661 
L 224.661933 103.879859 
L 222.300721 101.749738 
L 220.253001 99.605857 
L 219.264037 98.435454 
L 216.543198 95.619938 
L 215.473502 94.599482 
L 214.885561 94.147086 
L 211.421977 91.417163 
L 207.644351 89.372238 
L 207.09216 89.07705 
L 206.991437 89.051885 
L 206.742014 88.961478 
L 202.997171 87.712728 
L 201.497861 87.153835 
L 199.087518 86.57418 
L 197.115212 85.942445 
L 194.863018 85.356086 
L 191.349676 84.162558 
L 189.936207 83.699187 
L 186.127758 82.522209 
L 185.329708 82.167327 
L 181.308908 80.987347 
L 179.272354 80.453084 
L 178.540854 80.382832 
L 175.47892 79.948452 
L 171.150277 80.029109 
L 171.019961 80.035264 
L 170.903331 80.057861 
L 166.690985 80.949153 
L 164.51422 81.686548 
L 163.671598 82.046649 
L 160.015461 83.704647 
L 159.111728 84.230854 
L 157.660895 85.046236 
L 154.155738 87.010488 
L 151.46285 88.674731 
L 149.419293 89.981735 
L 147.170787 91.478873 
L 144.31928 93.446975 
L 143.62764 93.957419 
L 140.792207 96.256446 
L 139.871816 97.11744 
L 136.631675 100.286356 
L 136.53091 100.398667 
L 136.331229 100.648229 
L 133.968337 103.626586 
L 132.968339 105.185586 
L 131.217239 108.201522 
L 130.727256 109.281145 
L 129.098961 113.663026 
L 129.035063 113.900733 
L 128.947998 114.304514 
L 128.006872 118.601456 
L 127.622462 120.593908 
L 127.288832 123.289319 
L 126.845255 126.728036 
L 126.760032 127.856695 
L 126.683803 128.773675 
L 126.405744 133.592318 
L 126.361045 135.043676 
L 126.339378 139.544724 
L 126.38972 140.821657 
L 126.532053 143.137678 
L 126.647638 144.474115 
L 126.706093 145.411563 
L 127.123463 148.078477 
L 127.4088 151.216831 
L 127.619298 152.669634 
L 128.054929 157.042842 
L 128.144386 158.367467 
L 128.437237 162.699167 
L 128.392187 163.937303 
L 128.404522 168.541439 
L 128.20579 171.014898 
L 128.293835 173.659951 
L 128.162586 176.863546 
L 128.539307 179.883881 
L 128.631375 181.912812 
L 128.906367 184.166566 
L 129.364782 185.542651 
L 130.273714 188.027644 
L 130.712837 189.257571 
L 132.261837 191.964079 
L 132.976564 193.12778 
L 133.96896 194.440425 
L 135.535491 196.114499 
L 137.774012 198.215946 
L 139.924741 199.823672 
L 142.367945 201.342029 
L 144.610633 202.517868 
L 147.83949 203.80602 
L 148.33444 203.98721 
L 152.835954 204.938637 
L 153.161058 204.992827 
L 154.831118 204.993034 
L 158.323098 204.994453 
L 158.918421 204.922908 
L 160.039702 204.657795 
L 162.564326 204.056666 
L 165.922524 202.665165 
L 166.471855 202.436851 
L 169.907491 200.046768 
L 170.56465 199.590242 
L 170.617861 199.533517 
L 170.72566 199.412094 
L 174.71431 195.259442 
L 175.607211 193.936577 
L 177.467848 191.600565 
L 179.823351 188.443623 
L 180.438888 187.408504 
L 180.700035 186.943967 
L 183.107951 183.374778 
L 184.864605 181.064672 
L 186.168916 179.382679 
L 187.769676 177.91324 
L 189.775065 175.594184 
L 193.614843 172.989878 
L 193.897285 172.766258 
L 194.105413 172.663036 
L 198.753816 170.314659 
L 200.186042 169.868556 
L 203.530575 169.018331 
L 206.708636 168.665007 
L 207.410072 168.690934 
L 210.17549 168.382782 
L 214.873227 168.361243 
L 215.287375 168.381933 
L 215.691117 168.383011 
L 220.798912 167.94713 
L 223.431538 167.631056 
L 225.559734 167.217395 
L 229.973662 166.29471 
L 230.888341 165.984383 
L 234.696859 164.784915 
L 236.015796 164.187951 
L 238.958316 162.891449 
L 242.22754 160.841003 
L 242.719709 160.52656 
L 243.034593 160.25143 
L 246.377034 157.047007 
L 248.983019 153.928172 
L 249.057041 153.815895 
L 249.212846 153.53822 
L 251.341481 149.692738 
L 252.894666 146.023813 
L 254.048227 142.22943 
L 254.186665 141.667803 
L 254.289481 141.125291 
L 254.684275 137.800418 
L 254.757303 134.125565 
L 254.758121 133.950174 
" style="fill:#33638d;"/>
   </g>
   <g id="PathCollection_4">
    <path clip-path="url(#peaf78c8990)" d="M 254.758121 133.950174 
L 254.757303 134.125565 
L 254.684275 137.800418 
L 254.289481 141.125291 
L 254.186665 141.667803 
L 254.048227 142.22943 
L 252.894666 146.023813 
L 251.341481 149.692738 
L 249.212846 153.53822 
L 249.057041 153.815895 
L 248.983019 153.928172 
L 246.377034 157.047007 
L 243.034593 160.25143 
L 242.719709 160.52656 
L 242.22754 160.841003 
L 238.958316 162.891449 
L 236.015796 164.187951 
L 234.696859 164.784915 
L 230.888341 165.984383 
L 229.973662 166.29471 
L 225.559734 167.217395 
L 223.431538 167.631056 
L 220.798912 167.94713 
L 215.691117 168.383011 
L 215.287375 168.381933 
L 214.873227 168.361243 
L 210.17549 168.382782 
L 207.410072 168.690934 
L 206.708636 168.665007 
L 203.530575 169.018331 
L 200.186042 169.868556 
L 198.753816 170.314659 
L 194.105413 172.663036 
L 193.897285 172.766258 
L 193.614843 172.989878 
L 189.775065 175.594184 
L 187.769676 177.91324 
L 186.168916 179.382679 
L 184.864605 181.064672 
L 183.107951 183.374778 
L 180.700035 186.943967 
L 180.438888 187.408504 
L 179.823351 188.443623 
L 177.467848 191.600565 
L 175.607211 193.936577 
L 174.71431 195.259442 
L 170.72566 199.412094 
L 170.617861 199.533517 
L 170.56465 199.590242 
L 169.907491 200.046768 
L 166.471855 202.436851 
L 165.922524 202.665165 
L 162.564326 204.056666 
L 160.039702 204.657795 
L 158.918421 204.922908 
L 158.323098 204.994453 
L 154.831118 204.993034 
L 153.161058 204.992827 
L 152.835954 204.938637 
L 148.33444 203.98721 
L 147.83949 203.80602 
L 144.610633 202.517868 
L 142.367945 201.342029 
L 139.924741 199.823672 
L 137.774012 198.215946 
L 135.535491 196.114499 
L 133.96896 194.440425 
L 132.976564 193.12778 
L 132.261837 191.964079 
L 130.712837 189.257571 
L 130.273714 188.027644 
L 129.364782 185.542651 
L 128.906367 184.166566 
L 128.631375 181.912812 
L 128.539307 179.883881 
L 128.162586 176.863546 
L 128.293835 173.659951 
L 128.20579 171.014898 
L 128.404522 168.541439 
L 128.392187 163.937303 
L 128.437237 162.699167 
L 128.144386 158.367467 
L 128.054929 157.042842 
L 127.619298 152.669634 
L 127.4088 151.216831 
L 127.123463 148.078477 
L 126.706093 145.411563 
L 126.647638 144.474115 
L 126.532053 143.137678 
L 126.38972 140.821657 
L 126.339378 139.544724 
L 126.361045 135.043676 
L 126.405744 133.592318 
L 126.683803 128.773675 
L 126.760032 127.856695 
L 126.845255 126.728036 
L 127.288832 123.289319 
L 127.622462 120.593908 
L 128.006872 118.601456 
L 128.947998 114.304514 
L 129.035063 113.900733 
L 129.098961 113.663026 
L 130.727256 109.281145 
L 131.217239 108.201522 
L 132.968339 105.185586 
L 133.968337 103.626586 
L 136.331229 100.648229 
L 136.53091 100.398667 
L 136.631675 100.286356 
L 139.871816 97.11744 
L 140.792207 96.256446 
L 143.62764 93.957419 
L 144.31928 93.446975 
L 147.170787 91.478873 
L 149.419293 89.981735 
L 151.46285 88.674731 
L 154.155738 87.010488 
L 157.660895 85.046236 
L 159.111728 84.230854 
L 160.015461 83.704647 
L 163.671598 82.046649 
L 164.51422 81.686548 
L 166.690985 80.949153 
L 170.903331 80.057861 
L 171.019961 80.035264 
L 171.150277 80.029109 
L 175.47892 79.948452 
L 178.540854 80.382832 
L 179.272354 80.453084 
L 181.308908 80.987347 
L 185.329708 82.167327 
L 186.127758 82.522209 
L 189.936207 83.699187 
L 191.349676 84.162558 
L 194.863018 85.356086 
L 197.115212 85.942445 
L 199.087518 86.57418 
L 201.497861 87.153835 
L 202.997171 87.712728 
L 206.742014 88.961478 
L 206.991437 89.051885 
L 207.09216 89.07705 
L 207.644351 89.372238 
L 211.421977 91.417163 
L 214.885561 94.147086 
L 215.473502 94.599482 
L 216.543198 95.619938 
L 219.264037 98.435454 
L 220.253001 99.605857 
L 222.300721 101.749738 
L 224.661933 103.879859 
L 225.423844 104.556661 
L 227.635983 106.499867 
L 230.907296 108.557337 
L 230.976888 108.596235 
L 234.019414 110.599682 
L 238.52424 112.85285 
L 239.193533 113.169283 
L 240.187029 113.622909 
L 243.417296 115.580996 
L 246.788674 118.015234 
L 247.243181 118.311546 
L 247.583553 118.601456 
L 250.709516 122.16643 
L 251.052251 122.658254 
L 251.938862 124.407653 
L 253.100117 126.655646 
L 253.380894 127.456538 
L 254.295801 130.913202 
L 254.742391 133.778198 
M 266.352838 120.326188 
L 265.642368 118.601456 
L 264.113038 115.034541 
L 263.512433 114.033242 
L 261.215853 110.394428 
L 260.939983 110.124994 
L 258.187864 107.373825 
L 256.254924 106.423571 
L 251.161657 105.042628 
L 250.544297 104.797525 
L 246.659911 104.747148 
L 245.591684 104.456581 
L 242.70006 104.116365 
L 240.641477 104.105912 
L 236.397799 103.18117 
L 235.821466 103.222472 
L 235.302609 102.910621 
L 231.961268 101.448132 
L 230.123866 99.747128 
L 229.507907 99.370158 
L 228.767816 98.092372 
L 226.614846 95.708536 
L 225.656092 94.254982 
L 224.051775 90.776551 
L 223.956472 90.521813 
L 223.884046 90.244513 
L 222.354669 87.306668 
L 220.409245 84.477078 
L 220.13897 83.689657 
L 219.6347 82.969793 
L 216.529734 80.71969 
L 215.541084 80.14296 
L 211.718011 79.263555 
L 211.450753 79.235613 
L 211.202954 79.260172 
L 205.936705 79.002058 
L 202.847607 78.612304 
L 201.521929 78.711672 
L 198.809174 78.212812 
L 195.694183 77.734572 
L 194.404532 77.25232 
L 191.694973 76.022688 
L 190.352208 75.339611 
L 186.643601 72.735551 
L 185.962963 72.44848 
L 183.306574 70.540229 
L 182.936948 70.415174 
L 179.449244 68.540597 
L 178.951752 68.275811 
L 178.891439 68.233957 
L 178.671092 68.177184 
L 173.68714 67.012106 
L 170.95671 66.921025 
L 167.798948 67.652491 
L 166.766878 67.997513 
L 163.51305 69.385994 
L 162.775152 69.878002 
L 161.979997 70.489946 
L 159.282261 72.315214 
L 157.569063 73.428867 
L 156.218957 74.754132 
L 154.541284 75.970559 
L 153.085239 77.1068 
L 152.214636 77.643779 
L 147.691452 80.811563 
L 147.058595 81.188608 
L 143.662046 83.124917 
L 142.660368 83.727976 
L 140.553248 84.808244 
L 137.222177 86.771028 
L 136.558479 87.154358 
L 133.200493 89.491058 
L 131.066084 91.243575 
L 130.042041 92.154153 
L 129.135086 93.069237 
L 126.398471 95.693792 
L 125.952306 96.265383 
L 123.043277 99.874301 
L 122.857068 100.211183 
L 120.452223 104.444538 
L 120.20525 105.190004 
L 119.150986 109.362141 
L 118.62252 114.163114 
L 118.622888 114.184192 
L 118.624184 114.204716 
L 118.690093 118.601456 
L 118.537998 122.203762 
L 118.591357 123.204145 
L 118.25231 127.924109 
L 118.203257 128.691967 
L 118.070975 129.547959 
L 117.665448 134.624604 
L 117.451296 135.930381 
L 117.400151 139.119372 
L 117.403473 140.072877 
L 117.693797 143.340692 
L 118.10724 145.846614 
L 118.63486 147.507653 
L 119.779849 152.40231 
L 120.026165 153.035599 
L 120.316131 155.221776 
L 120.786662 157.922472 
L 120.837445 158.730487 
L 120.785011 163.153586 
L 120.799702 163.766814 
L 120.768945 163.908173 
L 120.162815 168.394074 
L 118.979297 171.272555 
L 118.554939 173.104043 
L 116.975539 177.397076 
L 116.472539 178.709941 
L 116.217453 179.267034 
L 115.48501 182.859187 
L 115.325893 184.269683 
L 115.204364 187.87084 
L 115.502655 189.903 
L 115.995336 191.975566 
L 117.015433 194.858393 
L 118.114655 197.036376 
L 119.490585 199.394546 
L 120.771132 200.981719 
L 122.996247 203.666329 
L 125.462219 206.045145 
L 125.772307 206.326487 
L 128.02127 208.141648 
L 129.364158 209.192227 
L 129.563675 209.324919 
L 133.282374 211.840067 
L 133.675714 212.062901 
L 134.059216 212.32938 
L 137.776527 214.43882 
L 138.427287 214.810048 
L 139.402721 215.31984 
L 143.400287 217.129719 
L 147.980102 218.832795 
L 148.549064 219.003567 
L 149.455661 219.202366 
L 152.428704 219.792517 
L 153.633145 219.923299 
L 158.215707 220.267022 
L 159.07834 220.278591 
L 162.257631 220.064249 
L 163.883919 219.936294 
L 167.555839 219.271807 
L 167.76699 219.235961 
L 168.712289 218.870161 
L 172.216967 217.53088 
L 174.844097 215.576073 
L 176.080926 214.661949 
L 176.317437 214.334941 
L 179.684715 209.821798 
L 180.032233 209.36366 
L 180.077196 209.296299 
L 182.120986 205.294446 
L 183.279093 203.197585 
L 184.215229 201.025594 
L 185.13574 198.791607 
L 186.172593 196.58467 
L 187.355039 192.982729 
L 187.920174 191.703407 
L 188.902791 188.292143 
L 189.483459 187.05566 
L 191.456008 182.936581 
L 191.701988 182.521664 
L 192.272588 181.917007 
L 194.681706 178.528292 
L 198.276936 176.369847 
L 198.879109 176.127621 
L 202.018185 174.980375 
L 204.569476 174.594562 
L 208.744814 175.496589 
L 209.578793 175.513267 
L 210.615572 175.623346 
L 213.810008 176.441296 
L 216.519663 176.93032 
L 218.117251 177.355282 
L 221.269878 177.502034 
L 222.804176 177.549368 
L 223.349949 177.511438 
L 225.931652 177.284673 
L 228.261764 177.048649 
L 228.858485 176.97534 
L 233.249822 176.368159 
L 234.270886 176.277505 
L 237.122175 175.837894 
L 239.679298 175.65985 
L 243.270396 174.842749 
L 245.057139 174.486888 
L 248.827085 172.879392 
L 249.903661 172.398111 
L 250.311662 172.112031 
L 253.948662 169.277219 
L 254.214587 169.006657 
L 254.889522 168.147196 
L 258.14364 163.90545 
L 258.997585 162.496232 
L 260.0217 160.818081 
L 261.106638 158.648083 
L 262.310681 156.250294 
L 263.049412 154.776824 
L 264.949065 150.717679 
L 265.641603 149.097456 
L 266.060465 148.029082 
L 267.130084 145.075172 
L 267.73543 143.358952 
L 267.932067 142.903828 
L 268.908781 138.653583 
L 268.928271 138.568556 
L 269.199466 134.849629 
L 269.221168 134.559648 
L 269.188761 134.106709 
L 268.910989 130.277302 
L 268.28062 126.718635 
L 268.216201 126.430671 
L 268.152246 126.180615 
L 267.09013 122.650287 
" style="fill:#26828e;"/>
   </g>
   <g id="PathCollection_5">
    <path clip-path="url(#peaf78c8990)" d="M 267.09013 122.650287 
L 268.152246 126.180615 
L 268.216201 126.430671 
L 268.28062 126.718635 
L 268.910989 130.277302 
L 269.188761 134.106709 
L 269.221168 134.559648 
L 269.199466 134.849629 
L 268.928271 138.568556 
L 268.908781 138.653583 
L 267.932067 142.903828 
L 267.73543 143.358952 
L 267.130084 145.075172 
L 266.060465 148.029082 
L 265.641603 149.097456 
L 264.949065 150.717679 
L 263.049412 154.776824 
L 262.310681 156.250294 
L 261.106638 158.648083 
L 260.0217 160.818081 
L 258.997585 162.496232 
L 258.14364 163.90545 
L 254.889522 168.147196 
L 254.214587 169.006657 
L 253.948662 169.277219 
L 250.311662 172.112031 
L 249.903661 172.398111 
L 248.827085 172.879392 
L 245.057139 174.486888 
L 243.270396 174.842749 
L 239.679298 175.65985 
L 237.122175 175.837894 
L 234.270886 176.277505 
L 233.249822 176.368159 
L 228.858485 176.97534 
L 228.261764 177.048649 
L 225.931652 177.284673 
L 223.349949 177.511438 
L 222.804176 177.549368 
L 221.269878 177.502034 
L 218.117251 177.355282 
L 216.519663 176.93032 
L 213.810008 176.441296 
L 210.615572 175.623346 
L 209.578793 175.513267 
L 208.744814 175.496589 
L 204.569476 174.594562 
L 202.018185 174.980375 
L 198.879109 176.127621 
L 198.276936 176.369847 
L 194.681706 178.528292 
L 192.272588 181.917007 
L 191.701988 182.521664 
L 191.456008 182.936581 
L 189.483459 187.05566 
L 188.902791 188.292143 
L 187.920174 191.703407 
L 187.355039 192.982729 
L 186.172593 196.58467 
L 185.13574 198.791607 
L 184.215229 201.025594 
L 183.279093 203.197585 
L 182.120986 205.294446 
L 180.077196 209.296299 
L 180.032233 209.36366 
L 179.684715 209.821798 
L 176.317437 214.334941 
L 176.080926 214.661949 
L 174.844097 215.576073 
L 172.216967 217.53088 
L 168.712289 218.870161 
L 167.76699 219.235961 
L 167.555839 219.271807 
L 163.883919 219.936294 
L 162.257631 220.064249 
L 159.07834 220.278591 
L 158.215707 220.267022 
L 153.633145 219.923299 
L 152.428704 219.792517 
L 149.455661 219.202366 
L 148.549064 219.003567 
L 147.980102 218.832795 
L 143.400287 217.129719 
L 139.402721 215.31984 
L 138.427287 214.810048 
L 137.776527 214.43882 
L 134.059216 212.32938 
L 133.675714 212.062901 
L 133.282374 211.840067 
L 129.563675 209.324919 
L 129.364158 209.192227 
L 128.02127 208.141648 
L 125.772307 206.326487 
L 125.462219 206.045145 
L 122.996247 203.666329 
L 120.771132 200.981719 
L 119.490585 199.394546 
L 118.114655 197.036376 
L 117.015433 194.858393 
L 115.995336 191.975566 
L 115.502655 189.903 
L 115.204364 187.87084 
L 115.325893 184.269683 
L 115.48501 182.859187 
L 116.217453 179.267034 
L 116.472539 178.709941 
L 116.975539 177.397076 
L 118.554939 173.104043 
L 118.979297 171.272555 
L 120.162815 168.394074 
L 120.768945 163.908173 
L 120.799702 163.766814 
L 120.785011 163.153586 
L 120.837445 158.730487 
L 120.786662 157.922472 
L 120.316131 155.221776 
L 120.026165 153.035599 
L 119.779849 152.40231 
L 118.63486 147.507653 
L 118.10724 145.846614 
L 117.693797 143.340692 
L 117.403473 140.072877 
L 117.400151 139.119372 
L 117.451296 135.930381 
L 117.665448 134.624604 
L 118.070975 129.547959 
L 118.203257 128.691967 
L 118.25231 127.924109 
L 118.591357 123.204145 
L 118.537998 122.203762 
L 118.690093 118.601456 
L 118.624184 114.204716 
L 118.622888 114.184192 
L 118.62252 114.163114 
L 119.150986 109.362141 
L 120.20525 105.190004 
L 120.452223 104.444538 
L 122.857068 100.211183 
L 123.043277 99.874301 
L 125.952306 96.265383 
L 126.398471 95.693792 
L 129.135086 93.069237 
L 130.042041 92.154153 
L 131.066084 91.243575 
L 133.200493 89.491058 
L 136.558479 87.154358 
L 137.222177 86.771028 
L 140.553248 84.808244 
L 142.660368 83.727976 
L 143.662046 83.124917 
L 147.058595 81.188608 
L 147.691452 80.811563 
L 152.214636 77.643779 
L 153.085239 77.1068 
L 154.541284 75.970559 
L 156.218957 74.754132 
L 157.569063 73.428867 
L 159.282261 72.315214 
L 161.979997 70.489946 
L 162.775152 69.878002 
L 163.51305 69.385994 
L 166.766878 67.997513 
L 167.798948 67.652491 
L 170.95671 66.921025 
L 173.68714 67.012106 
L 178.671092 68.177184 
L 178.891439 68.233957 
L 178.951752 68.275811 
L 179.449244 68.540597 
L 182.936948 70.415174 
L 183.306574 70.540229 
L 185.962963 72.44848 
L 186.643601 72.735551 
L 190.352208 75.339611 
L 191.694973 76.022688 
L 194.404532 77.25232 
L 195.694183 77.734572 
L 198.809174 78.212812 
L 201.521929 78.711672 
L 202.847607 78.612304 
L 205.936705 79.002058 
L 211.202954 79.260172 
L 211.450753 79.235613 
L 211.718011 79.263555 
L 215.541084 80.14296 
L 216.529734 80.71969 
L 219.6347 82.969793 
L 220.13897 83.689657 
L 220.409245 84.477078 
L 222.354669 87.306668 
L 223.884046 90.244513 
L 223.956472 90.521813 
L 224.051775 90.776551 
L 225.656092 94.254982 
L 226.614846 95.708536 
L 228.767816 98.092372 
L 229.507907 99.370158 
L 230.123866 99.747128 
L 231.961268 101.448132 
L 235.302609 102.910621 
L 235.821466 103.222472 
L 236.397799 103.18117 
L 240.641477 104.105912 
L 242.70006 104.116365 
L 245.591684 104.456581 
L 246.659911 104.747148 
L 250.544297 104.797525 
L 251.161657 105.042628 
L 256.254924 106.423571 
L 258.187864 107.373825 
L 260.939983 110.124994 
L 261.215853 110.394428 
L 263.512433 114.033242 
L 264.113038 115.034541 
L 265.642368 118.601456 
L 266.352838 120.326188 
M 278.452448 122.689961 
L 277.096596 119.213994 
L 276.873183 118.601456 
L 276.28035 116.269377 
L 275.599346 114.001163 
L 275.551309 113.30216 
L 274.356956 106.547207 
L 274.371911 106.270713 
L 274.338784 105.888437 
L 273.044889 100.535082 
L 272.658889 98.903977 
L 270.157829 94.011198 
L 270.15477 94.005112 
L 268.414131 91.773656 
L 267.557671 90.579362 
L 265.916265 88.959305 
L 263.506819 87.190103 
L 261.375096 85.816288 
L 259.247183 85.535763 
L 256.633161 84.810333 
L 255.286021 85.72893 
L 253.1999 86.525585 
L 251.875542 89.467999 
L 249.194543 92.889948 
L 248.62588 93.443326 
L 248.379871 93.559283 
L 248.085544 93.707589 
L 244.297126 97.046489 
L 242.231388 97.597178 
L 237.095873 98.509431 
L 236.951747 98.567733 
L 236.695272 98.387576 
L 232.78825 96.061062 
L 232.323592 95.776689 
L 231.865533 94.985839 
L 230.736998 92.315989 
L 230.087589 89.457355 
L 230.819342 87.548321 
L 231.012691 84.400202 
L 232.504443 82.768168 
L 233.392622 79.80546 
L 235.294769 76.615512 
L 236.297147 76.113341 
L 238.052388 72.765053 
L 238.198358 72.080481 
L 237.817643 68.297037 
L 235.879984 66.038253 
L 233.044403 63.338611 
L 231.87828 62.522744 
L 231.508846 62.318694 
L 229.729093 61.659436 
L 227.077205 60.738692 
L 225.042423 60.545589 
L 223.439449 60.377655 
L 222.718252 60.440956 
L 219.123928 61.062482 
L 218.276598 61.582811 
L 214.992365 63.773713 
L 214.330876 64.593603 
L 213.779857 65.33209 
L 211.081855 68.141684 
L 208.578841 69.522486 
L 206.766414 71.390318 
L 203.00569 72.637455 
L 198.325987 72.920639 
L 197.85501 72.907541 
L 197.717708 72.842347 
L 193.560695 70.071888 
L 193.454606 70.003545 
L 193.355058 69.866148 
L 190.84954 67.021058 
L 189.753375 63.819905 
L 189.042352 62.982885 
L 188.334069 61.717291 
L 187.630926 59.623583 
L 186.557227 57.511124 
L 185.30408 56.244651 
L 182.358086 53.881587 
L 181.651976 53.614709 
L 177.66498 52.266363 
L 175.354275 52.111104 
L 172.575117 51.917035 
L 169.922904 52.24994 
L 167.600678 52.652255 
L 165.431204 53.352357 
L 163.884165 54.121458 
L 161.73044 55.15363 
L 160.66366 55.921876 
L 158.649326 57.405448 
L 157.725154 58.431531 
L 154.770094 61.883489 
L 154.484894 62.617048 
L 153.441656 64.975186 
L 152.207525 67.334909 
L 151.502389 68.205521 
L 148.898672 71.860549 
L 148.119994 72.79204 
L 147.288166 73.334032 
L 145.286684 75.065283 
L 142.180429 76.715942 
L 137.970227 77.664344 
L 137.916021 77.667989 
L 137.596071 77.745988 
L 133.702556 78.786223 
L 132.803555 79.238533 
L 130.633843 80.036464 
L 127.793223 82.057605 
L 127.065062 82.530715 
L 126.113561 83.336122 
L 123.416417 86.104441 
L 120.522674 88.657232 
L 119.675278 89.489396 
L 117.842664 90.903456 
L 116.238581 92.183622 
L 115.490469 92.638536 
L 112.70302 95.282214 
L 111.2145 96.67161 
L 109.611147 99.089844 
L 108.623643 100.856906 
L 107.827511 104.636933 
L 107.722652 105.128224 
L 107.813201 105.888751 
L 108.012507 109.651759 
L 109.539037 113.576853 
L 109.622458 114.114308 
L 111.291815 118.428582 
L 111.324246 118.601456 
L 111.33126 118.74973 
L 112.480781 123.149708 
L 112.159077 126.072775 
L 111.88161 127.732534 
L 110.930903 130.759344 
L 110.910392 130.912563 
L 110.854824 131.143035 
L 109.527402 135.343406 
L 108.184669 138.377113 
L 108.088214 140.062094 
L 108.225556 144.234174 
L 108.846972 146.064416 
L 110.09769 148.152258 
L 111.318957 149.230709 
L 113.081551 151.835307 
L 113.884942 153.970861 
L 115.241866 156.160088 
L 115.668572 161.173755 
L 115.762962 161.616759 
L 115.471019 162.73746 
L 115.093999 165.850221 
L 113.362346 168.216444 
L 112.0682 169.717816 
L 108.859073 172.677584 
L 108.045201 172.906971 
L 106.49843 174.213222 
L 104.406186 175.961972 
L 104.004146 176.794998 
L 101.91887 179.875804 
L 101.468049 182.040365 
L 100.9884 184.032497 
L 101.026133 185.098347 
L 101.047778 187.815396 
L 101.627742 190.802703 
L 102.004604 192.590657 
L 102.97719 195.30525 
L 103.954638 197.744614 
L 105.060994 199.946108 
L 106.470353 202.4011 
L 107.267267 203.623516 
L 108.274816 205.014795 
L 109.442732 206.575838 
L 110.726885 208.040087 
L 112.334816 209.780646 
L 114.353539 211.598392 
L 115.912944 212.965971 
L 119.600348 215.39699 
L 121.034909 216.366315 
L 124.817806 218.315603 
L 125.662445 218.752357 
L 126.319129 219.175924 
L 129.498488 220.967526 
L 130.590276 221.542441 
L 133.494917 223.542756 
L 134.911884 224.433491 
L 135.714395 225.108616 
L 139.099478 227.386024 
L 140.439822 228.21289 
L 141.752211 228.807514 
L 144.834883 230.286896 
L 146.610248 230.742004 
L 149.514044 231.466981 
L 152.412205 231.623167 
L 154.469404 231.802388 
L 157.321436 231.538833 
L 159.622679 231.551607 
L 162.509968 231.579822 
L 164.673184 231.607089 
L 167.846441 232.08492 
L 169.407475 232.10018 
L 173.54206 232.941113 
L 174.356698 232.892924 
L 178.88768 233.326046 
L 179.305883 233.211154 
L 183.481594 232.616533 
L 184.963678 231.60544 
L 187.015354 230.64404 
L 188.029678 228.857828 
L 189.189478 227.014671 
L 189.233951 224.036549 
L 189.735005 221.054346 
L 189.264664 219.199709 
L 189.21953 217.488735 
L 189.448081 214.982384 
L 190.340152 210.911665 
L 190.44613 209.773002 
L 190.497227 209.428088 
L 191.864898 205.103024 
L 192.397498 204.361369 
L 193.722954 201.18834 
L 194.706192 198.877454 
L 195.222316 195.997801 
L 194.8616 194.571239 
L 194.805493 190.68291 
L 194.799457 190.239902 
L 194.829223 190.142069 
L 195.104825 185.80437 
L 195.436945 185.005968 
L 197.283314 182.184258 
L 198.036801 180.736794 
L 202.821348 178.449519 
L 205.533332 179.771797 
L 207.537739 180.247555 
L 208.122426 180.463051 
L 209.921842 182.174419 
L 211.173797 183.276741 
L 211.605773 184.222647 
L 215.472649 186.49441 
L 216.340919 187.446011 
L 219.766216 187.290067 
L 221.533558 187.398434 
L 225.751817 185.980745 
L 226.15485 185.92429 
L 228.589595 185.283784 
L 230.741533 184.659358 
L 230.907183 184.606183 
L 232.168913 184.518606 
L 234.766411 184.20461 
L 235.142949 184.175174 
L 236.191343 184.276726 
L 240.702321 184.662499 
L 242.254171 185.297277 
L 246.014243 186.153442 
L 246.131551 186.215377 
L 246.406872 186.309704 
L 250.63581 187.055896 
L 254.040462 187.081877 
L 255.455511 186.592594 
L 258.665776 184.757272 
L 260.984307 181.633317 
L 261.634762 181.002432 
L 262.551899 179.494878 
L 263.885706 177.094096 
L 264.14575 176.352964 
L 266.008999 172.5643 
L 266.394763 171.556911 
L 266.957619 170.313466 
L 267.918893 168.151233 
L 268.820132 165.63271 
L 269.645965 163.58661 
L 270.465171 160.981754 
L 271.175141 159.288698 
L 272.232784 156.699668 
L 273.538916 154.336248 
L 274.645187 152.06678 
L 275.77392 150.860646 
L 277.844531 147.589613 
L 278.771431 146.433729 
L 280.182517 143.627587 
L 281.15482 141.724076 
L 281.456806 140.223789 
L 282.25415 136.686873 
L 282.213557 134.448814 
L 281.432066 131.05293 
L 281.234751 129.692033 
L 280.9428 128.64676 
L 280.297141 126.87604 
L 279.453203 125.331578 
" style="fill:#1fa088;"/>
   </g>
   <g id="PathCollection_6">
    <path clip-path="url(#peaf78c8990)" d="M 279.453203 125.331578 
L 280.297141 126.87604 
L 280.9428 128.64676 
L 281.234751 129.692033 
L 281.432066 131.05293 
L 282.213557 134.448814 
L 282.25415 136.686873 
L 281.456806 140.223789 
L 281.15482 141.724076 
L 280.182517 143.627587 
L 278.771431 146.433729 
L 277.844531 147.589613 
L 275.77392 150.860646 
L 274.645187 152.06678 
L 273.538916 154.336248 
L 272.232784 156.699668 
L 271.175141 159.288698 
L 270.465171 160.981754 
L 269.645965 163.58661 
L 268.820132 165.63271 
L 267.918893 168.151233 
L 266.957619 170.313466 
L 266.394763 171.556911 
L 266.008999 172.5643 
L 264.14575 176.352964 
L 263.885706 177.094096 
L 262.551899 179.494878 
L 261.634762 181.002432 
L 260.984307 181.633317 
L 258.665776 184.757272 
L 255.455511 186.592594 
L 254.040462 187.081877 
L 250.63581 187.055896 
L 246.406872 186.309704 
L 246.131551 186.215377 
L 246.014243 186.153442 
L 242.254171 185.297277 
L 240.702321 184.662499 
L 236.191343 184.276726 
L 235.142949 184.175174 
L 234.766411 184.20461 
L 232.168913 184.518606 
L 230.907183 184.606183 
L 230.741533 184.659358 
L 228.589595 185.283784 
L 226.15485 185.92429 
L 225.751817 185.980745 
L 221.533558 187.398434 
L 219.766216 187.290067 
L 216.340919 187.446011 
L 215.472649 186.49441 
L 211.605773 184.222647 
L 211.173797 183.276741 
L 209.921842 182.174419 
L 208.122426 180.463051 
L 207.537739 180.247555 
L 205.533332 179.771797 
L 202.821348 178.449519 
L 198.036801 180.736794 
L 197.283314 182.184258 
L 195.436945 185.005968 
L 195.104825 185.80437 
L 194.829223 190.142069 
L 194.799457 190.239902 
L 194.805493 190.68291 
L 194.8616 194.571239 
L 195.222316 195.997801 
L 194.706192 198.877454 
L 193.722954 201.18834 
L 192.397498 204.361369 
L 191.864898 205.103024 
L 190.497227 209.428088 
L 190.44613 209.773002 
L 190.340152 210.911665 
L 189.448081 214.982384 
L 189.21953 217.488735 
L 189.264664 219.199709 
L 189.735005 221.054346 
L 189.233951 224.036549 
L 189.189478 227.014671 
L 188.029678 228.857828 
L 187.015354 230.64404 
L 184.963678 231.60544 
L 183.481594 232.616533 
L 179.305883 233.211154 
L 178.88768 233.326046 
L 174.356698 232.892924 
L 173.54206 232.941113 
L 169.407475 232.10018 
L 167.846441 232.08492 
L 164.673184 231.607089 
L 162.509968 231.579822 
L 159.622679 231.551607 
L 157.321436 231.538833 
L 154.469404 231.802388 
L 152.412205 231.623167 
L 149.514044 231.466981 
L 146.610248 230.742004 
L 144.834883 230.286896 
L 141.752211 228.807514 
L 140.439822 228.21289 
L 139.099478 227.386024 
L 135.714395 225.108616 
L 134.911884 224.433491 
L 133.494917 223.542756 
L 130.590276 221.542441 
L 129.498488 220.967526 
L 126.319129 219.175924 
L 125.662445 218.752357 
L 124.817806 218.315603 
L 121.034909 216.366315 
L 119.600348 215.39699 
L 115.912944 212.965971 
L 114.353539 211.598392 
L 112.334816 209.780646 
L 110.726885 208.040087 
L 109.442732 206.575838 
L 108.274816 205.014795 
L 107.267267 203.623516 
L 106.470353 202.4011 
L 105.060994 199.946108 
L 103.954638 197.744614 
L 102.97719 195.30525 
L 102.004604 192.590657 
L 101.627742 190.802703 
L 101.047778 187.815396 
L 101.026133 185.098347 
L 100.9884 184.032497 
L 101.468049 182.040365 
L 101.91887 179.875804 
L 104.004146 176.794998 
L 104.406186 175.961972 
L 106.49843 174.213222 
L 108.045201 172.906971 
L 108.859073 172.677584 
L 112.0682 169.717816 
L 113.362346 168.216444 
L 115.093999 165.850221 
L 115.471019 162.73746 
L 115.762962 161.616759 
L 115.668572 161.173755 
L 115.241866 156.160088 
L 113.884942 153.970861 
L 113.081551 151.835307 
L 111.318957 149.230709 
L 110.09769 148.152258 
L 108.846972 146.064416 
L 108.225556 144.234174 
L 108.088214 140.062094 
L 108.184669 138.377113 
L 109.527402 135.343406 
L 110.854824 131.143035 
L 110.910392 130.912563 
L 110.930903 130.759344 
L 111.88161 127.732534 
L 112.159077 126.072775 
L 112.480781 123.149708 
L 111.33126 118.74973 
L 111.324246 118.601456 
L 111.291815 118.428582 
L 109.622458 114.114308 
L 109.539037 113.576853 
L 108.012507 109.651759 
L 107.813201 105.888751 
L 107.722652 105.128224 
L 107.827511 104.636933 
L 108.623643 100.856906 
L 109.611147 99.089844 
L 111.2145 96.67161 
L 112.70302 95.282214 
L 115.490469 92.638536 
L 116.238581 92.183622 
L 117.842664 90.903456 
L 119.675278 89.489396 
L 120.522674 88.657232 
L 123.416417 86.104441 
L 126.113561 83.336122 
L 127.065062 82.530715 
L 127.793223 82.057605 
L 130.633843 80.036464 
L 132.803555 79.238533 
L 133.702556 78.786223 
L 137.596071 77.745988 
L 137.916021 77.667989 
L 137.970227 77.664344 
L 142.180429 76.715942 
L 145.286684 75.065283 
L 147.288166 73.334032 
L 148.119994 72.79204 
L 148.898672 71.860549 
L 151.502389 68.205521 
L 152.207525 67.334909 
L 153.441656 64.975186 
L 154.484894 62.617048 
L 154.770094 61.883489 
L 157.725154 58.431531 
L 158.649326 57.405448 
L 160.66366 55.921876 
L 161.73044 55.15363 
L 163.884165 54.121458 
L 165.431204 53.352357 
L 167.600678 52.652255 
L 169.922904 52.24994 
L 172.575117 51.917035 
L 175.354275 52.111104 
L 177.66498 52.266363 
L 181.651976 53.614709 
L 182.358086 53.881587 
L 185.30408 56.244651 
L 186.557227 57.511124 
L 187.630926 59.623583 
L 188.334069 61.717291 
L 189.042352 62.982885 
L 189.753375 63.819905 
L 190.84954 67.021058 
L 193.355058 69.866148 
L 193.454606 70.003545 
L 193.560695 70.071888 
L 197.717708 72.842347 
L 197.85501 72.907541 
L 198.325987 72.920639 
L 203.00569 72.637455 
L 206.766414 71.390318 
L 208.578841 69.522486 
L 211.081855 68.141684 
L 213.779857 65.33209 
L 214.330876 64.593603 
L 214.992365 63.773713 
L 218.276598 61.582811 
L 219.123928 61.062482 
L 222.718252 60.440956 
L 223.439449 60.377655 
L 225.042423 60.545589 
L 227.077205 60.738692 
L 229.729093 61.659436 
L 231.508846 62.318694 
L 231.87828 62.522744 
L 233.044403 63.338611 
L 235.879984 66.038253 
L 237.817643 68.297037 
L 238.198358 72.080481 
L 238.052388 72.765053 
L 236.297147 76.113341 
L 235.294769 76.615512 
L 233.392622 79.80546 
L 232.504443 82.768168 
L 231.012691 84.400202 
L 230.819342 87.548321 
L 230.087589 89.457355 
L 230.736998 92.315989 
L 231.865533 94.985839 
L 232.323592 95.776689 
L 232.78825 96.061062 
L 236.695272 98.387576 
L 236.951747 98.567733 
L 237.095873 98.509431 
L 242.231388 97.597178 
L 244.297126 97.046489 
L 248.085544 93.707589 
L 248.379871 93.559283 
L 248.62588 93.443326 
L 249.194543 92.889948 
L 251.875542 89.467999 
L 253.1999 86.525585 
L 255.286021 85.72893 
L 256.633161 84.810333 
L 259.247183 85.535763 
L 261.375096 85.816288 
L 263.506819 87.190103 
L 265.916265 88.959305 
L 267.557671 90.579362 
L 268.414131 91.773656 
L 270.15477 94.005112 
L 270.157829 94.011198 
L 272.658889 98.903977 
L 273.044889 100.535082 
L 274.338784 105.888437 
L 274.371911 106.270713 
L 274.356956 106.547207 
L 275.551309 113.30216 
L 275.599346 114.001163 
L 276.28035 116.269377 
L 276.873183 118.601456 
L 277.096596 119.213994 
L 278.452448 122.689961 
M 282.641777 110.825269 
L 282.640913 110.818036 
L 282.642785 110.810046 
L 284.998109 106.784048 
L 285.576716 105.012162 
L 286.685382 102.205435 
L 286.806896 101.397748 
L 286.656017 99.887184 
L 286.522312 96.019466 
L 285.396692 91.759133 
L 285.199767 91.129734 
L 285.04762 90.769768 
L 283.442756 87.165466 
L 282.006399 84.599578 
L 280.517164 82.086952 
L 278.817294 79.627781 
L 277.607387 77.953461 
L 275.635843 75.450529 
L 274.42462 73.989201 
L 272.37725 71.635768 
L 271.031857 70.149863 
L 269.053646 68.108396 
L 267.393923 66.453527 
L 265.129891 64.342035 
L 263.088229 62.472493 
L 260.1517 59.848948 
L 259.317786 59.172696 
L 256.502203 56.831669 
L 255.452171 56.016984 
L 255.146228 55.776037 
L 251.408905 53.130326 
L 249.631285 51.926502 
L 247.230423 50.420324 
L 242.462278 47.520295 
L 242.431449 47.503206 
L 242.412286 47.49288 
L 238.448393 45.556196 
L 235.329771 44.071524 
L 235.073673 43.963511 
L 234.972144 43.91718 
L 229.892238 42.011809 
L 229.632935 41.918136 
L 226.86691 41.062719 
L 224.412538 40.327633 
L 224.159592 40.262592 
L 220.487212 39.491392 
L 217.031245 38.777523 
L 215.129616 38.555884 
L 211.350066 38.026546 
L 210.314218 37.96033 
L 205.408687 37.509627 
L 204.739905 37.520868 
L 204.131244 37.483829 
L 199.579343 37.404381 
L 195.494141 37.601998 
L 194.719138 37.589225 
L 194.041172 37.55647 
L 189.879034 38.23929 
L 186.980411 38.999977 
L 184.642012 39.092721 
L 182.58507 38.939038 
L 179.896679 39.124369 
L 176.560825 38.358496 
L 175.813659 38.308131 
L 175.203283 38.265604 
L 170.240804 37.805989 
L 166.573313 38.226631 
L 165.64552 38.321847 
L 164.937853 38.495684 
L 160.480299 40.128487 
L 159.023163 40.926022 
L 155.306482 43.592055 
L 155.239232 43.666005 
L 152.714342 46.189608 
L 150.030878 48.044343 
L 149.514007 48.326964 
L 147.087955 49.989052 
L 144.305614 52.341797 
L 142.236078 55.842991 
L 143.649239 59.778098 
L 143.516249 60.678611 
L 143.770813 61.791533 
L 145.480835 65.805121 
L 146.570438 66.646409 
L 145.351866 70.065759 
L 142.05101 71.618223 
L 141.227836 71.838701 
L 136.998129 72.471481 
L 133.830109 69.796375 
L 133.280731 69.753536 
L 132.053988 69.274936 
L 130.215882 67.095447 
L 127.792097 66.553068 
L 125.17739 67.715973 
L 124.241149 68.216312 
L 123.969523 68.715687 
L 121.344455 72.705115 
L 121.337847 72.78414 
L 121.339587 72.852066 
L 120.263005 76.587289 
L 118.793797 79.191062 
L 118.65117 81.390638 
L 116.670864 83.812329 
L 114.364772 84.193512 
L 112.246532 85.203678 
L 110.303664 85.713288 
L 106.37036 85.085442 
L 103.915735 85.955855 
L 101.985151 86.333816 
L 100.42681 87.484887 
L 98.117644 89.165292 
L 96.361152 91.370045 
L 94.845269 93.733374 
L 93.984869 95.482784 
L 92.522183 99.691145 
L 92.505884 99.748645 
L 92.493469 99.830848 
L 91.998037 103.469838 
L 91.827575 108.493207 
L 91.82965 108.72605 
L 91.866172 108.86479 
L 92.096454 109.816144 
L 92.817849 113.627761 
L 93.120023 114.993504 
L 94.77421 115.697191 
L 96.726739 117.574457 
L 100.841593 117.962617 
L 101.32571 118.286484 
L 101.842754 118.601456 
L 105.976061 119.411731 
L 108.010196 123.076262 
L 106.543877 127.496044 
L 106.485605 127.566702 
L 105.848578 128.442329 
L 103.285009 132.15276 
L 102.849383 132.582812 
L 97.671039 134.04777 
L 97.508354 134.192808 
L 97.022712 134.307966 
L 93.125392 134.471285 
L 90.251582 134.837209 
L 89.326745 135.770217 
L 86.894493 138.220855 
L 85.384021 142.40864 
L 84.879021 143.931144 
L 84.506391 145.853698 
L 84.310948 148.57372 
L 84.174472 150.328747 
L 84.20629 152.963981 
L 84.114148 156.384093 
L 84.156711 157.109908 
L 84.107874 159.197746 
L 84.279543 161.481473 
L 84.31881 162.066841 
L 84.548827 165.793134 
L 84.645258 167.487097 
L 84.652863 169.342802 
L 84.926686 171.829594 
L 85.296934 175.407553 
L 85.353493 176.816015 
L 85.705526 179.673817 
L 85.911089 180.653688 
L 85.999451 181.015792 
L 86.795644 184.405203 
L 87.66455 187.799694 
L 87.780193 188.226217 
L 87.82399 188.410303 
L 88.540803 190.439427 
L 89.461359 192.958137 
L 89.556373 193.162396 
L 91.44582 197.536603 
L 92.722645 200.094336 
L 93.676095 201.987418 
L 93.84371 202.287854 
L 96.303577 206.241276 
L 97.474938 207.954613 
L 99.148166 210.386582 
L 101.899041 213.953139 
L 102.188115 214.313025 
L 102.275135 214.408176 
L 102.481228 214.618946 
L 105.828339 218.052863 
L 108.686019 220.395309 
L 109.885949 221.447356 
L 110.927312 222.201771 
L 115.011875 224.243644 
L 116.467288 224.737755 
L 118.014968 224.661816 
L 120.655874 225.146041 
L 122.137561 225.666902 
L 124.883689 225.470382 
L 129.485005 229.516973 
L 129.558713 229.932106 
L 132.051996 233.66651 
L 133.545467 236.18112 
L 136.513613 238.896897 
L 138.354597 240.243146 
L 140.625619 241.402793 
L 143.173949 242.473121 
L 147.61732 243.198116 
L 148.185812 243.289057 
L 148.867428 243.164493 
L 153.136958 242.672477 
L 155.686834 241.340504 
L 158.240573 240.571096 
L 160.056405 239.031018 
L 165.655967 239.211784 
L 169.211725 242.85219 
L 170.262735 243.771698 
L 170.503474 243.903348 
L 170.757924 244.10046 
L 173.496491 246.999962 
L 175.855296 248.614842 
L 175.923668 248.664026 
L 176.102959 248.734481 
L 181.262393 250.934212 
L 185.138089 251.750356 
L 186.15094 251.924054 
L 186.756723 251.986389 
L 190.490406 252.176913 
L 192.469646 252.214781 
L 195.103903 252.094229 
L 197.737202 251.94963 
L 199.911063 251.678274 
L 202.764954 251.34206 
L 204.851885 250.950369 
L 207.685382 250.540293 
L 208.463192 250.354439 
L 211.905888 249.578994 
L 212.779594 249.354016 
L 217.124121 248.173878 
L 219.236762 247.540574 
L 221.476475 246.797343 
L 223.363026 246.127933 
L 225.945389 245.199141 
L 228.189025 244.276371 
L 231.156306 243.007054 
L 235.692458 241.015006 
L 235.700804 241.010888 
L 235.706265 241.008033 
L 235.727374 240.997266 
L 239.429374 238.85188 
L 240.41238 238.182992 
L 242.761187 236.829033 
L 245.121585 235.330835 
L 247.723386 233.66651 
L 249.160167 232.566855 
L 250.479427 231.629475 
L 253.028224 229.585742 
L 256.848341 226.576048 
L 257.283541 226.200066 
L 258.784536 224.901693 
L 260.972243 222.846784 
L 261.640463 222.230773 
L 264.063436 219.602898 
L 265.772826 217.898625 
L 266.733192 216.753883 
L 268.826947 214.314287 
L 269.861053 212.962909 
L 271.66174 210.332565 
L 272.821387 208.321265 
L 273.848364 206.257753 
L 274.915904 203.12191 
L 275.330947 201.226932 
L 275.511011 198.227627 
L 274.994732 195.138216 
L 274.957245 194.712003 
L 274.913825 194.374495 
L 273.426491 191.059796 
L 272.716271 188.510185 
L 272.272386 186.563839 
L 272.403195 185.048512 
L 272.221344 182.621665 
L 272.657768 179.988855 
L 273.415382 177.21118 
L 274.079972 175.538162 
L 275.403604 173.278494 
L 275.577513 172.78111 
L 277.120931 168.482271 
L 277.367214 167.165529 
L 277.271357 164.095289 
L 277.584559 161.772381 
L 277.254363 160.536835 
L 278.601308 156.427084 
L 282.70292 154.615373 
L 283.014832 154.284491 
L 283.369994 154.020234 
L 287.257528 153.316365 
L 288.138939 152.633695 
L 290.894789 151.568371 
L 293.139655 149.305438 
L 293.754531 148.799855 
L 294.025774 148.302302 
L 295.974271 144.222528 
L 296.24471 143.111919 
L 296.746286 139.06038 
L 296.807911 138.611492 
L 296.804701 138.425526 
L 296.534927 134.13122 
L 296.082108 132.425587 
L 295.412234 129.886911 
L 294.94042 128.844083 
L 293.839829 127.132309 
L 293.230649 126.07178 
L 290.80705 123.796804 
L 289.454227 122.285058 
L 286.779831 120.692378 
L 285.112708 118.601456 
L 283.29966 117.483083 
L 281.912477 114.467282 
M 204.239066 206.609094 
L 204.818549 206.612452 
L 205.010213 206.751734 
L 205.097984 207.01868 
L 208.223704 211.084122 
L 207.782787 214.56703 
L 205.015211 218.95507 
L 204.940649 219.302751 
L 199.637894 219.962285 
L 196.960262 218.075207 
L 196.176823 213.897542 
L 195.898801 212.266288 
L 196.631416 208.460483 
L 200.161441 205.439175 
M 242.741207 90.334162 
L 242.410235 90.963459 
L 240.489958 94.620146 
L 236.844571 96.094788 
L 234.564055 94.492869 
L 234.447682 91.189991 
L 234.988577 90.182441 
L 236.003972 86.78028 
L 240.33276 84.754122 
L 243.227153 86.78901 
M 198.897043 184.274906 
L 200.188437 181.794109 
L 202.598678 180.641882 
L 204.998646 181.812031 
L 205.742283 185.477239 
L 205.609307 185.903527 
L 204.774123 190.231424 
L 199.741262 191.48634 
L 197.856275 189.01951 
L 198.227887 186.502003 
M 196.340667 68.833825 
L 195.583138 65.753431 
L 195.909744 64.453991 
L 196.530831 60.534589 
L 201.35733 57.954301 
L 204.69602 60.7289 
L 204.314664 64.603873 
L 204.158909 65.262052 
L 202.240359 69.101573 
L 198.547194 70.273869 
M 230.459978 189.998426 
L 233.966886 189.129519 
L 236.813285 189.780556 
L 237.787433 191.092124 
L 241.022965 192.929347 
L 241.572013 193.206256 
L 244.77562 196.84012 
L 244.806428 198.767506 
L 245.206153 200.436498 
L 244.453639 202.142314 
L 243.467665 204.172117 
L 240.111768 206.590242 
L 239.647235 206.667033 
L 235.079567 207.371666 
L 231.280722 205.728565 
L 230.691147 205.39453 
L 227.972936 203.119725 
L 227.013407 200.364115 
L 226.494419 199.270887 
L 226.702982 198.393981 
L 227.05816 194.658931 
L 227.744409 193.473363 
L 228.857674 192.59543 
M 105.291591 164.548314 
L 103.1798 163.784642 
L 101.212197 161.281923 
L 102.304333 158.584282 
L 102.083071 157.755589 
L 105.078692 154.415432 
L 110.332522 154.919999 
L 111.717307 158.136634 
L 111.937324 159.28205 
L 112.618438 162.478748 
L 112.09394 164.492174 
L 109.352618 166.735686 
L 106.355794 166.319335 
" style="fill:#3fbc73;"/>
   </g>
   <g id="PathCollection_7">
    <path clip-path="url(#peaf78c8990)" d="M 180.434528 23.111391 
L 176.614476 23.440256 
L 171.598565 24.076013 
L 171.586811 24.074052 
L 166.599044 24.918646 
L 166.590396 24.919081 
L 161.641546 25.971089 
L 161.633651 25.972492 
L 156.733649 27.230494 
L 156.724946 27.233217 
L 151.878921 28.694809 
L 151.872597 28.698472 
L 147.093821 30.360955 
L 147.08689 30.367868 
L 142.377679 32.224009 
L 142.34836 32.36067 
L 138.096974 34.443546 
L 137.748831 34.288354 
L 137.745281 34.287905 
L 133.21169 36.54291 
L 128.780521 38.980793 
L 128.771394 38.984704 
L 128.763555 38.988623 
L 124.43626 41.608939 
L 124.430454 41.612606 
L 120.215299 44.41307 
L 116.121458 47.387657 
L 116.115903 47.391852 
L 112.150054 50.535722 
L 112.144979 50.54005 
L 112.138293 50.545923 
L 108.308118 53.85025 
L 104.619877 57.314104 
L 104.614686 57.319772 
L 101.073491 60.934771 
L 101.068925 60.940231 
L 97.683556 64.700501 
L 97.679354 64.705449 
L 97.675036 64.709792 
L 94.44972 68.608822 
L 94.44495 68.613594 
L 91.385865 72.645294 
L 91.380514 72.6515 
L 88.493459 76.806253 
L 88.489198 76.811985 
L 85.778355 81.084944 
L 85.77451 81.091129 
L 83.244188 85.473197 
L 80.900215 89.957599 
L 80.89689 89.964225 
L 78.741691 94.542831 
L 78.739401 94.549299 
L 76.776727 99.214405 
L 76.776084 99.220924 
L 75.00734 103.965088 
L 80.653444 106.717731 
L 80.688231 106.790472 
L 80.694008 106.822573 
L 80.685693 106.849779 
L 80.663347 106.882761 
L 77.416923 110.750889 
L 77.412338 110.756351 
L 72.08057 113.671207 
L 70.926359 118.597476 
L 70.923193 118.604858 
L 69.97598 123.575521 
L 69.973469 123.585634 
L 69.233686 128.59188 
L 68.706251 133.6235 
L 68.705452 133.631398 
L 68.704308 133.639478 
L 68.386048 138.688937 
L 68.385659 138.694903 
L 68.280278 143.755232 
L 68.280108 143.764693 
L 68.385838 148.82295 
L 68.703857 153.872188 
L 68.704243 153.879041 
L 69.23324 158.911197 
L 69.233949 158.918704 
L 69.973282 163.924984 
L 69.974194 163.931865 
L 70.922861 168.902694 
L 70.924044 168.90952 
L 70.925162 168.915567 
L 72.080371 173.841195 
L 72.08169 173.846907 
L 73.443321 178.721941 
L 73.444822 178.727705 
L 75.009129 183.541487 
L 75.011582 183.549155 
L 76.775327 188.291227 
L 76.777854 188.297981 
L 78.739007 192.962598 
L 78.74157 192.968606 
L 80.896514 197.547667 
L 80.899172 197.553199 
L 83.244195 202.038497 
L 83.247549 202.044603 
L 85.777909 206.426896 
L 85.781534 206.432905 
L 88.492961 210.705637 
L 91.381079 214.860497 
L 91.38529 214.866553 
L 94.444923 218.897964 
L 94.448926 218.903067 
L 97.674265 222.801333 
L 97.679868 222.80754 
L 97.68517 222.813029 
L 101.069941 226.573703 
L 104.610935 230.19008 
L 104.62017 230.197335 
L 108.306686 233.659905 
L 108.311494 233.662417 
L 112.142012 236.97173 
L 112.14984 236.972643 
L 116.113724 240.119679 
L 116.117663 240.122129 
L 120.209321 243.093424 
L 120.215929 243.099853 
L 124.431245 245.896361 
L 124.43835 245.904905 
L 128.76663 248.525194 
L 128.774355 248.53086 
L 133.209442 250.968366 
L 133.214311 250.970916 
L 137.746823 253.220762 
L 137.754346 253.223632 
L 142.377666 255.282665 
L 142.385026 255.284663 
L 147.089246 257.148376 
L 147.095454 257.149295 
L 151.87368 258.813848 
L 151.879384 258.81346 
L 156.724305 260.278671 
L 156.731828 260.280375 
L 161.632765 261.538738 
L 161.640082 261.541994 
L 166.589857 262.592694 
L 166.59593 262.59476 
L 171.586259 263.43784 
L 171.591795 263.439349 
L 176.613758 264.073043 
L 176.619118 264.074041 
L 181.663337 264.497127 
L 181.668652 264.497717 
L 186.720844 264.709423 
L 186.73157 264.709865 
L 191.788366 264.709688 
L 191.799081 264.709514 
L 196.851403 264.497778 
L 196.856667 264.497356 
L 201.900489 264.073641 
L 201.906246 264.073146 
L 206.92764 263.438849 
L 206.933752 263.438058 
L 211.923266 262.594178 
L 211.930164 262.593018 
L 216.878514 261.541258 
L 216.887812 261.538919 
L 221.791231 260.28006 
L 221.79532 260.279032 
L 226.640504 258.816202 
L 226.646536 258.814297 
L 231.42599 257.14986 
L 231.432204 257.147624 
L 236.137549 255.2847 
L 236.143986 255.282021 
L 240.766567 253.223924 
L 240.773433 253.220751 
L 245.305237 250.971251 
L 245.311016 250.968225 
L 249.745648 248.530227 
L 249.750611 248.527275 
L 254.08 245.905622 
L 254.085201 245.902399 
L 258.299139 243.102004 
L 258.305662 243.097343 
L 258.311677 243.093209 
L 262.405666 240.119751 
L 266.371225 236.97596 
L 266.378869 236.969481 
L 270.209939 233.663117 
L 270.214948 233.658491 
L 273.90387 230.19405 
L 273.908959 230.188953 
L 277.450049 226.573697 
L 280.835422 222.812929 
L 280.839969 222.807443 
L 280.846354 222.799905 
L 284.070948 218.902875 
L 284.075562 218.8965 
L 287.134976 214.866621 
L 290.022246 210.711795 
L 290.026087 210.705143 
L 290.029636 210.698508 
L 292.742178 206.427053 
L 295.273001 202.043778 
L 295.275234 202.038162 
L 297.621375 197.553041 
L 297.623019 197.547402 
L 299.778981 192.968409 
L 299.780361 192.962251 
L 301.742506 188.297813 
L 301.743903 188.290829 
L 303.508108 183.54933 
L 303.509356 183.540718 
L 305.073115 178.728458 
L 305.07271 178.719935 
L 306.443939 173.844723 
L 306.132844 173.685906 
L 305.588863 169.754912 
L 307.5964 168.907328 
L 308.539562 163.938621 
L 308.546155 163.929652 
L 309.283367 158.92432 
L 309.286516 158.91638 
L 309.814198 153.884599 
L 309.81614 153.876474 
L 310.133168 148.82739 
L 310.134271 148.818691 
L 310.23959 143.758545 
L 310.239971 143.747977 
L 310.134268 138.68897 
L 309.815609 133.639572 
L 309.814681 133.63141 
L 309.813611 133.623359 
L 309.286589 128.591903 
L 308.54603 123.586203 
L 308.543621 123.578995 
L 308.540708 123.569645 
L 307.597069 118.601456 
L 306.439608 113.675316 
L 306.435372 113.668212 
L 306.434816 113.662047 
L 305.077624 108.789522 
L 303.512202 103.98031 
L 303.509323 103.971278 
L 303.50813 103.962374 
L 301.744616 99.220588 
L 301.743113 99.214328 
L 299.780712 94.549242 
L 299.778587 94.542948 
L 297.623206 89.964176 
L 297.620314 89.957802 
L 295.275864 85.473169 
L 292.745413 81.091495 
L 292.741813 81.084851 
L 290.030684 76.812742 
L 290.026654 76.806188 
L 287.139445 72.652108 
L 287.134545 72.645065 
L 284.074918 68.614476 
L 284.071209 68.609673 
L 284.067414 68.605004 
L 280.841982 64.705885 
L 280.837231 64.700531 
L 277.451434 60.939802 
L 273.910632 57.324575 
L 273.903726 57.31766 
L 270.215472 53.853694 
L 270.209842 53.848579 
L 266.379792 50.543084 
L 266.375433 50.539547 
L 266.370588 50.535631 
L 262.404263 47.391646 
L 262.398858 47.387624 
L 258.304813 44.412929 
L 254.089518 41.612462 
L 254.07965 41.606107 
L 249.753738 38.986643 
L 249.749044 38.984134 
L 249.742389 38.980344 
L 245.308848 36.542198 
L 240.77627 34.292717 
L 240.768904 34.289249 
L 236.145714 32.230625 
L 236.139004 32.227939 
L 231.433198 30.364739 
L 231.426497 30.362359 
L 226.646905 28.697736 
L 226.639744 28.695697 
L 221.795082 27.232918 
L 221.789834 27.231708 
L 216.886885 25.972583 
L 216.882661 25.971545 
L 211.934486 24.919824 
L 211.922098 24.917808 
L 206.933752 24.073913 
L 206.926154 24.073191 
L 201.906249 23.438752 
L 201.898772 23.43853 
L 196.856661 23.014927 
L 196.848569 23.015483 
L 191.793704 22.802224 
L 191.782237 22.805213 
L 186.727022 22.804466 
L 185.940085 23.545749 
L 182.835394 22.959079 
L 181.663197 23.00821 
M 73.179319 109.711091 
L 74.180807 109.153873 
L 73.959969 107.178487 
L 73.437329 108.787031 
M 281.912477 114.467282 
L 283.29966 117.483083 
L 285.112708 118.601456 
L 286.779831 120.692378 
L 289.454227 122.285058 
L 290.80705 123.796804 
L 293.230649 126.07178 
L 293.839829 127.132309 
L 294.94042 128.844083 
L 295.412234 129.886911 
L 296.082108 132.425587 
L 296.534927 134.13122 
L 296.804701 138.425526 
L 296.807911 138.611492 
L 296.746286 139.06038 
L 296.24471 143.111919 
L 295.974271 144.222528 
L 294.025774 148.302302 
L 293.754531 148.799855 
L 293.139655 149.305438 
L 290.894789 151.568371 
L 288.138939 152.633695 
L 287.257528 153.316365 
L 283.369994 154.020234 
L 283.014832 154.284491 
L 282.70292 154.615373 
L 278.601308 156.427084 
L 277.254363 160.536835 
L 277.584559 161.772381 
L 277.271357 164.095289 
L 277.367214 167.165529 
L 277.120931 168.482271 
L 275.577513 172.78111 
L 275.403604 173.278494 
L 274.079972 175.538162 
L 273.415382 177.21118 
L 272.657768 179.988855 
L 272.221344 182.621665 
L 272.403195 185.048512 
L 272.272386 186.563839 
L 272.716271 188.510185 
L 273.426491 191.059796 
L 274.913825 194.374495 
L 274.957245 194.712003 
L 274.994732 195.138216 
L 275.511011 198.227627 
L 275.330947 201.226932 
L 274.915904 203.12191 
L 273.848364 206.257753 
L 272.821387 208.321265 
L 271.66174 210.332565 
L 269.861053 212.962909 
L 268.826947 214.314287 
L 266.733192 216.753883 
L 265.772826 217.898625 
L 264.063436 219.602898 
L 261.640463 222.230773 
L 260.972243 222.846784 
L 258.784536 224.901693 
L 257.283541 226.200066 
L 256.848341 226.576048 
L 253.028224 229.585742 
L 250.479427 231.629475 
L 249.160167 232.566855 
L 247.723386 233.66651 
L 245.121585 235.330835 
L 242.761187 236.829033 
L 240.41238 238.182992 
L 239.429374 238.85188 
L 235.727374 240.997266 
L 235.706265 241.008033 
L 235.700804 241.010888 
L 235.692458 241.015006 
L 231.156306 243.007054 
L 228.189025 244.276371 
L 225.945389 245.199141 
L 223.363026 246.127933 
L 221.476475 246.797343 
L 219.236762 247.540574 
L 217.124121 248.173878 
L 212.779594 249.354016 
L 211.905888 249.578994 
L 208.463192 250.354439 
L 207.685382 250.540293 
L 204.851885 250.950369 
L 202.764954 251.34206 
L 199.911063 251.678274 
L 197.737202 251.94963 
L 195.103903 252.094229 
L 192.469646 252.214781 
L 190.490406 252.176913 
L 186.756723 251.986389 
L 186.15094 251.924054 
L 185.138089 251.750356 
L 181.262393 250.934212 
L 176.102959 248.734481 
L 175.923668 248.664026 
L 175.855296 248.614842 
L 173.496491 246.999962 
L 170.757924 244.10046 
L 170.503474 243.903348 
L 170.262735 243.771698 
L 169.211725 242.85219 
L 165.655967 239.211784 
L 160.056405 239.031018 
L 158.240573 240.571096 
L 155.686834 241.340504 
L 153.136958 242.672477 
L 148.867428 243.164493 
L 148.185812 243.289057 
L 147.61732 243.198116 
L 143.173949 242.473121 
L 140.625619 241.402793 
L 138.354597 240.243146 
L 136.513613 238.896897 
L 133.545467 236.18112 
L 132.051996 233.66651 
L 129.558713 229.932106 
L 129.485005 229.516973 
L 124.883689 225.470382 
L 122.137561 225.666902 
L 120.655874 225.146041 
L 118.014968 224.661816 
L 116.467288 224.737755 
L 115.011875 224.243644 
L 110.927312 222.201771 
L 109.885949 221.447356 
L 108.686019 220.395309 
L 105.828339 218.052863 
L 102.481228 214.618946 
L 102.275135 214.408176 
L 102.188115 214.313025 
L 101.899041 213.953139 
L 99.148166 210.386582 
L 97.474938 207.954613 
L 96.303577 206.241276 
L 93.84371 202.287854 
L 93.676095 201.987418 
L 92.722645 200.094336 
L 91.44582 197.536603 
L 89.556373 193.162396 
L 89.461359 192.958137 
L 88.540803 190.439427 
L 87.82399 188.410303 
L 87.780193 188.226217 
L 87.66455 187.799694 
L 86.795644 184.405203 
L 85.999451 181.015792 
L 85.911089 180.653688 
L 85.705526 179.673817 
L 85.353493 176.816015 
L 85.296934 175.407553 
L 84.926686 171.829594 
L 84.652863 169.342802 
L 84.645258 167.487097 
L 84.548827 165.793134 
L 84.31881 162.066841 
L 84.279543 161.481473 
L 84.107874 159.197746 
L 84.156711 157.109908 
L 84.114148 156.384093 
L 84.20629 152.963981 
L 84.174472 150.328747 
L 84.310948 148.57372 
L 84.506391 145.853698 
L 84.879021 143.931144 
L 85.384021 142.40864 
L 86.894493 138.220855 
L 89.326745 135.770217 
L 90.251582 134.837209 
L 93.125392 134.471285 
L 97.022712 134.307966 
L 97.508354 134.192808 
L 97.671039 134.04777 
L 102.849383 132.582812 
L 103.285009 132.15276 
L 105.848578 128.442329 
L 106.485605 127.566702 
L 106.543877 127.496044 
L 108.010196 123.076262 
L 105.976061 119.411731 
L 101.842754 118.601456 
L 101.32571 118.286484 
L 100.841593 117.962617 
L 96.726739 117.574457 
L 94.77421 115.697191 
L 93.120023 114.993504 
L 92.817849 113.627761 
L 92.096454 109.816144 
L 91.866172 108.86479 
L 91.82965 108.72605 
L 91.827575 108.493207 
L 91.998037 103.469838 
L 92.493469 99.830848 
L 92.505884 99.748645 
L 92.522183 99.691145 
L 93.984869 95.482784 
L 94.845269 93.733374 
L 96.361152 91.370045 
L 98.117644 89.165292 
L 100.42681 87.484887 
L 101.985151 86.333816 
L 103.915735 85.955855 
L 106.37036 85.085442 
L 110.303664 85.713288 
L 112.246532 85.203678 
L 114.364772 84.193512 
L 116.670864 83.812329 
L 118.65117 81.390638 
L 118.793797 79.191062 
L 120.263005 76.587289 
L 121.339587 72.852066 
L 121.337847 72.78414 
L 121.344455 72.705115 
L 123.969523 68.715687 
L 124.241149 68.216312 
L 125.17739 67.715973 
L 127.792097 66.553068 
L 130.215882 67.095447 
L 132.053988 69.274936 
L 133.280731 69.753536 
L 133.830109 69.796375 
L 136.998129 72.471481 
L 141.227836 71.838701 
L 142.05101 71.618223 
L 145.351866 70.065759 
L 146.570438 66.646409 
L 145.480835 65.805121 
L 143.770813 61.791533 
L 143.516249 60.678611 
L 143.649239 59.778098 
L 142.236078 55.842991 
L 144.305614 52.341797 
L 147.087955 49.989052 
L 149.514007 48.326964 
L 150.030878 48.044343 
L 152.714342 46.189608 
L 155.239232 43.666005 
L 155.306482 43.592055 
L 159.023163 40.926022 
L 160.480299 40.128487 
L 164.937853 38.495684 
L 165.64552 38.321847 
L 166.573313 38.226631 
L 170.240804 37.805989 
L 175.203283 38.265604 
L 175.813659 38.308131 
L 176.560825 38.358496 
L 179.896679 39.124369 
L 182.58507 38.939038 
L 184.642012 39.092721 
L 186.980411 38.999977 
L 189.879034 38.23929 
L 194.041172 37.55647 
L 194.719138 37.589225 
L 195.494141 37.601998 
L 199.579343 37.404381 
L 204.131244 37.483829 
L 204.739905 37.520868 
L 205.408687 37.509627 
L 210.314218 37.96033 
L 211.350066 38.026546 
L 215.129616 38.555884 
L 217.031245 38.777523 
L 220.487212 39.491392 
L 224.159592 40.262592 
L 224.412538 40.327633 
L 226.86691 41.062719 
L 229.632935 41.918136 
L 229.892238 42.011809 
L 234.972144 43.91718 
L 235.073673 43.963511 
L 235.329771 44.071524 
L 238.448393 45.556196 
L 242.412286 47.49288 
L 242.431449 47.503206 
L 242.462278 47.520295 
L 247.230423 50.420324 
L 249.631285 51.926502 
L 251.408905 53.130326 
L 255.146228 55.776037 
L 255.452171 56.016984 
L 256.502203 56.831669 
L 259.317786 59.172696 
L 260.1517 59.848948 
L 263.088229 62.472493 
L 265.129891 64.342035 
L 267.393923 66.453527 
L 269.053646 68.108396 
L 271.031857 70.149863 
L 272.37725 71.635768 
L 274.42462 73.989201 
L 275.635843 75.450529 
L 277.607387 77.953461 
L 278.817294 79.627781 
L 280.517164 82.086952 
L 282.006399 84.599578 
L 283.442756 87.165466 
L 285.04762 90.769768 
L 285.199767 91.129734 
L 285.396692 91.759133 
L 286.522312 96.019466 
L 286.656017 99.887184 
L 286.806896 101.397748 
L 286.685382 102.205435 
L 285.576716 105.012162 
L 284.998109 106.784048 
L 282.642785 110.810046 
L 282.640913 110.818036 
L 282.641777 110.825269 
M 200.161441 205.439175 
L 196.631416 208.460483 
L 195.898801 212.266288 
L 196.176823 213.897542 
L 196.960262 218.075207 
L 199.637894 219.962285 
L 204.940649 219.302751 
L 205.015211 218.95507 
L 207.782787 214.56703 
L 208.223704 211.084122 
L 205.097984 207.01868 
L 205.010213 206.751734 
L 204.818549 206.612452 
L 204.239066 206.609094 
M 243.227153 86.78901 
L 240.33276 84.754122 
L 236.003972 86.78028 
L 234.988577 90.182441 
L 234.447682 91.189991 
L 234.564055 94.492869 
L 236.844571 96.094788 
L 240.489958 94.620146 
L 242.410235 90.963459 
L 242.741207 90.334162 
M 198.227887 186.502003 
L 197.856275 189.01951 
L 199.741262 191.48634 
L 204.774123 190.231424 
L 205.609307 185.903527 
L 205.742283 185.477239 
L 204.998646 181.812031 
L 202.598678 180.641882 
L 200.188437 181.794109 
L 198.897043 184.274906 
M 198.547194 70.273869 
L 202.240359 69.101573 
L 204.158909 65.262052 
L 204.314664 64.603873 
L 204.69602 60.7289 
L 201.35733 57.954301 
L 196.530831 60.534589 
L 195.909744 64.453991 
L 195.583138 65.753431 
L 196.340667 68.833825 
M 228.857674 192.59543 
L 227.744409 193.473363 
L 227.05816 194.658931 
L 226.702982 198.393981 
L 226.494419 199.270887 
L 227.013407 200.364115 
L 227.972936 203.119725 
L 230.691147 205.39453 
L 231.280722 205.728565 
L 235.079567 207.371666 
L 239.647235 206.667033 
L 240.111768 206.590242 
L 243.467665 204.172117 
L 244.453639 202.142314 
L 245.206153 200.436498 
L 244.806428 198.767506 
L 244.77562 196.84012 
L 241.572013 193.206256 
L 241.022965 192.929347 
L 237.787433 191.092124 
L 236.813285 189.780556 
L 233.966886 189.129519 
L 230.459978 189.998426 
M 106.355794 166.319335 
L 109.352618 166.735686 
L 112.09394 164.492174 
L 112.618438 162.478748 
L 111.937324 159.28205 
L 111.717307 158.136634 
L 110.332522 154.919999 
L 105.078692 154.415432 
L 102.083071 157.755589 
L 102.304333 158.584282 
L 101.212197 161.281923 
L 103.1798 163.784642 
L 105.291591 164.548314 
M 290.83567 115.10626 
L 290.828291 115.104012 
L 286.100674 113.996115 
L 286.054307 113.967513 
L 286.040567 113.937643 
L 286.047806 113.901494 
L 286.073635 113.860943 
L 286.153072 113.841463 
L 290.830557 115.089141 
L 290.841938 115.089845 
M 200.265761 209.674485 
L 200.283221 209.735679 
L 201.298808 215.740806 
L 201.288409 215.789295 
L 201.255756 215.793356 
L 201.239268 215.781736 
L 201.234444 215.75601 
L 200.20439 209.71232 
L 200.209436 209.686108 
L 200.233748 209.6653 
M 239.418309 88.597037 
L 236.811515 93.553507 
L 236.785942 93.602205 
L 236.737395 93.621843 
L 236.707024 93.60051 
L 236.705474 93.556524 
L 239.368459 88.596061 
L 239.374988 88.574185 
L 239.402822 88.561157 
L 239.421433 88.574241 
M 202.320821 182.888409 
L 202.340074 182.851424 
L 202.376007 182.834246 
L 202.411788 182.851691 
L 202.422874 182.906335 
L 200.897172 187.797348 
L 200.891223 187.828175 
L 200.855375 187.837113 
L 200.841948 187.819542 
L 200.844595 187.80161 
M 199.145634 67.681652 
L 199.135339 67.639788 
L 200.406756 62.581304 
L 200.409745 62.562439 
L 200.432976 62.550019 
L 200.449046 62.563374 
L 200.44721 62.582025 
L 199.251889 67.63311 
L 199.225814 67.685291 
L 199.175622 67.701223 
M 233.17037 192.339148 
L 233.207063 192.330056 
L 233.236845 192.336868 
L 233.289521 192.407789 
L 232.062491 197.187777 
L 235.613887 200.247944 
L 240.254881 198.430989 
L 240.323515 198.465604 
L 240.34896 198.494467 
L 240.34945 198.525062 
L 240.306479 198.562278 
L 235.617979 200.271 
L 235.609236 200.272697 
L 235.601253 200.268798 
L 232.051166 197.199552 
L 232.04814 197.195331 
L 232.048949 197.19056 
L 233.141934 192.385236 
M 296.961286 168.925992 
L 301.116405 171.146929 
L 296.804012 169.067429 
L 296.762385 169.003869 
L 296.786814 168.95549 
L 296.846119 168.928945 
M 281.657056 159.117464 
L 281.73535 159.156283 
L 283.807964 163.222767 
L 283.810809 163.225483 
L 283.809839 163.230513 
L 283.805556 163.229781 
L 283.803984 163.226453 
L 281.609004 159.249782 
L 281.591388 159.183867 
L 281.605719 159.14014 
M 181.880901 32.263028 
L 181.837463 32.262323 
L 181.780622 32.223026 
L 181.698474 32.075291 
L 182.051204 28.277756 
L 181.931935 32.223026 
M 138.896545 68.75207 
L 138.872823 68.732039 
L 138.881564 68.691905 
L 138.937515 68.676675 
L 143.047638 67.530378 
L 143.117766 67.584524 
L 143.104769 67.620994 
L 143.069562 67.637553 
L 138.923425 68.748048 
M 146.499348 41.172351 
L 146.372399 41.104374 
L 142.717425 37.189419 
L 146.528354 40.890762 
L 146.575762 41.083932 
L 146.542882 41.156479 
M 105.023924 123.073633 
L 105.074297 123.040393 
L 105.112869 123.047954 
L 105.128582 123.076262 
L 105.117255 123.110404 
L 100.404286 128.825144 
L 100.392586 128.841228 
L 100.372872 128.847576 
L 100.361837 128.836951 
L 100.354342 128.82177 
L 100.372276 128.796328 
M 112.296882 75.758706 
L 112.308121 75.762612 
L 112.310047 75.7696 
L 114.228119 80.852637 
L 114.224187 80.91327 
L 114.20696 80.934336 
L 114.15771 80.942477 
L 114.095496 80.888202 
L 112.29642 75.77713 
L 112.290369 75.768428 
M 163.099478 242.848964 
L 163.153378 242.904147 
L 163.163694 243.008421 
L 162.650682 247.241106 
L 162.950509 243.013238 
L 162.986809 242.889794 
L 163.037316 242.846957 
M 277.920615 184.452918 
L 277.92217 184.427373 
L 279.618353 178.540574 
L 279.62193 178.527622 
L 279.625049 178.519799 
L 279.64063 178.505436 
L 284.326156 176.758106 
L 284.346159 176.746223 
L 284.38671 176.766282 
L 287.364861 180.886868 
L 287.401938 180.910089 
L 287.372166 180.952174 
L 287.343375 180.952998 
L 287.302008 180.946825 
L 284.314913 176.85093 
L 279.680574 178.596337 
L 278.101164 184.385442 
L 277.982483 184.479976 
L 277.935224 184.474097 
M 108.338194 157.79243 
L 108.328358 157.755589 
L 108.350946 157.730402 
L 108.390564 157.734207 
L 108.401006 157.758463 
L 109.467418 163.31025 
L 109.473914 163.340737 
L 109.468912 163.359939 
L 109.442768 163.381336 
L 109.414187 163.377365 
L 109.382566 163.324743 
M 123.632418 233.183162 
L 124.242062 230.4084 
L 124.468652 230.181612 
L 124.543989 230.17622 
L 124.607409 230.231994 
L 124.621706 230.312518 
" style="fill:#84d44b;"/>
   </g>
   <g id="PathCollection_8">
    <path clip-path="url(#peaf78c8990)" d="M 182.835394 22.959079 
L 185.940085 23.545749 
L 186.727022 22.804466 
L 191.782237 22.805213 
L 191.793704 22.802224 
L 196.848569 23.015483 
L 196.856661 23.014927 
L 201.898772 23.43853 
L 201.906249 23.438752 
L 206.926154 24.073191 
L 206.933752 24.073913 
L 211.922098 24.917808 
L 211.934486 24.919824 
L 216.882661 25.971545 
L 216.886885 25.972583 
L 221.789834 27.231708 
L 221.795082 27.232918 
L 226.639744 28.695697 
L 226.646905 28.697736 
L 231.426497 30.362359 
L 231.433198 30.364739 
L 236.139004 32.227939 
L 236.145714 32.230625 
L 240.768904 34.289249 
L 240.77627 34.292717 
L 245.308848 36.542198 
L 249.742389 38.980344 
L 249.749044 38.984134 
L 249.753738 38.986643 
L 254.07965 41.606107 
L 254.089518 41.612462 
L 258.304813 44.412929 
L 262.398858 47.387624 
L 262.404263 47.391646 
L 266.370588 50.535631 
L 266.375433 50.539547 
L 266.379792 50.543084 
L 270.209842 53.848579 
L 270.215472 53.853694 
L 273.903726 57.31766 
L 273.910632 57.324575 
L 277.451434 60.939802 
L 280.837231 64.700531 
L 280.841982 64.705885 
L 284.067414 68.605004 
L 284.071209 68.609673 
L 284.074918 68.614476 
L 287.134545 72.645065 
L 287.139445 72.652108 
L 290.026654 76.806188 
L 290.030684 76.812742 
L 292.741813 81.084851 
L 292.745413 81.091495 
L 295.275864 85.473169 
L 297.620314 89.957802 
L 297.623206 89.964176 
L 299.778587 94.542948 
L 299.780712 94.549242 
L 301.743113 99.214328 
L 301.744616 99.220588 
L 303.50813 103.962374 
L 303.509323 103.971278 
L 303.512202 103.98031 
L 305.077624 108.789522 
L 306.434816 113.662047 
L 306.435372 113.668212 
L 306.439608 113.675316 
L 307.597069 118.601456 
L 308.540708 123.569645 
L 308.543621 123.578995 
L 308.54603 123.586203 
L 309.286589 128.591903 
L 309.813611 133.623359 
L 309.814681 133.63141 
L 309.815609 133.639572 
L 310.134268 138.68897 
L 310.239971 143.747977 
L 310.23959 143.758545 
L 310.134271 148.818691 
L 310.133168 148.82739 
L 309.81614 153.876474 
L 309.814198 153.884599 
L 309.286516 158.91638 
L 309.283367 158.92432 
L 308.546155 163.929652 
L 308.539562 163.938621 
L 307.5964 168.907328 
L 305.588863 169.754912 
L 306.132844 173.685906 
L 306.443939 173.844723 
L 305.07271 178.719935 
L 305.073115 178.728458 
L 303.509356 183.540718 
L 303.508108 183.54933 
L 301.743903 188.290829 
L 301.742506 188.297813 
L 299.780361 192.962251 
L 299.778981 192.968409 
L 297.623019 197.547402 
L 297.621375 197.553041 
L 295.275234 202.038162 
L 295.273001 202.043778 
L 292.742178 206.427053 
L 290.029636 210.698508 
L 290.026087 210.705143 
L 290.022246 210.711795 
L 287.134976 214.866621 
L 284.075562 218.8965 
L 284.070948 218.902875 
L 280.846354 222.799905 
L 280.839969 222.807443 
L 280.835422 222.812929 
L 277.450049 226.573697 
L 273.908959 230.188953 
L 273.90387 230.19405 
L 270.214948 233.658491 
L 270.209939 233.663117 
L 266.378869 236.969481 
L 266.371225 236.97596 
L 262.405666 240.119751 
L 258.311677 243.093209 
L 258.305662 243.097343 
L 258.299139 243.102004 
L 254.085201 245.902399 
L 254.08 245.905622 
L 249.750611 248.527275 
L 249.745648 248.530227 
L 245.311016 250.968225 
L 245.305237 250.971251 
L 240.773433 253.220751 
L 240.766567 253.223924 
L 236.143986 255.282021 
L 236.137549 255.2847 
L 231.432204 257.147624 
L 231.42599 257.14986 
L 226.646536 258.814297 
L 226.640504 258.816202 
L 221.79532 260.279032 
L 221.791231 260.28006 
L 216.887812 261.538919 
L 216.878514 261.541258 
L 211.930164 262.593018 
L 211.923266 262.594178 
L 206.933752 263.438058 
L 206.92764 263.438849 
L 201.906246 264.073146 
L 201.900489 264.073641 
L 196.856667 264.497356 
L 196.851403 264.497778 
L 191.799081 264.709514 
L 191.788366 264.709688 
L 186.73157 264.709865 
L 186.720844 264.709423 
L 181.668652 264.497717 
L 181.663337 264.497127 
L 176.619118 264.074041 
L 176.613758 264.073043 
L 171.591795 263.439349 
L 171.586259 263.43784 
L 166.59593 262.59476 
L 166.589857 262.592694 
L 161.640082 261.541994 
L 161.632765 261.538738 
L 156.731828 260.280375 
L 156.724305 260.278671 
L 151.879384 258.81346 
L 151.87368 258.813848 
L 147.095454 257.149295 
L 147.089246 257.148376 
L 142.385026 255.284663 
L 142.377666 255.282665 
L 137.754346 253.223632 
L 137.746823 253.220762 
L 133.214311 250.970916 
L 133.209442 250.968366 
L 128.774355 248.53086 
L 128.76663 248.525194 
L 124.43835 245.904905 
L 124.431245 245.896361 
L 120.215929 243.099853 
L 120.209321 243.093424 
L 116.117663 240.122129 
L 116.113724 240.119679 
L 112.14984 236.972643 
L 112.142012 236.97173 
L 108.311494 233.662417 
L 108.306686 233.659905 
L 104.62017 230.197335 
L 104.610935 230.19008 
L 101.069941 226.573703 
L 97.68517 222.813029 
L 97.679868 222.80754 
L 97.674265 222.801333 
L 94.448926 218.903067 
L 94.444923 218.897964 
L 91.38529 214.866553 
L 91.381079 214.860497 
L 88.492961 210.705637 
L 85.781534 206.432905 
L 85.777909 206.426896 
L 83.247549 202.044603 
L 83.244195 202.038497 
L 80.899172 197.553199 
L 80.896514 197.547667 
L 78.74157 192.968606 
L 78.739007 192.962598 
L 76.777854 188.297981 
L 76.775327 188.291227 
L 75.011582 183.549155 
L 75.009129 183.541487 
L 73.444822 178.727705 
L 73.443321 178.721941 
L 72.08169 173.846907 
L 72.080371 173.841195 
L 70.925162 168.915567 
L 70.924044 168.90952 
L 70.922861 168.902694 
L 69.974194 163.931865 
L 69.973282 163.924984 
L 69.233949 158.918704 
L 69.23324 158.911197 
L 68.704243 153.879041 
L 68.703857 153.872188 
L 68.385838 148.82295 
L 68.280108 143.764693 
L 68.280278 143.755232 
L 68.385659 138.694903 
L 68.386048 138.688937 
L 68.704308 133.639478 
L 68.705452 133.631398 
L 68.706251 133.6235 
L 69.233686 128.59188 
L 69.973469 123.585634 
L 69.97598 123.575521 
L 70.923193 118.604858 
L 70.926359 118.597476 
L 72.08057 113.671207 
L 77.412338 110.756351 
L 77.416923 110.750889 
L 80.663347 106.882761 
L 80.685693 106.849779 
L 80.694008 106.822573 
L 80.688231 106.790472 
L 80.653444 106.717731 
L 75.00734 103.965088 
L 76.776084 99.220924 
L 76.776727 99.214405 
L 78.739401 94.549299 
L 78.741691 94.542831 
L 80.89689 89.964225 
L 80.900215 89.957599 
L 83.244188 85.473197 
L 85.77451 81.091129 
L 85.778355 81.084944 
L 88.489198 76.811985 
L 88.493459 76.806253 
L 91.380514 72.6515 
L 91.385865 72.645294 
L 94.44495 68.613594 
L 94.44972 68.608822 
L 97.675036 64.709792 
L 97.679354 64.705449 
L 97.683556 64.700501 
L 101.068925 60.940231 
L 101.073491 60.934771 
L 104.614686 57.319772 
L 104.619877 57.314104 
L 108.308118 53.85025 
L 112.138293 50.545923 
L 112.144979 50.54005 
L 112.150054 50.535722 
L 116.115903 47.391852 
L 116.121458 47.387657 
L 120.215299 44.41307 
L 124.430454 41.612606 
L 124.43626 41.608939 
L 128.763555 38.988623 
L 128.771394 38.984704 
L 128.780521 38.980793 
L 133.21169 36.54291 
L 137.745281 34.287905 
L 137.748831 34.288354 
L 138.096974 34.443546 
L 142.34836 32.36067 
L 142.377679 32.224009 
L 147.08689 30.367868 
L 147.093821 30.360955 
L 151.872597 28.698472 
L 151.878921 28.694809 
L 156.724946 27.233217 
L 156.733649 27.230494 
L 161.633651 25.972492 
L 161.641546 25.971089 
L 166.590396 24.919081 
L 166.599044 24.918646 
L 171.586811 24.074052 
L 171.598565 24.076013 
L 176.614476 23.440256 
L 180.434528 23.111391 
L 176.613524 23.432268 
L 171.58593 24.067447 
L 166.589429 24.912538 
L 161.632613 25.966088 
L 156.724311 27.226284 
L 151.873116 28.690946 
L 147.087495 30.357535 
L 142.375797 32.223026 
L 137.746491 34.284152 
L 133.20744 36.537283 
L 128.766752 38.97867 
L 124.432169 41.603714 
L 120.211313 44.40806 
L 116.111685 47.386626 
L 112.140304 50.534332 
L 108.304185 53.84549 
L 104.610225 57.314415 
L 101.064595 60.935057 
L 97.673827 64.700883 
L 94.44373 68.60548 
L 91.379868 72.641952 
L 88.487807 76.803041 
L 85.772507 81.081728 
L 83.238687 85.470272 
L 80.890944 89.961169 
L 78.733391 94.546316 
L 76.76966 99.217846 
L 75.003257 103.967534 
L 73.959969 107.178487 
L 74.180807 109.153873 
L 73.179319 109.711091 
L 72.074537 113.667868 
L 70.917301 118.601456 
L 69.967799 123.579203 
L 69.227482 128.592399 
L 68.697804 133.632116 
L 68.379609 138.689606 
L 68.273504 143.756 
L 68.379609 148.822394 
L 68.697804 153.879884 
L 69.227482 158.919601 
L 69.967799 163.932797 
L 70.917301 168.910544 
L 72.074537 173.844132 
L 73.437329 178.724969 
L 75.003257 183.544466 
L 76.76966 188.294154 
L 78.733391 192.965684 
L 80.890944 197.550831 
L 83.238687 202.041728 
L 85.772507 206.430272 
L 88.487807 210.708959 
L 91.379868 214.870048 
L 94.44373 218.90652 
L 97.673827 222.811117 
L 101.064595 226.576943 
L 104.610225 230.197585 
L 108.304185 233.66651 
L 112.140304 236.977668 
L 116.111685 240.125374 
L 120.211313 243.10394 
L 124.432169 245.908286 
L 128.766752 248.53333 
L 133.20744 250.974717 
L 137.746491 253.227848 
L 142.375797 255.288974 
L 147.087495 257.154465 
L 151.873116 258.821054 
L 156.724311 260.285716 
L 161.632613 261.545912 
L 166.589429 262.599462 
L 171.58593 263.444553 
L 176.613524 264.079732 
L 181.663197 264.50379 
L 186.726252 264.716 
L 191.793748 264.716 
L 196.856803 264.50379 
L 201.906476 264.079732 
L 206.93407 263.444553 
L 211.930571 262.599462 
L 216.887387 261.545912 
L 221.795689 260.285716 
L 226.646884 258.821054 
L 231.432505 257.154465 
L 236.144203 255.288974 
L 240.773509 253.227848 
L 245.31256 250.974717 
L 249.753248 248.53333 
L 254.087831 245.908286 
L 258.308687 243.10394 
L 262.408315 240.125374 
L 266.379696 236.977668 
L 270.215815 233.66651 
L 273.909775 230.197585 
L 277.455405 226.576943 
L 280.846173 222.811117 
L 284.07627 218.90652 
L 287.140132 214.870048 
L 290.032193 210.708959 
L 292.747493 206.430272 
L 295.281313 202.041728 
L 297.629056 197.550831 
L 299.786609 192.965684 
L 301.75034 188.294154 
L 303.516743 183.544466 
L 305.082671 178.724969 
L 306.445463 173.844132 
L 307.602699 168.910544 
L 308.552201 163.932797 
L 309.292518 158.919601 
L 309.822196 153.879884 
L 310.140391 148.822394 
L 310.246496 143.756 
L 310.140391 138.689606 
L 309.822196 133.632116 
L 309.292518 128.592399 
L 308.552201 123.579203 
L 307.602699 118.601456 
L 306.445463 113.667868 
L 305.082671 108.787031 
L 303.516743 103.967534 
L 301.75034 99.217846 
L 299.786609 94.546316 
L 297.629056 89.961169 
L 295.281313 85.470272 
L 292.747493 81.081728 
L 290.032193 76.803041 
L 287.140132 72.641952 
L 284.07627 68.60548 
L 280.846173 64.700883 
L 277.455405 60.935057 
L 273.909775 57.314415 
L 270.215815 53.84549 
L 266.379696 50.534332 
L 262.408315 47.386626 
L 258.308687 44.40806 
L 254.087831 41.603714 
L 249.753248 38.97867 
L 245.31256 36.537283 
L 240.773509 34.284152 
L 236.144203 32.223026 
L 231.432505 30.357535 
L 226.646884 28.690946 
L 221.795689 27.226284 
L 216.887387 25.966088 
L 211.930571 24.912538 
L 206.93407 24.067447 
L 201.906476 23.432268 
L 196.856803 23.00821 
L 191.793748 22.796 
L 186.726252 22.796 
M 290.841938 115.089845 
L 290.830557 115.089141 
L 286.153072 113.841463 
L 286.073635 113.860943 
L 286.047806 113.901494 
L 286.040567 113.937643 
L 286.054307 113.967513 
L 286.100674 113.996115 
L 290.828291 115.104012 
L 290.83567 115.10626 
M 200.233748 209.6653 
L 200.209436 209.686108 
L 200.20439 209.71232 
L 201.234444 215.75601 
L 201.239268 215.781736 
L 201.255756 215.793356 
L 201.288409 215.789295 
L 201.298808 215.740806 
L 200.283221 209.735679 
L 200.265761 209.674485 
M 239.421433 88.574241 
L 239.402822 88.561157 
L 239.374988 88.574185 
L 239.368459 88.596061 
L 236.705474 93.556524 
L 236.707024 93.60051 
L 236.737395 93.621843 
L 236.785942 93.602205 
L 236.811515 93.553507 
L 239.418309 88.597037 
M 200.844595 187.80161 
L 200.841948 187.819542 
L 200.855375 187.837113 
L 200.891223 187.828175 
L 200.897172 187.797348 
L 202.422874 182.906335 
L 202.411788 182.851691 
L 202.376007 182.834246 
L 202.340074 182.851424 
L 202.320821 182.888409 
M 199.175622 67.701223 
L 199.225814 67.685291 
L 199.251889 67.63311 
L 200.44721 62.582025 
L 200.449046 62.563374 
L 200.432976 62.550019 
L 200.409745 62.562439 
L 200.406756 62.581304 
L 199.135339 67.639788 
L 199.145634 67.681652 
M 233.141934 192.385236 
L 232.048949 197.19056 
L 232.04814 197.195331 
L 232.051166 197.199552 
L 235.601253 200.268798 
L 235.609236 200.272697 
L 235.617979 200.271 
L 240.306479 198.562278 
L 240.34945 198.525062 
L 240.34896 198.494467 
L 240.323515 198.465604 
L 240.254881 198.430989 
L 235.613887 200.247944 
L 232.062491 197.187777 
L 233.289521 192.407789 
L 233.236845 192.336868 
L 233.207063 192.330056 
L 233.17037 192.339148 
M 296.846119 168.928945 
L 296.786814 168.95549 
L 296.762385 169.003869 
L 296.804012 169.067429 
L 301.116405 171.146929 
L 296.961286 168.925992 
M 281.605719 159.14014 
L 281.591388 159.183867 
L 281.609004 159.249782 
L 283.803984 163.226453 
L 283.805556 163.229781 
L 283.809839 163.230513 
L 283.810809 163.225483 
L 283.807964 163.222767 
L 281.73535 159.156283 
L 281.657056 159.117464 
M 181.931935 32.223026 
L 182.051204 28.277756 
L 181.698474 32.075291 
L 181.780622 32.223026 
L 181.837463 32.262323 
L 181.880901 32.263028 
M 138.923425 68.748048 
L 143.069562 67.637553 
L 143.104769 67.620994 
L 143.117766 67.584524 
L 143.047638 67.530378 
L 138.937515 68.676675 
L 138.881564 68.691905 
L 138.872823 68.732039 
L 138.896545 68.75207 
M 146.542882 41.156479 
L 146.575762 41.083932 
L 146.528354 40.890762 
L 142.717425 37.189419 
L 146.372399 41.104374 
L 146.499348 41.172351 
M 100.372276 128.796328 
L 100.354342 128.82177 
L 100.361837 128.836951 
L 100.372872 128.847576 
L 100.392586 128.841228 
L 100.404286 128.825144 
L 105.117255 123.110404 
L 105.128582 123.076262 
L 105.112869 123.047954 
L 105.074297 123.040393 
L 105.023924 123.073633 
M 112.290369 75.768428 
L 112.29642 75.77713 
L 114.095496 80.888202 
L 114.15771 80.942477 
L 114.20696 80.934336 
L 114.224187 80.91327 
L 114.228119 80.852637 
L 112.310047 75.7696 
L 112.308121 75.762612 
L 112.296882 75.758706 
M 163.037316 242.846957 
L 162.986809 242.889794 
L 162.950509 243.013238 
L 162.650682 247.241106 
L 163.163694 243.008421 
L 163.153378 242.904147 
L 163.099478 242.848964 
M 277.935224 184.474097 
L 277.982483 184.479976 
L 278.101164 184.385442 
L 279.680574 178.596337 
L 284.314913 176.85093 
L 287.302008 180.946825 
L 287.343375 180.952998 
L 287.372166 180.952174 
L 287.401938 180.910089 
L 287.364861 180.886868 
L 284.38671 176.766282 
L 284.346159 176.746223 
L 284.326156 176.758106 
L 279.64063 178.505436 
L 279.625049 178.519799 
L 279.62193 178.527622 
L 279.618353 178.540574 
L 277.92217 184.427373 
L 277.920615 184.452918 
M 109.382566 163.324743 
L 109.414187 163.377365 
L 109.442768 163.381336 
L 109.468912 163.359939 
L 109.473914 163.340737 
L 109.467418 163.31025 
L 108.401006 157.758463 
L 108.390564 157.734207 
L 108.350946 157.730402 
L 108.328358 157.755589 
L 108.338194 157.79243 
M 124.621706 230.312518 
L 124.607409 230.231994 
L 124.543989 230.17622 
L 124.468652 230.181612 
L 124.242062 230.4084 
L 123.632418 233.183162 
" style="fill:#d8e219;"/>
   </g>
   <g id="line2d_1">
    <path clip-path="url(#peaf78c8990)" d="M 231.432505 257.154465 
L 236.144203 255.288974 
L 240.773509 253.227848 
L 245.31256 250.974717 
L 249.753248 248.53333 
L 254.087831 245.908286 
L 258.308687 243.10394 
L 262.408315 240.125374 
L 266.379696 236.977668 
L 270.215815 233.66651 
L 273.909775 230.197585 
L 277.455405 226.576943 
L 280.846173 222.811117 
L 284.07627 218.90652 
L 287.140132 214.870048 
L 290.032193 210.708959 
L 292.747493 206.430272 
L 295.281313 202.041728 
L 297.629056 197.550831 
L 299.786609 192.965684 
L 301.75034 188.294154 
L 303.516743 183.544466 
L 305.082671 178.724969 
L 306.445463 173.844132 
L 307.602699 168.910544 
L 308.552201 163.932797 
L 309.292518 158.919601 
L 309.822196 153.879884 
L 310.140391 148.822394 
L 310.246496 143.756 
L 310.140391 138.689606 
L 309.822196 133.632116 
L 309.292518 128.592399 
L 308.552201 123.579203 
L 307.602699 118.601456 
L 306.445463 113.667868 
L 305.082671 108.787031 
L 303.516743 103.967534 
L 301.75034 99.217846 
L 299.786609 94.546316 
L 297.629056 89.961169 
L 295.281313 85.470272 
L 292.747493 81.081728 
L 290.032193 76.803041 
L 287.140132 72.641952 
L 284.07627 68.60548 
L 280.846173 64.700883 
L 277.455405 60.935057 
L 273.909775 57.314415 
L 270.215815 53.84549 
L 266.379696 50.534332 
L 262.408315 47.386626 
L 258.308687 44.40806 
L 254.087831 41.603714 
L 249.753248 38.97867 
L 245.31256 36.537283 
L 240.773509 34.284152 
L 236.144203 32.223026 
L 231.432505 30.357535 
L 226.646884 28.690946 
L 221.795689 27.226284 
L 216.887387 25.966088 
L 211.930571 24.912538 
L 206.93407 24.067447 
L 201.906476 23.432268 
L 196.856803 23.00821 
L 191.793748 22.796 
L 186.726252 22.796 
L 181.663197 23.00821 
L 176.613524 23.432268 
L 171.58593 24.067447 
L 166.589429 24.912538 
L 161.632613 25.966088 
L 156.724311 27.226284 
L 151.873116 28.690946 
L 147.087495 30.357535 
L 142.375797 32.223026 
L 137.746491 34.284152 
L 133.20744 36.537283 
L 128.766752 38.97867 
L 124.432169 41.603714 
L 120.211313 44.40806 
L 116.111685 47.386626 
L 112.140304 50.534332 
L 108.304185 53.84549 
L 104.610225 57.314415 
L 101.064595 60.935057 
L 97.673827 64.700883 
L 94.44373 68.60548 
L 91.379868 72.641952 
L 88.487807 76.803041 
L 85.772507 81.081728 
L 83.238687 85.470272 
L 80.890944 89.961169 
L 78.733391 94.546316 
L 76.76966 99.217846 
L 75.003257 103.967534 
L 73.437329 108.787031 
L 72.074537 113.667868 
L 70.917301 118.601456 
L 69.967799 123.579203 
L 69.227482 128.592399 
L 68.697804 133.632116 
L 68.379609 138.689606 
L 68.273504 143.756 
L 68.379609 148.822394 
L 68.697804 153.879884 
L 69.227482 158.919601 
L 69.967799 163.932797 
L 70.917301 168.910544 
L 72.074537 173.844132 
L 73.437329 178.724969 
L 75.003257 183.544466 
L 76.76966 188.294154 
L 78.733391 192.965684 
L 80.890944 197.550831 
L 83.238687 202.041728 
L 85.772507 206.430272 
L 88.487807 210.708959 
L 91.379868 214.870048 
L 94.44373 218.90652 
L 97.673827 222.811117 
L 101.064595 226.576943 
L 104.610225 230.197585 
L 108.304185 233.66651 
L 112.140304 236.977668 
L 116.111685 240.125374 
L 120.211313 243.10394 
L 124.432169 245.908286 
L 128.766752 248.53333 
L 133.20744 250.974717 
L 137.746491 253.227848 
L 142.375797 255.288974 
L 147.087495 257.154465 
L 151.873116 258.821054 
L 156.724311 260.285716 
L 161.632613 261.545912 
L 166.589429 262.599462 
L 171.58593 263.444553 
L 176.613524 264.079732 
L 181.663197 264.50379 
L 186.726252 264.716 
L 191.793748 264.716 
L 196.856803 264.50379 
L 201.906476 264.079732 
L 206.93407 263.444553 
L 211.930571 262.599462 
L 216.887387 261.545912 
L 221.795689 260.285716 
L 226.646884 258.821054 
L 231.432505 257.154465 
L 231.432505 257.154465 
" style="fill:none;stroke:#000000;stroke-linecap:square;stroke-width:1.5;"/>
   </g>
   <g id="line2d_2">
    <path clip-path="url(#peaf78c8990)" d="M 301.638549 171.411214 
L 296.831634 168.978176 
M 279.633283 178.531149 
L 277.943828 184.444243 
M 77.41355 110.748948 
L 80.661674 106.822573 
M 200.23425 209.694608 
L 201.26578 215.767525 
M 163.070779 242.889794 
L 162.625549 247.501436 
M 146.516197 41.136706 
L 141.614308 36.043174 
M 200.863367 187.810934 
L 202.372637 182.867426 
M 240.313519 198.507713 
L 235.609685 200.265647 
M 290.832519 115.099622 
L 286.081863 113.932345 
M 239.396804 88.585795 
L 236.735948 93.588465 
M 112.302789 75.769211 
L 114.185338 80.909081 
M 182.103988 27.204143 
L 181.857236 32.223026 
M 232.052561 197.193679 
L 233.199029 192.363898 
M 100.383078 128.829533 
L 105.106149 123.076262 
M 109.443636 163.349037 
L 108.375809 157.755589 
M 287.351374 180.928375 
L 284.337117 176.773215 
M 124.539242 230.241987 
L 123.483393 233.66651 
M 200.428505 62.572246 
L 199.18428 67.665778 
M 138.908687 68.728281 
L 143.080543 67.594638 
M 283.806228 163.226115 
L 281.638029 159.169317 
" style="fill:none;stroke:#000000;stroke-linecap:square;stroke-width:1.5;"/>
   </g>
  </g>
 </g>
 <defs>
  <clipPath id="peaf78c8990">
   <rect height="266.112" width="357.12" x="10.7" y="10.7"/>
  </clipPath>
 </defs>
</svg>
