<?xml version="1.0" encoding="utf-8" standalone="no"?>
<!DOCTYPE svg PUBLIC "-//W3C//DTD SVG 1.1//EN"
  "http://www.w3.org/Graphics/SVG/1.1/DTD/svg11.dtd">
<!-- Created with matplotlib (https://matplotlib.org/) -->
<svg height="362.158125pt" version="1.1" viewBox="0 0 349.2 362.158125" width="349.2pt" xmlns="http://www.w3.org/2000/svg" xmlns:xlink="http://www.w3.org/1999/xlink">
 <defs>
  <style type="text/css">
*{stroke-linecap:butt;stroke-linejoin:round;}
  </style>
 </defs>
 <g id="figure_1">
  <g id="patch_1">
   <path d="M 0 362.158125 
L 349.2 362.158125 
L 349.2 -0 
L 0 -0 
z
" style="fill:#ffffff;"/>
  </g>
  <g id="axes_1">
   <g id="PathCollection_1">
    <path clip-path="url(#p2b894bc7af)" d="M 8.28 53.261136 
L 19.493832 52.684293 
L 49.86 51.277691 
L 64.568259 49.189866 
L 91.44 45.359264 
L 115.740878 39.597247 
L 133.02 35.500693 
L 172.726882 22.318125 
L 133.02 22.318125 
L 91.44 22.318125 
L 49.86 22.318125 
L 8.28 22.318125 
" style="fill:#48186a;"/>
   </g>
   <g id="PathCollection_2">
    <path clip-path="url(#p2b894bc7af)" d="M 172.726882 22.318125 
L 133.02 35.500693 
L 115.740878 39.597247 
L 91.44 45.359264 
L 64.568259 49.189866 
L 49.86 51.277691 
L 19.493832 52.684293 
L 8.28 53.261136 
L 8.28 63.898125 
L 8.28 91.761927 
L 22.900012 90.858113 
L 49.86 89.155154 
L 70.014533 85.323592 
L 91.44 81.256863 
L 126.865751 70.052374 
L 133.02 68.105645 
L 142.52061 63.898125 
L 174.6 53.248008 
L 193.181197 45.316928 
L 216.18 35.500489 
L 241.446992 22.318125 
L 216.18 22.318125 
L 174.6 22.318125 
" style="fill:#424086;"/>
   </g>
   <g id="PathCollection_3">
    <path clip-path="url(#p2b894bc7af)" d="M 241.446992 22.318125 
L 216.18 35.500489 
L 193.181197 45.316928 
L 174.6 53.248008 
L 142.52061 63.898125 
L 133.02 68.105645 
L 126.865751 70.052374 
L 91.44 81.256863 
L 70.014533 85.323592 
L 49.86 89.155154 
L 22.900012 90.858113 
L 8.28 91.761927 
L 8.28 105.478125 
L 8.28 145.128695 
L 10.39619 144.941935 
L 49.86 141.471346 
L 57.462947 139.455178 
L 91.44 130.441813 
L 121.213343 117.284782 
L 133.02 112.067575 
L 143.670262 105.478125 
L 174.6 91.780338 
L 206.408098 73.670027 
L 216.18 68.106272 
L 222.225746 63.898125 
L 257.76 45.357817 
L 295.149971 22.318125 
L 257.76 22.318125 
" style="fill:#33638d;"/>
   </g>
   <g id="PathCollection_4">
    <path clip-path="url(#p2b894bc7af)" d="M 15.170318 354.958125 
L 15.808897 347.429228 
L 17.659857 313.378125 
L 49.86 273.991075 
L 50.451969 271.798125 
L 52.440743 269.217382 
L 82.489768 230.218125 
L 91.44 224.331088 
L 124.011217 188.638125 
L 133.02 182.681926 
L 171.504169 147.058125 
L 174.6 145.1427 
L 183.963505 137.69462 
L 216.18 112.068146 
L 222.95825 105.478125 
L 257.76 81.255531 
L 278.87218 63.898125 
L 299.34 51.285751 
L 339.936939 22.318125 
L 299.34 22.318125 
L 295.149971 22.318125 
L 257.76 45.357817 
L 222.225746 63.898125 
L 216.18 68.106272 
L 206.408098 73.670027 
L 174.6 91.780338 
L 143.670262 105.478125 
L 133.02 112.067575 
L 121.213343 117.284782 
L 91.44 130.441813 
L 57.462947 139.455178 
L 49.86 141.471346 
L 10.39619 144.941935 
L 8.28 145.128695 
L 8.28 147.058125 
L 8.28 188.638125 
L 8.28 230.218125 
L 8.28 271.798125 
L 8.28 313.378125 
L 8.28 354.958125 
" style="fill:#26828e;"/>
   </g>
   <g id="PathCollection_5">
    <path clip-path="url(#p2b894bc7af)" d="M 175.28689 354.958125 
L 175.29348 354.264645 
L 175.681283 313.378125 
L 175.787699 312.190426 
L 179.40688 271.798125 
L 181.070571 265.327554 
L 190.097611 230.218125 
L 206.029158 198.788967 
L 211.174664 188.638125 
L 216.18 182.681016 
L 240.671215 147.058125 
L 257.76 130.443933 
L 279.481555 105.478125 
L 299.34 89.149388 
L 325.976919 63.898125 
L 340.92 53.246797 
L 340.92 22.318125 
L 339.936939 22.318125 
L 299.34 51.285751 
L 278.87218 63.898125 
L 257.76 81.255531 
L 222.95825 105.478125 
L 216.18 112.068146 
L 183.963505 137.69462 
L 174.6 145.1427 
L 171.504169 147.058125 
L 133.02 182.681926 
L 124.011217 188.638125 
L 91.44 224.331088 
L 82.489768 230.218125 
L 52.440743 269.217382 
L 50.451969 271.798125 
L 49.86 273.991075 
L 17.659857 313.378125 
L 15.808897 347.429228 
L 15.170318 354.958125 
L 49.86 354.958125 
L 91.44 354.958125 
L 133.02 354.958125 
L 174.6 354.958125 
" style="fill:#1fa088;"/>
   </g>
   <g id="PathCollection_6">
    <path clip-path="url(#p2b894bc7af)" d="M 243.202341 354.958125 
L 243.414318 327.723807 
L 243.525867 313.378125 
L 245.687931 283.870194 
L 246.57294 271.798125 
L 254.671343 233.306782 
L 255.321132 230.218125 
L 257.76 224.337635 
L 270.286537 188.638125 
L 287.70677 158.691355 
L 294.473825 147.058125 
L 299.34 141.465014 
L 326.486191 105.478125 
L 340.92 91.794994 
L 340.92 63.898125 
L 340.92 53.246797 
L 325.976919 63.898125 
L 299.34 89.149388 
L 279.481555 105.478125 
L 257.76 130.443933 
L 240.671215 147.058125 
L 216.18 182.681016 
L 211.174664 188.638125 
L 206.029158 198.788967 
L 190.097611 230.218125 
L 181.070571 265.327554 
L 179.40688 271.798125 
L 175.787699 312.190426 
L 175.681283 313.378125 
L 175.29348 354.264645 
L 175.28689 354.958125 
L 216.18 354.958125 
" style="fill:#3fbc73;"/>
   </g>
   <g id="PathCollection_7">
    <path clip-path="url(#p2b894bc7af)" d="M 296.627526 354.958125 
L 296.864083 315.854042 
L 296.880384 313.378125 
L 299.34 273.856332 
L 299.45106 271.798125 
L 299.471346 271.666779 
L 305.865816 230.218125 
L 308.719048 220.839077 
L 318.515837 188.638125 
L 338.026843 149.951282 
L 339.485971 147.058125 
L 340.92 145.157103 
L 340.92 105.478125 
L 340.92 91.794994 
L 326.486191 105.478125 
L 299.34 141.465014 
L 294.473825 147.058125 
L 287.70677 158.691355 
L 270.286537 188.638125 
L 257.76 224.337635 
L 255.321132 230.218125 
L 254.671343 233.306782 
L 246.57294 271.798125 
L 245.687931 283.870194 
L 243.525867 313.378125 
L 243.414318 327.723807 
L 243.202341 354.958125 
L 257.76 354.958125 
" style="fill:#84d44b;"/>
   </g>
   <g id="PathCollection_8">
    <path clip-path="url(#p2b894bc7af)" d="M 340.92 145.157103 
L 339.485971 147.058125 
L 338.026843 149.951282 
L 318.515837 188.638125 
L 308.719048 220.839077 
L 305.865816 230.218125 
L 299.471346 271.666779 
L 299.45106 271.798125 
L 299.34 273.856332 
L 296.880384 313.378125 
L 296.864083 315.854042 
L 296.627526 354.958125 
L 299.34 354.958125 
L 340.92 354.958125 
L 340.92 313.378125 
L 340.92 271.798125 
L 340.92 230.218125 
L 340.92 188.638125 
L 340.92 147.058125 
" style="fill:#d8e219;"/>
   </g>
   <g id="line2d_1">
    <path clip-path="url(#p2b894bc7af)" d="M 49.86 354.958125 
L 8.28 354.958125 
M 91.44 354.958125 
L 49.86 354.958125 
M 133.02 354.958125 
L 91.44 354.958125 
M 174.6 354.958125 
L 133.02 354.958125 
M 216.18 354.958125 
L 174.6 354.958125 
M 257.76 354.958125 
L 216.18 354.958125 
M 299.34 354.958125 
L 257.76 354.958125 
M 340.92 354.958125 
L 299.34 354.958125 
M 8.28 313.378125 
L 8.28 354.958125 
M 49.86 313.378125 
L 8.28 354.958125 
M 49.86 313.378125 
L 49.86 354.958125 
M 49.86 313.378125 
L 8.28 313.378125 
M 91.44 313.378125 
L 49.86 354.958125 
M 91.44 313.378125 
L 91.44 354.958125 
M 91.44 313.378125 
L 49.86 313.378125 
M 133.02 313.378125 
L 91.44 354.958125 
M 133.02 313.378125 
L 133.02 354.958125 
M 133.02 313.378125 
L 91.44 313.378125 
M 174.6 313.378125 
L 133.02 354.958125 
M 174.6 313.378125 
L 174.6 354.958125 
M 174.6 313.378125 
L 133.02 313.378125 
M 216.18 313.378125 
L 174.6 354.958125 
M 216.18 313.378125 
L 216.18 354.958125 
M 216.18 313.378125 
L 174.6 313.378125 
M 257.76 313.378125 
L 216.18 354.958125 
M 257.76 313.378125 
L 257.76 354.958125 
M 257.76 313.378125 
L 216.18 313.378125 
M 299.34 313.378125 
L 257.76 354.958125 
M 299.34 313.378125 
L 299.34 354.958125 
M 299.34 313.378125 
L 257.76 313.378125 
M 340.92 313.378125 
L 299.34 354.958125 
M 340.92 313.378125 
L 340.92 354.958125 
M 340.92 313.378125 
L 299.34 313.378125 
M 8.28 271.798125 
L 8.28 313.378125 
M 49.86 271.798125 
L 8.28 313.378125 
M 49.86 271.798125 
L 49.86 313.378125 
M 49.86 271.798125 
L 8.28 271.798125 
M 91.44 271.798125 
L 49.86 313.378125 
M 91.44 271.798125 
L 91.44 313.378125 
M 91.44 271.798125 
L 49.86 271.798125 
M 133.02 271.798125 
L 91.44 313.378125 
M 133.02 271.798125 
L 133.02 313.378125 
M 133.02 271.798125 
L 91.44 271.798125 
M 174.6 271.798125 
L 133.02 313.378125 
M 174.6 271.798125 
L 174.6 313.378125 
M 174.6 271.798125 
L 133.02 271.798125 
M 216.18 271.798125 
L 174.6 313.378125 
M 216.18 271.798125 
L 216.18 313.378125 
M 216.18 271.798125 
L 174.6 271.798125 
M 257.76 271.798125 
L 216.18 313.378125 
M 257.76 271.798125 
L 257.76 313.378125 
M 257.76 271.798125 
L 216.18 271.798125 
M 299.34 271.798125 
L 257.76 313.378125 
M 299.34 271.798125 
L 299.34 313.378125 
M 299.34 271.798125 
L 257.76 271.798125 
M 340.92 271.798125 
L 299.34 313.378125 
M 340.92 271.798125 
L 340.92 313.378125 
M 340.92 271.798125 
L 299.34 271.798125 
M 8.28 230.218125 
L 8.28 271.798125 
M 49.86 230.218125 
L 8.28 271.798125 
M 49.86 230.218125 
L 49.86 271.798125 
M 49.86 230.218125 
L 8.28 230.218125 
M 91.44 230.218125 
L 49.86 271.798125 
M 91.44 230.218125 
L 91.44 271.798125 
M 91.44 230.218125 
L 49.86 230.218125 
M 133.02 230.218125 
L 91.44 271.798125 
M 133.02 230.218125 
L 133.02 271.798125 
M 133.02 230.218125 
L 91.44 230.218125 
M 174.6 230.218125 
L 133.02 271.798125 
M 174.6 230.218125 
L 174.6 271.798125 
M 174.6 230.218125 
L 133.02 230.218125 
M 216.18 230.218125 
L 174.6 271.798125 
M 216.18 230.218125 
L 216.18 271.798125 
M 216.18 230.218125 
L 174.6 230.218125 
M 257.76 230.218125 
L 216.18 271.798125 
M 257.76 230.218125 
L 257.76 271.798125 
M 257.76 230.218125 
L 216.18 230.218125 
M 299.34 230.218125 
L 257.76 271.798125 
M 299.34 230.218125 
L 299.34 271.798125 
M 299.34 230.218125 
L 257.76 230.218125 
M 340.92 230.218125 
L 299.34 271.798125 
M 340.92 230.218125 
L 340.92 271.798125 
M 340.92 230.218125 
L 299.34 230.218125 
M 8.28 188.638125 
L 8.28 230.218125 
M 49.86 188.638125 
L 8.28 230.218125 
M 49.86 188.638125 
L 49.86 230.218125 
M 49.86 188.638125 
L 8.28 188.638125 
M 91.44 188.638125 
L 49.86 230.218125 
M 91.44 188.638125 
L 91.44 230.218125 
M 91.44 188.638125 
L 49.86 188.638125 
M 133.02 188.638125 
L 91.44 230.218125 
M 133.02 188.638125 
L 133.02 230.218125 
M 133.02 188.638125 
L 91.44 188.638125 
M 174.6 188.638125 
L 133.02 230.218125 
M 174.6 188.638125 
L 174.6 230.218125 
M 174.6 188.638125 
L 133.02 188.638125 
M 216.18 188.638125 
L 174.6 230.218125 
M 216.18 188.638125 
L 216.18 230.218125 
M 216.18 188.638125 
L 174.6 188.638125 
M 257.76 188.638125 
L 216.18 230.218125 
M 257.76 188.638125 
L 257.76 230.218125 
M 257.76 188.638125 
L 216.18 188.638125 
M 299.34 188.638125 
L 257.76 230.218125 
M 299.34 188.638125 
L 299.34 230.218125 
M 299.34 188.638125 
L 257.76 188.638125 
M 340.92 188.638125 
L 299.34 230.218125 
M 340.92 188.638125 
L 340.92 230.218125 
M 340.92 188.638125 
L 299.34 188.638125 
M 8.28 147.058125 
L 8.28 188.638125 
M 49.86 147.058125 
L 8.28 188.638125 
M 49.86 147.058125 
L 49.86 188.638125 
M 49.86 147.058125 
L 8.28 147.058125 
M 91.44 147.058125 
L 49.86 188.638125 
M 91.44 147.058125 
L 91.44 188.638125 
M 91.44 147.058125 
L 49.86 147.058125 
M 133.02 147.058125 
L 91.44 188.638125 
M 133.02 147.058125 
L 133.02 188.638125 
M 133.02 147.058125 
L 91.44 147.058125 
M 174.6 147.058125 
L 133.02 188.638125 
M 174.6 147.058125 
L 174.6 188.638125 
M 174.6 147.058125 
L 133.02 147.058125 
M 216.18 147.058125 
L 174.6 188.638125 
M 216.18 147.058125 
L 216.18 188.638125 
M 216.18 147.058125 
L 174.6 147.058125 
M 257.76 147.058125 
L 216.18 188.638125 
M 257.76 147.058125 
L 257.76 188.638125 
M 257.76 147.058125 
L 216.18 147.058125 
M 299.34 147.058125 
L 257.76 188.638125 
M 299.34 147.058125 
L 299.34 188.638125 
M 299.34 147.058125 
L 257.76 147.058125 
M 340.92 147.058125 
L 299.34 188.638125 
M 340.92 147.058125 
L 340.92 188.638125 
M 340.92 147.058125 
L 299.34 147.058125 
M 8.28 105.478125 
L 8.28 147.058125 
M 49.86 105.478125 
L 8.28 147.058125 
M 49.86 105.478125 
L 49.86 147.058125 
M 49.86 105.478125 
L 8.28 105.478125 
M 91.44 105.478125 
L 49.86 147.058125 
M 91.44 105.478125 
L 91.44 147.058125 
M 91.44 105.478125 
L 49.86 105.478125 
M 133.02 105.478125 
L 91.44 147.058125 
M 133.02 105.478125 
L 133.02 147.058125 
M 133.02 105.478125 
L 91.44 105.478125 
M 174.6 105.478125 
L 133.02 147.058125 
M 174.6 105.478125 
L 174.6 147.058125 
M 174.6 105.478125 
L 133.02 105.478125 
M 216.18 105.478125 
L 174.6 147.058125 
M 216.18 105.478125 
L 216.18 147.058125 
M 216.18 105.478125 
L 174.6 105.478125 
M 257.76 105.478125 
L 216.18 147.058125 
M 257.76 105.478125 
L 257.76 147.058125 
M 257.76 105.478125 
L 216.18 105.478125 
M 299.34 105.478125 
L 257.76 147.058125 
M 299.34 105.478125 
L 299.34 147.058125 
M 299.34 105.478125 
L 257.76 105.478125 
M 340.92 105.478125 
L 299.34 147.058125 
M 340.92 105.478125 
L 340.92 147.058125 
M 340.92 105.478125 
L 299.34 105.478125 
M 8.28 63.898125 
L 8.28 105.478125 
M 49.86 63.898125 
L 8.28 105.478125 
M 49.86 63.898125 
L 49.86 105.478125 
M 49.86 63.898125 
L 8.28 63.898125 
M 91.44 63.898125 
L 49.86 105.478125 
M 91.44 63.898125 
L 91.44 105.478125 
M 91.44 63.898125 
L 49.86 63.898125 
M 133.02 63.898125 
L 91.44 105.478125 
M 133.02 63.898125 
L 133.02 105.478125 
M 133.02 63.898125 
L 91.44 63.898125 
M 174.6 63.898125 
L 133.02 105.478125 
M 174.6 63.898125 
L 174.6 105.478125 
M 174.6 63.898125 
L 133.02 63.898125 
M 216.18 63.898125 
L 174.6 105.478125 
M 216.18 63.898125 
L 216.18 105.478125 
M 216.18 63.898125 
L 174.6 63.898125 
M 257.76 63.898125 
L 216.18 105.478125 
M 257.76 63.898125 
L 257.76 105.478125 
M 257.76 63.898125 
L 216.18 63.898125 
M 299.34 63.898125 
L 257.76 105.478125 
M 299.34 63.898125 
L 299.34 105.478125 
M 299.34 63.898125 
L 257.76 63.898125 
M 340.92 63.898125 
L 299.34 105.478125 
M 340.92 63.898125 
L 340.92 105.478125 
M 340.92 63.898125 
L 299.34 63.898125 
M 8.28 22.318125 
L 8.28 63.898125 
M 49.86 22.318125 
L 8.28 63.898125 
M 49.86 22.318125 
L 49.86 63.898125 
M 49.86 22.318125 
L 8.28 22.318125 
M 91.44 22.318125 
L 49.86 63.898125 
M 91.44 22.318125 
L 91.44 63.898125 
M 91.44 22.318125 
L 49.86 22.318125 
M 133.02 22.318125 
L 91.44 63.898125 
M 133.02 22.318125 
L 133.02 63.898125 
M 133.02 22.318125 
L 91.44 22.318125 
M 174.6 22.318125 
L 133.02 63.898125 
M 174.6 22.318125 
L 174.6 63.898125 
M 174.6 22.318125 
L 133.02 22.318125 
M 216.18 22.318125 
L 174.6 63.898125 
M 216.18 22.318125 
L 216.18 63.898125 
M 216.18 22.318125 
L 174.6 22.318125 
M 257.76 22.318125 
L 216.18 63.898125 
M 257.76 22.318125 
L 257.76 63.898125 
M 257.76 22.318125 
L 216.18 22.318125 
M 299.34 22.318125 
L 257.76 63.898125 
M 299.34 22.318125 
L 299.34 63.898125 
M 299.34 22.318125 
L 257.76 22.318125 
M 340.92 22.318125 
L 299.34 63.898125 
M 340.92 22.318125 
L 340.92 63.898125 
M 340.92 22.318125 
L 299.34 22.318125 
L 299.34 22.318125 
" style="fill:none;stroke:#000000;stroke-linecap:square;stroke-opacity:0.2;stroke-width:0.5;"/>
   </g>
   <g id="LineCollection_1"/>
   <g id="LineCollection_2">
    <path clip-path="url(#p2b894bc7af)" d="M 174.6 22.318125 
L 133.02 36.096113 
L 114.969767 40.368358 
L 91.44 45.937533 
L 63.911172 49.846953 
L 49.86 51.842385 
L 18.868696 53.309429 
L 8.28 53.810669 
" style="fill:none;stroke:#ffffff;stroke-dasharray:5.55,2.4;stroke-dashoffset:0;stroke-opacity:0.3;stroke-width:1.5;"/>
   </g>
   <g id="LineCollection_3">
    <path clip-path="url(#p2b894bc7af)" d="M 242.64 22.318125 
L 216.18 36.096113 
L 192.175052 46.323073 
L 174.6 53.810669 
L 144.1575 63.898125 
L 133.02 68.809149 
L 125.851034 71.067091 
L 91.44 81.905212 
L 69.237087 86.101038 
L 49.86 89.762849 
L 22.256471 91.501654 
L 8.28 92.382062 
" style="fill:none;stroke:#ffffff;stroke-dasharray:5.55,2.4;stroke-dashoffset:0;stroke-opacity:0.3;stroke-width:1.5;"/>
   </g>
   <g id="LineCollection_4">
    <path clip-path="url(#p2b894bc7af)" d="M 296.141538 22.318125 
L 257.76 45.937533 
L 223.2675 63.898125 
L 216.18 68.809149 
L 204.84 75.238125 
L 174.6 92.382062 
L 144.9 105.478125 
L 133.02 112.788894 
L 119.975294 118.522831 
L 91.44 131.065817 
L 56.686567 140.231558 
L 49.86 142.031971 
L 9.782892 145.555233 
L 8.28 145.687356 
" style="fill:none;stroke:#ffffff;stroke-dasharray:5.55,2.4;stroke-dashoffset:0;stroke-opacity:0.3;stroke-width:1.5;"/>
   </g>
   <g id="LineCollection_5">
    <path clip-path="url(#p2b894bc7af)" d="M 340.92 22.318125 
L 299.34 51.842385 
L 279.749423 63.898125 
L 257.76 81.905212 
L 223.74 105.478125 
L 216.18 112.788894 
L 181.165263 140.492862 
L 174.6 145.687356 
L 172.3725 147.058125 
L 133.02 183.18501 
L 124.704 188.638125 
L 91.44 224.599206 
L 82.7775 230.218125 
L 49.86 271.798125 
L 13.4775 313.378125 
L 8.28 354.958125 
" style="fill:none;stroke:#ffffff;stroke-dasharray:5.55,2.4;stroke-dashoffset:0;stroke-opacity:0.3;stroke-width:1.5;"/>
   </g>
   <g id="LineCollection_6">
    <path clip-path="url(#p2b894bc7af)" d="M 340.92 53.810669 
L 326.7135 63.898125 
L 299.34 89.762849 
L 280.149231 105.478125 
L 257.76 131.065817 
L 241.2225 147.058125 
L 216.18 183.18501 
L 211.56 188.638125 
L 206.676 198.142125 
L 190.1925 230.218125 
L 180.876226 265.521899 
L 179.22 271.798125 
L 175.239692 312.738433 
L 175.1775 313.378125 
L 174.6 354.958125 
" style="fill:none;stroke:#ffffff;stroke-dasharray:5.55,2.4;stroke-dashoffset:0;stroke-opacity:0.3;stroke-width:1.5;"/>
   </g>
   <g id="LineCollection_7">
    <path clip-path="url(#p2b894bc7af)" d="M 340.92 92.382062 
L 327.06 105.478125 
L 299.34 142.031971 
L 294.942115 147.058125 
L 288.703256 157.694869 
L 270.553846 188.638125 
L 257.76 224.599206 
L 255.3975 230.218125 
L 254.746957 233.231168 
L 246.42 271.798125 
L 245.44 284.118125 
L 243.1125 313.378125 
L 242.944138 328.193987 
L 242.64 354.958125 
" style="fill:none;stroke:#ffffff;stroke-dasharray:5.55,2.4;stroke-dashoffset:0;stroke-opacity:0.3;stroke-width:1.5;"/>
   </g>
   <g id="LineCollection_8">
    <path clip-path="url(#p2b894bc7af)" d="M 340.92 145.687356 
L 339.8805 147.058125 
L 338.805763 149.172362 
L 318.744 188.638125 
L 308.858313 220.699812 
L 305.9235 230.218125 
L 299.34 271.798125 
L 296.541346 313.378125 
L 296.514175 316.20395 
L 296.141538 354.958125 
" style="fill:none;stroke:#ffffff;stroke-dasharray:5.55,2.4;stroke-dashoffset:0;stroke-opacity:0.3;stroke-width:1.5;"/>
   </g>
   <g id="LineCollection_9">
    <path clip-path="url(#p2b894bc7af)" d="M 340.92 354.958125 
" style="fill:none;stroke:#ffffff;stroke-dasharray:5.55,2.4;stroke-dashoffset:0;stroke-opacity:0.3;stroke-width:1.5;"/>
   </g>
   <g id="line2d_2"/>
   <g id="line2d_3">
    <path d="M 8.28 354.958125 
L 49.86 354.958125 
L 91.44 354.958125 
L 133.02 354.958125 
L 174.6 354.958125 
L 216.18 354.958125 
L 257.76 354.958125 
L 299.34 354.958125 
L 340.92 354.958125 
" style="fill:none;stroke:#000000;stroke-linecap:square;stroke-width:1.5;"/>
   </g>
   <g id="line2d_4">
    <path d="M 340.92 354.958125 
L 340.92 313.378125 
L 340.92 271.798125 
L 340.92 230.218125 
L 340.92 188.638125 
L 340.92 147.058125 
L 340.92 105.478125 
L 340.92 63.898125 
L 340.92 22.318125 
" style="fill:none;stroke:#000000;stroke-linecap:square;stroke-width:1.5;"/>
   </g>
   <g id="line2d_5">
    <path d="M 49.86 22.318125 
L 8.28 22.318125 
M 91.44 22.318125 
L 49.86 22.318125 
M 133.02 22.318125 
L 91.44 22.318125 
M 174.6 22.318125 
L 133.02 22.318125 
M 216.18 22.318125 
L 174.6 22.318125 
M 257.76 22.318125 
L 216.18 22.318125 
M 299.34 22.318125 
L 257.76 22.318125 
M 340.92 22.318125 
L 299.34 22.318125 
" style="fill:none;stroke:#000000;stroke-linecap:square;stroke-width:1.5;"/>
   </g>
   <g id="line2d_6">
    <path d="M 8.28 313.378125 
L 8.28 354.958125 
M 8.28 271.798125 
L 8.28 313.378125 
M 8.28 230.218125 
L 8.28 271.798125 
M 8.28 188.638125 
L 8.28 230.218125 
M 8.28 147.058125 
L 8.28 188.638125 
M 8.28 105.478125 
L 8.28 147.058125 
M 8.28 63.898125 
L 8.28 105.478125 
M 8.28 22.318125 
L 8.28 63.898125 
" style="fill:none;stroke:#000000;stroke-linecap:square;stroke-width:1.5;"/>
   </g>
   <g id="text_1">
    <!-- Projection on P1 space -->
    <defs>
     <path d="M 19.671875 64.796875 
L 19.671875 37.40625 
L 32.078125 37.40625 
Q 38.96875 37.40625 42.71875 40.96875 
Q 46.484375 44.53125 46.484375 51.125 
Q 46.484375 57.671875 42.71875 61.234375 
Q 38.96875 64.796875 32.078125 64.796875 
z
M 9.8125 72.90625 
L 32.078125 72.90625 
Q 44.34375 72.90625 50.609375 67.359375 
Q 56.890625 61.8125 56.890625 51.125 
Q 56.890625 40.328125 50.609375 34.8125 
Q 44.34375 29.296875 32.078125 29.296875 
L 19.671875 29.296875 
L 19.671875 0 
L 9.8125 0 
z
" id="DejaVuSans-80"/>
     <path d="M 41.109375 46.296875 
Q 39.59375 47.171875 37.8125 47.578125 
Q 36.03125 48 33.890625 48 
Q 26.265625 48 22.1875 43.046875 
Q 18.109375 38.09375 18.109375 28.8125 
L 18.109375 0 
L 9.078125 0 
L 9.078125 54.6875 
L 18.109375 54.6875 
L 18.109375 46.1875 
Q 20.953125 51.171875 25.484375 53.578125 
Q 30.03125 56 36.53125 56 
Q 37.453125 56 38.578125 55.875 
Q 39.703125 55.765625 41.0625 55.515625 
z
" id="DejaVuSans-114"/>
     <path d="M 30.609375 48.390625 
Q 23.390625 48.390625 19.1875 42.75 
Q 14.984375 37.109375 14.984375 27.296875 
Q 14.984375 17.484375 19.15625 11.84375 
Q 23.34375 6.203125 30.609375 6.203125 
Q 37.796875 6.203125 41.984375 11.859375 
Q 46.1875 17.53125 46.1875 27.296875 
Q 46.1875 37.015625 41.984375 42.703125 
Q 37.796875 48.390625 30.609375 48.390625 
z
M 30.609375 56 
Q 42.328125 56 49.015625 48.375 
Q 55.71875 40.765625 55.71875 27.296875 
Q 55.71875 13.875 49.015625 6.21875 
Q 42.328125 -1.421875 30.609375 -1.421875 
Q 18.84375 -1.421875 12.171875 6.21875 
Q 5.515625 13.875 5.515625 27.296875 
Q 5.515625 40.765625 12.171875 48.375 
Q 18.84375 56 30.609375 56 
z
" id="DejaVuSans-111"/>
     <path d="M 9.421875 54.6875 
L 18.40625 54.6875 
L 18.40625 -0.984375 
Q 18.40625 -11.421875 14.421875 -16.109375 
Q 10.453125 -20.796875 1.609375 -20.796875 
L -1.8125 -20.796875 
L -1.8125 -13.1875 
L 0.59375 -13.1875 
Q 5.71875 -13.1875 7.5625 -10.8125 
Q 9.421875 -8.453125 9.421875 -0.984375 
z
M 9.421875 75.984375 
L 18.40625 75.984375 
L 18.40625 64.59375 
L 9.421875 64.59375 
z
" id="DejaVuSans-106"/>
     <path d="M 56.203125 29.59375 
L 56.203125 25.203125 
L 14.890625 25.203125 
Q 15.484375 15.921875 20.484375 11.0625 
Q 25.484375 6.203125 34.421875 6.203125 
Q 39.59375 6.203125 44.453125 7.46875 
Q 49.3125 8.734375 54.109375 11.28125 
L 54.109375 2.78125 
Q 49.265625 0.734375 44.1875 -0.34375 
Q 39.109375 -1.421875 33.890625 -1.421875 
Q 20.796875 -1.421875 13.15625 6.1875 
Q 5.515625 13.8125 5.515625 26.8125 
Q 5.515625 40.234375 12.765625 48.109375 
Q 20.015625 56 32.328125 56 
Q 43.359375 56 49.78125 48.890625 
Q 56.203125 41.796875 56.203125 29.59375 
z
M 47.21875 32.234375 
Q 47.125 39.59375 43.09375 43.984375 
Q 39.0625 48.390625 32.421875 48.390625 
Q 24.90625 48.390625 20.390625 44.140625 
Q 15.875 39.890625 15.1875 32.171875 
z
" id="DejaVuSans-101"/>
     <path d="M 48.78125 52.59375 
L 48.78125 44.1875 
Q 44.96875 46.296875 41.140625 47.34375 
Q 37.3125 48.390625 33.40625 48.390625 
Q 24.65625 48.390625 19.8125 42.84375 
Q 14.984375 37.3125 14.984375 27.296875 
Q 14.984375 17.28125 19.8125 11.734375 
Q 24.65625 6.203125 33.40625 6.203125 
Q 37.3125 6.203125 41.140625 7.25 
Q 44.96875 8.296875 48.78125 10.40625 
L 48.78125 2.09375 
Q 45.015625 0.34375 40.984375 -0.53125 
Q 36.96875 -1.421875 32.421875 -1.421875 
Q 20.0625 -1.421875 12.78125 6.34375 
Q 5.515625 14.109375 5.515625 27.296875 
Q 5.515625 40.671875 12.859375 48.328125 
Q 20.21875 56 33.015625 56 
Q 37.15625 56 41.109375 55.140625 
Q 45.0625 54.296875 48.78125 52.59375 
z
" id="DejaVuSans-99"/>
     <path d="M 18.3125 70.21875 
L 18.3125 54.6875 
L 36.8125 54.6875 
L 36.8125 47.703125 
L 18.3125 47.703125 
L 18.3125 18.015625 
Q 18.3125 11.328125 20.140625 9.421875 
Q 21.96875 7.515625 27.59375 7.515625 
L 36.8125 7.515625 
L 36.8125 0 
L 27.59375 0 
Q 17.1875 0 13.234375 3.875 
Q 9.28125 7.765625 9.28125 18.015625 
L 9.28125 47.703125 
L 2.6875 47.703125 
L 2.6875 54.6875 
L 9.28125 54.6875 
L 9.28125 70.21875 
z
" id="DejaVuSans-116"/>
     <path d="M 9.421875 54.6875 
L 18.40625 54.6875 
L 18.40625 0 
L 9.421875 0 
z
M 9.421875 75.984375 
L 18.40625 75.984375 
L 18.40625 64.59375 
L 9.421875 64.59375 
z
" id="DejaVuSans-105"/>
     <path d="M 54.890625 33.015625 
L 54.890625 0 
L 45.90625 0 
L 45.90625 32.71875 
Q 45.90625 40.484375 42.875 44.328125 
Q 39.84375 48.1875 33.796875 48.1875 
Q 26.515625 48.1875 22.3125 43.546875 
Q 18.109375 38.921875 18.109375 30.90625 
L 18.109375 0 
L 9.078125 0 
L 9.078125 54.6875 
L 18.109375 54.6875 
L 18.109375 46.1875 
Q 21.34375 51.125 25.703125 53.5625 
Q 30.078125 56 35.796875 56 
Q 45.21875 56 50.046875 50.171875 
Q 54.890625 44.34375 54.890625 33.015625 
z
" id="DejaVuSans-110"/>
     <path id="DejaVuSans-32"/>
     <path d="M 12.40625 8.296875 
L 28.515625 8.296875 
L 28.515625 63.921875 
L 10.984375 60.40625 
L 10.984375 69.390625 
L 28.421875 72.90625 
L 38.28125 72.90625 
L 38.28125 8.296875 
L 54.390625 8.296875 
L 54.390625 0 
L 12.40625 0 
z
" id="DejaVuSans-49"/>
     <path d="M 44.28125 53.078125 
L 44.28125 44.578125 
Q 40.484375 46.53125 36.375 47.5 
Q 32.28125 48.484375 27.875 48.484375 
Q 21.1875 48.484375 17.84375 46.4375 
Q 14.5 44.390625 14.5 40.28125 
Q 14.5 37.15625 16.890625 35.375 
Q 19.28125 33.59375 26.515625 31.984375 
L 29.59375 31.296875 
Q 39.15625 29.25 43.1875 25.515625 
Q 47.21875 21.78125 47.21875 15.09375 
Q 47.21875 7.46875 41.1875 3.015625 
Q 35.15625 -1.421875 24.609375 -1.421875 
Q 20.21875 -1.421875 15.453125 -0.5625 
Q 10.6875 0.296875 5.421875 2 
L 5.421875 11.28125 
Q 10.40625 8.6875 15.234375 7.390625 
Q 20.0625 6.109375 24.8125 6.109375 
Q 31.15625 6.109375 34.5625 8.28125 
Q 37.984375 10.453125 37.984375 14.40625 
Q 37.984375 18.0625 35.515625 20.015625 
Q 33.0625 21.96875 24.703125 23.78125 
L 21.578125 24.515625 
Q 13.234375 26.265625 9.515625 29.90625 
Q 5.8125 33.546875 5.8125 39.890625 
Q 5.8125 47.609375 11.28125 51.796875 
Q 16.75 56 26.8125 56 
Q 31.78125 56 36.171875 55.265625 
Q 40.578125 54.546875 44.28125 53.078125 
z
" id="DejaVuSans-115"/>
     <path d="M 18.109375 8.203125 
L 18.109375 -20.796875 
L 9.078125 -20.796875 
L 9.078125 54.6875 
L 18.109375 54.6875 
L 18.109375 46.390625 
Q 20.953125 51.265625 25.265625 53.625 
Q 29.59375 56 35.59375 56 
Q 45.5625 56 51.78125 48.09375 
Q 58.015625 40.1875 58.015625 27.296875 
Q 58.015625 14.40625 51.78125 6.484375 
Q 45.5625 -1.421875 35.59375 -1.421875 
Q 29.59375 -1.421875 25.265625 0.953125 
Q 20.953125 3.328125 18.109375 8.203125 
z
M 48.6875 27.296875 
Q 48.6875 37.203125 44.609375 42.84375 
Q 40.53125 48.484375 33.40625 48.484375 
Q 26.265625 48.484375 22.1875 42.84375 
Q 18.109375 37.203125 18.109375 27.296875 
Q 18.109375 17.390625 22.1875 11.75 
Q 26.265625 6.109375 33.40625 6.109375 
Q 40.53125 6.109375 44.609375 11.75 
Q 48.6875 17.390625 48.6875 27.296875 
z
" id="DejaVuSans-112"/>
     <path d="M 34.28125 27.484375 
Q 23.390625 27.484375 19.1875 25 
Q 14.984375 22.515625 14.984375 16.5 
Q 14.984375 11.71875 18.140625 8.90625 
Q 21.296875 6.109375 26.703125 6.109375 
Q 34.1875 6.109375 38.703125 11.40625 
Q 43.21875 16.703125 43.21875 25.484375 
L 43.21875 27.484375 
z
M 52.203125 31.203125 
L 52.203125 0 
L 43.21875 0 
L 43.21875 8.296875 
Q 40.140625 3.328125 35.546875 0.953125 
Q 30.953125 -1.421875 24.3125 -1.421875 
Q 15.921875 -1.421875 10.953125 3.296875 
Q 6 8.015625 6 15.921875 
Q 6 25.140625 12.171875 29.828125 
Q 18.359375 34.515625 30.609375 34.515625 
L 43.21875 34.515625 
L 43.21875 35.40625 
Q 43.21875 41.609375 39.140625 45 
Q 35.0625 48.390625 27.6875 48.390625 
Q 23 48.390625 18.546875 47.265625 
Q 14.109375 46.140625 10.015625 43.890625 
L 10.015625 52.203125 
Q 14.9375 54.109375 19.578125 55.046875 
Q 24.21875 56 28.609375 56 
Q 40.484375 56 46.34375 49.84375 
Q 52.203125 43.703125 52.203125 31.203125 
z
" id="DejaVuSans-97"/>
    </defs>
    <g transform="translate(106.464375 16.318125)scale(0.12 -0.12)">
     <use xlink:href="#DejaVuSans-80"/>
     <use x="60.287109" xlink:href="#DejaVuSans-114"/>
     <use x="101.369141" xlink:href="#DejaVuSans-111"/>
     <use x="162.550781" xlink:href="#DejaVuSans-106"/>
     <use x="190.333984" xlink:href="#DejaVuSans-101"/>
     <use x="251.857422" xlink:href="#DejaVuSans-99"/>
     <use x="306.837891" xlink:href="#DejaVuSans-116"/>
     <use x="346.046875" xlink:href="#DejaVuSans-105"/>
     <use x="373.830078" xlink:href="#DejaVuSans-111"/>
     <use x="435.011719" xlink:href="#DejaVuSans-110"/>
     <use x="498.390625" xlink:href="#DejaVuSans-32"/>
     <use x="530.177734" xlink:href="#DejaVuSans-111"/>
     <use x="591.359375" xlink:href="#DejaVuSans-110"/>
     <use x="654.738281" xlink:href="#DejaVuSans-32"/>
     <use x="686.525391" xlink:href="#DejaVuSans-80"/>
     <use x="746.828125" xlink:href="#DejaVuSans-49"/>
     <use x="810.451172" xlink:href="#DejaVuSans-32"/>
     <use x="842.238281" xlink:href="#DejaVuSans-115"/>
     <use x="894.337891" xlink:href="#DejaVuSans-112"/>
     <use x="957.814453" xlink:href="#DejaVuSans-97"/>
     <use x="1019.09375" xlink:href="#DejaVuSans-99"/>
     <use x="1074.074219" xlink:href="#DejaVuSans-101"/>
    </g>
   </g>
  </g>
 </g>
 <defs>
  <clipPath id="p2b894bc7af">
   <rect height="332.64" width="334.8" x="7.2" y="22.318125"/>
  </clipPath>
 </defs>
</svg>
