<?xml version="1.0" encoding="utf-8" standalone="no"?>
<!DOCTYPE svg PUBLIC "-//W3C//DTD SVG 1.1//EN"
  "http://www.w3.org/Graphics/SVG/1.1/DTD/svg11.dtd">
<!-- Created with matplotlib (https://matplotlib.org/) -->
<svg height="280.512pt" version="1.1" viewBox="0 0 371.52 280.512" width="371.52pt" xmlns="http://www.w3.org/2000/svg" xmlns:xlink="http://www.w3.org/1999/xlink">
 <defs>
  <style type="text/css">
*{stroke-linecap:butt;stroke-linejoin:round;}
  </style>
 </defs>
 <g id="figure_1">
  <g id="patch_1">
   <path d="M 0 280.512 
L 371.52 280.512 
L 371.52 0 
L 0 0 
z
" style="fill:#ffffff;"/>
  </g>
  <g id="axes_1">
   <g id="line2d_1">
    <path clip-path="url(#pfac20ec3cb)" d="M 23.445713 75.435848 
L 23.432727 75.396896 
M 23.448695 75.444789 
L 23.445713 75.435848 
M 23.45236 75.455782 
L 23.448695 75.444789 
M 23.456868 75.469296 
L 23.45236 75.455782 
M 23.46241 75.485912 
L 23.456868 75.469296 
M 23.469224 75.506339 
L 23.46241 75.485912 
M 23.477602 75.531451 
L 23.469224 75.506339 
M 23.487904 75.562321 
L 23.477602 75.531451 
M 23.500571 75.600269 
L 23.487904 75.562321 
M 23.516147 75.646912 
L 23.500571 75.600269 
M 23.535297 75.704241 
L 23.516147 75.646912 
M 23.558844 75.774696 
L 23.535297 75.704241 
M 23.587797 75.861273 
L 23.558844 75.774696 
M 23.623397 75.967647 
L 23.587797 75.861273 
M 23.667169 76.098321 
L 23.623397 75.967647 
M 23.720991 76.258813 
L 23.667169 76.098321 
M 23.787168 76.455876 
L 23.720991 76.258813 
M 23.868537 76.697766 
L 23.787168 76.455876 
M 23.968587 76.994566 
L 23.868537 76.697766 
M 24.091605 77.358562 
L 23.968587 76.994566 
M 24.242865 77.804707 
L 24.091605 77.358562 
M 24.42885 78.351141 
L 24.242865 77.804707 
M 24.657532 79.019812 
L 24.42885 78.351141 
M 24.938712 79.837162 
L 24.657532 79.019812 
M 25.284444 80.834903 
L 24.938712 79.837162 
M 25.709546 82.050824 
L 25.284444 80.834903 
M 26.232239 83.529611 
L 25.709546 82.050824 
M 26.874928 85.323579 
L 26.232239 83.529611 
M 27.66516 87.493194 
L 26.874928 85.323579 
M 28.636807 90.107167 
L 27.66516 87.493194 
M 29.831517 93.241841 
L 28.636807 90.107167 
M 31.300498 96.979426 
L 29.831517 93.241841 
M 33.106716 101.404554 
L 31.300498 96.979426 
M 35.32759 106.598461 
L 33.106716 101.404554 
M 38.058315 112.63007 
L 35.32759 106.598461 
M 41.415937 119.543317 
L 38.058315 112.63007 
M 45.544373 127.340513 
L 41.415937 119.543317 
M 50.620583 135.962395 
L 45.544373 127.340513 
M 56.862147 145.267224 
L 50.620583 135.962395 
M 64.536597 155.013664 
L 56.862147 145.267224 
M 73.972884 164.855038 
L 64.536597 155.013664 
M 85.575477 174.354712 
L 73.972884 164.855038 
M 99.841697 183.031454 
L 64.536597 155.013664 
M 99.841697 183.031454 
L 73.972884 164.855038 
M 99.841697 183.031454 
L 85.575477 174.354712 
M 117.383038 190.43689 
L 50.620583 135.962395 
M 117.383038 190.43689 
L 56.862147 145.267224 
M 117.383038 190.43689 
L 64.536597 155.013664 
M 117.383038 190.43689 
L 99.841697 183.031454 
M 138.951376 196.252826 
L 38.058315 112.63007 
M 138.951376 196.252826 
L 41.415937 119.543317 
M 138.951376 196.252826 
L 45.544373 127.340513 
M 138.951376 196.252826 
L 50.620583 135.962395 
M 138.951376 196.252826 
L 117.383038 190.43689 
M 165.471194 200.377564 
L 31.300498 96.979426 
M 165.471194 200.377564 
L 33.106716 101.404554 
M 165.471194 200.377564 
L 35.32759 106.598461 
M 165.471194 200.377564 
L 38.058315 112.63007 
M 165.471194 200.377564 
L 138.951376 196.252826 
M 198.079214 202.958877 
L 165.471194 200.377564 
M 238.173115 204.34312 
L 198.079214 202.958877 
M 287.471442 204.949693 
L 238.173115 204.34312 
M 348.087273 205.115104 
L 287.471442 204.949693 
M 348.087273 75.396935 
L 23.432727 75.396896 
M 348.087273 75.396935 
L 23.445713 75.435848 
M 348.087273 75.396935 
L 23.448695 75.444789 
M 348.087273 75.396935 
L 23.45236 75.455782 
M 348.087273 75.396935 
L 23.456868 75.469296 
M 348.087273 75.396935 
L 23.46241 75.485912 
M 348.087273 75.396935 
L 23.469224 75.506339 
M 348.087273 75.396935 
L 23.477602 75.531451 
M 348.087273 75.396935 
L 23.487904 75.562321 
M 348.087273 75.396935 
L 23.500571 75.600269 
M 348.087273 75.396935 
L 23.516147 75.646912 
M 348.087273 75.396935 
L 23.535297 75.704241 
M 348.087273 75.396935 
L 23.558844 75.774696 
M 348.087273 75.396935 
L 23.587797 75.861273 
M 348.087273 75.396935 
L 23.623397 75.967647 
M 348.087273 75.396935 
L 23.667169 76.098321 
M 348.087273 75.396935 
L 23.720991 76.258813 
M 348.087273 75.396935 
L 23.787168 76.455876 
M 348.087273 75.396935 
L 23.868537 76.697766 
M 348.087273 75.396935 
L 23.968587 76.994566 
M 348.087273 75.396935 
L 24.091605 77.358562 
M 348.087273 75.396935 
L 24.242865 77.804707 
M 348.087273 75.396935 
L 24.42885 78.351141 
M 348.087273 75.396935 
L 24.657532 79.019812 
M 348.087273 75.396935 
L 24.938712 79.837162 
M 348.087273 75.396935 
L 25.284444 80.834903 
M 348.087273 75.396935 
L 25.709546 82.050824 
M 348.087273 75.396935 
L 26.232239 83.529611 
M 348.087273 75.396935 
L 26.874928 85.323579 
M 348.087273 75.396935 
L 27.66516 87.493194 
M 348.087273 75.396935 
L 28.636807 90.107167 
M 348.087273 75.396935 
L 29.831517 93.241841 
M 348.087273 75.396935 
L 31.300498 96.979426 
M 348.087273 75.396935 
L 165.471194 200.377564 
M 348.087273 75.396935 
L 198.079214 202.958877 
M 348.087273 75.396935 
L 238.173115 204.34312 
M 348.087273 75.396935 
L 287.471442 204.949693 
M 348.087273 75.396935 
L 348.087273 205.115104 
L 348.087273 205.115104 
" style="fill:none;stroke:#000000;stroke-linecap:square;stroke-opacity:0.3;stroke-width:0.5;"/>
   </g>
   <g id="line2d_2"/>
   <g id="line2d_3">
    <path d="M 23.432727 75.396896 
L 23.445713 75.435848 
L 23.448695 75.444789 
L 23.45236 75.455782 
L 23.456868 75.469296 
L 23.46241 75.485912 
L 23.469224 75.506339 
L 23.477602 75.531451 
L 23.487904 75.562321 
L 23.500571 75.600269 
L 23.516147 75.646912 
L 23.535297 75.704241 
L 23.558844 75.774696 
L 23.587797 75.861273 
L 23.623397 75.967647 
L 23.667169 76.098321 
L 23.720991 76.258813 
L 23.787168 76.455876 
L 23.868537 76.697766 
L 23.968587 76.994566 
L 24.091605 77.358562 
L 24.242865 77.804707 
L 24.42885 78.351141 
L 24.657532 79.019812 
L 24.938712 79.837162 
L 25.284444 80.834903 
L 25.709546 82.050824 
L 26.232239 83.529611 
L 26.874928 85.323579 
L 27.66516 87.493194 
L 28.636807 90.107167 
L 29.831517 93.241841 
L 31.300498 96.979426 
L 33.106716 101.404554 
L 35.32759 106.598461 
L 38.058315 112.63007 
L 41.415937 119.543317 
L 45.544373 127.340513 
L 50.620583 135.962395 
L 56.862147 145.267224 
L 64.536597 155.013664 
L 73.972884 164.855038 
L 85.575477 174.354712 
L 99.841697 183.031454 
L 117.383038 190.43689 
L 138.951376 196.252826 
L 165.471194 200.377564 
L 198.079214 202.958877 
L 238.173115 204.34312 
L 287.471442 204.949693 
L 348.087273 205.115104 
" style="fill:none;stroke:#1f77b4;stroke-linecap:square;stroke-width:1.5;"/>
   </g>
   <g id="line2d_4">
    <path d="M 348.087273 75.396935 
L 23.432727 75.396896 
" style="fill:none;stroke:#ff7f0e;stroke-linecap:square;stroke-width:1.5;"/>
   </g>
   <g id="line2d_5">
    <path d="M 348.087273 205.115104 
L 348.087273 75.396935 
" style="fill:none;stroke:#2ca02c;stroke-linecap:square;stroke-width:1.5;"/>
   </g>
   <g id="legend_1">
    <g id="patch_2">
     <path d="M 14.2 268.312 
L 93.725 268.312 
Q 95.725 268.312 95.725 266.312 
L 95.725 208.5995 
Q 95.725 206.5995 93.725 206.5995 
L 14.2 206.5995 
Q 12.2 206.5995 12.2 208.5995 
L 12.2 266.312 
Q 12.2 268.312 14.2 268.312 
z
" style="fill:#ffffff;opacity:0.8;stroke:#cccccc;stroke-linejoin:miter;"/>
    </g>
    <g id="text_1">
     <!-- Boundary label -->
     <defs>
      <path d="M 19.671875 34.8125 
L 19.671875 8.109375 
L 35.5 8.109375 
Q 43.453125 8.109375 47.28125 11.40625 
Q 51.125 14.703125 51.125 21.484375 
Q 51.125 28.328125 47.28125 31.5625 
Q 43.453125 34.8125 35.5 34.8125 
z
M 19.671875 64.796875 
L 19.671875 42.828125 
L 34.28125 42.828125 
Q 41.5 42.828125 45.03125 45.53125 
Q 48.578125 48.25 48.578125 53.8125 
Q 48.578125 59.328125 45.03125 62.0625 
Q 41.5 64.796875 34.28125 64.796875 
z
M 9.8125 72.90625 
L 35.015625 72.90625 
Q 46.296875 72.90625 52.390625 68.21875 
Q 58.5 63.53125 58.5 54.890625 
Q 58.5 48.1875 55.375 44.234375 
Q 52.25 40.28125 46.1875 39.3125 
Q 53.46875 37.75 57.5 32.78125 
Q 61.53125 27.828125 61.53125 20.40625 
Q 61.53125 10.640625 54.890625 5.3125 
Q 48.25 0 35.984375 0 
L 9.8125 0 
z
" id="DejaVuSans-66"/>
      <path d="M 30.609375 48.390625 
Q 23.390625 48.390625 19.1875 42.75 
Q 14.984375 37.109375 14.984375 27.296875 
Q 14.984375 17.484375 19.15625 11.84375 
Q 23.34375 6.203125 30.609375 6.203125 
Q 37.796875 6.203125 41.984375 11.859375 
Q 46.1875 17.53125 46.1875 27.296875 
Q 46.1875 37.015625 41.984375 42.703125 
Q 37.796875 48.390625 30.609375 48.390625 
z
M 30.609375 56 
Q 42.328125 56 49.015625 48.375 
Q 55.71875 40.765625 55.71875 27.296875 
Q 55.71875 13.875 49.015625 6.21875 
Q 42.328125 -1.421875 30.609375 -1.421875 
Q 18.84375 -1.421875 12.171875 6.21875 
Q 5.515625 13.875 5.515625 27.296875 
Q 5.515625 40.765625 12.171875 48.375 
Q 18.84375 56 30.609375 56 
z
" id="DejaVuSans-111"/>
      <path d="M 8.5 21.578125 
L 8.5 54.6875 
L 17.484375 54.6875 
L 17.484375 21.921875 
Q 17.484375 14.15625 20.5 10.265625 
Q 23.53125 6.390625 29.59375 6.390625 
Q 36.859375 6.390625 41.078125 11.03125 
Q 45.3125 15.671875 45.3125 23.6875 
L 45.3125 54.6875 
L 54.296875 54.6875 
L 54.296875 0 
L 45.3125 0 
L 45.3125 8.40625 
Q 42.046875 3.421875 37.71875 1 
Q 33.40625 -1.421875 27.6875 -1.421875 
Q 18.265625 -1.421875 13.375 4.4375 
Q 8.5 10.296875 8.5 21.578125 
z
M 31.109375 56 
z
" id="DejaVuSans-117"/>
      <path d="M 54.890625 33.015625 
L 54.890625 0 
L 45.90625 0 
L 45.90625 32.71875 
Q 45.90625 40.484375 42.875 44.328125 
Q 39.84375 48.1875 33.796875 48.1875 
Q 26.515625 48.1875 22.3125 43.546875 
Q 18.109375 38.921875 18.109375 30.90625 
L 18.109375 0 
L 9.078125 0 
L 9.078125 54.6875 
L 18.109375 54.6875 
L 18.109375 46.1875 
Q 21.34375 51.125 25.703125 53.5625 
Q 30.078125 56 35.796875 56 
Q 45.21875 56 50.046875 50.171875 
Q 54.890625 44.34375 54.890625 33.015625 
z
" id="DejaVuSans-110"/>
      <path d="M 45.40625 46.390625 
L 45.40625 75.984375 
L 54.390625 75.984375 
L 54.390625 0 
L 45.40625 0 
L 45.40625 8.203125 
Q 42.578125 3.328125 38.25 0.953125 
Q 33.9375 -1.421875 27.875 -1.421875 
Q 17.96875 -1.421875 11.734375 6.484375 
Q 5.515625 14.40625 5.515625 27.296875 
Q 5.515625 40.1875 11.734375 48.09375 
Q 17.96875 56 27.875 56 
Q 33.9375 56 38.25 53.625 
Q 42.578125 51.265625 45.40625 46.390625 
z
M 14.796875 27.296875 
Q 14.796875 17.390625 18.875 11.75 
Q 22.953125 6.109375 30.078125 6.109375 
Q 37.203125 6.109375 41.296875 11.75 
Q 45.40625 17.390625 45.40625 27.296875 
Q 45.40625 37.203125 41.296875 42.84375 
Q 37.203125 48.484375 30.078125 48.484375 
Q 22.953125 48.484375 18.875 42.84375 
Q 14.796875 37.203125 14.796875 27.296875 
z
" id="DejaVuSans-100"/>
      <path d="M 34.28125 27.484375 
Q 23.390625 27.484375 19.1875 25 
Q 14.984375 22.515625 14.984375 16.5 
Q 14.984375 11.71875 18.140625 8.90625 
Q 21.296875 6.109375 26.703125 6.109375 
Q 34.1875 6.109375 38.703125 11.40625 
Q 43.21875 16.703125 43.21875 25.484375 
L 43.21875 27.484375 
z
M 52.203125 31.203125 
L 52.203125 0 
L 43.21875 0 
L 43.21875 8.296875 
Q 40.140625 3.328125 35.546875 0.953125 
Q 30.953125 -1.421875 24.3125 -1.421875 
Q 15.921875 -1.421875 10.953125 3.296875 
Q 6 8.015625 6 15.921875 
Q 6 25.140625 12.171875 29.828125 
Q 18.359375 34.515625 30.609375 34.515625 
L 43.21875 34.515625 
L 43.21875 35.40625 
Q 43.21875 41.609375 39.140625 45 
Q 35.0625 48.390625 27.6875 48.390625 
Q 23 48.390625 18.546875 47.265625 
Q 14.109375 46.140625 10.015625 43.890625 
L 10.015625 52.203125 
Q 14.9375 54.109375 19.578125 55.046875 
Q 24.21875 56 28.609375 56 
Q 40.484375 56 46.34375 49.84375 
Q 52.203125 43.703125 52.203125 31.203125 
z
" id="DejaVuSans-97"/>
      <path d="M 41.109375 46.296875 
Q 39.59375 47.171875 37.8125 47.578125 
Q 36.03125 48 33.890625 48 
Q 26.265625 48 22.1875 43.046875 
Q 18.109375 38.09375 18.109375 28.8125 
L 18.109375 0 
L 9.078125 0 
L 9.078125 54.6875 
L 18.109375 54.6875 
L 18.109375 46.1875 
Q 20.953125 51.171875 25.484375 53.578125 
Q 30.03125 56 36.53125 56 
Q 37.453125 56 38.578125 55.875 
Q 39.703125 55.765625 41.0625 55.515625 
z
" id="DejaVuSans-114"/>
      <path d="M 32.171875 -5.078125 
Q 28.375 -14.84375 24.75 -17.8125 
Q 21.140625 -20.796875 15.09375 -20.796875 
L 7.90625 -20.796875 
L 7.90625 -13.28125 
L 13.1875 -13.28125 
Q 16.890625 -13.28125 18.9375 -11.515625 
Q 21 -9.765625 23.484375 -3.21875 
L 25.09375 0.875 
L 2.984375 54.6875 
L 12.5 54.6875 
L 29.59375 11.921875 
L 46.6875 54.6875 
L 56.203125 54.6875 
z
" id="DejaVuSans-121"/>
      <path id="DejaVuSans-32"/>
      <path d="M 9.421875 75.984375 
L 18.40625 75.984375 
L 18.40625 0 
L 9.421875 0 
z
" id="DejaVuSans-108"/>
      <path d="M 48.6875 27.296875 
Q 48.6875 37.203125 44.609375 42.84375 
Q 40.53125 48.484375 33.40625 48.484375 
Q 26.265625 48.484375 22.1875 42.84375 
Q 18.109375 37.203125 18.109375 27.296875 
Q 18.109375 17.390625 22.1875 11.75 
Q 26.265625 6.109375 33.40625 6.109375 
Q 40.53125 6.109375 44.609375 11.75 
Q 48.6875 17.390625 48.6875 27.296875 
z
M 18.109375 46.390625 
Q 20.953125 51.265625 25.265625 53.625 
Q 29.59375 56 35.59375 56 
Q 45.5625 56 51.78125 48.09375 
Q 58.015625 40.1875 58.015625 27.296875 
Q 58.015625 14.40625 51.78125 6.484375 
Q 45.5625 -1.421875 35.59375 -1.421875 
Q 29.59375 -1.421875 25.265625 0.953125 
Q 20.953125 3.328125 18.109375 8.203125 
L 18.109375 0 
L 9.078125 0 
L 9.078125 75.984375 
L 18.109375 75.984375 
z
" id="DejaVuSans-98"/>
      <path d="M 56.203125 29.59375 
L 56.203125 25.203125 
L 14.890625 25.203125 
Q 15.484375 15.921875 20.484375 11.0625 
Q 25.484375 6.203125 34.421875 6.203125 
Q 39.59375 6.203125 44.453125 7.46875 
Q 49.3125 8.734375 54.109375 11.28125 
L 54.109375 2.78125 
Q 49.265625 0.734375 44.1875 -0.34375 
Q 39.109375 -1.421875 33.890625 -1.421875 
Q 20.796875 -1.421875 13.15625 6.1875 
Q 5.515625 13.8125 5.515625 26.8125 
Q 5.515625 40.234375 12.765625 48.109375 
Q 20.015625 56 32.328125 56 
Q 43.359375 56 49.78125 48.890625 
Q 56.203125 41.796875 56.203125 29.59375 
z
M 47.21875 32.234375 
Q 47.125 39.59375 43.09375 43.984375 
Q 39.0625 48.390625 32.421875 48.390625 
Q 24.90625 48.390625 20.390625 44.140625 
Q 15.875 39.890625 15.1875 32.171875 
z
" id="DejaVuSans-101"/>
     </defs>
     <g transform="translate(16.2 218.197937)scale(0.1 -0.1)">
      <use xlink:href="#DejaVuSans-66"/>
      <use x="68.603516" xlink:href="#DejaVuSans-111"/>
      <use x="129.785156" xlink:href="#DejaVuSans-117"/>
      <use x="193.164062" xlink:href="#DejaVuSans-110"/>
      <use x="256.542969" xlink:href="#DejaVuSans-100"/>
      <use x="320.019531" xlink:href="#DejaVuSans-97"/>
      <use x="381.298828" xlink:href="#DejaVuSans-114"/>
      <use x="422.412109" xlink:href="#DejaVuSans-121"/>
      <use x="481.591797" xlink:href="#DejaVuSans-32"/>
      <use x="513.378906" xlink:href="#DejaVuSans-108"/>
      <use x="541.162109" xlink:href="#DejaVuSans-97"/>
      <use x="602.441406" xlink:href="#DejaVuSans-98"/>
      <use x="665.917969" xlink:href="#DejaVuSans-101"/>
      <use x="727.441406" xlink:href="#DejaVuSans-108"/>
     </g>
    </g>
    <g id="line2d_6">
     <path d="M 36.78125 229.376062 
L 56.78125 229.376062 
" style="fill:none;stroke:#1f77b4;stroke-linecap:square;stroke-width:1.5;"/>
    </g>
    <g id="line2d_7"/>
    <g id="text_2">
     <!-- 1 -->
     <defs>
      <path d="M 12.40625 8.296875 
L 28.515625 8.296875 
L 28.515625 63.921875 
L 10.984375 60.40625 
L 10.984375 69.390625 
L 28.421875 72.90625 
L 38.28125 72.90625 
L 38.28125 8.296875 
L 54.390625 8.296875 
L 54.390625 0 
L 12.40625 0 
z
" id="DejaVuSans-49"/>
     </defs>
     <g transform="translate(64.78125 232.876062)scale(0.1 -0.1)">
      <use xlink:href="#DejaVuSans-49"/>
     </g>
    </g>
    <g id="line2d_8">
     <path d="M 36.78125 244.054187 
L 56.78125 244.054187 
" style="fill:none;stroke:#ff7f0e;stroke-linecap:square;stroke-width:1.5;"/>
    </g>
    <g id="line2d_9"/>
    <g id="text_3">
     <!-- 2 -->
     <defs>
      <path d="M 19.1875 8.296875 
L 53.609375 8.296875 
L 53.609375 0 
L 7.328125 0 
L 7.328125 8.296875 
Q 12.9375 14.109375 22.625 23.890625 
Q 32.328125 33.6875 34.8125 36.53125 
Q 39.546875 41.84375 41.421875 45.53125 
Q 43.3125 49.21875 43.3125 52.78125 
Q 43.3125 58.59375 39.234375 62.25 
Q 35.15625 65.921875 28.609375 65.921875 
Q 23.96875 65.921875 18.8125 64.3125 
Q 13.671875 62.703125 7.8125 59.421875 
L 7.8125 69.390625 
Q 13.765625 71.78125 18.9375 73 
Q 24.125 74.21875 28.421875 74.21875 
Q 39.75 74.21875 46.484375 68.546875 
Q 53.21875 62.890625 53.21875 53.421875 
Q 53.21875 48.921875 51.53125 44.890625 
Q 49.859375 40.875 45.40625 35.40625 
Q 44.1875 33.984375 37.640625 27.21875 
Q 31.109375 20.453125 19.1875 8.296875 
z
" id="DejaVuSans-50"/>
     </defs>
     <g transform="translate(64.78125 247.554187)scale(0.1 -0.1)">
      <use xlink:href="#DejaVuSans-50"/>
     </g>
    </g>
    <g id="line2d_10">
     <path d="M 36.78125 258.732312 
L 56.78125 258.732312 
" style="fill:none;stroke:#2ca02c;stroke-linecap:square;stroke-width:1.5;"/>
    </g>
    <g id="line2d_11"/>
    <g id="text_4">
     <!-- 3 -->
     <defs>
      <path d="M 40.578125 39.3125 
Q 47.65625 37.796875 51.625 33 
Q 55.609375 28.21875 55.609375 21.1875 
Q 55.609375 10.40625 48.1875 4.484375 
Q 40.765625 -1.421875 27.09375 -1.421875 
Q 22.515625 -1.421875 17.65625 -0.515625 
Q 12.796875 0.390625 7.625 2.203125 
L 7.625 11.71875 
Q 11.71875 9.328125 16.59375 8.109375 
Q 21.484375 6.890625 26.8125 6.890625 
Q 36.078125 6.890625 40.9375 10.546875 
Q 45.796875 14.203125 45.796875 21.1875 
Q 45.796875 27.640625 41.28125 31.265625 
Q 36.765625 34.90625 28.71875 34.90625 
L 20.21875 34.90625 
L 20.21875 43.015625 
L 29.109375 43.015625 
Q 36.375 43.015625 40.234375 45.921875 
Q 44.09375 48.828125 44.09375 54.296875 
Q 44.09375 59.90625 40.109375 62.90625 
Q 36.140625 65.921875 28.71875 65.921875 
Q 24.65625 65.921875 20.015625 65.03125 
Q 15.375 64.15625 9.8125 62.3125 
L 9.8125 71.09375 
Q 15.4375 72.65625 20.34375 73.4375 
Q 25.25 74.21875 29.59375 74.21875 
Q 40.828125 74.21875 47.359375 69.109375 
Q 53.90625 64.015625 53.90625 55.328125 
Q 53.90625 49.265625 50.4375 45.09375 
Q 46.96875 40.921875 40.578125 39.3125 
z
" id="DejaVuSans-51"/>
     </defs>
     <g transform="translate(64.78125 262.232312)scale(0.1 -0.1)">
      <use xlink:href="#DejaVuSans-51"/>
     </g>
    </g>
   </g>
  </g>
 </g>
 <defs>
  <clipPath id="pfac20ec3cb">
   <rect height="266.112" width="357.12" x="7.2" y="7.2"/>
  </clipPath>
 </defs>
</svg>
