<?xml version="1.0" encoding="utf-8" standalone="no"?>
<!DOCTYPE svg PUBLIC "-//W3C//DTD SVG 1.1//EN"
  "http://www.w3.org/Graphics/SVG/1.1/DTD/svg11.dtd">
<svg xmlns:xlink="http://www.w3.org/1999/xlink" width="371.52pt" height="280.512pt" viewBox="0 0 371.52 280.512" xmlns="http://www.w3.org/2000/svg" version="1.1">
 <metadata>
  <rdf:RDF xmlns:dc="http://purl.org/dc/elements/1.1/" xmlns:cc="http://creativecommons.org/ns#" xmlns:rdf="http://www.w3.org/1999/02/22-rdf-syntax-ns#">
   <cc:Work>
    <dc:type rdf:resource="http://purl.org/dc/dcmitype/StillImage"/>
    <dc:date>2025-09-12T15:56:20.555984</dc:date>
    <dc:format>image/svg+xml</dc:format>
    <dc:creator>
     <cc:Agent>
      <dc:title>Matplotlib v3.6.3, https://matplotlib.org/</dc:title>
     </cc:Agent>
    </dc:creator>
   </cc:Work>
  </rdf:RDF>
 </metadata>
 <defs>
  <style type="text/css">*{stroke-linejoin: round; stroke-linecap: butt}</style>
 </defs>
 <g id="figure_1">
  <g id="patch_1">
   <path d="M 0 280.512 
L 371.52 280.512 
L 371.52 0 
L 0 0 
z
" style="fill: #ffffff"/>
  </g>
  <g id="axes_1">
   <g id="PathCollection_1">
    <path d="M 364.32 202.132731 
L 361.419752 202.153994 
L 358.315298 202.136619 
L 355.444862 202.143429 
L 352.105985 202.114584 
L 347.820173 202.15147 
L 346.866364 202.147536 
L 340.899979 202.128255 
L 339.994447 202.126072 
L 334.074201 202.096369 
L 332.534359 202.092304 
L 327.747449 202.047654 
L 323.60428 202.026715 
L 321.073293 202.011599 
L 316.564904 201.965956 
L 313.70079 201.947868 
L 309.684388 201.901631 
L 306.161206 201.875937 
L 303.172421 201.831221 
L 300.003593 201.803349 
L 296.716526 201.764105 
L 292.985318 201.717956 
L 289.981123 201.690796 
L 287.513483 201.61938 
L 285.483783 201.595012 
L 280.990449 201.527183 
L 278.139811 201.474931 
L 274.060128 201.408107 
L 270.920902 201.343369 
L 266.760683 201.268251 
L 264.023159 201.196363 
L 260.615338 201.116636 
L 256.875044 201.028634 
L 252.739408 200.889579 
L 248.921212 200.788973 
L 245.665462 200.68083 
L 240.65795 200.548631 
L 240.55049 200.543663 
L 240.121879 200.528044 
L 234.672467 200.302745 
L 233.65572 200.26941 
L 228.02749 200.012867 
L 226.525117 199.955145 
L 221.004909 199.669549 
L 218.824641 199.571646 
L 214.541202 199.275387 
L 210.056158 199.056696 
L 209.012356 198.996646 
L 203.401884 198.586711 
L 201.672926 198.478622 
L 196.789542 198.063206 
L 194.159223 197.870521 
L 189.951818 197.460865 
L 186.726589 197.18174 
L 182.735898 196.750042 
L 179.19535 196.393189 
L 175.274213 195.883801 
L 169.046758 195.1445 
L 168.823899 195.110503 
L 162.539516 194.151066 
L 159.738615 193.65004 
L 152.987692 192.549485 
L 152.848345 192.520777 
L 146.511023 191.200161 
L 142.136247 190.183424 
L 138.851132 189.45193 
L 133.722577 188.035627 
L 131.027781 187.333687 
L 126.357865 185.951111 
L 125.007851 185.506281 
L 118.500689 183.248039 
L 117.992016 183.045881 
L 111.674595 180.511767 
L 109.465925 179.518643 
L 105.445416 177.671694 
L 99.990337 174.918311 
L 99.392496 174.605911 
L 98.989478 174.368795 
L 93.420574 171.10385 
L 89.123793 168.335434 
L 87.643988 167.32438 
L 84.053684 164.6889 
L 80.412412 161.823965 
L 76.768416 158.784466 
L 73.125261 155.44558 
L 70.007922 152.372237 
L 65.783068 147.881926 
L 63.948755 145.777772 
L 59.273443 140.056102 
L 58.029344 138.409667 
L 53.270774 131.707501 
L 52.475482 130.494248 
L 47.927198 123.15462 
L 47.645096 122.664323 
L 44.971949 117.760216 
L 43.577009 115.180809 
L 43.430167 114.885846 
L 40.026174 107.745048 
L 39.417131 106.318344 
L 37.04803 100.639946 
L 35.82796 97.272972 
L 34.510131 93.653349 
L 33.023583 88.659047 
L 32.486434 86.93328 
L 31.155841 81.169808 
L 31.055498 80.71661 
L 31.038566 80.59117 
L 30.206001 74.965126 
L 30.019447 71.30046 
L 29.87821 68.906762 
L 23.629377 68.906761 
L 16.919321 68.90676 
L 11.573234 68.90676 
L 7.2 68.906759 
L 8.528324 72.843922 
L 10.086944 77.313679 
L 11.999221 82.60674 
L 14.240592 88.543974 
L 16.815942 95.041701 
L 19.795565 102.115106 
L 23.156693 109.638481 
L 27.042016 117.580687 
L 31.619437 126.081286 
L 36.759537 134.923435 
L 42.253614 143.31604 
L 47.983247 151.058116 
L 53.930152 158.209516 
L 60.066473 164.689529 
L 66.425781 170.565582 
L 73.061642 175.932524 
L 79.948201 180.741502 
L 87.000607 185.011372 
L 94.184575 188.765988 
L 101.432826 191.975069 
L 108.785784 194.746749 
L 116.371584 197.257873 
L 124.101946 199.492302 
L 131.80531 201.33247 
L 139.473105 202.873086 
L 147.251322 204.214285 
L 155.144817 205.364355 
L 163.06431 206.343435 
L 171.163791 207.191238 
L 179.027574 207.884051 
L 186.874214 208.469156 
L 194.727997 208.969267 
L 202.583209 209.396668 
L 210.468419 209.75993 
L 218.393626 210.064054 
L 226.327404 210.317466 
L 234.261181 210.532595 
L 242.256384 210.722583 
L 250.320154 210.888715 
L 258.409636 211.025849 
L 266.531973 211.137842 
L 274.66431 211.228408 
L 282.786647 211.302689 
L 290.907556 211.367256 
L 299.055606 211.424824 
L 307.240796 211.476106 
L 315.39456 211.519246 
L 323.558323 211.55353 
L 331.780654 211.579528 
L 339.982986 211.596813 
L 348.171034 211.605241 
L 356.337654 211.605241 
L 364.32 211.596813 
L 364.32 204.070866 
" clip-path="url(#pdb060c4584)" style="fill: #48186a"/>
   </g>
   <g id="PathCollection_2">
    <path d="M 364.32 191.942261 
L 360.021401 191.970729 
L 357.909732 191.955585 
L 356.873449 191.949737 
L 351.353694 191.962553 
L 350.315311 191.95632 
L 350.034918 191.956632 
L 343.64762 191.916752 
L 342.45701 191.912476 
L 336.682809 191.873338 
L 335.141882 191.866662 
L 329.88892 191.814368 
L 327.490058 191.799438 
L 323.498752 191.740738 
L 320.064781 191.714155 
L 317.385524 191.664588 
L 313.022917 191.625851 
L 311.315094 191.593005 
L 306.455468 191.53457 
L 305.023347 191.510034 
L 300.522447 191.418475 
L 296.115327 191.352359 
L 294.432003 191.308056 
L 290.492305 191.248918 
L 288.075998 191.186168 
L 287.489687 191.171186 
L 281.600342 191.041338 
L 281.401062 191.036925 
L 279.873206 191.001524 
L 275.394396 190.863554 
L 274.736873 190.843246 
L 269.479535 190.675698 
L 268.325832 190.63754 
L 263.767796 190.474018 
L 261.834545 190.409085 
L 258.08002 190.274301 
L 256.034051 190.17278 
L 250.737922 189.98925 
L 250.366087 189.968593 
L 249.859752 189.945907 
L 244.466596 189.658905 
L 240.276429 189.452844 
L 237.938481 189.322066 
L 236.213239 189.242894 
L 231.21901 188.922766 
L 228.966793 188.796888 
L 224.938325 188.509436 
L 222.749984 188.373724 
L 218.714561 188.078091 
L 217.497696 187.979547 
L 213.731266 187.706572 
L 212.756897 187.617132 
L 212.044977 187.55646 
L 207.735934 187.129391 
L 205.300911 186.927387 
L 201.824121 186.544478 
L 197.91059 186.162255 
L 195.442412 185.853671 
L 190.185911 185.255941 
L 188.868698 185.062078 
L 186.687149 184.786497 
L 182.830842 184.259181 
L 175.949815 183.232177 
L 175.925732 183.228267 
L 175.917477 183.226782 
L 175.874556 183.219397 
L 168.83027 181.95886 
L 167.195967 181.679224 
L 162.08246 180.620782 
L 160.261393 180.219791 
L 155.933131 179.290063 
L 153.733047 178.736252 
L 152.547029 178.44013 
L 147.420438 177.105302 
L 144.42329 176.206708 
L 140.836468 175.169988 
L 137.371914 174.018823 
L 134.070587 172.938277 
L 131.492472 171.928309 
L 126.567206 170.066158 
L 124.862005 169.333919 
L 120.019797 167.217355 
L 118.578271 166.509153 
L 114.355273 164.393406 
L 111.650441 162.879852 
L 106.960123 160.241606 
L 104.625104 158.751641 
L 100.680753 156.159268 
L 97.053337 153.523871 
L 94.575416 151.654011 
L 90.337971 148.164512 
L 89.376249 147.332596 
L 85.065636 143.27497 
L 83.53271 141.751278 
L 79.253975 137.174069 
L 77.970118 135.70148 
L 73.390412 130.063016 
L 72.770451 129.242906 
L 69.342933 124.352886 
L 68.01005 122.431769 
L 67.747116 122.013868 
L 63.890112 115.526135 
L 62.566817 113.047994 
L 60.342296 108.679781 
L 57.718872 102.839649 
L 57.248912 101.759289 
L 56.402856 99.458644 
L 54.603339 94.418807 
L 53.785117 91.552214 
L 52.662669 87.518694 
L 51.432575 81.462645 
L 51.290748 80.734872 
L 51.226091 80.209088 
L 50.642298 75.070876 
L 50.4367 70.852008 
L 50.372213 68.906764 
L 48.790195 68.906764 
L 39.840054 68.906763 
L 31.401737 68.906762 
L 29.87821 68.906762 
L 30.019447 71.30046 
L 30.206001 74.965126 
L 31.038566 80.59117 
L 31.055498 80.71661 
L 31.155841 81.169808 
L 32.486434 86.93328 
L 33.023583 88.659047 
L 34.510131 93.653349 
L 35.82796 97.272972 
L 37.04803 100.639946 
L 39.417131 106.318344 
L 40.026174 107.745048 
L 43.430167 114.885846 
L 43.577009 115.180809 
L 44.971949 117.760216 
L 47.645096 122.664323 
L 47.927198 123.15462 
L 52.475482 130.494248 
L 53.270774 131.707501 
L 58.029344 138.409667 
L 59.273443 140.056102 
L 63.948755 145.777772 
L 65.783068 147.881926 
L 70.007922 152.372237 
L 73.125261 155.44558 
L 76.768416 158.784466 
L 80.412412 161.823965 
L 84.053684 164.6889 
L 87.643988 167.32438 
L 89.123793 168.335434 
L 93.420574 171.10385 
L 98.989478 174.368795 
L 99.392496 174.605911 
L 99.990337 174.918311 
L 105.445416 177.671694 
L 109.465925 179.518643 
L 111.674595 180.511767 
L 117.992016 183.045881 
L 118.500689 183.248039 
L 125.007851 185.506281 
L 126.357865 185.951111 
L 131.027781 187.333687 
L 133.722577 188.035627 
L 138.851132 189.45193 
L 142.136247 190.183424 
L 146.511023 191.200161 
L 152.848345 192.520777 
L 152.987692 192.549485 
L 159.738615 193.65004 
L 162.539516 194.151066 
L 168.823899 195.110503 
L 169.046758 195.1445 
L 175.274213 195.883801 
L 179.19535 196.393189 
L 182.735898 196.750042 
L 186.726589 197.18174 
L 189.951818 197.460865 
L 194.159223 197.870521 
L 196.789542 198.063206 
L 201.672926 198.478622 
L 203.401884 198.586711 
L 209.012356 198.996646 
L 210.056158 199.056696 
L 214.541202 199.275387 
L 218.824641 199.571646 
L 221.004909 199.669549 
L 226.525117 199.955145 
L 228.02749 200.012867 
L 233.65572 200.26941 
L 234.672467 200.302745 
L 240.121879 200.528044 
L 240.55049 200.543663 
L 240.65795 200.548631 
L 245.665462 200.68083 
L 248.921212 200.788973 
L 252.739408 200.889579 
L 256.875044 201.028634 
L 260.615338 201.116636 
L 264.023159 201.196363 
L 266.760683 201.268251 
L 270.920902 201.343369 
L 274.060128 201.408107 
L 278.139811 201.474931 
L 280.990449 201.527183 
L 285.483783 201.595012 
L 287.513483 201.61938 
L 289.981123 201.690796 
L 292.985318 201.717956 
L 296.716526 201.764105 
L 300.003593 201.803349 
L 303.172421 201.831221 
L 306.161206 201.875937 
L 309.684388 201.901631 
L 313.70079 201.947868 
L 316.564904 201.965956 
L 321.073293 202.011599 
L 323.60428 202.026715 
L 327.747449 202.047654 
L 332.534359 202.092304 
L 334.074201 202.096369 
L 339.994447 202.126072 
L 340.899979 202.128255 
L 346.866364 202.147536 
L 347.820173 202.15147 
L 352.105985 202.114584 
L 355.444862 202.143429 
L 358.315298 202.136619 
L 361.419752 202.153994 
L 364.32 202.132731 
L 364.32 196.978034 
" clip-path="url(#pdb060c4584)" style="fill: #424086"/>
   </g>
   <g id="PathCollection_3">
    <path d="M 364.32 180.77945 
L 359.146057 180.815234 
L 358.636957 180.81445 
L 356.331873 180.814985 
L 352.43232 180.786301 
L 351.713458 180.785338 
L 347.636727 180.777259 
L 345.190291 180.755763 
L 344.552498 180.752616 
L 338.032466 180.695965 
L 337.244157 180.682797 
L 334.525172 180.666427 
L 331.211587 180.615159 
L 330.130474 180.607693 
L 325.224418 180.508553 
L 321.686605 180.478683 
L 319.103365 180.413185 
L 313.153053 180.344224 
L 312.998864 180.339143 
L 306.46585 180.20409 
L 306.445279 180.203641 
L 306.444845 180.203631 
L 306.440984 180.203548 
L 300.086246 180.030188 
L 299.425338 180.014249 
L 295.795529 179.923657 
L 292.655383 179.82304 
L 291.737053 179.802093 
L 286.467289 179.572226 
L 282.166507 179.452143 
L 280.152431 179.377759 
L 274.466213 179.171378 
L 273.850846 179.147601 
L 270.030102 178.993635 
L 267.682285 178.878219 
L 267.209281 178.854657 
L 261.799849 178.542998 
L 257.284401 178.340479 
L 256.281431 178.275286 
L 252.37769 178.064426 
L 251.054147 177.981816 
L 250.267504 177.937622 
L 246.020402 177.628166 
L 244.306196 177.506238 
L 240.539711 177.21476 
L 237.375834 176.991473 
L 235.180224 176.829947 
L 231.766267 176.504264 
L 228.819007 176.280375 
L 225.318212 175.931379 
L 222.222345 175.648962 
L 217.401742 175.154178 
L 215.632048 174.965686 
L 213.507189 174.752875 
L 208.717089 174.125506 
L 204.395917 173.607826 
L 202.109797 173.274171 
L 195.904026 172.414617 
L 195.729678 172.383541 
L 195.266053 172.309494 
L 189.520929 171.308776 
L 187.814521 171.037114 
L 183.562619 170.284312 
L 182.06239 169.990699 
L 179.986784 169.561795 
L 175.955582 168.694477 
L 174.778308 168.455008 
L 171.636261 167.744082 
L 168.497074 166.98513 
L 165.269596 166.127387 
L 162.113102 165.275125 
L 160.967901 164.96954 
L 154.711869 163.01756 
L 152.654051 162.409588 
L 146.096186 160.068505 
L 144.7367 159.586007 
L 141.093226 158.10419 
L 137.3742 156.534531 
L 135.939327 155.840832 
L 130.512574 153.213484 
L 126.124584 150.941459 
L 125.31622 150.506081 
L 119.37946 146.925821 
L 118.632627 146.445935 
L 114.27943 143.404314 
L 110.304108 140.337448 
L 107.280015 138.015908 
L 101.992371 133.215168 
L 100.801091 132.112596 
L 100.260084 131.542319 
L 94.787316 125.586626 
L 93.181996 123.596774 
L 89.919162 119.373612 
L 86.751258 114.77548 
L 85.895586 113.463404 
L 83.887167 109.974275 
L 82.201546 107.011363 
L 81.815505 106.223767 
L 78.915306 100.075707 
L 78.867792 99.954691 
L 78.684037 99.459732 
L 76.478823 93.451305 
L 75.889004 91.694974 
L 74.282174 85.510514 
L 73.902552 83.909033 
L 73.343963 80.335785 
L 72.786261 76.584927 
L 72.689806 74.925778 
L 72.425704 68.906767 
L 67.603277 68.906766 
L 58.077601 68.906765 
L 50.372213 68.906764 
L 50.4367 70.852008 
L 50.642298 75.070876 
L 51.226091 80.209088 
L 51.290748 80.734872 
L 51.432575 81.462645 
L 52.662669 87.518694 
L 53.785117 91.552214 
L 54.603339 94.418807 
L 56.402856 99.458644 
L 57.248912 101.759289 
L 57.718872 102.839649 
L 60.342296 108.679781 
L 62.566817 113.047994 
L 63.890112 115.526135 
L 67.747116 122.013868 
L 68.01005 122.431769 
L 69.342933 124.352886 
L 72.770451 129.242906 
L 73.390412 130.063016 
L 77.970118 135.70148 
L 79.253975 137.174069 
L 83.53271 141.751278 
L 85.065636 143.27497 
L 89.376249 147.332596 
L 90.337971 148.164512 
L 94.575416 151.654011 
L 97.053337 153.523871 
L 100.680753 156.159268 
L 104.625104 158.751641 
L 106.960123 160.241606 
L 111.650441 162.879852 
L 114.355273 164.393406 
L 118.578271 166.509153 
L 120.019797 167.217355 
L 124.862005 169.333919 
L 126.567206 170.066158 
L 131.492472 171.928309 
L 134.070587 172.938277 
L 137.371914 174.018823 
L 140.836468 175.169988 
L 144.42329 176.206708 
L 147.420438 177.105302 
L 152.547029 178.44013 
L 153.733047 178.736252 
L 155.933131 179.290063 
L 160.261393 180.219791 
L 162.08246 180.620782 
L 167.195967 181.679224 
L 168.83027 181.95886 
L 175.874556 183.219397 
L 175.917477 183.226782 
L 175.925732 183.228267 
L 175.949815 183.232177 
L 182.830842 184.259181 
L 186.687149 184.786497 
L 188.868698 185.062078 
L 190.185911 185.255941 
L 195.442412 185.853671 
L 197.91059 186.162255 
L 201.824121 186.544478 
L 205.300911 186.927387 
L 207.735934 187.129391 
L 212.044977 187.55646 
L 212.756897 187.617132 
L 213.731266 187.706572 
L 217.497696 187.979547 
L 218.714561 188.078091 
L 222.749984 188.373724 
L 224.938325 188.509436 
L 228.966793 188.796888 
L 231.21901 188.922766 
L 236.213239 189.242894 
L 237.938481 189.322066 
L 240.276429 189.452844 
L 244.466596 189.658905 
L 249.859752 189.945907 
L 250.366087 189.968593 
L 250.737922 189.98925 
L 256.034051 190.17278 
L 258.08002 190.274301 
L 261.834545 190.409085 
L 263.767796 190.474018 
L 268.325832 190.63754 
L 269.479535 190.675698 
L 274.736873 190.843246 
L 275.394396 190.863554 
L 279.873206 191.001524 
L 281.401062 191.036925 
L 281.600342 191.041338 
L 287.489687 191.171186 
L 288.075998 191.186168 
L 290.492305 191.248918 
L 294.432003 191.308056 
L 296.115327 191.352359 
L 300.522447 191.418475 
L 305.023347 191.510034 
L 306.455468 191.53457 
L 311.315094 191.593005 
L 313.022917 191.625851 
L 317.385524 191.664588 
L 320.064781 191.714155 
L 323.498752 191.740738 
L 327.490058 191.799438 
L 329.88892 191.814368 
L 335.141882 191.866662 
L 336.682809 191.873338 
L 342.45701 191.912476 
L 343.64762 191.916752 
L 350.034918 191.956632 
L 350.315311 191.95632 
L 351.353694 191.962553 
L 356.873449 191.949737 
L 357.909732 191.955585 
L 360.021401 191.970729 
L 364.32 191.942261 
L 364.32 190.015194 
L 364.32 183.080209 
" clip-path="url(#pdb060c4584)" style="fill: #33638d"/>
   </g>
   <g id="PathCollection_4">
    <path d="M 364.32 168.364133 
L 363.72182 168.367609 
L 359.020558 168.330954 
L 356.964214 168.345848 
L 353.710911 168.296556 
L 349.87647 168.326118 
L 349.030705 168.309455 
L 348.085157 168.311874 
L 343.989588 168.234072 
L 341.308077 168.22545 
L 338.716158 168.169901 
L 333.98175 168.142389 
L 333.420774 168.128625 
L 331.793853 168.112018 
L 328.001065 168.018587 
L 326.66897 168.00377 
L 322.299538 167.884564 
L 318.00056 167.820228 
L 316.820417 167.770275 
L 315.834173 167.755932 
L 311.88757 167.569694 
L 306.875854 167.500475 
L 306.370166 167.483358 
L 305.130068 167.453051 
L 300.157333 167.240578 
L 296.579521 167.128294 
L 293.988216 167.007955 
L 291.479894 166.925279 
L 287.927241 166.731588 
L 285.430503 166.623711 
L 282.00746 166.431158 
L 277.251321 166.202428 
L 276.032753 166.134333 
L 270.243541 165.820032 
L 270.037263 165.80615 
L 269.996212 165.803299 
L 264.078888 165.373069 
L 262.868128 165.283516 
L 258.271227 164.933634 
L 256.115031 164.773532 
L 252.381093 164.478182 
L 249.410692 164.205248 
L 245.822983 163.89407 
L 241.996593 163.501561 
L 238.755234 163.17596 
L 234.683021 162.708855 
L 231.447048 162.373997 
L 226.923913 161.784694 
L 223.489968 161.36581 
L 219.477784 160.762149 
L 214.812293 160.137613 
L 211.684567 159.597468 
L 207.347652 158.861248 
L 202.892806 158.102029 
L 201.755306 157.892869 
L 196.478803 156.827789 
L 195.562355 156.651995 
L 191.281933 155.599919 
L 186.848455 154.593274 
L 185.050852 154.171221 
L 181.789536 153.325289 
L 178.168334 152.304243 
L 176.109857 151.670654 
L 170.637043 149.994641 
L 169.129688 149.442137 
L 163.726975 147.555301 
L 162.704604 147.143876 
L 157.272812 144.95647 
L 155.189829 144.011528 
L 151.19715 142.187577 
L 147.229417 140.172863 
L 145.031459 139.049143 
L 139.337402 135.755662 
L 138.749241 135.414641 
L 136.051422 133.61589 
L 132.459574 131.173493 
L 131.614011 130.515143 
L 126.427045 126.420408 
L 123.994555 124.221006 
L 121.018964 121.471085 
L 117.007357 117.268591 
L 116.335976 116.54387 
L 114.906032 114.806096 
L 112.272963 111.486395 
L 111.293347 110.060453 
L 108.698739 106.267074 
L 106.303749 102.166077 
L 105.53962 100.844134 
L 104.601807 98.948291 
L 102.724356 94.791886 
L 101.751264 92.135801 
L 100.376453 88.324812 
L 98.757178 82.081219 
L 98.652496 81.656078 
L 98.59592 81.287205 
L 97.775452 75.409103 
L 97.484219 70.512418 
L 97.421041 68.90677 
L 96.073883 68.90677 
L 86.607346 68.906769 
L 77.180664 68.906768 
L 72.425704 68.906767 
L 72.689806 74.925778 
L 72.786261 76.584927 
L 73.343963 80.335785 
L 73.902552 83.909033 
L 74.282174 85.510514 
L 75.889004 91.694974 
L 76.478823 93.451305 
L 78.684037 99.459732 
L 78.867792 99.954691 
L 78.915306 100.075707 
L 81.815505 106.223767 
L 82.201546 107.011363 
L 83.887167 109.974275 
L 85.895586 113.463404 
L 86.751258 114.77548 
L 89.919162 119.373612 
L 93.181996 123.596774 
L 94.787316 125.586626 
L 100.260084 131.542319 
L 100.801091 132.112596 
L 101.992371 133.215168 
L 107.280015 138.015908 
L 110.304108 140.337448 
L 114.27943 143.404314 
L 118.632627 146.445935 
L 119.37946 146.925821 
L 125.31622 150.506081 
L 126.124584 150.941459 
L 130.512574 153.213484 
L 135.939327 155.840832 
L 137.3742 156.534531 
L 141.093226 158.10419 
L 144.7367 159.586007 
L 146.096186 160.068505 
L 152.654051 162.409588 
L 154.711869 163.01756 
L 160.967901 164.96954 
L 162.113102 165.275125 
L 165.269596 166.127387 
L 168.497074 166.98513 
L 171.636261 167.744082 
L 174.778308 168.455008 
L 175.955582 168.694477 
L 179.986784 169.561795 
L 182.06239 169.990699 
L 183.562619 170.284312 
L 187.814521 171.037114 
L 189.520929 171.308776 
L 195.266053 172.309494 
L 195.729678 172.383541 
L 195.904026 172.414617 
L 202.109797 173.274171 
L 204.395917 173.607826 
L 208.717089 174.125506 
L 213.507189 174.752875 
L 215.632048 174.965686 
L 217.401742 175.154178 
L 222.222345 175.648962 
L 225.318212 175.931379 
L 228.819007 176.280375 
L 231.766267 176.504264 
L 235.180224 176.829947 
L 237.375834 176.991473 
L 240.539711 177.21476 
L 244.306196 177.506238 
L 246.020402 177.628166 
L 250.267504 177.937622 
L 251.054147 177.981816 
L 252.37769 178.064426 
L 256.281431 178.275286 
L 257.284401 178.340479 
L 261.799849 178.542998 
L 267.209281 178.854657 
L 267.682285 178.878219 
L 270.030102 178.993635 
L 273.850846 179.147601 
L 274.466213 179.171378 
L 280.152431 179.377759 
L 282.166507 179.452143 
L 286.467289 179.572226 
L 291.737053 179.802093 
L 292.655383 179.82304 
L 295.795529 179.923657 
L 299.425338 180.014249 
L 300.086246 180.030188 
L 306.440984 180.203548 
L 306.444845 180.203631 
L 306.445279 180.203641 
L 306.46585 180.20409 
L 312.998864 180.339143 
L 313.153053 180.344224 
L 319.103365 180.413185 
L 321.686605 180.478683 
L 325.224418 180.508553 
L 330.130474 180.607693 
L 331.211587 180.615159 
L 334.525172 180.666427 
L 337.244157 180.682797 
L 338.032466 180.695965 
L 344.552498 180.752616 
L 345.190291 180.755763 
L 347.636727 180.777259 
L 351.713458 180.785338 
L 352.43232 180.786301 
L 356.331873 180.814985 
L 358.636957 180.81445 
L 359.146057 180.815234 
L 364.32 180.77945 
L 364.32 176.090514 
L 364.32 169.03168 
" clip-path="url(#pdb060c4584)" style="fill: #26828e"/>
   </g>
   <g id="PathCollection_5">
    <path d="M 364.32 154.061057 
L 363.563538 154.064336 
L 358.821277 154.017285 
L 356.738945 154.02924 
L 353.523134 153.966947 
L 349.392425 153.994227 
L 348.192752 153.964681 
L 345.672494 153.956653 
L 342.33197 153.880999 
L 340.865692 153.869319 
L 335.956879 153.748832 
L 332.632595 153.697117 
L 329.242459 153.599759 
L 324.551133 153.480603 
L 321.924062 153.390202 
L 317.090571 153.219315 
L 314.584093 153.102894 
L 309.408412 152.956936 
L 308.322551 152.903306 
L 307.561351 152.878947 
L 302.014958 152.557278 
L 296.918149 152.347824 
L 296.097512 152.29143 
L 295.228049 152.249008 
L 290.366726 151.916911 
L 286.406794 151.671286 
L 284.719843 151.551702 
L 279.024038 151.184847 
L 278.949671 151.178591 
L 278.926543 151.176749 
L 273.117996 150.667422 
L 271.722254 150.540811 
L 267.033979 150.100443 
L 264.298008 149.837444 
L 260.668086 149.472531 
L 255.571473 148.918311 
L 253.405967 148.664208 
L 250.716549 148.394433 
L 246.618359 147.834951 
L 242.888465 147.305668 
L 238.689304 146.655827 
L 234.692071 146.135105 
L 231.96693 145.665792 
L 228.046311 144.959895 
L 223.899812 144.172347 
L 220.605455 143.613222 
L 217.084194 142.855975 
L 213.779059 142.134902 
L 209.507127 141.127717 
L 206.086193 140.32859 
L 203.564383 139.605721 
L 201.26102 138.955794 
L 197.256057 137.779162 
L 190.88775 135.846209 
L 190.80931 135.821785 
L 190.649241 135.768216 
L 184.438046 133.43448 
L 181.217831 132.129268 
L 178.084135 130.846109 
L 174.321994 129.209454 
L 172.677981 128.389918 
L 167.980341 125.985076 
L 166.305347 125.005928 
L 162.335056 122.675407 
L 158.941688 120.447348 
L 157.070421 119.211796 
L 153.946495 116.944504 
L 152.196234 115.543958 
L 150.861121 114.371091 
L 147.571139 111.463653 
L 144.615872 108.610329 
L 143.467312 107.343844 
L 140.155527 103.454629 
L 138.369785 100.955395 
L 136.268482 97.948462 
L 132.849261 91.922227 
L 132.836818 91.90005 
L 132.823069 91.868987 
L 130.305228 85.540521 
L 128.372051 78.345818 
L 128.249979 77.812724 
L 128.216158 77.43739 
L 127.516274 68.906774 
L 124.990461 68.906773 
L 115.308081 68.906772 
L 105.677411 68.906771 
L 97.421041 68.90677 
L 97.484219 70.512418 
L 97.775452 75.409103 
L 98.59592 81.287205 
L 98.652496 81.656078 
L 98.757178 82.081219 
L 100.376453 88.324812 
L 101.751264 92.135801 
L 102.724356 94.791886 
L 104.601807 98.948291 
L 105.53962 100.844134 
L 106.303749 102.166077 
L 108.698739 106.267074 
L 111.293347 110.060453 
L 112.272963 111.486395 
L 114.906032 114.806096 
L 116.335976 116.54387 
L 117.007357 117.268591 
L 121.018964 121.471085 
L 123.994555 124.221006 
L 126.427045 126.420408 
L 131.614011 130.515143 
L 132.459574 131.173493 
L 136.051422 133.61589 
L 138.749241 135.414641 
L 139.337402 135.755662 
L 145.031459 139.049143 
L 147.229417 140.172863 
L 151.19715 142.187577 
L 155.189829 144.011528 
L 157.272812 144.95647 
L 162.704604 147.143876 
L 163.726975 147.555301 
L 169.129688 149.442137 
L 170.637043 149.994641 
L 176.109857 151.670654 
L 178.168334 152.304243 
L 181.789536 153.325289 
L 185.050852 154.171221 
L 186.848455 154.593274 
L 191.281933 155.599919 
L 195.562355 156.651995 
L 196.478803 156.827789 
L 201.755306 157.892869 
L 202.892806 158.102029 
L 207.347652 158.861248 
L 211.684567 159.597468 
L 214.812293 160.137613 
L 219.477784 160.762149 
L 223.489968 161.36581 
L 226.923913 161.784694 
L 231.447048 162.373997 
L 234.683021 162.708855 
L 238.755234 163.17596 
L 241.996593 163.501561 
L 245.822983 163.89407 
L 249.410692 164.205248 
L 252.381093 164.478182 
L 256.115031 164.773532 
L 258.271227 164.933634 
L 262.868128 165.283516 
L 264.078888 165.373069 
L 269.996212 165.803299 
L 270.037263 165.80615 
L 270.243541 165.820032 
L 276.032753 166.134333 
L 277.251321 166.202428 
L 282.00746 166.431158 
L 285.430503 166.623711 
L 287.927241 166.731588 
L 291.479894 166.925279 
L 293.988216 167.007955 
L 296.579521 167.128294 
L 300.157333 167.240578 
L 305.130068 167.453051 
L 306.370166 167.483358 
L 306.875854 167.500475 
L 311.88757 167.569694 
L 315.834173 167.755932 
L 316.820417 167.770275 
L 318.00056 167.820228 
L 322.299538 167.884564 
L 326.66897 168.00377 
L 328.001065 168.018587 
L 331.793853 168.112018 
L 333.420774 168.128625 
L 333.98175 168.142389 
L 338.716158 168.169901 
L 341.308077 168.22545 
L 343.989588 168.234072 
L 348.085157 168.311874 
L 349.030705 168.309455 
L 349.87647 168.326118 
L 353.710911 168.296556 
L 356.964214 168.345848 
L 359.020558 168.330954 
L 363.72182 168.367609 
L 364.32 168.364133 
L 364.32 161.952133 
L 364.32 154.867729 
" clip-path="url(#pdb060c4584)" style="fill: #1fa088"/>
   </g>
   <g id="PathCollection_6">
    <path d="M 364.32 136.69321 
L 358.70499 136.723964 
L 357.422293 136.706598 
L 356.392614 136.697181 
L 350.67962 136.590221 
L 348.648036 136.585129 
L 343.934128 136.49964 
L 341.855537 136.455709 
L 337.139879 136.358198 
L 335.729842 136.323187 
L 331.338923 136.117617 
L 327.451328 136.01011 
L 325.12419 135.880773 
L 319.157019 135.666652 
L 318.944387 135.652509 
L 318.355486 135.626236 
L 312.845901 135.259062 
L 310.965725 135.174511 
L 306.782451 134.848937 
L 302.438349 134.599375 
L 300.552493 134.431096 
L 297.193391 134.19318 
L 294.396292 133.931302 
L 292.90228 133.831586 
L 288.630194 133.359694 
L 285.827848 133.064592 
L 281.69984 132.673638 
L 280.190925 132.499759 
L 277.193096 132.212447 
L 275.123701 131.925234 
L 270.363297 131.308794 
L 268.979343 131.116276 
L 263.272402 130.333253 
L 262.872313 130.257597 
L 256.811449 129.256189 
L 255.786434 129.088536 
L 250.595844 128.132569 
L 248.609142 127.679528 
L 242.748813 126.532218 
L 241.485695 126.215755 
L 239.723554 125.853165 
L 234.920466 124.72405 
L 232.882243 124.076566 
L 229.724731 123.267675 
L 226.354696 122.332958 
L 219.872431 120.387633 
L 219.784299 120.361165 
L 219.517154 120.270729 
L 213.397125 117.999128 
L 211.591094 117.240709 
L 207.383303 115.487931 
L 202.700262 113.35868 
L 201.485435 112.79715 
L 200.006454 112.087896 
L 195.834749 109.755894 
L 192.850799 107.766607 
L 190.557087 106.329239 
L 188.362734 104.956595 
L 185.757477 102.897815 
L 182.665413 100.396343 
L 180.681025 98.42942 
L 177.157884 94.819163 
L 175.550819 92.737944 
L 172.839907 89.005699 
L 170.871892 85.430145 
L 169.651801 82.988298 
L 168.43511 79.410074 
L 167.509807 76.199136 
L 167.108225 72.80463 
L 166.75038 68.906779 
L 162.720046 68.906778 
L 153.437783 68.906777 
L 144.081953 68.906776 
L 134.608988 68.906775 
L 127.516274 68.906774 
L 128.216158 77.43739 
L 128.249979 77.812724 
L 128.372051 78.345818 
L 130.305228 85.540521 
L 132.823069 91.868987 
L 132.836818 91.90005 
L 132.849261 91.922227 
L 136.268482 97.948462 
L 138.369785 100.955395 
L 140.155527 103.454629 
L 143.467312 107.343844 
L 144.615872 108.610329 
L 147.571139 111.463653 
L 150.861121 114.371091 
L 152.196234 115.543958 
L 153.946495 116.944504 
L 157.070421 119.211796 
L 158.941688 120.447348 
L 162.335056 122.675407 
L 166.305347 125.005928 
L 167.980341 125.985076 
L 172.677981 128.389918 
L 174.321994 129.209454 
L 178.084135 130.846109 
L 181.217831 132.129268 
L 184.438046 133.43448 
L 190.649241 135.768216 
L 190.80931 135.821785 
L 190.88775 135.846209 
L 197.256057 137.779162 
L 201.26102 138.955794 
L 203.564383 139.605721 
L 206.086193 140.32859 
L 209.507127 141.127717 
L 213.779059 142.134902 
L 217.084194 142.855975 
L 220.605455 143.613222 
L 223.899812 144.172347 
L 228.046311 144.959895 
L 231.96693 145.665792 
L 234.692071 146.135105 
L 238.689304 146.655827 
L 242.888465 147.305668 
L 246.618359 147.834951 
L 250.716549 148.394433 
L 253.405967 148.664208 
L 255.571473 148.918311 
L 260.668086 149.472531 
L 264.298008 149.837444 
L 267.033979 150.100443 
L 271.722254 150.540811 
L 273.117996 150.667422 
L 278.926543 151.176749 
L 278.949671 151.178591 
L 279.024038 151.184847 
L 284.719843 151.551702 
L 286.406794 151.671286 
L 290.366726 151.916911 
L 295.228049 152.249008 
L 296.097512 152.29143 
L 296.918149 152.347824 
L 302.014958 152.557278 
L 307.561351 152.878947 
L 308.322551 152.903306 
L 309.408412 152.956936 
L 314.584093 153.102894 
L 317.090571 153.219315 
L 321.924062 153.390202 
L 324.551133 153.480603 
L 329.242459 153.599759 
L 332.632595 153.697117 
L 335.956879 153.748832 
L 340.865692 153.869319 
L 342.33197 153.880999 
L 345.672494 153.956653 
L 348.192752 153.964681 
L 349.392425 153.994227 
L 353.523134 153.966947 
L 356.738945 154.02924 
L 358.821277 154.017285 
L 363.563538 154.064336 
L 364.32 154.061057 
L 364.32 147.836894 
L 364.32 140.847913 
" clip-path="url(#pdb060c4584)" style="fill: #3dbc74"/>
   </g>
   <g id="PathCollection_7">
    <path d="M 364.32 113.007675 
L 363.302725 113.024625 
L 358.376826 112.875081 
L 354.829908 112.90696 
L 352.640729 112.813051 
L 349.686059 112.815278 
L 347.212931 112.666582 
L 345.884082 112.656758 
L 341.699789 112.403617 
L 338.17142 112.300015 
L 335.797869 112.174276 
L 331.395769 111.930661 
L 328.590152 111.787998 
L 325.751474 111.481293 
L 322.904084 111.306175 
L 319.826448 110.966823 
L 317.360372 110.808334 
L 313.585417 110.293831 
L 308.571709 109.846351 
L 307.013402 109.588244 
L 303.469349 109.236533 
L 302.032986 109.016536 
L 301.368769 108.950556 
L 297.078042 108.141608 
L 291.388701 107.33511 
L 290.696959 107.213157 
L 289.829991 107.077586 
L 284.497478 105.83299 
L 280.07826 105.045063 
L 279.060248 104.813896 
L 272.632085 103.220335 
L 272.417122 103.17304 
L 265.965195 101.075103 
L 264.336937 100.625594 
L 258.617034 98.607189 
L 257.748868 98.348054 
L 255.297408 97.380385 
L 251.531894 95.598574 
L 249.157098 94.346042 
L 245.886165 92.580917 
L 242.050749 90.452827 
L 240.142117 88.935092 
L 235.063237 84.822849 
L 232.697767 81.723663 
L 230.524628 78.903953 
L 229.448203 77.166784 
L 228.220497 72.192749 
L 227.422139 68.906786 
L 225.80458 68.906786 
L 216.91372 68.906785 
L 208.007148 68.906784 
L 198.982011 68.906783 
L 189.846881 68.906781 
L 180.726036 68.90678 
L 171.756611 68.906779 
L 166.75038 68.906779 
L 167.108225 72.80463 
L 167.509807 76.199136 
L 168.43511 79.410074 
L 169.651801 82.988298 
L 170.871892 85.430145 
L 172.839907 89.005699 
L 175.550819 92.737944 
L 177.157884 94.819163 
L 180.681025 98.42942 
L 182.665413 100.396343 
L 185.757477 102.897815 
L 188.362734 104.956595 
L 190.557087 106.329239 
L 192.850799 107.766607 
L 195.834749 109.755894 
L 200.006454 112.087896 
L 201.485435 112.79715 
L 202.700262 113.35868 
L 207.383303 115.487931 
L 211.591094 117.240709 
L 213.397125 117.999128 
L 219.517154 120.270729 
L 219.784299 120.361165 
L 219.872431 120.387633 
L 226.354696 122.332958 
L 229.724731 123.267675 
L 232.882243 124.076566 
L 234.920466 124.72405 
L 239.723554 125.853165 
L 241.485695 126.215755 
L 242.748813 126.532218 
L 248.609142 127.679528 
L 250.595844 128.132569 
L 255.786434 129.088536 
L 256.811449 129.256189 
L 262.872313 130.257597 
L 263.272402 130.333253 
L 268.979343 131.116276 
L 270.363297 131.308794 
L 275.123701 131.925234 
L 277.193096 132.212447 
L 280.190925 132.499759 
L 281.69984 132.673638 
L 285.827848 133.064592 
L 288.630194 133.359694 
L 292.90228 133.831586 
L 294.396292 133.931302 
L 297.193391 134.19318 
L 300.552493 134.431096 
L 302.438349 134.599375 
L 306.782451 134.848937 
L 310.965725 135.174511 
L 312.845901 135.259062 
L 318.355486 135.626236 
L 318.944387 135.652509 
L 319.157019 135.666652 
L 325.12419 135.880773 
L 327.451328 136.01011 
L 331.338923 136.117617 
L 335.729842 136.323187 
L 337.139879 136.358198 
L 341.855537 136.455709 
L 343.934128 136.49964 
L 348.648036 136.585129 
L 350.67962 136.590221 
L 356.392614 136.697181 
L 357.422293 136.706598 
L 358.70499 136.723964 
L 364.32 136.69321 
L 364.32 133.817077 
L 364.32 126.785241 
L 364.32 119.690124 
" clip-path="url(#pdb060c4584)" style="fill: #84d44b"/>
   </g>
   <g id="PathCollection_8">
    <path d="M 227.422139 68.906786 
L 228.220497 72.192749 
L 229.448203 77.166784 
L 230.524628 78.903953 
L 232.697767 81.723663 
L 235.063237 84.822849 
L 240.142117 88.935092 
L 242.050749 90.452827 
L 245.886165 92.580917 
L 249.157098 94.346042 
L 251.531894 95.598574 
L 255.297408 97.380385 
L 257.748868 98.348054 
L 258.617034 98.607189 
L 264.336937 100.625594 
L 265.965195 101.075103 
L 272.417122 103.17304 
L 272.632085 103.220335 
L 279.060248 104.813896 
L 280.07826 105.045063 
L 284.497478 105.83299 
L 289.829991 107.077586 
L 290.696959 107.213157 
L 291.388701 107.33511 
L 297.078042 108.141608 
L 301.368769 108.950556 
L 302.032986 109.016536 
L 303.469349 109.236533 
L 307.013402 109.588244 
L 308.571709 109.846351 
L 313.585417 110.293831 
L 317.360372 110.808334 
L 319.826448 110.966823 
L 322.904084 111.306175 
L 325.751474 111.481293 
L 328.590152 111.787998 
L 331.395769 111.930661 
L 335.797869 112.174276 
L 338.17142 112.300015 
L 341.699789 112.403617 
L 345.884082 112.656758 
L 347.212931 112.666582 
L 349.686059 112.815278 
L 352.640729 112.813051 
L 354.829908 112.90696 
L 358.376826 112.875081 
L 363.302725 113.024625 
L 364.32 113.007675 
L 364.32 112.52344 
L 364.32 105.364755 
L 364.32 98.208356 
L 364.32 91.049814 
L 364.32 83.923413 
L 364.32 76.685233 
L 364.32 68.906803 
L 356.099098 68.906802 
L 347.75106 68.906801 
L 339.29303 68.9068 
L 330.825001 68.906799 
L 322.455537 68.906798 
L 313.621816 68.906797 
L 304.439547 68.906795 
L 295.748675 68.906794 
L 287.170652 68.906793 
L 278.52692 68.906792 
L 269.847475 68.906791 
L 261.118034 68.90679 
L 252.337167 68.906789 
L 243.537731 68.906788 
L 234.699725 68.906787 
" clip-path="url(#pdb060c4584)" style="fill: #d5e21a"/>
   </g>
   <g id="line2d_1">
    <path d="M 7.2 68.906759 
L 8.528324 72.843922 
L 10.086944 77.313679 
L 11.999221 82.60674 
L 14.240592 88.543974 
L 16.815942 95.041701 
L 19.795565 102.115106 
L 23.156693 109.638481 
L 27.042016 117.580687 
L 31.619437 126.081286 
L 36.759537 134.923435 
L 42.253614 143.31604 
L 47.983247 151.058116 
L 53.930152 158.209516 
L 60.066473 164.689529 
L 66.425781 170.565582 
L 73.061642 175.932524 
L 79.948201 180.741502 
L 87.000607 185.011372 
L 94.184575 188.765988 
L 101.432826 191.975069 
L 108.785784 194.746749 
L 116.371584 197.257873 
L 124.101946 199.492302 
L 131.80531 201.33247 
L 139.473105 202.873086 
L 147.251322 204.214285 
L 155.144817 205.364355 
L 163.06431 206.343435 
L 171.163791 207.191238 
L 179.027574 207.884051 
L 186.874214 208.469156 
L 194.727997 208.969267 
L 202.583209 209.396668 
L 210.468419 209.75993 
L 218.393626 210.064054 
L 226.327404 210.317466 
L 234.261181 210.532595 
L 242.256384 210.722583 
L 250.320154 210.888715 
L 258.409636 211.025849 
L 266.531973 211.137842 
L 274.66431 211.228408 
L 282.786647 211.302689 
L 290.907556 211.367256 
L 299.055606 211.424824 
L 307.240796 211.476106 
L 315.39456 211.519246 
L 323.558323 211.55353 
L 331.780654 211.579528 
L 339.982986 211.596813 
L 348.171034 211.605241 
L 356.337654 211.605241 
L 364.32 211.596813 
" style="fill: none; stroke: #1f77b4; stroke-width: 1.5; stroke-linecap: square"/>
   </g>
   <g id="line2d_2">
    <path d="M 364.32 68.906803 
L 356.099098 68.906802 
L 347.75106 68.906801 
L 339.29303 68.9068 
L 330.825001 68.906799 
L 322.455537 68.906798 
L 313.621816 68.906797 
L 304.439547 68.906795 
L 295.748675 68.906794 
L 287.170652 68.906793 
L 278.52692 68.906792 
L 269.847475 68.906791 
L 261.118034 68.90679 
L 252.337167 68.906789 
L 243.537731 68.906788 
L 234.699725 68.906787 
L 225.80458 68.906786 
L 216.91372 68.906785 
L 208.007148 68.906784 
L 198.982011 68.906783 
L 189.846881 68.906781 
L 180.726036 68.90678 
L 171.756611 68.906779 
L 162.720046 68.906778 
L 153.437783 68.906777 
L 144.081953 68.906776 
L 134.608988 68.906775 
L 124.990461 68.906773 
L 115.308081 68.906772 
L 105.677411 68.906771 
L 96.073883 68.90677 
L 86.607346 68.906769 
L 77.180664 68.906768 
L 67.603277 68.906766 
L 58.077601 68.906765 
L 48.790195 68.906764 
L 39.840054 68.906763 
L 31.401737 68.906762 
L 23.629377 68.906761 
L 16.919321 68.90676 
L 11.573234 68.90676 
L 7.2 68.906759 
" style="fill: none; stroke: #ff7f0e; stroke-width: 1.5; stroke-linecap: square"/>
   </g>
   <g id="line2d_3">
    <path d="M 364.32 211.596813 
L 364.32 204.070866 
L 364.32 196.978034 
L 364.32 190.015194 
L 364.32 183.080209 
L 364.32 176.090514 
L 364.32 169.03168 
L 364.32 161.952133 
L 364.32 154.867729 
L 364.32 147.836894 
L 364.32 140.847913 
L 364.32 133.817077 
L 364.32 126.785241 
L 364.32 119.690124 
L 364.32 112.52344 
L 364.32 105.364755 
L 364.32 98.208356 
L 364.32 91.049814 
L 364.32 83.923413 
L 364.32 76.685233 
L 364.32 68.906803 
" style="fill: none; stroke: #2ca02c; stroke-width: 1.5; stroke-linecap: square"/>
   </g>
   <g id="legend_1">
    <g id="patch_2">
     <path d="M 14.2 268.312 
L 93.725 268.312 
Q 95.725 268.312 95.725 266.312 
L 95.725 208.5995 
Q 95.725 206.5995 93.725 206.5995 
L 14.2 206.5995 
Q 12.2 206.5995 12.2 208.5995 
L 12.2 266.312 
Q 12.2 268.312 14.2 268.312 
z
" style="fill: #ffffff; opacity: 0.8; stroke: #cccccc; stroke-linejoin: miter"/>
    </g>
    <g id="text_1">
     <!-- Boundary label -->
     <g transform="translate(16.2 218.197937) scale(0.1 -0.1)">
      <defs>
       <path id="DejaVuSans-42" d="M 1259 2228 
L 1259 519 
L 2272 519 
Q 2781 519 3026 730 
Q 3272 941 3272 1375 
Q 3272 1813 3026 2020 
Q 2781 2228 2272 2228 
L 1259 2228 
z
M 1259 4147 
L 1259 2741 
L 2194 2741 
Q 2656 2741 2882 2914 
Q 3109 3088 3109 3444 
Q 3109 3797 2882 3972 
Q 2656 4147 2194 4147 
L 1259 4147 
z
M 628 4666 
L 2241 4666 
Q 2963 4666 3353 4366 
Q 3744 4066 3744 3513 
Q 3744 3084 3544 2831 
Q 3344 2578 2956 2516 
Q 3422 2416 3680 2098 
Q 3938 1781 3938 1306 
Q 3938 681 3513 340 
Q 3088 0 2303 0 
L 628 0 
L 628 4666 
z
" transform="scale(0.015625)"/>
       <path id="DejaVuSans-6f" d="M 1959 3097 
Q 1497 3097 1228 2736 
Q 959 2375 959 1747 
Q 959 1119 1226 758 
Q 1494 397 1959 397 
Q 2419 397 2687 759 
Q 2956 1122 2956 1747 
Q 2956 2369 2687 2733 
Q 2419 3097 1959 3097 
z
M 1959 3584 
Q 2709 3584 3137 3096 
Q 3566 2609 3566 1747 
Q 3566 888 3137 398 
Q 2709 -91 1959 -91 
Q 1206 -91 779 398 
Q 353 888 353 1747 
Q 353 2609 779 3096 
Q 1206 3584 1959 3584 
z
" transform="scale(0.015625)"/>
       <path id="DejaVuSans-75" d="M 544 1381 
L 544 3500 
L 1119 3500 
L 1119 1403 
Q 1119 906 1312 657 
Q 1506 409 1894 409 
Q 2359 409 2629 706 
Q 2900 1003 2900 1516 
L 2900 3500 
L 3475 3500 
L 3475 0 
L 2900 0 
L 2900 538 
Q 2691 219 2414 64 
Q 2138 -91 1772 -91 
Q 1169 -91 856 284 
Q 544 659 544 1381 
z
M 1991 3584 
L 1991 3584 
z
" transform="scale(0.015625)"/>
       <path id="DejaVuSans-6e" d="M 3513 2113 
L 3513 0 
L 2938 0 
L 2938 2094 
Q 2938 2591 2744 2837 
Q 2550 3084 2163 3084 
Q 1697 3084 1428 2787 
Q 1159 2491 1159 1978 
L 1159 0 
L 581 0 
L 581 3500 
L 1159 3500 
L 1159 2956 
Q 1366 3272 1645 3428 
Q 1925 3584 2291 3584 
Q 2894 3584 3203 3211 
Q 3513 2838 3513 2113 
z
" transform="scale(0.015625)"/>
       <path id="DejaVuSans-64" d="M 2906 2969 
L 2906 4863 
L 3481 4863 
L 3481 0 
L 2906 0 
L 2906 525 
Q 2725 213 2448 61 
Q 2172 -91 1784 -91 
Q 1150 -91 751 415 
Q 353 922 353 1747 
Q 353 2572 751 3078 
Q 1150 3584 1784 3584 
Q 2172 3584 2448 3432 
Q 2725 3281 2906 2969 
z
M 947 1747 
Q 947 1113 1208 752 
Q 1469 391 1925 391 
Q 2381 391 2643 752 
Q 2906 1113 2906 1747 
Q 2906 2381 2643 2742 
Q 2381 3103 1925 3103 
Q 1469 3103 1208 2742 
Q 947 2381 947 1747 
z
" transform="scale(0.015625)"/>
       <path id="DejaVuSans-61" d="M 2194 1759 
Q 1497 1759 1228 1600 
Q 959 1441 959 1056 
Q 959 750 1161 570 
Q 1363 391 1709 391 
Q 2188 391 2477 730 
Q 2766 1069 2766 1631 
L 2766 1759 
L 2194 1759 
z
M 3341 1997 
L 3341 0 
L 2766 0 
L 2766 531 
Q 2569 213 2275 61 
Q 1981 -91 1556 -91 
Q 1019 -91 701 211 
Q 384 513 384 1019 
Q 384 1609 779 1909 
Q 1175 2209 1959 2209 
L 2766 2209 
L 2766 2266 
Q 2766 2663 2505 2880 
Q 2244 3097 1772 3097 
Q 1472 3097 1187 3025 
Q 903 2953 641 2809 
L 641 3341 
Q 956 3463 1253 3523 
Q 1550 3584 1831 3584 
Q 2591 3584 2966 3190 
Q 3341 2797 3341 1997 
z
" transform="scale(0.015625)"/>
       <path id="DejaVuSans-72" d="M 2631 2963 
Q 2534 3019 2420 3045 
Q 2306 3072 2169 3072 
Q 1681 3072 1420 2755 
Q 1159 2438 1159 1844 
L 1159 0 
L 581 0 
L 581 3500 
L 1159 3500 
L 1159 2956 
Q 1341 3275 1631 3429 
Q 1922 3584 2338 3584 
Q 2397 3584 2469 3576 
Q 2541 3569 2628 3553 
L 2631 2963 
z
" transform="scale(0.015625)"/>
       <path id="DejaVuSans-79" d="M 2059 -325 
Q 1816 -950 1584 -1140 
Q 1353 -1331 966 -1331 
L 506 -1331 
L 506 -850 
L 844 -850 
Q 1081 -850 1212 -737 
Q 1344 -625 1503 -206 
L 1606 56 
L 191 3500 
L 800 3500 
L 1894 763 
L 2988 3500 
L 3597 3500 
L 2059 -325 
z
" transform="scale(0.015625)"/>
       <path id="DejaVuSans-20" transform="scale(0.015625)"/>
       <path id="DejaVuSans-6c" d="M 603 4863 
L 1178 4863 
L 1178 0 
L 603 0 
L 603 4863 
z
" transform="scale(0.015625)"/>
       <path id="DejaVuSans-62" d="M 3116 1747 
Q 3116 2381 2855 2742 
Q 2594 3103 2138 3103 
Q 1681 3103 1420 2742 
Q 1159 2381 1159 1747 
Q 1159 1113 1420 752 
Q 1681 391 2138 391 
Q 2594 391 2855 752 
Q 3116 1113 3116 1747 
z
M 1159 2969 
Q 1341 3281 1617 3432 
Q 1894 3584 2278 3584 
Q 2916 3584 3314 3078 
Q 3713 2572 3713 1747 
Q 3713 922 3314 415 
Q 2916 -91 2278 -91 
Q 1894 -91 1617 61 
Q 1341 213 1159 525 
L 1159 0 
L 581 0 
L 581 4863 
L 1159 4863 
L 1159 2969 
z
" transform="scale(0.015625)"/>
       <path id="DejaVuSans-65" d="M 3597 1894 
L 3597 1613 
L 953 1613 
Q 991 1019 1311 708 
Q 1631 397 2203 397 
Q 2534 397 2845 478 
Q 3156 559 3463 722 
L 3463 178 
Q 3153 47 2828 -22 
Q 2503 -91 2169 -91 
Q 1331 -91 842 396 
Q 353 884 353 1716 
Q 353 2575 817 3079 
Q 1281 3584 2069 3584 
Q 2775 3584 3186 3129 
Q 3597 2675 3597 1894 
z
M 3022 2063 
Q 3016 2534 2758 2815 
Q 2500 3097 2075 3097 
Q 1594 3097 1305 2825 
Q 1016 2553 972 2059 
L 3022 2063 
z
" transform="scale(0.015625)"/>
      </defs>
      <use xlink:href="#DejaVuSans-42"/>
      <use xlink:href="#DejaVuSans-6f" x="68.603516"/>
      <use xlink:href="#DejaVuSans-75" x="129.785156"/>
      <use xlink:href="#DejaVuSans-6e" x="193.164062"/>
      <use xlink:href="#DejaVuSans-64" x="256.542969"/>
      <use xlink:href="#DejaVuSans-61" x="320.019531"/>
      <use xlink:href="#DejaVuSans-72" x="381.298828"/>
      <use xlink:href="#DejaVuSans-79" x="422.412109"/>
      <use xlink:href="#DejaVuSans-20" x="481.591797"/>
      <use xlink:href="#DejaVuSans-6c" x="513.378906"/>
      <use xlink:href="#DejaVuSans-61" x="541.162109"/>
      <use xlink:href="#DejaVuSans-62" x="602.441406"/>
      <use xlink:href="#DejaVuSans-65" x="665.917969"/>
      <use xlink:href="#DejaVuSans-6c" x="727.441406"/>
     </g>
    </g>
    <g id="line2d_4">
     <path d="M 36.78125 229.376062 
L 46.78125 229.376062 
L 56.78125 229.376062 
" style="fill: none; stroke: #1f77b4; stroke-width: 1.5; stroke-linecap: square"/>
    </g>
    <g id="text_2">
     <!-- 1 -->
     <g transform="translate(64.78125 232.876062) scale(0.1 -0.1)">
      <defs>
       <path id="DejaVuSans-31" d="M 794 531 
L 1825 531 
L 1825 4091 
L 703 3866 
L 703 4441 
L 1819 4666 
L 2450 4666 
L 2450 531 
L 3481 531 
L 3481 0 
L 794 0 
L 794 531 
z
" transform="scale(0.015625)"/>
      </defs>
      <use xlink:href="#DejaVuSans-31"/>
     </g>
    </g>
    <g id="line2d_5">
     <path d="M 36.78125 244.054187 
L 46.78125 244.054187 
L 56.78125 244.054187 
" style="fill: none; stroke: #ff7f0e; stroke-width: 1.5; stroke-linecap: square"/>
    </g>
    <g id="text_3">
     <!-- 2 -->
     <g transform="translate(64.78125 247.554187) scale(0.1 -0.1)">
      <defs>
       <path id="DejaVuSans-32" d="M 1228 531 
L 3431 531 
L 3431 0 
L 469 0 
L 469 531 
Q 828 903 1448 1529 
Q 2069 2156 2228 2338 
Q 2531 2678 2651 2914 
Q 2772 3150 2772 3378 
Q 2772 3750 2511 3984 
Q 2250 4219 1831 4219 
Q 1534 4219 1204 4116 
Q 875 4013 500 3803 
L 500 4441 
Q 881 4594 1212 4672 
Q 1544 4750 1819 4750 
Q 2544 4750 2975 4387 
Q 3406 4025 3406 3419 
Q 3406 3131 3298 2873 
Q 3191 2616 2906 2266 
Q 2828 2175 2409 1742 
Q 1991 1309 1228 531 
z
" transform="scale(0.015625)"/>
      </defs>
      <use xlink:href="#DejaVuSans-32"/>
     </g>
    </g>
    <g id="line2d_6">
     <path d="M 36.78125 258.732312 
L 46.78125 258.732312 
L 56.78125 258.732312 
" style="fill: none; stroke: #2ca02c; stroke-width: 1.5; stroke-linecap: square"/>
    </g>
    <g id="text_4">
     <!-- 3 -->
     <g transform="translate(64.78125 262.232312) scale(0.1 -0.1)">
      <defs>
       <path id="DejaVuSans-33" d="M 2597 2516 
Q 3050 2419 3304 2112 
Q 3559 1806 3559 1356 
Q 3559 666 3084 287 
Q 2609 -91 1734 -91 
Q 1441 -91 1130 -33 
Q 819 25 488 141 
L 488 750 
Q 750 597 1062 519 
Q 1375 441 1716 441 
Q 2309 441 2620 675 
Q 2931 909 2931 1356 
Q 2931 1769 2642 2001 
Q 2353 2234 1838 2234 
L 1294 2234 
L 1294 2753 
L 1863 2753 
Q 2328 2753 2575 2939 
Q 2822 3125 2822 3475 
Q 2822 3834 2567 4026 
Q 2313 4219 1838 4219 
Q 1578 4219 1281 4162 
Q 984 4106 628 3988 
L 628 4550 
Q 988 4650 1302 4700 
Q 1616 4750 1894 4750 
Q 2613 4750 3031 4423 
Q 3450 4097 3450 3541 
Q 3450 3153 3228 2886 
Q 3006 2619 2597 2516 
z
" transform="scale(0.015625)"/>
      </defs>
      <use xlink:href="#DejaVuSans-33"/>
     </g>
    </g>
   </g>
  </g>
 </g>
 <defs>
  <clipPath id="pdb060c4584">
   <rect x="7.2" y="7.2" width="357.12" height="266.112"/>
  </clipPath>
 </defs>
</svg>
