<?xml version="1.0" encoding="utf-8" standalone="no"?>
<!DOCTYPE svg PUBLIC "-//W3C//DTD SVG 1.1//EN"
  "http://www.w3.org/Graphics/SVG/1.1/DTD/svg11.dtd">
<svg xmlns:xlink="http://www.w3.org/1999/xlink" width="371.52pt" height="280.512pt" viewBox="0 0 371.52 280.512" xmlns="http://www.w3.org/2000/svg" version="1.1">
 <metadata>
  <rdf:RDF xmlns:dc="http://purl.org/dc/elements/1.1/" xmlns:cc="http://creativecommons.org/ns#" xmlns:rdf="http://www.w3.org/1999/02/22-rdf-syntax-ns#">
   <cc:Work>
    <dc:type rdf:resource="http://purl.org/dc/dcmitype/StillImage"/>
    <dc:date>2025-09-12T15:56:20.590273</dc:date>
    <dc:format>image/svg+xml</dc:format>
    <dc:creator>
     <cc:Agent>
      <dc:title>Matplotlib v3.6.3, https://matplotlib.org/</dc:title>
     </cc:Agent>
    </dc:creator>
   </cc:Work>
  </rdf:RDF>
 </metadata>
 <defs>
  <style type="text/css">*{stroke-linejoin: round; stroke-linecap: butt}</style>
 </defs>
 <g id="figure_1">
  <g id="patch_1">
   <path d="M 0 280.512 
L 371.52 280.512 
L 371.52 0 
L 0 0 
z
" style="fill: #ffffff"/>
  </g>
  <g id="axes_1">
   <g id="line2d_1">
    <path d="M 23.445713 75.435848 
L 23.432727 75.396896 
M 23.448695 75.444789 
L 23.445713 75.435848 
M 23.45236 75.455782 
L 23.448695 75.444789 
M 23.456868 75.469296 
L 23.45236 75.455782 
M 23.46241 75.485912 
L 23.456868 75.469296 
M 23.469224 75.506339 
L 23.46241 75.485912 
M 23.477602 75.531451 
L 23.469224 75.506339 
M 23.487904 75.562321 
L 23.477602 75.531451 
M 23.500571 75.600269 
L 23.487904 75.562321 
M 23.516147 75.646912 
L 23.500571 75.600269 
M 23.535297 75.704241 
L 23.516147 75.646912 
M 23.558844 75.774696 
L 23.535297 75.704241 
M 23.587797 75.861273 
L 23.558844 75.774696 
M 23.623397 75.967647 
L 23.587797 75.861273 
M 23.667169 76.098321 
L 23.623397 75.967647 
M 23.720991 76.258813 
L 23.667169 76.098321 
M 23.787168 76.455876 
L 23.720991 76.258813 
M 23.868537 76.697766 
L 23.787168 76.455876 
M 23.968587 76.994566 
L 23.868537 76.697766 
M 24.091605 77.358562 
L 23.968587 76.994566 
M 24.242865 77.804707 
L 24.091605 77.358562 
M 24.42885 78.351141 
L 24.242865 77.804707 
M 24.657532 79.019812 
L 24.42885 78.351141 
M 24.938712 79.837162 
L 24.657532 79.019812 
M 25.284444 80.834903 
L 24.938712 79.837162 
M 25.709546 82.050824 
L 25.284444 80.834903 
M 26.232239 83.529611 
L 25.709546 82.050824 
M 26.874928 85.323579 
L 26.232239 83.529611 
M 27.66516 87.493194 
L 26.874928 85.323579 
M 28.636807 90.107167 
L 27.66516 87.493194 
M 29.831517 93.241841 
L 28.636807 90.107167 
M 31.300498 96.979426 
L 29.831517 93.241841 
M 33.106716 101.404554 
L 31.300498 96.979426 
M 35.32759 106.598461 
L 33.106716 101.404554 
M 38.058315 112.63007 
L 35.32759 106.598461 
M 41.415937 119.543317 
L 38.058315 112.63007 
M 45.544373 127.340513 
L 41.415937 119.543317 
M 50.620583 135.962395 
L 45.544373 127.340513 
M 56.862147 145.267224 
L 50.620583 135.962395 
M 64.536597 155.013664 
L 56.862147 145.267224 
M 73.972884 164.855038 
L 64.536597 155.013664 
M 85.575477 174.354712 
L 73.972884 164.855038 
M 99.841697 183.031454 
L 64.536597 155.013664 
M 99.841697 183.031454 
L 73.972884 164.855038 
M 99.841697 183.031454 
L 85.575477 174.354712 
M 117.383038 190.43689 
L 50.620583 135.962395 
M 117.383038 190.43689 
L 56.862147 145.267224 
M 117.383038 190.43689 
L 64.536597 155.013664 
M 117.383038 190.43689 
L 99.841697 183.031454 
M 138.951376 196.252826 
L 38.058315 112.63007 
M 138.951376 196.252826 
L 41.415937 119.543317 
M 138.951376 196.252826 
L 45.544373 127.340513 
M 138.951376 196.252826 
L 50.620583 135.962395 
M 138.951376 196.252826 
L 117.383038 190.43689 
M 165.471194 200.377564 
L 31.300498 96.979426 
M 165.471194 200.377564 
L 33.106716 101.404554 
M 165.471194 200.377564 
L 35.32759 106.598461 
M 165.471194 200.377564 
L 38.058315 112.63007 
M 165.471194 200.377564 
L 138.951376 196.252826 
M 198.079214 202.958877 
L 165.471194 200.377564 
M 238.173115 204.34312 
L 198.079214 202.958877 
M 287.471442 204.949693 
L 238.173115 204.34312 
M 348.087273 205.115104 
L 287.471442 204.949693 
M 348.087273 75.396935 
L 23.432727 75.396896 
M 348.087273 75.396935 
L 23.445713 75.435848 
M 348.087273 75.396935 
L 23.448695 75.444789 
M 348.087273 75.396935 
L 23.45236 75.455782 
M 348.087273 75.396935 
L 23.456868 75.469296 
M 348.087273 75.396935 
L 23.46241 75.485912 
M 348.087273 75.396935 
L 23.469224 75.506339 
M 348.087273 75.396935 
L 23.477602 75.531451 
M 348.087273 75.396935 
L 23.487904 75.562321 
M 348.087273 75.396935 
L 23.500571 75.600269 
M 348.087273 75.396935 
L 23.516147 75.646912 
M 348.087273 75.396935 
L 23.535297 75.704241 
M 348.087273 75.396935 
L 23.558844 75.774696 
M 348.087273 75.396935 
L 23.587797 75.861273 
M 348.087273 75.396935 
L 23.623397 75.967647 
M 348.087273 75.396935 
L 23.667169 76.098321 
M 348.087273 75.396935 
L 23.720991 76.258813 
M 348.087273 75.396935 
L 23.787168 76.455876 
M 348.087273 75.396935 
L 23.868537 76.697766 
M 348.087273 75.396935 
L 23.968587 76.994566 
M 348.087273 75.396935 
L 24.091605 77.358562 
M 348.087273 75.396935 
L 24.242865 77.804707 
M 348.087273 75.396935 
L 24.42885 78.351141 
M 348.087273 75.396935 
L 24.657532 79.019812 
M 348.087273 75.396935 
L 24.938712 79.837162 
M 348.087273 75.396935 
L 25.284444 80.834903 
M 348.087273 75.396935 
L 25.709546 82.050824 
M 348.087273 75.396935 
L 26.232239 83.529611 
M 348.087273 75.396935 
L 26.874928 85.323579 
M 348.087273 75.396935 
L 27.66516 87.493194 
M 348.087273 75.396935 
L 28.636807 90.107167 
M 348.087273 75.396935 
L 29.831517 93.241841 
M 348.087273 75.396935 
L 31.300498 96.979426 
M 348.087273 75.396935 
L 165.471194 200.377564 
M 348.087273 75.396935 
L 198.079214 202.958877 
M 348.087273 75.396935 
L 238.173115 204.34312 
M 348.087273 75.396935 
L 287.471442 204.949693 
M 348.087273 75.396935 
L 348.087273 205.115104 
L 348.087273 205.115104 
" clip-path="url(#p2c3dc22380)" style="fill: none; stroke: #000000; stroke-opacity: 0.3; stroke-width: 0.5; stroke-linecap: square"/>
   </g>
   <g id="line2d_2"/>
   <g id="line2d_3">
    <path d="M 23.432727 75.396896 
L 23.445713 75.435848 
L 23.448695 75.444789 
L 23.45236 75.455782 
L 23.456868 75.469296 
L 23.46241 75.485912 
L 23.469224 75.506339 
L 23.477602 75.531451 
L 23.487904 75.562321 
L 23.500571 75.600269 
L 23.516147 75.646912 
L 23.535297 75.704241 
L 23.558844 75.774696 
L 23.587797 75.861273 
L 23.623397 75.967647 
L 23.667169 76.098321 
L 23.720991 76.258813 
L 23.787168 76.455876 
L 23.868537 76.697766 
L 23.968587 76.994566 
L 24.091605 77.358562 
L 24.242865 77.804707 
L 24.42885 78.351141 
L 24.657532 79.019812 
L 24.938712 79.837162 
L 25.284444 80.834903 
L 25.709546 82.050824 
L 26.232239 83.529611 
L 26.874928 85.323579 
L 27.66516 87.493194 
L 28.636807 90.107167 
L 29.831517 93.241841 
L 31.300498 96.979426 
L 33.106716 101.404554 
L 35.32759 106.598461 
L 38.058315 112.63007 
L 41.415937 119.543317 
L 45.544373 127.340513 
L 50.620583 135.962395 
L 56.862147 145.267224 
L 64.536597 155.013664 
L 73.972884 164.855038 
L 85.575477 174.354712 
L 99.841697 183.031454 
L 117.383038 190.43689 
L 138.951376 196.252826 
L 165.471194 200.377564 
L 198.079214 202.958877 
L 238.173115 204.34312 
L 287.471442 204.949693 
L 348.087273 205.115104 
" style="fill: none; stroke: #1f77b4; stroke-width: 1.5; stroke-linecap: square"/>
   </g>
   <g id="line2d_4">
    <path d="M 348.087273 75.396935 
L 23.432727 75.396896 
" style="fill: none; stroke: #ff7f0e; stroke-width: 1.5; stroke-linecap: square"/>
   </g>
   <g id="line2d_5">
    <path d="M 348.087273 205.115104 
L 348.087273 75.396935 
" style="fill: none; stroke: #2ca02c; stroke-width: 1.5; stroke-linecap: square"/>
   </g>
   <g id="legend_1">
    <g id="patch_2">
     <path d="M 14.2 268.312 
L 93.725 268.312 
Q 95.725 268.312 95.725 266.312 
L 95.725 208.5995 
Q 95.725 206.5995 93.725 206.5995 
L 14.2 206.5995 
Q 12.2 206.5995 12.2 208.5995 
L 12.2 266.312 
Q 12.2 268.312 14.2 268.312 
z
" style="fill: #ffffff; opacity: 0.8; stroke: #cccccc; stroke-linejoin: miter"/>
    </g>
    <g id="text_1">
     <!-- Boundary label -->
     <g transform="translate(16.2 218.197937) scale(0.1 -0.1)">
      <defs>
       <path id="DejaVuSans-42" d="M 1259 2228 
L 1259 519 
L 2272 519 
Q 2781 519 3026 730 
Q 3272 941 3272 1375 
Q 3272 1813 3026 2020 
Q 2781 2228 2272 2228 
L 1259 2228 
z
M 1259 4147 
L 1259 2741 
L 2194 2741 
Q 2656 2741 2882 2914 
Q 3109 3088 3109 3444 
Q 3109 3797 2882 3972 
Q 2656 4147 2194 4147 
L 1259 4147 
z
M 628 4666 
L 2241 4666 
Q 2963 4666 3353 4366 
Q 3744 4066 3744 3513 
Q 3744 3084 3544 2831 
Q 3344 2578 2956 2516 
Q 3422 2416 3680 2098 
Q 3938 1781 3938 1306 
Q 3938 681 3513 340 
Q 3088 0 2303 0 
L 628 0 
L 628 4666 
z
" transform="scale(0.015625)"/>
       <path id="DejaVuSans-6f" d="M 1959 3097 
Q 1497 3097 1228 2736 
Q 959 2375 959 1747 
Q 959 1119 1226 758 
Q 1494 397 1959 397 
Q 2419 397 2687 759 
Q 2956 1122 2956 1747 
Q 2956 2369 2687 2733 
Q 2419 3097 1959 3097 
z
M 1959 3584 
Q 2709 3584 3137 3096 
Q 3566 2609 3566 1747 
Q 3566 888 3137 398 
Q 2709 -91 1959 -91 
Q 1206 -91 779 398 
Q 353 888 353 1747 
Q 353 2609 779 3096 
Q 1206 3584 1959 3584 
z
" transform="scale(0.015625)"/>
       <path id="DejaVuSans-75" d="M 544 1381 
L 544 3500 
L 1119 3500 
L 1119 1403 
Q 1119 906 1312 657 
Q 1506 409 1894 409 
Q 2359 409 2629 706 
Q 2900 1003 2900 1516 
L 2900 3500 
L 3475 3500 
L 3475 0 
L 2900 0 
L 2900 538 
Q 2691 219 2414 64 
Q 2138 -91 1772 -91 
Q 1169 -91 856 284 
Q 544 659 544 1381 
z
M 1991 3584 
L 1991 3584 
z
" transform="scale(0.015625)"/>
       <path id="DejaVuSans-6e" d="M 3513 2113 
L 3513 0 
L 2938 0 
L 2938 2094 
Q 2938 2591 2744 2837 
Q 2550 3084 2163 3084 
Q 1697 3084 1428 2787 
Q 1159 2491 1159 1978 
L 1159 0 
L 581 0 
L 581 3500 
L 1159 3500 
L 1159 2956 
Q 1366 3272 1645 3428 
Q 1925 3584 2291 3584 
Q 2894 3584 3203 3211 
Q 3513 2838 3513 2113 
z
" transform="scale(0.015625)"/>
       <path id="DejaVuSans-64" d="M 2906 2969 
L 2906 4863 
L 3481 4863 
L 3481 0 
L 2906 0 
L 2906 525 
Q 2725 213 2448 61 
Q 2172 -91 1784 -91 
Q 1150 -91 751 415 
Q 353 922 353 1747 
Q 353 2572 751 3078 
Q 1150 3584 1784 3584 
Q 2172 3584 2448 3432 
Q 2725 3281 2906 2969 
z
M 947 1747 
Q 947 1113 1208 752 
Q 1469 391 1925 391 
Q 2381 391 2643 752 
Q 2906 1113 2906 1747 
Q 2906 2381 2643 2742 
Q 2381 3103 1925 3103 
Q 1469 3103 1208 2742 
Q 947 2381 947 1747 
z
" transform="scale(0.015625)"/>
       <path id="DejaVuSans-61" d="M 2194 1759 
Q 1497 1759 1228 1600 
Q 959 1441 959 1056 
Q 959 750 1161 570 
Q 1363 391 1709 391 
Q 2188 391 2477 730 
Q 2766 1069 2766 1631 
L 2766 1759 
L 2194 1759 
z
M 3341 1997 
L 3341 0 
L 2766 0 
L 2766 531 
Q 2569 213 2275 61 
Q 1981 -91 1556 -91 
Q 1019 -91 701 211 
Q 384 513 384 1019 
Q 384 1609 779 1909 
Q 1175 2209 1959 2209 
L 2766 2209 
L 2766 2266 
Q 2766 2663 2505 2880 
Q 2244 3097 1772 3097 
Q 1472 3097 1187 3025 
Q 903 2953 641 2809 
L 641 3341 
Q 956 3463 1253 3523 
Q 1550 3584 1831 3584 
Q 2591 3584 2966 3190 
Q 3341 2797 3341 1997 
z
" transform="scale(0.015625)"/>
       <path id="DejaVuSans-72" d="M 2631 2963 
Q 2534 3019 2420 3045 
Q 2306 3072 2169 3072 
Q 1681 3072 1420 2755 
Q 1159 2438 1159 1844 
L 1159 0 
L 581 0 
L 581 3500 
L 1159 3500 
L 1159 2956 
Q 1341 3275 1631 3429 
Q 1922 3584 2338 3584 
Q 2397 3584 2469 3576 
Q 2541 3569 2628 3553 
L 2631 2963 
z
" transform="scale(0.015625)"/>
       <path id="DejaVuSans-79" d="M 2059 -325 
Q 1816 -950 1584 -1140 
Q 1353 -1331 966 -1331 
L 506 -1331 
L 506 -850 
L 844 -850 
Q 1081 -850 1212 -737 
Q 1344 -625 1503 -206 
L 1606 56 
L 191 3500 
L 800 3500 
L 1894 763 
L 2988 3500 
L 3597 3500 
L 2059 -325 
z
" transform="scale(0.015625)"/>
       <path id="DejaVuSans-20" transform="scale(0.015625)"/>
       <path id="DejaVuSans-6c" d="M 603 4863 
L 1178 4863 
L 1178 0 
L 603 0 
L 603 4863 
z
" transform="scale(0.015625)"/>
       <path id="DejaVuSans-62" d="M 3116 1747 
Q 3116 2381 2855 2742 
Q 2594 3103 2138 3103 
Q 1681 3103 1420 2742 
Q 1159 2381 1159 1747 
Q 1159 1113 1420 752 
Q 1681 391 2138 391 
Q 2594 391 2855 752 
Q 3116 1113 3116 1747 
z
M 1159 2969 
Q 1341 3281 1617 3432 
Q 1894 3584 2278 3584 
Q 2916 3584 3314 3078 
Q 3713 2572 3713 1747 
Q 3713 922 3314 415 
Q 2916 -91 2278 -91 
Q 1894 -91 1617 61 
Q 1341 213 1159 525 
L 1159 0 
L 581 0 
L 581 4863 
L 1159 4863 
L 1159 2969 
z
" transform="scale(0.015625)"/>
       <path id="DejaVuSans-65" d="M 3597 1894 
L 3597 1613 
L 953 1613 
Q 991 1019 1311 708 
Q 1631 397 2203 397 
Q 2534 397 2845 478 
Q 3156 559 3463 722 
L 3463 178 
Q 3153 47 2828 -22 
Q 2503 -91 2169 -91 
Q 1331 -91 842 396 
Q 353 884 353 1716 
Q 353 2575 817 3079 
Q 1281 3584 2069 3584 
Q 2775 3584 3186 3129 
Q 3597 2675 3597 1894 
z
M 3022 2063 
Q 3016 2534 2758 2815 
Q 2500 3097 2075 3097 
Q 1594 3097 1305 2825 
Q 1016 2553 972 2059 
L 3022 2063 
z
" transform="scale(0.015625)"/>
      </defs>
      <use xlink:href="#DejaVuSans-42"/>
      <use xlink:href="#DejaVuSans-6f" x="68.603516"/>
      <use xlink:href="#DejaVuSans-75" x="129.785156"/>
      <use xlink:href="#DejaVuSans-6e" x="193.164062"/>
      <use xlink:href="#DejaVuSans-64" x="256.542969"/>
      <use xlink:href="#DejaVuSans-61" x="320.019531"/>
      <use xlink:href="#DejaVuSans-72" x="381.298828"/>
      <use xlink:href="#DejaVuSans-79" x="422.412109"/>
      <use xlink:href="#DejaVuSans-20" x="481.591797"/>
      <use xlink:href="#DejaVuSans-6c" x="513.378906"/>
      <use xlink:href="#DejaVuSans-61" x="541.162109"/>
      <use xlink:href="#DejaVuSans-62" x="602.441406"/>
      <use xlink:href="#DejaVuSans-65" x="665.917969"/>
      <use xlink:href="#DejaVuSans-6c" x="727.441406"/>
     </g>
    </g>
    <g id="line2d_6">
     <path d="M 36.78125 229.376062 
L 46.78125 229.376062 
L 56.78125 229.376062 
" style="fill: none; stroke: #1f77b4; stroke-width: 1.5; stroke-linecap: square"/>
    </g>
    <g id="text_2">
     <!-- 1 -->
     <g transform="translate(64.78125 232.876062) scale(0.1 -0.1)">
      <defs>
       <path id="DejaVuSans-31" d="M 794 531 
L 1825 531 
L 1825 4091 
L 703 3866 
L 703 4441 
L 1819 4666 
L 2450 4666 
L 2450 531 
L 3481 531 
L 3481 0 
L 794 0 
L 794 531 
z
" transform="scale(0.015625)"/>
      </defs>
      <use xlink:href="#DejaVuSans-31"/>
     </g>
    </g>
    <g id="line2d_7">
     <path d="M 36.78125 244.054187 
L 46.78125 244.054187 
L 56.78125 244.054187 
" style="fill: none; stroke: #ff7f0e; stroke-width: 1.5; stroke-linecap: square"/>
    </g>
    <g id="text_3">
     <!-- 2 -->
     <g transform="translate(64.78125 247.554187) scale(0.1 -0.1)">
      <defs>
       <path id="DejaVuSans-32" d="M 1228 531 
L 3431 531 
L 3431 0 
L 469 0 
L 469 531 
Q 828 903 1448 1529 
Q 2069 2156 2228 2338 
Q 2531 2678 2651 2914 
Q 2772 3150 2772 3378 
Q 2772 3750 2511 3984 
Q 2250 4219 1831 4219 
Q 1534 4219 1204 4116 
Q 875 4013 500 3803 
L 500 4441 
Q 881 4594 1212 4672 
Q 1544 4750 1819 4750 
Q 2544 4750 2975 4387 
Q 3406 4025 3406 3419 
Q 3406 3131 3298 2873 
Q 3191 2616 2906 2266 
Q 2828 2175 2409 1742 
Q 1991 1309 1228 531 
z
" transform="scale(0.015625)"/>
      </defs>
      <use xlink:href="#DejaVuSans-32"/>
     </g>
    </g>
    <g id="line2d_8">
     <path d="M 36.78125 258.732312 
L 46.78125 258.732312 
L 56.78125 258.732312 
" style="fill: none; stroke: #2ca02c; stroke-width: 1.5; stroke-linecap: square"/>
    </g>
    <g id="text_4">
     <!-- 3 -->
     <g transform="translate(64.78125 262.232312) scale(0.1 -0.1)">
      <defs>
       <path id="DejaVuSans-33" d="M 2597 2516 
Q 3050 2419 3304 2112 
Q 3559 1806 3559 1356 
Q 3559 666 3084 287 
Q 2609 -91 1734 -91 
Q 1441 -91 1130 -33 
Q 819 25 488 141 
L 488 750 
Q 750 597 1062 519 
Q 1375 441 1716 441 
Q 2309 441 2620 675 
Q 2931 909 2931 1356 
Q 2931 1769 2642 2001 
Q 2353 2234 1838 2234 
L 1294 2234 
L 1294 2753 
L 1863 2753 
Q 2328 2753 2575 2939 
Q 2822 3125 2822 3475 
Q 2822 3834 2567 4026 
Q 2313 4219 1838 4219 
Q 1578 4219 1281 4162 
Q 984 4106 628 3988 
L 628 4550 
Q 988 4650 1302 4700 
Q 1616 4750 1894 4750 
Q 2613 4750 3031 4423 
Q 3450 4097 3450 3541 
Q 3450 3153 3228 2886 
Q 3006 2619 2597 2516 
z
" transform="scale(0.015625)"/>
      </defs>
      <use xlink:href="#DejaVuSans-33"/>
     </g>
    </g>
   </g>
  </g>
 </g>
 <defs>
  <clipPath id="p2c3dc22380">
   <rect x="7.2" y="7.2" width="357.12" height="266.112"/>
  </clipPath>
 </defs>
</svg>
