<?xml version="1.0" encoding="utf-8" standalone="no"?>
<!DOCTYPE svg PUBLIC "-//W3C//DTD SVG 1.1//EN"
  "http://www.w3.org/Graphics/SVG/1.1/DTD/svg11.dtd">
<!-- Created with matplotlib (https://matplotlib.org/) -->
<svg height="280.512pt" version="1.1" viewBox="0 0 371.52 280.512" width="371.52pt" xmlns="http://www.w3.org/2000/svg" xmlns:xlink="http://www.w3.org/1999/xlink">
 <defs>
  <style type="text/css">
*{stroke-linecap:butt;stroke-linejoin:round;}
  </style>
 </defs>
 <g id="figure_1">
  <g id="patch_1">
   <path d="M 0 280.512 
L 371.52 280.512 
L 371.52 0 
L 0 0 
z
" style="fill:#ffffff;"/>
  </g>
  <g id="axes_1">
   <g id="PathCollection_1">
    <path clip-path="url(#p37d174a99d)" d="M 364.32 202.132335 
L 361.156428 202.154821 
L 358.175978 202.137789 
L 355.404518 202.146023 
L 351.662009 202.119723 
L 346.440555 202.130376 
L 344.698256 202.110516 
L 342.614327 202.122411 
L 337.986443 202.083467 
L 333.40049 202.098364 
L 332.161819 202.078955 
L 331.28092 202.085445 
L 326.609899 202.027841 
L 323.333595 202.01574 
L 320.205918 201.995554 
L 316.104079 201.961528 
L 313.073417 201.940818 
L 309.303308 201.891374 
L 305.603001 201.86211 
L 302.898557 201.821593 
L 298.915785 201.810907 
L 297.531114 201.794773 
L 292.979158 201.712195 
L 290.393259 201.686641 
L 286.549491 201.613561 
L 283.245013 201.573973 
L 280.03757 201.509438 
L 276.037669 201.454397 
L 273.623534 201.393759 
L 271.287092 201.348032 
L 267.507757 201.27875 
L 264.749078 201.21065 
L 261.42227 201.134192 
L 258.16122 201.042765 
L 254.185377 200.954918 
L 251.403433 200.850512 
L 248.083049 200.760732 
L 244.670226 200.654616 
L 240.125985 200.49398 
L 238.036504 200.426456 
L 232.836261 200.225275 
L 231.726726 200.185315 
L 228.251755 200.045309 
L 226.007265 199.933692 
L 223.385365 199.810267 
L 220.323012 199.648935 
L 219.426025 199.608831 
L 214.665037 199.329043 
L 210.239951 199.047331 
L 208.423626 198.947868 
L 203.590056 198.590809 
L 201.380971 198.449412 
L 196.71601 198.066651 
L 194.364187 197.892195 
L 189.436353 197.418732 
L 186.456247 197.158734 
L 182.44002 196.720004 
L 178.95723 196.3644 
L 174.827252 195.834737 
L 169.245235 195.168035 
L 168.433781 195.045904 
L 162.341216 194.116977 
L 159.112358 193.559432 
L 153.968738 192.716379 
L 153.260506 192.596136 
L 150.836966 192.119958 
L 146.911064 191.326603 
L 146.051653 191.130982 
L 141.456241 190.054075 
L 136.160468 188.794765 
L 135.637209 188.651939 
L 134.801621 188.415163 
L 129.731013 186.937181 
L 127.192092 186.202761 
L 123.06538 184.791217 
L 117.332625 182.805297 
L 117.182426 182.752744 
L 116.533809 182.491258 
L 110.672349 180.08971 
L 109.373028 179.481466 
L 103.990389 176.935182 
L 99.272919 174.539851 
L 98.927971 174.345103 
L 93.929392 171.416058 
L 89.422637 168.543573 
L 88.063894 167.611256 
L 84.260717 164.843972 
L 79.353992 160.968278 
L 77.735273 159.65703 
L 75.399104 157.51051 
L 71.249233 153.637368 
L 69.56856 151.891 
L 64.569906 146.503774 
L 62.759649 144.345142 
L 58.397641 138.885627 
L 56.823372 136.74172 
L 52.379907 130.355313 
L 51.6154 129.168399 
L 48.623229 124.255039 
L 47.172848 121.836334 
L 46.798659 121.164926 
L 43.160326 114.289566 
L 41.977371 111.84695 
L 39.397486 106.305733 
L 38.449331 104.007612 
L 36.197821 98.387036 
L 35.745026 97.254559 
L 35.530002 96.666889 
L 33.66898 90.916446 
L 32.131453 85.600462 
L 32.119603 85.551816 
L 32.105232 85.483779 
L 30.954146 80.106144 
L 30.388986 76.299194 
L 30.192701 74.836969 
L 30.087342 72.750899 
L 29.877211 68.906762 
L 23.839649 68.906761 
L 16.987516 68.90676 
L 11.578405 68.90676 
L 7.2 68.906759 
L 8.530762 72.851193 
L 10.045561 77.198044 
L 11.898399 82.336372 
L 14.146513 88.302704 
L 16.778673 94.959135 
L 19.848962 102.227242 
L 23.356109 110.094024 
L 27.420563 118.288499 
L 32.077551 126.909233 
L 37.34807 135.881516 
L 42.993566 144.36883 
L 48.845906 152.146618 
L 54.889662 159.284161 
L 61.154547 165.749462 
L 67.638846 171.601373 
L 74.375272 176.909319 
L 81.38768 181.661586 
L 88.596362 185.896315 
L 95.978461 189.613648 
L 103.482552 192.789874 
L 111.187344 195.57041 
L 119.103695 198.088249 
L 127.161036 200.276252 
L 135.348655 202.065566 
L 143.50599 203.599468 
L 151.596472 204.868529 
L 159.601674 205.936032 
L 167.556879 206.830547 
L 175.546368 207.593641 
L 183.557284 208.232028 
L 191.566771 208.777136 
L 199.604828 209.242249 
L 207.708595 209.639938 
L 215.868073 209.973488 
L 224.027551 210.248328 
L 232.217027 210.479313 
L 240.487926 210.682586 
L 248.873103 210.861146 
L 257.316849 211.008851 
L 265.486326 211.124557 
L 273.571523 211.217266 
L 281.782426 211.293975 
L 289.951903 211.360114 
L 298.218516 211.41911 
L 306.613693 211.472392 
L 315.016013 211.517389 
L 323.371192 211.552959 
L 331.460675 211.578671 
L 339.5473 211.596099 
L 347.928192 211.605098 
L 356.261944 211.605241 
L 364.32 211.596813 
L 364.32 204.128719 
" style="fill:#48186a;"/>
   </g>
   <g id="PathCollection_2">
    <path clip-path="url(#p37d174a99d)" d="M 364.32 191.943397 
L 360.727337 191.968314 
L 357.684104 191.943143 
L 352.900167 191.963325 
L 351.077449 191.947951 
L 350.196109 191.951279 
L 344.734443 191.883263 
L 338.983493 191.906589 
L 338.791889 191.903258 
L 338.608003 191.90413 
L 332.673399 191.824909 
L 329.956688 191.787269 
L 324.033912 191.774356 
L 323.2085 191.756972 
L 322.038191 191.752653 
L 316.670016 191.665491 
L 312.411846 191.627626 
L 310.123406 191.578178 
L 303.723259 191.507752 
L 303.456768 191.500068 
L 302.99742 191.496077 
L 296.954578 191.353681 
L 293.580932 191.307639 
L 291.078608 191.226907 
L 286.010858 191.141201 
L 285.158624 191.116954 
L 279.597068 190.987019 
L 279.176249 190.973313 
L 273.476071 190.81567 
L 273.118145 190.803221 
L 267.755137 190.626881 
L 266.969612 190.597667 
L 261.946433 190.421323 
L 260.880279 190.376467 
L 256.08931 190.199995 
L 255.108218 190.152697 
L 250.213736 189.966436 
L 249.961821 189.953817 
L 245.378277 189.703077 
L 243.044067 189.589295 
L 239.698338 189.414108 
L 235.854834 189.196048 
L 233.370488 189.061813 
L 228.331066 188.744636 
L 226.743759 188.644025 
L 225.290419 188.563526 
L 220.169372 188.175961 
L 218.279921 188.045761 
L 213.871853 187.693588 
L 212.307837 187.574597 
L 208.321929 187.18007 
L 204.82882 186.879527 
L 202.195291 186.581592 
L 198.405737 186.211174 
L 196.396862 185.999307 
L 192.551681 185.558854 
L 189.884412 185.218394 
L 189.056928 185.09457 
L 187.510038 184.899849 
L 182.835421 184.25375 
L 177.475244 183.468829 
L 176.334097 183.277983 
L 175.858923 183.196818 
L 173.183515 182.741454 
L 169.060923 182.012293 
L 167.730611 181.782026 
L 162.929339 180.789149 
L 158.054131 179.779331 
L 156.659505 179.427793 
L 153.488128 178.680195 
L 150.982933 178.058261 
L 149.388158 177.658988 
L 145.171954 176.446861 
L 140.480544 175.032509 
L 138.418413 174.402228 
L 136.651888 173.835096 
L 131.942349 172.094273 
L 126.679041 170.119511 
L 125.257858 169.499397 
L 119.509501 166.995304 
L 119.394441 166.9374 
L 114.148878 164.266015 
L 110.499997 162.30042 
L 107.487299 160.515802 
L 103.481465 158.064953 
L 101.02513 156.369337 
L 97.955901 154.20241 
L 95.372933 152.25338 
L 91.676854 149.268325 
L 88.802321 146.75932 
L 85.04051 143.249135 
L 83.117378 141.306549 
L 79.00001 136.896808 
L 77.590456 135.247513 
L 73.91861 130.725184 
L 69.731252 125.001324 
L 69.467403 124.636305 
L 68.524789 123.152664 
L 65.146986 117.752813 
L 64.691815 116.950493 
L 63.436261 114.611506 
L 60.961131 109.974924 
L 59.288342 106.442385 
L 57.889291 103.261683 
L 55.481125 97.046437 
L 55.160663 96.137824 
L 54.58364 94.141346 
L 53.039382 88.880607 
L 52.297486 85.886137 
L 51.295497 80.254822 
L 50.822851 76.989186 
L 50.488415 71.244422 
L 50.367903 68.906764 
L 49.174028 68.906764 
L 40.207745 68.906763 
L 31.716859 68.906762 
L 29.877211 68.906762 
L 30.087342 72.750899 
L 30.192701 74.836969 
L 30.388986 76.299194 
L 30.954146 80.106144 
L 32.105232 85.483779 
L 32.119603 85.551816 
L 32.131453 85.600462 
L 33.66898 90.916446 
L 35.530002 96.666889 
L 35.745026 97.254559 
L 36.197821 98.387036 
L 38.449331 104.007612 
L 39.397486 106.305733 
L 41.977371 111.84695 
L 43.160326 114.289566 
L 46.798659 121.164926 
L 47.172848 121.836334 
L 48.623229 124.255039 
L 51.6154 129.168399 
L 52.379907 130.355313 
L 56.823372 136.74172 
L 58.397641 138.885627 
L 62.759649 144.345142 
L 64.569906 146.503774 
L 69.56856 151.891 
L 71.249233 153.637368 
L 75.399104 157.51051 
L 77.735273 159.65703 
L 79.353992 160.968278 
L 84.260717 164.843972 
L 88.063894 167.611256 
L 89.422637 168.543573 
L 93.929392 171.416058 
L 98.927971 174.345103 
L 99.272919 174.539851 
L 103.990389 176.935182 
L 109.373028 179.481466 
L 110.672349 180.08971 
L 116.533809 182.491258 
L 117.182426 182.752744 
L 117.332625 182.805297 
L 123.06538 184.791217 
L 127.192092 186.202761 
L 129.731013 186.937181 
L 134.801621 188.415163 
L 135.637209 188.651939 
L 136.160468 188.794765 
L 141.456241 190.054075 
L 146.051653 191.130982 
L 146.911064 191.326603 
L 150.836966 192.119958 
L 153.260506 192.596136 
L 153.968738 192.716379 
L 159.112358 193.559432 
L 162.341216 194.116977 
L 168.433781 195.045904 
L 169.245235 195.168035 
L 174.827252 195.834737 
L 178.95723 196.3644 
L 182.44002 196.720004 
L 186.456247 197.158734 
L 189.436353 197.418732 
L 194.364187 197.892195 
L 196.71601 198.066651 
L 201.380971 198.449412 
L 203.590056 198.590809 
L 208.423626 198.947868 
L 210.239951 199.047331 
L 214.665037 199.329043 
L 219.426025 199.608831 
L 220.323012 199.648935 
L 223.385365 199.810267 
L 226.007265 199.933692 
L 228.251755 200.045309 
L 231.726726 200.185315 
L 232.836261 200.225275 
L 238.036504 200.426456 
L 240.125985 200.49398 
L 244.670226 200.654616 
L 248.083049 200.760732 
L 251.403433 200.850512 
L 254.185377 200.954918 
L 258.16122 201.042765 
L 261.42227 201.134192 
L 264.749078 201.21065 
L 267.507757 201.27875 
L 271.287092 201.348032 
L 273.623534 201.393759 
L 276.037669 201.454397 
L 280.03757 201.509438 
L 283.245013 201.573973 
L 286.549491 201.613561 
L 290.393259 201.686641 
L 292.979158 201.712195 
L 297.531114 201.794773 
L 298.915785 201.810907 
L 302.898557 201.821593 
L 305.603001 201.86211 
L 309.303308 201.891374 
L 313.073417 201.940818 
L 316.104079 201.961528 
L 320.205918 201.995554 
L 323.333595 202.01574 
L 326.609899 202.027841 
L 331.28092 202.085445 
L 332.161819 202.078955 
L 333.40049 202.098364 
L 337.986443 202.083467 
L 342.614327 202.122411 
L 344.698256 202.110516 
L 346.440555 202.130376 
L 351.662009 202.119723 
L 355.404518 202.146023 
L 358.175978 202.137789 
L 361.156428 202.154821 
L 364.32 202.132335 
L 364.32 197.074171 
" style="fill:#424086;"/>
   </g>
   <g id="PathCollection_3">
    <path clip-path="url(#p37d174a99d)" d="M 364.32 180.778797 
L 358.735905 180.808688 
L 356.261885 180.786754 
L 355.014806 180.791754 
L 350.973021 180.790478 
L 347.248742 180.753712 
L 345.628513 180.756621 
L 340.976103 180.695549 
L 337.488978 180.643213 
L 333.223378 180.632334 
L 331.368186 180.593249 
L 326.100717 180.563074 
L 325.369656 180.548371 
L 325.096794 180.54728 
L 319.347951 180.406924 
L 315.663376 180.374847 
L 312.872644 180.296081 
L 307.673616 180.222186 
L 306.16878 180.180502 
L 305.268882 180.16736 
L 299.832891 179.966223 
L 295.127945 179.89021 
L 293.641312 179.844859 
L 287.229526 179.661501 
L 287.05171 179.656679 
L 281.104408 179.426335 
L 280.316199 179.40222 
L 274.854816 179.179253 
L 274.042197 179.149779 
L 268.409903 178.909976 
L 268.044103 178.894874 
L 263.464756 178.680611 
L 261.984793 178.604093 
L 261.84334 178.595919 
L 255.711048 178.255646 
L 255.222882 178.223903 
L 249.30642 177.858285 
L 248.200989 177.779652 
L 242.870723 177.406854 
L 240.000456 177.189813 
L 236.428273 176.901947 
L 233.585274 176.694275 
L 229.154197 176.285737 
L 225.823251 176.003157 
L 221.210436 175.528533 
L 218.228933 175.233756 
L 214.134167 174.8202 
L 211.256823 174.461957 
L 208.894095 174.169807 
L 203.431768 173.492543 
L 201.506985 173.194601 
L 196.374572 172.458393 
L 194.361778 172.150808 
L 193.723131 172.06132 
L 187.061374 170.867403 
L 185.223193 170.564214 
L 179.27362 169.431856 
L 177.908688 169.143499 
L 177.545076 169.065457 
L 174.709438 168.428274 
L 170.232229 167.406437 
L 169.463615 167.231624 
L 163.696333 165.712059 
L 162.40526 165.364728 
L 156.741226 163.700875 
L 155.832108 163.448281 
L 151.652939 162.063856 
L 148.747693 161.076181 
L 147.908315 160.755565 
L 140.947908 158.066934 
L 139.714835 157.522301 
L 133.672869 154.821415 
L 132.395791 154.179054 
L 130.594902 153.23054 
L 125.780545 150.709691 
L 121.539685 148.237371 
L 120.362662 147.546054 
L 115.727907 144.429893 
L 114.299123 143.46458 
L 109.575587 139.866044 
L 108.516455 139.039461 
L 103.340329 134.546902 
L 103.048992 134.285284 
L 101.484738 132.730121 
L 97.997563 129.216124 
L 97.341438 128.480341 
L 93.35787 123.867399 
L 91.810039 121.86208 
L 89.112375 118.260725 
L 86.827613 114.836927 
L 85.344681 112.537375 
L 82.515141 107.535773 
L 81.843431 106.305463 
L 79.388727 101.032507 
L 78.657019 99.394339 
L 76.593148 93.78389 
L 75.926202 91.800841 
L 74.163928 85.147939 
L 74.021992 84.534376 
L 73.133216 78.830672 
L 72.743133 76.334939 
L 72.72647 76.177072 
L 72.713006 75.935399 
L 72.42604 68.906767 
L 67.884402 68.906767 
L 58.439149 68.906765 
L 50.367903 68.906764 
L 50.488415 71.244422 
L 50.822851 76.989186 
L 51.295497 80.254822 
L 52.297486 85.886137 
L 53.039382 88.880607 
L 54.58364 94.141346 
L 55.160663 96.137824 
L 55.481125 97.046437 
L 57.889291 103.261683 
L 59.288342 106.442385 
L 60.961131 109.974924 
L 63.436261 114.611506 
L 64.691815 116.950493 
L 65.146986 117.752813 
L 68.524789 123.152664 
L 69.467403 124.636305 
L 69.731252 125.001324 
L 73.91861 130.725184 
L 77.590456 135.247513 
L 79.00001 136.896808 
L 83.117378 141.306549 
L 85.04051 143.249135 
L 88.802321 146.75932 
L 91.676854 149.268325 
L 95.372933 152.25338 
L 97.955901 154.20241 
L 101.02513 156.369337 
L 103.481465 158.064953 
L 107.487299 160.515802 
L 110.499997 162.30042 
L 114.148878 164.266015 
L 119.394441 166.9374 
L 119.509501 166.995304 
L 125.257858 169.499397 
L 126.679041 170.119511 
L 131.942349 172.094273 
L 136.651888 173.835096 
L 138.418413 174.402228 
L 140.480544 175.032509 
L 145.171954 176.446861 
L 149.388158 177.658988 
L 150.982933 178.058261 
L 153.488128 178.680195 
L 156.659505 179.427793 
L 158.054131 179.779331 
L 162.929339 180.789149 
L 167.730611 181.782026 
L 169.060923 182.012293 
L 173.183515 182.741454 
L 175.858923 183.196818 
L 176.334097 183.277983 
L 177.475244 183.468829 
L 182.835421 184.25375 
L 187.510038 184.899849 
L 189.056928 185.09457 
L 189.884412 185.218394 
L 192.551681 185.558854 
L 196.396862 185.999307 
L 198.405737 186.211174 
L 202.195291 186.581592 
L 204.82882 186.879527 
L 208.321929 187.18007 
L 212.307837 187.574597 
L 213.871853 187.693588 
L 218.279921 188.045761 
L 220.169372 188.175961 
L 225.290419 188.563526 
L 226.743759 188.644025 
L 228.331066 188.744636 
L 233.370488 189.061813 
L 235.854834 189.196048 
L 239.698338 189.414108 
L 243.044067 189.589295 
L 245.378277 189.703077 
L 249.961821 189.953817 
L 250.213736 189.966436 
L 255.108218 190.152697 
L 256.08931 190.199995 
L 260.880279 190.376467 
L 261.946433 190.421323 
L 266.969612 190.597667 
L 267.755137 190.626881 
L 273.118145 190.803221 
L 273.476071 190.81567 
L 279.176249 190.973313 
L 279.597068 190.987019 
L 285.158624 191.116954 
L 286.010858 191.141201 
L 291.078608 191.226907 
L 293.580932 191.307639 
L 296.954578 191.353681 
L 302.99742 191.496077 
L 303.456768 191.500068 
L 303.723259 191.507752 
L 310.123406 191.578178 
L 312.411846 191.627626 
L 316.670016 191.665491 
L 322.038191 191.752653 
L 323.2085 191.756972 
L 324.033912 191.774356 
L 329.956688 191.787269 
L 332.673399 191.824909 
L 338.608003 191.90413 
L 338.791889 191.903258 
L 338.983493 191.906589 
L 344.734443 191.883263 
L 350.196109 191.951279 
L 351.077449 191.947951 
L 352.900167 191.963325 
L 357.684104 191.943143 
L 360.727337 191.968314 
L 364.32 191.943397 
L 364.32 190.10576 
L 364.32 183.114493 
" style="fill:#33638d;"/>
   </g>
   <g id="PathCollection_4">
    <path clip-path="url(#p37d174a99d)" d="M 364.32 168.361478 
L 362.82133 168.372159 
L 357.179223 168.308063 
L 352.946398 168.339368 
L 351.375663 168.316742 
L 347.857439 168.312435 
L 345.618326 168.276836 
L 344.766334 168.277396 
L 339.809908 168.171455 
L 336.239541 168.156114 
L 333.766126 168.093372 
L 328.177073 168.050765 
L 327.864298 168.042772 
L 327.740612 168.041747 
L 321.986992 167.865258 
L 319.561568 167.835577 
L 316.173971 167.716699 
L 311.332367 167.632306 
L 310.262671 167.591016 
L 308.692401 167.553466 
L 304.433168 167.371236 
L 300.070307 167.272097 
L 298.867689 167.209134 
L 297.90523 167.178842 
L 293.317556 166.933029 
L 287.880563 166.771697 
L 287.703447 166.762585 
L 287.581272 166.758381 
L 281.739222 166.428779 
L 280.51002 166.375286 
L 275.053255 166.075395 
L 274.068662 166.022584 
L 268.152633 165.681915 
L 268.033939 165.674749 
L 267.518761 165.64352 
L 262.246735 165.245992 
L 260.946136 165.15628 
L 256.255764 164.798019 
L 254.269815 164.616851 
L 249.699753 164.241237 
L 247.393869 164.01837 
L 243.068683 163.607809 
L 239.677718 163.264321 
L 236.216872 162.910644 
L 231.623808 162.362496 
L 228.146044 161.972438 
L 224.284905 161.422967 
L 219.546868 160.829474 
L 217.046374 160.428325 
L 213.664873 159.900434 
L 209.655908 159.26172 
L 206.513603 158.761907 
L 202.946295 158.073272 
L 197.661065 157.097246 
L 197.524033 157.070304 
L 191.800832 155.82961 
L 191.736137 155.816863 
L 191.441112 155.748485 
L 185.424279 154.268813 
L 178.850191 152.531004 
L 178.667305 152.476671 
L 178.499737 152.425728 
L 170.882951 150.071163 
L 169.613508 149.611143 
L 163.290001 147.372229 
L 161.573983 146.66263 
L 155.586178 144.265736 
L 155.507798 144.233684 
L 155.473287 144.218412 
L 149.99876 141.585095 
L 145.720362 139.354073 
L 143.518258 138.212799 
L 137.314096 134.491978 
L 136.700612 134.111138 
L 136.393162 133.892941 
L 130.257529 129.485368 
L 127.259328 126.976861 
L 123.863958 124.158377 
L 120.271104 120.648683 
L 118.58946 118.993158 
L 115.825786 115.889219 
L 114.03008 113.761459 
L 112.635783 111.88828 
L 110.006704 108.303021 
L 106.924261 103.281589 
L 106.234687 102.160063 
L 104.876333 99.429171 
L 103.101795 95.739132 
L 102.399883 93.94972 
L 100.506912 88.740847 
L 99.49677 85.086836 
L 98.811369 82.279741 
L 98.15276 78.226875 
L 97.803346 75.587607 
L 97.476008 70.35882 
L 97.411753 68.90677 
L 96.50457 68.90677 
L 86.953324 68.906769 
L 77.42122 68.906768 
L 72.42604 68.906767 
L 72.713006 75.935399 
L 72.72647 76.177072 
L 72.743133 76.334939 
L 73.133216 78.830672 
L 74.021992 84.534376 
L 74.163928 85.147939 
L 75.926202 91.800841 
L 76.593148 93.78389 
L 78.657019 99.394339 
L 79.388727 101.032507 
L 81.843431 106.305463 
L 82.515141 107.535773 
L 85.344681 112.537375 
L 86.827613 114.836927 
L 89.112375 118.260725 
L 91.810039 121.86208 
L 93.35787 123.867399 
L 97.341438 128.480341 
L 97.997563 129.216124 
L 101.484738 132.730121 
L 103.048992 134.285284 
L 103.340329 134.546902 
L 108.516455 139.039461 
L 109.575587 139.866044 
L 114.299123 143.46458 
L 115.727907 144.429893 
L 120.362662 147.546054 
L 121.539685 148.237371 
L 125.780545 150.709691 
L 130.594902 153.23054 
L 132.395791 154.179054 
L 133.672869 154.821415 
L 139.714835 157.522301 
L 140.947908 158.066934 
L 147.908315 160.755565 
L 148.747693 161.076181 
L 151.652939 162.063856 
L 155.832108 163.448281 
L 156.741226 163.700875 
L 162.40526 165.364728 
L 163.696333 165.712059 
L 169.463615 167.231624 
L 170.232229 167.406437 
L 174.709438 168.428274 
L 177.545076 169.065457 
L 177.908688 169.143499 
L 179.27362 169.431856 
L 185.223193 170.564214 
L 187.061374 170.867403 
L 193.723131 172.06132 
L 194.361778 172.150808 
L 196.374572 172.458393 
L 201.506985 173.194601 
L 203.431768 173.492543 
L 208.894095 174.169807 
L 211.256823 174.461957 
L 214.134167 174.8202 
L 218.228933 175.233756 
L 221.210436 175.528533 
L 225.823251 176.003157 
L 229.154197 176.285737 
L 233.585274 176.694275 
L 236.428273 176.901947 
L 240.000456 177.189813 
L 242.870723 177.406854 
L 248.200989 177.779652 
L 249.30642 177.858285 
L 255.222882 178.223903 
L 255.711048 178.255646 
L 261.84334 178.595919 
L 261.984793 178.604093 
L 263.464756 178.680611 
L 268.044103 178.894874 
L 268.409903 178.909976 
L 274.042197 179.149779 
L 274.854816 179.179253 
L 280.316199 179.40222 
L 281.104408 179.426335 
L 287.05171 179.656679 
L 287.229526 179.661501 
L 293.641312 179.844859 
L 295.127945 179.89021 
L 299.832891 179.966223 
L 305.268882 180.16736 
L 306.16878 180.180502 
L 307.673616 180.222186 
L 312.872644 180.296081 
L 315.663376 180.374847 
L 319.347951 180.406924 
L 325.096794 180.54728 
L 325.369656 180.548371 
L 326.100717 180.563074 
L 331.368186 180.593249 
L 333.223378 180.632334 
L 337.488978 180.643213 
L 340.976103 180.695549 
L 345.628513 180.756621 
L 347.248742 180.753712 
L 350.973021 180.790478 
L 355.014806 180.791754 
L 356.261885 180.786754 
L 358.735905 180.808688 
L 364.32 180.778797 
L 364.32 176.11037 
L 364.32 169.12596 
" style="fill:#26828e;"/>
   </g>
   <g id="PathCollection_5">
    <path clip-path="url(#p37d174a99d)" d="M 364.32 154.052444 
L 362.113634 154.077842 
L 359.232405 154.036054 
L 357.919038 154.043844 
L 354.257176 153.966613 
L 350.320235 153.989749 
L 348.947271 153.958377 
L 344.876833 153.949034 
L 343.307184 153.914013 
L 342.680199 153.910252 
L 337.360884 153.773979 
L 334.071194 153.731787 
L 331.130453 153.638466 
L 328.759613 153.583649 
L 322.670128 153.452964 
L 322.263172 153.431752 
L 321.599587 153.415863 
L 316.255657 153.151103 
L 313.663024 153.087019 
L 308.557546 152.891899 
L 306.501978 152.796857 
L 301.764561 152.604693 
L 299.737835 152.484967 
L 298.735779 152.434859 
L 293.322806 152.07247 
L 288.275872 151.805245 
L 286.834556 151.701146 
L 282.258725 151.418955 
L 280.112128 151.246922 
L 279.493868 151.196116 
L 272.893947 150.650231 
L 271.258551 150.497809 
L 265.805529 149.983151 
L 261.405562 149.558304 
L 258.509326 149.243797 
L 256.407257 149.038151 
L 250.10318 148.268891 
L 247.693112 147.982782 
L 242.712076 147.27151 
L 239.342986 146.856093 
L 235.321132 146.212897 
L 231.887502 145.641629 
L 226.787029 144.715137 
L 224.255529 144.296634 
L 218.488531 143.122889 
L 216.493024 142.732303 
L 209.315886 141.140928 
L 209.131145 141.100421 
L 208.726146 141.003784 
L 201.972701 139.15476 
L 197.042471 137.73798 
L 194.831704 137.08293 
L 193.081848 136.547941 
L 188.005365 134.794083 
L 182.960037 132.934794 
L 181.835807 132.481352 
L 181.208248 132.205804 
L 175.759829 129.823197 
L 171.50718 127.782679 
L 170.046685 127.059469 
L 168.502162 126.287262 
L 164.215408 123.774735 
L 160.359064 121.436044 
L 156.966489 119.067278 
L 152.684669 115.953016 
L 150.191383 113.800861 
L 145.27839 109.285861 
L 143.958641 107.831904 
L 139.630175 102.790223 
L 138.588838 101.307147 
L 135.27274 96.338391 
L 133.744045 93.448072 
L 131.869905 89.662636 
L 129.696506 83.811901 
L 129.574095 83.444572 
L 128.249387 77.419916 
L 128.012892 76.109584 
L 127.791233 73.349885 
L 127.515401 68.906774 
L 125.113882 68.906774 
L 115.616775 68.906772 
L 106.093528 68.906771 
L 97.411753 68.90677 
L 97.476008 70.35882 
L 97.803346 75.587607 
L 98.15276 78.226875 
L 98.811369 82.279741 
L 99.49677 85.086836 
L 100.506912 88.740847 
L 102.399883 93.94972 
L 103.101795 95.739132 
L 104.876333 99.429171 
L 106.234687 102.160063 
L 106.924261 103.281589 
L 110.006704 108.303021 
L 112.635783 111.88828 
L 114.03008 113.761459 
L 115.825786 115.889219 
L 118.58946 118.993158 
L 120.271104 120.648683 
L 123.863958 124.158377 
L 127.259328 126.976861 
L 130.257529 129.485368 
L 136.393162 133.892941 
L 136.700612 134.111138 
L 137.314096 134.491978 
L 143.518258 138.212799 
L 145.720362 139.354073 
L 149.99876 141.585095 
L 155.473287 144.218412 
L 155.507798 144.233684 
L 155.586178 144.265736 
L 161.573983 146.66263 
L 163.290001 147.372229 
L 169.613508 149.611143 
L 170.882951 150.071163 
L 178.499737 152.425728 
L 178.667305 152.476671 
L 178.850191 152.531004 
L 185.424279 154.268813 
L 191.441112 155.748485 
L 191.736137 155.816863 
L 191.800832 155.82961 
L 197.524033 157.070304 
L 197.661065 157.097246 
L 202.946295 158.073272 
L 206.513603 158.761907 
L 209.655908 159.26172 
L 213.664873 159.900434 
L 217.046374 160.428325 
L 219.546868 160.829474 
L 224.284905 161.422967 
L 228.146044 161.972438 
L 231.623808 162.362496 
L 236.216872 162.910644 
L 239.677718 163.264321 
L 243.068683 163.607809 
L 247.393869 164.01837 
L 249.699753 164.241237 
L 254.269815 164.616851 
L 256.255764 164.798019 
L 260.946136 165.15628 
L 262.246735 165.245992 
L 267.518761 165.64352 
L 268.033939 165.674749 
L 268.152633 165.681915 
L 274.068662 166.022584 
L 275.053255 166.075395 
L 280.51002 166.375286 
L 281.739222 166.428779 
L 287.581272 166.758381 
L 287.703447 166.762585 
L 287.880563 166.771697 
L 293.317556 166.933029 
L 297.90523 167.178842 
L 298.867689 167.209134 
L 300.070307 167.272097 
L 304.433168 167.371236 
L 308.692401 167.553466 
L 310.262671 167.591016 
L 311.332367 167.632306 
L 316.173971 167.716699 
L 319.561568 167.835577 
L 321.986992 167.865258 
L 327.740612 168.041747 
L 327.864298 168.042772 
L 328.177073 168.050765 
L 333.766126 168.093372 
L 336.239541 168.156114 
L 339.809908 168.171455 
L 344.766334 168.277396 
L 345.618326 168.276836 
L 347.857439 168.312435 
L 351.375663 168.316742 
L 352.946398 168.339368 
L 357.179223 168.308063 
L 362.82133 168.372159 
L 364.32 168.361478 
L 364.32 162.136121 
L 364.32 155.12957 
" style="fill:#1fa088;"/>
   </g>
   <g id="PathCollection_6">
    <path clip-path="url(#p37d174a99d)" d="M 364.32 136.691887 
L 359.954704 136.748141 
L 358.462185 136.716277 
L 356.752719 136.729414 
L 352.727338 136.608513 
L 350.80042 136.610262 
L 346.521166 136.541153 
L 344.256972 136.508156 
L 340.467157 136.396049 
L 337.621102 136.356639 
L 335.078053 136.264931 
L 331.681509 136.141087 
L 328.790659 136.030685 
L 325.54964 135.891882 
L 321.935352 135.736619 
L 319.642173 135.626591 
L 314.280264 135.397645 
L 313.956018 135.374099 
L 313.353646 135.349585 
L 308.41656 134.953596 
L 305.181366 134.769123 
L 302.295796 134.537244 
L 296.592275 134.168905 
L 296.041489 134.114447 
L 295.747291 134.090133 
L 289.759506 133.469395 
L 286.423216 133.165709 
L 283.628738 132.858701 
L 278.937779 132.423129 
L 278.262193 132.332014 
L 272.401832 131.625435 
L 272.353874 131.618216 
L 266.107057 130.728221 
L 265.357015 130.60951 
L 259.674806 129.712829 
L 257.720604 129.39669 
L 252.359657 128.477288 
L 250.234555 128.001587 
L 245.46296 127.072341 
L 242.794374 126.523804 
L 238.420291 125.564705 
L 235.416372 124.740937 
L 230.79244 123.574707 
L 228.110021 122.777135 
L 224.262153 121.695512 
L 222.050249 121.041129 
L 216.916719 119.217432 
L 215.447395 118.755493 
L 212.700189 117.775097 
L 208.533699 115.983845 
L 203.345925 113.717285 
L 202.34126 113.262615 
L 201.576277 112.90188 
L 196.217416 109.969083 
L 189.931825 106.035113 
L 189.415569 105.722802 
L 188.829751 105.325628 
L 183.243722 100.698867 
L 179.428346 97.296434 
L 176.996545 94.420125 
L 173.825065 90.488827 
L 170.986101 85.48953 
L 169.850782 83.427283 
L 168.70834 80.111518 
L 167.621589 76.685481 
L 167.361791 74.646742 
L 166.75795 68.906779 
L 162.634337 68.906778 
L 153.359217 68.906777 
L 144.053812 68.906776 
L 134.629701 68.906775 
L 127.515401 68.906774 
L 127.791233 73.349885 
L 128.012892 76.109584 
L 128.249387 77.419916 
L 129.574095 83.444572 
L 129.696506 83.811901 
L 131.869905 89.662636 
L 133.744045 93.448072 
L 135.27274 96.338391 
L 138.588838 101.307147 
L 139.630175 102.790223 
L 143.958641 107.831904 
L 145.27839 109.285861 
L 150.191383 113.800861 
L 152.684669 115.953016 
L 156.966489 119.067278 
L 160.359064 121.436044 
L 164.215408 123.774735 
L 168.502162 126.287262 
L 170.046685 127.059469 
L 171.50718 127.782679 
L 175.759829 129.823197 
L 181.208248 132.205804 
L 181.835807 132.481352 
L 182.960037 132.934794 
L 188.005365 134.794083 
L 193.081848 136.547941 
L 194.831704 137.08293 
L 197.042471 137.73798 
L 201.972701 139.15476 
L 208.726146 141.003784 
L 209.131145 141.100421 
L 209.315886 141.140928 
L 216.493024 142.732303 
L 218.488531 143.122889 
L 224.255529 144.296634 
L 226.787029 144.715137 
L 231.887502 145.641629 
L 235.321132 146.212897 
L 239.342986 146.856093 
L 242.712076 147.27151 
L 247.693112 147.982782 
L 250.10318 148.268891 
L 256.407257 149.038151 
L 258.509326 149.243797 
L 261.405562 149.558304 
L 265.805529 149.983151 
L 271.258551 150.497809 
L 272.893947 150.650231 
L 279.493868 151.196116 
L 280.112128 151.246922 
L 282.258725 151.418955 
L 286.834556 151.701146 
L 288.275872 151.805245 
L 293.322806 152.07247 
L 298.735779 152.434859 
L 299.737835 152.484967 
L 301.764561 152.604693 
L 306.501978 152.796857 
L 308.557546 152.891899 
L 313.663024 153.087019 
L 316.255657 153.151103 
L 321.599587 153.415863 
L 322.263172 153.431752 
L 322.670128 153.452964 
L 328.759613 153.583649 
L 331.130453 153.638466 
L 334.071194 153.731787 
L 337.360884 153.773979 
L 342.680199 153.910252 
L 343.307184 153.914013 
L 344.876833 153.949034 
L 348.947271 153.958377 
L 350.320235 153.989749 
L 354.257176 153.966613 
L 357.919038 154.043844 
L 359.232405 154.036054 
L 362.113634 154.077842 
L 364.32 154.052444 
L 364.32 148.093592 
L 364.32 141.016045 
" style="fill:#3dbc74;"/>
   </g>
   <g id="PathCollection_7">
    <path clip-path="url(#p37d174a99d)" d="M 364.32 113.007761 
L 363.297812 113.025207 
L 358.386278 112.879471 
L 354.644037 112.901542 
L 352.314359 112.812994 
L 348.610786 112.787437 
L 346.089614 112.66001 
L 343.879853 112.599238 
L 339.499509 112.331579 
L 337.130138 112.241432 
L 331.069707 111.980477 
L 330.980565 111.972162 
L 330.804924 111.964323 
L 325.091551 111.443764 
L 321.977375 111.163422 
L 318.26298 110.824501 
L 312.817392 110.310449 
L 310.901208 110.090283 
L 307.504591 109.758845 
L 304.182985 109.248988 
L 301.655667 108.925345 
L 297.632051 108.281519 
L 292.802482 107.589364 
L 290.670062 107.155454 
L 289.613679 106.920919 
L 283.862855 105.855878 
L 282.917272 105.629674 
L 278.199716 104.420353 
L 274.790237 103.570083 
L 270.864212 102.64799 
L 266.241691 101.213261 
L 263.674453 100.443155 
L 259.345076 98.982726 
L 257.371502 98.133535 
L 256.137888 97.613566 
L 251.361665 95.509213 
L 248.64601 94.02385 
L 245.744261 92.556799 
L 241.144658 89.791019 
L 240.750614 89.557677 
L 240.330827 89.27639 
L 236.511126 85.990726 
L 232.798949 82.429983 
L 232.749187 82.362645 
L 232.621643 82.157067 
L 229.623766 77.247653 
L 228.724611 75.592182 
L 227.927469 71.635489 
L 227.419509 68.906786 
L 226.014566 68.906786 
L 217.130849 68.906785 
L 208.184279 68.906784 
L 199.171999 68.906783 
L 190.141148 68.906781 
L 181.060301 68.90678 
L 171.890888 68.906779 
L 166.75795 68.906779 
L 167.361791 74.646742 
L 167.621589 76.685481 
L 168.70834 80.111518 
L 169.850782 83.427283 
L 170.986101 85.48953 
L 173.825065 90.488827 
L 176.996545 94.420125 
L 179.428346 97.296434 
L 183.243722 100.698867 
L 188.829751 105.325628 
L 189.415569 105.722802 
L 189.931825 106.035113 
L 196.217416 109.969083 
L 201.576277 112.90188 
L 202.34126 113.262615 
L 203.345925 113.717285 
L 208.533699 115.983845 
L 212.700189 117.775097 
L 215.447395 118.755493 
L 216.916719 119.217432 
L 222.050249 121.041129 
L 224.262153 121.695512 
L 228.110021 122.777135 
L 230.79244 123.574707 
L 235.416372 124.740937 
L 238.420291 125.564705 
L 242.794374 126.523804 
L 245.46296 127.072341 
L 250.234555 128.001587 
L 252.359657 128.477288 
L 257.720604 129.39669 
L 259.674806 129.712829 
L 265.357015 130.60951 
L 266.107057 130.728221 
L 272.353874 131.618216 
L 272.401832 131.625435 
L 278.262193 132.332014 
L 278.937779 132.423129 
L 283.628738 132.858701 
L 286.423216 133.165709 
L 289.759506 133.469395 
L 295.747291 134.090133 
L 296.041489 134.114447 
L 296.592275 134.168905 
L 302.295796 134.537244 
L 305.181366 134.769123 
L 308.41656 134.953596 
L 313.353646 135.349585 
L 313.956018 135.374099 
L 314.280264 135.397645 
L 319.642173 135.626591 
L 321.935352 135.736619 
L 325.54964 135.891882 
L 328.790659 136.030685 
L 331.681509 136.141087 
L 335.078053 136.264931 
L 337.621102 136.356639 
L 340.467157 136.396049 
L 344.256972 136.508156 
L 346.521166 136.541153 
L 350.80042 136.610262 
L 352.727338 136.608513 
L 356.752719 136.729414 
L 358.462185 136.716277 
L 359.954704 136.748141 
L 364.32 136.691887 
L 364.32 133.907071 
L 364.32 126.778242 
L 364.32 119.649126 
" style="fill:#84d44b;"/>
   </g>
   <g id="PathCollection_8">
    <path clip-path="url(#p37d174a99d)" d="M 227.419509 68.906786 
L 227.927469 71.635489 
L 228.724611 75.592182 
L 229.623766 77.247653 
L 232.621643 82.157067 
L 232.749187 82.362645 
L 232.798949 82.429983 
L 236.511126 85.990726 
L 240.330827 89.27639 
L 240.750614 89.557677 
L 241.144658 89.791019 
L 245.744261 92.556799 
L 248.64601 94.02385 
L 251.361665 95.509213 
L 256.137888 97.613566 
L 257.371502 98.133535 
L 259.345076 98.982726 
L 263.674453 100.443155 
L 266.241691 101.213261 
L 270.864212 102.64799 
L 274.790237 103.570083 
L 278.199716 104.420353 
L 282.917272 105.629674 
L 283.862855 105.855878 
L 289.613679 106.920919 
L 290.670062 107.155454 
L 292.802482 107.589364 
L 297.632051 108.281519 
L 301.655667 108.925345 
L 304.182985 109.248988 
L 307.504591 109.758845 
L 310.901208 110.090283 
L 312.817392 110.310449 
L 318.26298 110.824501 
L 321.977375 111.163422 
L 325.091551 111.443764 
L 330.804924 111.964323 
L 330.980565 111.972162 
L 331.069707 111.980477 
L 337.130138 112.241432 
L 339.499509 112.331579 
L 343.879853 112.599238 
L 346.089614 112.66001 
L 348.610786 112.787437 
L 352.314359 112.812994 
L 354.644037 112.901542 
L 358.386278 112.879471 
L 363.297812 113.025207 
L 364.32 113.007761 
L 364.32 112.529011 
L 364.32 105.418323 
L 364.32 98.313206 
L 364.32 91.157664 
L 364.32 83.929413 
L 364.32 76.619952 
L 364.32 68.906803 
L 356.029102 68.906802 
L 347.471078 68.906801 
L 338.855916 68.9068 
L 330.256466 68.906799 
L 321.697014 68.906798 
L 313.228984 68.906797 
L 304.740956 68.906795 
L 296.155791 68.906794 
L 287.516344 68.906793 
L 278.80833 68.906792 
L 270.10603 68.906791 
L 261.413729 68.90679 
L 252.671432 68.906789 
L 243.840568 68.906788 
L 234.925425 68.906787 
" style="fill:#d5e21a;"/>
   </g>
   <g id="line2d_1">
    <path d="M 7.2 68.906759 
L 8.530762 72.851193 
L 10.045561 77.198044 
L 11.898399 82.336372 
L 14.146513 88.302704 
L 16.778673 94.959135 
L 19.848962 102.227242 
L 23.356109 110.094024 
L 27.420563 118.288499 
L 32.077551 126.909233 
L 37.34807 135.881516 
L 42.993566 144.36883 
L 48.845906 152.146618 
L 54.889662 159.284161 
L 61.154547 165.749462 
L 67.638846 171.601373 
L 74.375272 176.909319 
L 81.38768 181.661586 
L 88.596362 185.896315 
L 95.978461 189.613648 
L 103.482552 192.789874 
L 111.187344 195.57041 
L 119.103695 198.088249 
L 127.161036 200.276252 
L 135.348655 202.065566 
L 143.50599 203.599468 
L 151.596472 204.868529 
L 159.601674 205.936032 
L 167.556879 206.830547 
L 175.546368 207.593641 
L 183.557284 208.232028 
L 191.566771 208.777136 
L 199.604828 209.242249 
L 207.708595 209.639938 
L 215.868073 209.973488 
L 224.027551 210.248328 
L 232.217027 210.479313 
L 240.487926 210.682586 
L 248.873103 210.861146 
L 257.316849 211.008851 
L 265.486326 211.124557 
L 273.571523 211.217266 
L 281.782426 211.293975 
L 289.951903 211.360114 
L 298.218516 211.41911 
L 306.613693 211.472392 
L 315.016013 211.517389 
L 323.371192 211.552959 
L 331.460675 211.578671 
L 339.5473 211.596099 
L 347.928192 211.605098 
L 356.261944 211.605241 
L 364.32 211.596813 
" style="fill:none;stroke:#1f77b4;stroke-linecap:square;stroke-width:1.5;"/>
   </g>
   <g id="line2d_2">
    <path d="M 364.32 68.906803 
L 356.029102 68.906802 
L 347.471078 68.906801 
L 338.855916 68.9068 
L 330.256466 68.906799 
L 321.697014 68.906798 
L 313.228984 68.906797 
L 304.740956 68.906795 
L 296.155791 68.906794 
L 287.516344 68.906793 
L 278.80833 68.906792 
L 270.10603 68.906791 
L 261.413729 68.90679 
L 252.671432 68.906789 
L 243.840568 68.906788 
L 234.925425 68.906787 
L 226.014566 68.906786 
L 217.130849 68.906785 
L 208.184279 68.906784 
L 199.171999 68.906783 
L 190.141148 68.906781 
L 181.060301 68.90678 
L 171.890888 68.906779 
L 162.634337 68.906778 
L 153.359217 68.906777 
L 144.053812 68.906776 
L 134.629701 68.906775 
L 125.113882 68.906774 
L 115.616775 68.906772 
L 106.093528 68.906771 
L 96.50457 68.90677 
L 86.953324 68.906769 
L 77.42122 68.906768 
L 67.884402 68.906767 
L 58.439149 68.906765 
L 49.174028 68.906764 
L 40.207745 68.906763 
L 31.716859 68.906762 
L 23.839649 68.906761 
L 16.987516 68.90676 
L 11.578405 68.90676 
L 7.2 68.906759 
" style="fill:none;stroke:#ff7f0e;stroke-linecap:square;stroke-width:1.5;"/>
   </g>
   <g id="line2d_3">
    <path d="M 364.32 211.596813 
L 364.32 204.128719 
L 364.32 197.074171 
L 364.32 190.10576 
L 364.32 183.114493 
L 364.32 176.11037 
L 364.32 169.12596 
L 364.32 162.136121 
L 364.32 155.12957 
L 364.32 148.093592 
L 364.32 141.016045 
L 364.32 133.907071 
L 364.32 126.778242 
L 364.32 119.649126 
L 364.32 112.529011 
L 364.32 105.418323 
L 364.32 98.313206 
L 364.32 91.157664 
L 364.32 83.929413 
L 364.32 76.619952 
L 364.32 68.906803 
" style="fill:none;stroke:#2ca02c;stroke-linecap:square;stroke-width:1.5;"/>
   </g>
   <g id="legend_1">
    <g id="patch_2">
     <path d="M 14.2 268.312 
L 93.725 268.312 
Q 95.725 268.312 95.725 266.312 
L 95.725 208.5995 
Q 95.725 206.5995 93.725 206.5995 
L 14.2 206.5995 
Q 12.2 206.5995 12.2 208.5995 
L 12.2 266.312 
Q 12.2 268.312 14.2 268.312 
z
" style="fill:#ffffff;opacity:0.8;stroke:#cccccc;stroke-linejoin:miter;"/>
    </g>
    <g id="text_1">
     <!-- Boundary label -->
     <defs>
      <path d="M 19.671875 34.8125 
L 19.671875 8.109375 
L 35.5 8.109375 
Q 43.453125 8.109375 47.28125 11.40625 
Q 51.125 14.703125 51.125 21.484375 
Q 51.125 28.328125 47.28125 31.5625 
Q 43.453125 34.8125 35.5 34.8125 
z
M 19.671875 64.796875 
L 19.671875 42.828125 
L 34.28125 42.828125 
Q 41.5 42.828125 45.03125 45.53125 
Q 48.578125 48.25 48.578125 53.8125 
Q 48.578125 59.328125 45.03125 62.0625 
Q 41.5 64.796875 34.28125 64.796875 
z
M 9.8125 72.90625 
L 35.015625 72.90625 
Q 46.296875 72.90625 52.390625 68.21875 
Q 58.5 63.53125 58.5 54.890625 
Q 58.5 48.1875 55.375 44.234375 
Q 52.25 40.28125 46.1875 39.3125 
Q 53.46875 37.75 57.5 32.78125 
Q 61.53125 27.828125 61.53125 20.40625 
Q 61.53125 10.640625 54.890625 5.3125 
Q 48.25 0 35.984375 0 
L 9.8125 0 
z
" id="DejaVuSans-66"/>
      <path d="M 30.609375 48.390625 
Q 23.390625 48.390625 19.1875 42.75 
Q 14.984375 37.109375 14.984375 27.296875 
Q 14.984375 17.484375 19.15625 11.84375 
Q 23.34375 6.203125 30.609375 6.203125 
Q 37.796875 6.203125 41.984375 11.859375 
Q 46.1875 17.53125 46.1875 27.296875 
Q 46.1875 37.015625 41.984375 42.703125 
Q 37.796875 48.390625 30.609375 48.390625 
z
M 30.609375 56 
Q 42.328125 56 49.015625 48.375 
Q 55.71875 40.765625 55.71875 27.296875 
Q 55.71875 13.875 49.015625 6.21875 
Q 42.328125 -1.421875 30.609375 -1.421875 
Q 18.84375 -1.421875 12.171875 6.21875 
Q 5.515625 13.875 5.515625 27.296875 
Q 5.515625 40.765625 12.171875 48.375 
Q 18.84375 56 30.609375 56 
z
" id="DejaVuSans-111"/>
      <path d="M 8.5 21.578125 
L 8.5 54.6875 
L 17.484375 54.6875 
L 17.484375 21.921875 
Q 17.484375 14.15625 20.5 10.265625 
Q 23.53125 6.390625 29.59375 6.390625 
Q 36.859375 6.390625 41.078125 11.03125 
Q 45.3125 15.671875 45.3125 23.6875 
L 45.3125 54.6875 
L 54.296875 54.6875 
L 54.296875 0 
L 45.3125 0 
L 45.3125 8.40625 
Q 42.046875 3.421875 37.71875 1 
Q 33.40625 -1.421875 27.6875 -1.421875 
Q 18.265625 -1.421875 13.375 4.4375 
Q 8.5 10.296875 8.5 21.578125 
z
M 31.109375 56 
z
" id="DejaVuSans-117"/>
      <path d="M 54.890625 33.015625 
L 54.890625 0 
L 45.90625 0 
L 45.90625 32.71875 
Q 45.90625 40.484375 42.875 44.328125 
Q 39.84375 48.1875 33.796875 48.1875 
Q 26.515625 48.1875 22.3125 43.546875 
Q 18.109375 38.921875 18.109375 30.90625 
L 18.109375 0 
L 9.078125 0 
L 9.078125 54.6875 
L 18.109375 54.6875 
L 18.109375 46.1875 
Q 21.34375 51.125 25.703125 53.5625 
Q 30.078125 56 35.796875 56 
Q 45.21875 56 50.046875 50.171875 
Q 54.890625 44.34375 54.890625 33.015625 
z
" id="DejaVuSans-110"/>
      <path d="M 45.40625 46.390625 
L 45.40625 75.984375 
L 54.390625 75.984375 
L 54.390625 0 
L 45.40625 0 
L 45.40625 8.203125 
Q 42.578125 3.328125 38.25 0.953125 
Q 33.9375 -1.421875 27.875 -1.421875 
Q 17.96875 -1.421875 11.734375 6.484375 
Q 5.515625 14.40625 5.515625 27.296875 
Q 5.515625 40.1875 11.734375 48.09375 
Q 17.96875 56 27.875 56 
Q 33.9375 56 38.25 53.625 
Q 42.578125 51.265625 45.40625 46.390625 
z
M 14.796875 27.296875 
Q 14.796875 17.390625 18.875 11.75 
Q 22.953125 6.109375 30.078125 6.109375 
Q 37.203125 6.109375 41.296875 11.75 
Q 45.40625 17.390625 45.40625 27.296875 
Q 45.40625 37.203125 41.296875 42.84375 
Q 37.203125 48.484375 30.078125 48.484375 
Q 22.953125 48.484375 18.875 42.84375 
Q 14.796875 37.203125 14.796875 27.296875 
z
" id="DejaVuSans-100"/>
      <path d="M 34.28125 27.484375 
Q 23.390625 27.484375 19.1875 25 
Q 14.984375 22.515625 14.984375 16.5 
Q 14.984375 11.71875 18.140625 8.90625 
Q 21.296875 6.109375 26.703125 6.109375 
Q 34.1875 6.109375 38.703125 11.40625 
Q 43.21875 16.703125 43.21875 25.484375 
L 43.21875 27.484375 
z
M 52.203125 31.203125 
L 52.203125 0 
L 43.21875 0 
L 43.21875 8.296875 
Q 40.140625 3.328125 35.546875 0.953125 
Q 30.953125 -1.421875 24.3125 -1.421875 
Q 15.921875 -1.421875 10.953125 3.296875 
Q 6 8.015625 6 15.921875 
Q 6 25.140625 12.171875 29.828125 
Q 18.359375 34.515625 30.609375 34.515625 
L 43.21875 34.515625 
L 43.21875 35.40625 
Q 43.21875 41.609375 39.140625 45 
Q 35.0625 48.390625 27.6875 48.390625 
Q 23 48.390625 18.546875 47.265625 
Q 14.109375 46.140625 10.015625 43.890625 
L 10.015625 52.203125 
Q 14.9375 54.109375 19.578125 55.046875 
Q 24.21875 56 28.609375 56 
Q 40.484375 56 46.34375 49.84375 
Q 52.203125 43.703125 52.203125 31.203125 
z
" id="DejaVuSans-97"/>
      <path d="M 41.109375 46.296875 
Q 39.59375 47.171875 37.8125 47.578125 
Q 36.03125 48 33.890625 48 
Q 26.265625 48 22.1875 43.046875 
Q 18.109375 38.09375 18.109375 28.8125 
L 18.109375 0 
L 9.078125 0 
L 9.078125 54.6875 
L 18.109375 54.6875 
L 18.109375 46.1875 
Q 20.953125 51.171875 25.484375 53.578125 
Q 30.03125 56 36.53125 56 
Q 37.453125 56 38.578125 55.875 
Q 39.703125 55.765625 41.0625 55.515625 
z
" id="DejaVuSans-114"/>
      <path d="M 32.171875 -5.078125 
Q 28.375 -14.84375 24.75 -17.8125 
Q 21.140625 -20.796875 15.09375 -20.796875 
L 7.90625 -20.796875 
L 7.90625 -13.28125 
L 13.1875 -13.28125 
Q 16.890625 -13.28125 18.9375 -11.515625 
Q 21 -9.765625 23.484375 -3.21875 
L 25.09375 0.875 
L 2.984375 54.6875 
L 12.5 54.6875 
L 29.59375 11.921875 
L 46.6875 54.6875 
L 56.203125 54.6875 
z
" id="DejaVuSans-121"/>
      <path id="DejaVuSans-32"/>
      <path d="M 9.421875 75.984375 
L 18.40625 75.984375 
L 18.40625 0 
L 9.421875 0 
z
" id="DejaVuSans-108"/>
      <path d="M 48.6875 27.296875 
Q 48.6875 37.203125 44.609375 42.84375 
Q 40.53125 48.484375 33.40625 48.484375 
Q 26.265625 48.484375 22.1875 42.84375 
Q 18.109375 37.203125 18.109375 27.296875 
Q 18.109375 17.390625 22.1875 11.75 
Q 26.265625 6.109375 33.40625 6.109375 
Q 40.53125 6.109375 44.609375 11.75 
Q 48.6875 17.390625 48.6875 27.296875 
z
M 18.109375 46.390625 
Q 20.953125 51.265625 25.265625 53.625 
Q 29.59375 56 35.59375 56 
Q 45.5625 56 51.78125 48.09375 
Q 58.015625 40.1875 58.015625 27.296875 
Q 58.015625 14.40625 51.78125 6.484375 
Q 45.5625 -1.421875 35.59375 -1.421875 
Q 29.59375 -1.421875 25.265625 0.953125 
Q 20.953125 3.328125 18.109375 8.203125 
L 18.109375 0 
L 9.078125 0 
L 9.078125 75.984375 
L 18.109375 75.984375 
z
" id="DejaVuSans-98"/>
      <path d="M 56.203125 29.59375 
L 56.203125 25.203125 
L 14.890625 25.203125 
Q 15.484375 15.921875 20.484375 11.0625 
Q 25.484375 6.203125 34.421875 6.203125 
Q 39.59375 6.203125 44.453125 7.46875 
Q 49.3125 8.734375 54.109375 11.28125 
L 54.109375 2.78125 
Q 49.265625 0.734375 44.1875 -0.34375 
Q 39.109375 -1.421875 33.890625 -1.421875 
Q 20.796875 -1.421875 13.15625 6.1875 
Q 5.515625 13.8125 5.515625 26.8125 
Q 5.515625 40.234375 12.765625 48.109375 
Q 20.015625 56 32.328125 56 
Q 43.359375 56 49.78125 48.890625 
Q 56.203125 41.796875 56.203125 29.59375 
z
M 47.21875 32.234375 
Q 47.125 39.59375 43.09375 43.984375 
Q 39.0625 48.390625 32.421875 48.390625 
Q 24.90625 48.390625 20.390625 44.140625 
Q 15.875 39.890625 15.1875 32.171875 
z
" id="DejaVuSans-101"/>
     </defs>
     <g transform="translate(16.2 218.197937)scale(0.1 -0.1)">
      <use xlink:href="#DejaVuSans-66"/>
      <use x="68.603516" xlink:href="#DejaVuSans-111"/>
      <use x="129.785156" xlink:href="#DejaVuSans-117"/>
      <use x="193.164062" xlink:href="#DejaVuSans-110"/>
      <use x="256.542969" xlink:href="#DejaVuSans-100"/>
      <use x="320.019531" xlink:href="#DejaVuSans-97"/>
      <use x="381.298828" xlink:href="#DejaVuSans-114"/>
      <use x="422.412109" xlink:href="#DejaVuSans-121"/>
      <use x="481.591797" xlink:href="#DejaVuSans-32"/>
      <use x="513.378906" xlink:href="#DejaVuSans-108"/>
      <use x="541.162109" xlink:href="#DejaVuSans-97"/>
      <use x="602.441406" xlink:href="#DejaVuSans-98"/>
      <use x="665.917969" xlink:href="#DejaVuSans-101"/>
      <use x="727.441406" xlink:href="#DejaVuSans-108"/>
     </g>
    </g>
    <g id="line2d_4">
     <path d="M 36.78125 229.376062 
L 56.78125 229.376062 
" style="fill:none;stroke:#1f77b4;stroke-linecap:square;stroke-width:1.5;"/>
    </g>
    <g id="line2d_5"/>
    <g id="text_2">
     <!-- 1 -->
     <defs>
      <path d="M 12.40625 8.296875 
L 28.515625 8.296875 
L 28.515625 63.921875 
L 10.984375 60.40625 
L 10.984375 69.390625 
L 28.421875 72.90625 
L 38.28125 72.90625 
L 38.28125 8.296875 
L 54.390625 8.296875 
L 54.390625 0 
L 12.40625 0 
z
" id="DejaVuSans-49"/>
     </defs>
     <g transform="translate(64.78125 232.876062)scale(0.1 -0.1)">
      <use xlink:href="#DejaVuSans-49"/>
     </g>
    </g>
    <g id="line2d_6">
     <path d="M 36.78125 244.054187 
L 56.78125 244.054187 
" style="fill:none;stroke:#ff7f0e;stroke-linecap:square;stroke-width:1.5;"/>
    </g>
    <g id="line2d_7"/>
    <g id="text_3">
     <!-- 2 -->
     <defs>
      <path d="M 19.1875 8.296875 
L 53.609375 8.296875 
L 53.609375 0 
L 7.328125 0 
L 7.328125 8.296875 
Q 12.9375 14.109375 22.625 23.890625 
Q 32.328125 33.6875 34.8125 36.53125 
Q 39.546875 41.84375 41.421875 45.53125 
Q 43.3125 49.21875 43.3125 52.78125 
Q 43.3125 58.59375 39.234375 62.25 
Q 35.15625 65.921875 28.609375 65.921875 
Q 23.96875 65.921875 18.8125 64.3125 
Q 13.671875 62.703125 7.8125 59.421875 
L 7.8125 69.390625 
Q 13.765625 71.78125 18.9375 73 
Q 24.125 74.21875 28.421875 74.21875 
Q 39.75 74.21875 46.484375 68.546875 
Q 53.21875 62.890625 53.21875 53.421875 
Q 53.21875 48.921875 51.53125 44.890625 
Q 49.859375 40.875 45.40625 35.40625 
Q 44.1875 33.984375 37.640625 27.21875 
Q 31.109375 20.453125 19.1875 8.296875 
z
" id="DejaVuSans-50"/>
     </defs>
     <g transform="translate(64.78125 247.554187)scale(0.1 -0.1)">
      <use xlink:href="#DejaVuSans-50"/>
     </g>
    </g>
    <g id="line2d_8">
     <path d="M 36.78125 258.732312 
L 56.78125 258.732312 
" style="fill:none;stroke:#2ca02c;stroke-linecap:square;stroke-width:1.5;"/>
    </g>
    <g id="line2d_9"/>
    <g id="text_4">
     <!-- 3 -->
     <defs>
      <path d="M 40.578125 39.3125 
Q 47.65625 37.796875 51.625 33 
Q 55.609375 28.21875 55.609375 21.1875 
Q 55.609375 10.40625 48.1875 4.484375 
Q 40.765625 -1.421875 27.09375 -1.421875 
Q 22.515625 -1.421875 17.65625 -0.515625 
Q 12.796875 0.390625 7.625 2.203125 
L 7.625 11.71875 
Q 11.71875 9.328125 16.59375 8.109375 
Q 21.484375 6.890625 26.8125 6.890625 
Q 36.078125 6.890625 40.9375 10.546875 
Q 45.796875 14.203125 45.796875 21.1875 
Q 45.796875 27.640625 41.28125 31.265625 
Q 36.765625 34.90625 28.71875 34.90625 
L 20.21875 34.90625 
L 20.21875 43.015625 
L 29.109375 43.015625 
Q 36.375 43.015625 40.234375 45.921875 
Q 44.09375 48.828125 44.09375 54.296875 
Q 44.09375 59.90625 40.109375 62.90625 
Q 36.140625 65.921875 28.71875 65.921875 
Q 24.65625 65.921875 20.015625 65.03125 
Q 15.375 64.15625 9.8125 62.3125 
L 9.8125 71.09375 
Q 15.4375 72.65625 20.34375 73.4375 
Q 25.25 74.21875 29.59375 74.21875 
Q 40.828125 74.21875 47.359375 69.109375 
Q 53.90625 64.015625 53.90625 55.328125 
Q 53.90625 49.265625 50.4375 45.09375 
Q 46.96875 40.921875 40.578125 39.3125 
z
" id="DejaVuSans-51"/>
     </defs>
     <g transform="translate(64.78125 262.232312)scale(0.1 -0.1)">
      <use xlink:href="#DejaVuSans-51"/>
     </g>
    </g>
   </g>
  </g>
 </g>
 <defs>
  <clipPath id="p37d174a99d">
   <rect height="266.112" width="357.12" x="7.2" y="7.2"/>
  </clipPath>
 </defs>
</svg>
