<?xml version="1.0" encoding="utf-8" standalone="no"?>
<!DOCTYPE svg PUBLIC "-//W3C//DTD SVG 1.1//EN"
  "http://www.w3.org/Graphics/SVG/1.1/DTD/svg11.dtd">
<!-- Created with matplotlib (https://matplotlib.org/) -->
<svg height="280.512pt" version="1.1" viewBox="0 0 371.52 280.512" width="371.52pt" xmlns="http://www.w3.org/2000/svg" xmlns:xlink="http://www.w3.org/1999/xlink">
 <defs>
  <style type="text/css">
*{stroke-linecap:butt;stroke-linejoin:round;}
  </style>
 </defs>
 <g id="figure_1">
  <g id="patch_1">
   <path d="M 0 280.512 
L 371.52 280.512 
L 371.52 0 
L 0 0 
z
" style="fill:#ffffff;"/>
  </g>
  <g id="axes_1">
   <g id="PathCollection_1">
    <path clip-path="url(#p7adc520388)" d="M 355.619858 86.688 
L 355.690701 89.896119 
L 355.577869 93.815442 
L 355.60341 102.992255 
L 355.597756 103.120979 
L 355.535015 105.71216 
L 355.312476 113.636854 
L 355.312476 113.973064 
L 354.795309 125.475197 
L 354.795309 125.935678 
L 354.572983 129.302228 
L 353.818689 138.068596 
L 353.474951 139.807508 
L 352.224175 150.183845 
L 350.445558 156.512897 
L 349.572674 161.364569 
L 346.827813 166.943917 
L 343.727823 171.992461 
L 336.618168 176.605037 
L 333.477405 178.820481 
L 324.774632 180.733231 
L 319.396742 182.200228 
L 313.915548 182.899063 
L 311.845056 182.899063 
L 301.526312 184.057856 
L 298.980982 184.057856 
L 290.440588 184.658523 
L 282.556983 185.324734 
L 280.165665 185.324734 
L 277.824873 185.324734 
L 267.534801 185.706107 
L 263.694185 185.706107 
L 255.201749 185.918326 
L 248.262236 186.241458 
L 244.011451 186.241458 
L 239.760667 186.241458 
L 231.742312 186.424722 
L 227.920787 186.424722 
L 220.065989 186.483656 
L 215.458318 186.483656 
L 208.452846 186.587288 
L 204.405058 186.587288 
L 195.736469 186.622119 
L 191.231571 186.622119 
L 184.364627 186.626123 
L 179.912149 186.626123 
L 172.961202 186.631893 
L 168.91191 186.631893 
L 162.250026 186.507812 
L 155.544087 186.549278 
L 151.439283 186.549278 
L 147.334505 186.549278 
L 139.3531 186.430217 
L 135.950144 186.430217 
L 127.221175 186.211679 
L 123.475562 186.211679 
L 115.671389 185.995752 
L 112.403001 185.995752 
L 104.170208 185.707457 
L 101.212427 185.707457 
L 93.120017 185.307807 
L 90.327333 185.307807 
L 82.904514 184.769062 
L 73.278215 184.359102 
L 72.196449 184.359102 
L 71.114683 184.359102 
L 60.637346 183.12084 
L 57.427375 182.953986 
L 49.61203 181.286995 
L 45.31392 180.697828 
L 41.020786 179.746645 
L 34.149128 176.500196 
L 29.012185 173.316357 
L 23.301088 164.824176 
L 23.005081 164.288606 
L 22.930968 163.886916 
L 19.965018 153.795723 
L 19.051608 146.430653 
L 18.206998 142.099664 
L 17.776965 139.383518 
L 17.121581 129.386532 
L 16.880484 127.105415 
L 16.315916 116.075379 
L 16.292167 115.738734 
L 16.11647 110.820686 
L 15.9417 104.806819 
L 15.9417 104.371308 
L 15.905616 102.303218 
L 15.892263 94.460503 
L 15.816425 92.085438 
L 15.941723 86.688 
L 7.2 86.688 
L 7.2 99.160202 
L 7.2 111.632403 
L 7.2 123.789911 
L 7.2 135.892708 
L 7.2 147.759448 
L 7.2 159.49334 
L 7.2 171.095098 
L 7.2 182.459727 
L 7.2 193.824 
L 18.138943 193.824 
L 29.077885 193.824 
L 40.016828 193.824 
L 50.955414 193.824 
L 61.894356 193.824 
L 72.833299 193.824 
L 83.772242 193.824 
L 94.711185 193.824 
L 105.984392 193.824 
L 117.322237 193.824 
L 128.660083 193.824 
L 139.997929 193.824 
L 151.335668 193.824 
L 162.673478 193.824 
L 174.011252 193.824 
L 185.349076 193.824 
L 197.071347 193.824 
L 208.808061 193.824 
L 220.544774 193.824 
L 232.281308 193.824 
L 244.018057 193.824 
L 255.754806 193.824 
L 267.491555 193.824 
L 279.370794 193.824 
L 291.506446 193.824 
L 303.642098 193.824 
L 315.777393 193.824 
L 327.913044 193.824 
L 340.048696 193.824 
L 352.184348 193.824 
L 364.32 193.824 
L 364.32 181.283731 
L 364.32 168.74382 
L 364.32 156.559956 
L 364.32 144.431804 
L 364.32 132.574349 
L 364.32 120.858456 
L 364.32 109.295053 
L 364.32 97.991527 
L 364.32 86.688 
" style="fill:#48186a;"/>
   </g>
   <g id="PathCollection_2">
    <path clip-path="url(#p7adc520388)" d="M 345.91907 86.688 
L 345.973675 91.761406 
L 345.843706 95.545448 
L 345.624378 105.565232 
L 345.597823 106.169812 
L 345.593335 106.355165 
L 344.801536 116.582447 
L 344.800549 116.60492 
L 344.761512 116.928458 
L 343.619781 125.912525 
L 343.47265 126.545159 
L 342.088984 134.462676 
L 341.107109 137.678953 
L 339.577032 144.163839 
L 336.900292 149.968283 
L 335.266566 153.454369 
L 330.364352 159.624202 
L 325.960856 163.474321 
L 316.693516 168.529348 
L 316.304354 168.649077 
L 307.328259 171.655858 
L 304.506431 172.003357 
L 296.403499 173.804964 
L 291.380729 174.356428 
L 284.651755 175.50987 
L 279.572417 175.858715 
L 273.150729 176.306643 
L 267.458605 176.78862 
L 263.547021 177.196689 
L 255.410043 177.541458 
L 252.187155 177.777883 
L 244.331272 178.08128 
L 240.769958 178.280393 
L 232.131809 178.409866 
L 227.79113 178.582996 
L 220.0213 178.757327 
L 217.164637 178.8236 
L 208.966613 178.856619 
L 205.696637 178.909732 
L 196.218514 179.018714 
L 193.195062 179.029565 
L 184.831426 179.052201 
L 181.932043 179.052297 
L 173.758824 178.991454 
L 170.261595 178.938111 
L 162.533517 178.934891 
L 160.046867 178.888879 
L 151.973271 178.790387 
L 148.471195 178.682125 
L 140.192641 178.459553 
L 135.648162 178.269296 
L 128.038568 178.119497 
L 123.581576 177.848444 
L 116.783052 177.602799 
L 111.77114 177.255447 
L 106.428662 177.043277 
L 100.876824 176.497051 
L 95.619194 176.230176 
L 89.328489 175.441917 
L 85.099675 175.148817 
L 77.779587 174.013681 
L 74.931153 173.749194 
L 65.324425 171.862389 
L 64.743866 171.800634 
L 61.774514 170.914887 
L 55.229438 168.759243 
L 53.798041 167.932661 
L 47.010071 164.552811 
L 41.485608 160.045972 
L 41.076999 159.671235 
L 39.779001 157.895834 
L 35.765737 152.627143 
L 35.155149 151.269778 
L 32.668417 145.524065 
L 32.196535 144.463325 
L 32.027527 143.89285 
L 29.836585 136.092003 
L 29.367526 133.202155 
L 28.213465 127.82664 
L 27.488083 121.729877 
L 26.342294 112.62042 
L 26.20373 110.65622 
L 26.170956 109.73882 
L 25.660869 100.276265 
L 25.571005 98.109445 
L 25.559885 97.937396 
L 25.547644 97.608235 
L 25.641196 86.688 
L 19.269942 86.688 
L 15.941723 86.688 
L 15.816425 92.085438 
L 15.892263 94.460503 
L 15.905616 102.303218 
L 15.9417 104.371308 
L 15.9417 104.806819 
L 16.11647 110.820686 
L 16.292167 115.738734 
L 16.315916 116.075379 
L 16.880484 127.105415 
L 17.121581 129.386532 
L 17.776965 139.383518 
L 18.206998 142.099664 
L 19.051608 146.430653 
L 19.965018 153.795723 
L 22.930968 163.886916 
L 23.005081 164.288606 
L 23.301088 164.824176 
L 29.012185 173.316357 
L 34.149128 176.500196 
L 41.020786 179.746645 
L 45.31392 180.697828 
L 49.61203 181.286995 
L 57.427375 182.953986 
L 60.637346 183.12084 
L 71.114683 184.359102 
L 72.196449 184.359102 
L 73.278215 184.359102 
L 82.904514 184.769062 
L 90.327333 185.307807 
L 93.120017 185.307807 
L 101.212427 185.707457 
L 104.170208 185.707457 
L 112.403001 185.995752 
L 115.671389 185.995752 
L 123.475562 186.211679 
L 127.221175 186.211679 
L 135.950144 186.430217 
L 139.3531 186.430217 
L 147.334505 186.549278 
L 151.439283 186.549278 
L 155.544087 186.549278 
L 162.250026 186.507812 
L 168.91191 186.631893 
L 172.961202 186.631893 
L 179.912149 186.626123 
L 184.364627 186.626123 
L 191.231571 186.622119 
L 195.736469 186.622119 
L 204.405058 186.587288 
L 208.452846 186.587288 
L 215.458318 186.483656 
L 220.065989 186.483656 
L 227.920787 186.424722 
L 231.742312 186.424722 
L 239.760667 186.241458 
L 244.011451 186.241458 
L 248.262236 186.241458 
L 255.201749 185.918326 
L 263.694185 185.706107 
L 267.534801 185.706107 
L 277.824873 185.324734 
L 280.165665 185.324734 
L 282.556983 185.324734 
L 290.440588 184.658523 
L 298.980982 184.057856 
L 301.526312 184.057856 
L 311.845056 182.899063 
L 313.915548 182.899063 
L 319.396742 182.200228 
L 324.774632 180.733231 
L 333.477405 178.820481 
L 336.618168 176.605037 
L 343.727823 171.992461 
L 346.827813 166.943917 
L 349.572674 161.364569 
L 350.445558 156.512897 
L 352.224175 150.183845 
L 353.474951 139.807508 
L 353.818689 138.068596 
L 354.572983 129.302228 
L 354.795309 125.935678 
L 354.795309 125.475197 
L 355.312476 113.973064 
L 355.312476 113.636854 
L 355.535015 105.71216 
L 355.597756 103.120979 
L 355.60341 102.992255 
L 355.577869 93.815442 
L 355.690701 89.896119 
L 355.619858 86.688 
L 353.322132 86.688 
" style="fill:#424086;"/>
   </g>
   <g id="PathCollection_3">
    <path clip-path="url(#p7adc520388)" d="M 334.844542 86.688 
L 334.834595 90.891859 
L 334.465764 97.277977 
L 334.162012 102.542593 
L 333.589583 109.547941 
L 333.442596 110.855586 
L 333.399316 111.399008 
L 333.090498 113.425195 
L 331.668661 120.545981 
L 330.791435 123.425179 
L 329.084299 129.871423 
L 326.422162 135.878267 
L 325.33433 138.700603 
L 323.22894 142.175858 
L 319.152402 147.52736 
L 313.402831 152.527935 
L 306.638043 156.884177 
L 303.244177 158.468691 
L 300.57573 159.25547 
L 292.638914 161.965925 
L 287.849344 163.475356 
L 280.880447 164.663019 
L 276.437154 165.577441 
L 267.844729 166.805017 
L 266.496639 167.038299 
L 257.155194 167.982566 
L 255.76064 168.175827 
L 245.272056 169.024239 
L 244.576937 169.090947 
L 233.412748 169.796877 
L 233.278499 169.807253 
L 220.795351 170.302324 
L 220.623285 170.311601 
L 210.293931 170.48972 
L 204.850012 170.667727 
L 200.271285 170.742097 
L 199.718116 170.748457 
L 188.649848 170.788181 
L 187.954207 170.790063 
L 177.114767 170.790423 
L 176.869274 170.787705 
L 176.853192 170.787647 
L 176.59053 170.786353 
L 165.499889 170.61719 
L 164.868562 170.616927 
L 157.15459 170.474192 
L 153.127635 170.338534 
L 152.739007 170.31619 
L 142.206172 169.94977 
L 141.468435 169.900087 
L 131.006498 169.342996 
L 129.279852 169.182436 
L 119.597926 168.497709 
L 116.421678 168.13537 
L 108.685595 167.313977 
L 102.1492 166.717727 
L 96.910885 165.746583 
L 90.530237 164.827747 
L 83.561121 163.159277 
L 80.002062 162.474633 
L 70.030321 159.324724 
L 69.983688 159.313227 
L 69.900009 159.278501 
L 60.330853 154.066441 
L 57.364203 152.264252 
L 53.905195 148.932417 
L 50.019556 144.817325 
L 46.002459 138.042899 
L 44.331929 135.039442 
L 42.770771 130.961573 
L 40.7023 123.83356 
L 38.655548 114.417697 
L 38.447452 113.472211 
L 38.375736 113.105384 
L 37.430038 105.441763 
L 37.196097 103.461288 
L 37.192203 103.36738 
L 37.16003 102.869604 
L 36.816151 94.995093 
L 36.744263 93.609653 
L 36.751182 86.688 
L 31.339884 86.688 
L 25.641196 86.688 
L 25.547644 97.608235 
L 25.559885 97.937396 
L 25.571005 98.109445 
L 25.660869 100.276265 
L 26.170956 109.73882 
L 26.20373 110.65622 
L 26.342294 112.62042 
L 27.488083 121.729877 
L 28.213465 127.82664 
L 29.367526 133.202155 
L 29.836585 136.092003 
L 32.027527 143.89285 
L 32.196535 144.463325 
L 32.668417 145.524065 
L 35.155149 151.269778 
L 35.765737 152.627143 
L 39.779001 157.895834 
L 41.076999 159.671235 
L 41.485608 160.045972 
L 47.010071 164.552811 
L 53.798041 167.932661 
L 55.229438 168.759243 
L 61.774514 170.914887 
L 64.743866 171.800634 
L 65.324425 171.862389 
L 74.931153 173.749194 
L 77.779587 174.013681 
L 85.099675 175.148817 
L 89.328489 175.441917 
L 95.619194 176.230176 
L 100.876824 176.497051 
L 106.428662 177.043277 
L 111.77114 177.255447 
L 116.783052 177.602799 
L 123.581576 177.848444 
L 128.038568 178.119497 
L 135.648162 178.269296 
L 140.192641 178.459553 
L 148.471195 178.682125 
L 151.973271 178.790387 
L 160.046867 178.888879 
L 162.533517 178.934891 
L 170.261595 178.938111 
L 173.758824 178.991454 
L 181.932043 179.052297 
L 184.831426 179.052201 
L 193.195062 179.029565 
L 196.218514 179.018714 
L 205.696637 178.909732 
L 208.966613 178.856619 
L 217.164637 178.8236 
L 220.0213 178.757327 
L 227.79113 178.582996 
L 232.131809 178.409866 
L 240.769958 178.280393 
L 244.331272 178.08128 
L 252.187155 177.777883 
L 255.410043 177.541458 
L 263.547021 177.196689 
L 267.458605 176.78862 
L 273.150729 176.306643 
L 279.572417 175.858715 
L 284.651755 175.50987 
L 291.380729 174.356428 
L 296.403499 173.804964 
L 304.506431 172.003357 
L 307.328259 171.655858 
L 316.304354 168.649077 
L 316.693516 168.529348 
L 325.960856 163.474321 
L 330.364352 159.624202 
L 335.266566 153.454369 
L 336.900292 149.968283 
L 339.577032 144.163839 
L 341.107109 137.678953 
L 342.088984 134.462676 
L 343.47265 126.545159 
L 343.619781 125.912525 
L 344.761512 116.928458 
L 344.800549 116.60492 
L 344.801536 116.582447 
L 345.593335 106.355165 
L 345.597823 106.169812 
L 345.624378 105.565232 
L 345.843706 95.545448 
L 345.973675 91.761406 
L 345.91907 86.688 
L 342.324265 86.688 
" style="fill:#33638d;"/>
   </g>
   <g id="PathCollection_4">
    <path clip-path="url(#p7adc520388)" d="M 321.603169 86.688 
L 321.464244 93.382026 
L 321.3741 95.869263 
L 320.166519 105.985395 
L 319.960448 107.407384 
L 319.700394 108.776969 
L 316.679296 118.80625 
L 315.717657 121.794758 
L 310.296347 132.037926 
L 310.113904 132.370142 
L 310.034569 132.467403 
L 300.87781 141.58864 
L 297.607413 143.881899 
L 291.828988 147.032978 
L 285.865802 149.906173 
L 281.356737 151.291393 
L 274.436896 153.321686 
L 270.716926 154.448525 
L 261.313264 156.419618 
L 259.632685 156.710436 
L 259.3555 156.738455 
L 255.02446 157.338661 
L 248.4417 158.183069 
L 246.475217 158.462261 
L 238.5913 159.218846 
L 236.627253 159.343036 
L 225.821364 160.178184 
L 223.282571 160.27887 
L 211.357307 160.921833 
L 209.572801 160.952605 
L 207.694611 161.014019 
L 196.318237 161.186727 
L 193.207991 161.208715 
L 184.405829 161.24803 
L 181.448765 161.215301 
L 173.701351 161.187119 
L 172.098833 161.179226 
L 164.681959 160.839849 
L 156.285474 160.731626 
L 155.425076 160.702641 
L 146.664445 160.19897 
L 144.948944 160.139291 
L 134.416505 159.429983 
L 133.72295 159.393052 
L 128.218687 158.881216 
L 122.129136 158.159132 
L 121.08132 157.988129 
L 110.745588 156.399581 
L 107.093298 155.60257 
L 98.817552 154.006531 
L 94.802759 152.739096 
L 87.823756 150.451142 
L 84.548794 149.455731 
L 80.017155 147.446119 
L 74.461454 144.280863 
L 66.456272 137.834732 
L 65.054141 136.744641 
L 64.661901 136.321169 
L 57.492609 125.738354 
L 57.002208 124.856762 
L 56.713806 124.104425 
L 56.143163 122.4074 
L 52.999815 113.059821 
L 51.861986 107.651217 
L 50.947132 103.163673 
L 50.182241 96.085018 
L 49.906902 92.232439 
L 49.872541 86.688 
L 43.409468 86.688 
L 36.751182 86.688 
L 36.744263 93.609653 
L 36.816151 94.995093 
L 37.16003 102.869604 
L 37.192203 103.36738 
L 37.196097 103.461288 
L 37.430038 105.441763 
L 38.375736 113.105384 
L 38.447452 113.472211 
L 38.655548 114.417697 
L 40.7023 123.83356 
L 42.770771 130.961573 
L 44.331929 135.039442 
L 46.002459 138.042899 
L 50.019556 144.817325 
L 53.905195 148.932417 
L 57.364203 152.264252 
L 60.330853 154.066441 
L 69.900009 159.278501 
L 69.983688 159.313227 
L 70.030321 159.324724 
L 80.002062 162.474633 
L 83.561121 163.159277 
L 90.530237 164.827747 
L 96.910885 165.746583 
L 102.1492 166.717727 
L 108.685595 167.313977 
L 116.421678 168.13537 
L 119.597926 168.497709 
L 129.279852 169.182436 
L 131.006498 169.342996 
L 141.468435 169.900087 
L 142.206172 169.94977 
L 152.739007 170.31619 
L 153.127635 170.338534 
L 157.15459 170.474192 
L 164.868562 170.616927 
L 165.499889 170.61719 
L 176.59053 170.786353 
L 176.853192 170.787647 
L 176.869274 170.787705 
L 177.114767 170.790423 
L 187.954207 170.790063 
L 188.649848 170.788181 
L 199.718116 170.748457 
L 200.271285 170.742097 
L 204.850012 170.667727 
L 210.293931 170.48972 
L 220.623285 170.311601 
L 220.795351 170.302324 
L 233.278499 169.807253 
L 233.412748 169.796877 
L 244.576937 169.090947 
L 245.272056 169.024239 
L 255.76064 168.175827 
L 257.155194 167.982566 
L 266.496639 167.038299 
L 267.844729 166.805017 
L 276.437154 165.577441 
L 280.880447 164.663019 
L 287.849344 163.475356 
L 292.638914 161.965925 
L 300.57573 159.25547 
L 303.244177 158.468691 
L 306.638043 156.884177 
L 313.402831 152.527935 
L 319.152402 147.52736 
L 323.22894 142.175858 
L 325.33433 138.700603 
L 326.422162 135.878267 
L 329.084299 129.871423 
L 330.791435 123.425179 
L 331.668661 120.545981 
L 333.090498 113.425195 
L 333.399316 111.399008 
L 333.442596 110.855586 
L 333.589583 109.547941 
L 334.162012 102.542593 
L 334.465764 97.277977 
L 334.834595 90.891859 
L 334.844542 86.688 
L 331.326397 86.688 
" style="fill:#26828e;"/>
   </g>
   <g id="PathCollection_5">
    <path clip-path="url(#p7adc520388)" d="M 305.340445 86.688 
L 304.941536 93.525759 
L 304.598921 97.390548 
L 303.132883 103.999421 
L 301.87338 108.50691 
L 299.060717 114.802989 
L 297.004797 118.74186 
L 295.062196 121.39429 
L 290.620209 126.68531 
L 286.028499 130.556346 
L 281.731829 133.764056 
L 277.249931 136.244569 
L 270.548016 138.985501 
L 265.524204 141.049794 
L 263.236535 141.954846 
L 248.849355 145.530086 
L 248.233363 145.691163 
L 246.344916 146.04173 
L 233.135582 147.828976 
L 229.774473 148.110157 
L 218.089632 149.257497 
L 214.268584 149.440859 
L 204.165576 149.9759 
L 199.67913 150.116345 
L 190.343017 150.267597 
L 186.004296 150.288785 
L 176.080532 150.256173 
L 173.0915 150.147337 
L 170.146653 150.144861 
L 158.709747 149.630576 
L 156.356 149.456517 
L 154.209921 149.37565 
L 142.172421 148.283968 
L 140.419232 148.128632 
L 129.3275 146.762422 
L 128.328938 146.603849 
L 128.084482 146.55132 
L 117.642724 144.297112 
L 114.041075 143.264025 
L 107.675185 141.532824 
L 101.0167 139.044951 
L 98.226207 138.097792 
L 92.065863 135.122768 
L 89.055508 133.272136 
L 86.099913 130.847088 
L 80.694087 126.500222 
L 77.748804 123.313897 
L 73.704233 117.288531 
L 70.774264 111.532071 
L 68.009747 103.031843 
L 67.218538 99.802956 
L 65.879479 88.922608 
L 65.76314 86.688 
L 55.47941 86.688 
L 49.872541 86.688 
L 49.906902 92.232439 
L 50.182241 96.085018 
L 50.947132 103.163673 
L 51.861986 107.651217 
L 52.999815 113.059821 
L 56.143163 122.4074 
L 56.713806 124.104425 
L 57.002208 124.856762 
L 57.492609 125.738354 
L 64.661901 136.321169 
L 65.054141 136.744641 
L 66.456272 137.834732 
L 74.461454 144.280863 
L 80.017155 147.446119 
L 84.548794 149.455731 
L 87.823756 150.451142 
L 94.802759 152.739096 
L 98.817552 154.006531 
L 107.093298 155.60257 
L 110.745588 156.399581 
L 121.08132 157.988129 
L 122.129136 158.159132 
L 128.218687 158.881216 
L 133.72295 159.393052 
L 134.416505 159.429983 
L 144.948944 160.139291 
L 146.664445 160.19897 
L 155.425076 160.702641 
L 156.285474 160.731626 
L 164.681959 160.839849 
L 172.098833 161.179226 
L 173.701351 161.187119 
L 181.448765 161.215301 
L 184.405829 161.24803 
L 193.207991 161.208715 
L 196.318237 161.186727 
L 207.694611 161.014019 
L 209.572801 160.952605 
L 211.357307 160.921833 
L 223.282571 160.27887 
L 225.821364 160.178184 
L 236.627253 159.343036 
L 238.5913 159.218846 
L 246.475217 158.462261 
L 248.4417 158.183069 
L 255.02446 157.338661 
L 259.3555 156.738455 
L 259.632685 156.710436 
L 261.313264 156.419618 
L 270.716926 154.448525 
L 274.436896 153.321686 
L 281.356737 151.291393 
L 285.865802 149.906173 
L 291.828988 147.032978 
L 297.607413 143.881899 
L 300.87781 141.58864 
L 310.034569 132.467403 
L 310.113904 132.370142 
L 310.296347 132.037926 
L 315.717657 121.794758 
L 316.679296 118.80625 
L 319.700394 108.776969 
L 319.960448 107.407384 
L 320.166519 105.985395 
L 321.3741 95.869263 
L 321.464244 93.382026 
L 321.603169 86.688 
L 320.328887 86.688 
L 309.33102 86.688 
" style="fill:#1fa088;"/>
   </g>
   <g id="PathCollection_6">
    <path clip-path="url(#p7adc520388)" d="M 284.072246 86.688 
L 283.340833 91.783987 
L 282.217055 98.057436 
L 280.894997 101.448142 
L 276.875036 109.543431 
L 276.033816 110.681719 
L 274.678546 112.110296 
L 269.701 117.049193 
L 265.007064 120.891426 
L 261.613611 122.932984 
L 259.234994 123.987581 
L 251.93135 127.341298 
L 244.946873 129.673078 
L 241.553611 130.799554 
L 234.389742 132.671965 
L 232.005033 133.075393 
L 221.790924 134.905653 
L 221.022217 134.983444 
L 209.984102 136.044127 
L 207.078437 136.229514 
L 196.403811 136.824034 
L 193.347813 136.898404 
L 182.540251 136.989898 
L 179.312492 136.933099 
L 167.08117 136.529612 
L 164.680937 136.394855 
L 150.612855 135.113906 
L 150.469414 135.099587 
L 149.264259 134.911218 
L 136.65409 132.640219 
L 135.323931 132.266364 
L 132.882355 131.567727 
L 123.269257 128.672879 
L 114.956494 125.388712 
L 112.895883 124.603747 
L 110.439905 123.400576 
L 103.602538 118.424587 
L 100.051683 115.656786 
L 95.3997 110.561024 
L 92.851303 106.535194 
L 89.444495 98.616741 
L 88.982911 97.435882 
L 88.9046 96.830956 
L 87.683887 86.688 
L 79.619293 86.688 
L 67.549352 86.688 
L 65.76314 86.688 
L 65.879479 88.922608 
L 67.218538 99.802956 
L 68.009747 103.031843 
L 70.774264 111.532071 
L 73.704233 117.288531 
L 77.748804 123.313897 
L 80.694087 126.500222 
L 86.099913 130.847088 
L 89.055508 133.272136 
L 92.065863 135.122768 
L 98.226207 138.097792 
L 101.0167 139.044951 
L 107.675185 141.532824 
L 114.041075 143.264025 
L 117.642724 144.297112 
L 128.084482 146.55132 
L 128.328938 146.603849 
L 129.3275 146.762422 
L 140.419232 148.128632 
L 142.172421 148.283968 
L 154.209921 149.37565 
L 156.356 149.456517 
L 158.709747 149.630576 
L 170.146653 150.144861 
L 173.0915 150.147337 
L 176.080532 150.256173 
L 186.004296 150.288785 
L 190.343017 150.267597 
L 199.67913 150.116345 
L 204.165576 149.9759 
L 214.268584 149.440859 
L 218.089632 149.257497 
L 229.774473 148.110157 
L 233.135582 147.828976 
L 246.344916 146.04173 
L 248.233363 145.691163 
L 248.849355 145.530086 
L 263.236535 141.954846 
L 265.524204 141.049794 
L 270.548016 138.985501 
L 277.249931 136.244569 
L 281.731829 133.764056 
L 286.028499 130.556346 
L 290.620209 126.68531 
L 295.062196 121.39429 
L 297.004797 118.74186 
L 299.060717 114.802989 
L 301.87338 108.50691 
L 303.132883 103.999421 
L 304.598921 97.390548 
L 304.941536 93.525759 
L 305.340445 86.688 
L 298.333152 86.688 
L 287.335284 86.688 
" style="fill:#3fbc73;"/>
   </g>
   <g id="PathCollection_7">
    <path clip-path="url(#p7adc520388)" d="M 250.208853 86.688 
L 248.790372 91.570581 
L 246.923468 97.358883 
L 244.998879 99.520257 
L 242.118949 102.276907 
L 237.836645 106.038556 
L 232.194344 109.76289 
L 230.058822 110.696259 
L 229.250929 110.980363 
L 220.225357 113.88088 
L 217.430722 114.440963 
L 213.435178 115.378986 
L 207.701836 116.347981 
L 202.047425 116.946926 
L 197.776842 117.506345 
L 191.05616 117.863629 
L 187.042113 117.991563 
L 178.639687 117.888808 
L 174.439462 117.520755 
L 167.894914 117.24325 
L 166.122076 117.025833 
L 159.12755 115.376922 
L 151.488575 113.755004 
L 147.998903 112.894038 
L 140.279731 110.210492 
L 137.409396 108.513668 
L 125.656292 99.718252 
L 125.349838 99.485466 
L 125.321594 99.462858 
L 125.29554 99.433437 
L 125.261224 99.333078 
L 121.138859 86.688 
L 115.255941 86.688 
L 103.543476 86.688 
L 91.689235 86.688 
L 87.683887 86.688 
L 88.9046 96.830956 
L 88.982911 97.435882 
L 89.444495 98.616741 
L 92.851303 106.535194 
L 95.3997 110.561024 
L 100.051683 115.656786 
L 103.602538 118.424587 
L 110.439905 123.400576 
L 112.895883 124.603747 
L 114.956494 125.388712 
L 123.269257 128.672879 
L 132.882355 131.567727 
L 135.323931 132.266364 
L 136.65409 132.640219 
L 149.264259 134.911218 
L 150.469414 135.099587 
L 150.612855 135.113906 
L 164.680937 136.394855 
L 167.08117 136.529612 
L 179.312492 136.933099 
L 182.540251 136.989898 
L 193.347813 136.898404 
L 196.403811 136.824034 
L 207.078437 136.229514 
L 209.984102 136.044127 
L 221.022217 134.983444 
L 221.790924 134.905653 
L 232.005033 133.075393 
L 234.389742 132.671965 
L 241.553611 130.799554 
L 244.946873 129.673078 
L 251.93135 127.341298 
L 259.234994 123.987581 
L 261.613611 122.932984 
L 265.007064 120.891426 
L 269.701 117.049193 
L 274.678546 112.110296 
L 276.033816 110.681719 
L 276.875036 109.543431 
L 280.894997 101.448142 
L 282.217055 98.057436 
L 283.340833 91.783987 
L 284.072246 86.688 
L 276.337417 86.688 
L 265.02457 86.688 
L 253.669225 86.688 
" style="fill:#84d44b;"/>
   </g>
   <g id="PathCollection_8">
    <path clip-path="url(#p7adc520388)" d="M 121.138859 86.688 
L 125.261224 99.333078 
L 125.29554 99.433437 
L 125.321594 99.462858 
L 125.349838 99.485466 
L 125.656292 99.718252 
L 137.409396 108.513668 
L 140.279731 110.210492 
L 147.998903 112.894038 
L 151.488575 113.755004 
L 159.12755 115.376922 
L 166.122076 117.025833 
L 167.894914 117.24325 
L 174.439462 117.520755 
L 178.639687 117.888808 
L 187.042113 117.991563 
L 191.05616 117.863629 
L 197.776842 117.506345 
L 202.047425 116.946926 
L 207.701836 116.347981 
L 213.435178 115.378986 
L 217.430722 114.440963 
L 220.225357 113.88088 
L 229.250929 110.980363 
L 230.058822 110.696259 
L 232.194344 109.76289 
L 237.836645 106.038556 
L 242.118949 102.276907 
L 244.998879 99.520257 
L 246.923468 97.358883 
L 248.790372 91.570581 
L 250.208853 86.688 
L 242.314237 86.688 
L 230.958893 86.688 
L 219.603727 86.688 
L 208.248561 86.688 
L 196.893395 86.688 
L 185.531231 86.688 
L 173.818693 86.688 
L 162.106157 86.688 
L 150.393656 86.688 
L 138.681228 86.688 
L 126.968406 86.688 
" style="fill:#d8e219;"/>
   </g>
   <g id="line2d_1">
    <path d="M 7.2 86.688 
L 7.2 99.160202 
L 7.2 111.632403 
L 7.2 123.789911 
L 7.2 135.892708 
L 7.2 147.759448 
L 7.2 159.49334 
L 7.2 171.095098 
L 7.2 182.459727 
L 7.2 193.824 
L 18.138943 193.824 
L 29.077885 193.824 
L 40.016828 193.824 
L 50.955414 193.824 
L 61.894356 193.824 
L 72.833299 193.824 
L 83.772242 193.824 
L 94.711185 193.824 
L 105.984392 193.824 
L 117.322237 193.824 
L 128.660083 193.824 
L 139.997929 193.824 
L 151.335668 193.824 
L 162.673478 193.824 
L 174.011252 193.824 
L 185.349076 193.824 
L 197.071347 193.824 
L 208.808061 193.824 
L 220.544774 193.824 
L 232.281308 193.824 
L 244.018057 193.824 
L 255.754806 193.824 
L 267.491555 193.824 
L 279.370794 193.824 
L 291.506446 193.824 
L 303.642098 193.824 
L 315.777393 193.824 
L 327.913044 193.824 
L 340.048696 193.824 
L 352.184348 193.824 
L 364.32 193.824 
L 364.32 181.283731 
L 364.32 168.74382 
L 364.32 156.559956 
L 364.32 144.431804 
L 364.32 132.574349 
L 364.32 120.858456 
L 364.32 109.295053 
L 364.32 97.991527 
L 364.32 86.688 
" style="fill:none;stroke:#1f77b4;stroke-linecap:square;stroke-width:1.5;"/>
   </g>
   <g id="line2d_2">
    <path d="M 364.32 86.688 
L 353.322132 86.688 
L 342.324265 86.688 
L 331.326397 86.688 
L 320.328887 86.688 
L 309.33102 86.688 
L 298.333152 86.688 
L 287.335284 86.688 
L 276.337417 86.688 
L 265.02457 86.688 
L 253.669225 86.688 
L 242.314237 86.688 
L 230.958893 86.688 
L 219.603727 86.688 
L 208.248561 86.688 
L 196.893395 86.688 
L 185.531231 86.688 
L 173.818693 86.688 
L 162.106157 86.688 
L 150.393656 86.688 
L 138.681228 86.688 
L 126.968406 86.688 
L 115.255941 86.688 
L 103.543476 86.688 
L 91.689235 86.688 
L 79.619293 86.688 
L 67.549352 86.688 
L 55.47941 86.688 
L 43.409468 86.688 
L 31.339884 86.688 
L 19.269942 86.688 
L 7.2 86.688 
" style="fill:none;stroke:#ff7f0e;stroke-linecap:square;stroke-width:1.5;"/>
   </g>
  </g>
 </g>
 <defs>
  <clipPath id="p7adc520388">
   <rect height="266.112" width="357.12" x="7.2" y="7.2"/>
  </clipPath>
 </defs>
</svg>
