<?xml version="1.0" encoding="utf-8" standalone="no"?>
<!DOCTYPE svg PUBLIC "-//W3C//DTD SVG 1.1//EN"
  "http://www.w3.org/Graphics/SVG/1.1/DTD/svg11.dtd">
<!-- Created with matplotlib (https://matplotlib.org/) -->
<svg height="280.512pt" version="1.1" viewBox="0 0 371.52 280.512" width="371.52pt" xmlns="http://www.w3.org/2000/svg" xmlns:xlink="http://www.w3.org/1999/xlink">
 <defs>
  <style type="text/css">
*{stroke-linecap:butt;stroke-linejoin:round;}
  </style>
 </defs>
 <g id="figure_1">
  <g id="patch_1">
   <path d="M 0 280.512 
L 371.52 280.512 
L 371.52 0 
L 0 0 
z
" style="fill:#ffffff;"/>
  </g>
  <g id="axes_1">
   <g id="line2d_1">
    <path clip-path="url(#p9828844a17)" d="M 23.432727 178.623025 
L 23.432727 188.954182 
M 23.432727 178.623025 
L 23.432727 168.291543 
M 23.432727 114.234549 
L 23.432727 125.286828 
M 23.432727 114.234549 
L 23.432727 102.896183 
M 23.432727 157.744491 
L 23.432727 168.291543 
M 23.432727 136.289371 
L 23.432727 125.286828 
M 23.432727 147.077317 
L 23.432727 157.744491 
M 23.432727 147.077317 
L 23.432727 136.289371 
M 29.110286 183.053261 
L 23.432727 188.954182 
M 29.110286 183.053261 
L 23.432727 178.623025 
M 33.377221 188.954182 
L 23.432727 188.954182 
M 33.377221 188.954182 
L 29.110286 183.053261 
M 30.861148 164.822609 
L 23.432727 168.291543 
M 30.861148 164.822609 
L 23.432727 157.744491 
M 30.794918 174.208048 
L 23.432727 168.291543 
M 30.794918 174.208048 
L 23.432727 178.623025 
M 30.794918 174.208048 
L 29.110286 183.053261 
M 30.794918 174.208048 
L 30.861148 164.822609 
M 23.432727 91.557818 
L 23.432727 102.896183 
M 30.165089 98.184926 
L 23.432727 102.896183 
M 30.165089 98.184926 
L 23.432727 91.557818 
M 30.603048 129.803422 
L 23.432727 125.286828 
M 30.603048 129.803422 
L 23.432727 136.289371 
M 31.434488 118.102872 
L 23.432727 125.286828 
M 31.434488 118.102872 
L 23.432727 114.234549 
M 31.434488 118.102872 
L 30.603048 129.803422 
M 31.667265 107.80496 
L 23.432727 102.896183 
M 31.667265 107.80496 
L 23.432727 114.234549 
M 31.667265 107.80496 
L 30.165089 98.184926 
M 31.667265 107.80496 
L 31.434488 118.102872 
M 30.745571 154.089855 
L 23.432727 157.744491 
M 30.745571 154.089855 
L 23.432727 147.077317 
M 30.745571 154.089855 
L 30.861148 164.822609 
M 31.119573 142.24808 
L 23.432727 136.289371 
M 31.119573 142.24808 
L 23.432727 147.077317 
M 31.119573 142.24808 
L 30.603048 129.803422 
M 31.119573 142.24808 
L 30.745571 154.089855 
M 37.997055 162.027009 
L 30.861148 164.822609 
M 37.997055 162.027009 
L 30.745571 154.089855 
M 37.953226 181.164745 
L 29.110286 183.053261 
M 37.953226 181.164745 
L 33.377221 188.954182 
M 37.953226 181.164745 
L 30.794918 174.208048 
M 43.321714 188.954182 
L 33.377221 188.954182 
M 43.321714 188.954182 
L 37.953226 181.164745 
M 39.297946 172.068899 
L 30.861148 164.822609 
M 39.297946 172.068899 
L 30.794918 174.208048 
M 39.297946 172.068899 
L 37.997055 162.027009 
M 39.297946 172.068899 
L 37.953226 181.164745 
M 38.449299 141.249443 
L 31.119573 142.24808 
M 34.405402 91.557818 
L 23.432727 91.557818 
M 34.405402 91.557818 
L 30.165089 98.184926 
M 39.921607 101.845017 
L 30.165089 98.184926 
M 39.921607 101.845017 
L 31.667265 107.80496 
M 39.921607 101.845017 
L 34.405402 91.557818 
M 38.127241 132.127624 
L 30.603048 129.803422 
M 38.127241 132.127624 
L 31.119573 142.24808 
M 38.127241 132.127624 
L 38.449299 141.249443 
M 38.628508 122.406266 
L 30.603048 129.803422 
M 38.628508 122.406266 
L 31.434488 118.102872 
M 38.628508 122.406266 
L 38.127241 132.127624 
M 41.499428 112.941709 
L 31.434488 118.102872 
M 41.499428 112.941709 
L 31.667265 107.80496 
M 41.499428 112.941709 
L 39.921607 101.845017 
M 41.499428 112.941709 
L 38.628508 122.406266 
M 38.781096 151.234518 
L 30.745571 154.089855 
M 38.781096 151.234518 
L 31.119573 142.24808 
M 38.781096 151.234518 
L 37.997055 162.027009 
M 38.781096 151.234518 
L 38.449299 141.249443 
M 45.182309 158.843771 
L 37.997055 162.027009 
M 45.182309 158.843771 
L 38.781096 151.234518 
M 53.266207 188.954182 
L 43.321714 188.954182 
M 48.028231 168.197069 
L 37.997055 162.027009 
M 48.028231 168.197069 
L 39.297946 172.068899 
M 48.028231 168.197069 
L 45.182309 158.843771 
M 47.827594 178.631791 
L 37.953226 181.164745 
M 47.827594 178.631791 
L 43.321714 188.954182 
M 47.827594 178.631791 
L 39.297946 172.068899 
M 47.827594 178.631791 
L 53.266207 188.954182 
M 47.827594 178.631791 
L 48.028231 168.197069 
M 45.993621 144.206721 
L 38.449299 141.249443 
M 45.993621 144.206721 
L 38.781096 151.234518 
M 46.13582 134.64532 
L 38.449299 141.249443 
M 46.13582 134.64532 
L 38.127241 132.127624 
M 46.13582 134.64532 
L 45.993621 144.206721 
M 45.378076 91.557818 
L 34.405402 91.557818 
M 45.378076 91.557818 
L 39.921607 101.845017 
M 49.087903 99.099771 
L 39.921607 101.845017 
M 49.087903 99.099771 
L 45.378076 91.557818 
M 50.776756 106.756358 
L 39.921607 101.845017 
M 50.776756 106.756358 
L 41.499428 112.941709 
M 50.776756 106.756358 
L 49.087903 99.099771 
M 47.720458 125.227416 
L 38.127241 132.127624 
M 47.720458 125.227416 
L 38.628508 122.406266 
M 47.720458 125.227416 
L 41.499428 112.941709 
M 47.720458 125.227416 
L 46.13582 134.64532 
M 51.453986 115.848439 
L 41.499428 112.941709 
M 51.453986 115.848439 
L 50.776756 106.756358 
M 51.453986 115.848439 
L 47.720458 125.227416 
M 56.276729 181.86048 
L 53.266207 188.954182 
M 56.276729 181.86048 
L 47.827594 178.631791 
M 50.184586 150.140108 
L 38.781096 151.234518 
M 50.184586 150.140108 
L 45.182309 158.843771 
M 50.184586 150.140108 
L 45.993621 144.206721 
M 53.993758 158.31848 
L 45.182309 158.843771 
M 53.993758 158.31848 
L 48.028231 168.197069 
M 53.993758 158.31848 
L 50.184586 150.140108 
M 57.068886 165.96864 
L 48.028231 168.197069 
M 57.068886 165.96864 
L 53.993758 158.31848 
M 63.210376 188.954182 
L 53.266207 188.954182 
M 63.210376 188.954182 
L 56.276729 181.86048 
M 59.122975 174.2298 
L 48.028231 168.197069 
M 59.122975 174.2298 
L 47.827594 178.631791 
M 59.122975 174.2298 
L 56.276729 181.86048 
M 59.122975 174.2298 
L 57.068886 165.96864 
M 54.210303 137.870114 
L 45.993621 144.206721 
M 54.210303 137.870114 
L 46.13582 134.64532 
M 54.210303 137.870114 
L 47.720458 125.227416 
M 54.210303 137.870114 
L 50.184586 150.140108 
M 56.350426 91.557818 
L 45.378076 91.557818 
M 56.350426 91.557818 
L 49.087903 99.099771 
M 59.659629 99.182687 
L 49.087903 99.099771 
M 59.659629 99.182687 
L 50.776756 106.756358 
M 59.659629 99.182687 
L 56.350426 91.557818 
M 60.443021 108.136335 
L 50.776756 106.756358 
M 60.443021 108.136335 
L 51.453986 115.848439 
M 60.443021 108.136335 
L 59.659629 99.182687 
M 61.556261 132.058797 
L 54.210303 137.870114 
M 57.421786 125.383251 
L 47.720458 125.227416 
M 57.421786 125.383251 
L 51.453986 115.848439 
M 57.421786 125.383251 
L 54.210303 137.870114 
M 57.421786 125.383251 
L 61.556261 132.058797 
M 61.031619 117.305813 
L 51.453986 115.848439 
M 61.031619 117.305813 
L 60.443021 108.136335 
M 61.031619 117.305813 
L 57.421786 125.383251 
M 65.427117 181.547838 
L 56.276729 181.86048 
M 65.427117 181.547838 
L 63.210376 188.954182 
M 65.427117 181.547838 
L 59.122975 174.2298 
M 59.920327 147.97596 
L 50.184586 150.140108 
M 59.920327 147.97596 
L 53.993758 158.31848 
M 59.920327 147.97596 
L 54.210303 137.870114 
M 63.227907 157.230563 
L 53.993758 158.31848 
M 63.227907 157.230563 
L 57.068886 165.96864 
M 63.227907 157.230563 
L 59.920327 147.97596 
M 66.399782 167.346799 
L 57.068886 165.96864 
M 66.399782 167.346799 
L 59.122975 174.2298 
M 66.399782 167.346799 
L 63.227907 157.230563 
M 73.15487 188.954182 
L 63.210376 188.954182 
M 73.15487 188.954182 
L 65.427117 181.547838 
M 71.781256 177.258177 
L 59.122975 174.2298 
M 71.781256 177.258177 
L 65.427117 181.547838 
M 71.781256 177.258177 
L 66.399782 167.346799 
M 71.781256 177.258177 
L 73.15487 188.954182 
M 66.141682 138.862258 
L 54.210303 137.870114 
M 66.141682 138.862258 
L 61.556261 132.058797 
M 66.141682 138.862258 
L 59.920327 147.97596 
M 67.3231 91.557818 
L 56.350426 91.557818 
M 67.3231 91.557818 
L 59.659629 99.182687 
M 68.789889 113.897557 
L 60.443021 108.136335 
M 68.789889 113.897557 
L 61.031619 117.305813 
M 70.086559 102.543316 
L 59.659629 99.182687 
M 70.086559 102.543316 
L 60.443021 108.136335 
M 70.086559 102.543316 
L 67.3231 91.557818 
M 70.086559 102.543316 
L 68.789889 113.897557 
M 69.527504 125.591354 
L 61.556261 132.058797 
M 69.527504 125.591354 
L 57.421786 125.383251 
M 69.527504 125.591354 
L 61.031619 117.305813 
M 69.527504 125.591354 
L 66.141682 138.862258 
M 69.527504 125.591354 
L 68.789889 113.897557 
M 71.78223 148.309056 
L 59.920327 147.97596 
M 71.78223 148.309056 
L 63.227907 157.230563 
M 71.78223 148.309056 
L 66.141682 138.862258 
M 71.672822 158.417175 
L 63.227907 157.230563 
M 71.672822 158.417175 
L 66.399782 167.346799 
M 71.672822 158.417175 
L 71.78223 148.309056 
M 83.099363 188.954182 
L 73.15487 188.954182 
M 75.965404 168.470753 
L 66.399782 167.346799 
M 75.965404 168.470753 
L 71.781256 177.258177 
M 75.965404 168.470753 
L 71.672822 158.417175 
M 82.456872 179.405442 
L 73.15487 188.954182 
M 82.456872 179.405442 
L 71.781256 177.258177 
M 82.456872 179.405442 
L 83.099363 188.954182 
M 82.456872 179.405442 
L 75.965404 168.470753 
M 76.220258 136.55299 
L 66.141682 138.862258 
M 76.220258 136.55299 
L 69.527504 125.591354 
M 76.220258 136.55299 
L 71.78223 148.309056 
M 78.295774 91.557818 
L 67.3231 91.557818 
M 78.295774 91.557818 
L 70.086559 102.543316 
M 76.65984 114.363859 
L 68.789889 113.897557 
M 76.65984 114.363859 
L 70.086559 102.543316 
M 76.65984 114.363859 
L 69.527504 125.591354 
M 79.429143 103.650453 
L 70.086559 102.543316 
M 79.429143 103.650453 
L 78.295774 91.557818 
M 79.429143 103.650453 
L 76.65984 114.363859 
M 80.72419 125.224819 
L 69.527504 125.591354 
M 80.72419 125.224819 
L 76.220258 136.55299 
M 80.72419 125.224819 
L 76.65984 114.363859 
M 89.268449 91.557818 
L 78.295774 91.557818 
M 83.658418 146.879277 
L 71.78223 148.309056 
M 83.658418 146.879277 
L 76.220258 136.55299 
M 80.525826 157.539959 
L 71.78223 148.309056 
M 80.525826 157.539959 
L 71.672822 158.417175 
M 80.525826 157.539959 
L 75.965404 168.470753 
M 80.525826 157.539959 
L 83.658418 146.879277 
M 93.043856 188.954182 
L 83.099363 188.954182 
M 93.043856 188.954182 
L 82.456872 179.405442 
M 85.764127 168.118827 
L 75.965404 168.470753 
M 85.764127 168.118827 
L 82.456872 179.405442 
M 85.764127 168.118827 
L 80.525826 157.539959 
M 91.963731 177.682825 
L 82.456872 179.405442 
M 91.963731 177.682825 
L 93.043856 188.954182 
M 91.963731 177.682825 
L 85.764127 168.118827 
M 87.025735 136.042309 
L 76.220258 136.55299 
M 87.025735 136.042309 
L 80.72419 125.224819 
M 87.025735 136.042309 
L 83.658418 146.879277 
M 88.700952 102.431181 
L 78.295774 91.557818 
M 88.700952 102.431181 
L 79.429143 103.650453 
M 88.700952 102.431181 
L 89.268449 91.557818 
M 86.872498 113.870806 
L 76.65984 114.363859 
M 86.872498 113.870806 
L 79.429143 103.650453 
M 86.872498 113.870806 
L 80.72419 125.224819 
M 86.872498 113.870806 
L 88.700952 102.431181 
M 91.452075 124.643688 
L 80.72419 125.224819 
M 91.452075 124.643688 
L 87.025735 136.042309 
M 91.452075 124.643688 
L 86.872498 113.870806 
M 98.169827 101.281384 
L 89.268449 91.557818 
M 98.169827 101.281384 
L 88.700952 102.431181 
M 100.241123 91.557818 
L 89.268449 91.557818 
M 100.241123 91.557818 
L 98.169827 101.281384 
M 102.98835 188.954182 
L 93.043856 188.954182 
M 94.311957 146.724417 
L 83.658418 146.879277 
M 94.311957 146.724417 
L 87.025735 136.042309 
M 91.135212 157.433147 
L 83.658418 146.879277 
M 91.135212 157.433147 
L 80.525826 157.539959 
M 91.135212 157.433147 
L 85.764127 168.118827 
M 91.135212 157.433147 
L 94.311957 146.724417 
M 101.045942 178.558094 
L 93.043856 188.954182 
M 101.045942 178.558094 
L 91.963731 177.682825 
M 101.045942 178.558094 
L 102.98835 188.954182 
M 95.96802 167.691582 
L 85.764127 168.118827 
M 95.96802 167.691582 
L 91.963731 177.682825 
M 95.96802 167.691582 
L 91.135212 157.433147 
M 95.96802 167.691582 
L 101.045942 178.558094 
M 97.171839 135.532601 
L 87.025735 136.042309 
M 97.171839 135.532601 
L 91.452075 124.643688 
M 97.171839 135.532601 
L 94.311957 146.724417 
M 98.479223 112.604588 
L 88.700952 102.431181 
M 98.479223 112.604588 
L 86.872498 113.870806 
M 98.479223 112.604588 
L 91.452075 124.643688 
M 98.479223 112.604588 
L 98.169827 101.281384 
M 101.852059 124.261245 
L 91.452075 124.643688 
M 101.852059 124.261245 
L 97.171839 135.532601 
M 101.852059 124.261245 
L 98.479223 112.604588 
M 107.765641 102.706812 
L 98.169827 101.281384 
M 107.765641 102.706812 
L 100.241123 91.557818 
M 107.765641 102.706812 
L 98.479223 112.604588 
M 111.017706 91.557818 
L 100.241123 91.557818 
M 111.017706 91.557818 
L 107.765641 102.706812 
M 111.000824 178.950926 
L 102.98835 188.954182 
M 111.000824 178.950926 
L 101.045942 178.558094 
M 113.23672 188.954182 
L 102.98835 188.954182 
M 113.23672 188.954182 
L 111.000824 178.950926 
M 103.260735 145.543973 
L 94.311957 146.724417 
M 103.260735 145.543973 
L 97.171839 135.532601 
M 102.912705 156.695532 
L 94.311957 146.724417 
M 102.912705 156.695532 
L 91.135212 157.433147 
M 102.912705 156.695532 
L 95.96802 167.691582 
M 102.912705 156.695532 
L 103.260735 145.543973 
M 106.346576 167.837027 
L 101.045942 178.558094 
M 106.346576 167.837027 
L 95.96802 167.691582 
M 106.346576 167.837027 
L 111.000824 178.950926 
M 106.346576 167.837027 
L 102.912705 156.695532 
M 107.229637 135.700123 
L 97.171839 135.532601 
M 107.229637 135.700123 
L 101.852059 124.261245 
M 107.229637 135.700123 
L 103.260735 145.543973 
M 110.889792 125.771213 
L 101.852059 124.261245 
M 110.889792 125.771213 
L 107.229637 135.700123 
M 111.280351 114.239873 
L 98.479223 112.604588 
M 111.280351 114.239873 
L 101.852059 124.261245 
M 111.280351 114.239873 
L 107.765641 102.706812 
M 111.280351 114.239873 
L 110.889792 125.771213 
M 118.941549 102.567665 
L 107.765641 102.706812 
M 118.941549 102.567665 
L 111.017706 91.557818 
M 118.941549 102.567665 
L 111.280351 114.239873 
M 121.665401 91.557818 
L 111.017706 91.557818 
M 121.665401 91.557818 
L 118.941549 102.567665 
M 115.843046 169.317127 
L 111.000824 178.950926 
M 115.843046 169.317127 
L 106.346576 167.837027 
M 121.435221 178.955146 
L 111.000824 178.950926 
M 121.435221 178.955146 
L 113.23672 188.954182 
M 121.435221 178.955146 
L 115.843046 169.317127 
M 123.543852 188.954182 
L 113.23672 188.954182 
M 123.543852 188.954182 
L 121.435221 178.955146 
M 112.162113 147.129586 
L 103.260735 145.543973 
M 112.162113 147.129586 
L 102.912705 156.695532 
M 112.162113 147.129586 
L 107.229637 135.700123 
M 115.473914 158.384385 
L 102.912705 156.695532 
M 115.473914 158.384385 
L 106.346576 167.837027 
M 115.473914 158.384385 
L 115.843046 169.317127 
M 115.473914 158.384385 
L 112.162113 147.129586 
M 122.895842 113.482973 
L 111.280351 114.239873 
M 122.895842 113.482973 
L 118.941549 102.567665 
M 117.2725 135.951081 
L 107.229637 135.700123 
M 117.2725 135.951081 
L 110.889792 125.771213 
M 117.2725 135.951081 
L 112.162113 147.129586 
M 119.84344 124.597911 
L 110.889792 125.771213 
M 119.84344 124.597911 
L 111.280351 114.239873 
M 119.84344 124.597911 
L 122.895842 113.482973 
M 119.84344 124.597911 
L 117.2725 135.951081 
M 132.48776 114.257567 
L 122.895842 113.482973 
M 130.834944 103.146654 
L 118.941549 102.567665 
M 130.834944 103.146654 
L 121.665401 91.557818 
M 130.834944 103.146654 
L 122.895842 113.482973 
M 130.834944 103.146654 
L 132.48776 114.257567 
M 132.313096 91.557818 
L 121.665401 91.557818 
M 132.313096 91.557818 
L 130.834944 103.146654 
M 125.161281 168.025327 
L 115.843046 169.317127 
M 125.161281 168.025327 
L 121.435221 178.955146 
M 125.161281 168.025327 
L 115.473914 158.384385 
M 142.961116 91.557818 
L 132.313096 91.557818 
M 131.897538 178.619778 
L 121.435221 178.955146 
M 131.897538 178.619778 
L 123.543852 188.954182 
M 131.897538 178.619778 
L 125.161281 168.025327 
M 133.850985 188.954182 
L 123.543852 188.954182 
M 133.850985 188.954182 
L 131.897538 178.619778 
M 122.405938 146.939988 
L 112.162113 147.129586 
M 122.405938 146.939988 
L 115.473914 158.384385 
M 122.405938 146.939988 
L 117.2725 135.951081 
M 127.452044 157.39289 
L 115.473914 158.384385 
M 127.452044 157.39289 
L 125.161281 168.025327 
M 127.452044 157.39289 
L 122.405938 146.939988 
M 129.910653 124.851142 
L 122.895842 113.482973 
M 129.910653 124.851142 
L 119.84344 124.597911 
M 129.910653 124.851142 
L 132.48776 114.257567 
M 127.794879 135.590065 
L 117.2725 135.951081 
M 127.794879 135.590065 
L 119.84344 124.597911 
M 127.794879 135.590065 
L 122.405938 146.939988 
M 127.794879 135.590065 
L 129.910653 124.851142 
M 139.365242 123.455322 
L 132.48776 114.257567 
M 139.365242 123.455322 
L 129.910653 124.851142 
M 141.72191 112.947163 
L 132.48776 114.257567 
M 141.72191 112.947163 
L 130.834944 103.146654 
M 141.72191 112.947163 
L 139.365242 123.455322 
M 142.297847 102.206292 
L 130.834944 103.146654 
M 142.297847 102.206292 
L 132.313096 91.557818 
M 142.297847 102.206292 
L 142.961116 91.557818 
M 142.297847 102.206292 
L 141.72191 112.947163 
M 135.5986 168.110711 
L 125.161281 168.025327 
M 135.5986 168.110711 
L 131.897538 178.619778 
M 135.5986 168.110711 
L 127.452044 157.39289 
M 153.608779 91.557818 
L 142.961116 91.557818 
M 153.986741 101.132173 
L 142.961116 91.557818 
M 153.986741 101.132173 
L 142.297847 102.206292 
M 153.986741 101.132173 
L 153.608779 91.557818 
M 143.320509 179.349926 
L 131.897538 178.619778 
M 143.320509 179.349926 
L 133.850985 188.954182 
M 143.320509 179.349926 
L 135.5986 168.110711 
M 144.158117 188.954182 
L 133.850985 188.954182 
M 144.158117 188.954182 
L 143.320509 179.349926 
M 133.448738 146.206269 
L 122.405938 146.939988 
M 133.448738 146.206269 
L 127.452044 157.39289 
M 133.448738 146.206269 
L 127.794879 135.590065 
M 138.628926 157.011096 
L 127.452044 157.39289 
M 138.628926 157.011096 
L 135.5986 168.110711 
M 138.628926 157.011096 
L 133.448738 146.206269 
M 139.999942 134.587207 
L 129.910653 124.851142 
M 139.999942 134.587207 
L 127.794879 135.590065 
M 139.999942 134.587207 
L 139.365242 123.455322 
M 139.999942 134.587207 
L 133.448738 146.206269 
M 149.084425 124.395327 
L 139.365242 123.455322 
M 149.084425 124.395327 
L 141.72191 112.947163 
M 149.084425 124.395327 
L 139.999942 134.587207 
M 152.070922 112.926937 
L 141.72191 112.947163 
M 152.070922 112.926937 
L 142.297847 102.206292 
M 152.070922 112.926937 
L 153.986741 101.132173 
M 152.070922 112.926937 
L 149.084425 124.395327 
M 145.977806 167.922086 
L 135.5986 168.110711 
M 145.977806 167.922086 
L 143.320509 179.349926 
M 145.977806 167.922086 
L 138.628926 157.011096 
M 164.256506 91.557818 
L 153.608779 91.557818 
M 164.256506 91.557818 
L 153.986741 101.132173 
M 162.067231 111.864603 
L 153.986741 101.132173 
M 162.067231 111.864603 
L 152.070922 112.926937 
M 164.719788 102.861705 
L 153.986741 101.132173 
M 164.719788 102.861705 
L 164.256506 91.557818 
M 164.719788 102.861705 
L 162.067231 111.864603 
M 154.465152 188.954182 
L 144.158117 188.954182 
M 154.612805 178.587638 
L 143.320509 179.349926 
M 154.612805 178.587638 
L 144.158117 188.954182 
M 154.612805 178.587638 
L 145.977806 167.922086 
M 154.612805 178.587638 
L 154.465152 188.954182 
M 145.545366 145.782594 
L 133.448738 146.206269 
M 145.545366 145.782594 
L 138.628926 157.011096 
M 145.545366 145.782594 
L 139.999942 134.587207 
M 149.144162 156.596513 
L 138.628926 157.011096 
M 149.144162 156.596513 
L 145.977806 167.922086 
M 149.144162 156.596513 
L 145.545366 145.782594 
M 168.554673 118.65933 
L 162.067231 111.864603 
M 153.753932 135.47254 
L 139.999942 134.587207 
M 153.753932 135.47254 
L 149.084425 124.395327 
M 153.753932 135.47254 
L 145.545366 145.782594 
M 160.952529 124.276828 
L 149.084425 124.395327 
M 160.952529 124.276828 
L 152.070922 112.926937 
M 160.952529 124.276828 
L 162.067231 111.864603 
M 160.952529 124.276828 
L 168.554673 118.65933 
M 160.952529 124.276828 
L 153.753932 135.47254 
M 155.997262 168.010392 
L 145.977806 167.922086 
M 155.997262 168.010392 
L 154.612805 178.587638 
M 155.997262 168.010392 
L 149.144162 156.596513 
M 158.333216 158.212968 
L 149.144162 156.596513 
M 158.333216 158.212968 
L 155.997262 168.010392 
M 174.904266 91.557818 
L 164.256506 91.557818 
M 173.083928 100.73986 
L 164.256506 91.557818 
M 173.083928 100.73986 
L 164.719788 102.861705 
M 173.083928 100.73986 
L 174.904266 91.557818 
M 174.457379 111.003489 
L 162.067231 111.864603 
M 174.457379 111.003489 
L 164.719788 102.861705 
M 174.457379 111.003489 
L 168.554673 118.65933 
M 174.457379 111.003489 
L 173.083928 100.73986 
M 164.100997 177.356547 
L 154.612805 178.587638 
M 164.100997 177.356547 
L 155.997262 168.010392 
M 164.772252 188.954182 
L 154.465152 188.954182 
M 164.772252 188.954182 
L 154.612805 178.587638 
M 164.772252 188.954182 
L 164.100997 177.356547 
M 159.18985 146.403983 
L 145.545366 145.782594 
M 159.18985 146.403983 
L 149.144162 156.596513 
M 159.18985 146.403983 
L 153.753932 135.47254 
M 159.18985 146.403983 
L 158.333216 158.212968 
M 175.97173 123.858575 
L 168.554673 118.65933 
M 175.97173 123.858575 
L 160.952529 124.276828 
M 175.97173 123.858575 
L 174.457379 111.003489 
M 167.801636 135.175481 
L 153.753932 135.47254 
M 167.801636 135.175481 
L 160.952529 124.276828 
M 167.801636 135.175481 
L 159.18985 146.403983 
M 167.801636 135.175481 
L 175.97173 123.858575 
M 166.428867 155.089142 
L 158.333216 158.212968 
M 166.428867 155.089142 
L 159.18985 146.403983 
M 166.956626 167.184147 
L 155.997262 168.010392 
M 166.956626 167.184147 
L 158.333216 158.212968 
M 166.956626 167.184147 
L 164.100997 177.356547 
M 166.956626 167.184147 
L 166.428867 155.089142 
M 185.552028 91.557818 
L 174.904266 91.557818 
M 185.266356 112.822561 
L 174.457379 111.003489 
M 185.266356 112.822561 
L 175.97173 123.858575 
M 183.166387 101.931343 
L 174.904266 91.557818 
M 183.166387 101.931343 
L 173.083928 100.73986 
M 183.166387 101.931343 
L 174.457379 111.003489 
M 183.166387 101.931343 
L 185.552028 91.557818 
M 183.166387 101.931343 
L 185.266356 112.822561 
M 173.594383 178.783404 
L 164.100997 177.356547 
M 173.594383 178.783404 
L 164.772252 188.954182 
M 173.594383 178.783404 
L 166.956626 167.184147 
M 175.07932 188.954182 
L 164.772252 188.954182 
M 175.07932 188.954182 
L 173.594383 178.783404 
M 174.19811 146.252045 
L 159.18985 146.403983 
M 174.19811 146.252045 
L 167.801636 135.175481 
M 174.19811 146.252045 
L 166.428867 155.089142 
M 194.498954 113.75156 
L 185.266356 112.822561 
M 187.874485 124.129435 
L 175.97173 123.858575 
M 187.874485 124.129435 
L 185.266356 112.822561 
M 187.874485 124.129435 
L 194.498954 113.75156 
M 181.416707 134.833944 
L 175.97173 123.858575 
M 181.416707 134.833944 
L 167.801636 135.175481 
M 181.416707 134.833944 
L 174.19811 146.252045 
M 181.416707 134.833944 
L 187.874485 124.129435 
M 174.374787 157.996423 
L 166.428867 155.089142 
M 174.374787 157.996423 
L 166.956626 167.184147 
M 174.374787 157.996423 
L 174.19811 146.252045 
M 177.668862 168.030196 
L 166.956626 167.184147 
M 177.668862 168.030196 
L 173.594383 178.783404 
M 177.668862 168.030196 
L 174.374787 157.996423 
M 195.881268 91.557818 
L 185.552028 91.557818 
M 195.401753 101.99741 
L 185.552028 91.557818 
M 195.401753 101.99741 
L 185.266356 112.822561 
M 195.401753 101.99741 
L 183.166387 101.931343 
M 195.401753 101.99741 
L 194.498954 113.75156 
M 195.401753 101.99741 
L 195.881268 91.557818 
M 203.695151 112.086147 
L 194.498954 113.75156 
M 203.695151 112.086147 
L 195.401753 101.99741 
M 183.912748 178.179222 
L 173.594383 178.783404 
M 183.912748 178.179222 
L 175.07932 188.954182 
M 183.912748 178.179222 
L 177.668862 168.030196 
M 185.386433 188.954182 
L 175.07932 188.954182 
M 185.386433 188.954182 
L 183.912748 178.179222 
M 183.240687 156.383539 
L 174.19811 146.252045 
M 183.240687 156.383539 
L 174.374787 157.996423 
M 183.240687 156.383539 
L 177.668862 168.030196 
M 187.52965 145.421254 
L 174.19811 146.252045 
M 187.52965 145.421254 
L 181.416707 134.833944 
M 187.52965 145.421254 
L 183.240687 156.383539 
M 198.349876 124.012007 
L 194.498954 113.75156 
M 198.349876 124.012007 
L 187.874485 124.129435 
M 198.349876 124.012007 
L 203.695151 112.086147 
M 194.104044 134.886538 
L 187.874485 124.129435 
M 194.104044 134.886538 
L 181.416707 134.833944 
M 194.104044 134.886538 
L 187.52965 145.421254 
M 194.104044 134.886538 
L 198.349876 124.012007 
M 206.886115 122.292442 
L 203.695151 112.086147 
M 206.886115 122.292442 
L 198.349876 124.012007 
M 188.012278 167.332838 
L 177.668862 168.030196 
M 188.012278 167.332838 
L 183.912748 178.179222 
M 188.012278 167.332838 
L 183.240687 156.383539 
M 206.204146 91.557818 
L 195.881268 91.557818 
M 206.204146 91.557818 
L 195.401753 101.99741 
M 207.840697 102.004779 
L 195.401753 101.99741 
M 207.840697 102.004779 
L 203.695151 112.086147 
M 207.840697 102.004779 
L 206.204146 91.557818 
M 214.565624 113.43473 
L 203.695151 112.086147 
M 214.565624 113.43473 
L 206.886115 122.292442 
M 214.565624 113.43473 
L 207.840697 102.004779 
M 194.072065 178.320447 
L 183.912748 178.179222 
M 194.072065 178.320447 
L 185.386433 188.954182 
M 194.072065 178.320447 
L 188.012278 167.332838 
M 196.043043 188.954182 
L 185.386433 188.954182 
M 196.043043 188.954182 
L 194.072065 178.320447 
M 194.188909 156.357891 
L 183.240687 156.383539 
M 194.188909 156.357891 
L 187.52965 145.421254 
M 194.188909 156.357891 
L 188.012278 167.332838 
M 214.517315 124.956655 
L 206.886115 122.292442 
M 214.517315 124.956655 
L 214.565624 113.43473 
M 200.502466 145.691042 
L 187.52965 145.421254 
M 200.502466 145.691042 
L 194.104044 134.886538 
M 200.502466 145.691042 
L 194.188909 156.357891 
M 206.410821 134.104121 
L 198.349876 124.012007 
M 206.410821 134.104121 
L 194.104044 134.886538 
M 206.410821 134.104121 
L 206.886115 122.292442 
M 206.410821 134.104121 
L 214.517315 124.956655 
M 206.410821 134.104121 
L 200.502466 145.691042 
M 198.646383 167.510424 
L 188.012278 167.332838 
M 198.646383 167.510424 
L 194.072065 178.320447 
M 198.646383 167.510424 
L 194.188909 156.357891 
M 216.527024 91.557818 
L 206.204146 91.557818 
M 216.527024 91.557818 
L 207.840697 102.004779 
M 217.492807 103.263692 
L 207.840697 102.004779 
M 217.492807 103.263692 
L 214.565624 113.43473 
M 217.492807 103.263692 
L 216.527024 91.557818 
M 223.165073 123.114402 
L 214.565624 113.43473 
M 223.165073 123.114402 
L 214.517315 124.956655 
M 225.514274 112.677408 
L 214.565624 113.43473 
M 225.514274 112.677408 
L 217.492807 103.263692 
M 225.514274 112.677408 
L 223.165073 123.114402 
M 206.219859 178.911967 
L 194.072065 178.320447 
M 206.219859 178.911967 
L 196.043043 188.954182 
M 206.219859 178.911967 
L 198.646383 167.510424 
M 206.712782 188.954182 
L 196.043043 188.954182 
M 206.712782 188.954182 
L 206.219859 178.911967 
M 207.271091 157.260431 
L 194.188909 156.357891 
M 207.271091 157.260431 
L 200.502466 145.691042 
M 207.271091 157.260431 
L 198.646383 167.510424 
M 218.056017 134.936211 
L 214.517315 124.956655 
M 218.056017 134.936211 
L 206.410821 134.104121 
M 218.056017 134.936211 
L 223.165073 123.114402 
M 213.202075 145.609878 
L 200.502466 145.691042 
M 213.202075 145.609878 
L 206.410821 134.104121 
M 213.202075 145.609878 
L 207.271091 157.260431 
M 213.202075 145.609878 
L 218.056017 134.936211 
M 227.814451 133.021073 
L 223.165073 123.114402 
M 227.814451 133.021073 
L 218.056017 134.936211 
M 208.108992 168.341865 
L 198.646383 167.510424 
M 208.108992 168.341865 
L 206.219859 178.911967 
M 208.108992 168.341865 
L 207.271091 157.260431 
M 226.849903 91.557818 
L 216.527024 91.557818 
M 226.860616 101.803851 
L 216.527024 91.557818 
M 226.860616 101.803851 
L 217.492807 103.263692 
M 226.860616 101.803851 
L 225.514274 112.677408 
M 226.860616 101.803851 
L 226.849903 91.557818 
M 233.094308 123.022298 
L 223.165073 123.114402 
M 233.094308 123.022298 
L 225.514274 112.677408 
M 233.094308 123.022298 
L 227.814451 133.021073 
M 235.603888 112.092997 
L 225.514274 112.677408 
M 235.603888 112.092997 
L 226.860616 101.803851 
M 235.603888 112.092997 
L 233.094308 123.022298 
M 216.665944 177.968197 
L 206.219859 178.911967 
M 216.665944 177.968197 
L 206.712782 188.954182 
M 216.665944 177.968197 
L 208.108992 168.341865 
M 217.382521 188.954182 
L 206.712782 188.954182 
M 217.382521 188.954182 
L 216.665944 177.968197 
M 220.448689 156.132257 
L 207.271091 157.260431 
M 220.448689 156.132257 
L 213.202075 145.609878 
M 217.577217 167.704243 
L 207.271091 157.260431 
M 217.577217 167.704243 
L 208.108992 168.341865 
M 217.577217 167.704243 
L 216.665944 177.968197 
M 217.577217 167.704243 
L 220.448689 156.132257 
M 227.596933 144.403786 
L 218.056017 134.936211 
M 227.596933 144.403786 
L 213.202075 145.609878 
M 227.596933 144.403786 
L 227.814451 133.021073 
M 227.596933 144.403786 
L 220.448689 156.132257 
M 237.623239 134.57065 
L 227.814451 133.021073 
M 237.623239 134.57065 
L 233.094308 123.022298 
M 237.623239 134.57065 
L 227.596933 144.403786 
M 237.172943 91.557818 
L 226.849903 91.557818 
M 237.172943 91.557818 
L 226.860616 101.803851 
M 238.020941 101.039776 
L 226.860616 101.803851 
M 238.020941 101.039776 
L 235.603888 112.092997 
M 238.020941 101.039776 
L 237.172943 91.557818 
M 243.247879 123.178164 
L 233.094308 123.022298 
M 243.247879 123.178164 
L 235.603888 112.092997 
M 243.247879 123.178164 
L 237.623239 134.57065 
M 246.130811 112.159909 
L 235.603888 112.092997 
M 246.130811 112.159909 
L 238.020941 101.039776 
M 246.130811 112.159909 
L 243.247879 123.178164 
M 232.626806 155.579045 
L 220.448689 156.132257 
M 232.626806 155.579045 
L 227.596933 144.403786 
M 227.325521 178.97982 
L 216.665944 177.968197 
M 227.325521 178.97982 
L 217.382521 188.954182 
M 227.325521 178.97982 
L 217.577217 167.704243 
M 228.052098 188.954182 
L 217.382521 188.954182 
M 228.052098 188.954182 
L 227.325521 178.97982 
M 229.043918 167.230897 
L 220.448689 156.132257 
M 229.043918 167.230897 
L 217.577217 167.704243 
M 229.043918 167.230897 
L 232.626806 155.579045 
M 229.043918 167.230897 
L 227.325521 178.97982 
M 248.839404 134.364169 
L 237.623239 134.57065 
M 248.839404 134.364169 
L 243.247879 123.178164 
M 242.777455 145.678705 
L 227.596933 144.403786 
M 242.777455 145.678705 
L 237.623239 134.57065 
M 242.777455 145.678705 
L 232.626806 155.579045 
M 242.777455 145.678705 
L 248.839404 134.364169 
M 247.495659 91.557818 
L 237.172943 91.557818 
M 247.495659 91.557818 
L 238.020941 101.039776 
M 249.903622 101.817843 
L 238.020941 101.039776 
M 249.903622 101.817843 
L 246.130811 112.159909 
M 249.903622 101.817843 
L 247.495659 91.557818 
M 253.742337 122.624661 
L 243.247879 123.178164 
M 253.742337 122.624661 
L 246.130811 112.159909 
M 253.742337 122.624661 
L 248.839404 134.364169 
M 258.872853 132.528897 
L 248.839404 134.364169 
M 258.872853 132.528897 
L 253.742337 122.624661 
M 256.926874 112.208282 
L 246.130811 112.159909 
M 256.926874 112.208282 
L 249.903622 101.817843 
M 256.926874 112.208282 
L 253.742337 122.624661 
M 242.741743 157.070508 
L 232.626806 155.579045 
M 242.741743 157.070508 
L 242.777455 145.678705 
M 239.636422 167.139994 
L 232.626806 155.579045 
M 239.636422 167.139994 
L 229.043918 167.230897 
M 239.636422 167.139994 
L 242.741743 157.070508 
M 238.72187 188.954182 
L 228.052098 188.954182 
M 238.712455 178.146757 
L 227.325521 178.97982 
M 238.712455 178.146757 
L 228.052098 188.954182 
M 238.712455 178.146757 
L 229.043918 167.230897 
M 238.712455 178.146757 
L 239.636422 167.139994 
M 238.712455 178.146757 
L 238.72187 188.954182 
M 258.079073 143.707402 
L 248.839404 134.364169 
M 258.079073 143.707402 
L 242.777455 145.678705 
M 258.079073 143.707402 
L 258.872853 132.528897 
M 252.726168 154.927464 
L 242.777455 145.678705 
M 252.726168 154.927464 
L 242.741743 157.070508 
M 252.726168 154.927464 
L 258.079073 143.707402 
M 257.8187 91.557818 
L 247.495659 91.557818 
M 257.8187 91.557818 
L 249.903622 101.817843 
M 260.213352 101.751451 
L 249.903622 101.817843 
M 260.213352 101.751451 
L 256.926874 112.208282 
M 260.213352 101.751451 
L 257.8187 91.557818 
M 264.688714 122.697935 
L 253.742337 122.624661 
M 264.688714 122.697935 
L 258.872853 132.528897 
M 264.688714 122.697935 
L 256.926874 112.208282 
M 268.090769 134.020685 
L 258.872853 132.528897 
M 268.090769 134.020685 
L 258.079073 143.707402 
M 268.090769 134.020685 
L 264.688714 122.697935 
M 267.11291 112.487875 
L 256.926874 112.208282 
M 267.11291 112.487875 
L 260.213352 101.751451 
M 267.11291 112.487875 
L 264.688714 122.697935 
M 248.558253 177.041308 
L 239.636422 167.139994 
M 248.558253 177.041308 
L 238.712455 178.146757 
M 250.382163 166.905918 
L 242.741743 157.070508 
M 250.382163 166.905918 
L 239.636422 167.139994 
M 250.382163 166.905918 
L 252.726168 154.927464 
M 250.382163 166.905918 
L 248.558253 177.041308 
M 249.391642 188.954182 
L 238.72187 188.954182 
M 249.391642 188.954182 
L 238.712455 178.146757 
M 249.391642 188.954182 
L 248.558253 177.041308 
M 259.879282 165.690411 
L 252.726168 154.927464 
M 259.879282 165.690411 
L 250.382163 166.905918 
M 271.803194 145.435214 
L 258.079073 143.707402 
M 271.803194 145.435214 
L 268.090769 134.020685 
M 263.991032 155.07648 
L 258.079073 143.707402 
M 263.991032 155.07648 
L 252.726168 154.927464 
M 263.991032 155.07648 
L 259.879282 165.690411 
M 263.991032 155.07648 
L 271.803194 145.435214 
M 277.240184 134.641424 
L 268.090769 134.020685 
M 277.240184 134.641424 
L 271.803194 145.435214 
M 282.03241 143.369112 
L 271.803194 145.435214 
M 282.03241 143.369112 
L 277.240184 134.641424 
M 268.103106 91.557818 
L 257.8187 91.557818 
M 268.103106 91.557818 
L 260.213352 101.751451 
M 270.219854 101.612532 
L 260.213352 101.751451 
M 270.219854 101.612532 
L 267.11291 112.487875 
M 270.219854 101.612532 
L 268.103106 91.557818 
M 276.207458 111.550759 
L 267.11291 112.487875 
M 276.207458 111.550759 
L 270.219854 101.612532 
M 276.113957 123.609014 
L 264.688714 122.697935 
M 276.113957 123.609014 
L 268.090769 134.020685 
M 276.113957 123.609014 
L 267.11291 112.487875 
M 276.113957 123.609014 
L 277.240184 134.641424 
M 276.113957 123.609014 
L 276.207458 111.550759 
M 282.764506 118.124527 
L 276.207458 111.550759 
M 282.764506 118.124527 
L 276.113957 123.609014 
M 260.119851 177.984754 
L 248.558253 177.041308 
M 260.119851 177.984754 
L 250.382163 166.905918 
M 260.119851 177.984754 
L 249.391642 188.954182 
M 260.119851 177.984754 
L 259.879282 165.690411 
M 260.061413 188.954182 
L 249.391642 188.954182 
M 260.061413 188.954182 
L 260.119851 177.984754 
M 270.533146 167.839299 
L 259.879282 165.690411 
M 270.533146 167.839299 
L 263.991032 155.07648 
M 270.533146 167.839299 
L 260.119851 177.984754 
M 282.529131 153.203223 
L 271.803194 145.435214 
M 282.529131 153.203223 
L 282.03241 143.369112 
M 273.891697 157.180566 
L 271.803194 145.435214 
M 273.891697 157.180566 
L 263.991032 155.07648 
M 273.891697 157.180566 
L 270.533146 167.839299 
M 273.891697 157.180566 
L 282.529131 153.203223 
M 286.71685 132.797386 
L 277.240184 134.641424 
M 286.71685 132.797386 
L 282.03241 143.369112 
M 286.71685 132.797386 
L 276.113957 123.609014 
M 291.357787 143.685001 
L 282.03241 143.369112 
M 291.357787 143.685001 
L 282.529131 153.203223 
M 291.357787 143.685001 
L 286.71685 132.797386 
M 278.101168 91.557818 
L 268.103106 91.557818 
M 278.101168 91.557818 
L 270.219854 101.612532 
M 279.215382 102.395891 
L 270.219854 101.612532 
M 279.215382 102.395891 
L 276.207458 111.550759 
M 279.215382 102.395891 
L 278.101168 91.557818 
M 287.094423 110.936643 
L 276.207458 111.550759 
M 287.094423 110.936643 
L 282.764506 118.124527 
M 287.094423 110.936643 
L 279.215382 102.395891 
M 290.298764 122.821954 
L 276.113957 123.609014 
M 290.298764 122.821954 
L 282.764506 118.124527 
M 290.298764 122.821954 
L 286.71685 132.797386 
M 290.298764 122.821954 
L 287.094423 110.936643 
M 270.860722 188.954182 
L 260.061413 188.954182 
M 271.760664 179.331421 
L 260.119851 177.984754 
M 271.760664 179.331421 
L 260.061413 188.954182 
M 271.760664 179.331421 
L 270.533146 167.839299 
M 271.760664 179.331421 
L 270.860722 188.954182 
M 280.440953 176.466669 
L 270.533146 167.839299 
M 280.440953 176.466669 
L 271.760664 179.331421 
M 292.195395 155.134593 
L 282.529131 153.203223 
M 292.195395 155.134593 
L 291.357787 143.685001 
M 283.24467 165.547888 
L 270.533146 167.839299 
M 283.24467 165.547888 
L 282.529131 153.203223 
M 283.24467 165.547888 
L 273.891697 157.180566 
M 283.24467 165.547888 
L 280.440953 176.466669 
M 283.24467 165.547888 
L 292.195395 155.134593 
M 301.134109 145.000502 
L 291.357787 143.685001 
M 301.134109 145.000502 
L 292.195395 155.134593 
M 298.886201 133.180154 
L 286.71685 132.797386 
M 298.886201 133.180154 
L 291.357787 143.685001 
M 298.886201 133.180154 
L 290.298764 122.821954 
M 298.886201 133.180154 
L 301.134109 145.000502 
M 288.099229 91.557818 
L 278.101168 91.557818 
M 287.870672 101.286189 
L 278.101168 91.557818 
M 287.870672 101.286189 
L 279.215382 102.395891 
M 287.870672 101.286189 
L 287.094423 110.936643 
M 287.870672 101.286189 
L 288.099229 91.557818 
M 295.97892 111.897101 
L 287.094423 110.936643 
M 295.97892 111.897101 
L 290.298764 122.821954 
M 295.97892 111.897101 
L 287.870672 101.286189 
M 301.511033 121.482072 
L 290.298764 122.821954 
M 301.511033 121.482072 
L 298.886201 133.180154 
M 301.511033 121.482072 
L 295.97892 111.897101 
M 281.893133 188.954182 
L 270.860722 188.954182 
M 281.893133 188.954182 
L 271.760664 179.331421 
M 281.893133 188.954182 
L 280.440953 176.466669 
M 302.256765 155.827731 
L 292.195395 155.134593 
M 302.256765 155.827731 
L 301.134109 145.000502 
M 290.491608 177.719511 
L 280.440953 176.466669 
M 290.491608 177.719511 
L 283.24467 165.547888 
M 290.491608 177.719511 
L 281.893133 188.954182 
M 294.690366 166.501398 
L 292.195395 155.134593 
M 294.690366 166.501398 
L 283.24467 165.547888 
M 294.690366 166.501398 
L 302.256765 155.827731 
M 294.690366 166.501398 
L 290.491608 177.719511 
M 311.418516 148.257436 
L 301.134109 145.000502 
M 311.418516 148.257436 
L 302.256765 155.827731 
M 310.317612 138.228532 
L 301.134109 145.000502 
M 310.317612 138.228532 
L 298.886201 133.180154 
M 310.317612 138.228532 
L 311.418516 148.257436 
M 310.170868 128.689208 
L 298.886201 133.180154 
M 310.170868 128.689208 
L 301.511033 121.482072 
M 310.170868 128.689208 
L 310.317612 138.228532 
M 298.09729 91.557818 
L 288.099229 91.557818 
M 297.503173 101.288169 
L 288.099229 91.557818 
M 297.503173 101.288169 
L 287.870672 101.286189 
M 297.503173 101.288169 
L 295.97892 111.897101 
M 297.503173 101.288169 
L 298.09729 91.557818 
M 311.571753 119.246501 
L 301.511033 121.482072 
M 311.571753 119.246501 
L 310.170868 128.689208 
M 306.698039 110.086308 
L 295.97892 111.897101 
M 306.698039 110.086308 
L 301.511033 121.482072 
M 306.698039 110.086308 
L 297.503173 101.288169 
M 306.698039 110.086308 
L 311.571753 119.246501 
M 292.925544 188.954182 
L 281.893133 188.954182 
M 292.925544 188.954182 
L 290.491608 177.719511 
M 312.765832 158.017526 
L 302.256765 155.827731 
M 312.765832 158.017526 
L 311.418516 148.257436 
M 304.480973 165.876113 
L 302.256765 155.827731 
M 304.480973 165.876113 
L 294.690366 166.501398 
M 304.480973 165.876113 
L 312.765832 158.017526 
M 301.916851 176.979299 
L 290.491608 177.719511 
M 301.916851 176.979299 
L 294.690366 166.501398 
M 301.916851 176.979299 
L 292.925544 188.954182 
M 301.916851 176.979299 
L 304.480973 165.876113 
M 321.119194 149.697928 
L 311.418516 148.257436 
M 321.119194 149.697928 
L 312.765832 158.017526 
M 321.035433 141.052702 
L 311.418516 148.257436 
M 321.035433 141.052702 
L 310.317612 138.228532 
M 321.035433 141.052702 
L 321.119194 149.697928 
M 320.303986 132.350986 
L 310.317612 138.228532 
M 320.303986 132.350986 
L 310.170868 128.689208 
M 320.303986 132.350986 
L 321.035433 141.052702 
M 320.726686 123.388573 
L 310.170868 128.689208 
M 320.726686 123.388573 
L 311.571753 119.246501 
M 320.726686 123.388573 
L 320.303986 132.350986 
M 322.8522 157.668522 
L 312.765832 158.017526 
M 322.8522 157.668522 
L 321.119194 149.697928 
M 308.095352 91.557818 
L 298.09729 91.557818 
M 307.303844 98.881116 
L 298.09729 91.557818 
M 307.303844 98.881116 
L 297.503173 101.288169 
M 307.303844 98.881116 
L 306.698039 110.086308 
M 307.303844 98.881116 
L 308.095352 91.557818 
M 315.099774 103.461472 
L 306.698039 110.086308 
M 315.099774 103.461472 
L 307.303844 98.881116 
M 319.409238 113.763313 
L 311.571753 119.246501 
M 319.409238 113.763313 
L 306.698039 110.086308 
M 319.409238 113.763313 
L 320.726686 123.388573 
M 319.409238 113.763313 
L 315.099774 103.461472 
M 303.95763 188.954182 
L 292.925544 188.954182 
M 303.95763 188.954182 
L 301.916851 176.979299 
M 314.170288 168.472376 
L 312.765832 158.017526 
M 314.170288 168.472376 
L 304.480973 165.876113 
M 314.170288 168.472376 
L 301.916851 176.979299 
M 314.170288 168.472376 
L 322.8522 157.668522 
M 311.551624 179.523617 
L 301.916851 176.979299 
M 311.551624 179.523617 
L 303.95763 188.954182 
M 311.551624 179.523617 
L 314.170288 168.472376 
M 322.935311 106.991116 
L 315.099774 103.461472 
M 322.935311 106.991116 
L 319.409238 113.763313 
M 330.61891 146.846812 
L 321.119194 149.697928 
M 330.61891 146.846812 
L 321.035433 141.052702 
M 330.61891 146.846812 
L 322.8522 157.668522 
M 330.677023 135.964716 
L 321.035433 141.052702 
M 330.677023 135.964716 
L 320.303986 132.350986 
M 330.677023 135.964716 
L 330.61891 146.846812 
M 329.793638 127.451625 
L 320.303986 132.350986 
M 329.793638 127.451625 
L 320.726686 123.388573 
M 329.793638 127.451625 
L 330.677023 135.964716 
M 330.325747 118.73939 
L 320.726686 123.388573 
M 330.325747 118.73939 
L 319.409238 113.763313 
M 330.325747 118.73939 
L 329.793638 127.451625 
M 324.705328 166.411144 
L 322.8522 157.668522 
M 324.705328 166.411144 
L 314.170288 168.472376 
M 332.44704 158.213292 
L 322.8522 157.668522 
M 332.44704 158.213292 
L 330.61891 146.846812 
M 332.44704 158.213292 
L 324.705328 166.411144 
M 318.093089 91.557818 
L 308.095352 91.557818 
M 318.093089 91.557818 
L 307.303844 98.881116 
M 318.093089 91.557818 
L 315.099774 103.461472 
M 324.856941 99.662916 
L 315.099774 103.461472 
M 324.856941 99.662916 
L 322.935311 106.991116 
M 324.856941 99.662916 
L 318.093089 91.557818 
M 330.909476 109.316617 
L 319.409238 113.763313 
M 330.909476 109.316617 
L 322.935311 106.991116 
M 330.909476 109.316617 
L 330.325747 118.73939 
M 330.909476 109.316617 
L 324.856941 99.662916 
M 314.99004 188.954182 
L 303.95763 188.954182 
M 314.99004 188.954182 
L 311.551624 179.523617 
M 321.833758 177.392584 
L 314.170288 168.472376 
M 321.833758 177.392584 
L 311.551624 179.523617 
M 321.833758 177.392584 
L 324.705328 166.411144 
M 321.833758 177.392584 
L 314.99004 188.954182 
M 339.607296 138.579809 
L 330.61891 146.846812 
M 339.607296 138.579809 
L 330.677023 135.964716 
M 339.935197 150.351133 
L 330.61891 146.846812 
M 339.935197 150.351133 
L 332.44704 158.213292 
M 339.935197 150.351133 
L 339.607296 138.579809 
M 339.074213 126.990615 
L 330.677023 135.964716 
M 339.074213 126.990615 
L 329.793638 127.451625 
M 339.074213 126.990615 
L 330.325747 118.73939 
M 339.074213 126.990615 
L 339.607296 138.579809 
M 339.653397 116.174976 
L 330.325747 118.73939 
M 339.653397 116.174976 
L 330.909476 109.316617 
M 339.653397 116.174976 
L 339.074213 126.990615 
M 331.933112 170.591396 
L 324.705328 166.411144 
M 331.933112 170.591396 
L 332.44704 158.213292 
M 331.933112 170.591396 
L 321.833758 177.392584 
M 340.035515 162.400037 
L 332.44704 158.213292 
M 340.035515 162.400037 
L 339.935197 150.351133 
M 340.035515 162.400037 
L 331.933112 170.591396 
M 340.246541 106.469883 
L 330.909476 109.316617 
M 340.246541 106.469883 
L 339.653397 116.174976 
M 328.09115 91.557818 
L 318.093089 91.557818 
M 328.09115 91.557818 
L 324.856941 99.662916 
M 333.868053 99.588863 
L 324.856941 99.662916 
M 333.868053 99.588863 
L 330.909476 109.316617 
M 333.868053 99.588863 
L 340.246541 106.469883 
M 333.868053 99.588863 
L 328.09115 91.557818 
M 326.022451 188.954182 
L 314.99004 188.954182 
M 326.022451 188.954182 
L 321.833758 177.392584 
M 332.143163 180.459596 
L 321.833758 177.392584 
M 332.143163 180.459596 
L 331.933112 170.591396 
M 332.143163 180.459596 
L 326.022451 188.954182 
M 348.087273 144.052186 
L 339.607296 138.579809 
M 348.087273 144.052186 
L 339.935197 150.351133 
M 348.087273 133.272681 
L 339.607296 138.579809 
M 348.087273 133.272681 
L 339.074213 126.990615 
M 348.087273 133.272681 
L 348.087273 144.052186 
M 348.087273 155.077779 
L 339.935197 150.351133 
M 348.087273 155.077779 
L 340.035515 162.400037 
M 348.087273 155.077779 
L 348.087273 144.052186 
M 348.087273 122.621869 
L 339.074213 126.990615 
M 348.087273 122.621869 
L 339.653397 116.174976 
M 348.087273 122.621869 
L 348.087273 133.272681 
M 348.087273 112.109685 
L 339.653397 116.174976 
M 348.087273 112.109685 
L 340.246541 106.469883 
M 348.087273 112.109685 
L 348.087273 122.621869 
M 348.087273 166.154018 
L 340.035515 162.400037 
M 348.087273 166.154018 
L 348.087273 155.077779 
M 340.43549 173.032149 
L 331.933112 170.591396 
M 340.43549 173.032149 
L 340.035515 162.400037 
M 340.43549 173.032149 
L 332.143163 180.459596 
M 340.43549 173.032149 
L 348.087273 166.154018 
M 342.450945 97.465589 
L 340.246541 106.469883 
M 342.450945 97.465589 
L 333.868053 99.588863 
M 348.087273 101.833751 
L 340.246541 106.469883 
M 348.087273 101.833751 
L 348.087273 112.109685 
M 348.087273 101.833751 
L 342.450945 97.465589 
M 338.089211 91.557818 
L 328.09115 91.557818 
M 338.089211 91.557818 
L 333.868053 99.588863 
M 338.089211 91.557818 
L 342.450945 97.465589 
M 337.054862 188.954182 
L 326.022451 188.954182 
M 337.054862 188.954182 
L 332.143163 180.459596 
M 341.911369 182.634132 
L 332.143163 180.459596 
M 341.911369 182.634132 
L 340.43549 173.032149 
M 341.911369 182.634132 
L 337.054862 188.954182 
M 348.087273 177.553937 
L 348.087273 166.154018 
M 348.087273 177.553937 
L 340.43549 173.032149 
M 348.087273 177.553937 
L 341.911369 182.634132 
M 348.087273 91.557818 
L 342.450945 97.465589 
M 348.087273 91.557818 
L 348.087273 101.833751 
M 348.087273 91.557818 
L 338.089211 91.557818 
M 348.087273 188.954182 
L 337.054862 188.954182 
M 348.087273 188.954182 
L 341.911369 182.634132 
M 348.087273 188.954182 
L 348.087273 177.553937 
L 348.087273 177.553937 
" style="fill:none;stroke:#1f77b4;stroke-linecap:square;stroke-width:0.5;"/>
   </g>
   <g id="line2d_2"/>
   <g id="line2d_3">
    <path clip-path="url(#p9828844a17)" d="M 23.432727 91.557818 
L 23.432727 102.896183 
L 23.432727 114.234549 
L 23.432727 125.286828 
L 23.432727 136.289371 
L 23.432727 147.077317 
L 23.432727 157.744491 
L 23.432727 168.291543 
L 23.432727 178.623025 
L 23.432727 188.954182 
L 33.377221 188.954182 
L 43.321714 188.954182 
L 53.266207 188.954182 
L 63.210376 188.954182 
L 73.15487 188.954182 
L 83.099363 188.954182 
L 93.043856 188.954182 
L 102.98835 188.954182 
L 113.23672 188.954182 
L 123.543852 188.954182 
L 133.850985 188.954182 
L 144.158117 188.954182 
L 154.465152 188.954182 
L 164.772252 188.954182 
L 175.07932 188.954182 
L 185.386433 188.954182 
L 196.043043 188.954182 
L 206.712782 188.954182 
L 217.382521 188.954182 
L 228.052098 188.954182 
L 238.72187 188.954182 
L 249.391642 188.954182 
L 260.061413 188.954182 
L 270.860722 188.954182 
L 281.893133 188.954182 
L 292.925544 188.954182 
L 303.95763 188.954182 
L 314.99004 188.954182 
L 326.022451 188.954182 
L 337.054862 188.954182 
L 348.087273 188.954182 
L 348.087273 177.553937 
L 348.087273 166.154018 
L 348.087273 155.077779 
L 348.087273 144.052186 
L 348.087273 133.272681 
L 348.087273 122.621869 
L 348.087273 112.109685 
L 348.087273 101.833751 
L 348.087273 91.557818 
" style="fill:none;stroke:#2ca02c;stroke-linecap:square;stroke-width:1.5;"/>
   </g>
   <g id="line2d_4">
    <path clip-path="url(#p9828844a17)" d="M 348.087273 91.557818 
L 338.089211 91.557818 
L 328.09115 91.557818 
L 318.093089 91.557818 
L 308.095352 91.557818 
L 298.09729 91.557818 
L 288.099229 91.557818 
L 278.101168 91.557818 
L 268.103106 91.557818 
L 257.8187 91.557818 
L 247.495659 91.557818 
L 237.172943 91.557818 
L 226.849903 91.557818 
L 216.527024 91.557818 
L 206.204146 91.557818 
L 195.881268 91.557818 
L 185.552028 91.557818 
L 174.904266 91.557818 
L 164.256506 91.557818 
L 153.608779 91.557818 
L 142.961116 91.557818 
L 132.313096 91.557818 
L 121.665401 91.557818 
L 111.017706 91.557818 
L 100.241123 91.557818 
L 89.268449 91.557818 
L 78.295774 91.557818 
L 67.3231 91.557818 
L 56.350426 91.557818 
L 45.378076 91.557818 
L 34.405402 91.557818 
L 23.432727 91.557818 
" style="fill:none;stroke:#d62728;stroke-linecap:square;stroke-width:1.5;"/>
   </g>
   <g id="legend_1">
    <g id="patch_2">
     <path d="M 296.937188 59.234375 
L 357.32 59.234375 
Q 359.32 59.234375 359.32 57.234375 
L 359.32 14.2 
Q 359.32 12.2 357.32 12.2 
L 296.937188 12.2 
Q 294.937188 12.2 294.937188 14.2 
L 294.937188 57.234375 
Q 294.937188 59.234375 296.937188 59.234375 
z
" style="fill:#ffffff;opacity:0.8;stroke:#cccccc;stroke-linejoin:miter;"/>
    </g>
    <g id="text_1">
     <!-- Boundaries -->
     <defs>
      <path d="M 19.671875 34.8125 
L 19.671875 8.109375 
L 35.5 8.109375 
Q 43.453125 8.109375 47.28125 11.40625 
Q 51.125 14.703125 51.125 21.484375 
Q 51.125 28.328125 47.28125 31.5625 
Q 43.453125 34.8125 35.5 34.8125 
z
M 19.671875 64.796875 
L 19.671875 42.828125 
L 34.28125 42.828125 
Q 41.5 42.828125 45.03125 45.53125 
Q 48.578125 48.25 48.578125 53.8125 
Q 48.578125 59.328125 45.03125 62.0625 
Q 41.5 64.796875 34.28125 64.796875 
z
M 9.8125 72.90625 
L 35.015625 72.90625 
Q 46.296875 72.90625 52.390625 68.21875 
Q 58.5 63.53125 58.5 54.890625 
Q 58.5 48.1875 55.375 44.234375 
Q 52.25 40.28125 46.1875 39.3125 
Q 53.46875 37.75 57.5 32.78125 
Q 61.53125 27.828125 61.53125 20.40625 
Q 61.53125 10.640625 54.890625 5.3125 
Q 48.25 0 35.984375 0 
L 9.8125 0 
z
" id="DejaVuSans-66"/>
      <path d="M 30.609375 48.390625 
Q 23.390625 48.390625 19.1875 42.75 
Q 14.984375 37.109375 14.984375 27.296875 
Q 14.984375 17.484375 19.15625 11.84375 
Q 23.34375 6.203125 30.609375 6.203125 
Q 37.796875 6.203125 41.984375 11.859375 
Q 46.1875 17.53125 46.1875 27.296875 
Q 46.1875 37.015625 41.984375 42.703125 
Q 37.796875 48.390625 30.609375 48.390625 
z
M 30.609375 56 
Q 42.328125 56 49.015625 48.375 
Q 55.71875 40.765625 55.71875 27.296875 
Q 55.71875 13.875 49.015625 6.21875 
Q 42.328125 -1.421875 30.609375 -1.421875 
Q 18.84375 -1.421875 12.171875 6.21875 
Q 5.515625 13.875 5.515625 27.296875 
Q 5.515625 40.765625 12.171875 48.375 
Q 18.84375 56 30.609375 56 
z
" id="DejaVuSans-111"/>
      <path d="M 8.5 21.578125 
L 8.5 54.6875 
L 17.484375 54.6875 
L 17.484375 21.921875 
Q 17.484375 14.15625 20.5 10.265625 
Q 23.53125 6.390625 29.59375 6.390625 
Q 36.859375 6.390625 41.078125 11.03125 
Q 45.3125 15.671875 45.3125 23.6875 
L 45.3125 54.6875 
L 54.296875 54.6875 
L 54.296875 0 
L 45.3125 0 
L 45.3125 8.40625 
Q 42.046875 3.421875 37.71875 1 
Q 33.40625 -1.421875 27.6875 -1.421875 
Q 18.265625 -1.421875 13.375 4.4375 
Q 8.5 10.296875 8.5 21.578125 
z
M 31.109375 56 
z
" id="DejaVuSans-117"/>
      <path d="M 54.890625 33.015625 
L 54.890625 0 
L 45.90625 0 
L 45.90625 32.71875 
Q 45.90625 40.484375 42.875 44.328125 
Q 39.84375 48.1875 33.796875 48.1875 
Q 26.515625 48.1875 22.3125 43.546875 
Q 18.109375 38.921875 18.109375 30.90625 
L 18.109375 0 
L 9.078125 0 
L 9.078125 54.6875 
L 18.109375 54.6875 
L 18.109375 46.1875 
Q 21.34375 51.125 25.703125 53.5625 
Q 30.078125 56 35.796875 56 
Q 45.21875 56 50.046875 50.171875 
Q 54.890625 44.34375 54.890625 33.015625 
z
" id="DejaVuSans-110"/>
      <path d="M 45.40625 46.390625 
L 45.40625 75.984375 
L 54.390625 75.984375 
L 54.390625 0 
L 45.40625 0 
L 45.40625 8.203125 
Q 42.578125 3.328125 38.25 0.953125 
Q 33.9375 -1.421875 27.875 -1.421875 
Q 17.96875 -1.421875 11.734375 6.484375 
Q 5.515625 14.40625 5.515625 27.296875 
Q 5.515625 40.1875 11.734375 48.09375 
Q 17.96875 56 27.875 56 
Q 33.9375 56 38.25 53.625 
Q 42.578125 51.265625 45.40625 46.390625 
z
M 14.796875 27.296875 
Q 14.796875 17.390625 18.875 11.75 
Q 22.953125 6.109375 30.078125 6.109375 
Q 37.203125 6.109375 41.296875 11.75 
Q 45.40625 17.390625 45.40625 27.296875 
Q 45.40625 37.203125 41.296875 42.84375 
Q 37.203125 48.484375 30.078125 48.484375 
Q 22.953125 48.484375 18.875 42.84375 
Q 14.796875 37.203125 14.796875 27.296875 
z
" id="DejaVuSans-100"/>
      <path d="M 34.28125 27.484375 
Q 23.390625 27.484375 19.1875 25 
Q 14.984375 22.515625 14.984375 16.5 
Q 14.984375 11.71875 18.140625 8.90625 
Q 21.296875 6.109375 26.703125 6.109375 
Q 34.1875 6.109375 38.703125 11.40625 
Q 43.21875 16.703125 43.21875 25.484375 
L 43.21875 27.484375 
z
M 52.203125 31.203125 
L 52.203125 0 
L 43.21875 0 
L 43.21875 8.296875 
Q 40.140625 3.328125 35.546875 0.953125 
Q 30.953125 -1.421875 24.3125 -1.421875 
Q 15.921875 -1.421875 10.953125 3.296875 
Q 6 8.015625 6 15.921875 
Q 6 25.140625 12.171875 29.828125 
Q 18.359375 34.515625 30.609375 34.515625 
L 43.21875 34.515625 
L 43.21875 35.40625 
Q 43.21875 41.609375 39.140625 45 
Q 35.0625 48.390625 27.6875 48.390625 
Q 23 48.390625 18.546875 47.265625 
Q 14.109375 46.140625 10.015625 43.890625 
L 10.015625 52.203125 
Q 14.9375 54.109375 19.578125 55.046875 
Q 24.21875 56 28.609375 56 
Q 40.484375 56 46.34375 49.84375 
Q 52.203125 43.703125 52.203125 31.203125 
z
" id="DejaVuSans-97"/>
      <path d="M 41.109375 46.296875 
Q 39.59375 47.171875 37.8125 47.578125 
Q 36.03125 48 33.890625 48 
Q 26.265625 48 22.1875 43.046875 
Q 18.109375 38.09375 18.109375 28.8125 
L 18.109375 0 
L 9.078125 0 
L 9.078125 54.6875 
L 18.109375 54.6875 
L 18.109375 46.1875 
Q 20.953125 51.171875 25.484375 53.578125 
Q 30.03125 56 36.53125 56 
Q 37.453125 56 38.578125 55.875 
Q 39.703125 55.765625 41.0625 55.515625 
z
" id="DejaVuSans-114"/>
      <path d="M 9.421875 54.6875 
L 18.40625 54.6875 
L 18.40625 0 
L 9.421875 0 
z
M 9.421875 75.984375 
L 18.40625 75.984375 
L 18.40625 64.59375 
L 9.421875 64.59375 
z
" id="DejaVuSans-105"/>
      <path d="M 56.203125 29.59375 
L 56.203125 25.203125 
L 14.890625 25.203125 
Q 15.484375 15.921875 20.484375 11.0625 
Q 25.484375 6.203125 34.421875 6.203125 
Q 39.59375 6.203125 44.453125 7.46875 
Q 49.3125 8.734375 54.109375 11.28125 
L 54.109375 2.78125 
Q 49.265625 0.734375 44.1875 -0.34375 
Q 39.109375 -1.421875 33.890625 -1.421875 
Q 20.796875 -1.421875 13.15625 6.1875 
Q 5.515625 13.8125 5.515625 26.8125 
Q 5.515625 40.234375 12.765625 48.109375 
Q 20.015625 56 32.328125 56 
Q 43.359375 56 49.78125 48.890625 
Q 56.203125 41.796875 56.203125 29.59375 
z
M 47.21875 32.234375 
Q 47.125 39.59375 43.09375 43.984375 
Q 39.0625 48.390625 32.421875 48.390625 
Q 24.90625 48.390625 20.390625 44.140625 
Q 15.875 39.890625 15.1875 32.171875 
z
" id="DejaVuSans-101"/>
      <path d="M 44.28125 53.078125 
L 44.28125 44.578125 
Q 40.484375 46.53125 36.375 47.5 
Q 32.28125 48.484375 27.875 48.484375 
Q 21.1875 48.484375 17.84375 46.4375 
Q 14.5 44.390625 14.5 40.28125 
Q 14.5 37.15625 16.890625 35.375 
Q 19.28125 33.59375 26.515625 31.984375 
L 29.59375 31.296875 
Q 39.15625 29.25 43.1875 25.515625 
Q 47.21875 21.78125 47.21875 15.09375 
Q 47.21875 7.46875 41.1875 3.015625 
Q 35.15625 -1.421875 24.609375 -1.421875 
Q 20.21875 -1.421875 15.453125 -0.5625 
Q 10.6875 0.296875 5.421875 2 
L 5.421875 11.28125 
Q 10.40625 8.6875 15.234375 7.390625 
Q 20.0625 6.109375 24.8125 6.109375 
Q 31.15625 6.109375 34.5625 8.28125 
Q 37.984375 10.453125 37.984375 14.40625 
Q 37.984375 18.0625 35.515625 20.015625 
Q 33.0625 21.96875 24.703125 23.78125 
L 21.578125 24.515625 
Q 13.234375 26.265625 9.515625 29.90625 
Q 5.8125 33.546875 5.8125 39.890625 
Q 5.8125 47.609375 11.28125 51.796875 
Q 16.75 56 26.8125 56 
Q 31.78125 56 36.171875 55.265625 
Q 40.578125 54.546875 44.28125 53.078125 
z
" id="DejaVuSans-115"/>
     </defs>
     <g transform="translate(298.937188 23.798437)scale(0.1 -0.1)">
      <use xlink:href="#DejaVuSans-66"/>
      <use x="68.603516" xlink:href="#DejaVuSans-111"/>
      <use x="129.785156" xlink:href="#DejaVuSans-117"/>
      <use x="193.164062" xlink:href="#DejaVuSans-110"/>
      <use x="256.542969" xlink:href="#DejaVuSans-100"/>
      <use x="320.019531" xlink:href="#DejaVuSans-97"/>
      <use x="381.298828" xlink:href="#DejaVuSans-114"/>
      <use x="422.412109" xlink:href="#DejaVuSans-105"/>
      <use x="450.195312" xlink:href="#DejaVuSans-101"/>
      <use x="511.71875" xlink:href="#DejaVuSans-115"/>
     </g>
    </g>
    <g id="line2d_5">
     <path d="M 309.947344 34.976562 
L 329.947344 34.976562 
" style="fill:none;stroke:#2ca02c;stroke-linecap:square;stroke-width:1.5;"/>
    </g>
    <g id="line2d_6"/>
    <g id="text_2">
     <!-- 1 -->
     <defs>
      <path d="M 12.40625 8.296875 
L 28.515625 8.296875 
L 28.515625 63.921875 
L 10.984375 60.40625 
L 10.984375 69.390625 
L 28.421875 72.90625 
L 38.28125 72.90625 
L 38.28125 8.296875 
L 54.390625 8.296875 
L 54.390625 0 
L 12.40625 0 
z
" id="DejaVuSans-49"/>
     </defs>
     <g transform="translate(337.947344 38.476562)scale(0.1 -0.1)">
      <use xlink:href="#DejaVuSans-49"/>
     </g>
    </g>
    <g id="line2d_7">
     <path d="M 309.947344 49.654687 
L 329.947344 49.654687 
" style="fill:none;stroke:#d62728;stroke-linecap:square;stroke-width:1.5;"/>
    </g>
    <g id="line2d_8"/>
    <g id="text_3">
     <!-- 2 -->
     <defs>
      <path d="M 19.1875 8.296875 
L 53.609375 8.296875 
L 53.609375 0 
L 7.328125 0 
L 7.328125 8.296875 
Q 12.9375 14.109375 22.625 23.890625 
Q 32.328125 33.6875 34.8125 36.53125 
Q 39.546875 41.84375 41.421875 45.53125 
Q 43.3125 49.21875 43.3125 52.78125 
Q 43.3125 58.59375 39.234375 62.25 
Q 35.15625 65.921875 28.609375 65.921875 
Q 23.96875 65.921875 18.8125 64.3125 
Q 13.671875 62.703125 7.8125 59.421875 
L 7.8125 69.390625 
Q 13.765625 71.78125 18.9375 73 
Q 24.125 74.21875 28.421875 74.21875 
Q 39.75 74.21875 46.484375 68.546875 
Q 53.21875 62.890625 53.21875 53.421875 
Q 53.21875 48.921875 51.53125 44.890625 
Q 49.859375 40.875 45.40625 35.40625 
Q 44.1875 33.984375 37.640625 27.21875 
Q 31.109375 20.453125 19.1875 8.296875 
z
" id="DejaVuSans-50"/>
     </defs>
     <g transform="translate(337.947344 53.154687)scale(0.1 -0.1)">
      <use xlink:href="#DejaVuSans-50"/>
     </g>
    </g>
   </g>
  </g>
 </g>
 <defs>
  <clipPath id="p9828844a17">
   <rect height="266.112" width="357.12" x="7.2" y="7.2"/>
  </clipPath>
 </defs>
</svg>
