<?xml version="1.0" encoding="utf-8" standalone="no"?>
<!DOCTYPE svg PUBLIC "-//W3C//DTD SVG 1.1//EN"
  "http://www.w3.org/Graphics/SVG/1.1/DTD/svg11.dtd">
<!-- Created with matplotlib (https://matplotlib.org/) -->
<svg height="280.512pt" version="1.1" viewBox="0 0 371.52 280.512" width="371.52pt" xmlns="http://www.w3.org/2000/svg" xmlns:xlink="http://www.w3.org/1999/xlink">
 <metadata>
  <rdf:RDF xmlns:cc="http://creativecommons.org/ns#" xmlns:dc="http://purl.org/dc/elements/1.1/" xmlns:rdf="http://www.w3.org/1999/02/22-rdf-syntax-ns#">
   <cc:Work>
    <dc:type rdf:resource="http://purl.org/dc/dcmitype/StillImage"/>
    <dc:date>2024-04-02T11:48:10.882616</dc:date>
    <dc:format>image/svg+xml</dc:format>
    <dc:creator>
     <cc:Agent>
      <dc:title>Matplotlib v3.3.4, https://matplotlib.org/</dc:title>
     </cc:Agent>
    </dc:creator>
   </cc:Work>
  </rdf:RDF>
 </metadata>
 <defs>
  <style type="text/css">*{stroke-linecap:butt;stroke-linejoin:round;}</style>
 </defs>
 <g id="figure_1">
  <g id="patch_1">
   <path d="M 0 280.512 
L 371.52 280.512 
L 371.52 0 
L 0 0 
z
" style="fill:#ffffff;"/>
  </g>
  <g id="axes_1">
   <g id="line2d_1">
    <path clip-path="url(#p1ca21ef6ad)" d="M 282.528 19.296 
L 306.72 19.296 
M 291.722532 34.411645 
L 306.72 19.296 
M 291.722532 34.411645 
L 282.528 19.296 
M 306.72 43.488 
L 306.72 19.296 
M 306.72 43.488 
L 291.722532 34.411645 
M 258.336 19.296 
L 282.528 19.296 
M 270.729804 37.731997 
L 282.528 19.296 
M 270.729804 37.731997 
L 291.722532 34.411645 
M 270.729804 37.731997 
L 258.336 19.296 
M 288.313638 55.615812 
L 291.722532 34.411645 
M 288.313638 55.615812 
L 306.72 43.488 
M 288.313638 55.615812 
L 270.729804 37.731997 
M 306.72 67.68 
L 306.72 43.488 
M 306.72 67.68 
L 288.313638 55.615812 
M 306.72 91.872 
L 306.72 67.68 
M 306.72 116.064 
L 306.72 91.872 
M 268.249761 57.724266 
L 270.729804 37.731997 
M 268.249761 57.724266 
L 288.313638 55.615812 
M 234.144 19.296 
L 258.336 19.296 
M 248.54199 42.806028 
L 258.336 19.296 
M 248.54199 42.806028 
L 270.729804 37.731997 
M 248.54199 42.806028 
L 268.249761 57.724266 
M 248.54199 42.806028 
L 234.144 19.296 
M 282.121332 78.68615 
L 288.313638 55.615812 
M 282.121332 78.68615 
L 306.72 67.68 
M 282.121332 78.68615 
L 306.72 91.872 
M 282.121332 78.68615 
L 268.249761 57.724266 
M 285.748923 101.533196 
L 306.72 91.872 
M 285.748923 101.533196 
L 306.72 116.064 
M 285.748923 101.533196 
L 282.121332 78.68615 
M 291.929858 121.604815 
L 306.72 116.064 
M 291.929858 121.604815 
L 285.748923 101.533196 
M 306.72 140.256 
L 306.72 116.064 
M 295.171949 136.668641 
L 306.72 116.064 
M 295.171949 136.668641 
L 291.929858 121.604815 
M 295.171949 136.668641 
L 306.72 140.256 
M 209.952 19.296 
L 234.144 19.296 
M 255.892608 71.381497 
L 268.249761 57.724266 
M 255.892608 71.381497 
L 248.54199 42.806028 
M 255.892608 71.381497 
L 282.121332 78.68615 
M 224.211491 42.016038 
L 234.144 19.296 
M 224.211491 42.016038 
L 248.54199 42.806028 
M 224.211491 42.016038 
L 209.952 19.296 
M 235.766316 61.420804 
L 248.54199 42.806028 
M 235.766316 61.420804 
L 255.892608 71.381497 
M 235.766316 61.420804 
L 224.211491 42.016038 
M 306.72 164.448 
L 306.72 140.256 
M 260.910029 95.933353 
L 282.121332 78.68615 
M 260.910029 95.933353 
L 285.748923 101.533196 
M 260.910029 95.933353 
L 255.892608 71.381497 
M 271.844087 119.10058 
L 285.748923 101.533196 
M 271.844087 119.10058 
L 291.929858 121.604815 
M 271.844087 119.10058 
L 260.910029 95.933353 
M 282.528 140.256 
L 291.929858 121.604815 
M 282.528 140.256 
L 295.171949 136.668641 
M 282.528 140.256 
L 271.844087 119.10058 
M 294.628476 153.193882 
L 306.72 140.256 
M 294.628476 153.193882 
L 295.171949 136.668641 
M 294.628476 153.193882 
L 306.72 164.448 
M 294.628476 153.193882 
L 282.528 140.256 
M 291.079509 166.974008 
L 306.72 164.448 
M 291.079509 166.974008 
L 294.628476 153.193882 
M 306.72 188.64 
L 306.72 164.448 
M 306.72 212.832 
L 306.72 188.64 
M 306.72 237.024 
L 306.72 212.832 
M 185.76 19.296 
L 209.952 19.296 
M 203.658814 43.473122 
L 209.952 19.296 
M 203.658814 43.473122 
L 224.211491 42.016038 
M 203.658814 43.473122 
L 185.76 19.296 
M 236.891002 84.779873 
L 255.892608 71.381497 
M 236.891002 84.779873 
L 235.766316 61.420804 
M 236.891002 84.779873 
L 260.910029 95.933353 
M 215.295045 69.700395 
L 224.211491 42.016038 
M 215.295045 69.700395 
L 235.766316 61.420804 
M 215.295045 69.700395 
L 203.658814 43.473122 
M 215.295045 69.700395 
L 236.891002 84.779873 
M 306.72 261.216 
L 306.72 237.024 
M 291.281391 243.792075 
L 306.72 237.024 
M 291.281391 243.792075 
L 306.72 261.216 
M 291.104185 181.723386 
L 306.72 164.448 
M 291.104185 181.723386 
L 291.079509 166.974008 
M 291.104185 181.723386 
L 306.72 188.64 
M 252.663823 121.024207 
L 260.910029 95.933353 
M 252.663823 121.024207 
L 271.844087 119.10058 
M 238.277687 108.85297 
L 260.910029 95.933353 
M 238.277687 108.85297 
L 236.891002 84.779873 
M 238.277687 108.85297 
L 252.663823 121.024207 
M 261.591276 142.683437 
L 271.844087 119.10058 
M 261.591276 142.683437 
L 282.528 140.256 
M 261.591276 142.683437 
L 252.663823 121.024207 
M 277.6896 164.448 
L 282.528 140.256 
M 277.6896 164.448 
L 294.628476 153.193882 
M 277.6896 164.448 
L 291.079509 166.974008 
M 277.6896 164.448 
L 291.104185 181.723386 
M 277.6896 164.448 
L 261.591276 142.683437 
M 288.419115 202.51387 
L 306.72 188.64 
M 288.419115 202.51387 
L 306.72 212.832 
M 288.419115 202.51387 
L 291.104185 181.723386 
M 285.356408 225.055734 
L 306.72 212.832 
M 285.356408 225.055734 
L 306.72 237.024 
M 285.356408 225.055734 
L 291.281391 243.792075 
M 285.356408 225.055734 
L 288.419115 202.51387 
M 185.387212 44.394595 
L 185.76 19.296 
M 185.387212 44.394595 
L 203.658814 43.473122 
M 161.568 19.296 
L 185.76 19.296 
M 167.245983 38.977885 
L 185.76 19.296 
M 167.245983 38.977885 
L 185.387212 44.394595 
M 167.245983 38.977885 
L 161.568 19.296 
M 193.377589 67.101569 
L 203.658814 43.473122 
M 193.377589 67.101569 
L 215.295045 69.700395 
M 193.377589 67.101569 
L 185.387212 44.394595 
M 217.4087 98.175468 
L 236.891002 84.779873 
M 217.4087 98.175468 
L 215.295045 69.700395 
M 217.4087 98.175468 
L 238.277687 108.85297 
M 221.559443 122.291868 
L 238.277687 108.85297 
M 221.559443 122.291868 
L 217.4087 98.175468 
M 198.706833 90.89549 
L 215.295045 69.700395 
M 198.706833 90.89549 
L 193.377589 67.101569 
M 198.706833 90.89549 
L 217.4087 98.175468 
M 282.528 261.216 
L 306.72 261.216 
M 282.528 261.216 
L 291.281391 243.792075 
M 273.122513 247.183551 
L 291.281391 243.792075 
M 273.122513 247.183551 
L 285.356408 225.055734 
M 273.122513 247.183551 
L 282.528 261.216 
M 272.8512 188.64 
L 291.104185 181.723386 
M 272.8512 188.64 
L 277.6896 164.448 
M 272.8512 188.64 
L 288.419115 202.51387 
M 237.859044 139.456366 
L 252.663823 121.024207 
M 237.859044 139.456366 
L 238.277687 108.85297 
M 237.859044 139.456366 
L 261.591276 142.683437 
M 237.859044 139.456366 
L 221.559443 122.291868 
M 253.75718 163.959926 
L 261.591276 142.683437 
M 253.75718 163.959926 
L 277.6896 164.448 
M 253.75718 163.959926 
L 272.8512 188.64 
M 253.75718 163.959926 
L 237.859044 139.456366 
M 268.0128 212.832 
L 288.419115 202.51387 
M 268.0128 212.832 
L 285.356408 225.055734 
M 268.0128 212.832 
L 272.8512 188.64 
M 263.1744 237.024 
L 285.356408 225.055734 
M 263.1744 237.024 
L 273.122513 247.183551 
M 263.1744 237.024 
L 268.0128 212.832 
M 252.875261 200.112693 
L 272.8512 188.64 
M 252.875261 200.112693 
L 268.0128 212.832 
M 171.68836 62.669837 
L 185.387212 44.394595 
M 171.68836 62.669837 
L 167.245983 38.977885 
M 171.68836 62.669837 
L 193.377589 67.101569 
M 137.376 19.296 
L 161.568 19.296 
M 145.134253 37.111715 
L 161.568 19.296 
M 145.134253 37.111715 
L 167.245983 38.977885 
M 145.134253 37.111715 
L 137.376 19.296 
M 151.147901 57.447147 
L 167.245983 38.977885 
M 151.147901 57.447147 
L 171.68836 62.669837 
M 151.147901 57.447147 
L 145.134253 37.111715 
M 176.335087 85.261052 
L 193.377589 67.101569 
M 176.335087 85.261052 
L 198.706833 90.89549 
M 176.335087 85.261052 
L 171.68836 62.669837 
M 212.239233 143.081964 
L 221.559443 122.291868 
M 212.239233 143.081964 
L 237.859044 139.456366 
M 199.536134 119.40927 
L 217.4087 98.175468 
M 199.536134 119.40927 
L 221.559443 122.291868 
M 199.536134 119.40927 
L 198.706833 90.89549 
M 199.536134 119.40927 
L 212.239233 143.081964 
M 181.995023 106.363855 
L 198.706833 90.89549 
M 181.995023 106.363855 
L 176.335087 85.261052 
M 181.995023 106.363855 
L 199.536134 119.40927 
M 258.336 261.216 
L 282.528 261.216 
M 258.336 261.216 
L 273.122513 247.183551 
M 258.336 261.216 
L 263.1744 237.024 
M 243.847169 243.175663 
L 263.1744 237.024 
M 243.847169 243.175663 
L 258.336 261.216 
M 242.292712 182.086629 
L 272.8512 188.64 
M 242.292712 182.086629 
L 253.75718 163.959926 
M 242.292712 182.086629 
L 252.875261 200.112693 
M 227.152754 163.539953 
L 237.859044 139.456366 
M 227.152754 163.539953 
L 253.75718 163.959926 
M 227.152754 163.539953 
L 212.239233 143.081964 
M 227.152754 163.539953 
L 242.292712 182.086629 
M 242.540076 221.38738 
L 268.0128 212.832 
M 242.540076 221.38738 
L 263.1744 237.024 
M 242.540076 221.38738 
L 252.875261 200.112693 
M 242.540076 221.38738 
L 243.847169 243.175663 
M 231.239388 201.031626 
L 252.875261 200.112693 
M 231.239388 201.031626 
L 242.292712 182.086629 
M 231.239388 201.031626 
L 242.540076 221.38738 
M 155.036039 79.887283 
L 171.68836 62.669837 
M 155.036039 79.887283 
L 151.147901 57.447147 
M 155.036039 79.887283 
L 176.335087 85.261052 
M 113.184 19.296 
L 137.376 19.296 
M 129.491827 53.689645 
L 145.134253 37.111715 
M 129.491827 53.689645 
L 151.147901 57.447147 
M 121.037207 37.784252 
L 137.376 19.296 
M 121.037207 37.784252 
L 145.134253 37.111715 
M 121.037207 37.784252 
L 113.184 19.296 
M 121.037207 37.784252 
L 129.491827 53.689645 
M 131.828532 72.3672 
L 151.147901 57.447147 
M 131.828532 72.3672 
L 155.036039 79.887283 
M 131.828532 72.3672 
L 129.491827 53.689645 
M 159.382979 104.77565 
L 176.335087 85.261052 
M 159.382979 104.77565 
L 181.995023 106.363855 
M 159.382979 104.77565 
L 155.036039 79.887283 
M 202.345793 165.884884 
L 212.239233 143.081964 
M 202.345793 165.884884 
L 227.152754 163.539953 
M 187.988869 144.374833 
L 212.239233 143.081964 
M 187.988869 144.374833 
L 199.536134 119.40927 
M 187.988869 144.374833 
L 202.345793 165.884884 
M 174.569313 127.136316 
L 199.536134 119.40927 
M 174.569313 127.136316 
L 181.995023 106.363855 
M 174.569313 127.136316 
L 159.382979 104.77565 
M 174.569313 127.136316 
L 187.988869 144.374833 
M 234.144 261.216 
L 258.336 261.216 
M 234.144 261.216 
L 243.847169 243.175663 
M 222.844522 239.096287 
L 243.847169 243.175663 
M 222.844522 239.096287 
L 242.540076 221.38738 
M 222.844522 239.096287 
L 234.144 261.216 
M 213.354968 188.502952 
L 242.292712 182.086629 
M 213.354968 188.502952 
L 227.152754 163.539953 
M 213.354968 188.502952 
L 231.239388 201.031626 
M 213.354968 188.502952 
L 202.345793 165.884884 
M 216.522063 216.216945 
L 242.540076 221.38738 
M 216.522063 216.216945 
L 231.239388 201.031626 
M 216.522063 216.216945 
L 222.844522 239.096287 
M 216.522063 216.216945 
L 213.354968 188.502952 
M 137.740573 92.8825 
L 155.036039 79.887283 
M 137.740573 92.8825 
L 131.828532 72.3672 
M 137.740573 92.8825 
L 159.382979 104.77565 
M 88.992 19.296 
L 113.184 19.296 
M 99.652689 39.255731 
L 113.184 19.296 
M 99.652689 39.255731 
L 121.037207 37.784252 
M 99.652689 39.255731 
L 88.992 19.296 
M 107.817731 61.142233 
L 129.491827 53.689645 
M 107.817731 61.142233 
L 121.037207 37.784252 
M 107.817731 61.142233 
L 131.828532 72.3672 
M 107.817731 61.142233 
L 99.652689 39.255731 
M 154.497767 128.879277 
L 159.382979 104.77565 
M 154.497767 128.879277 
L 174.569313 127.136316 
M 112.381672 83.17546 
L 131.828532 72.3672 
M 112.381672 83.17546 
L 137.740573 92.8825 
M 112.381672 83.17546 
L 107.817731 61.142233 
M 137.529135 116.048396 
L 159.382979 104.77565 
M 137.529135 116.048396 
L 137.740573 92.8825 
M 137.529135 116.048396 
L 154.497767 128.879277 
M 178.759488 165.870248 
L 202.345793 165.884884 
M 178.759488 165.870248 
L 187.988869 144.374833 
M 186.986571 187.39266 
L 202.345793 165.884884 
M 186.986571 187.39266 
L 213.354968 188.502952 
M 186.986571 187.39266 
L 178.759488 165.870248 
M 160.729384 151.482648 
L 187.988869 144.374833 
M 160.729384 151.482648 
L 174.569313 127.136316 
M 160.729384 151.482648 
L 154.497767 128.879277 
M 160.729384 151.482648 
L 178.759488 165.870248 
M 209.952 261.216 
L 234.144 261.216 
M 209.952 261.216 
L 222.844522 239.096287 
M 200.1996 237.288177 
L 222.844522 239.096287 
M 200.1996 237.288177 
L 216.522063 216.216945 
M 200.1996 237.288177 
L 209.952 261.216 
M 194.425756 211.544139 
L 213.354968 188.502952 
M 194.425756 211.544139 
L 216.522063 216.216945 
M 194.425756 211.544139 
L 186.986571 187.39266 
M 194.425756 211.544139 
L 200.1996 237.288177 
M 120.35838 103.043866 
L 137.740573 92.8825 
M 120.35838 103.043866 
L 112.381672 83.17546 
M 120.35838 103.043866 
L 137.529135 116.048396 
M 64.8 19.296 
L 88.992 19.296 
M 79.079207 34.086142 
L 88.992 19.296 
M 79.079207 34.086142 
L 99.652689 39.255731 
M 79.079207 34.086142 
L 64.8 19.296 
M 84.550349 56.28956 
L 99.652689 39.255731 
M 84.550349 56.28956 
L 107.817731 61.142233 
M 84.550349 56.28956 
L 79.079207 34.086142 
M 88.010168 79.884017 
L 107.817731 61.142233 
M 88.010168 79.884017 
L 112.381672 83.17546 
M 88.010168 79.884017 
L 84.550349 56.28956 
M 135.399756 139.721262 
L 154.497767 128.879277 
M 135.399756 139.721262 
L 137.529135 116.048396 
M 135.399756 139.721262 
L 160.729384 151.482648 
M 100.15056 103.532423 
L 112.381672 83.17546 
M 100.15056 103.532423 
L 120.35838 103.043866 
M 100.15056 103.532423 
L 88.010168 79.884017 
M 114.468232 123.893136 
L 137.529135 116.048396 
M 114.468232 123.893136 
L 120.35838 103.043866 
M 114.468232 123.893136 
L 135.399756 139.721262 
M 114.468232 123.893136 
L 100.15056 103.532423 
M 160.00556 180.583943 
L 178.759488 165.870248 
M 160.00556 180.583943 
L 186.986571 187.39266 
M 160.00556 180.583943 
L 160.729384 151.482648 
M 171.017637 207.490044 
L 186.986571 187.39266 
M 171.017637 207.490044 
L 194.425756 211.544139 
M 171.017637 207.490044 
L 160.00556 180.583943 
M 137.07735 161.802847 
L 160.729384 151.482648 
M 137.07735 161.802847 
L 135.399756 139.721262 
M 137.07735 161.802847 
L 160.00556 180.583943 
M 185.76 261.216 
L 209.952 261.216 
M 185.76 261.216 
L 200.1996 237.288177 
M 177.892556 235.371565 
L 200.1996 237.288177 
M 177.892556 235.371565 
L 194.425756 211.544139 
M 177.892556 235.371565 
L 171.017637 207.490044 
M 177.892556 235.371565 
L 185.76 261.216 
M 64.8 43.488 
L 64.8 19.296 
M 64.8 43.488 
L 79.079207 34.086142 
M 64.8 43.488 
L 84.550349 56.28956 
M 64.8 67.68 
L 84.550349 56.28956 
M 64.8 67.68 
L 88.010168 79.884017 
M 64.8 67.68 
L 64.8 43.488 
M 64.8 91.872 
L 88.010168 79.884017 
M 64.8 91.872 
L 64.8 67.68 
M 81.641261 103.374449 
L 88.010168 79.884017 
M 81.641261 103.374449 
L 100.15056 103.532423 
M 81.641261 103.374449 
L 64.8 91.872 
M 112.199869 145.329316 
L 135.399756 139.721262 
M 112.199869 145.329316 
L 114.468232 123.893136 
M 112.199869 145.329316 
L 137.07735 161.802847 
M 89.336494 126.868994 
L 100.15056 103.532423 
M 89.336494 126.868994 
L 114.468232 123.893136 
M 89.336494 126.868994 
L 81.641261 103.374449 
M 89.336494 126.868994 
L 112.199869 145.329316 
M 136.416666 183.712332 
L 160.00556 180.583943 
M 136.416666 183.712332 
L 137.07735 161.802847 
M 157.545112 229.36191 
L 171.017637 207.490044 
M 157.545112 229.36191 
L 177.892556 235.371565 
M 148.103459 204.798442 
L 160.00556 180.583943 
M 148.103459 204.798442 
L 171.017637 207.490044 
M 148.103459 204.798442 
L 136.416666 183.712332 
M 148.103459 204.798442 
L 157.545112 229.36191 
M 112.420017 167.30689 
L 137.07735 161.802847 
M 112.420017 167.30689 
L 112.199869 145.329316 
M 112.420017 167.30689 
L 136.416666 183.712332 
M 161.568 261.216 
L 185.76 261.216 
M 161.568 261.216 
L 177.892556 235.371565 
M 161.568 261.216 
L 157.545112 229.36191 
M 64.8 116.064 
L 64.8 91.872 
M 64.8 116.064 
L 81.641261 103.374449 
M 64.8 116.064 
L 89.336494 126.868994 
M 117.625046 185.706962 
L 136.416666 183.712332 
M 117.625046 185.706962 
L 112.420017 167.30689 
M 88.281965 149.982623 
L 112.199869 145.329316 
M 88.281965 149.982623 
L 89.336494 126.868994 
M 88.281965 149.982623 
L 112.420017 167.30689 
M 64.8 140.256 
L 89.336494 126.868994 
M 64.8 140.256 
L 64.8 116.064 
M 64.8 140.256 
L 88.281965 149.982623 
M 90.976591 169.057423 
L 112.420017 167.30689 
M 90.976591 169.057423 
L 88.281965 149.982623 
M 144.66505 243.799574 
L 157.545112 229.36191 
M 144.66505 243.799574 
L 161.568 261.216 
M 123.684175 204.764452 
L 136.416666 183.712332 
M 123.684175 204.764452 
L 148.103459 204.798442 
M 123.684175 204.764452 
L 117.625046 185.706962 
M 132.98237 223.71078 
L 157.545112 229.36191 
M 132.98237 223.71078 
L 148.103459 204.798442 
M 132.98237 223.71078 
L 144.66505 243.799574 
M 132.98237 223.71078 
L 123.684175 204.764452 
M 101.32738 192.715384 
L 112.420017 167.30689 
M 101.32738 192.715384 
L 117.625046 185.706962 
M 101.32738 192.715384 
L 90.976591 169.057423 
M 101.32738 192.715384 
L 123.684175 204.764452 
M 137.376 261.216 
L 161.568 261.216 
M 137.376 261.216 
L 144.66505 243.799574 
M 64.8 164.448 
L 88.281965 149.982623 
M 64.8 164.448 
L 64.8 140.256 
M 64.8 164.448 
L 90.976591 169.057423 
M 81.288783 183.22583 
L 90.976591 169.057423 
M 81.288783 183.22583 
L 101.32738 192.715384 
M 81.288783 183.22583 
L 64.8 164.448 
M 121.545239 241.036122 
L 144.66505 243.799574 
M 121.545239 241.036122 
L 132.98237 223.71078 
M 121.545239 241.036122 
L 137.376 261.216 
M 106.655547 218.949068 
L 123.684175 204.764452 
M 106.655547 218.949068 
L 132.98237 223.71078 
M 106.655547 218.949068 
L 101.32738 192.715384 
M 106.655547 218.949068 
L 121.545239 241.036122 
M 84.697557 205.034314 
L 101.32738 192.715384 
M 84.697557 205.034314 
L 81.288783 183.22583 
M 84.697557 205.034314 
L 106.655547 218.949068 
M 113.184 261.216 
L 137.376 261.216 
M 113.184 261.216 
L 121.545239 241.036122 
M 64.8 188.64 
L 64.8 164.448 
M 64.8 188.64 
L 81.288783 183.22583 
M 64.8 188.64 
L 84.697557 205.034314 
M 100.500255 241.571128 
L 121.545239 241.036122 
M 100.500255 241.571128 
L 106.655547 218.949068 
M 100.500255 241.571128 
L 113.184 261.216 
M 84.397334 225.855279 
L 106.655547 218.949068 
M 84.397334 225.855279 
L 84.697557 205.034314 
M 84.397334 225.855279 
L 100.500255 241.571128 
M 64.8 212.832 
L 84.697557 205.034314 
M 64.8 212.832 
L 64.8 188.64 
M 64.8 212.832 
L 84.397334 225.855279 
M 88.992 261.216 
L 113.184 261.216 
M 88.992 261.216 
L 100.500255 241.571128 
M 79.700095 246.445937 
L 100.500255 241.571128 
M 79.700095 246.445937 
L 84.397334 225.855279 
M 79.700095 246.445937 
L 88.992 261.216 
M 64.8 237.024 
L 84.397334 225.855279 
M 64.8 237.024 
L 64.8 212.832 
M 64.8 237.024 
L 79.700095 246.445937 
M 64.8 261.216 
L 88.992 261.216 
M 64.8 261.216 
L 79.700095 246.445937 
M 64.8 261.216 
L 64.8 237.024 
L 64.8 237.024 
" style="fill:none;stroke:#1f77b4;stroke-linecap:square;stroke-width:1.5;"/>
   </g>
   <g id="line2d_2"/>
   <g id="line2d_3">
    <path clip-path="url(#p1ca21ef6ad)" d="M 306.72 116.064 
L 306.72 91.872 
L 306.72 67.68 
L 306.72 43.488 
L 306.72 19.296 
L 282.528 19.296 
L 258.336 19.296 
L 234.144 19.296 
L 209.952 19.296 
L 185.76 19.296 
L 161.568 19.296 
L 137.376 19.296 
L 113.184 19.296 
L 88.992 19.296 
L 64.8 19.296 
L 64.8 43.488 
L 64.8 67.68 
L 64.8 91.872 
L 64.8 116.064 
L 64.8 140.256 
L 64.8 164.448 
L 64.8 188.64 
L 64.8 212.832 
L 64.8 237.024 
L 64.8 261.216 
L 88.992 261.216 
L 113.184 261.216 
L 137.376 261.216 
L 161.568 261.216 
L 185.76 261.216 
L 209.952 261.216 
L 234.144 261.216 
L 258.336 261.216 
L 282.528 261.216 
L 306.72 261.216 
L 306.72 237.024 
L 306.72 212.832 
L 306.72 188.64 
L 306.72 164.448 
L 306.72 140.256 
L 306.72 116.064 
" style="fill:none;stroke:#2ca02c;stroke-linecap:square;stroke-width:1.5;"/>
   </g>
   <g id="line2d_4">
    <path clip-path="url(#p1ca21ef6ad)" d="M 258.336 261.216 
L 263.1744 237.024 
L 268.0128 212.832 
L 272.8512 188.64 
L 277.6896 164.448 
L 282.528 140.256 
" style="fill:none;stroke:#d62728;stroke-linecap:square;stroke-width:1.5;"/>
   </g>
   <g id="legend_1">
    <g id="patch_2">
     <path d="M 298.518438 156.434125 
L 357.32 156.434125 
Q 359.32 156.434125 359.32 154.434125 
L 359.32 126.077875 
Q 359.32 124.077875 357.32 124.077875 
L 298.518438 124.077875 
Q 296.518438 124.077875 296.518438 126.077875 
L 296.518438 154.434125 
Q 296.518438 156.434125 298.518438 156.434125 
z
" style="fill:#ffffff;opacity:0.8;stroke:#cccccc;stroke-linejoin:miter;"/>
    </g>
    <g id="line2d_5">
     <path d="M 300.518438 132.176312 
L 320.518438 132.176312 
" style="fill:none;stroke:#2ca02c;stroke-linecap:square;stroke-width:1.5;"/>
    </g>
    <g id="line2d_6"/>
    <g id="text_1">
     <!-- basin -->
     <g transform="translate(328.518438 135.676312)scale(0.1 -0.1)">
      <defs>
       <path d="M 48.6875 27.296875 
Q 48.6875 37.203125 44.609375 42.84375 
Q 40.53125 48.484375 33.40625 48.484375 
Q 26.265625 48.484375 22.1875 42.84375 
Q 18.109375 37.203125 18.109375 27.296875 
Q 18.109375 17.390625 22.1875 11.75 
Q 26.265625 6.109375 33.40625 6.109375 
Q 40.53125 6.109375 44.609375 11.75 
Q 48.6875 17.390625 48.6875 27.296875 
z
M 18.109375 46.390625 
Q 20.953125 51.265625 25.265625 53.625 
Q 29.59375 56 35.59375 56 
Q 45.5625 56 51.78125 48.09375 
Q 58.015625 40.1875 58.015625 27.296875 
Q 58.015625 14.40625 51.78125 6.484375 
Q 45.5625 -1.421875 35.59375 -1.421875 
Q 29.59375 -1.421875 25.265625 0.953125 
Q 20.953125 3.328125 18.109375 8.203125 
L 18.109375 0 
L 9.078125 0 
L 9.078125 75.984375 
L 18.109375 75.984375 
z
" id="DejaVuSans-98"/>
       <path d="M 34.28125 27.484375 
Q 23.390625 27.484375 19.1875 25 
Q 14.984375 22.515625 14.984375 16.5 
Q 14.984375 11.71875 18.140625 8.90625 
Q 21.296875 6.109375 26.703125 6.109375 
Q 34.1875 6.109375 38.703125 11.40625 
Q 43.21875 16.703125 43.21875 25.484375 
L 43.21875 27.484375 
z
M 52.203125 31.203125 
L 52.203125 0 
L 43.21875 0 
L 43.21875 8.296875 
Q 40.140625 3.328125 35.546875 0.953125 
Q 30.953125 -1.421875 24.3125 -1.421875 
Q 15.921875 -1.421875 10.953125 3.296875 
Q 6 8.015625 6 15.921875 
Q 6 25.140625 12.171875 29.828125 
Q 18.359375 34.515625 30.609375 34.515625 
L 43.21875 34.515625 
L 43.21875 35.40625 
Q 43.21875 41.609375 39.140625 45 
Q 35.0625 48.390625 27.6875 48.390625 
Q 23 48.390625 18.546875 47.265625 
Q 14.109375 46.140625 10.015625 43.890625 
L 10.015625 52.203125 
Q 14.9375 54.109375 19.578125 55.046875 
Q 24.21875 56 28.609375 56 
Q 40.484375 56 46.34375 49.84375 
Q 52.203125 43.703125 52.203125 31.203125 
z
" id="DejaVuSans-97"/>
       <path d="M 44.28125 53.078125 
L 44.28125 44.578125 
Q 40.484375 46.53125 36.375 47.5 
Q 32.28125 48.484375 27.875 48.484375 
Q 21.1875 48.484375 17.84375 46.4375 
Q 14.5 44.390625 14.5 40.28125 
Q 14.5 37.15625 16.890625 35.375 
Q 19.28125 33.59375 26.515625 31.984375 
L 29.59375 31.296875 
Q 39.15625 29.25 43.1875 25.515625 
Q 47.21875 21.78125 47.21875 15.09375 
Q 47.21875 7.46875 41.1875 3.015625 
Q 35.15625 -1.421875 24.609375 -1.421875 
Q 20.21875 -1.421875 15.453125 -0.5625 
Q 10.6875 0.296875 5.421875 2 
L 5.421875 11.28125 
Q 10.40625 8.6875 15.234375 7.390625 
Q 20.0625 6.109375 24.8125 6.109375 
Q 31.15625 6.109375 34.5625 8.28125 
Q 37.984375 10.453125 37.984375 14.40625 
Q 37.984375 18.0625 35.515625 20.015625 
Q 33.0625 21.96875 24.703125 23.78125 
L 21.578125 24.515625 
Q 13.234375 26.265625 9.515625 29.90625 
Q 5.8125 33.546875 5.8125 39.890625 
Q 5.8125 47.609375 11.28125 51.796875 
Q 16.75 56 26.8125 56 
Q 31.78125 56 36.171875 55.265625 
Q 40.578125 54.546875 44.28125 53.078125 
z
" id="DejaVuSans-115"/>
       <path d="M 9.421875 54.6875 
L 18.40625 54.6875 
L 18.40625 0 
L 9.421875 0 
z
M 9.421875 75.984375 
L 18.40625 75.984375 
L 18.40625 64.59375 
L 9.421875 64.59375 
z
" id="DejaVuSans-105"/>
       <path d="M 54.890625 33.015625 
L 54.890625 0 
L 45.90625 0 
L 45.90625 32.71875 
Q 45.90625 40.484375 42.875 44.328125 
Q 39.84375 48.1875 33.796875 48.1875 
Q 26.515625 48.1875 22.3125 43.546875 
Q 18.109375 38.921875 18.109375 30.90625 
L 18.109375 0 
L 9.078125 0 
L 9.078125 54.6875 
L 18.109375 54.6875 
L 18.109375 46.1875 
Q 21.34375 51.125 25.703125 53.5625 
Q 30.078125 56 35.796875 56 
Q 45.21875 56 50.046875 50.171875 
Q 54.890625 44.34375 54.890625 33.015625 
z
" id="DejaVuSans-110"/>
      </defs>
      <use xlink:href="#DejaVuSans-98"/>
      <use x="63.476562" xlink:href="#DejaVuSans-97"/>
      <use x="124.755859" xlink:href="#DejaVuSans-115"/>
      <use x="176.855469" xlink:href="#DejaVuSans-105"/>
      <use x="204.638672" xlink:href="#DejaVuSans-110"/>
     </g>
    </g>
    <g id="line2d_7">
     <path d="M 300.518438 146.854437 
L 320.518438 146.854437 
" style="fill:none;stroke:#d62728;stroke-linecap:square;stroke-width:1.5;"/>
    </g>
    <g id="line2d_8"/>
    <g id="text_2">
     <!-- river -->
     <g transform="translate(328.518438 150.354437)scale(0.1 -0.1)">
      <defs>
       <path d="M 41.109375 46.296875 
Q 39.59375 47.171875 37.8125 47.578125 
Q 36.03125 48 33.890625 48 
Q 26.265625 48 22.1875 43.046875 
Q 18.109375 38.09375 18.109375 28.8125 
L 18.109375 0 
L 9.078125 0 
L 9.078125 54.6875 
L 18.109375 54.6875 
L 18.109375 46.1875 
Q 20.953125 51.171875 25.484375 53.578125 
Q 30.03125 56 36.53125 56 
Q 37.453125 56 38.578125 55.875 
Q 39.703125 55.765625 41.0625 55.515625 
z
" id="DejaVuSans-114"/>
       <path d="M 2.984375 54.6875 
L 12.5 54.6875 
L 29.59375 8.796875 
L 46.6875 54.6875 
L 56.203125 54.6875 
L 35.6875 0 
L 23.484375 0 
z
" id="DejaVuSans-118"/>
       <path d="M 56.203125 29.59375 
L 56.203125 25.203125 
L 14.890625 25.203125 
Q 15.484375 15.921875 20.484375 11.0625 
Q 25.484375 6.203125 34.421875 6.203125 
Q 39.59375 6.203125 44.453125 7.46875 
Q 49.3125 8.734375 54.109375 11.28125 
L 54.109375 2.78125 
Q 49.265625 0.734375 44.1875 -0.34375 
Q 39.109375 -1.421875 33.890625 -1.421875 
Q 20.796875 -1.421875 13.15625 6.1875 
Q 5.515625 13.8125 5.515625 26.8125 
Q 5.515625 40.234375 12.765625 48.109375 
Q 20.015625 56 32.328125 56 
Q 43.359375 56 49.78125 48.890625 
Q 56.203125 41.796875 56.203125 29.59375 
z
M 47.21875 32.234375 
Q 47.125 39.59375 43.09375 43.984375 
Q 39.0625 48.390625 32.421875 48.390625 
Q 24.90625 48.390625 20.390625 44.140625 
Q 15.875 39.890625 15.1875 32.171875 
z
" id="DejaVuSans-101"/>
      </defs>
      <use xlink:href="#DejaVuSans-114"/>
      <use x="41.113281" xlink:href="#DejaVuSans-105"/>
      <use x="68.896484" xlink:href="#DejaVuSans-118"/>
      <use x="128.076172" xlink:href="#DejaVuSans-101"/>
      <use x="189.599609" xlink:href="#DejaVuSans-114"/>
     </g>
    </g>
   </g>
  </g>
 </g>
 <defs>
  <clipPath id="p1ca21ef6ad">
   <rect height="266.112" width="357.12" x="7.2" y="7.2"/>
  </clipPath>
 </defs>
</svg>
