<?xml version="1.0" encoding="utf-8" standalone="no"?>
<!DOCTYPE svg PUBLIC "-//W3C//DTD SVG 1.1//EN"
  "http://www.w3.org/Graphics/SVG/1.1/DTD/svg11.dtd">
<!-- Created with matplotlib (https://matplotlib.org/) -->
<svg height="280.512pt" version="1.1" viewBox="0 0 371.52 280.512" width="371.52pt" xmlns="http://www.w3.org/2000/svg" xmlns:xlink="http://www.w3.org/1999/xlink">
 <metadata>
  <rdf:RDF xmlns:cc="http://creativecommons.org/ns#" xmlns:dc="http://purl.org/dc/elements/1.1/" xmlns:rdf="http://www.w3.org/1999/02/22-rdf-syntax-ns#">
   <cc:Work>
    <dc:type rdf:resource="http://purl.org/dc/dcmitype/StillImage"/>
    <dc:date>2024-04-02T16:26:57.462528</dc:date>
    <dc:format>image/svg+xml</dc:format>
    <dc:creator>
     <cc:Agent>
      <dc:title>Matplotlib v3.3.4, https://matplotlib.org/</dc:title>
     </cc:Agent>
    </dc:creator>
   </cc:Work>
  </rdf:RDF>
 </metadata>
 <defs>
  <style type="text/css">*{stroke-linecap:butt;stroke-linejoin:round;}</style>
 </defs>
 <g id="figure_1">
  <g id="patch_1">
   <path d="M 0 280.512 
L 371.52 280.512 
L 371.52 0 
L 0 0 
z
" style="fill:#ffffff;"/>
  </g>
  <g id="axes_1">
   <g id="line2d_1">
    <path clip-path="url(#p884a7b47aa)" d="M 282.528 19.296 
L 306.72 19.296 
M 291.779988 34.271816 
L 306.72 19.296 
M 291.779988 34.271816 
L 282.528 19.296 
M 306.72 43.488 
L 306.72 19.296 
M 306.72 43.488 
L 291.779988 34.271816 
M 258.336 19.296 
L 282.528 19.296 
M 306.72 67.68 
L 306.72 43.488 
M 271.161026 39.034979 
L 282.528 19.296 
M 271.161026 39.034979 
L 291.779988 34.271816 
M 271.161026 39.034979 
L 258.336 19.296 
M 287.373053 55.263456 
L 291.779988 34.271816 
M 287.373053 55.263456 
L 306.72 43.488 
M 287.373053 55.263456 
L 306.72 67.68 
M 287.373053 55.263456 
L 271.161026 39.034979 
M 250.0125 38.384456 
L 258.336 19.296 
M 250.0125 38.384456 
L 271.161026 39.034979 
M 234.144 19.296 
L 258.336 19.296 
M 234.144 19.296 
L 250.0125 38.384456 
M 306.72 91.872 
L 306.72 67.68 
M 286.020236 77.413167 
L 306.72 67.68 
M 286.020236 77.413167 
L 287.373053 55.263456 
M 286.020236 77.413167 
L 306.72 91.872 
M 265.160563 61.615308 
L 271.161026 39.034979 
M 265.160563 61.615308 
L 287.373053 55.263456 
M 265.160563 61.615308 
L 250.0125 38.384456 
M 265.160563 61.615308 
L 286.020236 77.413167 
M 243.33575 55.525818 
L 250.0125 38.384456 
M 243.33575 55.525818 
L 265.160563 61.615308 
M 226.153382 38.379738 
L 250.0125 38.384456 
M 226.153382 38.379738 
L 234.144 19.296 
M 226.153382 38.379738 
L 243.33575 55.525818 
M 209.952 19.296 
L 234.144 19.296 
M 209.952 19.296 
L 226.153382 38.379738 
M 306.72 116.064 
L 306.72 91.872 
M 286.158856 100.887633 
L 306.72 91.872 
M 286.158856 100.887633 
L 286.020236 77.413167 
M 286.158856 100.887633 
L 306.72 116.064 
M 264.781475 86.384166 
L 286.020236 77.413167 
M 264.781475 86.384166 
L 265.160563 61.615308 
M 264.781475 86.384166 
L 286.158856 100.887633 
M 243.821647 75.008966 
L 265.160563 61.615308 
M 243.821647 75.008966 
L 243.33575 55.525818 
M 243.821647 75.008966 
L 264.781475 86.384166 
M 222.092876 59.382144 
L 243.33575 55.525818 
M 222.092876 59.382144 
L 226.153382 38.379738 
M 222.092876 59.382144 
L 243.821647 75.008966 
M 203.277306 40.375578 
L 226.153382 38.379738 
M 203.277306 40.375578 
L 209.952 19.296 
M 203.277306 40.375578 
L 222.092876 59.382144 
M 185.76 19.296 
L 209.952 19.296 
M 185.76 19.296 
L 203.277306 40.375578 
M 306.72 140.256 
L 306.72 116.064 
M 286.213651 124.756428 
L 306.72 116.064 
M 286.213651 124.756428 
L 286.158856 100.887633 
M 286.213651 124.756428 
L 306.72 140.256 
M 265.188384 109.589737 
L 286.158856 100.887633 
M 265.188384 109.589737 
L 264.781475 86.384166 
M 265.188384 109.589737 
L 286.213651 124.756428 
M 241.262738 96.864866 
L 264.781475 86.384166 
M 241.262738 96.864866 
L 243.821647 75.008966 
M 241.262738 96.864866 
L 265.188384 109.589737 
M 219.683716 80.453981 
L 243.821647 75.008966 
M 219.683716 80.453981 
L 222.092876 59.382144 
M 219.683716 80.453981 
L 241.262738 96.864866 
M 199.048666 62.731768 
L 222.092876 59.382144 
M 199.048666 62.731768 
L 203.277306 40.375578 
M 199.048666 62.731768 
L 219.683716 80.453981 
M 180.40302 42.189011 
L 203.277306 40.375578 
M 180.40302 42.189011 
L 185.76 19.296 
M 180.40302 42.189011 
L 199.048666 62.731768 
M 161.568 19.296 
L 185.76 19.296 
M 161.568 19.296 
L 180.40302 42.189011 
M 306.72 164.448 
L 306.72 140.256 
M 266.562127 134.528617 
L 286.213651 124.756428 
M 266.562127 134.528617 
L 265.188384 109.589737 
M 285.228795 149.742373 
L 306.72 140.256 
M 285.228795 149.742373 
L 286.213651 124.756428 
M 285.228795 149.742373 
L 306.72 164.448 
M 285.228795 149.742373 
L 266.562127 134.528617 
M 247.077043 121.231774 
L 265.188384 109.589737 
M 247.077043 121.231774 
L 241.262738 96.864866 
M 247.077043 121.231774 
L 266.562127 134.528617 
M 227.438824 113.888897 
L 241.262738 96.864866 
M 227.438824 113.888897 
L 247.077043 121.231774 
M 212.121418 100.060024 
L 241.262738 96.864866 
M 212.121418 100.060024 
L 219.683716 80.453981 
M 212.121418 100.060024 
L 227.438824 113.888897 
M 193.588144 85.110699 
L 219.683716 80.453981 
M 193.588144 85.110699 
L 199.048666 62.731768 
M 193.588144 85.110699 
L 212.121418 100.060024 
M 175.171162 66.39359 
L 199.048666 62.731768 
M 175.171162 66.39359 
L 180.40302 42.189011 
M 175.171162 66.39359 
L 193.588144 85.110699 
M 158.173016 43.43127 
L 180.40302 42.189011 
M 158.173016 43.43127 
L 161.568 19.296 
M 158.173016 43.43127 
L 175.171162 66.39359 
M 137.376 19.296 
L 161.568 19.296 
M 137.376 19.296 
L 158.173016 43.43127 
M 113.184 19.296 
L 137.376 19.296 
M 88.992 19.296 
L 113.184 19.296 
M 306.72 188.64 
L 306.72 164.448 
M 283.203441 173.468108 
L 306.72 164.448 
M 283.203441 173.468108 
L 285.228795 149.742373 
M 283.203441 173.468108 
L 306.72 188.64 
M 246.897901 144.008965 
L 266.562127 134.528617 
M 246.897901 144.008965 
L 247.077043 121.231774 
M 262.021288 159.684716 
L 266.562127 134.528617 
M 262.021288 159.684716 
L 285.228795 149.742373 
M 262.021288 159.684716 
L 283.203441 173.468108 
M 262.021288 159.684716 
L 246.897901 144.008965 
M 227.361773 136.408879 
L 247.077043 121.231774 
M 227.361773 136.408879 
L 227.438824 113.888897 
M 227.361773 136.408879 
L 246.897901 144.008965 
M 206.45166 123.070003 
L 227.438824 113.888897 
M 206.45166 123.070003 
L 212.121418 100.060024 
M 206.45166 123.070003 
L 227.361773 136.408879 
M 186.74721 108.825028 
L 212.121418 100.060024 
M 186.74721 108.825028 
L 193.588144 85.110699 
M 186.74721 108.825028 
L 206.45166 123.070003 
M 169.047683 92.479582 
L 193.588144 85.110699 
M 169.047683 92.479582 
L 175.171162 66.39359 
M 169.047683 92.479582 
L 186.74721 108.825028 
M 139.377767 48.943175 
L 158.173016 43.43127 
M 139.377767 48.943175 
L 137.376 19.296 
M 152.597606 70.451798 
L 175.171162 66.39359 
M 152.597606 70.451798 
L 158.173016 43.43127 
M 152.597606 70.451798 
L 169.047683 92.479582 
M 152.597606 70.451798 
L 139.377767 48.943175 
M 121.485122 43.296157 
L 137.376 19.296 
M 121.485122 43.296157 
L 113.184 19.296 
M 121.485122 43.296157 
L 139.377767 48.943175 
M 64.8 19.296 
L 88.992 19.296 
M 100.724031 39.411285 
L 113.184 19.296 
M 100.724031 39.411285 
L 88.992 19.296 
M 100.724031 39.411285 
L 121.485122 43.296157 
M 79.830973 34.352859 
L 88.992 19.296 
M 79.830973 34.352859 
L 64.8 19.296 
M 79.830973 34.352859 
L 100.724031 39.411285 
M 306.72 212.832 
L 306.72 188.64 
M 284.25543 196.207258 
L 306.72 188.64 
M 284.25543 196.207258 
L 283.203441 173.468108 
M 284.25543 196.207258 
L 306.72 212.832 
M 257.377029 182.885207 
L 283.203441 173.468108 
M 257.377029 182.885207 
L 262.021288 159.684716 
M 257.377029 182.885207 
L 284.25543 196.207258 
M 234.127912 162.470909 
L 246.897901 144.008965 
M 234.127912 162.470909 
L 262.021288 159.684716 
M 234.127912 162.470909 
L 227.361773 136.408879 
M 234.127912 162.470909 
L 257.377029 182.885207 
M 208.459354 147.027764 
L 227.361773 136.408879 
M 208.459354 147.027764 
L 206.45166 123.070003 
M 208.459354 147.027764 
L 234.127912 162.470909 
M 183.841961 132.402575 
L 206.45166 123.070003 
M 183.841961 132.402575 
L 186.74721 108.825028 
M 183.841961 132.402575 
L 208.459354 147.027764 
M 161.203185 121.199962 
L 186.74721 108.825028 
M 161.203185 121.199962 
L 169.047683 92.479582 
M 161.203185 121.199962 
L 183.841961 132.402575 
M 146.197492 95.237712 
L 169.047683 92.479582 
M 146.197492 95.237712 
L 152.597606 70.451798 
M 146.197492 95.237712 
L 161.203185 121.199962 
M 140.662967 119.069735 
L 161.203185 121.199962 
M 140.662967 119.069735 
L 146.197492 95.237712 
M 127.899026 72.857572 
L 139.377767 48.943175 
M 127.899026 72.857572 
L 152.597606 70.451798 
M 127.899026 72.857572 
L 121.485122 43.296157 
M 127.899026 72.857572 
L 146.197492 95.237712 
M 105.772176 63.120655 
L 121.485122 43.296157 
M 105.772176 63.120655 
L 100.724031 39.411285 
M 105.772176 63.120655 
L 127.899026 72.857572 
M 64.8 43.488 
L 64.8 19.296 
M 64.8 43.488 
L 79.830973 34.352859 
M 84.254844 55.687663 
L 100.724031 39.411285 
M 84.254844 55.687663 
L 79.830973 34.352859 
M 84.254844 55.687663 
L 105.772176 63.120655 
M 84.254844 55.687663 
L 64.8 43.488 
M 306.72 237.024 
L 306.72 212.832 
M 266.405604 207.616205 
L 284.25543 196.207258 
M 266.405604 207.616205 
L 257.377029 182.885207 
M 285.109044 221.534951 
L 306.72 212.832 
M 285.109044 221.534951 
L 284.25543 196.207258 
M 285.109044 221.534951 
L 306.72 237.024 
M 285.109044 221.534951 
L 266.405604 207.616205 
M 246.448293 205.58952 
L 257.377029 182.885207 
M 246.448293 205.58952 
L 266.405604 207.616205 
M 230.087485 186.220195 
L 257.377029 182.885207 
M 230.087485 186.220195 
L 234.127912 162.470909 
M 230.087485 186.220195 
L 246.448293 205.58952 
M 208.856102 170.07639 
L 234.127912 162.470909 
M 208.856102 170.07639 
L 208.459354 147.027764 
M 208.856102 170.07639 
L 230.087485 186.220195 
M 185.76 152.352 
L 208.459354 147.027764 
M 185.76 152.352 
L 183.841961 132.402575 
M 185.76 152.352 
L 208.856102 170.07639 
M 161.568 149.328 
L 183.841961 132.402575 
M 161.568 149.328 
L 161.203185 121.199962 
M 161.568 149.328 
L 185.76 152.352 
M 137.376 146.304 
L 161.203185 121.199962 
M 137.376 146.304 
L 140.662967 119.069735 
M 137.376 146.304 
L 161.568 149.328 
M 123.616074 100.349724 
L 146.197492 95.237712 
M 123.616074 100.349724 
L 140.662967 119.069735 
M 123.616074 100.349724 
L 127.899026 72.857572 
M 122.434779 124.898193 
L 140.662967 119.069735 
M 122.434779 124.898193 
L 137.376 146.304 
M 122.434779 124.898193 
L 123.616074 100.349724 
M 105.565939 88.419076 
L 127.899026 72.857572 
M 105.565939 88.419076 
L 105.772176 63.120655 
M 105.565939 88.419076 
L 123.616074 100.349724 
M 85.314453 78.180054 
L 105.772176 63.120655 
M 85.314453 78.180054 
L 84.254844 55.687663 
M 85.314453 78.180054 
L 105.565939 88.419076 
M 64.8 67.68 
L 64.8 43.488 
M 64.8 67.68 
L 84.254844 55.687663 
M 64.8 67.68 
L 85.314453 78.180054 
M 306.72 261.216 
L 306.72 237.024 
M 282.772823 244.059759 
L 306.72 237.024 
M 282.772823 244.059759 
L 285.109044 221.534951 
M 282.772823 244.059759 
L 306.72 261.216 
M 261.034134 232.212332 
L 266.405604 207.616205 
M 261.034134 232.212332 
L 285.109044 221.534951 
M 261.034134 232.212332 
L 246.448293 205.58952 
M 261.034134 232.212332 
L 282.772823 244.059759 
M 240.412873 225.648438 
L 246.448293 205.58952 
M 240.412873 225.648438 
L 261.034134 232.212332 
M 223.275865 210.027421 
L 246.448293 205.58952 
M 223.275865 210.027421 
L 230.087485 186.220195 
M 223.275865 210.027421 
L 240.412873 225.648438 
M 205.76376 195.406744 
L 230.087485 186.220195 
M 205.76376 195.406744 
L 208.856102 170.07639 
M 205.76376 195.406744 
L 223.275865 210.027421 
M 187.531544 181.296881 
L 208.856102 170.07639 
M 187.531544 181.296881 
L 185.76 152.352 
M 187.531544 181.296881 
L 205.76376 195.406744 
M 170.796643 171.916312 
L 185.76 152.352 
M 170.796643 171.916312 
L 161.568 149.328 
M 170.796643 171.916312 
L 187.531544 181.296881 
M 157.572207 164.313734 
L 161.568 149.328 
M 157.572207 164.313734 
L 170.796643 171.916312 
M 143.540001 165.26956 
L 161.568 149.328 
M 143.540001 165.26956 
L 137.376 146.304 
M 143.540001 165.26956 
L 157.572207 164.313734 
M 133.678011 153.058044 
L 137.376 146.304 
M 133.678011 153.058044 
L 143.540001 165.26956 
M 113.184 143.28 
L 137.376 146.304 
M 113.184 143.28 
L 122.434779 124.898193 
M 113.184 143.28 
L 133.678011 153.058044 
M 102.511941 116.797139 
L 123.616074 100.349724 
M 102.511941 116.797139 
L 122.434779 124.898193 
M 102.511941 116.797139 
L 105.565939 88.419076 
M 102.511941 116.797139 
L 113.184 143.28 
M 85.052454 101.667462 
L 105.565939 88.419076 
M 85.052454 101.667462 
L 85.314453 78.180054 
M 85.052454 101.667462 
L 102.511941 116.797139 
M 64.8 91.872 
L 85.314453 78.180054 
M 64.8 91.872 
L 64.8 67.68 
M 64.8 91.872 
L 85.052454 101.667462 
M 282.528 261.216 
L 306.72 261.216 
M 282.528 261.216 
L 282.772823 244.059759 
M 104.386942 144.259389 
L 113.184 143.28 
M 120.905119 158.809329 
L 133.678011 153.058044 
M 120.905119 158.809329 
L 113.184 143.28 
M 120.905119 158.809329 
L 104.386942 144.259389 
M 258.336 261.216 
L 282.772823 244.059759 
M 258.336 261.216 
L 261.034134 232.212332 
M 258.336 261.216 
L 282.528 261.216 
M 239.519946 247.776013 
L 261.034134 232.212332 
M 239.519946 247.776013 
L 240.412873 225.648438 
M 239.519946 247.776013 
L 258.336 261.216 
M 220.704013 234.336027 
L 240.412873 225.648438 
M 220.704013 234.336027 
L 223.275865 210.027421 
M 220.704013 234.336027 
L 239.519946 247.776013 
M 201.88796 220.89604 
L 223.275865 210.027421 
M 201.88796 220.89604 
L 205.76376 195.406744 
M 201.88796 220.89604 
L 220.704013 234.336027 
M 183.071966 207.456054 
L 205.76376 195.406744 
M 183.071966 207.456054 
L 187.531544 181.296881 
M 183.071966 207.456054 
L 201.88796 220.89604 
M 164.255973 194.015946 
L 187.531544 181.296881 
M 164.255973 194.015946 
L 170.796643 171.916312 
M 164.255973 194.015946 
L 183.071966 207.456054 
M 145.44004 180.57596 
L 170.796643 171.916312 
M 145.44004 180.57596 
L 157.572207 164.313734 
M 145.44004 180.57596 
L 143.540001 165.26956 
M 145.44004 180.57596 
L 164.255973 194.015946 
M 126.623987 167.135973 
L 143.540001 165.26956 
M 126.623987 167.135973 
L 133.678011 153.058044 
M 126.623987 167.135973 
L 120.905119 158.809329 
M 126.623987 167.135973 
L 145.44004 180.57596 
M 88.992 140.256 
L 113.184 143.28 
M 88.992 140.256 
L 102.511941 116.797139 
M 88.992 140.256 
L 104.386942 144.259389 
M 80.449926 123.411231 
L 102.511941 116.797139 
M 80.449926 123.411231 
L 85.052454 101.667462 
M 80.449926 123.411231 
L 88.992 140.256 
M 64.8 116.064 
L 85.052454 101.667462 
M 64.8 116.064 
L 64.8 91.872 
M 64.8 116.064 
L 80.449926 123.411231 
M 107.808054 153.695987 
L 104.386942 144.259389 
M 107.808054 153.695987 
L 120.905119 158.809329 
M 107.808054 153.695987 
L 126.623987 167.135973 
M 107.808054 153.695987 
L 88.992 140.256 
M 242.394319 258.043824 
L 258.336 261.216 
M 242.394319 258.043824 
L 239.519946 247.776013 
M 210.607845 248.673295 
L 220.704013 234.336027 
M 234.144 261.216 
L 258.336 261.216 
M 234.144 261.216 
L 242.394319 258.043824 
M 225.932872 245.504627 
L 239.519946 247.776013 
M 225.932872 245.504627 
L 220.704013 234.336027 
M 225.932872 245.504627 
L 242.394319 258.043824 
M 225.932872 245.504627 
L 210.607845 248.673295 
M 225.932872 245.504627 
L 234.144 261.216 
M 196.45388 242.05013 
L 220.704013 234.336027 
M 196.45388 242.05013 
L 201.88796 220.89604 
M 196.45388 242.05013 
L 210.607845 248.673295 
M 180.472742 232.876161 
L 201.88796 220.89604 
M 180.472742 232.876161 
L 183.071966 207.456054 
M 180.472742 232.876161 
L 196.45388 242.05013 
M 162.419558 219.246388 
L 183.071966 207.456054 
M 162.419558 219.246388 
L 164.255973 194.015946 
M 162.419558 219.246388 
L 180.472742 232.876161 
M 144.394099 206.057393 
L 164.255973 194.015946 
M 144.394099 206.057393 
L 145.44004 180.57596 
M 144.394099 206.057393 
L 162.419558 219.246388 
M 125.904154 191.235681 
L 145.44004 180.57596 
M 125.904154 191.235681 
L 126.623987 167.135973 
M 125.904154 191.235681 
L 144.394099 206.057393 
M 106.708164 176.558636 
L 126.623987 167.135973 
M 106.708164 176.558636 
L 107.808054 153.695987 
M 106.708164 176.558636 
L 125.904154 191.235681 
M 87.718049 162.643035 
L 88.992 140.256 
M 87.718049 162.643035 
L 107.808054 153.695987 
M 87.718049 162.643035 
L 106.708164 176.558636 
M 76.262774 146.472788 
L 88.992 140.256 
M 76.262774 146.472788 
L 80.449926 123.411231 
M 76.262774 146.472788 
L 87.718049 162.643035 
M 64.8 140.256 
L 80.449926 123.411231 
M 64.8 140.256 
L 64.8 116.064 
M 64.8 140.256 
L 76.262774 146.472788 
M 209.952 261.216 
L 210.607845 248.673295 
M 209.952 261.216 
L 234.144 261.216 
M 209.952 261.216 
L 225.932872 245.504627 
M 209.952 261.216 
L 196.45388 242.05013 
M 185.76 261.216 
L 196.45388 242.05013 
M 185.76 261.216 
L 180.472742 232.876161 
M 185.76 261.216 
L 209.952 261.216 
M 161.584451 244.275552 
L 180.472742 232.876161 
M 161.584451 244.275552 
L 162.419558 219.246388 
M 161.584451 244.275552 
L 185.76 261.216 
M 142.431402 232.80806 
L 162.419558 219.246388 
M 142.431402 232.80806 
L 144.394099 206.057393 
M 142.431402 232.80806 
L 161.584451 244.275552 
M 124.807893 215.593517 
L 144.394099 206.057393 
M 124.807893 215.593517 
L 125.904154 191.235681 
M 124.807893 215.593517 
L 142.431402 232.80806 
M 105.517434 198.813462 
L 125.904154 191.235681 
M 105.517434 198.813462 
L 106.708164 176.558636 
M 105.517434 198.813462 
L 124.807893 215.593517 
M 85.092371 182.648972 
L 106.708164 176.558636 
M 85.092371 182.648972 
L 87.718049 162.643035 
M 85.092371 182.648972 
L 105.517434 198.813462 
M 64.8 164.448 
L 87.718049 162.643035 
M 64.8 164.448 
L 76.262774 146.472788 
M 64.8 164.448 
L 64.8 140.256 
M 64.8 164.448 
L 85.092371 182.648972 
M 161.568 261.216 
L 185.76 261.216 
M 161.568 261.216 
L 161.584451 244.275552 
M 137.376 261.216 
L 161.584451 244.275552 
M 137.376 261.216 
L 142.431402 232.80806 
M 137.376 261.216 
L 161.568 261.216 
M 122.206285 239.914339 
L 142.431402 232.80806 
M 122.206285 239.914339 
L 124.807893 215.593517 
M 122.206285 239.914339 
L 137.376 261.216 
M 104.451777 221.09756 
L 124.807893 215.593517 
M 104.451777 221.09756 
L 105.517434 198.813462 
M 104.451777 221.09756 
L 122.206285 239.914339 
M 84.833032 204.380888 
L 105.517434 198.813462 
M 84.833032 204.380888 
L 85.092371 182.648972 
M 84.833032 204.380888 
L 104.451777 221.09756 
M 64.8 188.64 
L 85.092371 182.648972 
M 64.8 188.64 
L 64.8 164.448 
M 64.8 188.64 
L 84.833032 204.380888 
M 113.184 261.216 
L 137.376 261.216 
M 113.184 261.216 
L 122.206285 239.914339 
M 100.672019 242.375633 
L 122.206285 239.914339 
M 100.672019 242.375633 
L 104.451777 221.09756 
M 100.672019 242.375633 
L 113.184 261.216 
M 83.720563 225.732868 
L 104.451777 221.09756 
M 83.720563 225.732868 
L 84.833032 204.380888 
M 83.720563 225.732868 
L 100.672019 242.375633 
M 64.8 212.832 
L 84.833032 204.380888 
M 64.8 212.832 
L 64.8 188.64 
M 64.8 212.832 
L 83.720563 225.732868 
M 88.992 261.216 
L 113.184 261.216 
M 88.992 261.216 
L 100.672019 242.375633 
M 79.750777 246.338646 
L 100.672019 242.375633 
M 79.750777 246.338646 
L 83.720563 225.732868 
M 79.750777 246.338646 
L 88.992 261.216 
M 64.8 237.024 
L 83.720563 225.732868 
M 64.8 237.024 
L 64.8 212.832 
M 64.8 237.024 
L 79.750777 246.338646 
M 64.8 261.216 
L 88.992 261.216 
M 64.8 261.216 
L 79.750777 246.338646 
M 64.8 261.216 
L 64.8 237.024 
L 64.8 237.024 
" style="fill:none;stroke:#1f77b4;stroke-linecap:square;stroke-width:1.5;"/>
   </g>
   <g id="line2d_2"/>
   <g id="line2d_3">
    <path clip-path="url(#p884a7b47aa)" d="M 306.72 116.064 
L 306.72 91.872 
L 306.72 67.68 
L 306.72 43.488 
L 306.72 19.296 
L 282.528 19.296 
L 258.336 19.296 
L 234.144 19.296 
L 209.952 19.296 
L 185.76 19.296 
L 161.568 19.296 
L 137.376 19.296 
L 113.184 19.296 
L 88.992 19.296 
L 64.8 19.296 
L 64.8 43.488 
L 64.8 67.68 
L 64.8 91.872 
L 64.8 116.064 
L 64.8 140.256 
L 64.8 164.448 
L 64.8 188.64 
L 64.8 212.832 
L 64.8 237.024 
L 64.8 261.216 
L 88.992 261.216 
L 113.184 261.216 
L 137.376 261.216 
L 161.568 261.216 
L 185.76 261.216 
L 209.952 261.216 
L 234.144 261.216 
L 258.336 261.216 
L 282.528 261.216 
L 306.72 261.216 
L 306.72 237.024 
L 306.72 212.832 
L 306.72 188.64 
L 306.72 164.448 
L 306.72 140.256 
L 306.72 116.064 
" style="fill:none;stroke:#2ca02c;stroke-linecap:square;stroke-width:1.5;"/>
   </g>
   <g id="line2d_4">
    <path clip-path="url(#p884a7b47aa)" d="M 185.76 152.352 
L 161.568 149.328 
L 137.376 146.304 
L 113.184 143.28 
L 88.992 140.256 
M 258.336 261.216 
L 239.519946 247.776013 
L 220.704013 234.336027 
L 201.88796 220.89604 
L 183.071966 207.456054 
L 164.255973 194.015946 
L 145.44004 180.57596 
L 126.623987 167.135973 
L 107.808054 153.695987 
L 88.992 140.256 
" style="fill:none;stroke:#d62728;stroke-linecap:square;stroke-width:1.5;"/>
   </g>
   <g id="legend_1">
    <g id="patch_2">
     <path d="M 302.248125 156.434125 
L 357.32 156.434125 
Q 359.32 156.434125 359.32 154.434125 
L 359.32 126.077875 
Q 359.32 124.077875 357.32 124.077875 
L 302.248125 124.077875 
Q 300.248125 124.077875 300.248125 126.077875 
L 300.248125 154.434125 
Q 300.248125 156.434125 302.248125 156.434125 
z
" style="fill:#ffffff;opacity:0.8;stroke:#cccccc;stroke-linejoin:miter;"/>
    </g>
    <g id="line2d_5">
     <path d="M 304.248125 132.176312 
L 324.248125 132.176312 
" style="fill:none;stroke:#2ca02c;stroke-linecap:square;stroke-width:1.5;"/>
    </g>
    <g id="line2d_6"/>
    <g id="text_1">
     <!-- box -->
     <g transform="translate(332.248125 135.676312)scale(0.1 -0.1)">
      <defs>
       <path d="M 48.6875 27.296875 
Q 48.6875 37.203125 44.609375 42.84375 
Q 40.53125 48.484375 33.40625 48.484375 
Q 26.265625 48.484375 22.1875 42.84375 
Q 18.109375 37.203125 18.109375 27.296875 
Q 18.109375 17.390625 22.1875 11.75 
Q 26.265625 6.109375 33.40625 6.109375 
Q 40.53125 6.109375 44.609375 11.75 
Q 48.6875 17.390625 48.6875 27.296875 
z
M 18.109375 46.390625 
Q 20.953125 51.265625 25.265625 53.625 
Q 29.59375 56 35.59375 56 
Q 45.5625 56 51.78125 48.09375 
Q 58.015625 40.1875 58.015625 27.296875 
Q 58.015625 14.40625 51.78125 6.484375 
Q 45.5625 -1.421875 35.59375 -1.421875 
Q 29.59375 -1.421875 25.265625 0.953125 
Q 20.953125 3.328125 18.109375 8.203125 
L 18.109375 0 
L 9.078125 0 
L 9.078125 75.984375 
L 18.109375 75.984375 
z
" id="DejaVuSans-98"/>
       <path d="M 30.609375 48.390625 
Q 23.390625 48.390625 19.1875 42.75 
Q 14.984375 37.109375 14.984375 27.296875 
Q 14.984375 17.484375 19.15625 11.84375 
Q 23.34375 6.203125 30.609375 6.203125 
Q 37.796875 6.203125 41.984375 11.859375 
Q 46.1875 17.53125 46.1875 27.296875 
Q 46.1875 37.015625 41.984375 42.703125 
Q 37.796875 48.390625 30.609375 48.390625 
z
M 30.609375 56 
Q 42.328125 56 49.015625 48.375 
Q 55.71875 40.765625 55.71875 27.296875 
Q 55.71875 13.875 49.015625 6.21875 
Q 42.328125 -1.421875 30.609375 -1.421875 
Q 18.84375 -1.421875 12.171875 6.21875 
Q 5.515625 13.875 5.515625 27.296875 
Q 5.515625 40.765625 12.171875 48.375 
Q 18.84375 56 30.609375 56 
z
" id="DejaVuSans-111"/>
       <path d="M 54.890625 54.6875 
L 35.109375 28.078125 
L 55.90625 0 
L 45.3125 0 
L 29.390625 21.484375 
L 13.484375 0 
L 2.875 0 
L 24.125 28.609375 
L 4.6875 54.6875 
L 15.28125 54.6875 
L 29.78125 35.203125 
L 44.28125 54.6875 
z
" id="DejaVuSans-120"/>
      </defs>
      <use xlink:href="#DejaVuSans-98"/>
      <use x="63.476562" xlink:href="#DejaVuSans-111"/>
      <use x="121.533203" xlink:href="#DejaVuSans-120"/>
     </g>
    </g>
    <g id="line2d_7">
     <path d="M 304.248125 146.854437 
L 324.248125 146.854437 
" style="fill:none;stroke:#d62728;stroke-linecap:square;stroke-width:1.5;"/>
    </g>
    <g id="line2d_8"/>
    <g id="text_2">
     <!-- river -->
     <g transform="translate(332.248125 150.354437)scale(0.1 -0.1)">
      <defs>
       <path d="M 41.109375 46.296875 
Q 39.59375 47.171875 37.8125 47.578125 
Q 36.03125 48 33.890625 48 
Q 26.265625 48 22.1875 43.046875 
Q 18.109375 38.09375 18.109375 28.8125 
L 18.109375 0 
L 9.078125 0 
L 9.078125 54.6875 
L 18.109375 54.6875 
L 18.109375 46.1875 
Q 20.953125 51.171875 25.484375 53.578125 
Q 30.03125 56 36.53125 56 
Q 37.453125 56 38.578125 55.875 
Q 39.703125 55.765625 41.0625 55.515625 
z
" id="DejaVuSans-114"/>
       <path d="M 9.421875 54.6875 
L 18.40625 54.6875 
L 18.40625 0 
L 9.421875 0 
z
M 9.421875 75.984375 
L 18.40625 75.984375 
L 18.40625 64.59375 
L 9.421875 64.59375 
z
" id="DejaVuSans-105"/>
       <path d="M 2.984375 54.6875 
L 12.5 54.6875 
L 29.59375 8.796875 
L 46.6875 54.6875 
L 56.203125 54.6875 
L 35.6875 0 
L 23.484375 0 
z
" id="DejaVuSans-118"/>
       <path d="M 56.203125 29.59375 
L 56.203125 25.203125 
L 14.890625 25.203125 
Q 15.484375 15.921875 20.484375 11.0625 
Q 25.484375 6.203125 34.421875 6.203125 
Q 39.59375 6.203125 44.453125 7.46875 
Q 49.3125 8.734375 54.109375 11.28125 
L 54.109375 2.78125 
Q 49.265625 0.734375 44.1875 -0.34375 
Q 39.109375 -1.421875 33.890625 -1.421875 
Q 20.796875 -1.421875 13.15625 6.1875 
Q 5.515625 13.8125 5.515625 26.8125 
Q 5.515625 40.234375 12.765625 48.109375 
Q 20.015625 56 32.328125 56 
Q 43.359375 56 49.78125 48.890625 
Q 56.203125 41.796875 56.203125 29.59375 
z
M 47.21875 32.234375 
Q 47.125 39.59375 43.09375 43.984375 
Q 39.0625 48.390625 32.421875 48.390625 
Q 24.90625 48.390625 20.390625 44.140625 
Q 15.875 39.890625 15.1875 32.171875 
z
" id="DejaVuSans-101"/>
      </defs>
      <use xlink:href="#DejaVuSans-114"/>
      <use x="41.113281" xlink:href="#DejaVuSans-105"/>
      <use x="68.896484" xlink:href="#DejaVuSans-118"/>
      <use x="128.076172" xlink:href="#DejaVuSans-101"/>
      <use x="189.599609" xlink:href="#DejaVuSans-114"/>
     </g>
    </g>
   </g>
  </g>
 </g>
 <defs>
  <clipPath id="p884a7b47aa">
   <rect height="266.112" width="357.12" x="7.2" y="7.2"/>
  </clipPath>
 </defs>
</svg>
