<?xml version="1.0" encoding="utf-8" standalone="no"?>
<!DOCTYPE svg PUBLIC "-//W3C//DTD SVG 1.1//EN"
  "http://www.w3.org/Graphics/SVG/1.1/DTD/svg11.dtd">
<!-- Created with matplotlib (http://matplotlib.org/) -->
<svg height="287pt" version="1.1" viewBox="0 0 378 287" width="378pt" xmlns="http://www.w3.org/2000/svg" xmlns:xlink="http://www.w3.org/1999/xlink">
 <defs>
  <style type="text/css">
*{stroke-linecap:butt;stroke-linejoin:round;}
  </style>
 </defs>
 <g id="figure_1">
  <g id="patch_1">
   <path d="M 0 287.512 
L 378.52 287.512 
L 378.52 0 
L 0 0 
z
" style="fill:#ffffff;"/>
  </g>
  <g id="axes_1">
   <g id="PathCollection_1">
    <path clip-path="url(#pb86a790242)" d="M 143.869584 169.884418 
L 149.471043 168.111444 
L 150.810417 167.259907 
L 152.283417 165.573345 
L 155.899556 160.931152 
L 156.692722 159.887532 
L 157.025498 159.363708 
L 158.50361 152.597188 
L 159.052852 149.533496 
L 159.107527 145.009841 
L 159.074499 142.489493 
L 158.739438 137.318993 
L 158.263988 134.574622 
L 156.929451 128.450405 
L 156.34025 127.283775 
L 154.093609 123.79859 
L 150.331814 119.952805 
L 145.412044 117.971201 
L 142.252649 117.57664 
L 140.825347 117.89932 
L 138.033829 118.627245 
L 134.63439 120.049451 
L 128.719556 124.248836 
L 127.795519 125.106226 
L 125.731382 127.726659 
L 123.766411 130.656603 
L 123.250652 131.545697 
L 121.927817 135.4567 
L 120.955687 138.862884 
L 120.699914 140.307713 
L 120.75701 147.170948 
L 120.971242 148.656123 
L 122.001215 152.970183 
L 122.26049 153.838225 
L 122.340925 154.053219 
L 125.366357 159.790797 
L 125.453348 159.906182 
L 125.716164 160.208478 
L 130.299518 164.571105 
L 132.737484 166.383923 
L 136.605903 168.482017 
L 142.501632 169.843432 
L 143.283323 169.972882 
" style="fill:#48186a;"/>
   </g>
   <g id="PathCollection_2">
    <path clip-path="url(#pb86a790242)" d="M 143.283323 169.972882 
L 142.501632 169.843432 
L 136.605903 168.482017 
L 132.737484 166.383923 
L 130.299518 164.571105 
L 125.716164 160.208478 
L 125.453348 159.906182 
L 125.366357 159.790797 
L 122.340925 154.053219 
L 122.26049 153.838225 
L 122.001215 152.970183 
L 120.971242 148.656123 
L 120.75701 147.170948 
L 120.699914 140.307713 
L 120.955687 138.862884 
L 121.927817 135.4567 
L 123.250652 131.545697 
L 123.766411 130.656603 
L 125.731382 127.726659 
L 127.795519 125.106226 
L 128.719556 124.248836 
L 134.63439 120.049451 
L 138.033829 118.627245 
L 140.825347 117.89932 
L 142.252649 117.57664 
L 145.412044 117.971201 
L 150.331814 119.952805 
L 154.093609 123.79859 
L 156.34025 127.283775 
L 156.929451 128.450405 
L 158.263988 134.574622 
L 158.739438 137.318993 
L 159.074499 142.489493 
L 159.107527 145.009841 
L 159.052852 149.533496 
L 158.50361 152.597188 
L 157.025498 159.363708 
L 156.692722 159.887532 
L 155.899556 160.931152 
L 152.283417 165.573345 
L 150.810417 167.259907 
L 149.471043 168.111444 
L 143.869584 169.884418 
M 162.20944 198.909809 
L 167.782687 196.386527 
L 168.796846 195.709591 
L 170.713127 193.895874 
L 173.755622 190.855393 
L 176.225795 186.606085 
L 177.769563 182.922889 
L 178.291956 179.803345 
L 178.871532 176.558626 
L 179.784387 170.267965 
L 179.881426 169.739254 
L 180.083028 166.923649 
L 180.165115 163.929399 
L 180.158088 163.502087 
L 180.198474 158.163014 
L 180.203325 154.490443 
L 180.217868 151.455289 
L 180.23878 148.627314 
L 180.201854 144.356619 
L 180.156397 141.408727 
L 180.092041 138.548211 
L 180.040392 135.72461 
L 180.143137 128.790182 
L 180.195335 126.352515 
L 180.214696 121.452285 
L 180.133492 120.357012 
L 180.048545 119.721863 
L 179.610014 114.21238 
L 179.441595 112.435076 
L 179.438595 112.267202 
L 179.241863 111.08573 
L 178.407703 106.479402 
L 178.073037 105.565102 
L 177.637555 104.47542 
L 175.771064 99.755 
L 173.774856 96.56026 
L 171.639792 94.183474 
L 167.658659 91.179946 
L 164.705706 89.660321 
L 160.979086 88.362439 
L 155.104484 87.379606 
L 153.612737 87.163742 
L 145.34187 88.012071 
L 142.758783 88.292832 
L 138.570876 89.557248 
L 133.283836 91.127572 
L 130.707118 92.247946 
L 128.738114 93.239277 
L 124.981448 95.254377 
L 123.446787 96.2589 
L 119.805906 98.863496 
L 117.553881 100.563693 
L 113.463267 104.368417 
L 110.459496 107.319295 
L 108.526026 109.525468 
L 105.180435 114.251988 
L 103.434205 116.904761 
L 102.461036 118.606384 
L 101.604443 120.438384 
L 99.138712 126.400684 
L 98.447418 128.399098 
L 97.286308 132.583839 
L 97.097184 133.455257 
L 96.993586 134.105998 
L 96.026959 142.947739 
L 95.984855 143.756 
L 96.025126 144.565655 
L 96.921261 153.362789 
L 97.031466 154.062273 
L 97.237936 154.995843 
L 99.534018 162.132113 
L 100.235925 164.071633 
L 101.020052 165.836043 
L 104.369155 172.060989 
L 105.234543 173.556738 
L 106.521485 175.490647 
L 110.310448 179.979503 
L 112.244161 182.180181 
L 114.99549 184.846473 
L 118.567657 187.837184 
L 120.356906 189.17989 
L 122.870576 190.860036 
L 128.750381 194.266847 
L 131.410665 195.668769 
L 134.380783 196.795561 
L 137.934015 198.040143 
L 141.660103 199.088889 
L 143.623009 199.568066 
L 148.149046 200.161058 
L 151.340585 200.372311 
L 160.212316 199.492347 
L 161.13261 199.383273 
L 161.281139 199.321335 
" style="fill:#424086;"/>
   </g>
   <g id="PathCollection_3">
    <path clip-path="url(#pb86a790242)" d="M 161.281139 199.321335 
L 161.13261 199.383273 
L 160.212316 199.492347 
L 151.340585 200.372311 
L 148.149046 200.161058 
L 143.623009 199.568066 
L 141.660103 199.088889 
L 137.934015 198.040143 
L 134.380783 196.795561 
L 131.410665 195.668769 
L 128.750381 194.266847 
L 122.870576 190.860036 
L 120.356906 189.17989 
L 118.567657 187.837184 
L 114.99549 184.846473 
L 112.244161 182.180181 
L 110.310448 179.979503 
L 106.521485 175.490647 
L 105.234543 173.556738 
L 104.369155 172.060989 
L 101.020052 165.836043 
L 100.235925 164.071633 
L 99.534018 162.132113 
L 97.237936 154.995843 
L 97.031466 154.062273 
L 96.921261 153.362789 
L 96.025126 144.565655 
L 95.984855 143.756 
L 96.026959 142.947739 
L 96.993586 134.105998 
L 97.097184 133.455257 
L 97.286308 132.583839 
L 98.447418 128.399098 
L 99.138712 126.400684 
L 101.604443 120.438384 
L 102.461036 118.606384 
L 103.434205 116.904761 
L 105.180435 114.251988 
L 108.526026 109.525468 
L 110.459496 107.319295 
L 113.463267 104.368417 
L 117.553881 100.563693 
L 119.805906 98.863496 
L 123.446787 96.2589 
L 124.981448 95.254377 
L 128.738114 93.239277 
L 130.707118 92.247946 
L 133.283836 91.127572 
L 138.570876 89.557248 
L 142.758783 88.292832 
L 145.34187 88.012071 
L 153.612737 87.163742 
L 155.104484 87.379606 
L 160.979086 88.362439 
L 164.705706 89.660321 
L 167.658659 91.179946 
L 171.639792 94.183474 
L 173.774856 96.56026 
L 175.771064 99.755 
L 177.637555 104.47542 
L 178.073037 105.565102 
L 178.407703 106.479402 
L 179.241863 111.08573 
L 179.438595 112.267202 
L 179.441595 112.435076 
L 179.610014 114.21238 
L 180.048545 119.721863 
L 180.133492 120.357012 
L 180.214696 121.452285 
L 180.195335 126.352515 
L 180.143137 128.790182 
L 180.040392 135.72461 
L 180.092041 138.548211 
L 180.156397 141.408727 
L 180.201854 144.356619 
L 180.23878 148.627314 
L 180.217868 151.455289 
L 180.203325 154.490443 
L 180.198474 158.163014 
L 180.158088 163.502087 
L 180.165115 163.929399 
L 180.083028 166.923649 
L 179.881426 169.739254 
L 179.784387 170.267965 
L 178.871532 176.558626 
L 178.291956 179.803345 
L 177.769563 182.922889 
L 176.225795 186.606085 
L 173.755622 190.855393 
L 170.713127 193.895874 
L 168.796846 195.709591 
L 167.782687 196.386527 
L 162.20944 198.909809 
M 168.782923 218.4274 
L 170.3893 218.194073 
L 171.479105 217.927406 
L 176.827301 216.71113 
L 180.38204 215.458596 
L 183.888796 213.639198 
L 185.885392 212.458794 
L 189.034108 209.856467 
L 190.452357 208.443245 
L 194.416708 201.042182 
L 195.037632 199.861443 
L 195.169285 198.851556 
L 195.308628 197.089121 
L 196.050858 190.955572 
L 196.119056 186.808431 
L 195.454423 181.931344 
L 195.208806 180.163434 
L 194.702942 174.172221 
L 194.112423 170.537111 
L 193.571635 163.896563 
L 193.529444 163.523525 
L 193.520642 163.375386 
L 193.516964 163.241437 
L 193.359761 161.311391 
L 192.760531 155.172874 
L 192.713396 154.755995 
L 192.396653 150.067299 
L 192.373011 149.083397 
L 192.066726 145.017832 
L 192.302569 140.127497 
L 192.306225 138.752783 
L 192.738026 132.9855 
L 192.766772 132.567829 
L 193.17467 128.425998 
L 193.354986 125.592478 
L 193.369819 125.243552 
L 193.472777 124.411139 
L 194.125639 116.984916 
L 194.55649 114.143221 
L 194.962735 109.73744 
L 195.334365 107.335932 
L 195.934471 102.653266 
L 195.932004 101.728943 
L 195.896045 100.880686 
L 195.940544 94.972057 
L 195.06545 88.919674 
L 194.991519 87.874514 
L 193.577429 84.62687 
L 192.395846 81.824127 
L 188.048738 76.902377 
L 187.108437 75.87079 
L 182.669758 73.441175 
L 180.007415 71.945026 
L 176.367302 70.765118 
L 170.935574 69.481012 
L 170.231595 69.273032 
L 168.493494 69.081042 
L 162.526997 68.675264 
L 159.910517 68.810063 
L 155.810311 68.940771 
L 152.749851 69.251449 
L 149.683205 69.666138 
L 146.485365 70.213669 
L 142.041001 71.206271 
L 137.045604 72.67973 
L 134.785609 73.417455 
L 129.582853 75.380596 
L 128.937176 75.634044 
L 123.477139 78.329491 
L 121.865774 79.143137 
L 117.652864 81.659813 
L 115.78222 82.83496 
L 112.123061 85.339218 
L 110.405115 86.591742 
L 107.017133 89.388315 
L 105.114338 91.076048 
L 102.282946 93.740293 
L 100.175959 95.962538 
L 96.792072 99.796126 
L 95.390033 101.599516 
L 93.048083 104.751181 
L 91.556946 106.990825 
L 89.7764 109.923704 
L 88.271085 112.743726 
L 86.970837 115.277835 
L 85.698058 118.220322 
L 84.651113 120.78565 
L 83.661875 123.823742 
L 82.841973 126.41937 
L 81.888497 130.345176 
L 81.507695 132.143331 
L 80.912959 136.425874 
L 80.711907 137.933486 
L 80.509487 142.208097 
L 80.439091 143.756 
L 80.509083 145.304246 
L 80.708634 149.578651 
L 80.909837 151.089112 
L 81.502855 155.369076 
L 81.884814 157.171963 
L 82.838374 161.093087 
L 83.659473 163.69103 
L 84.652092 166.726183 
L 85.648206 169.146571 
L 86.961301 172.236262 
L 88.156027 174.589135 
L 89.768216 177.59043 
L 91.553473 180.530124 
L 93.041318 182.762906 
L 95.387275 185.917684 
L 96.787583 187.717482 
L 100.175851 191.550043 
L 102.287912 193.769897 
L 105.11798 196.427378 
L 107.032395 198.117303 
L 110.409291 200.899874 
L 112.144717 202.162444 
L 116.790186 205.397384 
L 117.598415 205.881359 
L 122.27922 208.541202 
L 123.510142 209.162577 
L 128.936324 211.836457 
L 129.617594 212.107873 
L 135.30487 214.163081 
L 138.546317 215.267046 
L 142.043533 216.325079 
L 146.530415 217.336907 
L 149.685986 217.863734 
L 152.518237 218.239931 
L 156.254041 218.614445 
L 161.049076 218.712098 
L 163.776221 218.78627 
" style="fill:#33638d;"/>
   </g>
   <g id="PathCollection_4">
    <path clip-path="url(#pb86a790242)" d="M 163.776221 218.78627 
L 161.049076 218.712098 
L 156.254041 218.614445 
L 152.518237 218.239931 
L 149.685986 217.863734 
L 146.530415 217.336907 
L 142.043533 216.325079 
L 138.546317 215.267046 
L 135.30487 214.163081 
L 129.617594 212.107873 
L 128.936324 211.836457 
L 123.510142 209.162577 
L 122.27922 208.541202 
L 117.598415 205.881359 
L 116.790186 205.397384 
L 112.144717 202.162444 
L 110.409291 200.899874 
L 107.032395 198.117303 
L 105.11798 196.427378 
L 102.287912 193.769897 
L 100.175851 191.550043 
L 96.787583 187.717482 
L 95.387275 185.917684 
L 93.041318 182.762906 
L 91.553473 180.530124 
L 89.768216 177.59043 
L 88.156027 174.589135 
L 86.961301 172.236262 
L 85.648206 169.146571 
L 84.652092 166.726183 
L 83.659473 163.69103 
L 82.838374 161.093087 
L 81.884814 157.171963 
L 81.502855 155.369076 
L 80.909837 151.089112 
L 80.708634 149.578651 
L 80.509083 145.304246 
L 80.439091 143.756 
L 80.509487 142.208097 
L 80.711907 137.933486 
L 80.912959 136.425874 
L 81.507695 132.143331 
L 81.888497 130.345176 
L 82.841973 126.41937 
L 83.661875 123.823742 
L 84.651113 120.78565 
L 85.698058 118.220322 
L 86.970837 115.277835 
L 88.271085 112.743726 
L 89.7764 109.923704 
L 91.556946 106.990825 
L 93.048083 104.751181 
L 95.390033 101.599516 
L 96.792072 99.796126 
L 100.175959 95.962538 
L 102.282946 93.740293 
L 105.114338 91.076048 
L 107.017133 89.388315 
L 110.405115 86.591742 
L 112.123061 85.339218 
L 115.78222 82.83496 
L 117.652864 81.659813 
L 121.865774 79.143137 
L 123.477139 78.329491 
L 128.937176 75.634044 
L 129.582853 75.380596 
L 134.785609 73.417455 
L 137.045604 72.67973 
L 142.041001 71.206271 
L 146.485365 70.213669 
L 149.683205 69.666138 
L 152.749851 69.251449 
L 155.810311 68.940771 
L 159.910517 68.810063 
L 162.526997 68.675264 
L 168.493494 69.081042 
L 170.231595 69.273032 
L 170.935574 69.481012 
L 176.367302 70.765118 
L 180.007415 71.945026 
L 182.669758 73.441175 
L 187.108437 75.87079 
L 188.048738 76.902377 
L 192.395846 81.824127 
L 193.577429 84.62687 
L 194.991519 87.874514 
L 195.06545 88.919674 
L 195.940544 94.972057 
L 195.896045 100.880686 
L 195.932004 101.728943 
L 195.934471 102.653266 
L 195.334365 107.335932 
L 194.962735 109.73744 
L 194.55649 114.143221 
L 194.125639 116.984916 
L 193.472777 124.411139 
L 193.369819 125.243552 
L 193.354986 125.592478 
L 193.17467 128.425998 
L 192.766772 132.567829 
L 192.738026 132.9855 
L 192.306225 138.752783 
L 192.302569 140.127497 
L 192.066726 145.017832 
L 192.373011 149.083397 
L 192.396653 150.067299 
L 192.713396 154.755995 
L 192.760531 155.172874 
L 193.359761 161.311391 
L 193.516964 163.241437 
L 193.520642 163.375386 
L 193.529444 163.523525 
L 193.571635 163.896563 
L 194.112423 170.537111 
L 194.702942 174.172221 
L 195.208806 180.163434 
L 195.454423 181.931344 
L 196.119056 186.808431 
L 196.050858 190.955572 
L 195.308628 197.089121 
L 195.169285 198.851556 
L 195.037632 199.861443 
L 194.416708 201.042182 
L 190.452357 208.443245 
L 189.034108 209.856467 
L 185.885392 212.458794 
L 183.888796 213.639198 
L 180.38204 215.458596 
L 176.827301 216.71113 
L 171.479105 217.927406 
L 170.3893 218.194073 
L 168.782923 218.4274 
M 214.662697 207.132157 
L 214.488721 205.954272 
L 213.857691 202.528972 
L 213.103555 198.124572 
L 213.010656 196.537603 
L 212.518562 194.498383 
L 211.146718 190.870563 
L 210.501057 189.160771 
L 209.087741 184.835483 
L 207.604313 180.185621 
L 207.14354 178.293761 
L 206.007021 174.039953 
L 205.369188 172.213251 
L 205.258975 171.83569 
L 203.180674 163.338335 
L 202.956361 162.24495 
L 202.281261 158.312301 
L 201.985687 156.328953 
L 201.553386 152.271595 
L 201.41469 150.180303 
L 201.208291 145.539577 
L 201.218268 143.158726 
L 201.319482 139.51923 
L 201.712215 135.253166 
L 201.967951 132.17053 
L 202.563295 127.583087 
L 203.065034 125.442746 
L 203.553966 121.570456 
L 205.440656 115.010526 
L 205.530047 114.471775 
L 205.733869 113.633136 
L 207.984493 106.441889 
L 208.443095 104.492112 
L 209.482132 101.224863 
L 210.8483 97.836265 
L 212.546835 91.894891 
L 212.893206 91.162499 
L 214.155928 82.742761 
L 214.51198 81.567346 
L 214.707425 80.357334 
L 213.433742 74.850818 
L 212.811015 72.191997 
L 211.347172 70.098325 
L 207.428121 65.171615 
L 207.03006 64.892332 
L 206.49128 64.563216 
L 199.146799 59.944838 
L 195.391273 58.525287 
L 190.989121 57.108077 
L 189.295147 56.495821 
L 184.879015 55.604258 
L 181.343007 55.00736 
L 180.52603 54.958504 
L 173.366954 54.3306 
L 172.577764 54.336918 
L 166.882015 54.369576 
L 164.913366 54.502639 
L 159.116471 54.839208 
L 156.696987 55.180046 
L 150.728798 56.080125 
L 147.682205 56.755852 
L 143.664098 57.672371 
L 140.3074 58.602626 
L 136.287199 59.757591 
L 133.095029 60.900173 
L 128.482979 62.597145 
L 125.639755 63.824306 
L 121.477498 65.784987 
L 118.019639 67.548782 
L 114.747068 69.321938 
L 111.663901 71.194848 
L 107.743836 73.713503 
L 105.632149 75.203631 
L 101.967752 77.985346 
L 99.988731 79.569566 
L 96.119344 82.919446 
L 94.703196 84.238901 
L 91.199924 87.79768 
L 89.863699 89.214481 
L 85.942063 93.871225 
L 84.671401 95.45389 
L 81.822251 99.489339 
L 80.805465 100.974816 
L 77.850129 105.866431 
L 77.379261 106.690552 
L 74.878497 111.773919 
L 74.485357 112.59479 
L 72.351674 117.956233 
L 72.0869 118.64547 
L 70.440386 124.067752 
L 70.218005 124.8179 
L 69.103342 129.841755 
L 68.846272 131.077825 
L 68.820483 131.272558 
L 68.031087 137.401504 
L 68.023799 137.563227 
L 67.752757 143.756 
L 68.023125 149.94939 
L 68.030347 150.110542 
L 68.819413 156.24052 
L 68.845047 156.434278 
L 69.100756 157.663909 
L 70.21672 162.694263 
L 70.439419 163.4455 
L 72.08566 168.866741 
L 72.342842 169.533638 
L 74.471121 174.92016 
L 74.748592 175.501951 
L 77.377251 180.821973 
L 77.849191 181.647916 
L 80.80359 186.537762 
L 81.821404 188.024502 
L 84.670423 192.05846 
L 85.941868 193.641612 
L 89.864859 198.297096 
L 91.200503 199.712704 
L 94.706828 203.27158 
L 96.120454 204.588053 
L 99.995266 207.93928 
L 102.282823 209.787815 
L 105.662299 212.29206 
L 108.492116 214.251439 
L 111.673081 216.311608 
L 114.747063 218.17929 
L 118.028438 219.957259 
L 121.478333 221.718407 
L 125.642663 223.686251 
L 128.48288 224.91396 
L 133.090827 226.615091 
L 136.288189 227.761148 
L 140.299911 228.915918 
L 143.664339 229.849203 
L 147.67291 230.765311 
L 150.731832 231.442998 
L 156.694691 232.33361 
L 159.116661 232.673403 
L 164.911095 233.01198 
L 166.882228 233.143799 
L 172.576017 233.177401 
L 173.3536 233.191145 
L 176.583482 232.950617 
L 181.520001 232.45453 
L 182.61835 232.205779 
L 189.233037 230.976711 
L 191.211273 230.329011 
L 195.028424 229.168831 
L 198.785459 227.517289 
L 201.069425 226.660894 
L 206.406292 223.154782 
L 207.083252 222.740323 
L 207.56866 222.385111 
L 208.305182 221.397089 
L 213.199714 214.425667 
L 214.246273 209.16813 
" style="fill:#26828e;"/>
   </g>
   <g id="PathCollection_5">
    <path clip-path="url(#pb86a790242)" d="M 214.246273 209.16813 
L 213.199714 214.425667 
L 208.305182 221.397089 
L 207.56866 222.385111 
L 207.083252 222.740323 
L 206.406292 223.154782 
L 201.069425 226.660894 
L 198.785459 227.517289 
L 195.028424 229.168831 
L 191.211273 230.329011 
L 189.233037 230.976711 
L 182.61835 232.205779 
L 181.520001 232.45453 
L 176.583482 232.950617 
L 173.3536 233.191145 
L 172.576017 233.177401 
L 166.882228 233.143799 
L 164.911095 233.01198 
L 159.116661 232.673403 
L 156.694691 232.33361 
L 150.731832 231.442998 
L 147.67291 230.765311 
L 143.664339 229.849203 
L 140.299911 228.915918 
L 136.288189 227.761148 
L 133.090827 226.615091 
L 128.48288 224.91396 
L 125.642663 223.686251 
L 121.478333 221.718407 
L 118.028438 219.957259 
L 114.747063 218.17929 
L 111.673081 216.311608 
L 108.492116 214.251439 
L 105.662299 212.29206 
L 102.282823 209.787815 
L 99.995266 207.93928 
L 96.120454 204.588053 
L 94.706828 203.27158 
L 91.200503 199.712704 
L 89.864859 198.297096 
L 85.941868 193.641612 
L 84.670423 192.05846 
L 81.821404 188.024502 
L 80.80359 186.537762 
L 77.849191 181.647916 
L 77.377251 180.821973 
L 74.748592 175.501951 
L 74.471121 174.92016 
L 72.342842 169.533638 
L 72.08566 168.866741 
L 70.439419 163.4455 
L 70.21672 162.694263 
L 69.100756 157.663909 
L 68.845047 156.434278 
L 68.819413 156.24052 
L 68.030347 150.110542 
L 68.023125 149.94939 
L 67.752757 143.756 
L 68.023799 137.563227 
L 68.031087 137.401504 
L 68.820483 131.272558 
L 68.846272 131.077825 
L 69.103342 129.841755 
L 70.218005 124.8179 
L 70.440386 124.067752 
L 72.0869 118.64547 
L 72.351674 117.956233 
L 74.485357 112.59479 
L 74.878497 111.773919 
L 77.379261 106.690552 
L 77.850129 105.866431 
L 80.805465 100.974816 
L 81.822251 99.489339 
L 84.671401 95.45389 
L 85.942063 93.871225 
L 89.863699 89.214481 
L 91.199924 87.79768 
L 94.703196 84.238901 
L 96.119344 82.919446 
L 99.988731 79.569566 
L 101.967752 77.985346 
L 105.632149 75.203631 
L 107.743836 73.713503 
L 111.663901 71.194848 
L 114.747068 69.321938 
L 118.019639 67.548782 
L 121.477498 65.784987 
L 125.639755 63.824306 
L 128.482979 62.597145 
L 133.095029 60.900173 
L 136.287199 59.757591 
L 140.3074 58.602626 
L 143.664098 57.672371 
L 147.682205 56.755852 
L 150.728798 56.080125 
L 156.696987 55.180046 
L 159.116471 54.839208 
L 164.913366 54.502639 
L 166.882015 54.369576 
L 172.577764 54.336918 
L 173.366954 54.3306 
L 180.52603 54.958504 
L 181.343007 55.00736 
L 184.879015 55.604258 
L 189.295147 56.495821 
L 190.989121 57.108077 
L 195.391273 58.525287 
L 199.146799 59.944838 
L 206.49128 64.563216 
L 207.03006 64.892332 
L 207.428121 65.171615 
L 211.347172 70.098325 
L 212.811015 72.191997 
L 213.433742 74.850818 
L 214.707425 80.357334 
L 214.51198 81.567346 
L 214.155928 82.742761 
L 212.893206 91.162499 
L 212.546835 91.894891 
L 210.8483 97.836265 
L 209.482132 101.224863 
L 208.443095 104.492112 
L 207.984493 106.441889 
L 205.733869 113.633136 
L 205.530047 114.471775 
L 205.440656 115.010526 
L 203.553966 121.570456 
L 203.065034 125.442746 
L 202.563295 127.583087 
L 201.967951 132.17053 
L 201.712215 135.253166 
L 201.319482 139.51923 
L 201.218268 143.158726 
L 201.208291 145.539577 
L 201.41469 150.180303 
L 201.553386 152.271595 
L 201.985687 156.328953 
L 202.281261 158.312301 
L 202.956361 162.24495 
L 203.180674 163.338335 
L 205.258975 171.83569 
L 205.369188 172.213251 
L 206.007021 174.039953 
L 207.14354 178.293761 
L 207.604313 180.185621 
L 209.087741 184.835483 
L 210.501057 189.160771 
L 211.146718 190.870563 
L 212.518562 194.498383 
L 213.010656 196.537603 
L 213.103555 198.124572 
L 213.857691 202.528972 
L 214.488721 205.954272 
L 214.662697 207.132157 
M 235.953845 209.222608 
L 234.477011 206.835661 
L 233.08299 204.025977 
L 230.501711 199.253128 
L 230.252969 198.929017 
L 230.062554 198.698607 
L 226.033645 193.416354 
L 223.973279 190.117371 
L 220.975355 185.580313 
L 220.234342 184.249783 
L 219.787608 183.201752 
L 217.530817 178.647265 
L 215.834306 175.664314 
L 215.405428 174.954288 
L 213.077743 168.978483 
L 212.577801 167.777689 
L 211.172758 163.324097 
L 210.277031 159.598267 
L 209.568668 156.641669 
L 208.961128 152.817969 
L 208.719571 150.09151 
L 208.377611 146.272974 
L 208.344059 143.130206 
L 208.388883 140.544671 
L 209.061609 133.961687 
L 209.299246 131.908297 
L 210.024912 129.104877 
L 210.500884 126.638011 
L 211.860676 122.301388 
L 212.57932 119.618844 
L 213.005907 118.60672 
L 216.358189 110.893746 
L 216.405982 110.775932 
L 216.414468 110.752284 
L 219.181646 105.488663 
L 219.432746 104.920041 
L 222.055518 100.465457 
L 224.746462 96.162398 
L 226.396426 93.729329 
L 227.579267 92.338551 
L 230.173881 88.562555 
L 230.321895 88.378557 
L 233.148452 83.540934 
L 237.074175 75.51121 
L 237.133996 74.327775 
L 236.795324 66.691981 
L 233.985141 62.498709 
L 232.1488 59.530014 
L 228.4789 56.223113 
L 225.053709 53.955709 
L 223.593148 52.889803 
L 217.666422 50.031998 
L 216.653707 49.472286 
L 213.734162 48.361353 
L 208.969131 46.722041 
L 207.735428 46.436476 
L 202.469421 45.073531 
L 199.956769 44.640294 
L 194.582034 43.615138 
L 190.120697 43.15358 
L 186.897309 42.772548 
L 181.959879 42.537954 
L 179.119444 42.355497 
L 172.800827 42.47462 
L 170.304163 42.525103 
L 164.091412 43.075526 
L 162.086433 43.24904 
L 155.90112 44.108205 
L 154.275107 44.351356 
L 147.509136 45.753164 
L 145.726139 46.135167 
L 138.793204 47.993602 
L 137.480061 48.373088 
L 131.040194 50.505082 
L 130.036499 50.856263 
L 123.547297 53.484015 
L 122.003596 54.156035 
L 116.036267 57.015016 
L 114.534983 57.793521 
L 108.502297 61.102638 
L 107.56981 61.658701 
L 101.91992 65.309921 
L 100.457445 66.323045 
L 95.69346 69.865695 
L 93.969846 71.256106 
L 89.834223 74.741319 
L 88.148138 76.288655 
L 84.397325 79.929196 
L 82.65748 81.784145 
L 79.38934 85.397452 
L 77.590874 87.626006 
L 74.37596 91.765515 
L 72.932571 93.880363 
L 70.357737 97.752198 
L 68.940796 100.18209 
L 66.838258 103.941444 
L 65.507524 106.725723 
L 63.834583 110.306139 
L 62.714354 113.204836 
L 61.356689 116.817701 
L 60.472874 119.806942 
L 59.418425 123.447826 
L 58.688966 126.851073 
L 58.017825 130.166559 
L 57.55695 133.852653 
L 57.177854 136.946181 
L 57.021691 140.634677 
L 56.892257 143.756 
L 57.021625 146.877387 
L 57.177615 150.565829 
L 57.556695 153.65963 
L 58.017412 157.345476 
L 58.688626 160.6614 
L 59.417932 164.064237 
L 60.472522 167.705539 
L 61.356203 170.694381 
L 62.686207 174.226141 
L 63.832257 177.206315 
L 65.456214 180.689968 
L 66.837438 183.570769 
L 68.940424 187.330835 
L 70.357015 189.760024 
L 72.932303 193.632271 
L 74.375575 195.746623 
L 77.590853 199.886079 
L 79.389657 202.114432 
L 82.657724 205.727091 
L 84.398492 207.582316 
L 88.149049 211.221928 
L 89.836378 212.769681 
L 94.392519 216.630753 
L 95.679775 217.653522 
L 100.672227 221.327994 
L 101.923787 222.199743 
L 107.569829 225.848586 
L 108.505959 226.406881 
L 114.535086 229.714838 
L 116.038425 230.495036 
L 122.003408 233.354474 
L 123.547693 234.027677 
L 130.036701 236.657098 
L 131.038737 237.008191 
L 137.48031 239.141991 
L 138.790643 239.520922 
L 145.727184 241.380482 
L 147.507145 241.761537 
L 154.275872 243.163035 
L 155.899992 243.405096 
L 162.086588 244.263695 
L 164.092058 244.435617 
L 170.400048 244.954306 
L 173.135292 244.986928 
L 179.046102 245.129747 
L 181.960089 244.973707 
L 186.898191 244.741957 
L 190.11867 244.362359 
L 194.512034 243.943932 
L 199.307545 243.029257 
L 202.475415 242.450931 
L 207.73083 241.087501 
L 208.950857 240.816185 
L 215.265281 238.502785 
L 216.41065 238.140777 
L 220.400787 236.310676 
L 223.617114 234.649071 
L 227.732023 231.222367 
L 231.918005 227.888666 
L 233.045432 227.06776 
L 234.514448 225.090851 
L 236.704838 220.752846 
L 237.410362 216.21148 
L 236.990215 212.124061 
" style="fill:#1fa088;"/>
   </g>
   <g id="PathCollection_6">
    <path clip-path="url(#pb86a790242)" d="M 236.990215 212.124061 
L 237.410362 216.21148 
L 236.704838 220.752846 
L 234.514448 225.090851 
L 233.045432 227.06776 
L 231.918005 227.888666 
L 227.732023 231.222367 
L 223.617114 234.649071 
L 220.400787 236.310676 
L 216.41065 238.140777 
L 215.265281 238.502785 
L 208.950857 240.816185 
L 207.73083 241.087501 
L 202.475415 242.450931 
L 199.307545 243.029257 
L 194.512034 243.943932 
L 190.11867 244.362359 
L 186.898191 244.741957 
L 181.960089 244.973707 
L 179.046102 245.129747 
L 173.135292 244.986928 
L 170.400048 244.954306 
L 164.092058 244.435617 
L 162.086588 244.263695 
L 155.899992 243.405096 
L 154.275872 243.163035 
L 147.507145 241.761537 
L 145.727184 241.380482 
L 138.790643 239.520922 
L 137.48031 239.141991 
L 131.038737 237.008191 
L 130.036701 236.657098 
L 123.547693 234.027677 
L 122.003408 233.354474 
L 116.038425 230.495036 
L 114.535086 229.714838 
L 108.505959 226.406881 
L 107.569829 225.848586 
L 101.923787 222.199743 
L 100.672227 221.327994 
L 95.679775 217.653522 
L 94.392519 216.630753 
L 89.836378 212.769681 
L 88.149049 211.221928 
L 84.398492 207.582316 
L 82.657724 205.727091 
L 79.389657 202.114432 
L 77.590853 199.886079 
L 74.375575 195.746623 
L 72.932303 193.632271 
L 70.357015 189.760024 
L 68.940424 187.330835 
L 66.837438 183.570769 
L 65.456214 180.689968 
L 63.832257 177.206315 
L 62.686207 174.226141 
L 61.356203 170.694381 
L 60.472522 167.705539 
L 59.417932 164.064237 
L 58.688626 160.6614 
L 58.017412 157.345476 
L 57.556695 153.65963 
L 57.177615 150.565829 
L 57.021625 146.877387 
L 56.892257 143.756 
L 57.021691 140.634677 
L 57.177854 136.946181 
L 57.55695 133.852653 
L 58.017825 130.166559 
L 58.688966 126.851073 
L 59.418425 123.447826 
L 60.472874 119.806942 
L 61.356689 116.817701 
L 62.714354 113.204836 
L 63.834583 110.306139 
L 65.507524 106.725723 
L 66.838258 103.941444 
L 68.940796 100.18209 
L 70.357737 97.752198 
L 72.932571 93.880363 
L 74.37596 91.765515 
L 77.590874 87.626006 
L 79.38934 85.397452 
L 82.65748 81.784145 
L 84.397325 79.929196 
L 88.148138 76.288655 
L 89.834223 74.741319 
L 93.969846 71.256106 
L 95.69346 69.865695 
L 100.457445 66.323045 
L 101.91992 65.309921 
L 107.56981 61.658701 
L 108.502297 61.102638 
L 114.534983 57.793521 
L 116.036267 57.015016 
L 122.003596 54.156035 
L 123.547297 53.484015 
L 130.036499 50.856263 
L 131.040194 50.505082 
L 137.480061 48.373088 
L 138.793204 47.993602 
L 145.726139 46.135167 
L 147.509136 45.753164 
L 154.275107 44.351356 
L 155.90112 44.108205 
L 162.086433 43.24904 
L 164.091412 43.075526 
L 170.304163 42.525103 
L 172.800827 42.47462 
L 179.119444 42.355497 
L 181.959879 42.537954 
L 186.897309 42.772548 
L 190.120697 43.15358 
L 194.582034 43.615138 
L 199.956769 44.640294 
L 202.469421 45.073531 
L 207.735428 46.436476 
L 208.969131 46.722041 
L 213.734162 48.361353 
L 216.653707 49.472286 
L 217.666422 50.031998 
L 223.593148 52.889803 
L 225.053709 53.955709 
L 228.4789 56.223113 
L 232.1488 59.530014 
L 233.985141 62.498709 
L 236.795324 66.691981 
L 237.133996 74.327775 
L 237.074175 75.51121 
L 233.148452 83.540934 
L 230.321895 88.378557 
L 230.173881 88.562555 
L 227.579267 92.338551 
L 226.396426 93.729329 
L 224.746462 96.162398 
L 222.055518 100.465457 
L 219.432746 104.920041 
L 219.181646 105.488663 
L 216.414468 110.752284 
L 216.405982 110.775932 
L 216.358189 110.893746 
L 213.005907 118.60672 
L 212.57932 119.618844 
L 211.860676 122.301388 
L 210.500884 126.638011 
L 210.024912 129.104877 
L 209.299246 131.908297 
L 209.061609 133.961687 
L 208.388883 140.544671 
L 208.344059 143.130206 
L 208.377611 146.272974 
L 208.719571 150.09151 
L 208.961128 152.817969 
L 209.568668 156.641669 
L 210.277031 159.598267 
L 211.172758 163.324097 
L 212.577801 167.777689 
L 213.077743 168.978483 
L 215.405428 174.954288 
L 215.834306 175.664314 
L 217.530817 178.647265 
L 219.787608 183.201752 
L 220.234342 184.249783 
L 220.975355 185.580313 
L 223.973279 190.117371 
L 226.033645 193.416354 
L 230.062554 198.698607 
L 230.252969 198.929017 
L 230.501711 199.253128 
L 233.08299 204.025977 
L 234.477011 206.835661 
L 235.953845 209.222608 
M 267.331754 209.76982 
L 262.818795 206.056472 
L 260.9276 204.471824 
L 260.580278 203.979182 
L 259.707038 203.373964 
L 253.569833 200.357183 
L 251.649637 199.706316 
L 247.205291 196.604435 
L 242.679958 194.101901 
L 240.508689 192.280366 
L 236.903937 189.628553 
L 235.227187 187.855357 
L 230.049977 182.955453 
L 229.638126 182.402246 
L 227.945581 180.173606 
L 225.057937 176.660949 
L 224.615247 176.142843 
L 221.216665 170.53194 
L 220.841796 169.920456 
L 217.772876 162.965361 
L 217.242473 161.685341 
L 215.407016 154.480394 
L 214.980093 152.702522 
L 214.478547 146.85282 
L 214.340679 145.10156 
L 214.507656 140.302993 
L 214.619671 138.880448 
L 215.164945 134.031894 
L 215.514438 132.576316 
L 217.409715 125.490099 
L 217.827407 124.482146 
L 220.610909 118.076516 
L 221.009884 117.425648 
L 224.619181 111.375642 
L 225.066535 110.852112 
L 227.946522 107.337583 
L 229.80156 104.876056 
L 230.146026 104.437173 
L 235.433901 99.417724 
L 236.298515 98.459442 
L 237.713645 97.240183 
L 241.800979 94.273571 
L 243.883503 92.720562 
L 247.486485 90.76247 
L 251.652097 87.836855 
L 253.58465 87.166054 
L 257.667924 85.0921 
L 258.428941 84.51649 
L 259.349436 83.658765 
L 265.2423 79.789493 
L 268.63655 77.732591 
L 269.675616 74.663663 
L 270.478858 69.854602 
L 268.972024 67.024132 
L 266.248908 62.614042 
L 264.995095 59.955244 
L 260.357674 55.866177 
L 258.331312 53.82998 
L 254.576496 51.127158 
L 252.951132 50.232622 
L 247.798395 47.014333 
L 245.061945 45.78389 
L 241.430898 43.872028 
L 237.476518 42.278411 
L 234.034311 40.698295 
L 229.262493 39.161434 
L 226.218958 38.095806 
L 220.505368 36.581361 
L 218.409976 35.945522 
L 212.156727 34.728618 
L 209.696558 34.193093 
L 202.659963 33.21686 
L 201.064819 32.973611 
L 193.944923 32.363327 
L 192.684491 32.245939 
L 184.388952 32.013119 
L 183.661277 31.989474 
L 175.543934 32.184789 
L 175.19862 32.193757 
L 166.667144 32.905483 
L 166.109895 32.952263 
L 157.367198 34.152469 
L 157.04969 34.199448 
L 148.698925 35.801637 
L 148.688902 35.803664 
L 148.138789 35.941876 
L 139.831579 38.040646 
L 139.697831 38.079155 
L 135.644347 39.343336 
L 131.379435 40.685532 
L 131.243926 40.731215 
L 125.95062 42.709664 
L 123.339968 43.691595 
L 123.273384 43.718726 
L 121.345373 44.567124 
L 115.437247 47.184544 
L 115.219793 47.287414 
L 107.509895 51.247831 
L 107.349968 51.337465 
L 100.268199 55.525746 
L 100.236063 55.546268 
L 93.417273 60.174703 
L 93.108754 60.401161 
L 86.949945 65.169881 
L 86.391694 65.642189 
L 80.877551 70.482645 
L 80.382118 70.958975 
L 75.252021 76.104732 
L 74.633995 76.790005 
L 70.076468 82.003653 
L 69.490887 82.754898 
L 65.17156 88.468075 
L 64.643903 89.262697 
L 61.003262 94.866806 
L 60.513265 95.731858 
L 57.360286 101.469539 
L 56.838581 102.587246 
L 54.247829 108.246124 
L 53.814496 109.394989 
L 51.683534 115.169969 
L 51.332845 116.382549 
L 49.677047 122.211994 
L 49.402857 123.529193 
L 48.238368 129.343571 
L 48.047968 130.899528 
L 47.370707 136.534746 
L 47.306413 138.089399 
L 47.07672 143.756 
L 47.306372 149.422644 
L 47.370633 150.977257 
L 48.04788 156.612575 
L 48.238246 158.168439 
L 49.402772 163.982925 
L 49.676933 165.30002 
L 51.332852 171.129441 
L 51.68355 172.342028 
L 53.792057 178.052176 
L 54.248394 179.265764 
L 56.825341 184.899248 
L 57.360062 186.04252 
L 60.513143 191.780444 
L 61.003019 192.645269 
L 64.64382 198.249516 
L 65.171407 199.04398 
L 69.490881 204.757126 
L 70.076501 205.508335 
L 74.634051 210.721796 
L 75.252259 211.407169 
L 80.382467 216.553266 
L 80.877722 217.029336 
L 86.66367 222.120188 
L 86.936834 222.349258 
L 93.139273 227.130744 
L 93.418577 227.33651 
L 100.236097 231.964107 
L 100.269564 231.98548 
L 107.350002 236.173078 
L 107.511119 236.263403 
L 115.219719 240.223769 
L 115.437832 240.327001 
L 121.348146 242.945997 
L 123.273322 243.793328 
L 123.339982 243.82049 
L 125.961439 244.806693 
L 131.24402 246.781597 
L 131.378829 246.827065 
L 135.617207 248.161064 
L 139.697125 249.433634 
L 139.831895 249.472438 
L 148.196981 251.585741 
L 148.689209 251.709405 
L 148.698183 251.711218 
L 157.049916 253.313405 
L 157.366663 253.360241 
L 166.032713 254.575268 
L 166.1166 254.582665 
L 175.204453 255.319561 
L 175.54453 255.326249 
L 183.66096 255.521785 
L 184.389203 255.498393 
L 192.6854 255.267463 
L 193.768187 255.159463 
L 201.01484 254.538122 
L 202.658275 254.299537 
L 209.6104 253.360998 
L 211.212665 252.999411 
L 218.348291 251.571577 
L 220.504889 250.932548 
L 226.386335 249.343046 
L 229.049397 248.366327 
L 233.885039 246.836167 
L 237.477638 245.223519 
L 241.425803 243.635191 
L 245.061741 241.726047 
L 247.798122 240.497491 
L 252.951945 237.298802 
L 254.590943 236.396175 
L 259.074592 232.951792 
L 259.378802 232.762767 
L 260.229225 232.048812 
L 265.282942 227.145668 
L 266.693266 224.281748 
L 268.434149 222.051342 
L 270.415654 218.146986 
L 269.984785 215.287714 
L 269.064119 210.722192 
" style="fill:#3fbc73;"/>
   </g>
   <g id="PathCollection_7">
    <path clip-path="url(#pb86a790242)" d="M 269.064119 210.722192 
L 269.984785 215.287714 
L 270.415654 218.146986 
L 268.434149 222.051342 
L 266.693266 224.281748 
L 265.282942 227.145668 
L 260.229225 232.048812 
L 259.378802 232.762767 
L 259.074592 232.951792 
L 254.590943 236.396175 
L 252.951945 237.298802 
L 247.798122 240.497491 
L 245.061741 241.726047 
L 241.425803 243.635191 
L 237.477638 245.223519 
L 233.885039 246.836167 
L 229.049397 248.366327 
L 226.386335 249.343046 
L 220.504889 250.932548 
L 218.348291 251.571577 
L 211.212665 252.999411 
L 209.6104 253.360998 
L 202.658275 254.299537 
L 201.01484 254.538122 
L 193.768187 255.159463 
L 192.6854 255.267463 
L 184.389203 255.498393 
L 183.66096 255.521785 
L 175.54453 255.326249 
L 175.204453 255.319561 
L 166.1166 254.582665 
L 166.032713 254.575268 
L 157.366663 253.360241 
L 157.049916 253.313405 
L 148.698183 251.711218 
L 148.689209 251.709405 
L 148.196981 251.585741 
L 139.831895 249.472438 
L 139.697125 249.433634 
L 135.617207 248.161064 
L 131.378829 246.827065 
L 131.24402 246.781597 
L 125.961439 244.806693 
L 123.339982 243.82049 
L 123.273322 243.793328 
L 121.348146 242.945997 
L 115.437832 240.327001 
L 115.219719 240.223769 
L 107.511119 236.263403 
L 107.350002 236.173078 
L 100.269564 231.98548 
L 100.236097 231.964107 
L 93.418577 227.33651 
L 93.139273 227.130744 
L 86.936834 222.349258 
L 86.66367 222.120188 
L 80.877722 217.029336 
L 80.382467 216.553266 
L 75.252259 211.407169 
L 74.634051 210.721796 
L 70.076501 205.508335 
L 69.490881 204.757126 
L 65.171407 199.04398 
L 64.64382 198.249516 
L 61.003019 192.645269 
L 60.513143 191.780444 
L 57.360062 186.04252 
L 56.825341 184.899248 
L 54.248394 179.265764 
L 53.792057 178.052176 
L 51.68355 172.342028 
L 51.332852 171.129441 
L 49.676933 165.30002 
L 49.402772 163.982925 
L 48.238246 158.168439 
L 48.04788 156.612575 
L 47.370633 150.977257 
L 47.306372 149.422644 
L 47.07672 143.756 
L 47.306413 138.089399 
L 47.370707 136.534746 
L 48.047968 130.899528 
L 48.238368 129.343571 
L 49.402857 123.529193 
L 49.677047 122.211994 
L 51.332845 116.382549 
L 51.683534 115.169969 
L 53.814496 109.394989 
L 54.247829 108.246124 
L 56.838581 102.587246 
L 57.360286 101.469539 
L 60.513265 95.731858 
L 61.003262 94.866806 
L 64.643903 89.262697 
L 65.17156 88.468075 
L 69.490887 82.754898 
L 70.076468 82.003653 
L 74.633995 76.790005 
L 75.252021 76.104732 
L 80.382118 70.958975 
L 80.877551 70.482645 
L 86.391694 65.642189 
L 86.949945 65.169881 
L 93.108754 60.401161 
L 93.417273 60.174703 
L 100.236063 55.546268 
L 100.268199 55.525746 
L 107.349968 51.337465 
L 107.509895 51.247831 
L 115.219793 47.287414 
L 115.437247 47.184544 
L 121.345373 44.567124 
L 123.273384 43.718726 
L 123.339968 43.691595 
L 125.95062 42.709664 
L 131.243926 40.731215 
L 131.379435 40.685532 
L 135.644347 39.343336 
L 139.697831 38.079155 
L 139.831579 38.040646 
L 148.138789 35.941876 
L 148.688902 35.803664 
L 148.698925 35.801637 
L 157.04969 34.199448 
L 157.367198 34.152469 
L 166.109895 32.952263 
L 166.667144 32.905483 
L 175.19862 32.193757 
L 175.543934 32.184789 
L 183.661277 31.989474 
L 184.388952 32.013119 
L 192.684491 32.245939 
L 193.944923 32.363327 
L 201.064819 32.973611 
L 202.659963 33.21686 
L 209.696558 34.193093 
L 212.156727 34.728618 
L 218.409976 35.945522 
L 220.505368 36.581361 
L 226.218958 38.095806 
L 229.262493 39.161434 
L 234.034311 40.698295 
L 237.476518 42.278411 
L 241.430898 43.872028 
L 245.061945 45.78389 
L 247.798395 47.014333 
L 252.951132 50.232622 
L 254.576496 51.127158 
L 258.331312 53.82998 
L 260.357674 55.866177 
L 264.995095 59.955244 
L 266.248908 62.614042 
L 268.972024 67.024132 
L 270.478858 69.854602 
L 269.675616 74.663663 
L 268.63655 77.732591 
L 265.2423 79.789493 
L 259.349436 83.658765 
L 258.428941 84.51649 
L 257.667924 85.0921 
L 253.58465 87.166054 
L 251.652097 87.836855 
L 247.486485 90.76247 
L 243.883503 92.720562 
L 241.800979 94.273571 
L 237.713645 97.240183 
L 236.298515 98.459442 
L 235.433901 99.417724 
L 230.146026 104.437173 
L 229.80156 104.876056 
L 227.946522 107.337583 
L 225.066535 110.852112 
L 224.619181 111.375642 
L 221.009884 117.425648 
L 220.610909 118.076516 
L 217.827407 124.482146 
L 217.409715 125.490099 
L 215.514438 132.576316 
L 215.164945 134.031894 
L 214.619671 138.880448 
L 214.507656 140.302993 
L 214.340679 145.10156 
L 214.478547 146.85282 
L 214.980093 152.702522 
L 215.407016 154.480394 
L 217.242473 161.685341 
L 217.772876 162.965361 
L 220.841796 169.920456 
L 221.216665 170.53194 
L 224.615247 176.142843 
L 225.057937 176.660949 
L 227.945581 180.173606 
L 229.638126 182.402246 
L 230.049977 182.955453 
L 235.227187 187.855357 
L 236.903937 189.628553 
L 240.508689 192.280366 
L 242.679958 194.101901 
L 247.205291 196.604435 
L 251.649637 199.706316 
L 253.569833 200.357183 
L 259.707038 203.373964 
L 260.580278 203.979182 
L 260.9276 204.471824 
L 262.818795 206.056472 
L 267.331754 209.76982 
M 309.68225 150.852202 
L 309.679164 150.867127 
L 308.021764 157.769097 
L 308.017282 157.783082 
L 305.30448 164.341105 
L 305.29522 164.360576 
L 305.286461 164.372147 
L 301.578869 170.425458 
L 301.557296 170.446622 
L 296.946047 175.842713 
L 291.55616 180.45427 
L 291.532813 180.471563 
L 291.519058 180.477592 
L 285.465935 184.187288 
L 285.444835 184.193326 
L 278.885712 186.912737 
L 278.868495 186.91492 
L 271.964428 188.575598 
L 271.941801 188.574881 
L 264.861733 189.134246 
L 264.847661 189.131385 
L 257.768394 188.576944 
L 257.750089 188.571049 
L 250.846676 186.916479 
L 250.824033 186.905438 
L 244.263015 184.189682 
L 244.249792 184.180345 
L 238.195184 180.472944 
L 238.178289 180.457691 
L 232.77882 175.848125 
L 232.765955 175.832474 
L 228.153171 170.43387 
L 228.143751 170.418319 
L 224.433173 164.365636 
L 224.424002 164.344852 
L 221.70594 157.785357 
L 221.700148 157.762621 
L 220.042082 150.857801 
L 220.040473 150.839026 
L 219.483208 143.760379 
L 219.483751 143.744761 
L 220.041056 136.667212 
L 220.042793 136.651766 
L 221.700436 129.747966 
L 221.706432 129.725546 
L 224.4243 123.166929 
L 224.432561 123.147917 
L 228.142976 117.094925 
L 228.153082 117.077986 
L 232.766031 111.679534 
L 232.778834 111.663911 
L 238.178291 107.054309 
L 238.195186 107.039075 
L 244.249695 103.331608 
L 244.264901 103.320941 
L 250.826056 100.605446 
L 250.846636 100.595747 
L 257.750113 98.940974 
L 257.768413 98.934967 
L 264.847596 98.380534 
L 264.861732 98.377766 
L 271.941878 98.937214 
L 271.960991 98.936039 
L 278.866797 100.596961 
L 278.882424 100.598429 
L 285.44277 103.317773 
L 285.46619 103.324411 
L 291.519285 107.036302 
L 291.539083 107.046797 
L 296.935246 111.65956 
L 296.950624 111.670779 
L 301.559786 117.067394 
L 301.578195 117.086772 
L 305.285836 123.141245 
L 305.296362 123.156674 
L 308.011777 129.716685 
L 308.01954 129.733286 
L 309.678465 136.633143 
L 309.685246 136.659749 
L 309.686564 136.676601 
L 310.24106 143.750655 
L 310.239289 143.776063 
M 340.141299 151.354996 
L 340.14191 151.335299 
L 340.441109 143.756 
L 340.44027 143.741866 
L 340.141907 136.161615 
L 340.140759 136.14318 
L 339.247143 128.592723 
L 339.244045 128.574388 
L 337.760739 121.083707 
L 337.75769 121.070726 
L 335.687364 113.669522 
L 335.682029 113.652463 
L 333.035395 106.369695 
L 333.029332 106.353918 
L 329.81564 99.218182 
L 329.808129 99.200491 
L 326.042175 92.242429 
L 326.035711 92.22945 
L 321.729209 85.474878 
L 321.719401 85.459622 
L 316.892148 78.934148 
L 316.882587 78.920685 
L 311.551681 72.649727 
L 311.543544 72.639341 
L 305.730731 66.649302 
L 305.718815 66.635316 
L 299.448961 60.949824 
L 299.438406 60.93941 
L 292.73428 55.580576 
L 292.719 55.567155 
L 285.607648 50.555006 
L 285.595839 50.545918 
L 278.104936 45.900993 
L 278.091648 45.892044 
L 270.250235 41.631911 
L 270.236047 41.623327 
L 262.076356 37.765529 
L 262.063438 37.758772 
L 253.616923 34.318489 
L 253.601852 34.311655 
L 244.903908 31.302632 
L 244.888075 31.29673 
L 235.969793 28.730099 
L 235.953391 28.724935 
L 226.851539 26.611002 
L 226.836616 26.607231 
L 217.586579 24.954517 
L 217.570029 24.951248 
L 208.209893 23.766374 
L 208.191663 23.763922 
L 198.756976 23.051137 
L 198.740414 23.049828 
L 189.268022 22.812382 
L 189.250035 22.811936 
L 179.777591 23.050299 
L 179.761271 23.050777 
L 170.325835 23.764545 
L 170.308619 23.765935 
L 160.948555 24.951707 
L 160.930484 24.954224 
L 151.681636 26.607754 
L 151.665287 26.610947 
L 142.563969 28.725724 
L 142.546995 28.730013 
L 133.62936 31.297612 
L 133.613032 31.302705 
L 124.914842 34.312845 
L 124.899299 34.318691 
L 116.453831 37.759908 
L 116.438184 37.766793 
L 108.279826 41.625137 
L 108.264118 41.633213 
L 100.424332 45.893867 
L 100.410305 45.902185 
L 92.919571 50.548543 
L 92.905755 50.557869 
L 85.794661 55.571055 
L 85.781066 55.581516 
L 79.077623 60.941786 
L 79.065155 60.952747 
L 72.795087 66.639577 
L 72.783169 66.651478 
L 66.971825 72.642188 
L 66.961094 72.654478 
L 61.630859 78.925901 
L 61.620667 78.939356 
L 56.792929 85.466464 
L 56.784351 85.479676 
L 52.478096 92.237079 
L 52.470342 92.251105 
L 48.703174 99.211678 
L 48.696646 99.225943 
L 45.483122 106.362739 
L 45.477739 106.377301 
L 42.830673 113.661992 
L 42.826503 113.676679 
L 40.756678 121.080398 
L 40.753562 121.095758 
L 39.269144 128.588775 
L 39.267295 128.604164 
L 38.374396 136.157335 
L 38.373765 136.172928 
L 38.075022 143.756 
L 38.373765 151.339072 
L 38.374396 151.354665 
L 39.267295 158.907836 
L 39.269143 158.923225 
L 40.753563 166.416241 
L 40.756679 166.431602 
L 42.826501 173.835324 
L 42.83067 173.850008 
L 45.477745 181.134689 
L 45.483122 181.149261 
L 48.696561 188.285901 
L 48.703168 188.300323 
L 52.470343 195.260893 
L 52.478097 195.274921 
L 56.784351 202.032325 
L 56.792929 202.045536 
L 61.620667 208.572644 
L 61.630859 208.586098 
L 66.961094 214.857523 
L 66.971824 214.869812 
L 72.78317 220.860519 
L 72.795089 220.872423 
L 79.065155 226.559263 
L 79.077648 226.570201 
L 85.781739 231.930973 
L 85.794667 231.940941 
L 92.905754 236.954133 
L 92.91957 236.963458 
L 100.410305 241.609814 
L 100.424332 241.618133 
L 108.264118 245.878786 
L 108.279825 245.886863 
L 116.438184 249.745206 
L 116.453831 249.752092 
L 124.899299 253.193308 
L 124.914842 253.199155 
L 133.613032 256.209295 
L 133.62936 256.214388 
L 142.546995 258.781988 
L 142.563969 258.786276 
L 151.665287 260.901051 
L 151.681638 260.904244 
L 160.930487 262.557784 
L 160.947448 262.560118 
L 170.308447 263.745996 
L 170.32584 263.747447 
L 179.761272 264.461225 
L 179.77759 264.461704 
L 189.250033 264.700062 
L 189.268021 264.69962 
L 198.740413 264.46217 
L 198.756976 264.460866 
L 208.191662 263.748077 
L 208.208469 263.745766 
L 217.569753 262.560751 
L 217.58658 262.557477 
L 226.83661 260.904763 
L 226.853116 260.900659 
L 235.953763 258.787027 
L 235.969792 258.781904 
L 244.88807 256.215265 
L 244.903908 256.209371 
L 253.601844 253.20034 
L 253.616923 253.19351 
L 262.063448 249.753235 
L 262.076357 249.746474 
L 270.236024 245.888662 
L 270.250229 245.880062 
L 278.091751 241.620005 
L 278.104947 241.61105 
L 285.595595 236.965992 
L 285.609506 236.954945 
L 292.721834 231.942689 
L 292.732162 231.933556 
L 299.436877 226.573443 
L 299.448848 226.561959 
L 305.719119 220.876726 
L 305.730757 220.862746 
L 311.543359 214.872626 
L 311.5517 214.862295 
L 316.8825 208.591314 
L 316.892036 208.577727 
L 321.720274 202.052326 
L 321.72757 202.040448 
L 326.033203 195.284734 
L 326.041709 195.269261 
L 329.808917 188.311275 
L 329.81597 188.294026 
L 333.02811 181.158373 
L 333.032595 181.145845 
L 333.040291 181.130364 
L 335.684548 173.861195 
L 335.688797 173.84331 
L 337.755181 166.442183 
L 337.758127 166.427533 
L 337.760845 166.411777 
L 339.247249 158.923829 
L 339.24989 158.905979 
" style="fill:#84d44b;"/>
   </g>
   <g id="PathCollection_8">
    <path clip-path="url(#pb86a790242)" d="M 310.22 143.756 
L 309.661618 150.851861 
L 307.99993 157.773011 
L 305.276062 164.348986 
L 301.556996 170.418003 
L 296.934358 175.830358 
L 291.522003 180.452996 
L 285.452986 184.172062 
L 278.876996 186.89593 
L 271.955816 188.557618 
L 264.86 189.116 
L 257.764184 188.557618 
L 250.843004 186.89593 
L 244.267014 184.172062 
L 238.197997 180.452996 
L 232.785642 175.830358 
L 228.163004 170.418003 
L 224.443938 164.348986 
L 221.72007 157.773011 
L 220.058382 150.851861 
L 219.5 143.756 
L 220.058382 136.660139 
L 221.72007 129.738989 
L 224.443938 123.163014 
L 228.163004 117.093997 
L 232.785642 111.681642 
L 238.197997 107.059004 
L 244.267014 103.339938 
L 250.843004 100.61607 
L 257.764184 98.954382 
L 264.86 98.396 
L 271.955816 98.954382 
L 278.876996 100.61607 
L 285.452986 103.339938 
L 291.522003 107.059004 
L 296.934358 111.681642 
L 301.556996 117.093997 
L 305.276062 123.163014 
L 307.99993 129.738989 
L 309.661618 136.660139 
M 339.266427 158.924535 
L 340.16138 151.355327 
L 340.46 143.756 
L 340.16138 136.156673 
L 339.266427 128.587465 
L 337.778922 121.078419 
L 335.704911 113.659338 
L 333.05241 106.359402 
L 329.832303 99.207642 
L 326.057293 92.232332 
L 321.742347 85.460991 
L 316.904703 78.92023 
L 311.563563 72.635754 
L 305.740095 66.632358 
L 299.457282 60.933781 
L 292.739919 55.56225 
L 285.614619 50.538932 
L 278.109354 45.883484 
L 270.25406 41.614352 
L 262.079432 37.748319 
L 253.617675 34.300506 
L 244.902356 31.284519 
L 235.967797 28.712154 
L 226.849076 26.593539 
L 217.582179 24.936992 
L 208.203697 23.749165 
L 198.750567 23.034442 
L 189.26 22.796 
L 179.769433 23.034442 
L 170.316303 23.749165 
L 160.937821 24.936992 
L 151.670924 26.593539 
L 142.552203 28.712154 
L 133.617644 31.284519 
L 124.902325 34.300506 
L 116.440568 37.748319 
L 108.26594 41.614352 
L 100.410646 45.883484 
L 92.905381 50.538932 
L 85.780081 55.56225 
L 79.062718 60.933781 
L 72.779905 66.632358 
L 66.956437 72.635754 
L 61.615297 78.92023 
L 56.777653 85.460991 
L 52.462707 92.232332 
L 48.687697 99.207642 
L 45.46759 106.359402 
L 42.815089 113.659338 
L 40.741078 121.078419 
L 39.253573 128.587465 
L 38.35862 136.156673 
L 38.06 143.756 
L 38.35862 151.355327 
L 39.253573 158.924535 
L 40.741078 166.433581 
L 42.815089 173.852662 
L 45.46759 181.152598 
L 48.687697 188.304358 
L 52.462707 195.279668 
L 56.777653 202.051009 
L 61.615297 208.59177 
L 66.956437 214.876246 
L 72.779905 220.879642 
L 79.062718 226.578219 
L 85.780081 231.94975 
L 92.905381 236.973068 
L 100.410646 241.628516 
L 108.26594 245.897648 
L 116.440568 249.763681 
L 124.902325 253.211494 
L 133.617644 256.227481 
L 142.552203 258.799846 
L 151.670924 260.918461 
L 160.937821 262.575008 
L 170.316303 263.762835 
L 179.769433 264.477558 
L 189.26 264.716 
L 198.750567 264.477558 
L 208.203697 263.762835 
L 217.582179 262.575008 
L 226.849076 260.918461 
L 235.967797 258.799846 
L 244.902356 256.227481 
L 253.617675 253.211494 
L 262.079432 249.763681 
L 270.25406 245.897648 
L 278.109354 241.628516 
L 285.614619 236.973068 
L 292.739919 231.94975 
L 299.457282 226.578219 
L 305.740095 220.879642 
L 311.563563 214.876246 
L 316.904703 208.59177 
L 321.742347 202.051009 
L 326.057293 195.279668 
L 329.832303 188.304358 
L 333.05241 181.152598 
L 335.704911 173.852662 
L 337.778922 166.433581 
M 310.239289 143.776063 
L 310.24106 143.750655 
L 309.686564 136.676601 
L 309.685246 136.659749 
L 309.678465 136.633143 
L 308.01954 129.733286 
L 308.011777 129.716685 
L 305.296362 123.156674 
L 305.285836 123.141245 
L 301.578195 117.086772 
L 301.559786 117.067394 
L 296.950624 111.670779 
L 296.935246 111.65956 
L 291.539083 107.046797 
L 291.519285 107.036302 
L 285.46619 103.324411 
L 285.44277 103.317773 
L 278.882424 100.598429 
L 278.866797 100.596961 
L 271.960991 98.936039 
L 271.941878 98.937214 
L 264.861732 98.377766 
L 264.847596 98.380534 
L 257.768413 98.934967 
L 257.750113 98.940974 
L 250.846636 100.595747 
L 250.826056 100.605446 
L 244.264901 103.320941 
L 244.249695 103.331608 
L 238.195186 107.039075 
L 238.178291 107.054309 
L 232.778834 111.663911 
L 232.766031 111.679534 
L 228.153082 117.077986 
L 228.142976 117.094925 
L 224.432561 123.147917 
L 224.4243 123.166929 
L 221.706432 129.725546 
L 221.700436 129.747966 
L 220.042793 136.651766 
L 220.041056 136.667212 
L 219.483751 143.744761 
L 219.483208 143.760379 
L 220.040473 150.839026 
L 220.042082 150.857801 
L 221.700148 157.762621 
L 221.70594 157.785357 
L 224.424002 164.344852 
L 224.433173 164.365636 
L 228.143751 170.418319 
L 228.153171 170.43387 
L 232.765955 175.832474 
L 232.77882 175.848125 
L 238.178289 180.457691 
L 238.195184 180.472944 
L 244.249792 184.180345 
L 244.263015 184.189682 
L 250.824033 186.905438 
L 250.846676 186.916479 
L 257.750089 188.571049 
L 257.768394 188.576944 
L 264.847661 189.131385 
L 264.861733 189.134246 
L 271.941801 188.574881 
L 271.964428 188.575598 
L 278.868495 186.91492 
L 278.885712 186.912737 
L 285.444835 184.193326 
L 285.465935 184.187288 
L 291.519058 180.477592 
L 291.532813 180.471563 
L 291.55616 180.45427 
L 296.946047 175.842713 
L 301.557296 170.446622 
L 301.578869 170.425458 
L 305.286461 164.372147 
L 305.29522 164.360576 
L 305.30448 164.341105 
L 308.017282 157.783082 
L 308.021764 157.769097 
L 309.679164 150.867127 
L 309.68225 150.852202 
M 339.24989 158.905979 
L 339.247249 158.923829 
L 337.760845 166.411777 
L 337.758127 166.427533 
L 337.755181 166.442183 
L 335.688797 173.84331 
L 335.684548 173.861195 
L 333.040291 181.130364 
L 333.032595 181.145845 
L 333.02811 181.158373 
L 329.81597 188.294026 
L 329.808917 188.311275 
L 326.041709 195.269261 
L 326.033203 195.284734 
L 321.72757 202.040448 
L 321.720274 202.052326 
L 316.892036 208.577727 
L 316.8825 208.591314 
L 311.5517 214.862295 
L 311.543359 214.872626 
L 305.730757 220.862746 
L 305.719119 220.876726 
L 299.448848 226.561959 
L 299.436877 226.573443 
L 292.732162 231.933556 
L 292.721834 231.942689 
L 285.609506 236.954945 
L 285.595595 236.965992 
L 278.104947 241.61105 
L 278.091751 241.620005 
L 270.250229 245.880062 
L 270.236024 245.888662 
L 262.076357 249.746474 
L 262.063448 249.753235 
L 253.616923 253.19351 
L 253.601844 253.20034 
L 244.903908 256.209371 
L 244.88807 256.215265 
L 235.969792 258.781904 
L 235.953763 258.787027 
L 226.853116 260.900659 
L 226.83661 260.904763 
L 217.58658 262.557477 
L 217.569753 262.560751 
L 208.208469 263.745766 
L 208.191662 263.748077 
L 198.756976 264.460866 
L 198.740413 264.46217 
L 189.268021 264.69962 
L 189.250033 264.700062 
L 179.77759 264.461704 
L 179.761272 264.461225 
L 170.32584 263.747447 
L 170.308447 263.745996 
L 160.947448 262.560118 
L 160.930487 262.557784 
L 151.681638 260.904244 
L 151.665287 260.901051 
L 142.563969 258.786276 
L 142.546995 258.781988 
L 133.62936 256.214388 
L 133.613032 256.209295 
L 124.914842 253.199155 
L 124.899299 253.193308 
L 116.453831 249.752092 
L 116.438184 249.745206 
L 108.279825 245.886863 
L 108.264118 245.878786 
L 100.424332 241.618133 
L 100.410305 241.609814 
L 92.91957 236.963458 
L 92.905754 236.954133 
L 85.794667 231.940941 
L 85.781739 231.930973 
L 79.077648 226.570201 
L 79.065155 226.559263 
L 72.795089 220.872423 
L 72.78317 220.860519 
L 66.971824 214.869812 
L 66.961094 214.857523 
L 61.630859 208.586098 
L 61.620667 208.572644 
L 56.792929 202.045536 
L 56.784351 202.032325 
L 52.478097 195.274921 
L 52.470343 195.260893 
L 48.703168 188.300323 
L 48.696561 188.285901 
L 45.483122 181.149261 
L 45.477745 181.134689 
L 42.83067 173.850008 
L 42.826501 173.835324 
L 40.756679 166.431602 
L 40.753563 166.416241 
L 39.269143 158.923225 
L 39.267295 158.907836 
L 38.374396 151.354665 
L 38.373765 151.339072 
L 38.075022 143.756 
L 38.373765 136.172928 
L 38.374396 136.157335 
L 39.267295 128.604164 
L 39.269144 128.588775 
L 40.753562 121.095758 
L 40.756678 121.080398 
L 42.826503 113.676679 
L 42.830673 113.661992 
L 45.477739 106.377301 
L 45.483122 106.362739 
L 48.696646 99.225943 
L 48.703174 99.211678 
L 52.470342 92.251105 
L 52.478096 92.237079 
L 56.784351 85.479676 
L 56.792929 85.466464 
L 61.620667 78.939356 
L 61.630859 78.925901 
L 66.961094 72.654478 
L 66.971825 72.642188 
L 72.783169 66.651478 
L 72.795087 66.639577 
L 79.065155 60.952747 
L 79.077623 60.941786 
L 85.781066 55.581516 
L 85.794661 55.571055 
L 92.905755 50.557869 
L 92.919571 50.548543 
L 100.410305 45.902185 
L 100.424332 45.893867 
L 108.264118 41.633213 
L 108.279826 41.625137 
L 116.438184 37.766793 
L 116.453831 37.759908 
L 124.899299 34.318691 
L 124.914842 34.312845 
L 133.613032 31.302705 
L 133.62936 31.297612 
L 142.546995 28.730013 
L 142.563969 28.725724 
L 151.665287 26.610947 
L 151.681636 26.607754 
L 160.930484 24.954224 
L 160.948555 24.951707 
L 170.308619 23.765935 
L 170.325835 23.764545 
L 179.761271 23.050777 
L 179.777591 23.050299 
L 189.250035 22.811936 
L 189.268022 22.812382 
L 198.740414 23.049828 
L 198.756976 23.051137 
L 208.191663 23.763922 
L 208.209893 23.766374 
L 217.570029 24.951248 
L 217.586579 24.954517 
L 226.836616 26.607231 
L 226.851539 26.611002 
L 235.953391 28.724935 
L 235.969793 28.730099 
L 244.888075 31.29673 
L 244.903908 31.302632 
L 253.601852 34.311655 
L 253.616923 34.318489 
L 262.063438 37.758772 
L 262.076356 37.765529 
L 270.236047 41.623327 
L 270.250235 41.631911 
L 278.091648 45.892044 
L 278.104936 45.900993 
L 285.595839 50.545918 
L 285.607648 50.555006 
L 292.719 55.567155 
L 292.73428 55.580576 
L 299.438406 60.93941 
L 299.448961 60.949824 
L 305.718815 66.635316 
L 305.730731 66.649302 
L 311.543544 72.639341 
L 311.551681 72.649727 
L 316.882587 78.920685 
L 316.892148 78.934148 
L 321.719401 85.459622 
L 321.729209 85.474878 
L 326.035711 92.22945 
L 326.042175 92.242429 
L 329.808129 99.200491 
L 329.81564 99.218182 
L 333.029332 106.353918 
L 333.035395 106.369695 
L 335.682029 113.652463 
L 335.687364 113.669522 
L 337.75769 121.070726 
L 337.760739 121.083707 
L 339.244045 128.574388 
L 339.247143 128.592723 
L 340.140759 136.14318 
L 340.141907 136.161615 
L 340.44027 143.741866 
L 340.441109 143.756 
L 340.14191 151.335299 
L 340.141299 151.354996 
" style="fill:#d8e219;"/>
   </g>
   <g id="line2d_1">
    <path clip-path="url(#pb86a790242)" d="M 305.740095 66.632358 
L 299.457282 60.933781 
L 292.739919 55.56225 
L 285.614619 50.538932 
L 278.109354 45.883484 
L 270.25406 41.614352 
L 262.079432 37.748319 
L 253.617675 34.300506 
L 244.902356 31.284519 
L 235.967797 28.712154 
L 226.849076 26.593539 
L 217.582179 24.936992 
L 208.203697 23.749165 
L 198.750567 23.034442 
L 189.26 22.796 
L 179.769433 23.034442 
L 170.316303 23.749165 
L 160.937821 24.936992 
L 151.670924 26.593539 
L 142.552203 28.712154 
L 133.617644 31.284519 
L 124.902325 34.300506 
L 116.440568 37.748319 
L 108.26594 41.614352 
L 100.410646 45.883484 
L 92.905381 50.538932 
L 85.780081 55.56225 
L 79.062718 60.933781 
L 72.779905 66.632358 
L 66.956437 72.635754 
L 61.615297 78.92023 
L 56.777653 85.460991 
L 52.462707 92.232332 
L 48.687697 99.207642 
L 45.46759 106.359402 
L 42.815089 113.659338 
L 40.741078 121.078419 
L 39.253573 128.587465 
L 38.35862 136.156673 
L 38.06 143.756 
L 38.35862 151.355327 
L 39.253573 158.924535 
L 40.741078 166.433581 
L 42.815089 173.852662 
L 45.46759 181.152598 
L 48.687697 188.304358 
L 52.462707 195.279668 
L 56.777653 202.051009 
L 61.615297 208.59177 
L 66.956437 214.876246 
L 72.779905 220.879642 
L 79.062718 226.578219 
L 85.780081 231.94975 
L 92.905381 236.973068 
L 100.410646 241.628516 
L 108.26594 245.897648 
L 116.440568 249.763681 
L 124.902325 253.211494 
L 133.617644 256.227481 
L 142.552203 258.799846 
L 151.670924 260.918461 
L 160.937821 262.575008 
L 170.316303 263.762835 
L 179.769433 264.477558 
L 189.26 264.716 
L 198.750567 264.477558 
L 208.203697 263.762835 
L 217.582179 262.575008 
L 226.849076 260.918461 
L 235.967797 258.799846 
L 244.902356 256.227481 
L 253.617675 253.211494 
L 262.079432 249.763681 
L 270.25406 245.897648 
L 278.109354 241.628516 
L 285.614619 236.973068 
L 292.739919 231.94975 
L 299.457282 226.578219 
L 305.740095 220.879642 
L 311.563563 214.876246 
L 316.904703 208.59177 
L 321.742347 202.051009 
L 326.057293 195.279668 
L 329.832303 188.304358 
L 333.05241 181.152598 
L 335.704911 173.852662 
L 337.778922 166.433581 
L 339.266427 158.924535 
L 340.16138 151.355327 
L 340.46 143.756 
L 340.16138 136.156673 
L 339.266427 128.587465 
L 337.778922 121.078419 
L 335.704911 113.659338 
L 333.05241 106.359402 
L 329.832303 99.207642 
L 326.057293 92.232332 
L 321.742347 85.460991 
L 316.904703 78.92023 
L 311.563563 72.635754 
L 305.740095 66.632358 
" style="fill:none;stroke:#000000;stroke-linecap:square;stroke-width:1.5;"/>
   </g>
   <g id="line2d_2">
    <path clip-path="url(#pb86a790242)" d="M 220.058382 150.851861 
L 219.5 143.756 
L 220.058382 136.660139 
L 221.72007 129.738989 
L 224.443938 123.163014 
L 228.163004 117.093997 
L 232.785642 111.681642 
L 238.197997 107.059004 
L 244.267014 103.339938 
L 250.843004 100.61607 
L 257.764184 98.954382 
L 264.86 98.396 
L 271.955816 98.954382 
L 278.876996 100.61607 
L 285.452986 103.339938 
L 291.522003 107.059004 
L 296.934358 111.681642 
L 301.556996 117.093997 
L 305.276062 123.163014 
L 307.99993 129.738989 
L 309.661618 136.660139 
L 310.22 143.756 
L 309.661618 150.851861 
L 307.99993 157.773011 
L 305.276062 164.348986 
L 301.556996 170.418003 
L 296.934358 175.830358 
L 291.522003 180.452996 
L 285.452986 184.172062 
L 278.876996 186.89593 
L 271.955816 188.557618 
L 264.86 189.116 
L 257.764184 188.557618 
L 250.843004 186.89593 
L 244.267014 184.172062 
L 238.197997 180.452996 
L 232.785642 175.830358 
L 228.163004 170.418003 
L 224.443938 164.348986 
L 221.72007 157.773011 
L 220.058382 150.851861 
" style="fill:none;stroke:#000000;stroke-linecap:square;stroke-width:1.5;"/>
   </g>
  </g>
 </g>
 <defs>
  <clipPath id="pb86a790242">
   <rect height="266.112" width="357.12" x="10.7" y="10.7"/>
  </clipPath>
 </defs>
</svg>
