<?xml version="1.0" encoding="utf-8" standalone="no"?>
<!DOCTYPE svg PUBLIC "-//W3C//DTD SVG 1.1//EN"
  "http://www.w3.org/Graphics/SVG/1.1/DTD/svg11.dtd">
<!-- Created with matplotlib (http://matplotlib.org/) -->
<svg height="287pt" version="1.1" viewBox="0 0 378 287" width="378pt" xmlns="http://www.w3.org/2000/svg" xmlns:xlink="http://www.w3.org/1999/xlink">
 <defs>
  <style type="text/css">
*{stroke-linecap:butt;stroke-linejoin:round;}
  </style>
 </defs>
 <g id="figure_1">
  <g id="patch_1">
   <path d="M 0 287.512 
L 378.52 287.512 
L 378.52 0 
L 0 0 
z
" style="fill:#ffffff;"/>
  </g>
  <g id="axes_1">
   <g id="PathCollection_1">
    <path clip-path="url(#p0eed2db867)" d="M 143.912673 169.924142 
L 149.478677 168.163094 
L 150.844449 167.295005 
L 152.346814 165.575254 
L 156.036403 160.83991 
L 156.754792 159.894907 
L 157.05608 159.420758 
L 158.553181 152.569142 
L 159.091691 149.565962 
L 159.147002 144.994704 
L 159.114367 142.504782 
L 158.775606 137.278897 
L 158.305691 134.566983 
L 156.95869 128.38727 
L 156.410505 127.302098 
L 154.137254 123.776474 
L 150.331993 119.887129 
L 145.481687 117.934288 
L 142.25932 117.532182 
L 140.803836 117.861325 
L 137.957592 118.603729 
L 134.636197 119.9936 
L 128.661062 124.236266 
L 127.771829 125.061458 
L 125.785095 127.583844 
L 123.749044 130.619942 
L 123.214692 131.541135 
L 121.8443 135.592959 
L 120.904533 138.885928 
L 120.657264 140.282809 
L 120.714768 147.195614 
L 120.922245 148.634051 
L 121.919703 152.81214 
L 122.224968 153.834204 
L 122.319679 154.087367 
L 125.330191 159.796957 
L 125.439578 159.942056 
L 125.770094 160.322244 
L 130.280144 164.615512 
L 132.678707 166.399251 
L 136.61185 168.532718 
L 142.444316 169.880045 
L 143.283317 170.019049 
" style="fill:#48186a;"/>
   </g>
   <g id="PathCollection_2">
    <path clip-path="url(#p0eed2db867)" d="M 143.283317 170.019049 
L 142.444316 169.880045 
L 136.61185 168.532718 
L 132.678707 166.399251 
L 130.280144 164.615512 
L 125.770094 160.322244 
L 125.439578 159.942056 
L 125.330191 159.796957 
L 122.319679 154.087367 
L 122.224968 153.834204 
L 121.919703 152.81214 
L 120.922245 148.634051 
L 120.714768 147.195614 
L 120.657264 140.282809 
L 120.904533 138.885928 
L 121.8443 135.592959 
L 123.214692 131.541135 
L 123.749044 130.619942 
L 125.785095 127.583844 
L 127.771829 125.061458 
L 128.661062 124.236266 
L 134.636197 119.9936 
L 137.957592 118.603729 
L 140.803836 117.861325 
L 142.25932 117.532182 
L 145.481687 117.934288 
L 150.331993 119.887129 
L 154.137254 123.776474 
L 156.410505 127.302098 
L 156.95869 128.38727 
L 158.305691 134.566983 
L 158.775606 137.278897 
L 159.114367 142.504782 
L 159.147002 144.994704 
L 159.091691 149.565962 
L 158.553181 152.569142 
L 157.05608 159.420758 
L 156.754792 159.894907 
L 156.036403 160.83991 
L 152.346814 165.575254 
L 150.844449 167.295005 
L 149.478677 168.163094 
L 143.912673 169.924142 
M 162.088409 198.99347 
L 167.787903 196.413363 
L 168.825366 195.720953 
L 170.786222 193.865349 
L 173.763108 190.890937 
L 176.254655 186.60568 
L 177.787121 182.950381 
L 178.315804 179.7949 
L 178.893571 176.561652 
L 179.810745 170.24444 
L 179.903816 169.737519 
L 180.097194 167.038936 
L 180.182633 163.927484 
L 180.175345 163.483296 
L 180.21578 158.161614 
L 180.2207 154.501194 
L 180.235404 151.446811 
L 180.256238 148.634255 
L 180.219127 144.340629 
L 180.173876 141.405896 
L 180.109783 138.558136 
L 180.057857 135.721591 
L 180.160096 128.810214 
L 180.212785 126.345945 
L 180.23216 121.393088 
L 180.154619 120.347928 
L 180.07351 119.741728 
L 179.654253 114.478993 
L 179.461955 112.45093 
L 179.458521 112.25953 
L 179.234266 110.913346 
L 178.425598 106.449792 
L 178.10103 105.56331 
L 177.678603 104.506562 
L 175.795567 99.745675 
L 173.782401 96.524399 
L 171.668981 94.172133 
L 167.664555 91.151443 
L 164.739825 89.646558 
L 160.983647 88.338544 
L 155.063087 87.348196 
L 153.626942 87.140431 
L 145.327996 87.991768 
L 142.759297 88.271025 
L 138.55792 89.539556 
L 133.295526 91.102663 
L 130.700445 92.231049 
L 128.71745 93.229451 
L 124.978972 95.234859 
L 123.427103 96.250669 
L 119.799633 98.845736 
L 117.538986 100.552485 
L 113.467146 104.339851 
L 110.450018 107.30392 
L 108.507995 109.519907 
L 105.180647 114.220773 
L 103.423385 116.890365 
L 102.444088 118.602742 
L 101.582116 120.446293 
L 99.125352 126.387049 
L 98.430117 128.396903 
L 97.273428 132.565817 
L 97.080698 133.45387 
L 96.975126 134.117028 
L 96.01105 142.935646 
L 95.968317 143.756 
L 96.009189 144.577768 
L 96.902955 153.351851 
L 97.015097 154.063651 
L 97.2252 155.013664 
L 99.512502 162.122826 
L 100.218808 164.074549 
L 101.00786 165.850082 
L 104.345552 172.053964 
L 105.217547 173.561171 
L 106.514343 175.50993 
L 110.282412 179.974144 
L 112.226381 182.18655 
L 114.992379 184.867118 
L 118.548243 187.844259 
L 120.348747 189.195444 
L 122.878284 190.886234 
L 128.72968 194.27669 
L 131.408966 195.68866 
L 134.358861 196.807827 
L 137.940382 198.062362 
L 141.648769 199.106183 
L 143.634785 199.591022 
L 148.131278 200.180225 
L 151.360509 200.394018 
L 160.338444 199.50377 
L 161.145024 199.408199 
L 161.275178 199.353933 
" style="fill:#424086;"/>
   </g>
   <g id="PathCollection_3">
    <path clip-path="url(#p0eed2db867)" d="M 161.275178 199.353933 
L 161.145024 199.408199 
L 160.338444 199.50377 
L 151.360509 200.394018 
L 148.131278 200.180225 
L 143.634785 199.591022 
L 141.648769 199.106183 
L 137.940382 198.062362 
L 134.358861 196.807827 
L 131.408966 195.68866 
L 128.72968 194.27669 
L 122.878284 190.886234 
L 120.348747 189.195444 
L 118.548243 187.844259 
L 114.992379 184.867118 
L 112.226381 182.18655 
L 110.282412 179.974144 
L 106.514343 175.50993 
L 105.217547 173.561171 
L 104.345552 172.053964 
L 101.00786 165.850082 
L 100.218808 164.074549 
L 99.512502 162.122826 
L 97.2252 155.013664 
L 97.015097 154.063651 
L 96.902955 153.351851 
L 96.009189 144.577768 
L 95.968317 143.756 
L 96.01105 142.935646 
L 96.975126 134.117028 
L 97.080698 133.45387 
L 97.273428 132.565817 
L 98.430117 128.396903 
L 99.125352 126.387049 
L 101.582116 120.446293 
L 102.444088 118.602742 
L 103.423385 116.890365 
L 105.180647 114.220773 
L 108.507995 109.519907 
L 110.450018 107.30392 
L 113.467146 104.339851 
L 117.538986 100.552485 
L 119.799633 98.845736 
L 123.427103 96.250669 
L 124.978972 95.234859 
L 128.71745 93.229451 
L 130.700445 92.231049 
L 133.295526 91.102663 
L 138.55792 89.539556 
L 142.759297 88.271025 
L 145.327996 87.991768 
L 153.626942 87.140431 
L 155.063087 87.348196 
L 160.983647 88.338544 
L 164.739825 89.646558 
L 167.664555 91.151443 
L 171.668981 94.172133 
L 173.782401 96.524399 
L 175.795567 99.745675 
L 177.678603 104.506562 
L 178.10103 105.56331 
L 178.425598 106.449792 
L 179.234266 110.913346 
L 179.458521 112.25953 
L 179.461955 112.45093 
L 179.654253 114.478993 
L 180.07351 119.741728 
L 180.154619 120.347928 
L 180.23216 121.393088 
L 180.212785 126.345945 
L 180.160096 128.810214 
L 180.057857 135.721591 
L 180.109783 138.558136 
L 180.173876 141.405896 
L 180.219127 144.340629 
L 180.256238 148.634255 
L 180.235404 151.446811 
L 180.2207 154.501194 
L 180.21578 158.161614 
L 180.175345 163.483296 
L 180.182633 163.927484 
L 180.097194 167.038936 
L 179.903816 169.737519 
L 179.810745 170.24444 
L 178.893571 176.561652 
L 178.315804 179.7949 
L 177.787121 182.950381 
L 176.254655 186.60568 
L 173.763108 190.890937 
L 170.786222 193.865349 
L 168.825366 195.720953 
L 167.787903 196.413363 
L 162.088409 198.99347 
M 168.824539 218.440083 
L 170.39141 218.212501 
L 171.454387 217.952411 
L 176.830137 216.729892 
L 180.403237 215.470913 
L 183.892428 213.660745 
L 185.909515 212.468288 
L 189.038636 209.882411 
L 190.474893 208.451378 
L 194.41923 201.089321 
L 195.055317 199.879997 
L 195.190299 198.845433 
L 195.333301 197.039268 
L 196.070449 190.952357 
L 196.138502 186.838368 
L 195.469577 181.926831 
L 195.222307 180.145991 
L 194.718789 174.178101 
L 194.125891 170.526892 
L 193.582944 163.855868 
L 193.544076 163.512048 
L 193.53597 163.375531 
L 193.532584 163.252096 
L 193.387833 161.474199 
L 192.773467 155.17887 
L 192.72512 154.75118 
L 192.409031 150.071153 
L 192.385082 149.074091 
L 192.079469 145.017064 
L 192.314801 140.137013 
L 192.318476 138.752127 
L 192.749402 132.995408 
L 192.778826 132.567767 
L 193.196257 128.328027 
L 193.370073 125.595276 
L 193.384368 125.258675 
L 193.48366 124.455559 
L 194.139176 116.995187 
L 194.571761 114.140853 
L 194.976114 109.752696 
L 195.349869 107.336249 
L 195.953228 102.62545 
L 195.95075 101.727201 
L 195.915728 100.902682 
L 195.959792 94.968671 
L 195.086703 88.934042 
L 195.010572 87.859454 
L 193.557079 84.522167 
L 192.413159 81.809461 
L 188.050339 76.870521 
L 187.125665 75.856213 
L 182.672057 73.418555 
L 180.02161 71.929207 
L 176.371178 70.745976 
L 170.924089 69.458264 
L 170.237664 69.255482 
L 168.542869 69.068282 
L 162.531619 68.659452 
L 159.895491 68.795251 
L 155.810784 68.925465 
L 152.732737 69.237923 
L 149.685722 69.64996 
L 146.508338 70.193997 
L 142.042962 71.191286 
L 137.023943 72.671717 
L 134.783008 73.403227 
L 129.56845 75.370841 
L 128.937494 75.618514 
L 123.463158 78.321047 
L 121.8655 79.127785 
L 117.639214 81.652483 
L 115.778161 82.821622 
L 112.1092 85.332627 
L 110.403121 86.57652 
L 107.003605 89.382657 
L 105.1089 91.063244 
L 102.269254 93.735303 
L 100.172936 95.946337 
L 96.778958 99.791428 
L 95.383245 101.586715 
L 93.03486 104.747102 
L 91.551088 106.97573 
L 89.763463 109.92033 
L 88.262905 112.731494 
L 86.957842 115.275042 
L 85.689241 118.207932 
L 84.638162 120.783444 
L 83.651954 123.812293 
L 82.828975 126.417721 
L 81.878505 130.331234 
L 81.494986 132.142262 
L 80.90162 136.41503 
L 80.699198 137.932953 
L 80.497249 142.197708 
L 80.426383 143.756 
L 80.496843 145.314637 
L 80.695929 149.579184 
L 80.8985 151.099954 
L 81.490152 155.370145 
L 81.874828 157.185898 
L 82.825379 161.094736 
L 83.649555 163.702475 
L 84.639133 166.728391 
L 85.639183 169.158396 
L 86.948404 172.239033 
L 88.1482 174.601943 
L 89.755289 177.593802 
L 91.547621 180.545205 
L 93.028103 182.766982 
L 95.380493 185.930475 
L 96.774476 187.722178 
L 100.172832 191.56622 
L 102.274212 193.77489 
L 105.112543 196.440178 
L 107.018845 198.122969 
L 110.4073 200.915109 
L 112.130831 202.169047 
L 116.788821 205.412752 
L 117.584158 205.889016 
L 122.27549 208.554878 
L 123.496101 209.171057 
L 128.936644 211.852041 
L 129.603221 212.117608 
L 135.303443 214.177518 
L 138.531848 215.277048 
L 142.045491 216.34005 
L 146.553439 217.356622 
L 149.688523 217.880037 
L 152.502372 218.253794 
L 156.252823 218.62977 
L 161.029516 218.727049 
L 163.778247 218.801797 
" style="fill:#33638d;"/>
   </g>
   <g id="PathCollection_4">
    <path clip-path="url(#p0eed2db867)" d="M 163.778247 218.801797 
L 161.029516 218.727049 
L 156.252823 218.62977 
L 152.502372 218.253794 
L 149.688523 217.880037 
L 146.553439 217.356622 
L 142.045491 216.34005 
L 138.531848 215.277048 
L 135.303443 214.177518 
L 129.603221 212.117608 
L 128.936644 211.852041 
L 123.496101 209.171057 
L 122.27549 208.554878 
L 117.584158 205.889016 
L 116.788821 205.412752 
L 112.130831 202.169047 
L 110.4073 200.915109 
L 107.018845 198.122969 
L 105.112543 196.440178 
L 102.274212 193.77489 
L 100.172832 191.56622 
L 96.774476 187.722178 
L 95.380493 185.930475 
L 93.028103 182.766982 
L 91.547621 180.545205 
L 89.755289 177.593802 
L 88.1482 174.601943 
L 86.948404 172.239033 
L 85.639183 169.158396 
L 84.639133 166.728391 
L 83.649555 163.702475 
L 82.825379 161.094736 
L 81.874828 157.185898 
L 81.490152 155.370145 
L 80.8985 151.099954 
L 80.695929 149.579184 
L 80.496843 145.314637 
L 80.426383 143.756 
L 80.497249 142.197708 
L 80.699198 137.932953 
L 80.90162 136.41503 
L 81.494986 132.142262 
L 81.878505 130.331234 
L 82.828975 126.417721 
L 83.651954 123.812293 
L 84.638162 120.783444 
L 85.689241 118.207932 
L 86.957842 115.275042 
L 88.262905 112.731494 
L 89.763463 109.92033 
L 91.551088 106.97573 
L 93.03486 104.747102 
L 95.383245 101.586715 
L 96.778958 99.791428 
L 100.172936 95.946337 
L 102.269254 93.735303 
L 105.1089 91.063244 
L 107.003605 89.382657 
L 110.403121 86.57652 
L 112.1092 85.332627 
L 115.778161 82.821622 
L 117.639214 81.652483 
L 121.8655 79.127785 
L 123.463158 78.321047 
L 128.937494 75.618514 
L 129.56845 75.370841 
L 134.783008 73.403227 
L 137.023943 72.671717 
L 142.042962 71.191286 
L 146.508338 70.193997 
L 149.685722 69.64996 
L 152.732737 69.237923 
L 155.810784 68.925465 
L 159.895491 68.795251 
L 162.531619 68.659452 
L 168.542869 69.068282 
L 170.237664 69.255482 
L 170.924089 69.458264 
L 176.371178 70.745976 
L 180.02161 71.929207 
L 182.672057 73.418555 
L 187.125665 75.856213 
L 188.050339 76.870521 
L 192.413159 81.809461 
L 193.557079 84.522167 
L 195.010572 87.859454 
L 195.086703 88.934042 
L 195.959792 94.968671 
L 195.915728 100.902682 
L 195.95075 101.727201 
L 195.953228 102.62545 
L 195.349869 107.336249 
L 194.976114 109.752696 
L 194.571761 114.140853 
L 194.139176 116.995187 
L 193.48366 124.455559 
L 193.384368 125.258675 
L 193.370073 125.595276 
L 193.196257 128.328027 
L 192.778826 132.567767 
L 192.749402 132.995408 
L 192.318476 138.752127 
L 192.314801 140.137013 
L 192.079469 145.017064 
L 192.385082 149.074091 
L 192.409031 150.071153 
L 192.72512 154.75118 
L 192.773467 155.17887 
L 193.387833 161.474199 
L 193.532584 163.252096 
L 193.53597 163.375531 
L 193.544076 163.512048 
L 193.582944 163.855868 
L 194.125891 170.526892 
L 194.718789 174.178101 
L 195.222307 180.145991 
L 195.469577 181.926831 
L 196.138502 186.838368 
L 196.070449 190.952357 
L 195.333301 197.039268 
L 195.190299 198.845433 
L 195.055317 199.879997 
L 194.41923 201.089321 
L 190.474893 208.451378 
L 189.038636 209.882411 
L 185.909515 212.468288 
L 183.892428 213.660745 
L 180.403237 215.470913 
L 176.830137 216.729892 
L 171.454387 217.952411 
L 170.39141 218.212501 
L 168.824539 218.440083 
M 214.682386 207.142065 
L 214.506037 205.947111 
L 213.866039 202.470398 
L 213.119803 198.108836 
L 213.028007 196.537955 
L 212.541286 194.519918 
L 211.158674 190.862508 
L 210.50773 189.138161 
L 209.100133 184.829056 
L 207.612769 180.165373 
L 207.156074 178.289662 
L 206.029943 174.073469 
L 205.378759 172.208159 
L 205.266208 171.82251 
L 203.191603 163.338619 
L 202.965696 162.237235 
L 202.29204 158.312259 
L 201.995347 156.321021 
L 201.564031 152.272137 
L 201.424767 150.171854 
L 201.218918 145.542628 
L 201.228931 143.153583 
L 201.329846 139.524141 
L 201.721438 135.269748 
L 201.978677 132.168354 
L 202.572623 127.590757 
L 203.078432 125.432659 
L 203.565402 121.574669 
L 205.454913 115.003561 
L 205.542852 114.473392 
L 205.743394 113.648029 
L 207.998775 106.439523 
L 208.45533 104.4978 
L 209.489919 101.243592 
L 210.863255 97.836177 
L 212.556627 91.910692 
L 212.90993 91.16339 
L 214.168226 82.766839 
L 214.529215 81.574474 
L 214.727269 80.347347 
L 213.457872 74.862052 
L 212.830395 72.184124 
L 211.356065 70.075636 
L 207.449343 65.164861 
L 207.037349 64.875798 
L 206.479702 64.535153 
L 199.163505 59.934586 
L 195.394462 58.509849 
L 190.97632 57.08742 
L 189.301896 56.482219 
L 184.937006 55.600935 
L 181.349335 54.995259 
L 180.520354 54.945668 
L 173.372745 54.31868 
L 172.568859 54.325102 
L 166.883866 54.357632 
L 164.903666 54.491451 
L 159.120211 54.827189 
L 156.683628 55.170413 
L 150.732123 56.067933 
L 147.6727 56.746482 
L 143.664391 57.660748 
L 140.297358 58.593852 
L 136.288989 59.745409 
L 133.08485 60.892267 
L 128.484313 62.585001 
L 125.627287 63.818121 
L 121.476381 65.77346 
L 118.00946 67.541887 
L 114.747074 69.309541 
L 111.653684 71.188677 
L 107.743472 73.701029 
L 105.621918 75.198136 
L 101.965026 77.974188 
L 99.978294 79.564603 
L 96.117338 82.907234 
L 94.692779 84.234545 
L 91.196013 87.786769 
L 89.853148 89.210636 
L 85.939088 93.858461 
L 84.661151 95.450218 
L 81.817206 99.478365 
L 80.795114 100.971623 
L 77.845262 105.854253 
L 77.368978 106.68787 
L 74.872195 111.763244 
L 74.475015 112.592567 
L 72.344752 117.945521 
L 72.076547 118.643707 
L 70.432595 124.057666 
L 70.207619 124.816583 
L 69.079988 129.898994 
L 68.835025 131.076879 
L 68.81045 131.26245 
L 68.019833 137.401032 
L 68.01296 137.553542 
L 67.741502 143.756 
L 68.012285 149.959076 
L 68.019094 150.111014 
L 68.809381 156.250628 
L 68.833802 156.435224 
L 69.077408 157.606682 
L 70.206335 162.69558 
L 70.431628 163.455586 
L 72.075308 168.868504 
L 72.335818 169.544045 
L 74.460817 174.922374 
L 74.742495 175.512998 
L 77.366969 180.824654 
L 77.844325 181.660093 
L 80.79324 186.540955 
L 81.81636 188.035474 
L 84.660174 192.062132 
L 85.938894 193.654373 
L 89.854307 198.300941 
L 91.196593 199.723613 
L 94.696409 203.275937 
L 96.118449 204.600267 
L 99.984823 207.944246 
L 102.281316 209.800025 
L 105.651846 212.297674 
L 108.489877 214.262764 
L 111.662857 216.317782 
L 114.747069 218.191695 
L 118.018252 219.964158 
L 121.477214 221.729945 
L 125.6302 223.692434 
L 128.484215 224.926108 
L 133.080656 226.622991 
L 136.289978 227.773327 
L 140.289878 228.924684 
L 143.664632 229.860819 
L 147.663415 230.774671 
L 150.735153 231.455174 
L 156.681321 232.343251 
L 159.120401 232.685421 
L 164.901399 233.023163 
L 166.884077 233.155729 
L 172.567125 233.189201 
L 173.359115 233.203187 
L 176.648549 232.958176 
L 181.526616 232.467893 
L 182.612035 232.222063 
L 189.240284 230.990357 
L 191.196367 230.349889 
L 195.033196 229.183661 
L 198.774226 227.53912 
L 201.078914 226.674906 
L 206.394825 223.182576 
L 207.090462 222.756676 
L 207.589255 222.391665 
L 208.346192 221.376343 
L 213.217925 214.438142 
L 214.259813 209.207055 
" style="fill:#26828e;"/>
   </g>
   <g id="PathCollection_5">
    <path clip-path="url(#p0eed2db867)" d="M 214.259813 209.207055 
L 213.217925 214.438142 
L 208.346192 221.376343 
L 207.589255 222.391665 
L 207.090462 222.756676 
L 206.394825 223.182576 
L 201.078914 226.674906 
L 198.774226 227.53912 
L 195.033196 229.183661 
L 191.196367 230.349889 
L 189.240284 230.990357 
L 182.612035 232.222063 
L 181.526616 232.467893 
L 176.648549 232.958176 
L 173.359115 233.203187 
L 172.567125 233.189201 
L 166.884077 233.155729 
L 164.901399 233.023163 
L 159.120401 232.685421 
L 156.681321 232.343251 
L 150.735153 231.455174 
L 147.663415 230.774671 
L 143.664632 229.860819 
L 140.289878 228.924684 
L 136.289978 227.773327 
L 133.080656 226.622991 
L 128.484215 224.926108 
L 125.6302 223.692434 
L 121.477214 221.729945 
L 118.018252 219.964158 
L 114.747069 218.191695 
L 111.662857 216.317782 
L 108.489877 214.262764 
L 105.651846 212.297674 
L 102.281316 209.800025 
L 99.984823 207.944246 
L 96.118449 204.600267 
L 94.696409 203.275937 
L 91.196593 199.723613 
L 89.854307 198.300941 
L 85.938894 193.654373 
L 84.660174 192.062132 
L 81.81636 188.035474 
L 80.79324 186.540955 
L 77.844325 181.660093 
L 77.366969 180.824654 
L 74.742495 175.512998 
L 74.460817 174.922374 
L 72.335818 169.544045 
L 72.075308 168.868504 
L 70.431628 163.455586 
L 70.206335 162.69558 
L 69.077408 157.606682 
L 68.833802 156.435224 
L 68.809381 156.250628 
L 68.019094 150.111014 
L 68.012285 149.959076 
L 67.741502 143.756 
L 68.01296 137.553542 
L 68.019833 137.401032 
L 68.81045 131.26245 
L 68.835025 131.076879 
L 69.079988 129.898994 
L 70.207619 124.816583 
L 70.432595 124.057666 
L 72.076547 118.643707 
L 72.344752 117.945521 
L 74.475015 112.592567 
L 74.872195 111.763244 
L 77.368978 106.68787 
L 77.845262 105.854253 
L 80.795114 100.971623 
L 81.817206 99.478365 
L 84.661151 95.450218 
L 85.939088 93.858461 
L 89.853148 89.210636 
L 91.196013 87.786769 
L 94.692779 84.234545 
L 96.117338 82.907234 
L 99.978294 79.564603 
L 101.965026 77.974188 
L 105.621918 75.198136 
L 107.743472 73.701029 
L 111.653684 71.188677 
L 114.747074 69.309541 
L 118.00946 67.541887 
L 121.476381 65.77346 
L 125.627287 63.818121 
L 128.484313 62.585001 
L 133.08485 60.892267 
L 136.288989 59.745409 
L 140.297358 58.593852 
L 143.664391 57.660748 
L 147.6727 56.746482 
L 150.732123 56.067933 
L 156.683628 55.170413 
L 159.120211 54.827189 
L 164.903666 54.491451 
L 166.883866 54.357632 
L 172.568859 54.325102 
L 173.372745 54.31868 
L 180.520354 54.945668 
L 181.349335 54.995259 
L 184.937006 55.600935 
L 189.301896 56.482219 
L 190.97632 57.08742 
L 195.394462 58.509849 
L 199.163505 59.934586 
L 206.479702 64.535153 
L 207.037349 64.875798 
L 207.449343 65.164861 
L 211.356065 70.075636 
L 212.830395 72.184124 
L 213.457872 74.862052 
L 214.727269 80.347347 
L 214.529215 81.574474 
L 214.168226 82.766839 
L 212.90993 91.16339 
L 212.556627 91.910692 
L 210.863255 97.836177 
L 209.489919 101.243592 
L 208.45533 104.4978 
L 207.998775 106.439523 
L 205.743394 113.648029 
L 205.542852 114.473392 
L 205.454913 115.003561 
L 203.565402 121.574669 
L 203.078432 125.432659 
L 202.572623 127.590757 
L 201.978677 132.168354 
L 201.721438 135.269748 
L 201.329846 139.524141 
L 201.228931 143.153583 
L 201.218918 145.542628 
L 201.424767 150.171854 
L 201.564031 152.272137 
L 201.995347 156.321021 
L 202.29204 158.312259 
L 202.965696 162.237235 
L 203.191603 163.338619 
L 205.266208 171.82251 
L 205.378759 172.208159 
L 206.029943 174.073469 
L 207.156074 178.289662 
L 207.612769 180.165373 
L 209.100133 184.829056 
L 210.50773 189.138161 
L 211.158674 190.862508 
L 212.541286 194.519918 
L 213.028007 196.537955 
L 213.119803 198.108836 
L 213.866039 202.470398 
L 214.506037 205.947111 
L 214.682386 207.142065 
M 235.970965 209.215673 
L 234.481104 206.806639 
L 233.096411 204.01472 
L 230.533847 199.274517 
L 230.263301 198.921906 
L 230.056061 198.671062 
L 226.038849 193.402801 
L 223.985095 190.113645 
L 220.979565 185.563883 
L 220.243792 184.242467 
L 219.800291 183.201775 
L 217.560637 178.680797 
L 215.846233 175.665853 
L 215.412676 174.947938 
L 213.088786 168.980833 
L 212.58416 167.768553 
L 211.181823 163.322837 
L 210.28788 159.60386 
L 209.57658 156.634528 
L 208.970444 152.819114 
L 208.727965 150.081796 
L 208.386778 146.271407 
L 208.353301 143.135383 
L 208.398237 140.542543 
L 209.069584 133.972098 
L 209.308069 131.91105 
L 210.036307 129.097313 
L 210.50911 126.64644 
L 211.860133 122.33704 
L 212.585968 119.627219 
L 213.016733 118.60499 
L 216.399844 110.819812 
L 216.419747 110.770741 
L 216.423282 110.760886 
L 219.19469 105.488017 
L 219.439178 104.93424 
L 222.066638 100.470518 
L 224.744023 96.188144 
L 226.403541 93.740325 
L 227.592892 92.341495 
L 230.181054 88.573908 
L 230.356889 88.355265 
L 233.162026 83.55232 
L 237.096695 75.501197 
L 237.15467 74.351043 
L 236.813579 66.678429 
L 233.990179 62.465507 
L 232.176507 59.533654 
L 228.487871 56.209711 
L 225.044922 53.93038 
L 223.603395 52.878313 
L 217.659139 50.01177 
L 216.663564 49.461499 
L 213.793921 48.369446 
L 208.977683 46.712344 
L 207.730488 46.423609 
L 202.474445 45.063086 
L 199.950677 44.627852 
L 194.588785 43.60501 
L 190.114748 43.142018 
L 186.901001 42.762057 
L 181.952998 42.526851 
L 179.124346 42.345101 
L 172.791213 42.464381 
L 170.308821 42.514538 
L 164.084172 43.065918 
L 162.088648 43.23859 
L 155.893214 44.099086 
L 154.278572 44.340522 
L 147.502626 45.74433 
L 145.729265 46.124257 
L 138.785133 47.985646 
L 137.480912 48.362548 
L 131.031658 50.497624 
L 130.038132 50.845244 
L 123.538521 53.477198 
L 122.00502 54.144778 
L 116.028616 57.008111 
L 114.534679 57.782809 
L 108.49344 61.096639 
L 107.569764 61.647452 
L 101.910925 65.304489 
L 100.457123 66.311616 
L 95.684382 69.860819 
L 93.967721 71.245637 
L 89.824961 74.736915 
L 88.146276 76.277483 
L 84.38802 79.925305 
L 82.654198 81.77386 
L 79.379917 85.394018 
L 77.588003 87.614491 
L 74.366764 91.762221 
L 72.928199 93.870038 
L 70.348454 97.749335 
L 68.936336 100.171001 
L 66.828991 103.939028 
L 65.501943 106.715648 
L 63.825265 110.304137 
L 62.708161 113.194808 
L 61.347354 116.816111 
L 60.465905 119.797413 
L 59.409065 123.446639 
L 58.681573 126.840788 
L 58.008525 130.165776 
L 57.548709 133.843495 
L 57.16855 136.94579 
L 57.012748 140.625884 
L 56.882961 143.756 
L 57.012682 146.88618 
L 57.168311 150.56622 
L 57.548454 153.668788 
L 58.008113 157.346258 
L 58.681232 160.671685 
L 59.408573 164.065424 
L 60.465554 167.715067 
L 61.346869 170.695971 
L 62.679949 174.235979 
L 63.822962 177.208312 
L 65.450774 180.700309 
L 66.828172 183.573186 
L 68.935964 187.341923 
L 70.347733 189.762888 
L 72.927931 193.642595 
L 74.366379 195.749917 
L 77.587982 199.897593 
L 79.380234 202.117866 
L 82.654442 205.737375 
L 84.389185 207.586208 
L 88.147188 211.233102 
L 89.827113 212.774087 
L 94.391124 216.641881 
L 95.670576 217.658463 
L 100.670636 221.338578 
L 101.914789 222.205178 
L 107.569783 225.859838 
L 108.497099 226.412882 
L 114.534782 229.725554 
L 116.030773 230.501943 
L 122.004832 233.365735 
L 123.538919 234.034492 
L 130.038334 236.668118 
L 131.030204 237.015647 
L 137.48116 239.152529 
L 138.782576 239.528875 
L 145.730309 241.391388 
L 147.500636 241.77037 
L 154.279336 243.173866 
L 155.892084 243.414217 
L 162.088804 244.274146 
L 164.084811 244.445233 
L 170.404894 244.96482 
L 173.130063 244.997283 
L 179.051302 245.14024 
L 181.953218 244.984794 
L 186.901879 244.752439 
L 190.112728 244.373908 
L 194.518573 243.954173 
L 199.29862 243.042325 
L 202.48043 242.461358 
L 207.725895 241.100353 
L 208.959115 240.826056 
L 215.26133 238.516917 
L 216.419949 238.15067 
L 220.455522 236.299559 
L 223.627506 234.660724 
L 227.686559 231.280396 
L 231.919736 227.908928 
L 233.05972 227.078801 
L 234.545082 225.079871 
L 236.723247 220.766512 
L 237.432612 216.202948 
L 237.015913 212.142489 
" style="fill:#1fa088;"/>
   </g>
   <g id="PathCollection_6">
    <path clip-path="url(#p0eed2db867)" d="M 237.015913 212.142489 
L 237.432612 216.202948 
L 236.723247 220.766512 
L 234.545082 225.079871 
L 233.05972 227.078801 
L 231.919736 227.908928 
L 227.686559 231.280396 
L 223.627506 234.660724 
L 220.455522 236.299559 
L 216.419949 238.15067 
L 215.26133 238.516917 
L 208.959115 240.826056 
L 207.725895 241.100353 
L 202.48043 242.461358 
L 199.29862 243.042325 
L 194.518573 243.954173 
L 190.112728 244.373908 
L 186.901879 244.752439 
L 181.953218 244.984794 
L 179.051302 245.14024 
L 173.130063 244.997283 
L 170.404894 244.96482 
L 164.084811 244.445233 
L 162.088804 244.274146 
L 155.892084 243.414217 
L 154.279336 243.173866 
L 147.500636 241.77037 
L 145.730309 241.391388 
L 138.782576 239.528875 
L 137.48116 239.152529 
L 131.030204 237.015647 
L 130.038334 236.668118 
L 123.538919 234.034492 
L 122.004832 233.365735 
L 116.030773 230.501943 
L 114.534782 229.725554 
L 108.497099 226.412882 
L 107.569783 225.859838 
L 101.914789 222.205178 
L 100.670636 221.338578 
L 95.670576 217.658463 
L 94.391124 216.641881 
L 89.827113 212.774087 
L 88.147188 211.233102 
L 84.389185 207.586208 
L 82.654442 205.737375 
L 79.380234 202.117866 
L 77.587982 199.897593 
L 74.366379 195.749917 
L 72.927931 193.642595 
L 70.347733 189.762888 
L 68.935964 187.341923 
L 66.828172 183.573186 
L 65.450774 180.700309 
L 63.822962 177.208312 
L 62.679949 174.235979 
L 61.346869 170.695971 
L 60.465554 167.715067 
L 59.408573 164.065424 
L 58.681232 160.671685 
L 58.008113 157.346258 
L 57.548454 153.668788 
L 57.168311 150.56622 
L 57.012682 146.88618 
L 56.882961 143.756 
L 57.012748 140.625884 
L 57.16855 136.94579 
L 57.548709 133.843495 
L 58.008525 130.165776 
L 58.681573 126.840788 
L 59.409065 123.446639 
L 60.465905 119.797413 
L 61.347354 116.816111 
L 62.708161 113.194808 
L 63.825265 110.304137 
L 65.501943 106.715648 
L 66.828991 103.939028 
L 68.936336 100.171001 
L 70.348454 97.749335 
L 72.928199 93.870038 
L 74.366764 91.762221 
L 77.588003 87.614491 
L 79.379917 85.394018 
L 82.654198 81.77386 
L 84.38802 79.925305 
L 88.146276 76.277483 
L 89.824961 74.736915 
L 93.967721 71.245637 
L 95.684382 69.860819 
L 100.457123 66.311616 
L 101.910925 65.304489 
L 107.569764 61.647452 
L 108.49344 61.096639 
L 114.534679 57.782809 
L 116.028616 57.008111 
L 122.00502 54.144778 
L 123.538521 53.477198 
L 130.038132 50.845244 
L 131.031658 50.497624 
L 137.480912 48.362548 
L 138.785133 47.985646 
L 145.729265 46.124257 
L 147.502626 45.74433 
L 154.278572 44.340522 
L 155.893214 44.099086 
L 162.088648 43.23859 
L 164.084172 43.065918 
L 170.308821 42.514538 
L 172.791213 42.464381 
L 179.124346 42.345101 
L 181.952998 42.526851 
L 186.901001 42.762057 
L 190.114748 43.142018 
L 194.588785 43.60501 
L 199.950677 44.627852 
L 202.474445 45.063086 
L 207.730488 46.423609 
L 208.977683 46.712344 
L 213.793921 48.369446 
L 216.663564 49.461499 
L 217.659139 50.01177 
L 223.603395 52.878313 
L 225.044922 53.93038 
L 228.487871 56.209711 
L 232.176507 59.533654 
L 233.990179 62.465507 
L 236.813579 66.678429 
L 237.15467 74.351043 
L 237.096695 75.501197 
L 233.162026 83.55232 
L 230.356889 88.355265 
L 230.181054 88.573908 
L 227.592892 92.341495 
L 226.403541 93.740325 
L 224.744023 96.188144 
L 222.066638 100.470518 
L 219.439178 104.93424 
L 219.19469 105.488017 
L 216.423282 110.760886 
L 216.419747 110.770741 
L 216.399844 110.819812 
L 213.016733 118.60499 
L 212.585968 119.627219 
L 211.860133 122.33704 
L 210.50911 126.64644 
L 210.036307 129.097313 
L 209.308069 131.91105 
L 209.069584 133.972098 
L 208.398237 140.542543 
L 208.353301 143.135383 
L 208.386778 146.271407 
L 208.727965 150.081796 
L 208.970444 152.819114 
L 209.57658 156.634528 
L 210.28788 159.60386 
L 211.181823 163.322837 
L 212.58416 167.768553 
L 213.088786 168.980833 
L 215.412676 174.947938 
L 215.846233 175.665853 
L 217.560637 178.680797 
L 219.800291 183.201775 
L 220.243792 184.242467 
L 220.979565 185.563883 
L 223.985095 190.113645 
L 226.038849 193.402801 
L 230.056061 198.671062 
L 230.263301 198.921906 
L 230.533847 199.274517 
L 233.096411 204.01472 
L 234.481104 206.806639 
L 235.970965 209.215673 
M 267.335271 209.74635 
L 262.767789 205.986108 
L 260.930971 204.446264 
L 260.593974 203.968086 
L 259.747238 203.380927 
L 253.581078 200.348655 
L 251.650618 199.693885 
L 247.216635 196.59829 
L 242.680151 194.08858 
L 240.518426 192.274584 
L 236.905704 189.61603 
L 235.239503 187.853595 
L 230.054116 182.944672 
L 229.649524 182.40111 
L 227.987951 180.21276 
L 225.067752 176.659894 
L 224.61979 176.135511 
L 221.226099 170.531785 
L 220.846728 169.912829 
L 217.782514 162.96736 
L 217.249014 161.679625 
L 215.416503 154.485342 
L 214.987759 152.699728 
L 214.487042 146.858908 
L 214.348563 145.099504 
L 214.515257 140.30825 
L 214.627914 138.877083 
L 215.172293 134.035841 
L 215.523743 132.572062 
L 217.415992 125.496287 
L 217.836944 124.480245 
L 220.616177 118.083506 
L 221.01965 117.425196 
L 224.623732 111.382986 
L 225.076353 110.853167 
L 227.988442 107.298843 
L 229.809972 104.881224 
L 230.148459 104.449876 
L 235.444893 99.420974 
L 236.304028 98.468547 
L 237.710513 97.256437 
L 241.808346 94.281205 
L 243.88162 92.734682 
L 247.497175 90.76895 
L 251.653075 87.849255 
L 253.595795 87.174506 
L 257.698631 85.089759 
L 258.43788 84.530343 
L 259.332755 83.696191 
L 265.253296 79.806336 
L 268.661409 77.739948 
L 269.694427 74.687091 
L 270.501291 69.853874 
L 268.987209 67.009253 
L 266.250513 62.576534 
L 265.011251 59.948374 
L 260.363985 55.849897 
L 258.361515 53.837452 
L 254.586232 51.119521 
L 252.95167 50.219773 
L 247.809143 47.007442 
L 245.063076 45.772466 
L 241.439267 43.864174 
L 237.475181 42.26639 
L 234.042871 40.690627 
L 229.258624 39.149505 
L 226.225567 38.087401 
L 220.502564 36.570192 
L 218.417125 35.937291 
L 212.152905 34.718 
L 209.70364 34.184766 
L 202.656092 33.206779 
L 201.069833 32.964839 
L 193.940114 32.353506 
L 192.690239 32.23707 
L 184.384132 32.00375 
L 183.665167 31.980373 
L 175.538332 32.175749 
L 175.203096 32.18445 
L 166.662182 32.896813 
L 166.114047 32.94282 
L 157.361056 34.144319 
L 157.052189 34.190016 
L 148.692201 35.793882 
L 148.691677 35.793988 
L 148.662959 35.801203 
L 139.834197 38.031671 
L 139.691981 38.072617 
L 135.381164 39.417032 
L 131.372398 40.678595 
L 131.245047 40.721526 
L 126.271045 42.580615 
L 123.341484 43.682487 
L 123.266756 43.712935 
L 121.102915 44.665105 
L 115.429509 47.178534 
L 115.2207 47.277314 
L 107.50145 51.242548 
L 107.349735 51.327581 
L 100.260324 55.520412 
L 100.23587 55.536029 
L 93.409225 60.169842 
L 93.108332 60.390705 
L 86.941767 65.165489 
L 86.390062 65.632265 
L 80.869211 70.47868 
L 80.380378 70.948671 
L 75.243602 76.101211 
L 74.63123 76.780224 
L 70.067948 82.000548 
L 69.488112 82.744435 
L 65.163217 88.465086 
L 64.640086 89.252906 
L 60.994845 94.86421 
L 60.50915 95.721685 
L 57.351852 101.467339 
L 56.8336 102.577672 
L 54.239354 108.244303 
L 53.808908 109.385538 
L 51.675039 115.168522 
L 51.326561 116.373484 
L 49.668534 122.210914 
L 49.396085 123.51978 
L 48.229883 129.342857 
L 48.04047 130.8908 
L 47.362215 136.534389 
L 47.298258 138.081014 
L 47.068294 143.756 
L 47.298216 149.431029 
L 47.362141 150.977614 
L 48.040381 156.621303 
L 48.229761 158.169153 
L 49.396 163.992338 
L 49.66842 165.3011 
L 51.326568 171.138505 
L 51.675055 172.343475 
L 53.786438 178.061537 
L 54.23993 179.267583 
L 56.820447 184.908991 
L 57.351629 186.044719 
L 60.509028 191.790617 
L 60.994602 192.647865 
L 64.640003 198.259307 
L 65.163064 199.046968 
L 69.488106 204.767588 
L 70.067981 205.51144 
L 74.631287 210.731576 
L 75.243839 211.41069 
L 80.380728 216.56357 
L 80.869382 217.033302 
L 86.66237 222.130422 
L 86.9286 222.35368 
L 93.138101 227.140671 
L 93.410527 227.341371 
L 100.235903 231.974348 
L 100.261688 231.990815 
L 107.34977 236.182964 
L 107.502674 236.268686 
L 115.220627 240.23387 
L 115.430095 240.333011 
L 121.106308 242.848266 
L 123.266695 243.799119 
L 123.341498 243.829598 
L 126.28282 244.936127 
L 131.245141 246.791285 
L 131.371792 246.834002 
L 135.354324 248.087453 
L 139.691275 249.440172 
L 139.834513 249.481412 
L 148.691507 251.718919 
L 148.691988 251.719031 
L 148.705037 251.721579 
L 157.052415 253.322836 
L 157.360521 253.368391 
L 166.036775 254.584729 
L 166.109596 254.59115 
L 175.208747 255.328805 
L 175.538926 255.335293 
L 183.664852 255.530889 
L 184.384383 255.507762 
L 192.691149 255.276335 
L 193.764848 255.169216 
L 201.020149 254.546922 
L 202.654402 254.309623 
L 209.617349 253.369391 
L 211.209708 253.009987 
L 218.355735 251.579785 
L 220.502087 250.943707 
L 226.393204 249.351315 
L 229.048736 248.377234 
L 233.894015 246.843758 
L 237.476301 245.23554 
L 241.434178 243.64305 
L 245.062871 241.737469 
L 247.808874 240.504386 
L 252.952481 237.311617 
L 254.60065 236.40379 
L 259.076891 232.964657 
L 259.391963 232.76885 
L 260.272479 232.029518 
L 265.299463 227.151553 
L 266.702671 224.30184 
L 268.450971 222.061534 
L 270.44068 218.14038 
L 270.016731 215.324733 
L 269.086598 210.709771 
" style="fill:#3fbc73;"/>
   </g>
   <g id="PathCollection_7">
    <path clip-path="url(#p0eed2db867)" d="M 269.086598 210.709771 
L 270.016731 215.324733 
L 270.44068 218.14038 
L 268.450971 222.061534 
L 266.702671 224.30184 
L 265.299463 227.151553 
L 260.272479 232.029518 
L 259.391963 232.76885 
L 259.076891 232.964657 
L 254.60065 236.40379 
L 252.952481 237.311617 
L 247.808874 240.504386 
L 245.062871 241.737469 
L 241.434178 243.64305 
L 237.476301 245.23554 
L 233.894015 246.843758 
L 229.048736 248.377234 
L 226.393204 249.351315 
L 220.502087 250.943707 
L 218.355735 251.579785 
L 211.209708 253.009987 
L 209.617349 253.369391 
L 202.654402 254.309623 
L 201.020149 254.546922 
L 193.764848 255.169216 
L 192.691149 255.276335 
L 184.384383 255.507762 
L 183.664852 255.530889 
L 175.538926 255.335293 
L 175.208747 255.328805 
L 166.109596 254.59115 
L 166.036775 254.584729 
L 157.360521 253.368391 
L 157.052415 253.322836 
L 148.705037 251.721579 
L 148.691988 251.719031 
L 148.691507 251.718919 
L 139.834513 249.481412 
L 139.691275 249.440172 
L 135.354324 248.087453 
L 131.371792 246.834002 
L 131.245141 246.791285 
L 126.28282 244.936127 
L 123.341498 243.829598 
L 123.266695 243.799119 
L 121.106308 242.848266 
L 115.430095 240.333011 
L 115.220627 240.23387 
L 107.502674 236.268686 
L 107.34977 236.182964 
L 100.261688 231.990815 
L 100.235903 231.974348 
L 93.410527 227.341371 
L 93.138101 227.140671 
L 86.9286 222.35368 
L 86.66237 222.130422 
L 80.869382 217.033302 
L 80.380728 216.56357 
L 75.243839 211.41069 
L 74.631287 210.731576 
L 70.067981 205.51144 
L 69.488106 204.767588 
L 65.163064 199.046968 
L 64.640003 198.259307 
L 60.994602 192.647865 
L 60.509028 191.790617 
L 57.351629 186.044719 
L 56.820447 184.908991 
L 54.23993 179.267583 
L 53.786438 178.061537 
L 51.675055 172.343475 
L 51.326568 171.138505 
L 49.66842 165.3011 
L 49.396 163.992338 
L 48.229761 158.169153 
L 48.040381 156.621303 
L 47.362141 150.977614 
L 47.298216 149.431029 
L 47.068294 143.756 
L 47.298258 138.081014 
L 47.362215 136.534389 
L 48.04047 130.8908 
L 48.229883 129.342857 
L 49.396085 123.51978 
L 49.668534 122.210914 
L 51.326561 116.373484 
L 51.675039 115.168522 
L 53.808908 109.385538 
L 54.239354 108.244303 
L 56.8336 102.577672 
L 57.351852 101.467339 
L 60.50915 95.721685 
L 60.994845 94.86421 
L 64.640086 89.252906 
L 65.163217 88.465086 
L 69.488112 82.744435 
L 70.067948 82.000548 
L 74.63123 76.780224 
L 75.243602 76.101211 
L 80.380378 70.948671 
L 80.869211 70.47868 
L 86.390062 65.632265 
L 86.941767 65.165489 
L 93.108332 60.390705 
L 93.409225 60.169842 
L 100.23587 55.536029 
L 100.260324 55.520412 
L 107.349735 51.327581 
L 107.50145 51.242548 
L 115.2207 47.277314 
L 115.429509 47.178534 
L 121.102915 44.665105 
L 123.266756 43.712935 
L 123.341484 43.682487 
L 126.271045 42.580615 
L 131.245047 40.721526 
L 131.372398 40.678595 
L 135.381164 39.417032 
L 139.691981 38.072617 
L 139.834197 38.031671 
L 148.662959 35.801203 
L 148.691677 35.793988 
L 148.692201 35.793882 
L 157.052189 34.190016 
L 157.361056 34.144319 
L 166.114047 32.94282 
L 166.662182 32.896813 
L 175.203096 32.18445 
L 175.538332 32.175749 
L 183.665167 31.980373 
L 184.384132 32.00375 
L 192.690239 32.23707 
L 193.940114 32.353506 
L 201.069833 32.964839 
L 202.656092 33.206779 
L 209.70364 34.184766 
L 212.152905 34.718 
L 218.417125 35.937291 
L 220.502564 36.570192 
L 226.225567 38.087401 
L 229.258624 39.149505 
L 234.042871 40.690627 
L 237.475181 42.26639 
L 241.439267 43.864174 
L 245.063076 45.772466 
L 247.809143 47.007442 
L 252.95167 50.219773 
L 254.586232 51.119521 
L 258.361515 53.837452 
L 260.363985 55.849897 
L 265.011251 59.948374 
L 266.250513 62.576534 
L 268.987209 67.009253 
L 270.501291 69.853874 
L 269.694427 74.687091 
L 268.661409 77.739948 
L 265.253296 79.806336 
L 259.332755 83.696191 
L 258.43788 84.530343 
L 257.698631 85.089759 
L 253.595795 87.174506 
L 251.653075 87.849255 
L 247.497175 90.76895 
L 243.88162 92.734682 
L 241.808346 94.281205 
L 237.710513 97.256437 
L 236.304028 98.468547 
L 235.444893 99.420974 
L 230.148459 104.449876 
L 229.809972 104.881224 
L 227.988442 107.298843 
L 225.076353 110.853167 
L 224.623732 111.382986 
L 221.01965 117.425196 
L 220.616177 118.083506 
L 217.836944 124.480245 
L 217.415992 125.496287 
L 215.523743 132.572062 
L 215.172293 134.035841 
L 214.627914 138.877083 
L 214.515257 140.30825 
L 214.348563 145.099504 
L 214.487042 146.858908 
L 214.987759 152.699728 
L 215.416503 154.485342 
L 217.249014 161.679625 
L 217.782514 162.96736 
L 220.846728 169.912829 
L 221.226099 170.531785 
L 224.61979 176.135511 
L 225.067752 176.659894 
L 227.987951 180.21276 
L 229.649524 182.40111 
L 230.054116 182.944672 
L 235.239503 187.853595 
L 236.905704 189.61603 
L 240.518426 192.274584 
L 242.680151 194.08858 
L 247.216635 196.59829 
L 251.650618 199.693885 
L 253.581078 200.348655 
L 259.747238 203.380927 
L 260.593974 203.968086 
L 260.930971 204.446264 
L 262.767789 205.986108 
L 267.335271 209.74635 
M 309.671933 150.852032 
L 309.67039 150.859493 
L 308.01085 157.771054 
L 308.008608 157.778047 
L 305.290273 164.345045 
L 305.285641 164.354781 
L 305.281261 164.360566 
L 301.567929 170.421729 
L 301.557146 170.432307 
L 296.940207 175.83654 
L 291.539078 180.453633 
L 291.527405 180.462275 
L 291.520531 180.465287 
L 285.459462 184.179677 
L 285.44891 184.182695 
L 278.881354 186.904334 
L 278.872746 186.905424 
L 271.960122 188.566608 
L 271.94881 188.566248 
L 264.860867 189.125123 
L 264.853831 189.123692 
L 257.766289 188.567282 
L 257.757137 188.564333 
L 250.84484 186.906205 
L 250.83352 186.900683 
L 244.265014 184.180873 
L 244.258403 184.176204 
L 238.19659 180.46297 
L 238.188144 180.455343 
L 232.782231 175.839242 
L 232.775799 175.831416 
L 228.158087 170.425937 
L 228.153378 170.418161 
L 224.438555 164.357311 
L 224.43397 164.346919 
L 221.713005 157.779184 
L 221.710109 157.767816 
L 220.050232 150.854831 
L 220.049427 150.845444 
L 219.491604 143.75819 
L 219.491876 143.750381 
L 220.049719 136.663675 
L 220.050587 136.655952 
L 221.710254 129.743477 
L 221.713251 129.732268 
L 224.434119 123.164971 
L 224.438249 123.155465 
L 228.152991 117.094461 
L 228.158043 117.085992 
L 232.775837 111.680588 
L 232.782237 111.672775 
L 238.188145 107.056657 
L 238.196592 107.049039 
L 244.258354 103.335773 
L 244.265957 103.330438 
L 250.834531 100.610759 
L 250.84482 100.605908 
L 257.757149 98.947678 
L 257.766299 98.944674 
L 264.853798 98.388268 
L 264.860866 98.386882 
L 271.948848 98.945799 
L 271.958403 98.945211 
L 278.871897 100.606516 
L 278.87971 100.607248 
L 285.447879 103.328857 
L 285.459589 103.332174 
L 291.520644 107.047655 
L 291.530543 107.052901 
L 296.934802 111.6706 
L 296.942493 111.676209 
L 301.558391 117.080699 
L 301.567594 117.090385 
L 305.280949 123.15213 
L 305.286212 123.159844 
L 308.005855 129.727834 
L 308.009738 129.736136 
L 309.670039 136.646645 
L 309.673429 136.659944 
L 309.674088 136.668368 
L 310.230532 143.753327 
L 310.229647 143.766033 
M 340.151342 151.355161 
L 340.151647 151.345315 
L 340.450553 143.756 
L 340.450134 143.748932 
L 340.151644 136.159144 
L 340.15107 136.149927 
L 339.256786 128.590094 
L 339.255238 128.580927 
L 337.769829 121.081064 
L 337.768305 121.074572 
L 335.696138 113.664429 
L 335.693472 113.655901 
L 333.043902 106.364548 
L 333.040871 106.35666 
L 329.823972 99.212912 
L 329.820218 99.204067 
L 326.049733 92.237381 
L 326.046502 92.230891 
L 321.735778 85.467934 
L 321.730876 85.460307 
L 316.898426 78.927189 
L 316.893646 78.920457 
L 311.557622 72.64274 
L 311.553554 72.637547 
L 305.735413 66.640829 
L 305.729456 66.633837 
L 299.453121 60.941803 
L 299.447844 60.936595 
L 292.7371 55.571413 
L 292.729461 55.564702 
L 285.611134 50.546969 
L 285.60523 50.542425 
L 278.107145 45.892239 
L 278.100501 45.887764 
L 270.252148 41.623131 
L 270.245054 41.618839 
L 262.077894 37.756924 
L 262.071435 37.753545 
L 253.617299 34.309498 
L 253.609764 34.30608 
L 244.903132 31.293576 
L 244.895216 31.290624 
L 235.968795 28.721126 
L 235.960594 28.718544 
L 226.850308 26.602271 
L 226.842846 26.600385 
L 217.584379 24.945755 
L 217.576104 24.94412 
L 208.206795 23.757769 
L 208.19768 23.756543 
L 198.753772 23.04279 
L 198.745491 23.042135 
L 189.264011 22.804191 
L 189.255018 22.803968 
L 179.773512 23.042371 
L 179.765352 23.04261 
L 170.321069 23.756855 
L 170.312461 23.75755 
L 160.943188 24.944349 
L 160.934152 24.945608 
L 151.67628 26.600647 
L 151.668106 26.602243 
L 142.558086 28.718939 
L 142.549599 28.721083 
L 133.623502 31.291066 
L 133.615338 31.293612 
L 124.908583 34.306675 
L 124.900812 34.309598 
L 116.4472 37.754114 
L 116.439376 37.757556 
L 108.272883 41.619745 
L 108.265029 41.623783 
L 100.417489 45.888676 
L 100.410476 45.892835 
L 92.912476 50.543738 
L 92.905568 50.548401 
L 85.787371 55.566652 
L 85.780574 55.571883 
L 79.070171 60.937783 
L 79.063937 60.943264 
L 72.787496 66.635967 
L 72.781537 66.641918 
L 66.964131 72.638971 
L 66.958765 72.645116 
L 61.623078 78.923066 
L 61.617982 78.929793 
L 56.785291 85.463728 
L 56.781002 85.470334 
L 52.470401 92.234705 
L 52.466525 92.241719 
L 48.695435 99.20966 
L 48.692171 99.216792 
L 45.475356 106.36107 
L 45.472665 106.368352 
L 42.822881 113.660665 
L 42.820796 113.668008 
L 40.748878 121.079409 
L 40.74732 121.087089 
L 39.261359 128.58812 
L 39.260434 128.595815 
L 38.366507 136.157004 
L 38.366192 136.1648 
L 38.067512 143.756 
L 38.366192 151.3472 
L 38.366507 151.354996 
L 39.260434 158.916185 
L 39.261358 158.92388 
L 40.74732 166.424911 
L 40.748879 166.432591 
L 42.820795 173.843993 
L 42.82288 173.851335 
L 45.472668 181.143644 
L 45.475356 181.15093 
L 48.692129 188.29513 
L 48.695433 188.302341 
L 52.466525 195.27028 
L 52.470402 195.277294 
L 56.781002 202.041667 
L 56.785291 202.048273 
L 61.617982 208.582207 
L 61.623078 208.588934 
L 66.958765 214.866884 
L 66.964131 214.873029 
L 72.781537 220.870081 
L 72.787497 220.876032 
L 79.063937 226.568741 
L 79.070183 226.57421 
L 85.78091 231.940362 
L 85.787374 231.945346 
L 92.905568 236.9636 
L 92.912475 236.968263 
L 100.410476 241.619165 
L 100.417489 241.623324 
L 108.265029 245.888217 
L 108.272883 245.892256 
L 116.439376 249.754443 
L 116.447199 249.757886 
L 124.900812 253.202401 
L 124.908583 253.205325 
L 133.615338 256.218388 
L 133.623502 256.220934 
L 142.549599 258.790917 
L 142.558086 258.793061 
L 151.668105 260.909756 
L 151.676281 260.911352 
L 160.934154 262.566396 
L 160.942634 262.567563 
L 170.312375 263.754416 
L 170.321071 263.755141 
L 179.765353 264.469391 
L 179.773511 264.469631 
L 189.255017 264.708031 
L 189.26401 264.70781 
L 198.74549 264.469864 
L 198.753771 264.469212 
L 208.19768 263.755456 
L 208.206083 263.7543 
L 217.575966 262.56788 
L 217.58438 262.566242 
L 226.842843 260.911612 
L 226.851096 260.90956 
L 235.96078 258.793437 
L 235.968794 258.790875 
L 244.895213 256.221373 
L 244.903132 256.218425 
L 253.60976 253.205917 
L 253.617299 253.202502 
L 262.07144 249.758458 
L 262.077894 249.755077 
L 270.245043 245.893155 
L 270.252145 245.888855 
L 278.100552 241.624261 
L 278.10715 241.619782 
L 285.605108 236.96953 
L 285.612063 236.964007 
L 292.730877 231.94622 
L 292.736041 231.941653 
L 299.447081 226.575832 
L 299.453065 226.570089 
L 305.729608 220.878184 
L 305.735426 220.871194 
L 311.553462 214.874436 
L 311.557631 214.869271 
L 316.893603 208.591542 
L 316.89837 208.584749 
L 321.731311 202.051667 
L 321.734958 202.045728 
L 326.04525 195.282201 
L 326.049502 195.274465 
L 329.820609 188.307817 
L 329.824135 188.299191 
L 333.040264 181.155485 
L 333.042505 181.149223 
L 333.046352 181.141483 
L 335.694726 173.85693 
L 335.696851 173.847984 
L 337.767056 166.43788 
L 337.768528 166.430558 
L 337.769886 166.422683 
L 339.256835 158.924182 
L 339.258156 158.915253 
" style="fill:#84d44b;"/>
   </g>
   <g id="PathCollection_8">
    <path clip-path="url(#p0eed2db867)" d="M 310.22 143.756 
L 309.661618 150.851861 
L 307.99993 157.773011 
L 305.276062 164.348986 
L 301.556996 170.418003 
L 296.934358 175.830358 
L 291.522003 180.452996 
L 285.452986 184.172062 
L 278.876996 186.89593 
L 271.955816 188.557618 
L 264.86 189.116 
L 257.764184 188.557618 
L 250.843004 186.89593 
L 244.267014 184.172062 
L 238.197997 180.452996 
L 232.785642 175.830358 
L 228.163004 170.418003 
L 224.443938 164.348986 
L 221.72007 157.773011 
L 220.058382 150.851861 
L 219.5 143.756 
L 220.058382 136.660139 
L 221.72007 129.738989 
L 224.443938 123.163014 
L 228.163004 117.093997 
L 232.785642 111.681642 
L 238.197997 107.059004 
L 244.267014 103.339938 
L 250.843004 100.61607 
L 257.764184 98.954382 
L 264.86 98.396 
L 271.955816 98.954382 
L 278.876996 100.61607 
L 285.452986 103.339938 
L 291.522003 107.059004 
L 296.934358 111.681642 
L 301.556996 117.093997 
L 305.276062 123.163014 
L 307.99993 129.738989 
L 309.661618 136.660139 
M 339.266427 158.924535 
L 340.16138 151.355327 
L 340.46 143.756 
L 340.16138 136.156673 
L 339.266427 128.587465 
L 337.778922 121.078419 
L 335.704911 113.659338 
L 333.05241 106.359402 
L 329.832303 99.207642 
L 326.057293 92.232332 
L 321.742347 85.460991 
L 316.904703 78.92023 
L 311.563563 72.635754 
L 305.740095 66.632358 
L 299.457282 60.933781 
L 292.739919 55.56225 
L 285.614619 50.538932 
L 278.109354 45.883484 
L 270.25406 41.614352 
L 262.079432 37.748319 
L 253.617675 34.300506 
L 244.902356 31.284519 
L 235.967797 28.712154 
L 226.849076 26.593539 
L 217.582179 24.936992 
L 208.203697 23.749165 
L 198.750567 23.034442 
L 189.26 22.796 
L 179.769433 23.034442 
L 170.316303 23.749165 
L 160.937821 24.936992 
L 151.670924 26.593539 
L 142.552203 28.712154 
L 133.617644 31.284519 
L 124.902325 34.300506 
L 116.440568 37.748319 
L 108.26594 41.614352 
L 100.410646 45.883484 
L 92.905381 50.538932 
L 85.780081 55.56225 
L 79.062718 60.933781 
L 72.779905 66.632358 
L 66.956437 72.635754 
L 61.615297 78.92023 
L 56.777653 85.460991 
L 52.462707 92.232332 
L 48.687697 99.207642 
L 45.46759 106.359402 
L 42.815089 113.659338 
L 40.741078 121.078419 
L 39.253573 128.587465 
L 38.35862 136.156673 
L 38.06 143.756 
L 38.35862 151.355327 
L 39.253573 158.924535 
L 40.741078 166.433581 
L 42.815089 173.852662 
L 45.46759 181.152598 
L 48.687697 188.304358 
L 52.462707 195.279668 
L 56.777653 202.051009 
L 61.615297 208.59177 
L 66.956437 214.876246 
L 72.779905 220.879642 
L 79.062718 226.578219 
L 85.780081 231.94975 
L 92.905381 236.973068 
L 100.410646 241.628516 
L 108.26594 245.897648 
L 116.440568 249.763681 
L 124.902325 253.211494 
L 133.617644 256.227481 
L 142.552203 258.799846 
L 151.670924 260.918461 
L 160.937821 262.575008 
L 170.316303 263.762835 
L 179.769433 264.477558 
L 189.26 264.716 
L 198.750567 264.477558 
L 208.203697 263.762835 
L 217.582179 262.575008 
L 226.849076 260.918461 
L 235.967797 258.799846 
L 244.902356 256.227481 
L 253.617675 253.211494 
L 262.079432 249.763681 
L 270.25406 245.897648 
L 278.109354 241.628516 
L 285.614619 236.973068 
L 292.739919 231.94975 
L 299.457282 226.578219 
L 305.740095 220.879642 
L 311.563563 214.876246 
L 316.904703 208.59177 
L 321.742347 202.051009 
L 326.057293 195.279668 
L 329.832303 188.304358 
L 333.05241 181.152598 
L 335.704911 173.852662 
L 337.778922 166.433581 
M 310.229647 143.766033 
L 310.230532 143.753327 
L 309.674088 136.668368 
L 309.673429 136.659944 
L 309.670039 136.646645 
L 308.009738 129.736136 
L 308.005855 129.727834 
L 305.286212 123.159844 
L 305.280949 123.15213 
L 301.567594 117.090385 
L 301.558391 117.080699 
L 296.942493 111.676209 
L 296.934802 111.6706 
L 291.530543 107.052901 
L 291.520644 107.047655 
L 285.459589 103.332174 
L 285.447879 103.328857 
L 278.87971 100.607248 
L 278.871897 100.606516 
L 271.958403 98.945211 
L 271.948848 98.945799 
L 264.860866 98.386882 
L 264.853798 98.388268 
L 257.766299 98.944674 
L 257.757149 98.947678 
L 250.84482 100.605908 
L 250.834531 100.610759 
L 244.265957 103.330438 
L 244.258354 103.335773 
L 238.196592 107.049039 
L 238.188145 107.056657 
L 232.782237 111.672775 
L 232.775837 111.680588 
L 228.158043 117.085992 
L 228.152991 117.094461 
L 224.438249 123.155465 
L 224.434119 123.164971 
L 221.713251 129.732268 
L 221.710254 129.743477 
L 220.050587 136.655952 
L 220.049719 136.663675 
L 219.491876 143.750381 
L 219.491604 143.75819 
L 220.049427 150.845444 
L 220.050232 150.854831 
L 221.710109 157.767816 
L 221.713005 157.779184 
L 224.43397 164.346919 
L 224.438555 164.357311 
L 228.153378 170.418161 
L 228.158087 170.425937 
L 232.775799 175.831416 
L 232.782231 175.839242 
L 238.188144 180.455343 
L 238.19659 180.46297 
L 244.258403 184.176204 
L 244.265014 184.180873 
L 250.83352 186.900683 
L 250.84484 186.906205 
L 257.757137 188.564333 
L 257.766289 188.567282 
L 264.853831 189.123692 
L 264.860867 189.125123 
L 271.94881 188.566248 
L 271.960122 188.566608 
L 278.872746 186.905424 
L 278.881354 186.904334 
L 285.44891 184.182695 
L 285.459462 184.179677 
L 291.520531 180.465287 
L 291.527405 180.462275 
L 291.539078 180.453633 
L 296.940207 175.83654 
L 301.557146 170.432307 
L 301.567929 170.421729 
L 305.281261 164.360566 
L 305.285641 164.354781 
L 305.290273 164.345045 
L 308.008608 157.778047 
L 308.01085 157.771054 
L 309.67039 150.859493 
L 309.671933 150.852032 
M 339.258156 158.915253 
L 339.256835 158.924182 
L 337.769886 166.422683 
L 337.768528 166.430558 
L 337.767056 166.43788 
L 335.696851 173.847984 
L 335.694726 173.85693 
L 333.046352 181.141483 
L 333.042505 181.149223 
L 333.040264 181.155485 
L 329.824135 188.299191 
L 329.820609 188.307817 
L 326.049502 195.274465 
L 326.04525 195.282201 
L 321.734958 202.045728 
L 321.731311 202.051667 
L 316.89837 208.584749 
L 316.893603 208.591542 
L 311.557631 214.869271 
L 311.553462 214.874436 
L 305.735426 220.871194 
L 305.729608 220.878184 
L 299.453065 226.570089 
L 299.447081 226.575832 
L 292.736041 231.941653 
L 292.730877 231.94622 
L 285.612063 236.964007 
L 285.605108 236.96953 
L 278.10715 241.619782 
L 278.100552 241.624261 
L 270.252145 245.888855 
L 270.245043 245.893155 
L 262.077894 249.755077 
L 262.07144 249.758458 
L 253.617299 253.202502 
L 253.60976 253.205917 
L 244.903132 256.218425 
L 244.895213 256.221373 
L 235.968794 258.790875 
L 235.96078 258.793437 
L 226.851096 260.90956 
L 226.842843 260.911612 
L 217.58438 262.566242 
L 217.575966 262.56788 
L 208.206083 263.7543 
L 208.19768 263.755456 
L 198.753771 264.469212 
L 198.74549 264.469864 
L 189.26401 264.70781 
L 189.255017 264.708031 
L 179.773511 264.469631 
L 179.765353 264.469391 
L 170.321071 263.755141 
L 170.312375 263.754416 
L 160.942634 262.567563 
L 160.934154 262.566396 
L 151.676281 260.911352 
L 151.668105 260.909756 
L 142.558086 258.793061 
L 142.549599 258.790917 
L 133.623502 256.220934 
L 133.615338 256.218388 
L 124.908583 253.205325 
L 124.900812 253.202401 
L 116.447199 249.757886 
L 116.439376 249.754443 
L 108.272883 245.892256 
L 108.265029 245.888217 
L 100.417489 241.623324 
L 100.410476 241.619165 
L 92.912475 236.968263 
L 92.905568 236.9636 
L 85.787374 231.945346 
L 85.78091 231.940362 
L 79.070183 226.57421 
L 79.063937 226.568741 
L 72.787497 220.876032 
L 72.781537 220.870081 
L 66.964131 214.873029 
L 66.958765 214.866884 
L 61.623078 208.588934 
L 61.617982 208.582207 
L 56.785291 202.048273 
L 56.781002 202.041667 
L 52.470402 195.277294 
L 52.466525 195.27028 
L 48.695433 188.302341 
L 48.692129 188.29513 
L 45.475356 181.15093 
L 45.472668 181.143644 
L 42.82288 173.851335 
L 42.820795 173.843993 
L 40.748879 166.432591 
L 40.74732 166.424911 
L 39.261358 158.92388 
L 39.260434 158.916185 
L 38.366507 151.354996 
L 38.366192 151.3472 
L 38.067512 143.756 
L 38.366192 136.1648 
L 38.366507 136.157004 
L 39.260434 128.595815 
L 39.261359 128.58812 
L 40.74732 121.087089 
L 40.748878 121.079409 
L 42.820796 113.668008 
L 42.822881 113.660665 
L 45.472665 106.368352 
L 45.475356 106.36107 
L 48.692171 99.216792 
L 48.695435 99.20966 
L 52.466525 92.241719 
L 52.470401 92.234705 
L 56.781002 85.470334 
L 56.785291 85.463728 
L 61.617982 78.929793 
L 61.623078 78.923066 
L 66.958765 72.645116 
L 66.964131 72.638971 
L 72.781537 66.641918 
L 72.787496 66.635967 
L 79.063937 60.943264 
L 79.070171 60.937783 
L 85.780574 55.571883 
L 85.787371 55.566652 
L 92.905568 50.548401 
L 92.912476 50.543738 
L 100.410476 45.892835 
L 100.417489 45.888676 
L 108.265029 41.623783 
L 108.272883 41.619745 
L 116.439376 37.757556 
L 116.4472 37.754114 
L 124.900812 34.309598 
L 124.908583 34.306675 
L 133.615338 31.293612 
L 133.623502 31.291066 
L 142.549599 28.721083 
L 142.558086 28.718939 
L 151.668106 26.602243 
L 151.67628 26.600647 
L 160.934152 24.945608 
L 160.943188 24.944349 
L 170.312461 23.75755 
L 170.321069 23.756855 
L 179.765352 23.04261 
L 179.773512 23.042371 
L 189.255018 22.803968 
L 189.264011 22.804191 
L 198.745491 23.042135 
L 198.753772 23.04279 
L 208.19768 23.756543 
L 208.206795 23.757769 
L 217.576104 24.94412 
L 217.584379 24.945755 
L 226.842846 26.600385 
L 226.850308 26.602271 
L 235.960594 28.718544 
L 235.968795 28.721126 
L 244.895216 31.290624 
L 244.903132 31.293576 
L 253.609764 34.30608 
L 253.617299 34.309498 
L 262.071435 37.753545 
L 262.077894 37.756924 
L 270.245054 41.618839 
L 270.252148 41.623131 
L 278.100501 45.887764 
L 278.107145 45.892239 
L 285.60523 50.542425 
L 285.611134 50.546969 
L 292.729461 55.564702 
L 292.7371 55.571413 
L 299.447844 60.936595 
L 299.453121 60.941803 
L 305.729456 66.633837 
L 305.735413 66.640829 
L 311.553554 72.637547 
L 311.557622 72.64274 
L 316.893646 78.920457 
L 316.898426 78.927189 
L 321.730876 85.460307 
L 321.735778 85.467934 
L 326.046502 92.230891 
L 326.049733 92.237381 
L 329.820218 99.204067 
L 329.823972 99.212912 
L 333.040871 106.35666 
L 333.043902 106.364548 
L 335.693472 113.655901 
L 335.696138 113.664429 
L 337.768305 121.074572 
L 337.769829 121.081064 
L 339.255238 128.580927 
L 339.256786 128.590094 
L 340.15107 136.149927 
L 340.151644 136.159144 
L 340.450134 143.748932 
L 340.450553 143.756 
L 340.151647 151.345315 
L 340.151342 151.355161 
" style="fill:#d8e219;"/>
   </g>
   <g id="line2d_1">
    <path clip-path="url(#p0eed2db867)" d="M 305.740095 66.632358 
L 299.457282 60.933781 
L 292.739919 55.56225 
L 285.614619 50.538932 
L 278.109354 45.883484 
L 270.25406 41.614352 
L 262.079432 37.748319 
L 253.617675 34.300506 
L 244.902356 31.284519 
L 235.967797 28.712154 
L 226.849076 26.593539 
L 217.582179 24.936992 
L 208.203697 23.749165 
L 198.750567 23.034442 
L 189.26 22.796 
L 179.769433 23.034442 
L 170.316303 23.749165 
L 160.937821 24.936992 
L 151.670924 26.593539 
L 142.552203 28.712154 
L 133.617644 31.284519 
L 124.902325 34.300506 
L 116.440568 37.748319 
L 108.26594 41.614352 
L 100.410646 45.883484 
L 92.905381 50.538932 
L 85.780081 55.56225 
L 79.062718 60.933781 
L 72.779905 66.632358 
L 66.956437 72.635754 
L 61.615297 78.92023 
L 56.777653 85.460991 
L 52.462707 92.232332 
L 48.687697 99.207642 
L 45.46759 106.359402 
L 42.815089 113.659338 
L 40.741078 121.078419 
L 39.253573 128.587465 
L 38.35862 136.156673 
L 38.06 143.756 
L 38.35862 151.355327 
L 39.253573 158.924535 
L 40.741078 166.433581 
L 42.815089 173.852662 
L 45.46759 181.152598 
L 48.687697 188.304358 
L 52.462707 195.279668 
L 56.777653 202.051009 
L 61.615297 208.59177 
L 66.956437 214.876246 
L 72.779905 220.879642 
L 79.062718 226.578219 
L 85.780081 231.94975 
L 92.905381 236.973068 
L 100.410646 241.628516 
L 108.26594 245.897648 
L 116.440568 249.763681 
L 124.902325 253.211494 
L 133.617644 256.227481 
L 142.552203 258.799846 
L 151.670924 260.918461 
L 160.937821 262.575008 
L 170.316303 263.762835 
L 179.769433 264.477558 
L 189.26 264.716 
L 198.750567 264.477558 
L 208.203697 263.762835 
L 217.582179 262.575008 
L 226.849076 260.918461 
L 235.967797 258.799846 
L 244.902356 256.227481 
L 253.617675 253.211494 
L 262.079432 249.763681 
L 270.25406 245.897648 
L 278.109354 241.628516 
L 285.614619 236.973068 
L 292.739919 231.94975 
L 299.457282 226.578219 
L 305.740095 220.879642 
L 311.563563 214.876246 
L 316.904703 208.59177 
L 321.742347 202.051009 
L 326.057293 195.279668 
L 329.832303 188.304358 
L 333.05241 181.152598 
L 335.704911 173.852662 
L 337.778922 166.433581 
L 339.266427 158.924535 
L 340.16138 151.355327 
L 340.46 143.756 
L 340.16138 136.156673 
L 339.266427 128.587465 
L 337.778922 121.078419 
L 335.704911 113.659338 
L 333.05241 106.359402 
L 329.832303 99.207642 
L 326.057293 92.232332 
L 321.742347 85.460991 
L 316.904703 78.92023 
L 311.563563 72.635754 
L 305.740095 66.632358 
" style="fill:none;stroke:#000000;stroke-linecap:square;stroke-width:1.5;"/>
   </g>
   <g id="line2d_2">
    <path clip-path="url(#p0eed2db867)" d="M 220.058382 150.851861 
L 219.5 143.756 
L 220.058382 136.660139 
L 221.72007 129.738989 
L 224.443938 123.163014 
L 228.163004 117.093997 
L 232.785642 111.681642 
L 238.197997 107.059004 
L 244.267014 103.339938 
L 250.843004 100.61607 
L 257.764184 98.954382 
L 264.86 98.396 
L 271.955816 98.954382 
L 278.876996 100.61607 
L 285.452986 103.339938 
L 291.522003 107.059004 
L 296.934358 111.681642 
L 301.556996 117.093997 
L 305.276062 123.163014 
L 307.99993 129.738989 
L 309.661618 136.660139 
L 310.22 143.756 
L 309.661618 150.851861 
L 307.99993 157.773011 
L 305.276062 164.348986 
L 301.556996 170.418003 
L 296.934358 175.830358 
L 291.522003 180.452996 
L 285.452986 184.172062 
L 278.876996 186.89593 
L 271.955816 188.557618 
L 264.86 189.116 
L 257.764184 188.557618 
L 250.843004 186.89593 
L 244.267014 184.172062 
L 238.197997 180.452996 
L 232.785642 175.830358 
L 228.163004 170.418003 
L 224.443938 164.348986 
L 221.72007 157.773011 
L 220.058382 150.851861 
" style="fill:none;stroke:#000000;stroke-linecap:square;stroke-width:1.5;"/>
   </g>
  </g>
 </g>
 <defs>
  <clipPath id="p0eed2db867">
   <rect height="266.112" width="357.12" x="10.7" y="10.7"/>
  </clipPath>
 </defs>
</svg>
