<?xml version="1.0" encoding="utf-8" standalone="no"?>
<!DOCTYPE svg PUBLIC "-//W3C//DTD SVG 1.1//EN"
  "http://www.w3.org/Graphics/SVG/1.1/DTD/svg11.dtd">
<!-- Created with matplotlib (https://matplotlib.org/) -->
<svg height="280.512pt" version="1.1" viewBox="0 0 371.52 280.512" width="371.52pt" xmlns="http://www.w3.org/2000/svg" xmlns:xlink="http://www.w3.org/1999/xlink">
 <defs>
  <style type="text/css">
*{stroke-linecap:butt;stroke-linejoin:round;}
  </style>
 </defs>
 <g id="figure_1">
  <g id="patch_1">
   <path d="M 0 280.512 
L 371.52 280.512 
L 371.52 0 
L 0 0 
z
" style="fill:#ffffff;"/>
  </g>
  <g id="axes_1">
   <g id="PathCollection_1">
    <path clip-path="url(#p49867ad21f)" d="M 140.412673 166.424142 
L 145.978677 164.663094 
L 147.344449 163.795005 
L 148.846814 162.075254 
L 152.536403 157.33991 
L 153.254792 156.394907 
L 153.55608 155.920758 
L 155.053181 149.069142 
L 155.591691 146.065962 
L 155.647002 141.494704 
L 155.614367 139.004782 
L 155.275606 133.778897 
L 154.805691 131.066983 
L 153.45869 124.88727 
L 152.910505 123.802098 
L 150.637254 120.276474 
L 146.831993 116.387129 
L 141.981687 114.434288 
L 138.75932 114.032182 
L 137.303836 114.361325 
L 134.457592 115.103729 
L 131.136197 116.4936 
L 125.161062 120.736266 
L 124.271829 121.561458 
L 122.285095 124.083844 
L 120.249044 127.119942 
L 119.714692 128.041135 
L 118.3443 132.092959 
L 117.404533 135.385928 
L 117.157264 136.782809 
L 117.214768 143.695614 
L 117.422245 145.134051 
L 118.419703 149.31214 
L 118.724968 150.334204 
L 118.819679 150.587367 
L 121.830191 156.296957 
L 121.939578 156.442056 
L 122.270094 156.822244 
L 126.780144 161.115512 
L 129.178707 162.899251 
L 133.11185 165.032718 
L 138.944316 166.380045 
L 139.783317 166.519049 
" style="fill:#48186a;"/>
   </g>
   <g id="PathCollection_2">
    <path clip-path="url(#p49867ad21f)" d="M 139.783317 166.519049 
L 138.944316 166.380045 
L 133.11185 165.032718 
L 129.178707 162.899251 
L 126.780144 161.115512 
L 122.270094 156.822244 
L 121.939578 156.442056 
L 121.830191 156.296957 
L 118.819679 150.587367 
L 118.724968 150.334204 
L 118.419703 149.31214 
L 117.422245 145.134051 
L 117.214768 143.695614 
L 117.157264 136.782809 
L 117.404533 135.385928 
L 118.3443 132.092959 
L 119.714692 128.041135 
L 120.249044 127.119942 
L 122.285095 124.083844 
L 124.271829 121.561458 
L 125.161062 120.736266 
L 131.136197 116.4936 
L 134.457592 115.103729 
L 137.303836 114.361325 
L 138.75932 114.032182 
L 141.981687 114.434288 
L 146.831993 116.387129 
L 150.637254 120.276474 
L 152.910505 123.802098 
L 153.45869 124.88727 
L 154.805691 131.066983 
L 155.275606 133.778897 
L 155.614367 139.004782 
L 155.647002 141.494704 
L 155.591691 146.065962 
L 155.053181 149.069142 
L 153.55608 155.920758 
L 153.254792 156.394907 
L 152.536403 157.33991 
L 148.846814 162.075254 
L 147.344449 163.795005 
L 145.978677 164.663094 
L 140.412673 166.424142 
M 158.588409 195.49347 
L 164.287903 192.913363 
L 165.325366 192.220953 
L 167.286222 190.365349 
L 170.263108 187.390937 
L 172.754655 183.10568 
L 174.287121 179.450381 
L 174.815804 176.2949 
L 175.393571 173.061652 
L 176.310745 166.74444 
L 176.403816 166.237519 
L 176.597194 163.538936 
L 176.682633 160.427484 
L 176.675345 159.983296 
L 176.71578 154.661614 
L 176.7207 151.001194 
L 176.735404 147.946811 
L 176.756238 145.134255 
L 176.719127 140.840629 
L 176.673876 137.905896 
L 176.609783 135.058136 
L 176.557857 132.221591 
L 176.660096 125.310214 
L 176.712785 122.845945 
L 176.73216 117.893088 
L 176.654619 116.847928 
L 176.57351 116.241728 
L 176.154253 110.978993 
L 175.961955 108.95093 
L 175.958521 108.75953 
L 175.734266 107.413346 
L 174.925598 102.949792 
L 174.60103 102.06331 
L 174.178603 101.006562 
L 172.295567 96.245675 
L 170.282401 93.024399 
L 168.168981 90.672133 
L 164.164555 87.651443 
L 161.239825 86.146558 
L 157.483647 84.838544 
L 151.563087 83.848196 
L 150.126942 83.640431 
L 141.827996 84.491768 
L 139.259297 84.771025 
L 135.05792 86.039556 
L 129.795526 87.602663 
L 127.200445 88.731049 
L 125.21745 89.729451 
L 121.478972 91.734859 
L 119.927103 92.750669 
L 116.299633 95.345736 
L 114.038986 97.052485 
L 109.967146 100.839851 
L 106.950018 103.80392 
L 105.007995 106.019907 
L 101.680647 110.720773 
L 99.923385 113.390365 
L 98.944088 115.102742 
L 98.082116 116.946293 
L 95.625352 122.887049 
L 94.930117 124.896903 
L 93.773428 129.065817 
L 93.580698 129.95387 
L 93.475126 130.617028 
L 92.51105 139.435646 
L 92.468317 140.256 
L 92.509189 141.077768 
L 93.402955 149.851851 
L 93.515097 150.563651 
L 93.7252 151.513664 
L 96.012502 158.622826 
L 96.718808 160.574549 
L 97.50786 162.350082 
L 100.845552 168.553964 
L 101.717547 170.061171 
L 103.014343 172.00993 
L 106.782412 176.474144 
L 108.726381 178.68655 
L 111.492379 181.367118 
L 115.048243 184.344259 
L 116.848747 185.695444 
L 119.378284 187.386234 
L 125.22968 190.77669 
L 127.908966 192.18866 
L 130.858861 193.307827 
L 134.440382 194.562362 
L 138.148769 195.606183 
L 140.134785 196.091022 
L 144.631278 196.680225 
L 147.860509 196.894018 
L 156.838444 196.00377 
L 157.645024 195.908199 
L 157.775178 195.853933 
" style="fill:#424086;"/>
   </g>
   <g id="PathCollection_3">
    <path clip-path="url(#p49867ad21f)" d="M 157.775178 195.853933 
L 157.645024 195.908199 
L 156.838444 196.00377 
L 147.860509 196.894018 
L 144.631278 196.680225 
L 140.134785 196.091022 
L 138.148769 195.606183 
L 134.440382 194.562362 
L 130.858861 193.307827 
L 127.908966 192.18866 
L 125.22968 190.77669 
L 119.378284 187.386234 
L 116.848747 185.695444 
L 115.048243 184.344259 
L 111.492379 181.367118 
L 108.726381 178.68655 
L 106.782412 176.474144 
L 103.014343 172.00993 
L 101.717547 170.061171 
L 100.845552 168.553964 
L 97.50786 162.350082 
L 96.718808 160.574549 
L 96.012502 158.622826 
L 93.7252 151.513664 
L 93.515097 150.563651 
L 93.402955 149.851851 
L 92.509189 141.077768 
L 92.468317 140.256 
L 92.51105 139.435646 
L 93.475126 130.617028 
L 93.580698 129.95387 
L 93.773428 129.065817 
L 94.930117 124.896903 
L 95.625352 122.887049 
L 98.082116 116.946293 
L 98.944088 115.102742 
L 99.923385 113.390365 
L 101.680647 110.720773 
L 105.007995 106.019907 
L 106.950018 103.80392 
L 109.967146 100.839851 
L 114.038986 97.052485 
L 116.299633 95.345736 
L 119.927103 92.750669 
L 121.478972 91.734859 
L 125.21745 89.729451 
L 127.200445 88.731049 
L 129.795526 87.602663 
L 135.05792 86.039556 
L 139.259297 84.771025 
L 141.827996 84.491768 
L 150.126942 83.640431 
L 151.563087 83.848196 
L 157.483647 84.838544 
L 161.239825 86.146558 
L 164.164555 87.651443 
L 168.168981 90.672133 
L 170.282401 93.024399 
L 172.295567 96.245675 
L 174.178603 101.006562 
L 174.60103 102.06331 
L 174.925598 102.949792 
L 175.734266 107.413346 
L 175.958521 108.75953 
L 175.961955 108.95093 
L 176.154253 110.978993 
L 176.57351 116.241728 
L 176.654619 116.847928 
L 176.73216 117.893088 
L 176.712785 122.845945 
L 176.660096 125.310214 
L 176.557857 132.221591 
L 176.609783 135.058136 
L 176.673876 137.905896 
L 176.719127 140.840629 
L 176.756238 145.134255 
L 176.735404 147.946811 
L 176.7207 151.001194 
L 176.71578 154.661614 
L 176.675345 159.983296 
L 176.682633 160.427484 
L 176.597194 163.538936 
L 176.403816 166.237519 
L 176.310745 166.74444 
L 175.393571 173.061652 
L 174.815804 176.2949 
L 174.287121 179.450381 
L 172.754655 183.10568 
L 170.263108 187.390937 
L 167.286222 190.365349 
L 165.325366 192.220953 
L 164.287903 192.913363 
L 158.588409 195.49347 
M 165.324539 214.940083 
L 166.89141 214.712501 
L 167.954387 214.452411 
L 173.330137 213.229892 
L 176.903237 211.970913 
L 180.392428 210.160745 
L 182.409515 208.968288 
L 185.538636 206.382411 
L 186.974893 204.951378 
L 190.91923 197.589321 
L 191.555317 196.379997 
L 191.690299 195.345433 
L 191.833301 193.539268 
L 192.570449 187.452357 
L 192.638502 183.338368 
L 191.969577 178.426831 
L 191.722307 176.645991 
L 191.218789 170.678101 
L 190.625891 167.026892 
L 190.082944 160.355868 
L 190.044076 160.012048 
L 190.03597 159.875531 
L 190.032584 159.752096 
L 189.887833 157.974199 
L 189.273467 151.67887 
L 189.22512 151.25118 
L 188.909031 146.571153 
L 188.885082 145.574091 
L 188.579469 141.517064 
L 188.814801 136.637013 
L 188.818476 135.252127 
L 189.249402 129.495408 
L 189.278826 129.067767 
L 189.696257 124.828027 
L 189.870073 122.095276 
L 189.884368 121.758675 
L 189.98366 120.955559 
L 190.639176 113.495187 
L 191.071761 110.640853 
L 191.476114 106.252696 
L 191.849869 103.836249 
L 192.453228 99.12545 
L 192.45075 98.227201 
L 192.415728 97.402682 
L 192.459792 91.468671 
L 191.586703 85.434042 
L 191.510572 84.359454 
L 190.057079 81.022167 
L 188.913159 78.309461 
L 184.550339 73.370521 
L 183.625665 72.356213 
L 179.172057 69.918555 
L 176.52161 68.429207 
L 172.871178 67.245976 
L 167.424089 65.958264 
L 166.737664 65.755482 
L 165.042869 65.568282 
L 159.031619 65.159452 
L 156.395491 65.295251 
L 152.310784 65.425465 
L 149.232737 65.737923 
L 146.185722 66.14996 
L 143.008338 66.693997 
L 138.542962 67.691286 
L 133.523943 69.171717 
L 131.283008 69.903227 
L 126.06845 71.870841 
L 125.437494 72.118514 
L 119.963158 74.821047 
L 118.3655 75.627785 
L 114.139214 78.152483 
L 112.278161 79.321622 
L 108.6092 81.832627 
L 106.903121 83.07652 
L 103.503605 85.882657 
L 101.6089 87.563244 
L 98.769254 90.235303 
L 96.672936 92.446337 
L 93.278958 96.291428 
L 91.883245 98.086715 
L 89.53486 101.247102 
L 88.051088 103.47573 
L 86.263463 106.42033 
L 84.762905 109.231494 
L 83.457842 111.775042 
L 82.189241 114.707932 
L 81.138162 117.283444 
L 80.151954 120.312293 
L 79.328975 122.917721 
L 78.378505 126.831234 
L 77.994986 128.642262 
L 77.40162 132.91503 
L 77.199198 134.432953 
L 76.997249 138.697708 
L 76.926383 140.256 
L 76.996843 141.814637 
L 77.195929 146.079184 
L 77.3985 147.599954 
L 77.990152 151.870145 
L 78.374828 153.685898 
L 79.325379 157.594736 
L 80.149555 160.202475 
L 81.139133 163.228391 
L 82.139183 165.658396 
L 83.448404 168.739033 
L 84.6482 171.101943 
L 86.255289 174.093802 
L 88.047621 177.045205 
L 89.528103 179.266982 
L 91.880493 182.430475 
L 93.274476 184.222178 
L 96.672832 188.06622 
L 98.774212 190.27489 
L 101.612543 192.940178 
L 103.518845 194.622969 
L 106.9073 197.415109 
L 108.630831 198.669047 
L 113.288821 201.912752 
L 114.084158 202.389016 
L 118.77549 205.054878 
L 119.996101 205.671057 
L 125.436644 208.352041 
L 126.103221 208.617608 
L 131.803443 210.677518 
L 135.031848 211.777048 
L 138.545491 212.84005 
L 143.053439 213.856622 
L 146.188523 214.380037 
L 149.002372 214.753794 
L 152.752823 215.12977 
L 157.529516 215.227049 
L 160.278247 215.301797 
" style="fill:#33638d;"/>
   </g>
   <g id="PathCollection_4">
    <path clip-path="url(#p49867ad21f)" d="M 160.278247 215.301797 
L 157.529516 215.227049 
L 152.752823 215.12977 
L 149.002372 214.753794 
L 146.188523 214.380037 
L 143.053439 213.856622 
L 138.545491 212.84005 
L 135.031848 211.777048 
L 131.803443 210.677518 
L 126.103221 208.617608 
L 125.436644 208.352041 
L 119.996101 205.671057 
L 118.77549 205.054878 
L 114.084158 202.389016 
L 113.288821 201.912752 
L 108.630831 198.669047 
L 106.9073 197.415109 
L 103.518845 194.622969 
L 101.612543 192.940178 
L 98.774212 190.27489 
L 96.672832 188.06622 
L 93.274476 184.222178 
L 91.880493 182.430475 
L 89.528103 179.266982 
L 88.047621 177.045205 
L 86.255289 174.093802 
L 84.6482 171.101943 
L 83.448404 168.739033 
L 82.139183 165.658396 
L 81.139133 163.228391 
L 80.149555 160.202475 
L 79.325379 157.594736 
L 78.374828 153.685898 
L 77.990152 151.870145 
L 77.3985 147.599954 
L 77.195929 146.079184 
L 76.996843 141.814637 
L 76.926383 140.256 
L 76.997249 138.697708 
L 77.199198 134.432953 
L 77.40162 132.91503 
L 77.994986 128.642262 
L 78.378505 126.831234 
L 79.328975 122.917721 
L 80.151954 120.312293 
L 81.138162 117.283444 
L 82.189241 114.707932 
L 83.457842 111.775042 
L 84.762905 109.231494 
L 86.263463 106.42033 
L 88.051088 103.47573 
L 89.53486 101.247102 
L 91.883245 98.086715 
L 93.278958 96.291428 
L 96.672936 92.446337 
L 98.769254 90.235303 
L 101.6089 87.563244 
L 103.503605 85.882657 
L 106.903121 83.07652 
L 108.6092 81.832627 
L 112.278161 79.321622 
L 114.139214 78.152483 
L 118.3655 75.627785 
L 119.963158 74.821047 
L 125.437494 72.118514 
L 126.06845 71.870841 
L 131.283008 69.903227 
L 133.523943 69.171717 
L 138.542962 67.691286 
L 143.008338 66.693997 
L 146.185722 66.14996 
L 149.232737 65.737923 
L 152.310784 65.425465 
L 156.395491 65.295251 
L 159.031619 65.159452 
L 165.042869 65.568282 
L 166.737664 65.755482 
L 167.424089 65.958264 
L 172.871178 67.245976 
L 176.52161 68.429207 
L 179.172057 69.918555 
L 183.625665 72.356213 
L 184.550339 73.370521 
L 188.913159 78.309461 
L 190.057079 81.022167 
L 191.510572 84.359454 
L 191.586703 85.434042 
L 192.459792 91.468671 
L 192.415728 97.402682 
L 192.45075 98.227201 
L 192.453228 99.12545 
L 191.849869 103.836249 
L 191.476114 106.252696 
L 191.071761 110.640853 
L 190.639176 113.495187 
L 189.98366 120.955559 
L 189.884368 121.758675 
L 189.870073 122.095276 
L 189.696257 124.828027 
L 189.278826 129.067767 
L 189.249402 129.495408 
L 188.818476 135.252127 
L 188.814801 136.637013 
L 188.579469 141.517064 
L 188.885082 145.574091 
L 188.909031 146.571153 
L 189.22512 151.25118 
L 189.273467 151.67887 
L 189.887833 157.974199 
L 190.032584 159.752096 
L 190.03597 159.875531 
L 190.044076 160.012048 
L 190.082944 160.355868 
L 190.625891 167.026892 
L 191.218789 170.678101 
L 191.722307 176.645991 
L 191.969577 178.426831 
L 192.638502 183.338368 
L 192.570449 187.452357 
L 191.833301 193.539268 
L 191.690299 195.345433 
L 191.555317 196.379997 
L 190.91923 197.589321 
L 186.974893 204.951378 
L 185.538636 206.382411 
L 182.409515 208.968288 
L 180.392428 210.160745 
L 176.903237 211.970913 
L 173.330137 213.229892 
L 167.954387 214.452411 
L 166.89141 214.712501 
L 165.324539 214.940083 
M 211.182386 203.642065 
L 211.006037 202.447111 
L 210.366039 198.970398 
L 209.619803 194.608836 
L 209.528007 193.037955 
L 209.041286 191.019918 
L 207.658674 187.362508 
L 207.00773 185.638161 
L 205.600133 181.329056 
L 204.112769 176.665373 
L 203.656074 174.789662 
L 202.529943 170.573469 
L 201.878759 168.708159 
L 201.766208 168.32251 
L 199.691603 159.838619 
L 199.465696 158.737235 
L 198.79204 154.812259 
L 198.495347 152.821021 
L 198.064031 148.772137 
L 197.924767 146.671854 
L 197.718918 142.042628 
L 197.728931 139.653583 
L 197.829846 136.024141 
L 198.221438 131.769748 
L 198.478677 128.668354 
L 199.072623 124.090757 
L 199.578432 121.932659 
L 200.065402 118.074669 
L 201.954913 111.503561 
L 202.042852 110.973392 
L 202.243394 110.148029 
L 204.498775 102.939523 
L 204.95533 100.9978 
L 205.989919 97.743592 
L 207.363255 94.336177 
L 209.056627 88.410692 
L 209.40993 87.66339 
L 210.668226 79.266839 
L 211.029215 78.074474 
L 211.227269 76.847347 
L 209.957872 71.362052 
L 209.330395 68.684124 
L 207.856065 66.575636 
L 203.949343 61.664861 
L 203.537349 61.375798 
L 202.979702 61.035153 
L 195.663505 56.434586 
L 191.894462 55.009849 
L 187.47632 53.58742 
L 185.801896 52.982219 
L 181.437006 52.100935 
L 177.849335 51.495259 
L 177.020354 51.445668 
L 169.872745 50.81868 
L 169.068859 50.825102 
L 163.383866 50.857632 
L 161.403666 50.991451 
L 155.620211 51.327189 
L 153.183628 51.670413 
L 147.232123 52.567933 
L 144.1727 53.246482 
L 140.164391 54.160748 
L 136.797358 55.093852 
L 132.788989 56.245409 
L 129.58485 57.392267 
L 124.984313 59.085001 
L 122.127287 60.318121 
L 117.976381 62.27346 
L 114.50946 64.041887 
L 111.247074 65.809541 
L 108.153684 67.688677 
L 104.243472 70.201029 
L 102.121918 71.698136 
L 98.465026 74.474188 
L 96.478294 76.064603 
L 92.617338 79.407234 
L 91.192779 80.734545 
L 87.696013 84.286769 
L 86.353148 85.710636 
L 82.439088 90.358461 
L 81.161151 91.950218 
L 78.317206 95.978365 
L 77.295114 97.471623 
L 74.345262 102.354253 
L 73.868978 103.18787 
L 71.372195 108.263244 
L 70.975015 109.092567 
L 68.844752 114.445521 
L 68.576547 115.143707 
L 66.932595 120.557666 
L 66.707619 121.316583 
L 65.579988 126.398994 
L 65.335025 127.576879 
L 65.31045 127.76245 
L 64.519833 133.901032 
L 64.51296 134.053542 
L 64.241502 140.256 
L 64.512285 146.459076 
L 64.519094 146.611014 
L 65.309381 152.750628 
L 65.333802 152.935224 
L 65.577408 154.106682 
L 66.706335 159.19558 
L 66.931628 159.955586 
L 68.575308 165.368504 
L 68.835818 166.044045 
L 70.960817 171.422374 
L 71.242495 172.012998 
L 73.866969 177.324654 
L 74.344325 178.160093 
L 77.29324 183.040955 
L 78.31636 184.535474 
L 81.160174 188.562132 
L 82.438894 190.154373 
L 86.354307 194.800941 
L 87.696593 196.223613 
L 91.196409 199.775937 
L 92.618449 201.100267 
L 96.484823 204.444246 
L 98.781316 206.300025 
L 102.151846 208.797674 
L 104.989877 210.762764 
L 108.162857 212.817782 
L 111.247069 214.691695 
L 114.518252 216.464158 
L 117.977214 218.229945 
L 122.1302 220.192434 
L 124.984215 221.426108 
L 129.580656 223.122991 
L 132.789978 224.273327 
L 136.789878 225.424684 
L 140.164632 226.360819 
L 144.163415 227.274671 
L 147.235153 227.955174 
L 153.181321 228.843251 
L 155.620401 229.185421 
L 161.401399 229.523163 
L 163.384077 229.655729 
L 169.067125 229.689201 
L 169.859115 229.703187 
L 173.148549 229.458176 
L 178.026616 228.967893 
L 179.112035 228.722063 
L 185.740284 227.490357 
L 187.696367 226.849889 
L 191.533196 225.683661 
L 195.274226 224.03912 
L 197.578914 223.174906 
L 202.894825 219.682576 
L 203.590462 219.256676 
L 204.089255 218.891665 
L 204.846192 217.876343 
L 209.717925 210.938142 
L 210.759813 205.707055 
" style="fill:#26828e;"/>
   </g>
   <g id="PathCollection_5">
    <path clip-path="url(#p49867ad21f)" d="M 210.759813 205.707055 
L 209.717925 210.938142 
L 204.846192 217.876343 
L 204.089255 218.891665 
L 203.590462 219.256676 
L 202.894825 219.682576 
L 197.578914 223.174906 
L 195.274226 224.03912 
L 191.533196 225.683661 
L 187.696367 226.849889 
L 185.740284 227.490357 
L 179.112035 228.722063 
L 178.026616 228.967893 
L 173.148549 229.458176 
L 169.859115 229.703187 
L 169.067125 229.689201 
L 163.384077 229.655729 
L 161.401399 229.523163 
L 155.620401 229.185421 
L 153.181321 228.843251 
L 147.235153 227.955174 
L 144.163415 227.274671 
L 140.164632 226.360819 
L 136.789878 225.424684 
L 132.789978 224.273327 
L 129.580656 223.122991 
L 124.984215 221.426108 
L 122.1302 220.192434 
L 117.977214 218.229945 
L 114.518252 216.464158 
L 111.247069 214.691695 
L 108.162857 212.817782 
L 104.989877 210.762764 
L 102.151846 208.797674 
L 98.781316 206.300025 
L 96.484823 204.444246 
L 92.618449 201.100267 
L 91.196409 199.775937 
L 87.696593 196.223613 
L 86.354307 194.800941 
L 82.438894 190.154373 
L 81.160174 188.562132 
L 78.31636 184.535474 
L 77.29324 183.040955 
L 74.344325 178.160093 
L 73.866969 177.324654 
L 71.242495 172.012998 
L 70.960817 171.422374 
L 68.835818 166.044045 
L 68.575308 165.368504 
L 66.931628 159.955586 
L 66.706335 159.19558 
L 65.577408 154.106682 
L 65.333802 152.935224 
L 65.309381 152.750628 
L 64.519094 146.611014 
L 64.512285 146.459076 
L 64.241502 140.256 
L 64.51296 134.053542 
L 64.519833 133.901032 
L 65.31045 127.76245 
L 65.335025 127.576879 
L 65.579988 126.398994 
L 66.707619 121.316583 
L 66.932595 120.557666 
L 68.576547 115.143707 
L 68.844752 114.445521 
L 70.975015 109.092567 
L 71.372195 108.263244 
L 73.868978 103.18787 
L 74.345262 102.354253 
L 77.295114 97.471623 
L 78.317206 95.978365 
L 81.161151 91.950218 
L 82.439088 90.358461 
L 86.353148 85.710636 
L 87.696013 84.286769 
L 91.192779 80.734545 
L 92.617338 79.407234 
L 96.478294 76.064603 
L 98.465026 74.474188 
L 102.121918 71.698136 
L 104.243472 70.201029 
L 108.153684 67.688677 
L 111.247074 65.809541 
L 114.50946 64.041887 
L 117.976381 62.27346 
L 122.127287 60.318121 
L 124.984313 59.085001 
L 129.58485 57.392267 
L 132.788989 56.245409 
L 136.797358 55.093852 
L 140.164391 54.160748 
L 144.1727 53.246482 
L 147.232123 52.567933 
L 153.183628 51.670413 
L 155.620211 51.327189 
L 161.403666 50.991451 
L 163.383866 50.857632 
L 169.068859 50.825102 
L 169.872745 50.81868 
L 177.020354 51.445668 
L 177.849335 51.495259 
L 181.437006 52.100935 
L 185.801896 52.982219 
L 187.47632 53.58742 
L 191.894462 55.009849 
L 195.663505 56.434586 
L 202.979702 61.035153 
L 203.537349 61.375798 
L 203.949343 61.664861 
L 207.856065 66.575636 
L 209.330395 68.684124 
L 209.957872 71.362052 
L 211.227269 76.847347 
L 211.029215 78.074474 
L 210.668226 79.266839 
L 209.40993 87.66339 
L 209.056627 88.410692 
L 207.363255 94.336177 
L 205.989919 97.743592 
L 204.95533 100.9978 
L 204.498775 102.939523 
L 202.243394 110.148029 
L 202.042852 110.973392 
L 201.954913 111.503561 
L 200.065402 118.074669 
L 199.578432 121.932659 
L 199.072623 124.090757 
L 198.478677 128.668354 
L 198.221438 131.769748 
L 197.829846 136.024141 
L 197.728931 139.653583 
L 197.718918 142.042628 
L 197.924767 146.671854 
L 198.064031 148.772137 
L 198.495347 152.821021 
L 198.79204 154.812259 
L 199.465696 158.737235 
L 199.691603 159.838619 
L 201.766208 168.32251 
L 201.878759 168.708159 
L 202.529943 170.573469 
L 203.656074 174.789662 
L 204.112769 176.665373 
L 205.600133 181.329056 
L 207.00773 185.638161 
L 207.658674 187.362508 
L 209.041286 191.019918 
L 209.528007 193.037955 
L 209.619803 194.608836 
L 210.366039 198.970398 
L 211.006037 202.447111 
L 211.182386 203.642065 
M 232.470965 205.715673 
L 230.981104 203.306639 
L 229.596411 200.51472 
L 227.033847 195.774517 
L 226.763301 195.421906 
L 226.556061 195.171062 
L 222.538849 189.902801 
L 220.485095 186.613645 
L 217.479565 182.063883 
L 216.743792 180.742467 
L 216.300291 179.701775 
L 214.060637 175.180797 
L 212.346233 172.165853 
L 211.912676 171.447938 
L 209.588786 165.480833 
L 209.08416 164.268553 
L 207.681823 159.822837 
L 206.78788 156.10386 
L 206.07658 153.134528 
L 205.470444 149.319114 
L 205.227965 146.581796 
L 204.886778 142.771407 
L 204.853301 139.635383 
L 204.898237 137.042543 
L 205.569584 130.472098 
L 205.808069 128.41105 
L 206.536307 125.597313 
L 207.00911 123.14644 
L 208.360133 118.83704 
L 209.085968 116.127219 
L 209.516733 115.10499 
L 212.899844 107.319812 
L 212.919747 107.270741 
L 212.923282 107.260886 
L 215.69469 101.988017 
L 215.939178 101.43424 
L 218.566638 96.970518 
L 221.244023 92.688144 
L 222.903541 90.240325 
L 224.092892 88.841495 
L 226.681054 85.073908 
L 226.856889 84.855265 
L 229.662026 80.05232 
L 233.596695 72.001197 
L 233.65467 70.851043 
L 233.313579 63.178429 
L 230.490179 58.965507 
L 228.676507 56.033654 
L 224.987871 52.709711 
L 221.544922 50.43038 
L 220.103395 49.378313 
L 214.159139 46.51177 
L 213.163564 45.961499 
L 210.293921 44.869446 
L 205.477683 43.212344 
L 204.230488 42.923609 
L 198.974445 41.563086 
L 196.450677 41.127852 
L 191.088785 40.10501 
L 186.614748 39.642018 
L 183.401001 39.262057 
L 178.452998 39.026851 
L 175.624346 38.845101 
L 169.291213 38.964381 
L 166.808821 39.014538 
L 160.584172 39.565918 
L 158.588648 39.73859 
L 152.393214 40.599086 
L 150.778572 40.840522 
L 144.002626 42.24433 
L 142.229265 42.624257 
L 135.285133 44.485646 
L 133.980912 44.862548 
L 127.531658 46.997624 
L 126.538132 47.345244 
L 120.038521 49.977198 
L 118.50502 50.644778 
L 112.528616 53.508111 
L 111.034679 54.282809 
L 104.99344 57.596639 
L 104.069764 58.147452 
L 98.410925 61.804489 
L 96.957123 62.811616 
L 92.184382 66.360819 
L 90.467721 67.745637 
L 86.324961 71.236915 
L 84.646276 72.777483 
L 80.88802 76.425305 
L 79.154198 78.27386 
L 75.879917 81.894018 
L 74.088003 84.114491 
L 70.866764 88.262221 
L 69.428199 90.370038 
L 66.848454 94.249335 
L 65.436336 96.671001 
L 63.328991 100.439028 
L 62.001943 103.215648 
L 60.325265 106.804137 
L 59.208161 109.694808 
L 57.847354 113.316111 
L 56.965905 116.297413 
L 55.909065 119.946639 
L 55.181573 123.340788 
L 54.508525 126.665776 
L 54.048709 130.343495 
L 53.66855 133.44579 
L 53.512748 137.125884 
L 53.382961 140.256 
L 53.512682 143.38618 
L 53.668311 147.06622 
L 54.048454 150.168788 
L 54.508113 153.846258 
L 55.181232 157.171685 
L 55.908573 160.565424 
L 56.965554 164.215067 
L 57.846869 167.195971 
L 59.179949 170.735979 
L 60.322962 173.708312 
L 61.950774 177.200309 
L 63.328172 180.073186 
L 65.435964 183.841923 
L 66.847733 186.262888 
L 69.427931 190.142595 
L 70.866379 192.249917 
L 74.087982 196.397593 
L 75.880234 198.617866 
L 79.154442 202.237375 
L 80.889185 204.086208 
L 84.647188 207.733102 
L 86.327113 209.274087 
L 90.891124 213.141881 
L 92.170576 214.158463 
L 97.170636 217.838578 
L 98.414789 218.705178 
L 104.069783 222.359838 
L 104.997099 222.912882 
L 111.034782 226.225554 
L 112.530773 227.001943 
L 118.504832 229.865735 
L 120.038919 230.534492 
L 126.538334 233.168118 
L 127.530204 233.515647 
L 133.98116 235.652529 
L 135.282576 236.028875 
L 142.230309 237.891388 
L 144.000636 238.27037 
L 150.779336 239.673866 
L 152.392084 239.914217 
L 158.588804 240.774146 
L 160.584811 240.945233 
L 166.904894 241.46482 
L 169.630063 241.497283 
L 175.551302 241.64024 
L 178.453218 241.484794 
L 183.401879 241.252439 
L 186.612728 240.873908 
L 191.018573 240.454173 
L 195.79862 239.542325 
L 198.98043 238.961358 
L 204.225895 237.600353 
L 205.459115 237.326056 
L 211.76133 235.016917 
L 212.919949 234.65067 
L 216.955522 232.799559 
L 220.127506 231.160724 
L 224.186559 227.780396 
L 228.419736 224.408928 
L 229.55972 223.578801 
L 231.045082 221.579871 
L 233.223247 217.266512 
L 233.932612 212.702948 
L 233.515913 208.642489 
" style="fill:#1fa088;"/>
   </g>
   <g id="PathCollection_6">
    <path clip-path="url(#p49867ad21f)" d="M 233.515913 208.642489 
L 233.932612 212.702948 
L 233.223247 217.266512 
L 231.045082 221.579871 
L 229.55972 223.578801 
L 228.419736 224.408928 
L 224.186559 227.780396 
L 220.127506 231.160724 
L 216.955522 232.799559 
L 212.919949 234.65067 
L 211.76133 235.016917 
L 205.459115 237.326056 
L 204.225895 237.600353 
L 198.98043 238.961358 
L 195.79862 239.542325 
L 191.018573 240.454173 
L 186.612728 240.873908 
L 183.401879 241.252439 
L 178.453218 241.484794 
L 175.551302 241.64024 
L 169.630063 241.497283 
L 166.904894 241.46482 
L 160.584811 240.945233 
L 158.588804 240.774146 
L 152.392084 239.914217 
L 150.779336 239.673866 
L 144.000636 238.27037 
L 142.230309 237.891388 
L 135.282576 236.028875 
L 133.98116 235.652529 
L 127.530204 233.515647 
L 126.538334 233.168118 
L 120.038919 230.534492 
L 118.504832 229.865735 
L 112.530773 227.001943 
L 111.034782 226.225554 
L 104.997099 222.912882 
L 104.069783 222.359838 
L 98.414789 218.705178 
L 97.170636 217.838578 
L 92.170576 214.158463 
L 90.891124 213.141881 
L 86.327113 209.274087 
L 84.647188 207.733102 
L 80.889185 204.086208 
L 79.154442 202.237375 
L 75.880234 198.617866 
L 74.087982 196.397593 
L 70.866379 192.249917 
L 69.427931 190.142595 
L 66.847733 186.262888 
L 65.435964 183.841923 
L 63.328172 180.073186 
L 61.950774 177.200309 
L 60.322962 173.708312 
L 59.179949 170.735979 
L 57.846869 167.195971 
L 56.965554 164.215067 
L 55.908573 160.565424 
L 55.181232 157.171685 
L 54.508113 153.846258 
L 54.048454 150.168788 
L 53.668311 147.06622 
L 53.512682 143.38618 
L 53.382961 140.256 
L 53.512748 137.125884 
L 53.66855 133.44579 
L 54.048709 130.343495 
L 54.508525 126.665776 
L 55.181573 123.340788 
L 55.909065 119.946639 
L 56.965905 116.297413 
L 57.847354 113.316111 
L 59.208161 109.694808 
L 60.325265 106.804137 
L 62.001943 103.215648 
L 63.328991 100.439028 
L 65.436336 96.671001 
L 66.848454 94.249335 
L 69.428199 90.370038 
L 70.866764 88.262221 
L 74.088003 84.114491 
L 75.879917 81.894018 
L 79.154198 78.27386 
L 80.88802 76.425305 
L 84.646276 72.777483 
L 86.324961 71.236915 
L 90.467721 67.745637 
L 92.184382 66.360819 
L 96.957123 62.811616 
L 98.410925 61.804489 
L 104.069764 58.147452 
L 104.99344 57.596639 
L 111.034679 54.282809 
L 112.528616 53.508111 
L 118.50502 50.644778 
L 120.038521 49.977198 
L 126.538132 47.345244 
L 127.531658 46.997624 
L 133.980912 44.862548 
L 135.285133 44.485646 
L 142.229265 42.624257 
L 144.002626 42.24433 
L 150.778572 40.840522 
L 152.393214 40.599086 
L 158.588648 39.73859 
L 160.584172 39.565918 
L 166.808821 39.014538 
L 169.291213 38.964381 
L 175.624346 38.845101 
L 178.452998 39.026851 
L 183.401001 39.262057 
L 186.614748 39.642018 
L 191.088785 40.10501 
L 196.450677 41.127852 
L 198.974445 41.563086 
L 204.230488 42.923609 
L 205.477683 43.212344 
L 210.293921 44.869446 
L 213.163564 45.961499 
L 214.159139 46.51177 
L 220.103395 49.378313 
L 221.544922 50.43038 
L 224.987871 52.709711 
L 228.676507 56.033654 
L 230.490179 58.965507 
L 233.313579 63.178429 
L 233.65467 70.851043 
L 233.596695 72.001197 
L 229.662026 80.05232 
L 226.856889 84.855265 
L 226.681054 85.073908 
L 224.092892 88.841495 
L 222.903541 90.240325 
L 221.244023 92.688144 
L 218.566638 96.970518 
L 215.939178 101.43424 
L 215.69469 101.988017 
L 212.923282 107.260886 
L 212.919747 107.270741 
L 212.899844 107.319812 
L 209.516733 115.10499 
L 209.085968 116.127219 
L 208.360133 118.83704 
L 207.00911 123.14644 
L 206.536307 125.597313 
L 205.808069 128.41105 
L 205.569584 130.472098 
L 204.898237 137.042543 
L 204.853301 139.635383 
L 204.886778 142.771407 
L 205.227965 146.581796 
L 205.470444 149.319114 
L 206.07658 153.134528 
L 206.78788 156.10386 
L 207.681823 159.822837 
L 209.08416 164.268553 
L 209.588786 165.480833 
L 211.912676 171.447938 
L 212.346233 172.165853 
L 214.060637 175.180797 
L 216.300291 179.701775 
L 216.743792 180.742467 
L 217.479565 182.063883 
L 220.485095 186.613645 
L 222.538849 189.902801 
L 226.556061 195.171062 
L 226.763301 195.421906 
L 227.033847 195.774517 
L 229.596411 200.51472 
L 230.981104 203.306639 
L 232.470965 205.715673 
M 263.835271 206.24635 
L 259.267789 202.486108 
L 257.430971 200.946264 
L 257.093974 200.468086 
L 256.247238 199.880927 
L 250.081078 196.848655 
L 248.150618 196.193885 
L 243.716635 193.09829 
L 239.180151 190.58858 
L 237.018426 188.774584 
L 233.405704 186.11603 
L 231.739503 184.353595 
L 226.554116 179.444672 
L 226.149524 178.90111 
L 224.487951 176.71276 
L 221.567752 173.159894 
L 221.11979 172.635511 
L 217.726099 167.031785 
L 217.346728 166.412829 
L 214.282514 159.46736 
L 213.749014 158.179625 
L 211.916503 150.985342 
L 211.487759 149.199728 
L 210.987042 143.358908 
L 210.848563 141.599504 
L 211.015257 136.80825 
L 211.127914 135.377083 
L 211.672293 130.535841 
L 212.023743 129.072062 
L 213.915992 121.996287 
L 214.336944 120.980245 
L 217.116177 114.583506 
L 217.51965 113.925196 
L 221.123732 107.882986 
L 221.576353 107.353167 
L 224.488442 103.798843 
L 226.309972 101.381224 
L 226.648459 100.949876 
L 231.944893 95.920974 
L 232.804028 94.968547 
L 234.210513 93.756437 
L 238.308346 90.781205 
L 240.38162 89.234682 
L 243.997175 87.26895 
L 248.153075 84.349255 
L 250.095795 83.674506 
L 254.198631 81.589759 
L 254.93788 81.030343 
L 255.832755 80.196191 
L 261.753296 76.306336 
L 265.161409 74.239948 
L 266.194427 71.187091 
L 267.001291 66.353874 
L 265.487209 63.509253 
L 262.750513 59.076534 
L 261.511251 56.448374 
L 256.863985 52.349897 
L 254.861515 50.337452 
L 251.086232 47.619521 
L 249.45167 46.719773 
L 244.309143 43.507442 
L 241.563076 42.272466 
L 237.939267 40.364174 
L 233.975181 38.76639 
L 230.542871 37.190627 
L 225.758624 35.649505 
L 222.725567 34.587401 
L 217.002564 33.070192 
L 214.917125 32.437291 
L 208.652905 31.218 
L 206.20364 30.684766 
L 199.156092 29.706779 
L 197.569833 29.464839 
L 190.440114 28.853506 
L 189.190239 28.73707 
L 180.884132 28.50375 
L 180.165167 28.480373 
L 172.038332 28.675749 
L 171.703096 28.68445 
L 163.162182 29.396813 
L 162.614047 29.44282 
L 153.861056 30.644319 
L 153.552189 30.690016 
L 145.192201 32.293882 
L 145.191677 32.293988 
L 145.162959 32.301203 
L 136.334197 34.531671 
L 136.191981 34.572617 
L 131.881164 35.917032 
L 127.872398 37.178595 
L 127.745047 37.221526 
L 122.771045 39.080615 
L 119.841484 40.182487 
L 119.766756 40.212935 
L 117.602915 41.165105 
L 111.929509 43.678534 
L 111.7207 43.777314 
L 104.00145 47.742548 
L 103.849735 47.827581 
L 96.760324 52.020412 
L 96.73587 52.036029 
L 89.909225 56.669842 
L 89.608332 56.890705 
L 83.441767 61.665489 
L 82.890062 62.132265 
L 77.369211 66.97868 
L 76.880378 67.448671 
L 71.743602 72.601211 
L 71.13123 73.280224 
L 66.567948 78.500548 
L 65.988112 79.244435 
L 61.663217 84.965086 
L 61.140086 85.752906 
L 57.494845 91.36421 
L 57.00915 92.221685 
L 53.851852 97.967339 
L 53.3336 99.077672 
L 50.739354 104.744303 
L 50.308908 105.885538 
L 48.175039 111.668522 
L 47.826561 112.873484 
L 46.168534 118.710914 
L 45.896085 120.01978 
L 44.729883 125.842857 
L 44.54047 127.3908 
L 43.862215 133.034389 
L 43.798258 134.581014 
L 43.568294 140.256 
L 43.798216 145.931029 
L 43.862141 147.477614 
L 44.540381 153.121303 
L 44.729761 154.669153 
L 45.896 160.492338 
L 46.16842 161.8011 
L 47.826568 167.638505 
L 48.175055 168.843475 
L 50.286438 174.561537 
L 50.73993 175.767583 
L 53.320447 181.408991 
L 53.851629 182.544719 
L 57.009028 188.290617 
L 57.494602 189.147865 
L 61.140003 194.759307 
L 61.663064 195.546968 
L 65.988106 201.267588 
L 66.567981 202.01144 
L 71.131287 207.231576 
L 71.743839 207.91069 
L 76.880728 213.06357 
L 77.369382 213.533302 
L 83.16237 218.630422 
L 83.4286 218.85368 
L 89.638101 223.640671 
L 89.910527 223.841371 
L 96.735903 228.474348 
L 96.761688 228.490815 
L 103.84977 232.682964 
L 104.002674 232.768686 
L 111.720627 236.73387 
L 111.930095 236.833011 
L 117.606308 239.348266 
L 119.766695 240.299119 
L 119.841498 240.329598 
L 122.78282 241.436127 
L 127.745141 243.291285 
L 127.871792 243.334002 
L 131.854324 244.587453 
L 136.191275 245.940172 
L 136.334513 245.981412 
L 145.191507 248.218919 
L 145.191988 248.219031 
L 145.205037 248.221579 
L 153.552415 249.822836 
L 153.860521 249.868391 
L 162.536775 251.084729 
L 162.609596 251.09115 
L 171.708747 251.828805 
L 172.038926 251.835293 
L 180.164852 252.030889 
L 180.884383 252.007762 
L 189.191149 251.776335 
L 190.264848 251.669216 
L 197.520149 251.046922 
L 199.154402 250.809623 
L 206.117349 249.869391 
L 207.709708 249.509987 
L 214.855735 248.079785 
L 217.002087 247.443707 
L 222.893204 245.851315 
L 225.548736 244.877234 
L 230.394015 243.343758 
L 233.976301 241.73554 
L 237.934178 240.14305 
L 241.562871 238.237469 
L 244.308874 237.004386 
L 249.452481 233.811617 
L 251.10065 232.90379 
L 255.576891 229.464657 
L 255.891963 229.26885 
L 256.772479 228.529518 
L 261.799463 223.651553 
L 263.202671 220.80184 
L 264.950971 218.561534 
L 266.94068 214.64038 
L 266.516731 211.824733 
L 265.586598 207.209771 
" style="fill:#3fbc73;"/>
   </g>
   <g id="PathCollection_7">
    <path clip-path="url(#p49867ad21f)" d="M 265.586598 207.209771 
L 266.516731 211.824733 
L 266.94068 214.64038 
L 264.950971 218.561534 
L 263.202671 220.80184 
L 261.799463 223.651553 
L 256.772479 228.529518 
L 255.891963 229.26885 
L 255.576891 229.464657 
L 251.10065 232.90379 
L 249.452481 233.811617 
L 244.308874 237.004386 
L 241.562871 238.237469 
L 237.934178 240.14305 
L 233.976301 241.73554 
L 230.394015 243.343758 
L 225.548736 244.877234 
L 222.893204 245.851315 
L 217.002087 247.443707 
L 214.855735 248.079785 
L 207.709708 249.509987 
L 206.117349 249.869391 
L 199.154402 250.809623 
L 197.520149 251.046922 
L 190.264848 251.669216 
L 189.191149 251.776335 
L 180.884383 252.007762 
L 180.164852 252.030889 
L 172.038926 251.835293 
L 171.708747 251.828805 
L 162.609596 251.09115 
L 162.536775 251.084729 
L 153.860521 249.868391 
L 153.552415 249.822836 
L 145.205037 248.221579 
L 145.191988 248.219031 
L 145.191507 248.218919 
L 136.334513 245.981412 
L 136.191275 245.940172 
L 131.854324 244.587453 
L 127.871792 243.334002 
L 127.745141 243.291285 
L 122.78282 241.436127 
L 119.841498 240.329598 
L 119.766695 240.299119 
L 117.606308 239.348266 
L 111.930095 236.833011 
L 111.720627 236.73387 
L 104.002674 232.768686 
L 103.84977 232.682964 
L 96.761688 228.490815 
L 96.735903 228.474348 
L 89.910527 223.841371 
L 89.638101 223.640671 
L 83.4286 218.85368 
L 83.16237 218.630422 
L 77.369382 213.533302 
L 76.880728 213.06357 
L 71.743839 207.91069 
L 71.131287 207.231576 
L 66.567981 202.01144 
L 65.988106 201.267588 
L 61.663064 195.546968 
L 61.140003 194.759307 
L 57.494602 189.147865 
L 57.009028 188.290617 
L 53.851629 182.544719 
L 53.320447 181.408991 
L 50.73993 175.767583 
L 50.286438 174.561537 
L 48.175055 168.843475 
L 47.826568 167.638505 
L 46.16842 161.8011 
L 45.896 160.492338 
L 44.729761 154.669153 
L 44.540381 153.121303 
L 43.862141 147.477614 
L 43.798216 145.931029 
L 43.568294 140.256 
L 43.798258 134.581014 
L 43.862215 133.034389 
L 44.54047 127.3908 
L 44.729883 125.842857 
L 45.896085 120.01978 
L 46.168534 118.710914 
L 47.826561 112.873484 
L 48.175039 111.668522 
L 50.308908 105.885538 
L 50.739354 104.744303 
L 53.3336 99.077672 
L 53.851852 97.967339 
L 57.00915 92.221685 
L 57.494845 91.36421 
L 61.140086 85.752906 
L 61.663217 84.965086 
L 65.988112 79.244435 
L 66.567948 78.500548 
L 71.13123 73.280224 
L 71.743602 72.601211 
L 76.880378 67.448671 
L 77.369211 66.97868 
L 82.890062 62.132265 
L 83.441767 61.665489 
L 89.608332 56.890705 
L 89.909225 56.669842 
L 96.73587 52.036029 
L 96.760324 52.020412 
L 103.849735 47.827581 
L 104.00145 47.742548 
L 111.7207 43.777314 
L 111.929509 43.678534 
L 117.602915 41.165105 
L 119.766756 40.212935 
L 119.841484 40.182487 
L 122.771045 39.080615 
L 127.745047 37.221526 
L 127.872398 37.178595 
L 131.881164 35.917032 
L 136.191981 34.572617 
L 136.334197 34.531671 
L 145.162959 32.301203 
L 145.191677 32.293988 
L 145.192201 32.293882 
L 153.552189 30.690016 
L 153.861056 30.644319 
L 162.614047 29.44282 
L 163.162182 29.396813 
L 171.703096 28.68445 
L 172.038332 28.675749 
L 180.165167 28.480373 
L 180.884132 28.50375 
L 189.190239 28.73707 
L 190.440114 28.853506 
L 197.569833 29.464839 
L 199.156092 29.706779 
L 206.20364 30.684766 
L 208.652905 31.218 
L 214.917125 32.437291 
L 217.002564 33.070192 
L 222.725567 34.587401 
L 225.758624 35.649505 
L 230.542871 37.190627 
L 233.975181 38.76639 
L 237.939267 40.364174 
L 241.563076 42.272466 
L 244.309143 43.507442 
L 249.45167 46.719773 
L 251.086232 47.619521 
L 254.861515 50.337452 
L 256.863985 52.349897 
L 261.511251 56.448374 
L 262.750513 59.076534 
L 265.487209 63.509253 
L 267.001291 66.353874 
L 266.194427 71.187091 
L 265.161409 74.239948 
L 261.753296 76.306336 
L 255.832755 80.196191 
L 254.93788 81.030343 
L 254.198631 81.589759 
L 250.095795 83.674506 
L 248.153075 84.349255 
L 243.997175 87.26895 
L 240.38162 89.234682 
L 238.308346 90.781205 
L 234.210513 93.756437 
L 232.804028 94.968547 
L 231.944893 95.920974 
L 226.648459 100.949876 
L 226.309972 101.381224 
L 224.488442 103.798843 
L 221.576353 107.353167 
L 221.123732 107.882986 
L 217.51965 113.925196 
L 217.116177 114.583506 
L 214.336944 120.980245 
L 213.915992 121.996287 
L 212.023743 129.072062 
L 211.672293 130.535841 
L 211.127914 135.377083 
L 211.015257 136.80825 
L 210.848563 141.599504 
L 210.987042 143.358908 
L 211.487759 149.199728 
L 211.916503 150.985342 
L 213.749014 158.179625 
L 214.282514 159.46736 
L 217.346728 166.412829 
L 217.726099 167.031785 
L 221.11979 172.635511 
L 221.567752 173.159894 
L 224.487951 176.71276 
L 226.149524 178.90111 
L 226.554116 179.444672 
L 231.739503 184.353595 
L 233.405704 186.11603 
L 237.018426 188.774584 
L 239.180151 190.58858 
L 243.716635 193.09829 
L 248.150618 196.193885 
L 250.081078 196.848655 
L 256.247238 199.880927 
L 257.093974 200.468086 
L 257.430971 200.946264 
L 259.267789 202.486108 
L 263.835271 206.24635 
M 306.171933 147.352032 
L 306.17039 147.359493 
L 304.51085 154.271054 
L 304.508608 154.278047 
L 301.790273 160.845045 
L 301.785641 160.854781 
L 301.781261 160.860566 
L 298.067929 166.921729 
L 298.057146 166.932307 
L 293.440207 172.33654 
L 288.039078 176.953633 
L 288.027405 176.962275 
L 288.020531 176.965287 
L 281.959462 180.679677 
L 281.94891 180.682695 
L 275.381354 183.404334 
L 275.372746 183.405424 
L 268.460122 185.066608 
L 268.44881 185.066248 
L 261.360867 185.625123 
L 261.353831 185.623692 
L 254.266289 185.067282 
L 254.257137 185.064333 
L 247.34484 183.406205 
L 247.33352 183.400683 
L 240.765014 180.680873 
L 240.758403 180.676204 
L 234.69659 176.96297 
L 234.688144 176.955343 
L 229.282231 172.339242 
L 229.275799 172.331416 
L 224.658087 166.925937 
L 224.653378 166.918161 
L 220.938555 160.857311 
L 220.93397 160.846919 
L 218.213005 154.279184 
L 218.210109 154.267816 
L 216.550232 147.354831 
L 216.549427 147.345444 
L 215.991604 140.25819 
L 215.991876 140.250381 
L 216.549719 133.163675 
L 216.550587 133.155952 
L 218.210254 126.243477 
L 218.213251 126.232268 
L 220.934119 119.664971 
L 220.938249 119.655465 
L 224.652991 113.594461 
L 224.658043 113.585992 
L 229.275837 108.180588 
L 229.282237 108.172775 
L 234.688145 103.556657 
L 234.696592 103.549039 
L 240.758354 99.835773 
L 240.765957 99.830438 
L 247.334531 97.110759 
L 247.34482 97.105908 
L 254.257149 95.447678 
L 254.266299 95.444674 
L 261.353798 94.888268 
L 261.360866 94.886882 
L 268.448848 95.445799 
L 268.458403 95.445211 
L 275.371897 97.106516 
L 275.37971 97.107248 
L 281.947879 99.828857 
L 281.959589 99.832174 
L 288.020644 103.547655 
L 288.030543 103.552901 
L 293.434802 108.1706 
L 293.442493 108.176209 
L 298.058391 113.580699 
L 298.067594 113.590385 
L 301.780949 119.65213 
L 301.786212 119.659844 
L 304.505855 126.227834 
L 304.509738 126.236136 
L 306.170039 133.146645 
L 306.173429 133.159944 
L 306.174088 133.168368 
L 306.730532 140.253327 
L 306.729647 140.266033 
M 336.651342 147.855161 
L 336.651647 147.845315 
L 336.950553 140.256 
L 336.950134 140.248932 
L 336.651644 132.659144 
L 336.65107 132.649927 
L 335.756786 125.090094 
L 335.755238 125.080927 
L 334.269829 117.581064 
L 334.268305 117.574572 
L 332.196138 110.164429 
L 332.193472 110.155901 
L 329.543902 102.864548 
L 329.540871 102.85666 
L 326.323972 95.712912 
L 326.320218 95.704067 
L 322.549733 88.737381 
L 322.546502 88.730891 
L 318.235778 81.967934 
L 318.230876 81.960307 
L 313.398426 75.427189 
L 313.393646 75.420457 
L 308.057622 69.14274 
L 308.053554 69.137547 
L 302.235413 63.140829 
L 302.229456 63.133837 
L 295.953121 57.441803 
L 295.947844 57.436595 
L 289.2371 52.071413 
L 289.229461 52.064702 
L 282.111134 47.046969 
L 282.10523 47.042425 
L 274.607145 42.392239 
L 274.600501 42.387764 
L 266.752148 38.123131 
L 266.745054 38.118839 
L 258.577894 34.256924 
L 258.571435 34.253545 
L 250.117299 30.809498 
L 250.109764 30.80608 
L 241.403132 27.793576 
L 241.395216 27.790624 
L 232.468795 25.221126 
L 232.460594 25.218544 
L 223.350308 23.102271 
L 223.342846 23.100385 
L 214.084379 21.445755 
L 214.076104 21.44412 
L 204.706795 20.257769 
L 204.69768 20.256543 
L 195.253772 19.54279 
L 195.245491 19.542135 
L 185.764011 19.304191 
L 185.755018 19.303968 
L 176.273512 19.542371 
L 176.265352 19.54261 
L 166.821069 20.256855 
L 166.812461 20.25755 
L 157.443188 21.444349 
L 157.434152 21.445608 
L 148.17628 23.100647 
L 148.168106 23.102243 
L 139.058086 25.218939 
L 139.049599 25.221083 
L 130.123502 27.791066 
L 130.115338 27.793612 
L 121.408583 30.806675 
L 121.400812 30.809598 
L 112.9472 34.254114 
L 112.939376 34.257556 
L 104.772883 38.119745 
L 104.765029 38.123783 
L 96.917489 42.388676 
L 96.910476 42.392835 
L 89.412476 47.043738 
L 89.405568 47.048401 
L 82.287371 52.066652 
L 82.280574 52.071883 
L 75.570171 57.437783 
L 75.563937 57.443264 
L 69.287496 63.135967 
L 69.281537 63.141918 
L 63.464131 69.138971 
L 63.458765 69.145116 
L 58.123078 75.423066 
L 58.117982 75.429793 
L 53.285291 81.963728 
L 53.281002 81.970334 
L 48.970401 88.734705 
L 48.966525 88.741719 
L 45.195435 95.70966 
L 45.192171 95.716792 
L 41.975356 102.86107 
L 41.972665 102.868352 
L 39.322881 110.160665 
L 39.320796 110.168008 
L 37.248878 117.579409 
L 37.24732 117.587089 
L 35.761359 125.08812 
L 35.760434 125.095815 
L 34.866507 132.657004 
L 34.866192 132.6648 
L 34.567512 140.256 
L 34.866192 147.8472 
L 34.866507 147.854996 
L 35.760434 155.416185 
L 35.761358 155.42388 
L 37.24732 162.924911 
L 37.248879 162.932591 
L 39.320795 170.343993 
L 39.32288 170.351335 
L 41.972668 177.643644 
L 41.975356 177.65093 
L 45.192129 184.79513 
L 45.195433 184.802341 
L 48.966525 191.77028 
L 48.970402 191.777294 
L 53.281002 198.541667 
L 53.285291 198.548273 
L 58.117982 205.082207 
L 58.123078 205.088934 
L 63.458765 211.366884 
L 63.464131 211.373029 
L 69.281537 217.370081 
L 69.287497 217.376032 
L 75.563937 223.068741 
L 75.570183 223.07421 
L 82.28091 228.440362 
L 82.287374 228.445346 
L 89.405568 233.4636 
L 89.412475 233.468263 
L 96.910476 238.119165 
L 96.917489 238.123324 
L 104.765029 242.388217 
L 104.772883 242.392256 
L 112.939376 246.254443 
L 112.947199 246.257886 
L 121.400812 249.702401 
L 121.408583 249.705325 
L 130.115338 252.718388 
L 130.123502 252.720934 
L 139.049599 255.290917 
L 139.058086 255.293061 
L 148.168105 257.409756 
L 148.176281 257.411352 
L 157.434154 259.066396 
L 157.442634 259.067563 
L 166.812375 260.254416 
L 166.821071 260.255141 
L 176.265353 260.969391 
L 176.273511 260.969631 
L 185.755017 261.208031 
L 185.76401 261.20781 
L 195.24549 260.969864 
L 195.253771 260.969212 
L 204.69768 260.255456 
L 204.706083 260.2543 
L 214.075966 259.06788 
L 214.08438 259.066242 
L 223.342843 257.411612 
L 223.351096 257.40956 
L 232.46078 255.293437 
L 232.468794 255.290875 
L 241.395213 252.721373 
L 241.403132 252.718425 
L 250.10976 249.705917 
L 250.117299 249.702502 
L 258.57144 246.258458 
L 258.577894 246.255077 
L 266.745043 242.393155 
L 266.752145 242.388855 
L 274.600552 238.124261 
L 274.60715 238.119782 
L 282.105108 233.46953 
L 282.112063 233.464007 
L 289.230877 228.44622 
L 289.236041 228.441653 
L 295.947081 223.075832 
L 295.953065 223.070089 
L 302.229608 217.378184 
L 302.235426 217.371194 
L 308.053462 211.374436 
L 308.057631 211.369271 
L 313.393603 205.091542 
L 313.39837 205.084749 
L 318.231311 198.551667 
L 318.234958 198.545728 
L 322.54525 191.782201 
L 322.549502 191.774465 
L 326.320609 184.807817 
L 326.324135 184.799191 
L 329.540264 177.655485 
L 329.542505 177.649223 
L 329.546352 177.641483 
L 332.194726 170.35693 
L 332.196851 170.347984 
L 334.267056 162.93788 
L 334.268528 162.930558 
L 334.269886 162.922683 
L 335.756835 155.424182 
L 335.758156 155.415253 
" style="fill:#84d44b;"/>
   </g>
   <g id="PathCollection_8">
    <path clip-path="url(#p49867ad21f)" d="M 306.72 140.256 
L 306.161618 147.351861 
L 304.49993 154.273011 
L 301.776062 160.848986 
L 298.056996 166.918003 
L 293.434358 172.330358 
L 288.022003 176.952996 
L 281.952986 180.672062 
L 275.376996 183.39593 
L 268.455816 185.057618 
L 261.36 185.616 
L 254.264184 185.057618 
L 247.343004 183.39593 
L 240.767014 180.672062 
L 234.697997 176.952996 
L 229.285642 172.330358 
L 224.663004 166.918003 
L 220.943938 160.848986 
L 218.22007 154.273011 
L 216.558382 147.351861 
L 216 140.256 
L 216.558382 133.160139 
L 218.22007 126.238989 
L 220.943938 119.663014 
L 224.663004 113.593997 
L 229.285642 108.181642 
L 234.697997 103.559004 
L 240.767014 99.839938 
L 247.343004 97.11607 
L 254.264184 95.454382 
L 261.36 94.896 
L 268.455816 95.454382 
L 275.376996 97.11607 
L 281.952986 99.839938 
L 288.022003 103.559004 
L 293.434358 108.181642 
L 298.056996 113.593997 
L 301.776062 119.663014 
L 304.49993 126.238989 
L 306.161618 133.160139 
M 335.766427 155.424535 
L 336.66138 147.855327 
L 336.96 140.256 
L 336.66138 132.656673 
L 335.766427 125.087465 
L 334.278922 117.578419 
L 332.204911 110.159338 
L 329.55241 102.859402 
L 326.332303 95.707642 
L 322.557293 88.732332 
L 318.242347 81.960991 
L 313.404703 75.42023 
L 308.063563 69.135754 
L 302.240095 63.132358 
L 295.957282 57.433781 
L 289.239919 52.06225 
L 282.114619 47.038932 
L 274.609354 42.383484 
L 266.75406 38.114352 
L 258.579432 34.248319 
L 250.117675 30.800506 
L 241.402356 27.784519 
L 232.467797 25.212154 
L 223.349076 23.093539 
L 214.082179 21.436992 
L 204.703697 20.249165 
L 195.250567 19.534442 
L 185.76 19.296 
L 176.269433 19.534442 
L 166.816303 20.249165 
L 157.437821 21.436992 
L 148.170924 23.093539 
L 139.052203 25.212154 
L 130.117644 27.784519 
L 121.402325 30.800506 
L 112.940568 34.248319 
L 104.76594 38.114352 
L 96.910646 42.383484 
L 89.405381 47.038932 
L 82.280081 52.06225 
L 75.562718 57.433781 
L 69.279905 63.132358 
L 63.456437 69.135754 
L 58.115297 75.42023 
L 53.277653 81.960991 
L 48.962707 88.732332 
L 45.187697 95.707642 
L 41.96759 102.859402 
L 39.315089 110.159338 
L 37.241078 117.578419 
L 35.753573 125.087465 
L 34.85862 132.656673 
L 34.56 140.256 
L 34.85862 147.855327 
L 35.753573 155.424535 
L 37.241078 162.933581 
L 39.315089 170.352662 
L 41.96759 177.652598 
L 45.187697 184.804358 
L 48.962707 191.779668 
L 53.277653 198.551009 
L 58.115297 205.09177 
L 63.456437 211.376246 
L 69.279905 217.379642 
L 75.562718 223.078219 
L 82.280081 228.44975 
L 89.405381 233.473068 
L 96.910646 238.128516 
L 104.76594 242.397648 
L 112.940568 246.263681 
L 121.402325 249.711494 
L 130.117644 252.727481 
L 139.052203 255.299846 
L 148.170924 257.418461 
L 157.437821 259.075008 
L 166.816303 260.262835 
L 176.269433 260.977558 
L 185.76 261.216 
L 195.250567 260.977558 
L 204.703697 260.262835 
L 214.082179 259.075008 
L 223.349076 257.418461 
L 232.467797 255.299846 
L 241.402356 252.727481 
L 250.117675 249.711494 
L 258.579432 246.263681 
L 266.75406 242.397648 
L 274.609354 238.128516 
L 282.114619 233.473068 
L 289.239919 228.44975 
L 295.957282 223.078219 
L 302.240095 217.379642 
L 308.063563 211.376246 
L 313.404703 205.09177 
L 318.242347 198.551009 
L 322.557293 191.779668 
L 326.332303 184.804358 
L 329.55241 177.652598 
L 332.204911 170.352662 
L 334.278922 162.933581 
M 306.729647 140.266033 
L 306.730532 140.253327 
L 306.174088 133.168368 
L 306.173429 133.159944 
L 306.170039 133.146645 
L 304.509738 126.236136 
L 304.505855 126.227834 
L 301.786212 119.659844 
L 301.780949 119.65213 
L 298.067594 113.590385 
L 298.058391 113.580699 
L 293.442493 108.176209 
L 293.434802 108.1706 
L 288.030543 103.552901 
L 288.020644 103.547655 
L 281.959589 99.832174 
L 281.947879 99.828857 
L 275.37971 97.107248 
L 275.371897 97.106516 
L 268.458403 95.445211 
L 268.448848 95.445799 
L 261.360866 94.886882 
L 261.353798 94.888268 
L 254.266299 95.444674 
L 254.257149 95.447678 
L 247.34482 97.105908 
L 247.334531 97.110759 
L 240.765957 99.830438 
L 240.758354 99.835773 
L 234.696592 103.549039 
L 234.688145 103.556657 
L 229.282237 108.172775 
L 229.275837 108.180588 
L 224.658043 113.585992 
L 224.652991 113.594461 
L 220.938249 119.655465 
L 220.934119 119.664971 
L 218.213251 126.232268 
L 218.210254 126.243477 
L 216.550587 133.155952 
L 216.549719 133.163675 
L 215.991876 140.250381 
L 215.991604 140.25819 
L 216.549427 147.345444 
L 216.550232 147.354831 
L 218.210109 154.267816 
L 218.213005 154.279184 
L 220.93397 160.846919 
L 220.938555 160.857311 
L 224.653378 166.918161 
L 224.658087 166.925937 
L 229.275799 172.331416 
L 229.282231 172.339242 
L 234.688144 176.955343 
L 234.69659 176.96297 
L 240.758403 180.676204 
L 240.765014 180.680873 
L 247.33352 183.400683 
L 247.34484 183.406205 
L 254.257137 185.064333 
L 254.266289 185.067282 
L 261.353831 185.623692 
L 261.360867 185.625123 
L 268.44881 185.066248 
L 268.460122 185.066608 
L 275.372746 183.405424 
L 275.381354 183.404334 
L 281.94891 180.682695 
L 281.959462 180.679677 
L 288.020531 176.965287 
L 288.027405 176.962275 
L 288.039078 176.953633 
L 293.440207 172.33654 
L 298.057146 166.932307 
L 298.067929 166.921729 
L 301.781261 160.860566 
L 301.785641 160.854781 
L 301.790273 160.845045 
L 304.508608 154.278047 
L 304.51085 154.271054 
L 306.17039 147.359493 
L 306.171933 147.352032 
M 335.758156 155.415253 
L 335.756835 155.424182 
L 334.269886 162.922683 
L 334.268528 162.930558 
L 334.267056 162.93788 
L 332.196851 170.347984 
L 332.194726 170.35693 
L 329.546352 177.641483 
L 329.542505 177.649223 
L 329.540264 177.655485 
L 326.324135 184.799191 
L 326.320609 184.807817 
L 322.549502 191.774465 
L 322.54525 191.782201 
L 318.234958 198.545728 
L 318.231311 198.551667 
L 313.39837 205.084749 
L 313.393603 205.091542 
L 308.057631 211.369271 
L 308.053462 211.374436 
L 302.235426 217.371194 
L 302.229608 217.378184 
L 295.953065 223.070089 
L 295.947081 223.075832 
L 289.236041 228.441653 
L 289.230877 228.44622 
L 282.112063 233.464007 
L 282.105108 233.46953 
L 274.60715 238.119782 
L 274.600552 238.124261 
L 266.752145 242.388855 
L 266.745043 242.393155 
L 258.577894 246.255077 
L 258.57144 246.258458 
L 250.117299 249.702502 
L 250.10976 249.705917 
L 241.403132 252.718425 
L 241.395213 252.721373 
L 232.468794 255.290875 
L 232.46078 255.293437 
L 223.351096 257.40956 
L 223.342843 257.411612 
L 214.08438 259.066242 
L 214.075966 259.06788 
L 204.706083 260.2543 
L 204.69768 260.255456 
L 195.253771 260.969212 
L 195.24549 260.969864 
L 185.76401 261.20781 
L 185.755017 261.208031 
L 176.273511 260.969631 
L 176.265353 260.969391 
L 166.821071 260.255141 
L 166.812375 260.254416 
L 157.442634 259.067563 
L 157.434154 259.066396 
L 148.176281 257.411352 
L 148.168105 257.409756 
L 139.058086 255.293061 
L 139.049599 255.290917 
L 130.123502 252.720934 
L 130.115338 252.718388 
L 121.408583 249.705325 
L 121.400812 249.702401 
L 112.947199 246.257886 
L 112.939376 246.254443 
L 104.772883 242.392256 
L 104.765029 242.388217 
L 96.917489 238.123324 
L 96.910476 238.119165 
L 89.412475 233.468263 
L 89.405568 233.4636 
L 82.287374 228.445346 
L 82.28091 228.440362 
L 75.570183 223.07421 
L 75.563937 223.068741 
L 69.287497 217.376032 
L 69.281537 217.370081 
L 63.464131 211.373029 
L 63.458765 211.366884 
L 58.123078 205.088934 
L 58.117982 205.082207 
L 53.285291 198.548273 
L 53.281002 198.541667 
L 48.970402 191.777294 
L 48.966525 191.77028 
L 45.195433 184.802341 
L 45.192129 184.79513 
L 41.975356 177.65093 
L 41.972668 177.643644 
L 39.32288 170.351335 
L 39.320795 170.343993 
L 37.248879 162.932591 
L 37.24732 162.924911 
L 35.761358 155.42388 
L 35.760434 155.416185 
L 34.866507 147.854996 
L 34.866192 147.8472 
L 34.567512 140.256 
L 34.866192 132.6648 
L 34.866507 132.657004 
L 35.760434 125.095815 
L 35.761359 125.08812 
L 37.24732 117.587089 
L 37.248878 117.579409 
L 39.320796 110.168008 
L 39.322881 110.160665 
L 41.972665 102.868352 
L 41.975356 102.86107 
L 45.192171 95.716792 
L 45.195435 95.70966 
L 48.966525 88.741719 
L 48.970401 88.734705 
L 53.281002 81.970334 
L 53.285291 81.963728 
L 58.117982 75.429793 
L 58.123078 75.423066 
L 63.458765 69.145116 
L 63.464131 69.138971 
L 69.281537 63.141918 
L 69.287496 63.135967 
L 75.563937 57.443264 
L 75.570171 57.437783 
L 82.280574 52.071883 
L 82.287371 52.066652 
L 89.405568 47.048401 
L 89.412476 47.043738 
L 96.910476 42.392835 
L 96.917489 42.388676 
L 104.765029 38.123783 
L 104.772883 38.119745 
L 112.939376 34.257556 
L 112.9472 34.254114 
L 121.400812 30.809598 
L 121.408583 30.806675 
L 130.115338 27.793612 
L 130.123502 27.791066 
L 139.049599 25.221083 
L 139.058086 25.218939 
L 148.168106 23.102243 
L 148.17628 23.100647 
L 157.434152 21.445608 
L 157.443188 21.444349 
L 166.812461 20.25755 
L 166.821069 20.256855 
L 176.265352 19.54261 
L 176.273512 19.542371 
L 185.755018 19.303968 
L 185.764011 19.304191 
L 195.245491 19.542135 
L 195.253772 19.54279 
L 204.69768 20.256543 
L 204.706795 20.257769 
L 214.076104 21.44412 
L 214.084379 21.445755 
L 223.342846 23.100385 
L 223.350308 23.102271 
L 232.460594 25.218544 
L 232.468795 25.221126 
L 241.395216 27.790624 
L 241.403132 27.793576 
L 250.109764 30.80608 
L 250.117299 30.809498 
L 258.571435 34.253545 
L 258.577894 34.256924 
L 266.745054 38.118839 
L 266.752148 38.123131 
L 274.600501 42.387764 
L 274.607145 42.392239 
L 282.10523 47.042425 
L 282.111134 47.046969 
L 289.229461 52.064702 
L 289.2371 52.071413 
L 295.947844 57.436595 
L 295.953121 57.441803 
L 302.229456 63.133837 
L 302.235413 63.140829 
L 308.053554 69.137547 
L 308.057622 69.14274 
L 313.393646 75.420457 
L 313.398426 75.427189 
L 318.230876 81.960307 
L 318.235778 81.967934 
L 322.546502 88.730891 
L 322.549733 88.737381 
L 326.320218 95.704067 
L 326.323972 95.712912 
L 329.540871 102.85666 
L 329.543902 102.864548 
L 332.193472 110.155901 
L 332.196138 110.164429 
L 334.268305 117.574572 
L 334.269829 117.581064 
L 335.755238 125.080927 
L 335.756786 125.090094 
L 336.65107 132.649927 
L 336.651644 132.659144 
L 336.950134 140.248932 
L 336.950553 140.256 
L 336.651647 147.845315 
L 336.651342 147.855161 
" style="fill:#d8e219;"/>
   </g>
   <g id="line2d_1"/>
   <g id="line2d_2">
    <path clip-path="url(#p49867ad21f)" d="M 336.96 140.256 
L 336.66138 132.656673 
" style="fill:none;stroke:#000000;stroke-linecap:square;stroke-width:1.5;"/>
   </g>
   <g id="line2d_3">
    <path clip-path="url(#p49867ad21f)" d="M 336.66138 132.656673 
L 335.766427 125.087465 
" style="fill:none;stroke:#000000;stroke-linecap:square;stroke-width:1.5;"/>
   </g>
   <g id="line2d_4">
    <path clip-path="url(#p49867ad21f)" d="M 335.766427 125.087465 
L 334.278922 117.578419 
" style="fill:none;stroke:#000000;stroke-linecap:square;stroke-width:1.5;"/>
   </g>
   <g id="line2d_5">
    <path clip-path="url(#p49867ad21f)" d="M 334.278922 117.578419 
L 332.204911 110.159338 
" style="fill:none;stroke:#000000;stroke-linecap:square;stroke-width:1.5;"/>
   </g>
   <g id="line2d_6">
    <path clip-path="url(#p49867ad21f)" d="M 332.204911 110.159338 
L 329.55241 102.859402 
" style="fill:none;stroke:#000000;stroke-linecap:square;stroke-width:1.5;"/>
   </g>
   <g id="line2d_7">
    <path clip-path="url(#p49867ad21f)" d="M 329.55241 102.859402 
L 326.332303 95.707642 
" style="fill:none;stroke:#000000;stroke-linecap:square;stroke-width:1.5;"/>
   </g>
   <g id="line2d_8">
    <path clip-path="url(#p49867ad21f)" d="M 326.332303 95.707642 
L 322.557293 88.732332 
" style="fill:none;stroke:#000000;stroke-linecap:square;stroke-width:1.5;"/>
   </g>
   <g id="line2d_9">
    <path clip-path="url(#p49867ad21f)" d="M 322.557293 88.732332 
L 318.242347 81.960991 
" style="fill:none;stroke:#000000;stroke-linecap:square;stroke-width:1.5;"/>
   </g>
   <g id="line2d_10">
    <path clip-path="url(#p49867ad21f)" d="M 318.242347 81.960991 
L 313.404703 75.42023 
" style="fill:none;stroke:#000000;stroke-linecap:square;stroke-width:1.5;"/>
   </g>
   <g id="line2d_11">
    <path clip-path="url(#p49867ad21f)" d="M 313.404703 75.42023 
L 308.063563 69.135754 
" style="fill:none;stroke:#000000;stroke-linecap:square;stroke-width:1.5;"/>
   </g>
   <g id="line2d_12">
    <path clip-path="url(#p49867ad21f)" d="M 308.063563 69.135754 
L 302.240095 63.132358 
" style="fill:none;stroke:#000000;stroke-linecap:square;stroke-width:1.5;"/>
   </g>
   <g id="line2d_13">
    <path clip-path="url(#p49867ad21f)" d="M 302.240095 63.132358 
L 295.957282 57.433781 
" style="fill:none;stroke:#000000;stroke-linecap:square;stroke-width:1.5;"/>
   </g>
   <g id="line2d_14">
    <path clip-path="url(#p49867ad21f)" d="M 295.957282 57.433781 
L 289.239919 52.06225 
" style="fill:none;stroke:#000000;stroke-linecap:square;stroke-width:1.5;"/>
   </g>
   <g id="line2d_15">
    <path clip-path="url(#p49867ad21f)" d="M 289.239919 52.06225 
L 282.114619 47.038932 
" style="fill:none;stroke:#000000;stroke-linecap:square;stroke-width:1.5;"/>
   </g>
   <g id="line2d_16">
    <path clip-path="url(#p49867ad21f)" d="M 282.114619 47.038932 
L 274.609354 42.383484 
" style="fill:none;stroke:#000000;stroke-linecap:square;stroke-width:1.5;"/>
   </g>
   <g id="line2d_17">
    <path clip-path="url(#p49867ad21f)" d="M 274.609354 42.383484 
L 266.75406 38.114352 
" style="fill:none;stroke:#000000;stroke-linecap:square;stroke-width:1.5;"/>
   </g>
   <g id="line2d_18">
    <path clip-path="url(#p49867ad21f)" d="M 266.75406 38.114352 
L 258.579432 34.248319 
" style="fill:none;stroke:#000000;stroke-linecap:square;stroke-width:1.5;"/>
   </g>
   <g id="line2d_19">
    <path clip-path="url(#p49867ad21f)" d="M 258.579432 34.248319 
L 250.117675 30.800506 
" style="fill:none;stroke:#000000;stroke-linecap:square;stroke-width:1.5;"/>
   </g>
   <g id="line2d_20">
    <path clip-path="url(#p49867ad21f)" d="M 250.117675 30.800506 
L 241.402356 27.784519 
" style="fill:none;stroke:#000000;stroke-linecap:square;stroke-width:1.5;"/>
   </g>
   <g id="line2d_21">
    <path clip-path="url(#p49867ad21f)" d="M 241.402356 27.784519 
L 232.467797 25.212154 
" style="fill:none;stroke:#000000;stroke-linecap:square;stroke-width:1.5;"/>
   </g>
   <g id="line2d_22">
    <path clip-path="url(#p49867ad21f)" d="M 232.467797 25.212154 
L 223.349076 23.093539 
" style="fill:none;stroke:#000000;stroke-linecap:square;stroke-width:1.5;"/>
   </g>
   <g id="line2d_23">
    <path clip-path="url(#p49867ad21f)" d="M 223.349076 23.093539 
L 214.082179 21.436992 
" style="fill:none;stroke:#000000;stroke-linecap:square;stroke-width:1.5;"/>
   </g>
   <g id="line2d_24">
    <path clip-path="url(#p49867ad21f)" d="M 214.082179 21.436992 
L 204.703697 20.249165 
" style="fill:none;stroke:#000000;stroke-linecap:square;stroke-width:1.5;"/>
   </g>
   <g id="line2d_25">
    <path clip-path="url(#p49867ad21f)" d="M 204.703697 20.249165 
L 195.250567 19.534442 
" style="fill:none;stroke:#000000;stroke-linecap:square;stroke-width:1.5;"/>
   </g>
   <g id="line2d_26">
    <path clip-path="url(#p49867ad21f)" d="M 195.250567 19.534442 
L 185.76 19.296 
" style="fill:none;stroke:#000000;stroke-linecap:square;stroke-width:1.5;"/>
   </g>
   <g id="line2d_27">
    <path clip-path="url(#p49867ad21f)" d="M 185.76 19.296 
L 176.269433 19.534442 
" style="fill:none;stroke:#000000;stroke-linecap:square;stroke-width:1.5;"/>
   </g>
   <g id="line2d_28">
    <path clip-path="url(#p49867ad21f)" d="M 176.269433 19.534442 
L 166.816303 20.249165 
" style="fill:none;stroke:#000000;stroke-linecap:square;stroke-width:1.5;"/>
   </g>
   <g id="line2d_29">
    <path clip-path="url(#p49867ad21f)" d="M 166.816303 20.249165 
L 157.437821 21.436992 
" style="fill:none;stroke:#000000;stroke-linecap:square;stroke-width:1.5;"/>
   </g>
   <g id="line2d_30">
    <path clip-path="url(#p49867ad21f)" d="M 157.437821 21.436992 
L 148.170924 23.093539 
" style="fill:none;stroke:#000000;stroke-linecap:square;stroke-width:1.5;"/>
   </g>
   <g id="line2d_31">
    <path clip-path="url(#p49867ad21f)" d="M 148.170924 23.093539 
L 139.052203 25.212154 
" style="fill:none;stroke:#000000;stroke-linecap:square;stroke-width:1.5;"/>
   </g>
   <g id="line2d_32">
    <path clip-path="url(#p49867ad21f)" d="M 139.052203 25.212154 
L 130.117644 27.784519 
" style="fill:none;stroke:#000000;stroke-linecap:square;stroke-width:1.5;"/>
   </g>
   <g id="line2d_33">
    <path clip-path="url(#p49867ad21f)" d="M 130.117644 27.784519 
L 121.402325 30.800506 
" style="fill:none;stroke:#000000;stroke-linecap:square;stroke-width:1.5;"/>
   </g>
   <g id="line2d_34">
    <path clip-path="url(#p49867ad21f)" d="M 121.402325 30.800506 
L 112.940568 34.248319 
" style="fill:none;stroke:#000000;stroke-linecap:square;stroke-width:1.5;"/>
   </g>
   <g id="line2d_35">
    <path clip-path="url(#p49867ad21f)" d="M 112.940568 34.248319 
L 104.76594 38.114352 
" style="fill:none;stroke:#000000;stroke-linecap:square;stroke-width:1.5;"/>
   </g>
   <g id="line2d_36">
    <path clip-path="url(#p49867ad21f)" d="M 104.76594 38.114352 
L 96.910646 42.383484 
" style="fill:none;stroke:#000000;stroke-linecap:square;stroke-width:1.5;"/>
   </g>
   <g id="line2d_37">
    <path clip-path="url(#p49867ad21f)" d="M 96.910646 42.383484 
L 89.405381 47.038932 
" style="fill:none;stroke:#000000;stroke-linecap:square;stroke-width:1.5;"/>
   </g>
   <g id="line2d_38">
    <path clip-path="url(#p49867ad21f)" d="M 89.405381 47.038932 
L 82.280081 52.06225 
" style="fill:none;stroke:#000000;stroke-linecap:square;stroke-width:1.5;"/>
   </g>
   <g id="line2d_39">
    <path clip-path="url(#p49867ad21f)" d="M 82.280081 52.06225 
L 75.562718 57.433781 
" style="fill:none;stroke:#000000;stroke-linecap:square;stroke-width:1.5;"/>
   </g>
   <g id="line2d_40">
    <path clip-path="url(#p49867ad21f)" d="M 75.562718 57.433781 
L 69.279905 63.132358 
" style="fill:none;stroke:#000000;stroke-linecap:square;stroke-width:1.5;"/>
   </g>
   <g id="line2d_41">
    <path clip-path="url(#p49867ad21f)" d="M 69.279905 63.132358 
L 63.456437 69.135754 
" style="fill:none;stroke:#000000;stroke-linecap:square;stroke-width:1.5;"/>
   </g>
   <g id="line2d_42">
    <path clip-path="url(#p49867ad21f)" d="M 63.456437 69.135754 
L 58.115297 75.42023 
" style="fill:none;stroke:#000000;stroke-linecap:square;stroke-width:1.5;"/>
   </g>
   <g id="line2d_43">
    <path clip-path="url(#p49867ad21f)" d="M 58.115297 75.42023 
L 53.277653 81.960991 
" style="fill:none;stroke:#000000;stroke-linecap:square;stroke-width:1.5;"/>
   </g>
   <g id="line2d_44">
    <path clip-path="url(#p49867ad21f)" d="M 53.277653 81.960991 
L 48.962707 88.732332 
" style="fill:none;stroke:#000000;stroke-linecap:square;stroke-width:1.5;"/>
   </g>
   <g id="line2d_45">
    <path clip-path="url(#p49867ad21f)" d="M 48.962707 88.732332 
L 45.187697 95.707642 
" style="fill:none;stroke:#000000;stroke-linecap:square;stroke-width:1.5;"/>
   </g>
   <g id="line2d_46">
    <path clip-path="url(#p49867ad21f)" d="M 45.187697 95.707642 
L 41.96759 102.859402 
" style="fill:none;stroke:#000000;stroke-linecap:square;stroke-width:1.5;"/>
   </g>
   <g id="line2d_47">
    <path clip-path="url(#p49867ad21f)" d="M 41.96759 102.859402 
L 39.315089 110.159338 
" style="fill:none;stroke:#000000;stroke-linecap:square;stroke-width:1.5;"/>
   </g>
   <g id="line2d_48">
    <path clip-path="url(#p49867ad21f)" d="M 39.315089 110.159338 
L 37.241078 117.578419 
" style="fill:none;stroke:#000000;stroke-linecap:square;stroke-width:1.5;"/>
   </g>
   <g id="line2d_49">
    <path clip-path="url(#p49867ad21f)" d="M 37.241078 117.578419 
L 35.753573 125.087465 
" style="fill:none;stroke:#000000;stroke-linecap:square;stroke-width:1.5;"/>
   </g>
   <g id="line2d_50">
    <path clip-path="url(#p49867ad21f)" d="M 35.753573 125.087465 
L 34.85862 132.656673 
" style="fill:none;stroke:#000000;stroke-linecap:square;stroke-width:1.5;"/>
   </g>
   <g id="line2d_51">
    <path clip-path="url(#p49867ad21f)" d="M 34.85862 132.656673 
L 34.56 140.256 
" style="fill:none;stroke:#000000;stroke-linecap:square;stroke-width:1.5;"/>
   </g>
   <g id="line2d_52">
    <path clip-path="url(#p49867ad21f)" d="M 34.56 140.256 
L 34.85862 147.855327 
" style="fill:none;stroke:#000000;stroke-linecap:square;stroke-width:1.5;"/>
   </g>
   <g id="line2d_53">
    <path clip-path="url(#p49867ad21f)" d="M 34.85862 147.855327 
L 35.753573 155.424535 
" style="fill:none;stroke:#000000;stroke-linecap:square;stroke-width:1.5;"/>
   </g>
   <g id="line2d_54">
    <path clip-path="url(#p49867ad21f)" d="M 35.753573 155.424535 
L 37.241078 162.933581 
" style="fill:none;stroke:#000000;stroke-linecap:square;stroke-width:1.5;"/>
   </g>
   <g id="line2d_55">
    <path clip-path="url(#p49867ad21f)" d="M 37.241078 162.933581 
L 39.315089 170.352662 
" style="fill:none;stroke:#000000;stroke-linecap:square;stroke-width:1.5;"/>
   </g>
   <g id="line2d_56">
    <path clip-path="url(#p49867ad21f)" d="M 39.315089 170.352662 
L 41.96759 177.652598 
" style="fill:none;stroke:#000000;stroke-linecap:square;stroke-width:1.5;"/>
   </g>
   <g id="line2d_57">
    <path clip-path="url(#p49867ad21f)" d="M 41.96759 177.652598 
L 45.187697 184.804358 
" style="fill:none;stroke:#000000;stroke-linecap:square;stroke-width:1.5;"/>
   </g>
   <g id="line2d_58">
    <path clip-path="url(#p49867ad21f)" d="M 45.187697 184.804358 
L 48.962707 191.779668 
" style="fill:none;stroke:#000000;stroke-linecap:square;stroke-width:1.5;"/>
   </g>
   <g id="line2d_59">
    <path clip-path="url(#p49867ad21f)" d="M 48.962707 191.779668 
L 53.277653 198.551009 
" style="fill:none;stroke:#000000;stroke-linecap:square;stroke-width:1.5;"/>
   </g>
   <g id="line2d_60">
    <path clip-path="url(#p49867ad21f)" d="M 53.277653 198.551009 
L 58.115297 205.09177 
" style="fill:none;stroke:#000000;stroke-linecap:square;stroke-width:1.5;"/>
   </g>
   <g id="line2d_61">
    <path clip-path="url(#p49867ad21f)" d="M 58.115297 205.09177 
L 63.456437 211.376246 
" style="fill:none;stroke:#000000;stroke-linecap:square;stroke-width:1.5;"/>
   </g>
   <g id="line2d_62">
    <path clip-path="url(#p49867ad21f)" d="M 63.456437 211.376246 
L 69.279905 217.379642 
" style="fill:none;stroke:#000000;stroke-linecap:square;stroke-width:1.5;"/>
   </g>
   <g id="line2d_63">
    <path clip-path="url(#p49867ad21f)" d="M 69.279905 217.379642 
L 75.562718 223.078219 
" style="fill:none;stroke:#000000;stroke-linecap:square;stroke-width:1.5;"/>
   </g>
   <g id="line2d_64">
    <path clip-path="url(#p49867ad21f)" d="M 75.562718 223.078219 
L 82.280081 228.44975 
" style="fill:none;stroke:#000000;stroke-linecap:square;stroke-width:1.5;"/>
   </g>
   <g id="line2d_65">
    <path clip-path="url(#p49867ad21f)" d="M 82.280081 228.44975 
L 89.405381 233.473068 
" style="fill:none;stroke:#000000;stroke-linecap:square;stroke-width:1.5;"/>
   </g>
   <g id="line2d_66">
    <path clip-path="url(#p49867ad21f)" d="M 89.405381 233.473068 
L 96.910646 238.128516 
" style="fill:none;stroke:#000000;stroke-linecap:square;stroke-width:1.5;"/>
   </g>
   <g id="line2d_67">
    <path clip-path="url(#p49867ad21f)" d="M 96.910646 238.128516 
L 104.76594 242.397648 
" style="fill:none;stroke:#000000;stroke-linecap:square;stroke-width:1.5;"/>
   </g>
   <g id="line2d_68">
    <path clip-path="url(#p49867ad21f)" d="M 104.76594 242.397648 
L 112.940568 246.263681 
" style="fill:none;stroke:#000000;stroke-linecap:square;stroke-width:1.5;"/>
   </g>
   <g id="line2d_69">
    <path clip-path="url(#p49867ad21f)" d="M 112.940568 246.263681 
L 121.402325 249.711494 
" style="fill:none;stroke:#000000;stroke-linecap:square;stroke-width:1.5;"/>
   </g>
   <g id="line2d_70">
    <path clip-path="url(#p49867ad21f)" d="M 121.402325 249.711494 
L 130.117644 252.727481 
" style="fill:none;stroke:#000000;stroke-linecap:square;stroke-width:1.5;"/>
   </g>
   <g id="line2d_71">
    <path clip-path="url(#p49867ad21f)" d="M 130.117644 252.727481 
L 139.052203 255.299846 
" style="fill:none;stroke:#000000;stroke-linecap:square;stroke-width:1.5;"/>
   </g>
   <g id="line2d_72">
    <path clip-path="url(#p49867ad21f)" d="M 139.052203 255.299846 
L 148.170924 257.418461 
" style="fill:none;stroke:#000000;stroke-linecap:square;stroke-width:1.5;"/>
   </g>
   <g id="line2d_73">
    <path clip-path="url(#p49867ad21f)" d="M 148.170924 257.418461 
L 157.437821 259.075008 
" style="fill:none;stroke:#000000;stroke-linecap:square;stroke-width:1.5;"/>
   </g>
   <g id="line2d_74">
    <path clip-path="url(#p49867ad21f)" d="M 157.437821 259.075008 
L 166.816303 260.262835 
" style="fill:none;stroke:#000000;stroke-linecap:square;stroke-width:1.5;"/>
   </g>
   <g id="line2d_75">
    <path clip-path="url(#p49867ad21f)" d="M 166.816303 260.262835 
L 176.269433 260.977558 
" style="fill:none;stroke:#000000;stroke-linecap:square;stroke-width:1.5;"/>
   </g>
   <g id="line2d_76">
    <path clip-path="url(#p49867ad21f)" d="M 176.269433 260.977558 
L 185.76 261.216 
" style="fill:none;stroke:#000000;stroke-linecap:square;stroke-width:1.5;"/>
   </g>
   <g id="line2d_77">
    <path clip-path="url(#p49867ad21f)" d="M 185.76 261.216 
L 195.250567 260.977558 
" style="fill:none;stroke:#000000;stroke-linecap:square;stroke-width:1.5;"/>
   </g>
   <g id="line2d_78">
    <path clip-path="url(#p49867ad21f)" d="M 195.250567 260.977558 
L 204.703697 260.262835 
" style="fill:none;stroke:#000000;stroke-linecap:square;stroke-width:1.5;"/>
   </g>
   <g id="line2d_79">
    <path clip-path="url(#p49867ad21f)" d="M 204.703697 260.262835 
L 214.082179 259.075008 
" style="fill:none;stroke:#000000;stroke-linecap:square;stroke-width:1.5;"/>
   </g>
   <g id="line2d_80">
    <path clip-path="url(#p49867ad21f)" d="M 214.082179 259.075008 
L 223.349076 257.418461 
" style="fill:none;stroke:#000000;stroke-linecap:square;stroke-width:1.5;"/>
   </g>
   <g id="line2d_81">
    <path clip-path="url(#p49867ad21f)" d="M 223.349076 257.418461 
L 232.467797 255.299846 
" style="fill:none;stroke:#000000;stroke-linecap:square;stroke-width:1.5;"/>
   </g>
   <g id="line2d_82">
    <path clip-path="url(#p49867ad21f)" d="M 232.467797 255.299846 
L 241.402356 252.727481 
" style="fill:none;stroke:#000000;stroke-linecap:square;stroke-width:1.5;"/>
   </g>
   <g id="line2d_83">
    <path clip-path="url(#p49867ad21f)" d="M 241.402356 252.727481 
L 250.117675 249.711494 
" style="fill:none;stroke:#000000;stroke-linecap:square;stroke-width:1.5;"/>
   </g>
   <g id="line2d_84">
    <path clip-path="url(#p49867ad21f)" d="M 250.117675 249.711494 
L 258.579432 246.263681 
" style="fill:none;stroke:#000000;stroke-linecap:square;stroke-width:1.5;"/>
   </g>
   <g id="line2d_85">
    <path clip-path="url(#p49867ad21f)" d="M 258.579432 246.263681 
L 266.75406 242.397648 
" style="fill:none;stroke:#000000;stroke-linecap:square;stroke-width:1.5;"/>
   </g>
   <g id="line2d_86">
    <path clip-path="url(#p49867ad21f)" d="M 266.75406 242.397648 
L 274.609354 238.128516 
" style="fill:none;stroke:#000000;stroke-linecap:square;stroke-width:1.5;"/>
   </g>
   <g id="line2d_87">
    <path clip-path="url(#p49867ad21f)" d="M 274.609354 238.128516 
L 282.114619 233.473068 
" style="fill:none;stroke:#000000;stroke-linecap:square;stroke-width:1.5;"/>
   </g>
   <g id="line2d_88">
    <path clip-path="url(#p49867ad21f)" d="M 282.114619 233.473068 
L 289.239919 228.44975 
" style="fill:none;stroke:#000000;stroke-linecap:square;stroke-width:1.5;"/>
   </g>
   <g id="line2d_89">
    <path clip-path="url(#p49867ad21f)" d="M 289.239919 228.44975 
L 295.957282 223.078219 
" style="fill:none;stroke:#000000;stroke-linecap:square;stroke-width:1.5;"/>
   </g>
   <g id="line2d_90">
    <path clip-path="url(#p49867ad21f)" d="M 295.957282 223.078219 
L 302.240095 217.379642 
" style="fill:none;stroke:#000000;stroke-linecap:square;stroke-width:1.5;"/>
   </g>
   <g id="line2d_91">
    <path clip-path="url(#p49867ad21f)" d="M 302.240095 217.379642 
L 308.063563 211.376246 
" style="fill:none;stroke:#000000;stroke-linecap:square;stroke-width:1.5;"/>
   </g>
   <g id="line2d_92">
    <path clip-path="url(#p49867ad21f)" d="M 308.063563 211.376246 
L 313.404703 205.09177 
" style="fill:none;stroke:#000000;stroke-linecap:square;stroke-width:1.5;"/>
   </g>
   <g id="line2d_93">
    <path clip-path="url(#p49867ad21f)" d="M 313.404703 205.09177 
L 318.242347 198.551009 
" style="fill:none;stroke:#000000;stroke-linecap:square;stroke-width:1.5;"/>
   </g>
   <g id="line2d_94">
    <path clip-path="url(#p49867ad21f)" d="M 318.242347 198.551009 
L 322.557293 191.779668 
" style="fill:none;stroke:#000000;stroke-linecap:square;stroke-width:1.5;"/>
   </g>
   <g id="line2d_95">
    <path clip-path="url(#p49867ad21f)" d="M 322.557293 191.779668 
L 326.332303 184.804358 
" style="fill:none;stroke:#000000;stroke-linecap:square;stroke-width:1.5;"/>
   </g>
   <g id="line2d_96">
    <path clip-path="url(#p49867ad21f)" d="M 326.332303 184.804358 
L 329.55241 177.652598 
" style="fill:none;stroke:#000000;stroke-linecap:square;stroke-width:1.5;"/>
   </g>
   <g id="line2d_97">
    <path clip-path="url(#p49867ad21f)" d="M 329.55241 177.652598 
L 332.204911 170.352662 
" style="fill:none;stroke:#000000;stroke-linecap:square;stroke-width:1.5;"/>
   </g>
   <g id="line2d_98">
    <path clip-path="url(#p49867ad21f)" d="M 332.204911 170.352662 
L 334.278922 162.933581 
" style="fill:none;stroke:#000000;stroke-linecap:square;stroke-width:1.5;"/>
   </g>
   <g id="line2d_99">
    <path clip-path="url(#p49867ad21f)" d="M 334.278922 162.933581 
L 335.766427 155.424535 
" style="fill:none;stroke:#000000;stroke-linecap:square;stroke-width:1.5;"/>
   </g>
   <g id="line2d_100">
    <path clip-path="url(#p49867ad21f)" d="M 335.766427 155.424535 
L 336.66138 147.855327 
" style="fill:none;stroke:#000000;stroke-linecap:square;stroke-width:1.5;"/>
   </g>
   <g id="line2d_101">
    <path clip-path="url(#p49867ad21f)" d="M 336.66138 147.855327 
L 336.96 140.256 
" style="fill:none;stroke:#000000;stroke-linecap:square;stroke-width:1.5;"/>
   </g>
   <g id="line2d_102"/>
   <g id="line2d_103">
    <path clip-path="url(#p49867ad21f)" d="M 306.72 140.256 
L 306.161618 147.351861 
" style="fill:none;stroke:#000000;stroke-linecap:square;stroke-width:1.5;"/>
   </g>
   <g id="line2d_104">
    <path clip-path="url(#p49867ad21f)" d="M 306.161618 147.351861 
L 304.49993 154.273011 
" style="fill:none;stroke:#000000;stroke-linecap:square;stroke-width:1.5;"/>
   </g>
   <g id="line2d_105">
    <path clip-path="url(#p49867ad21f)" d="M 304.49993 154.273011 
L 301.776062 160.848986 
" style="fill:none;stroke:#000000;stroke-linecap:square;stroke-width:1.5;"/>
   </g>
   <g id="line2d_106">
    <path clip-path="url(#p49867ad21f)" d="M 301.776062 160.848986 
L 298.056996 166.918003 
" style="fill:none;stroke:#000000;stroke-linecap:square;stroke-width:1.5;"/>
   </g>
   <g id="line2d_107">
    <path clip-path="url(#p49867ad21f)" d="M 298.056996 166.918003 
L 293.434358 172.330358 
" style="fill:none;stroke:#000000;stroke-linecap:square;stroke-width:1.5;"/>
   </g>
   <g id="line2d_108">
    <path clip-path="url(#p49867ad21f)" d="M 293.434358 172.330358 
L 288.022003 176.952996 
" style="fill:none;stroke:#000000;stroke-linecap:square;stroke-width:1.5;"/>
   </g>
   <g id="line2d_109">
    <path clip-path="url(#p49867ad21f)" d="M 288.022003 176.952996 
L 281.952986 180.672062 
" style="fill:none;stroke:#000000;stroke-linecap:square;stroke-width:1.5;"/>
   </g>
   <g id="line2d_110">
    <path clip-path="url(#p49867ad21f)" d="M 281.952986 180.672062 
L 275.376996 183.39593 
" style="fill:none;stroke:#000000;stroke-linecap:square;stroke-width:1.5;"/>
   </g>
   <g id="line2d_111">
    <path clip-path="url(#p49867ad21f)" d="M 275.376996 183.39593 
L 268.455816 185.057618 
" style="fill:none;stroke:#000000;stroke-linecap:square;stroke-width:1.5;"/>
   </g>
   <g id="line2d_112">
    <path clip-path="url(#p49867ad21f)" d="M 268.455816 185.057618 
L 261.36 185.616 
" style="fill:none;stroke:#000000;stroke-linecap:square;stroke-width:1.5;"/>
   </g>
   <g id="line2d_113">
    <path clip-path="url(#p49867ad21f)" d="M 261.36 185.616 
L 254.264184 185.057618 
" style="fill:none;stroke:#000000;stroke-linecap:square;stroke-width:1.5;"/>
   </g>
   <g id="line2d_114">
    <path clip-path="url(#p49867ad21f)" d="M 254.264184 185.057618 
L 247.343004 183.39593 
" style="fill:none;stroke:#000000;stroke-linecap:square;stroke-width:1.5;"/>
   </g>
   <g id="line2d_115">
    <path clip-path="url(#p49867ad21f)" d="M 247.343004 183.39593 
L 240.767014 180.672062 
" style="fill:none;stroke:#000000;stroke-linecap:square;stroke-width:1.5;"/>
   </g>
   <g id="line2d_116">
    <path clip-path="url(#p49867ad21f)" d="M 240.767014 180.672062 
L 234.697997 176.952996 
" style="fill:none;stroke:#000000;stroke-linecap:square;stroke-width:1.5;"/>
   </g>
   <g id="line2d_117">
    <path clip-path="url(#p49867ad21f)" d="M 234.697997 176.952996 
L 229.285642 172.330358 
" style="fill:none;stroke:#000000;stroke-linecap:square;stroke-width:1.5;"/>
   </g>
   <g id="line2d_118">
    <path clip-path="url(#p49867ad21f)" d="M 229.285642 172.330358 
L 224.663004 166.918003 
" style="fill:none;stroke:#000000;stroke-linecap:square;stroke-width:1.5;"/>
   </g>
   <g id="line2d_119">
    <path clip-path="url(#p49867ad21f)" d="M 224.663004 166.918003 
L 220.943938 160.848986 
" style="fill:none;stroke:#000000;stroke-linecap:square;stroke-width:1.5;"/>
   </g>
   <g id="line2d_120">
    <path clip-path="url(#p49867ad21f)" d="M 220.943938 160.848986 
L 218.22007 154.273011 
" style="fill:none;stroke:#000000;stroke-linecap:square;stroke-width:1.5;"/>
   </g>
   <g id="line2d_121">
    <path clip-path="url(#p49867ad21f)" d="M 218.22007 154.273011 
L 216.558382 147.351861 
" style="fill:none;stroke:#000000;stroke-linecap:square;stroke-width:1.5;"/>
   </g>
   <g id="line2d_122">
    <path clip-path="url(#p49867ad21f)" d="M 216.558382 147.351861 
L 216 140.256 
" style="fill:none;stroke:#000000;stroke-linecap:square;stroke-width:1.5;"/>
   </g>
   <g id="line2d_123">
    <path clip-path="url(#p49867ad21f)" d="M 216 140.256 
L 216.558382 133.160139 
" style="fill:none;stroke:#000000;stroke-linecap:square;stroke-width:1.5;"/>
   </g>
   <g id="line2d_124">
    <path clip-path="url(#p49867ad21f)" d="M 216.558382 133.160139 
L 218.22007 126.238989 
" style="fill:none;stroke:#000000;stroke-linecap:square;stroke-width:1.5;"/>
   </g>
   <g id="line2d_125">
    <path clip-path="url(#p49867ad21f)" d="M 218.22007 126.238989 
L 220.943938 119.663014 
" style="fill:none;stroke:#000000;stroke-linecap:square;stroke-width:1.5;"/>
   </g>
   <g id="line2d_126">
    <path clip-path="url(#p49867ad21f)" d="M 220.943938 119.663014 
L 224.663004 113.593997 
" style="fill:none;stroke:#000000;stroke-linecap:square;stroke-width:1.5;"/>
   </g>
   <g id="line2d_127">
    <path clip-path="url(#p49867ad21f)" d="M 224.663004 113.593997 
L 229.285642 108.181642 
" style="fill:none;stroke:#000000;stroke-linecap:square;stroke-width:1.5;"/>
   </g>
   <g id="line2d_128">
    <path clip-path="url(#p49867ad21f)" d="M 229.285642 108.181642 
L 234.697997 103.559004 
" style="fill:none;stroke:#000000;stroke-linecap:square;stroke-width:1.5;"/>
   </g>
   <g id="line2d_129">
    <path clip-path="url(#p49867ad21f)" d="M 234.697997 103.559004 
L 240.767014 99.839938 
" style="fill:none;stroke:#000000;stroke-linecap:square;stroke-width:1.5;"/>
   </g>
   <g id="line2d_130">
    <path clip-path="url(#p49867ad21f)" d="M 240.767014 99.839938 
L 247.343004 97.11607 
" style="fill:none;stroke:#000000;stroke-linecap:square;stroke-width:1.5;"/>
   </g>
   <g id="line2d_131">
    <path clip-path="url(#p49867ad21f)" d="M 247.343004 97.11607 
L 254.264184 95.454382 
" style="fill:none;stroke:#000000;stroke-linecap:square;stroke-width:1.5;"/>
   </g>
   <g id="line2d_132">
    <path clip-path="url(#p49867ad21f)" d="M 254.264184 95.454382 
L 261.36 94.896 
" style="fill:none;stroke:#000000;stroke-linecap:square;stroke-width:1.5;"/>
   </g>
   <g id="line2d_133">
    <path clip-path="url(#p49867ad21f)" d="M 261.36 94.896 
L 268.455816 95.454382 
" style="fill:none;stroke:#000000;stroke-linecap:square;stroke-width:1.5;"/>
   </g>
   <g id="line2d_134">
    <path clip-path="url(#p49867ad21f)" d="M 268.455816 95.454382 
L 275.376996 97.11607 
" style="fill:none;stroke:#000000;stroke-linecap:square;stroke-width:1.5;"/>
   </g>
   <g id="line2d_135">
    <path clip-path="url(#p49867ad21f)" d="M 275.376996 97.11607 
L 281.952986 99.839938 
" style="fill:none;stroke:#000000;stroke-linecap:square;stroke-width:1.5;"/>
   </g>
   <g id="line2d_136">
    <path clip-path="url(#p49867ad21f)" d="M 281.952986 99.839938 
L 288.022003 103.559004 
" style="fill:none;stroke:#000000;stroke-linecap:square;stroke-width:1.5;"/>
   </g>
   <g id="line2d_137">
    <path clip-path="url(#p49867ad21f)" d="M 288.022003 103.559004 
L 293.434358 108.181642 
" style="fill:none;stroke:#000000;stroke-linecap:square;stroke-width:1.5;"/>
   </g>
   <g id="line2d_138">
    <path clip-path="url(#p49867ad21f)" d="M 293.434358 108.181642 
L 298.056996 113.593997 
" style="fill:none;stroke:#000000;stroke-linecap:square;stroke-width:1.5;"/>
   </g>
   <g id="line2d_139">
    <path clip-path="url(#p49867ad21f)" d="M 298.056996 113.593997 
L 301.776062 119.663014 
" style="fill:none;stroke:#000000;stroke-linecap:square;stroke-width:1.5;"/>
   </g>
   <g id="line2d_140">
    <path clip-path="url(#p49867ad21f)" d="M 301.776062 119.663014 
L 304.49993 126.238989 
" style="fill:none;stroke:#000000;stroke-linecap:square;stroke-width:1.5;"/>
   </g>
   <g id="line2d_141">
    <path clip-path="url(#p49867ad21f)" d="M 304.49993 126.238989 
L 306.161618 133.160139 
" style="fill:none;stroke:#000000;stroke-linecap:square;stroke-width:1.5;"/>
   </g>
   <g id="line2d_142">
    <path clip-path="url(#p49867ad21f)" d="M 306.161618 133.160139 
L 306.72 140.256 
" style="fill:none;stroke:#000000;stroke-linecap:square;stroke-width:1.5;"/>
   </g>
  </g>
 </g>
 <defs>
  <clipPath id="p49867ad21f">
   <rect height="266.112" width="357.12" x="7.2" y="7.2"/>
  </clipPath>
 </defs>
</svg>
