<?xml version="1.0" encoding="utf-8" standalone="no"?>
<!DOCTYPE svg PUBLIC "-//W3C//DTD SVG 1.1//EN"
  "http://www.w3.org/Graphics/SVG/1.1/DTD/svg11.dtd">
<!-- Created with matplotlib (https://matplotlib.org/) -->
<svg height="280.512pt" version="1.1" viewBox="0 0 371.52 280.512" width="371.52pt" xmlns="http://www.w3.org/2000/svg" xmlns:xlink="http://www.w3.org/1999/xlink">
 <defs>
  <style type="text/css">
*{stroke-linecap:butt;stroke-linejoin:round;}
  </style>
 </defs>
 <g id="figure_1">
  <g id="patch_1">
   <path d="M 0 280.512 
L 371.52 280.512 
L 371.52 0 
L 0 0 
z
" style="fill:#ffffff;"/>
  </g>
  <g id="axes_1">
   <g id="line2d_1">
    <path clip-path="url(#p32d0e8f356)" d="M 18.789972 52.316486 
L 7.2 47.082892 
M 7.2 33.12 
L 7.2 47.082892 
M 7.2 33.12 
L 18.789972 52.316486 
M 7.2 59.061768 
L 7.2 47.082892 
M 7.2 59.061768 
L 18.789972 52.316486 
M 12.004671 212.004979 
L 7.2 211.68 
M 7.2 71.040644 
L 7.2 59.061768 
M 7.2 202.180608 
L 7.2 211.68 
M 25.667175 62.345915 
L 18.789972 52.316486 
M 25.667175 62.345915 
L 7.2 59.061768 
M 25.667175 62.345915 
L 7.2 71.040644 
M 28.003668 33.12 
L 18.789972 52.316486 
M 28.003668 33.12 
L 7.2 33.12 
M 33.39618 48.754571 
L 18.789972 52.316486 
M 33.39618 48.754571 
L 25.667175 62.345915 
M 33.39618 48.754571 
L 28.003668 33.12 
M 14.298439 209.144448 
L 7.2 211.68 
M 14.298439 209.144448 
L 12.004671 212.004979 
M 14.298439 209.144448 
L 7.2 202.180608 
M 7.2 83.019521 
L 7.2 94.998397 
M 7.2 83.019521 
L 7.2 71.040644 
M 15.633317 97.929923 
L 7.2 94.998397 
M 15.633317 97.929923 
L 7.2 83.019521 
M 7.2 106.977416 
L 7.2 94.998397 
M 7.2 106.977416 
L 15.633317 97.929923 
M 15.77788 212.725647 
L 12.004671 212.004979 
M 15.77788 212.725647 
L 14.298439 209.144448 
M 17.442773 75.595424 
L 7.2 71.040644 
M 17.442773 75.595424 
L 25.667175 62.345915 
M 17.442773 75.595424 
L 7.2 83.019521 
M 16.342558 195.531748 
L 7.2 202.180608 
M 17.540767 205.10185 
L 7.2 202.180608 
M 17.540767 205.10185 
L 14.298439 209.144448 
M 17.540767 205.10185 
L 16.342558 195.531748 
M 7.2 190.829192 
L 7.2 202.180608 
M 7.2 190.829192 
L 16.342558 195.531748 
M 19.451787 213.847718 
L 15.77788 212.725647 
M 7.2 142.913687 
L 7.2 130.935168 
M 7.2 142.913687 
L 7.2 154.89292 
M 7.2 178.850673 
L 7.2 190.829192 
M 7.2 166.871439 
L 7.2 154.89292 
M 7.2 166.871439 
L 7.2 178.850673 
M 47.660696 63.570694 
L 25.667175 62.345915 
M 47.660696 63.570694 
L 33.39618 48.754571 
M 35.722746 76.377874 
L 25.667175 62.345915 
M 35.722746 76.377874 
L 17.442773 75.595424 
M 35.722746 76.377874 
L 47.660696 63.570694 
M 51.773861 33.12 
L 28.003668 33.12 
M 51.773861 33.12 
L 33.39618 48.754571 
M 61.041768 49.215398 
L 33.39618 48.754571 
M 61.041768 49.215398 
L 47.660696 63.570694 
M 61.041768 49.215398 
L 51.773861 33.12 
M 21.168606 210.109386 
L 14.298439 209.144448 
M 21.168606 210.109386 
L 15.77788 212.725647 
M 21.168606 210.109386 
L 17.540767 205.10185 
M 21.168606 210.109386 
L 19.451787 213.847718 
M 25.100783 87.773145 
L 7.2 83.019521 
M 25.100783 87.773145 
L 15.633317 97.929923 
M 25.100783 87.773145 
L 17.442773 75.595424 
M 25.100783 87.773145 
L 35.722746 76.377874 
M 27.594766 100.155852 
L 15.633317 97.929923 
M 27.594766 100.155852 
L 25.100783 87.773145 
M 16.901736 110.012936 
L 15.633317 97.929923 
M 16.901736 110.012936 
L 7.2 106.977416 
M 16.901736 110.012936 
L 27.594766 100.155852 
M 7.2 118.955935 
L 7.2 106.977416 
M 7.2 118.955935 
L 7.2 130.935168 
M 7.2 118.955935 
L 16.901736 110.012936 
M 20.782702 191.172027 
L 16.342558 195.531748 
M 15.357335 186.144492 
L 16.342558 195.531748 
M 15.357335 186.144492 
L 7.2 190.829192 
M 15.357335 186.144492 
L 7.2 178.850673 
M 15.357335 186.144492 
L 20.782702 191.172027 
M 21.463658 200.571425 
L 16.342558 195.531748 
M 21.463658 200.571425 
L 17.540767 205.10185 
M 21.463658 200.571425 
L 20.782702 191.172027 
M 23.917787 206.369626 
L 17.540767 205.10185 
M 23.917787 206.369626 
L 21.168606 210.109386 
M 23.917787 206.369626 
L 21.463658 200.571425 
M 16.611183 134.111393 
L 7.2 130.935168 
M 16.611183 134.111393 
L 7.2 142.913687 
M 16.611183 134.111393 
L 7.2 118.955935 
M 22.98399 215.357622 
L 19.451787 213.847718 
M 22.98399 215.357622 
L 21.168606 210.109386 
M 16.025292 150.830323 
L 7.2 154.89292 
M 16.025292 150.830323 
L 7.2 142.913687 
M 16.025292 150.830323 
L 16.611183 134.111393 
M 16.198638 163.710213 
L 7.2 154.89292 
M 16.198638 163.710213 
L 7.2 166.871439 
M 16.198638 163.710213 
L 16.025292 150.830323 
M 14.77373 175.12234 
L 7.2 178.850673 
M 14.77373 175.12234 
L 7.2 166.871439 
M 14.77373 175.12234 
L 15.357335 186.144492 
M 14.77373 175.12234 
L 16.198638 163.710213 
M 32.33232 222.020767 
L 29.461718 219.468073 
M 26.333561 217.238216 
L 22.98399 215.357622 
M 26.333561 217.238216 
L 29.461718 219.468073 
M 57.71591 83.349999 
L 47.660696 63.570694 
M 57.71591 83.349999 
L 35.722746 76.377874 
M 70.695293 68.045836 
L 47.660696 63.570694 
M 70.695293 68.045836 
L 61.041768 49.215398 
M 70.695293 68.045836 
L 57.71591 83.349999 
M 45.778317 97.425741 
L 35.722746 76.377874 
M 45.778317 97.425741 
L 25.100783 87.773145 
M 45.778317 97.425741 
L 27.594766 100.155852 
M 45.778317 97.425741 
L 57.71591 83.349999 
M 76.044808 33.12 
L 51.773861 33.12 
M 76.044808 33.12 
L 61.041768 49.215398 
M 84.881457 49.333177 
L 61.041768 49.215398 
M 84.881457 49.333177 
L 70.695293 68.045836 
M 84.881457 49.333177 
L 76.044808 33.12 
M 25.462974 212.172111 
L 21.168606 210.109386 
M 25.462974 212.172111 
L 23.917787 206.369626 
M 25.462974 212.172111 
L 22.98399 215.357622 
M 25.462974 212.172111 
L 26.333561 217.238216 
M 34.850587 110.310774 
L 27.594766 100.155852 
M 34.850587 110.310774 
L 16.901736 110.012936 
M 34.850587 110.310774 
L 45.778317 97.425741 
M 24.820729 122.13716 
L 16.901736 110.012936 
M 24.820729 122.13716 
L 7.2 118.955935 
M 24.820729 122.13716 
L 16.611183 134.111393 
M 24.820729 122.13716 
L 34.850587 110.310774 
M 22.953277 183.548229 
L 20.782702 191.172027 
M 22.953277 183.548229 
L 15.357335 186.144492 
M 22.953277 183.548229 
L 14.77373 175.12234 
M 27.421634 193.683295 
L 20.782702 191.172027 
M 27.421634 193.683295 
L 21.463658 200.571425 
M 27.421634 193.683295 
L 22.953277 183.548229 
M 29.317156 203.634086 
L 21.463658 200.571425 
M 29.317156 203.634086 
L 23.917787 206.369626 
M 29.317156 203.634086 
L 25.462974 212.172111 
M 29.317156 203.634086 
L 27.421634 193.683295 
M 25.211561 147.043423 
L 16.611183 134.111393 
M 25.211561 147.043423 
L 16.025292 150.830323 
M 28.31172 137.463322 
L 16.611183 134.111393 
M 28.31172 137.463322 
L 24.820729 122.13716 
M 28.31172 137.463322 
L 25.211561 147.043423 
M 25.402978 159.242642 
L 16.025292 150.830323 
M 25.402978 159.242642 
L 16.198638 163.710213 
M 25.402978 159.242642 
L 25.211561 147.043423 
M 25.896018 173.213176 
L 16.198638 163.710213 
M 25.896018 173.213176 
L 14.77373 175.12234 
M 25.896018 173.213176 
L 22.953277 183.548229 
M 25.896018 173.213176 
L 25.402978 159.242642 
M 33.131055 217.504627 
L 29.461718 219.468073 
M 33.131055 217.504627 
L 32.33232 222.020767 
M 29.331869 214.00628 
L 29.461718 219.468073 
M 29.331869 214.00628 
L 26.333561 217.238216 
M 29.331869 214.00628 
L 25.462974 212.172111 
M 29.331869 214.00628 
L 33.131055 217.504627 
M 34.912083 224.867013 
L 32.33232 222.020767 
M 37.272432 221.317955 
L 32.33232 222.020767 
M 37.272432 221.317955 
L 33.131055 217.504627 
M 37.272432 221.317955 
L 34.912083 224.867013 
M 37.171225 227.973957 
L 34.912083 224.867013 
M 39.083602 231.305172 
L 40.627003 234.822804 
M 39.083602 231.305172 
L 37.171225 227.973957 
M 35.293702 168.114931 
L 25.402978 159.242642 
M 35.293702 168.114931 
L 25.896018 173.213176 
M 78.291378 90.631605 
L 57.71591 83.349999 
M 78.291378 90.631605 
L 70.695293 68.045836 
M 63.209629 99.530535 
L 57.71591 83.349999 
M 63.209629 99.530535 
L 45.778317 97.425741 
M 63.209629 99.530535 
L 78.291378 90.631605 
M 91.10463 64.43621 
L 70.695293 68.045836 
M 91.10463 64.43621 
L 84.881457 49.333177 
M 92.405261 82.149719 
L 70.695293 68.045836 
M 92.405261 82.149719 
L 78.291378 90.631605 
M 92.405261 82.149719 
L 91.10463 64.43621 
M 50.08097 113.846262 
L 45.778317 97.425741 
M 50.08097 113.846262 
L 34.850587 110.310774 
M 50.08097 113.846262 
L 63.209629 99.530535 
M 100.315469 33.12 
L 76.044808 33.12 
M 100.315469 33.12 
L 84.881457 49.333177 
M 107.212884 49.369817 
L 84.881457 49.333177 
M 107.212884 49.369817 
L 91.10463 64.43621 
M 107.212884 49.369817 
L 100.315469 33.12 
M 33.156624 209.886543 
L 25.462974 212.172111 
M 33.156624 209.886543 
L 29.317156 203.634086 
M 33.156624 209.886543 
L 33.131055 217.504627 
M 33.156624 209.886543 
L 29.331869 214.00628 
M 37.59234 127.121841 
L 34.850587 110.310774 
M 37.59234 127.121841 
L 24.820729 122.13716 
M 37.59234 127.121841 
L 28.31172 137.463322 
M 37.59234 127.121841 
L 50.08097 113.846262 
M 36.305137 183.412524 
L 22.953277 183.548229 
M 36.305137 183.412524 
L 27.421634 193.683295 
M 36.305137 183.412524 
L 25.896018 173.213176 
M 36.305137 183.412524 
L 35.293702 168.114931 
M 36.227356 197.08022 
L 27.421634 193.683295 
M 36.227356 197.08022 
L 29.317156 203.634086 
M 36.227356 197.08022 
L 33.156624 209.886543 
M 36.227356 197.08022 
L 36.305137 183.412524 
M 40.334165 143.933622 
L 25.211561 147.043423 
M 40.334165 143.933622 
L 28.31172 137.463322 
M 40.334165 143.933622 
L 25.402978 159.242642 
M 40.334165 143.933622 
L 37.59234 127.121841 
M 43.07599 160.744689 
L 25.402978 159.242642 
M 43.07599 160.744689 
L 35.293702 168.114931 
M 43.07599 160.744689 
L 40.334165 143.933622 
M 40.479299 216.607542 
L 33.131055 217.504627 
M 40.479299 216.607542 
L 37.272432 221.317955 
M 40.479299 216.607542 
L 33.156624 209.886543 
M 41.802714 225.489116 
L 34.912083 224.867013 
M 41.802714 225.489116 
L 37.272432 221.317955 
M 41.802714 225.489116 
L 37.171225 227.973957 
M 41.802714 225.489116 
L 39.083602 231.305172 
M 41.802714 225.489116 
L 40.479299 216.607542 
M 43.761803 233.166482 
L 40.627003 234.822804 
M 43.761803 233.166482 
L 39.083602 231.305172 
M 43.761803 233.166482 
L 41.802714 225.489116 
M 41.783715 238.486141 
L 40.627003 234.822804 
M 41.783715 238.486141 
L 43.761803 233.166482 
M 45.817814 177.555756 
L 35.293702 168.114931 
M 45.817814 177.555756 
L 36.305137 183.412524 
M 45.817814 177.555756 
L 43.07599 160.744689 
M 42.540167 242.252329 
L 41.783715 238.486141 
M 82.078779 112.994888 
L 78.291378 90.631605 
M 82.078779 112.994888 
L 63.209629 99.530535 
M 102.331768 104.254447 
L 78.291378 90.631605 
M 102.331768 104.254447 
L 92.405261 82.149719 
M 102.331768 104.254447 
L 82.078779 112.994888 
M 66.519203 117.662446 
L 63.209629 99.530535 
M 66.519203 117.662446 
L 50.08097 113.846262 
M 66.519203 117.662446 
L 82.078779 112.994888 
M 107.205742 73.255074 
L 91.10463 64.43621 
M 107.205742 73.255074 
L 92.405261 82.149719 
M 107.205742 73.255074 
L 107.212884 49.369817 
M 107.205742 73.255074 
L 102.331768 104.254447 
M 52.890861 131.335857 
L 50.08097 113.846262 
M 52.890861 131.335857 
L 37.59234 127.121841 
M 52.890861 131.335857 
L 40.334165 143.933622 
M 52.890861 131.335857 
L 66.519203 117.662446 
M 124.586772 33.12 
L 100.315469 33.12 
M 124.586772 33.12 
L 107.212884 49.369817 
M 124.480351 57.889558 
L 107.212884 49.369817 
M 124.480351 57.889558 
L 107.205742 73.255074 
M 124.480351 57.889558 
L 124.586772 33.12 
M 44.988867 209.982966 
L 33.156624 209.886543 
M 44.988867 209.982966 
L 36.227356 197.08022 
M 44.988867 209.982966 
L 40.479299 216.607542 
M 47.526847 194.408963 
L 36.305137 183.412524 
M 47.526847 194.408963 
L 36.227356 197.08022 
M 47.526847 194.408963 
L 45.817814 177.555756 
M 47.526847 194.408963 
L 44.988867 209.982966 
M 56.237004 152.24309 
L 40.334165 143.933622 
M 56.237004 152.24309 
L 43.07599 160.744689 
M 56.237004 152.24309 
L 52.890861 131.335857 
M 59.037254 169.708401 
L 43.07599 160.744689 
M 59.037254 169.708401 
L 45.817814 177.555756 
M 59.037254 169.708401 
L 56.237004 152.24309 
M 48.46293 218.278863 
L 40.479299 216.607542 
M 48.46293 218.278863 
L 41.802714 225.489116 
M 48.46293 218.278863 
L 44.988867 209.982966 
M 48.631063 227.990385 
L 41.802714 225.489116 
M 48.631063 227.990385 
L 43.761803 233.166482 
M 48.631063 227.990385 
L 48.46293 218.278863 
M 50.999768 236.045583 
L 43.761803 233.166482 
M 50.999768 236.045583 
L 48.631063 227.990385 
M 47.119874 241.20811 
L 43.761803 233.166482 
M 47.119874 241.20811 
L 41.783715 238.486141 
M 47.119874 241.20811 
L 42.540167 242.252329 
M 47.119874 241.20811 
L 50.999768 236.045583 
M 56.956101 187.547259 
L 45.817814 177.555756 
M 56.956101 187.547259 
L 47.526847 194.408963 
M 56.956101 187.547259 
L 59.037254 169.708401 
M 42.912 247.392 
L 42.540167 242.252329 
M 42.912 247.392 
L 47.119874 241.20811 
M 57.396287 231.201608 
L 48.631063 227.990385 
M 57.396287 231.201608 
L 50.999768 236.045583 
M 66.561986 143.657211 
L 52.890861 131.335857 
M 66.561986 143.657211 
L 56.237004 152.24309 
M 77.540426 134.528509 
L 82.078779 112.994888 
M 77.540426 134.528509 
L 66.519203 117.662446 
M 77.540426 134.528509 
L 52.890861 131.335857 
M 77.540426 134.528509 
L 66.561986 143.657211 
M 102.345339 121.686474 
L 82.078779 112.994888 
M 102.345339 121.686474 
L 102.331768 104.254447 
M 102.345339 121.686474 
L 77.540426 134.528509 
M 124.271078 106.903849 
L 102.331768 104.254447 
M 124.271078 106.903849 
L 102.345339 121.686474 
M 124.374643 82.659186 
L 102.331768 104.254447 
M 124.374643 82.659186 
L 107.205742 73.255074 
M 124.374643 82.659186 
L 124.480351 57.889558 
M 124.374643 82.659186 
L 124.271078 106.903849 
M 148.857362 33.12 
L 124.586772 33.12 
M 150.830093 55.412645 
L 124.586772 33.12 
M 150.830093 55.412645 
L 124.480351 57.889558 
M 150.830093 55.412645 
L 148.857362 33.12 
M 152.802109 77.705218 
L 124.480351 57.889558 
M 152.802109 77.705218 
L 124.374643 82.659186 
M 152.802109 77.705218 
L 150.830093 55.412645 
M 59.591575 206.231063 
L 44.988867 209.982966 
M 59.591575 206.231063 
L 47.526847 194.408963 
M 59.591575 206.231063 
L 48.46293 218.278863 
M 59.591575 206.231063 
L 56.956101 187.547259 
M 73.373693 161.198231 
L 56.237004 152.24309 
M 73.373693 161.198231 
L 59.037254 169.708401 
M 73.373693 161.198231 
L 66.561986 143.657211 
M 71.668731 180.367718 
L 59.037254 169.708401 
M 71.668731 180.367718 
L 56.956101 187.547259 
M 71.668731 180.367718 
L 73.373693 161.198231 
M 58.350012 220.353731 
L 48.46293 218.278863 
M 58.350012 220.353731 
L 48.631063 227.990385 
M 58.350012 220.353731 
L 57.396287 231.201608 
M 58.350012 220.353731 
L 59.591575 206.231063 
M 59.244026 247.392 
L 50.999768 236.045583 
M 59.244026 247.392 
L 47.119874 241.20811 
M 59.244026 247.392 
L 42.912 247.392 
M 59.244026 247.392 
L 57.396287 231.201608 
M 68.793629 198.165865 
L 56.956101 187.547259 
M 68.793629 198.165865 
L 59.591575 206.231063 
M 68.793629 198.165865 
L 71.668731 180.367718 
M 68.649638 235.323487 
L 57.396287 231.201608 
M 68.649638 235.323487 
L 58.350012 220.353731 
M 68.649638 235.323487 
L 59.244026 247.392 
M 88.932626 151.961679 
L 66.561986 143.657211 
M 88.932626 151.961679 
L 77.540426 134.528509 
M 88.932626 151.961679 
L 73.373693 161.198231 
M 105.832973 141.929464 
L 77.540426 134.528509 
M 105.832973 141.929464 
L 102.345339 121.686474 
M 105.832973 141.929464 
L 88.932626 151.961679 
M 124.167514 131.045875 
L 102.345339 121.686474 
M 124.167514 131.045875 
L 124.271078 106.903849 
M 124.167514 131.045875 
L 105.832973 141.929464 
M 139.559386 91.159999 
L 124.271078 106.903849 
M 139.559386 91.159999 
L 124.374643 82.659186 
M 139.559386 91.159999 
L 152.802109 77.705218 
M 140.468613 114.146243 
L 124.271078 106.903849 
M 140.468613 114.146243 
L 124.167514 131.045875 
M 140.468613 114.146243 
L 139.559386 91.159999 
M 173.128666 33.12 
L 148.857362 33.12 
M 173.128666 33.12 
L 150.830093 55.412645 
M 174.872125 55.412645 
L 150.830093 55.412645 
M 174.872125 55.412645 
L 152.802109 77.705218 
M 174.872125 55.412645 
L 173.128666 33.12 
M 176.615585 77.705218 
L 152.802109 77.705218 
M 176.615585 77.705218 
L 174.872125 55.412645 
M 154.744128 99.660813 
L 152.802109 77.705218 
M 154.744128 99.660813 
L 139.559386 91.159999 
M 154.744128 99.660813 
L 140.468613 114.146243 
M 154.744128 99.660813 
L 176.615585 77.705218 
M 72.577316 218.955249 
L 59.591575 206.231063 
M 72.577316 218.955249 
L 58.350012 220.353731 
M 72.577316 218.955249 
L 68.793629 198.165865 
M 72.577316 218.955249 
L 68.649638 235.323487 
M 87.701276 172.544648 
L 73.373693 161.198231 
M 87.701276 172.544648 
L 71.668731 180.367718 
M 87.701276 172.544648 
L 88.932626 151.961679 
M 85.584269 192.124823 
L 71.668731 180.367718 
M 85.584269 192.124823 
L 68.793629 198.165865 
M 85.584269 192.124823 
L 87.701276 172.544648 
M 79.525371 247.392 
L 59.244026 247.392 
M 79.525371 247.392 
L 68.649638 235.323487 
M 81.320256 209.403003 
L 68.793629 198.165865 
M 81.320256 209.403003 
L 72.577316 218.955249 
M 81.320256 209.403003 
L 85.584269 192.124823 
M 86.572777 232.669371 
L 68.649638 235.323487 
M 86.572777 232.669371 
L 72.577316 218.955249 
M 86.572777 232.669371 
L 79.525371 247.392 
M 101.499679 161.362506 
L 88.932626 151.961679 
M 101.499679 161.362506 
L 105.832973 141.929464 
M 101.499679 161.362506 
L 87.701276 172.544648 
M 124.066092 154.800069 
L 105.832973 141.929464 
M 124.066092 154.800069 
L 124.167514 131.045875 
M 124.066092 154.800069 
L 101.499679 161.362506 
M 135.439649 143.04225 
L 124.167514 131.045875 
M 135.439649 143.04225 
L 140.468613 114.146243 
M 135.439649 143.04225 
L 124.066092 154.800069 
M 156.666862 121.388636 
L 140.468613 114.146243 
M 156.666862 121.388636 
L 154.744128 99.660813 
M 156.666862 121.388636 
L 135.439649 143.04225 
M 197.399255 33.12 
L 173.128666 33.12 
M 197.399255 33.12 
L 174.872125 55.412645 
M 196.530739 57.889558 
L 174.872125 55.412645 
M 196.530739 57.889558 
L 176.615585 77.705218 
M 196.530739 57.889558 
L 197.399255 33.12 
M 178.332618 99.660813 
L 176.615585 77.705218 
M 178.332618 99.660813 
L 154.744128 99.660813 
M 178.332618 99.660813 
L 156.666862 121.388636 
M 195.662223 82.659186 
L 176.615585 77.705218 
M 195.662223 82.659186 
L 196.530739 57.889558 
M 195.662223 82.659186 
L 178.332618 99.660813 
M 94.604406 221.319383 
L 72.577316 218.955249 
M 94.604406 221.319383 
L 81.320256 209.403003 
M 94.604406 221.319383 
L 86.572777 232.669371 
M 103.904525 185.533102 
L 87.701276 172.544648 
M 103.904525 185.533102 
L 85.584269 192.124823 
M 103.904525 185.533102 
L 101.499679 161.362506 
M 101.542533 205.702525 
L 85.584269 192.124823 
M 101.542533 205.702525 
L 81.320256 209.403003 
M 101.542533 205.702525 
L 94.604406 221.319383 
M 101.542533 205.702525 
L 103.904525 185.533102 
M 101.59753 247.392 
L 79.525371 247.392 
M 101.59753 247.392 
L 86.572777 232.669371 
M 108.714931 233.977144 
L 86.572777 232.669371 
M 108.714931 233.977144 
L 94.604406 221.319383 
M 108.714931 233.977144 
L 101.59753 247.392 
M 123.965384 178.314993 
L 101.499679 161.362506 
M 123.965384 178.314993 
L 124.066092 154.800069 
M 123.965384 178.314993 
L 103.904525 185.533102 
M 137.528801 164.205896 
L 124.066092 154.800069 
M 137.528801 164.205896 
L 135.439649 143.04225 
M 137.528801 164.205896 
L 123.965384 178.314993 
M 158.582454 143.04225 
L 135.439649 143.04225 
M 158.582454 143.04225 
L 156.666862 121.388636 
M 158.582454 143.04225 
L 137.528801 164.205896 
M 180.031795 121.388636 
L 156.666862 121.388636 
M 180.031795 121.388636 
L 178.332618 99.660813 
M 180.031795 121.388636 
L 158.582454 143.04225 
M 220.547773 57.889558 
L 197.399255 33.12 
M 220.547773 57.889558 
L 196.530739 57.889558 
M 221.670559 33.12 
L 197.399255 33.12 
M 221.670559 33.12 
L 220.547773 57.889558 
M 219.424988 82.659186 
L 196.530739 57.889558 
M 219.424988 82.659186 
L 195.662223 82.659186 
M 219.424988 82.659186 
L 220.547773 57.889558 
M 194.812278 106.903849 
L 178.332618 99.660813 
M 194.812278 106.903849 
L 195.662223 82.659186 
M 194.812278 106.903849 
L 180.031795 121.388636 
M 218.325773 106.903849 
L 195.662223 82.659186 
M 218.325773 106.903849 
L 219.424988 82.659186 
M 218.325773 106.903849 
L 194.812278 106.903849 
M 123.767539 224.504179 
L 94.604406 221.319383 
M 123.767539 224.504179 
L 101.542533 205.702525 
M 123.767539 224.504179 
L 108.714931 233.977144 
M 123.86539 201.616358 
L 103.904525 185.533102 
M 123.86539 201.616358 
L 101.542533 205.702525 
M 123.86539 201.616358 
L 123.965384 178.314993 
M 123.86539 201.616358 
L 123.767539 224.504179 
M 123.669688 247.392 
L 101.59753 247.392 
M 123.669688 247.392 
L 108.714931 233.977144 
M 123.669688 247.392 
L 123.767539 224.504179 
M 139.617953 185.369541 
L 123.965384 178.314993 
M 139.617953 185.369541 
L 137.528801 164.205896 
M 139.617953 185.369541 
L 123.86539 201.616358 
M 193.965903 131.045875 
L 180.031795 121.388636 
M 193.965903 131.045875 
L 194.812278 106.903849 
M 160.454477 164.205896 
L 137.528801 164.205896 
M 160.454477 164.205896 
L 158.582454 143.04225 
M 160.454477 164.205896 
L 139.617953 185.369541 
M 181.725258 143.04225 
L 158.582454 143.04225 
M 181.725258 143.04225 
L 180.031795 121.388636 
M 181.725258 143.04225 
L 193.965903 131.045875 
M 181.725258 143.04225 
L 160.454477 164.205896 
M 247.116073 57.889558 
L 220.547773 57.889558 
M 245.941148 33.12 
L 220.547773 57.889558 
M 245.941148 33.12 
L 221.670559 33.12 
M 245.941148 33.12 
L 247.116073 57.889558 
M 233.270531 70.274408 
L 220.547773 57.889558 
M 233.270531 70.274408 
L 219.424988 82.659186 
M 233.270531 70.274408 
L 247.116073 57.889558 
M 233.308385 94.781339 
L 219.424988 82.659186 
M 233.308385 94.781339 
L 218.325773 106.903849 
M 233.308385 94.781339 
L 233.270531 70.274408 
M 217.231557 131.045875 
L 194.812278 106.903849 
M 217.231557 131.045875 
L 218.325773 106.903849 
M 217.231557 131.045875 
L 193.965903 131.045875 
M 233.336241 118.974505 
L 218.325773 106.903849 
M 233.336241 118.974505 
L 233.308385 94.781339 
M 233.336241 118.974505 
L 217.231557 131.045875 
M 143.707692 226.793318 
L 123.767539 224.504179 
M 143.707692 226.793318 
L 123.669688 247.392 
M 141.67425 206.193923 
L 123.767539 224.504179 
M 141.67425 206.193923 
L 123.86539 201.616358 
M 141.67425 206.193923 
L 139.617953 185.369541 
M 141.67425 206.193923 
L 143.707692 226.793318 
M 145.741847 247.392 
L 123.669688 247.392 
M 145.741847 247.392 
L 143.707692 226.793318 
M 162.3265 185.369541 
L 139.617953 185.369541 
M 162.3265 185.369541 
L 160.454477 164.205896 
M 162.3265 185.369541 
L 141.67425 206.193923 
M 204.868063 143.04225 
L 193.965903 131.045875 
M 204.868063 143.04225 
L 181.725258 143.04225 
M 204.868063 143.04225 
L 217.231557 131.045875 
M 176.381315 171.260444 
L 160.454477 164.205896 
M 176.381315 171.260444 
L 181.725258 143.04225 
M 176.381315 171.260444 
L 162.3265 185.369541 
M 193.132385 154.800069 
L 181.725258 143.04225 
M 193.132385 154.800069 
L 204.868063 143.04225 
M 193.132385 154.800069 
L 176.381315 171.260444 
M 265.274911 72.660184 
L 247.116073 57.889558 
M 264.224264 48.607723 
L 247.116073 57.889558 
M 264.224264 48.607723 
L 245.941148 33.12 
M 264.224264 48.607723 
L 265.274911 72.660184 
M 248.290284 82.659186 
L 247.116073 57.889558 
M 248.290284 82.659186 
L 233.270531 70.274408 
M 248.290284 82.659186 
L 233.308385 94.781339 
M 248.290284 82.659186 
L 265.274911 72.660184 
M 270.212452 33.12 
L 245.941148 33.12 
M 270.212452 33.12 
L 264.224264 48.607723 
M 249.44021 106.903849 
L 233.308385 94.781339 
M 249.44021 106.903849 
L 233.336241 118.974505 
M 249.44021 106.903849 
L 248.290284 82.659186 
M 216.155197 154.800069 
L 217.231557 131.045875 
M 216.155197 154.800069 
L 204.868063 143.04225 
M 216.155197 154.800069 
L 193.132385 154.800069 
M 233.36981 142.922972 
L 217.231557 131.045875 
M 233.36981 142.922972 
L 233.336241 118.974505 
M 233.36981 142.922972 
L 216.155197 154.800069 
M 250.585137 131.045875 
L 233.336241 118.974505 
M 250.585137 131.045875 
L 249.44021 106.903849 
M 250.585137 131.045875 
L 233.36981 142.922972 
M 165.991265 226.793318 
L 143.707692 226.793318 
M 165.991265 226.793318 
L 145.741847 247.392 
M 164.169239 206.193923 
L 143.707692 226.793318 
M 164.169239 206.193923 
L 141.67425 206.193923 
M 164.169239 206.193923 
L 162.3265 185.369541 
M 164.169239 206.193923 
L 165.991265 226.793318 
M 167.814006 247.392 
L 145.741847 247.392 
M 167.814006 247.392 
L 165.991265 226.793318 
M 176.909138 193.493307 
L 162.3265 185.369541 
M 176.909138 193.493307 
L 176.381315 171.260444 
M 176.909138 193.493307 
L 164.169239 206.193923 
M 192.308152 178.314993 
L 176.381315 171.260444 
M 192.308152 178.314993 
L 193.132385 154.800069 
M 192.308152 178.314993 
L 176.909138 193.493307 
M 215.088837 178.314993 
L 193.132385 154.800069 
M 215.088837 178.314993 
L 216.155197 154.800069 
M 215.088837 178.314993 
L 192.308152 178.314993 
M 279.541855 84.111665 
L 265.274911 72.660184 
M 272.063048 100.720745 
L 265.274911 72.660184 
M 272.063048 100.720745 
L 248.290284 82.659186 
M 272.063048 100.720745 
L 249.44021 106.903849 
M 272.063048 100.720745 
L 279.541855 84.111665 
M 281.406735 63.163077 
L 265.274911 72.660184 
M 281.406735 63.163077 
L 264.224264 48.607723 
M 281.406735 63.163077 
L 279.541855 84.111665 
M 286.758536 48.277673 
L 264.224264 48.607723 
M 286.758536 48.277673 
L 270.212452 33.12 
M 286.758536 48.277673 
L 281.406735 63.163077 
M 294.483041 33.12 
L 270.212452 33.12 
M 294.483041 33.12 
L 286.758536 48.277673 
M 267.322637 119.87659 
L 249.44021 106.903849 
M 267.322637 119.87659 
L 250.585137 131.045875 
M 267.322637 119.87659 
L 272.063048 100.720745 
M 233.400522 166.557888 
L 216.155197 154.800069 
M 233.400522 166.557888 
L 233.36981 142.922972 
M 233.400522 166.557888 
L 215.088837 178.314993 
M 251.711493 154.800069 
L 233.36981 142.922972 
M 251.711493 154.800069 
L 250.585137 131.045875 
M 251.711493 154.800069 
L 233.400522 166.557888 
M 268.316145 143.04725 
L 250.585137 131.045875 
M 268.316145 143.04725 
L 267.322637 119.87659 
M 268.316145 143.04725 
L 251.711493 154.800069 
M 189.886164 247.392 
L 165.991265 226.793318 
M 189.886164 247.392 
L 167.814006 247.392 
M 190.688256 224.504179 
L 165.991265 226.793318 
M 190.688256 224.504179 
L 164.169239 206.193923 
M 190.688256 224.504179 
L 189.886164 247.392 
M 191.491062 201.616358 
L 164.169239 206.193923 
M 191.491062 201.616358 
L 176.909138 193.493307 
M 191.491062 201.616358 
L 192.308152 178.314993 
M 191.491062 201.616358 
L 190.688256 224.504179 
M 214.03319 201.616358 
L 192.308152 178.314993 
M 214.03319 201.616358 
L 215.088837 178.314993 
M 214.03319 201.616358 
L 191.491062 201.616358 
M 234.987564 184.086766 
L 215.088837 178.314993 
M 234.987564 184.086766 
L 233.400522 166.557888 
M 234.987564 184.086766 
L 214.03319 201.616358 
M 297.53356 76.823846 
L 279.541855 84.111665 
M 297.53356 76.823846 
L 281.406735 63.163077 
M 293.07956 94.977184 
L 279.541855 84.111665 
M 293.07956 94.977184 
L 272.063048 100.720745 
M 293.07956 94.977184 
L 297.53356 76.823846 
M 285.936445 111.259999 
L 272.063048 100.720745 
M 285.936445 111.259999 
L 267.322637 119.87659 
M 285.936445 111.259999 
L 293.07956 94.977184 
M 302.142551 62.370199 
L 281.406735 63.163077 
M 302.142551 62.370199 
L 286.758536 48.277673 
M 302.142551 62.370199 
L 297.53356 76.823846 
M 311.434099 50.629879 
L 286.758536 48.277673 
M 311.434099 50.629879 
L 294.483041 33.12 
M 311.434099 50.629879 
L 302.142551 62.370199 
M 318.754345 33.12 
L 294.483041 33.12 
M 318.754345 33.12 
L 311.434099 50.629879 
M 284.087992 131.884393 
L 267.322637 119.87659 
M 284.087992 131.884393 
L 268.316145 143.04725 
M 284.087992 131.884393 
L 285.936445 111.259999 
M 252.826422 178.314993 
L 233.400522 166.557888 
M 252.826422 178.314993 
L 251.711493 154.800069 
M 252.826422 178.314993 
L 234.987564 184.086766 
M 269.207516 165.085839 
L 251.711493 154.800069 
M 269.207516 165.085839 
L 268.316145 143.04725 
M 269.207516 165.085839 
L 252.826422 178.314993 
M 284.872228 153.320164 
L 268.316145 143.04725 
M 284.872228 153.320164 
L 284.087992 131.884393 
M 284.872228 153.320164 
L 269.207516 165.085839 
M 211.958323 247.392 
L 189.886164 247.392 
M 211.958323 247.392 
L 190.688256 224.504179 
M 212.9954 224.504179 
L 190.688256 224.504179 
M 212.9954 224.504179 
L 191.491062 201.616358 
M 212.9954 224.504179 
L 214.03319 201.616358 
M 212.9954 224.504179 
L 211.958323 247.392 
M 235.302543 224.504179 
L 214.03319 201.616358 
M 235.302543 224.504179 
L 212.9954 224.504179 
M 236.574605 201.616358 
L 214.03319 201.616358 
M 236.574605 201.616358 
L 234.987564 184.086766 
M 236.574605 201.616358 
L 235.302543 224.504179 
M 253.931351 201.616358 
L 234.987564 184.086766 
M 253.931351 201.616358 
L 252.826422 178.314993 
M 253.931351 201.616358 
L 236.574605 201.616358 
M 316.461635 75.487717 
L 297.53356 76.823846 
M 316.461635 75.487717 
L 302.142551 62.370199 
M 312.649736 89.628812 
L 297.53356 76.823846 
M 312.649736 89.628812 
L 293.07956 94.977184 
M 312.649736 89.628812 
L 316.461635 75.487717 
M 299.099174 121.258644 
L 293.07956 94.977184 
M 299.099174 121.258644 
L 285.936445 111.259999 
M 299.099174 121.258644 
L 284.087992 131.884393 
M 313.285409 111.217859 
L 293.07956 94.977184 
M 313.285409 111.217859 
L 312.649736 89.628812 
M 313.285409 111.217859 
L 299.099174 121.258644 
M 326.734548 59.936284 
L 302.142551 62.370199 
M 326.734548 59.936284 
L 311.434099 50.629879 
M 326.734548 59.936284 
L 318.754345 33.12 
M 326.734548 59.936284 
L 316.461635 75.487717 
M 342.745667 33.12 
L 318.754345 33.12 
M 342.745667 33.12 
L 326.734548 59.936284 
M 303.331046 139.355343 
L 284.087992 131.884393 
M 303.331046 139.355343 
L 284.872228 153.320164 
M 303.331046 139.355343 
L 299.099174 121.258644 
M 270.196739 187.807956 
L 252.826422 178.314993 
M 270.196739 187.807956 
L 269.207516 165.085839 
M 270.196739 187.807956 
L 253.931351 201.616358 
M 285.657178 174.755935 
L 269.207516 165.085839 
M 285.657178 174.755935 
L 284.872228 153.320164 
M 285.657178 174.755935 
L 270.196739 187.807956 
M 302.759654 160.908964 
L 284.872228 153.320164 
M 302.759654 160.908964 
L 303.331046 139.355343 
M 302.759654 160.908964 
L 285.657178 174.755935 
M 234.029768 247.392 
L 211.958323 247.392 
M 234.029768 247.392 
L 212.9954 224.504179 
M 234.029768 247.392 
L 235.302543 224.504179 
M 256.101926 247.392 
L 235.302543 224.504179 
M 256.101926 247.392 
L 234.029768 247.392 
M 255.016996 224.504179 
L 235.302543 224.504179 
M 255.016996 224.504179 
L 236.574605 201.616358 
M 255.016996 224.504179 
L 253.931351 201.616358 
M 255.016996 224.504179 
L 256.101926 247.392 
M 271.168819 210.324372 
L 253.931351 201.616358 
M 271.168819 210.324372 
L 270.196739 187.807956 
M 271.168819 210.324372 
L 255.016996 224.504179 
M 340.555092 71.427548 
L 316.461635 75.487717 
M 340.555092 71.427548 
L 326.734548 59.936284 
M 329.76364 87.672723 
L 316.461635 75.487717 
M 329.76364 87.672723 
L 312.649736 89.628812 
M 329.76364 87.672723 
L 340.555092 71.427548 
M 326.823114 101.635615 
L 312.649736 89.628812 
M 326.823114 101.635615 
L 313.285409 111.217859 
M 326.823114 101.635615 
L 329.76364 87.672723 
M 317.442286 134.412088 
L 299.099174 121.258644 
M 317.442286 134.412088 
L 313.285409 111.217859 
M 317.442286 134.412088 
L 303.331046 139.355343 
M 327.210947 117.368893 
L 313.285409 111.217859 
M 327.210947 117.368893 
L 326.823114 101.635615 
M 327.210947 117.368893 
L 317.442286 134.412088 
M 347.533932 50.242118 
L 326.734548 59.936284 
M 347.533932 50.242118 
L 342.745667 33.12 
M 347.533932 50.242118 
L 340.555092 71.427548 
M 364.32 33.12 
L 342.745667 33.12 
M 364.32 33.12 
L 347.533932 50.242118 
M 319.027899 150.7439 
L 303.331046 139.355343 
M 319.027899 150.7439 
L 302.759654 160.908964 
M 319.027899 150.7439 
L 317.442286 134.412088 
M 286.519265 196.727386 
L 270.196739 187.807956 
M 286.519265 196.727386 
L 285.657178 174.755935 
M 286.519265 196.727386 
L 271.168819 210.324372 
M 301.119759 183.846067 
L 285.657178 174.755935 
M 301.119759 183.846067 
L 302.759654 160.908964 
M 301.119759 183.846067 
L 286.519265 196.727386 
M 311.576947 174.615944 
L 302.759654 160.908964 
M 311.576947 174.615944 
L 319.027899 150.7439 
M 311.576947 174.615944 
L 301.119759 183.846067 
M 278.174085 247.392 
L 256.101926 247.392 
M 272.127329 232.59509 
L 256.101926 247.392 
M 272.127329 232.59509 
L 255.016996 224.504179 
M 272.127329 232.59509 
L 271.168819 210.324372 
M 272.127329 232.59509 
L 278.174085 247.392 
M 287.378496 218.513134 
L 271.168819 210.324372 
M 287.378496 218.513134 
L 286.519265 196.727386 
M 287.378496 218.513134 
L 272.127329 232.59509 
M 353.032865 81.80267 
L 340.555092 71.427548 
M 353.032865 81.80267 
L 329.76364 87.672723 
M 351.620813 64.855183 
L 340.555092 71.427548 
M 351.620813 64.855183 
L 347.533932 50.242118 
M 351.620813 64.855183 
L 353.032865 81.80267 
M 342.120707 98.992998 
L 329.76364 87.672723 
M 342.120707 98.992998 
L 326.823114 101.635615 
M 342.120707 98.992998 
L 353.032865 81.80267 
M 340.107264 112.888466 
L 326.823114 101.635615 
M 340.107264 112.888466 
L 327.210947 117.368893 
M 340.107264 112.888466 
L 342.120707 98.992998 
M 337.270303 129.742387 
L 317.442286 134.412088 
M 337.270303 129.742387 
L 327.210947 117.368893 
M 337.270303 129.742387 
L 340.107264 112.888466 
M 334.434056 146.596308 
L 317.442286 134.412088 
M 334.434056 146.596308 
L 319.027899 150.7439 
M 334.434056 146.596308 
L 337.270303 129.742387 
M 364.32 48.976128 
L 347.533932 50.242118 
M 364.32 48.976128 
L 364.32 33.12 
M 364.32 48.976128 
L 351.620813 64.855183 
M 328.373015 164.570158 
L 319.027899 150.7439 
M 328.373015 164.570158 
L 311.576947 174.615944 
M 328.373015 164.570158 
L 334.434056 146.596308 
M 301.881139 205.122563 
L 286.519265 196.727386 
M 301.881139 205.122563 
L 301.119759 183.846067 
M 301.881139 205.122563 
L 287.378496 218.513134 
M 315.663828 192.396234 
L 301.119759 183.846067 
M 315.663828 192.396234 
L 311.576947 174.615944 
M 315.663828 192.396234 
L 301.881139 205.122563 
M 328.760133 180.303437 
L 311.576947 174.615944 
M 328.760133 180.303437 
L 328.373015 164.570158 
M 328.760133 180.303437 
L 315.663828 192.396234 
M 300.246244 247.392 
L 278.174085 247.392 
M 295.000865 233.371469 
L 278.174085 247.392 
M 295.000865 233.371469 
L 272.127329 232.59509 
M 295.000865 233.371469 
L 287.378496 218.513134 
M 295.000865 233.371469 
L 300.246244 247.392 
M 310.839852 220.173742 
L 287.378496 218.513134 
M 310.839852 220.173742 
L 301.881139 205.122563 
M 310.839852 220.173742 
L 295.000865 233.371469 
M 353.032865 93.599058 
L 353.032865 81.80267 
M 353.032865 93.599058 
L 342.120707 98.992998 
M 364.32 91.187712 
L 353.032865 81.80267 
M 364.32 91.187712 
L 353.032865 93.599058 
M 364.32 77.117184 
L 353.032865 81.80267 
M 364.32 77.117184 
L 351.620813 64.855183 
M 364.32 77.117184 
L 364.32 91.187712 
M 364.32 63.046656 
L 351.620813 64.855183 
M 364.32 63.046656 
L 364.32 48.976128 
M 364.32 63.046656 
L 364.32 77.117184 
M 353.617114 109.524396 
L 342.120707 98.992998 
M 353.617114 109.524396 
L 340.107264 112.888466 
M 353.617114 109.524396 
L 353.032865 93.599058 
M 352.577894 123.452076 
L 340.107264 112.888466 
M 352.577894 123.452076 
L 337.270303 129.742387 
M 352.577894 123.452076 
L 353.617114 109.524396 
M 354.321354 143.931479 
L 337.270303 129.742387 
M 354.321354 143.931479 
L 334.434056 146.596308 
M 354.321354 143.931479 
L 352.577894 123.452076 
M 341.207194 168.810601 
L 334.434056 146.596308 
M 341.207194 168.810601 
L 328.373015 164.570158 
M 341.207194 168.810601 
L 328.760133 180.303437 
M 353.045722 157.879872 
L 334.434056 146.596308 
M 353.045722 157.879872 
L 354.321354 143.931479 
M 353.045722 157.879872 
L 341.207194 168.810601 
M 319.382162 206.324628 
L 301.881139 205.122563 
M 319.382162 206.324628 
L 315.663828 192.396234 
M 319.382162 206.324628 
L 310.839852 220.173742 
M 331.617093 194.131123 
L 315.663828 192.396234 
M 331.617093 194.131123 
L 328.760133 180.303437 
M 331.617093 194.131123 
L 319.382162 206.324628 
M 343.153498 182.634002 
L 328.760133 180.303437 
M 343.153498 182.634002 
L 341.207194 168.810601 
M 343.153498 182.634002 
L 331.617093 194.131123 
M 322.318403 247.392 
L 300.246244 247.392 
M 315.209572 233.915005 
L 300.246244 247.392 
M 315.209572 233.915005 
L 295.000865 233.371469 
M 315.209572 233.915005 
L 310.839852 220.173742 
M 315.209572 233.915005 
L 322.318403 247.392 
M 329.01726 221.477944 
L 310.839852 220.173742 
M 329.01726 221.477944 
L 319.382162 206.324628 
M 329.01726 221.477944 
L 315.209572 233.915005 
M 364.32 105.25824 
L 353.032865 93.599058 
M 364.32 105.25824 
L 364.32 91.187712 
M 364.32 105.25824 
L 353.617114 109.524396 
M 364.32 119.328768 
L 353.617114 109.524396 
M 364.32 119.328768 
L 352.577894 123.452076 
M 364.32 119.328768 
L 364.32 105.25824 
M 364.32 133.399296 
L 352.577894 123.452076 
M 364.32 133.399296 
L 354.321354 143.931479 
M 364.32 133.399296 
L 364.32 119.328768 
M 364.32 147.469824 
L 354.321354 143.931479 
M 364.32 147.469824 
L 353.045722 157.879872 
M 364.32 147.469824 
L 364.32 133.399296 
M 354.039229 171.786125 
L 341.207194 168.810601 
M 354.039229 171.786125 
L 353.045722 157.879872 
M 354.039229 171.786125 
L 343.153498 182.634002 
M 364.32 161.540352 
L 353.045722 157.879872 
M 364.32 161.540352 
L 364.32 147.469824 
M 364.32 161.540352 
L 354.039229 171.786125 
M 341.742874 200.903547 
L 319.382162 206.324628 
M 341.742874 200.903547 
L 331.617093 194.131123 
M 341.742874 200.903547 
L 343.153498 182.634002 
M 341.742874 200.903547 
L 329.01726 221.477944 
M 353.482836 187.751532 
L 343.153498 182.634002 
M 353.482836 187.751532 
L 354.039229 171.786125 
M 353.482836 187.751532 
L 341.742874 200.903547 
M 338.244526 230.844488 
L 322.318403 247.392 
M 338.244526 230.844488 
L 315.209572 233.915005 
M 338.244526 230.844488 
L 329.01726 221.477944 
M 344.254141 247.392 
L 322.318403 247.392 
M 344.254141 247.392 
L 338.244526 230.844488 
M 345.435494 215.629033 
L 329.01726 221.477944 
M 345.435494 215.629033 
L 341.742874 200.903547 
M 345.435494 215.629033 
L 338.244526 230.844488 
M 364.32 175.61088 
L 354.039229 171.786125 
M 364.32 175.61088 
L 364.32 161.540352 
M 364.32 175.61088 
L 353.482836 187.751532 
M 353.483551 199.442212 
L 341.742874 200.903547 
M 353.483551 199.442212 
L 353.482836 187.751532 
M 353.483551 199.442212 
L 345.435494 215.629033 
M 364.32 189.681408 
L 353.482836 187.751532 
M 364.32 189.681408 
L 364.32 175.61088 
M 364.32 189.681408 
L 353.483551 199.442212 
M 352.155064 226.386202 
L 338.244526 230.844488 
M 352.155064 226.386202 
L 344.254141 247.392 
M 352.155064 226.386202 
L 345.435494 215.629033 
M 364.32 247.392 
L 344.254141 247.392 
M 364.32 231.892992 
L 344.254141 247.392 
M 364.32 231.892992 
L 352.155064 226.386202 
M 364.32 231.892992 
L 364.32 247.392 
M 364.32 217.822464 
L 345.435494 215.629033 
M 364.32 217.822464 
L 352.155064 226.386202 
M 364.32 217.822464 
L 364.32 231.892992 
M 364.32 203.751936 
L 345.435494 215.629033 
M 364.32 203.751936 
L 353.483551 199.442212 
M 364.32 203.751936 
L 364.32 189.681408 
M 364.32 203.751936 
L 364.32 217.822464 
L 364.32 217.822464 
" style="fill:none;stroke:#000000;stroke-linecap:square;stroke-opacity:0.2;stroke-width:0.7;"/>
   </g>
   <g id="LineCollection_1">
    <path clip-path="url(#p32d0e8f356)" d="M 7.409188 33.12 
L 7.435144 33.509469 
L 7.435144 47.189074 
L 7.435144 58.924916 
L 7.450987 59.106403 
L 7.450987 70.922474 
L 7.474126 71.162543 
L 7.474126 82.820831 
L 7.49898 83.098916 
L 7.522191 83.589165 
L 7.522191 95.110394 
L 7.522191 106.631761 
L 7.554393 107.0883 
L 7.554393 118.629258 
L 7.592895 119.026868 
L 7.63806 119.661371 
L 7.63806 131.083011 
L 7.63806 142.503969 
L 7.719653 143.379836 
L 7.719653 154.653706 
L 7.8041 155.484846 
L 7.8041 166.659219 
L 7.903434 167.637768 
L 7.903434 178.504392 
L 8.033975 179.596365 
L 8.033975 190.350246 
L 8.188351 191.337559 
L 8.188351 201.461837 
L 8.415619 202.524017 
L 8.545268 203.500368 
L 8.545268 211.199472 
L 8.654872 211.778405 
" style="fill:none;stroke:#1f77b4;stroke-width:1.5;"/>
    <path clip-path="url(#p32d0e8f356)" d="M 42.80577 245.923637 
L 43.797484 246.090693 
L 56.69268 246.090693 
L 58.381605 246.205067 
L 59.125649 246.354748 
L 59.90731 246.540928 
L 78.758414 246.540928 
L 79.84329 246.727841 
L 100.919741 246.727841 
L 101.876701 246.865819 
L 123.083107 246.865819 
L 123.671666 246.929326 
L 124.060591 246.99016 
L 145.702165 246.99016 
L 146.088938 247.038922 
L 167.782763 247.038922 
L 189.476587 247.038922 
L 189.897177 247.077759 
L 211.666293 247.077759 
L 211.971398 247.103439 
L 233.764574 247.103439 
L 234.044735 247.122845 
L 255.857331 247.122845 
L 256.089792 247.136015 
L 256.369693 247.14476 
L 278.07305 247.14476 
L 278.459952 247.153808 
L 300.157131 247.153808 
L 300.504522 247.159377 
L 322.195699 247.159377 
L 322.538468 247.163349 
L 344.171101 247.163349 
L 344.339655 247.164648 
L 344.548253 247.164826 
L 364.32 247.164826 
" style="fill:none;stroke:#1f77b4;stroke-width:1.5;"/>
   </g>
   <g id="LineCollection_2">
    <path clip-path="url(#p32d0e8f356)" d="M 7.542628 33.12 
L 7.58514 33.757908 
L 7.58514 47.256807 
L 7.58514 58.837619 
L 7.61109 59.134875 
L 7.61109 70.847095 
L 7.648989 71.240302 
L 7.648989 82.694088 
L 7.689698 83.149562 
L 7.727714 83.952538 
L 7.727714 95.181837 
L 7.727714 106.41127 
L 7.780458 107.159032 
L 7.780458 118.420872 
L 7.843521 119.072115 
L 7.917495 120.111365 
L 7.917495 131.177319 
L 7.917495 142.242613 
L 8.051136 143.67719 
L 8.051136 154.501112 
L 8.189451 155.862431 
L 8.189451 166.523845 
L 8.35215 168.126604 
L 8.35215 178.283502 
L 8.565962 180.072037 
L 8.565962 190.044729 
L 8.818814 191.661843 
L 8.818814 201.003337 
L 9.191055 202.743076 
L 9.403406 204.342234 
L 9.403406 210.892946 
L 9.582925 211.841177 
" style="fill:none;stroke:#1f77b4;stroke-width:1.5;"/>
    <path clip-path="url(#p32d0e8f356)" d="M 42.738007 244.986978 
L 44.362329 245.260597 
L 55.065192 245.260597 
L 57.831473 245.447929 
L 59.050137 245.693092 
L 60.330415 245.998035 
L 78.269177 245.998035 
L 80.046088 246.304178 
L 100.487385 246.304178 
L 102.054782 246.530172 
L 122.70893 246.530172 
L 123.672928 246.634188 
L 124.309945 246.733828 
L 145.676851 246.733828 
L 146.310346 246.813696 
L 167.762833 246.813696 
L 189.21532 246.813696 
L 189.904202 246.877307 
L 211.480009 246.877307 
L 211.979739 246.919368 
L 233.595409 246.919368 
L 234.054283 246.951153 
L 255.701306 246.951153 
L 256.082052 246.972724 
L 256.5405 246.987047 
L 278.008601 246.987047 
L 278.642304 247.001867 
L 300.100287 247.001867 
L 300.669276 247.010989 
L 322.117427 247.010989 
L 322.678846 247.017493 
L 344.118131 247.017493 
L 344.394204 247.019622 
L 344.735865 247.019914 
L 364.32 247.019914 
" style="fill:none;stroke:#1f77b4;stroke-width:1.5;"/>
   </g>
   <g id="LineCollection_3">
    <path clip-path="url(#p32d0e8f356)" d="M 7.761189 33.12 
L 7.830819 34.164826 
L 7.830819 47.367746 
L 7.830819 58.694636 
L 7.873322 59.18151 
L 7.873322 70.723631 
L 7.935396 71.367662 
L 7.935396 82.486496 
L 8.002074 83.232514 
L 8.06434 84.547704 
L 8.06434 95.298852 
L 8.06434 106.050129 
L 8.150728 107.274884 
L 8.150728 118.079559 
L 8.254019 119.146226 
L 8.375181 120.848407 
L 8.375181 131.331785 
L 8.375181 141.814539 
L 8.59407 144.164223 
L 8.59407 154.25118 
L 8.820616 156.480877 
L 8.820616 166.302116 
L 9.087099 168.927265 
L 9.087099 177.921707 
L 9.4373 180.851138 
L 9.4373 189.544326 
L 9.851445 192.192986 
L 9.851445 200.252363 
L 10.461136 203.101871 
L 10.808945 205.721121 
L 10.808945 210.39089 
L 11.102978 211.94399 
" style="fill:none;stroke:#1f77b4;stroke-width:1.5;"/>
    <path clip-path="url(#p32d0e8f356)" d="M 42.627018 243.452829 
L 45.287484 243.900989 
L 52.399539 243.900989 
L 56.930414 244.207819 
L 58.926457 244.609369 
L 61.023415 245.108834 
L 77.467859 245.108834 
L 80.37825 245.610263 
L 99.77923 245.610263 
L 102.346461 245.980417 
L 122.096068 245.980417 
L 123.674995 246.150785 
L 124.718361 246.313985 
L 145.635391 246.313985 
L 146.672987 246.444799 
L 167.73019 246.444799 
L 188.787392 246.444799 
L 189.915707 246.548987 
L 211.174896 246.548987 
L 211.9934 246.617879 
L 233.318335 246.617879 
L 234.069921 246.66994 
L 255.445752 246.66994 
L 256.069374 246.705271 
L 256.820263 246.72873 
L 277.90304 246.72873 
L 278.940978 246.753004 
L 300.007182 246.753004 
L 300.939125 246.767944 
L 321.989226 246.767944 
L 322.90877 246.778598 
L 344.03137 246.778598 
L 344.483549 246.782084 
L 345.043153 246.782562 
L 364.32 246.782562 
" style="fill:none;stroke:#1f77b4;stroke-width:1.5;"/>
   </g>
   <g id="LineCollection_4">
    <path clip-path="url(#p32d0e8f356)" d="M 8.119168 33.12 
L 8.233214 34.831314 
L 8.233214 47.549453 
L 8.233214 58.460445 
L 8.302829 59.257892 
L 8.302829 70.521409 
L 8.4045 71.576264 
L 8.4045 82.146483 
L 8.513711 83.368382 
L 8.615696 85.522522 
L 8.615696 95.49051 
L 8.615696 105.458618 
L 8.757192 107.464636 
L 8.757192 117.520525 
L 8.926371 119.267612 
L 9.124821 122.055603 
L 9.124821 131.584785 
L 9.124821 141.113399 
L 9.483339 144.961932 
L 9.483339 153.841818 
L 9.854396 157.493824 
L 9.854396 165.938949 
L 10.290868 170.238664 
L 10.290868 177.329126 
L 10.86446 182.127222 
L 10.86446 188.724718 
L 11.542786 193.062942 
L 11.542786 199.022348 
L 12.541394 203.689539 
L 13.111069 207.979593 
L 13.111069 209.568575 
L 13.272901 210.423384 
L 13.671019 212.323245 
" style="fill:none;stroke:#1f77b4;stroke-width:1.5;"/>
    <path clip-path="url(#p32d0e8f356)" d="M 42.262771 240.871243 
L 45.80979 241.506822 
L 46.802791 241.674095 
L 48.033484 241.674095 
L 55.454575 242.17665 
L 58.723881 242.834346 
L 62.158476 243.652416 
L 76.155385 243.652416 
L 80.922296 244.473705 
L 98.619348 244.473705 
L 102.824199 245.079977 
L 121.092266 245.079977 
L 123.67838 245.359022 
L 125.387303 245.626326 
L 145.567484 245.626326 
L 147.266956 245.840586 
L 167.676724 245.840586 
L 188.086492 245.840586 
L 189.934553 246.011234 
L 210.675152 246.011234 
L 212.015775 246.124072 
L 232.864516 246.124072 
L 234.095534 246.209343 
L 255.027183 246.209343 
L 256.048609 246.26721 
L 257.278486 246.305634 
L 277.730142 246.305634 
L 279.430174 246.345392 
L 299.854686 246.345392 
L 301.38111 246.369862 
L 321.779247 246.369862 
L 323.285362 246.387313 
L 343.889266 246.387313 
L 344.629887 246.393022 
L 345.546458 246.393806 
L 364.32 246.393806 
" style="fill:none;stroke:#1f77b4;stroke-width:1.5;"/>
   </g>
   <g id="LineCollection_5">
    <path clip-path="url(#p32d0e8f356)" d="M 8.705499 33.12 
L 8.892295 35.922951 
L 8.892295 47.847069 
L 8.892295 58.076864 
L 9.006317 59.382998 
L 9.006317 70.190193 
L 9.172843 71.917933 
L 9.172843 81.589578 
L 9.351719 83.590918 
L 9.51876 87.119171 
L 9.51876 95.804427 
L 9.51876 104.489786 
L 9.750515 107.775431 
L 9.750515 116.604886 
L 10.027612 119.466428 
L 10.352652 124.032861 
L 10.352652 131.999172 
L 10.352652 139.965007 
L 10.939866 146.268495 
L 10.939866 153.171327 
L 11.547619 159.152924 
L 11.547619 165.344119 
L 12.262514 172.386595 
L 12.262514 176.35854 
L 13.201996 184.217311 
L 13.201996 187.382288 
L 14.313021 194.487838 
L 14.313021 197.007714 
L 15.948636 204.652077 
L 16.226034 206.741084 
L 17.025372 209.527455 
L 17.545016 211.86801 
L 18.151653 213.450636 
" style="fill:none;stroke:#1f77b4;stroke-width:1.5;"/>
    <path clip-path="url(#p32d0e8f356)" d="M 41.111143 236.356089 
L 42.393096 236.847336 
L 45.563127 237.480142 
L 49.092997 238.582702 
L 53.037308 238.84981 
L 58.392084 239.927047 
L 64.017585 241.266959 
L 74.005693 241.266959 
L 81.813386 242.612143 
L 96.719585 242.612143 
L 103.606684 243.605151 
L 119.448144 243.605151 
L 123.683924 244.062198 
L 126.482958 244.500013 
L 145.456258 244.500013 
L 148.239813 244.850949 
L 167.589153 244.850949 
L 186.938492 244.850949 
L 189.965419 245.130452 
L 209.856626 245.130452 
L 212.052423 245.315268 
L 232.121209 245.315268 
L 234.137487 245.454933 
L 254.341611 245.454933 
L 256.014598 245.549714 
L 258.029006 245.612648 
L 277.446953 245.612648 
L 280.231426 245.677768 
L 299.604913 245.677768 
L 302.105033 245.717847 
L 321.435322 245.717847 
L 323.902179 245.746429 
L 343.656514 245.746429 
L 344.869573 245.755781 
L 346.370819 245.757064 
L 364.32 245.757064 
" style="fill:none;stroke:#1f77b4;stroke-width:1.5;"/>
   </g>
   <g id="LineCollection_6">
    <path clip-path="url(#p32d0e8f356)" d="M 9.665848 33.12 
L 9.9718 37.710936 
L 9.9718 48.334532 
L 9.9718 57.4486 
L 10.158555 59.587909 
L 10.158555 69.647695 
L 10.431306 72.477549 
L 10.431306 80.677427 
L 10.724287 83.955409 
L 10.997883 89.734312 
L 10.997883 96.318588 
L 10.997883 102.902943 
L 11.377472 108.284481 
L 11.377472 115.105167 
L 11.831327 119.792069 
L 12.363709 127.271401 
L 12.363709 132.677893 
L 12.363709 138.084063 
L 13.325503 148.408505 
L 13.325503 152.073133 
L 14.320938 161.870353 
L 14.320938 164.36985 
L 15.126024 172.300807 
L 15.461379 175.004303 
L 15.708587 176.085353 
L 16.894022 185.619258 
L 17.477392 188.109089 
L 18.331137 193.579187 
L 19.804737 198.93888 
L 20.403053 201.796286 
L 21.880261 205.964558 
L 22.599936 208.162322 
L 24.205247 211.567984 
L 24.820445 212.997765 
L 25.927443 214.874942 
L 26.911763 216.614961 
L 28.548028 218.816764 
" style="fill:none;stroke:#1f77b4;stroke-width:1.5;"/>
    <path clip-path="url(#p32d0e8f356)" d="M 35.674674 225.915786 
L 37.918972 227.572783 
L 40.169362 228.982782 
L 43.011953 230.227938 
L 45.333481 231.495764 
L 50.108958 233.016228 
L 53.355839 234.261371 
L 57.848635 235.165201 
L 67.062609 237.359834 
L 70.484725 237.359834 
L 83.272896 239.563102 
L 93.607975 239.563102 
L 104.888312 241.189544 
L 116.755248 241.189544 
L 123.693005 241.938139 
L 128.277525 242.655232 
L 145.274083 242.655232 
L 149.83325 243.230028 
L 167.44572 243.230028 
L 185.05819 243.230028 
L 190.015975 243.687825 
L 208.515966 243.687825 
L 212.112448 243.990534 
L 230.903752 243.990534 
L 234.2062 244.219291 
L 253.218716 244.219291 
L 255.958892 244.374531 
L 259.258278 244.477611 
L 276.98312 244.477611 
L 281.543791 244.58427 
L 299.195812 244.58427 
L 303.290743 244.649916 
L 320.872011 244.649916 
L 324.91246 244.69673 
L 343.275291 244.69673 
L 345.262154 244.712047 
L 347.721034 244.714148 
L 364.32 244.714148 
" style="fill:none;stroke:#1f77b4;stroke-width:1.5;"/>
   </g>
   <g id="LineCollection_7">
    <path clip-path="url(#p32d0e8f356)" d="M 11.238797 33.12 
L 11.739914 40.639464 
L 11.739914 49.132945 
L 11.739914 56.41957 
L 12.045799 59.923531 
L 12.045799 68.759142 
L 12.492536 73.394142 
L 12.492536 79.183421 
L 12.972408 84.552407 
L 13.420529 94.017635 
L 13.420529 97.16073 
L 13.420529 100.303863 
L 14.042255 109.118249 
L 14.042255 112.648787 
L 14.785622 120.325434 
L 15.657606 132.575784 
L 15.657606 133.789566 
L 15.657606 135.003276 
L 16.327812 142.197647 
L 17.143349 150.369421 
L 17.496768 152.150321 
L 18.601411 162.543963 
L 19.652976 167.095297 
L 20.526206 174.134915 
L 22.594203 183.17834 
L 22.652958 183.650877 
L 22.77534 184.173206 
L 25.436355 192.932335 
L 26.056665 195.261362 
L 28.919757 201.54789 
L 29.674906 203.294784 
L 33.294545 209.311354 
L 33.754682 209.891417 
L 36.521836 212.975249 
L 39.709649 216.701502 
L 40.132265 217.117282 
L 40.607863 217.470348 
L 45.447503 221.543321 
L 48.547517 223.164694 
L 51.975011 225.36288 
L 57.717342 227.549861 
L 64.396196 229.141418 
L 69.591141 231.399859 
L 80.154006 233.619883 
L 85.663419 234.569097 
L 88.511488 234.569097 
L 106.987481 237.233037 
L 112.34457 237.233037 
L 123.707878 238.459155 
L 131.216835 239.633678 
L 144.975699 239.633678 
L 152.443131 240.575132 
L 167.210793 240.575132 
L 181.978456 240.575132 
L 190.098781 241.324955 
L 206.320108 241.324955 
L 212.210763 241.82076 
L 228.909686 241.82076 
L 234.318745 242.195439 
L 251.379535 242.195439 
L 255.867651 242.449707 
L 261.271696 242.618541 
L 276.223411 242.618541 
L 283.693305 242.793236 
L 298.525749 242.793236 
L 305.23281 242.900758 
L 319.949367 242.900758 
L 326.567193 242.977435 
L 342.650889 242.977435 
L 345.905158 243.002522 
L 349.932543 243.005964 
L 364.32 243.005964 
" style="fill:none;stroke:#1f77b4;stroke-width:1.5;"/>
   </g>
   <g id="LineCollection_8">
    <path clip-path="url(#p32d0e8f356)" d="M 13.815119 33.12 
L 14.635896 45.436083 
L 14.635896 50.440662 
L 14.635896 54.734129 
L 15.136904 60.473243 
L 15.136904 67.303785 
L 15.868612 74.895423 
L 15.868612 76.736397 
L 16.654591 85.530225 
L 17.163901 96.2879 
L 17.444217 98.266917 
L 18.207365 108.809376 
L 18.417582 110.038089 
L 18.826616 112.959986 
L 19.624442 121.199028 
L 20.173683 128.915222 
L 21.333916 135.464345 
L 22.586494 143.096218 
L 23.068586 147.926832 
L 25.294976 159.145758 
L 25.310066 159.287739 
L 25.421607 159.770507 
L 28.358548 171.877253 
L 30.850911 178.068215 
L 32.483471 183.451366 
L 33.515051 186.638316 
L 36.258625 191.585738 
L 39.00295 196.424055 
L 45.755948 205.275867 
L 49.375987 208.855774 
L 53.570396 212.749554 
L 58.766637 215.614659 
L 66.323167 219.570004 
L 71.852942 221.974008 
L 76.696971 222.99209 
L 90.199828 227.543762 
L 103.804796 229.572538 
L 112.562581 231.555727 
L 123.73224 232.76095 
L 136.031113 234.684694 
L 144.486979 234.684694 
L 156.717837 236.226695 
L 166.826008 236.226695 
L 176.934179 236.226695 
L 190.234407 237.454825 
L 202.723526 237.454825 
L 212.371793 238.266901 
L 225.643618 238.266901 
L 234.503081 238.880586 
L 248.367151 238.880586 
L 255.718209 239.29705 
L 264.569459 239.573581 
L 274.979089 239.573581 
L 287.21398 239.859714 
L 297.428256 239.859714 
L 308.41371 240.035823 
L 318.438174 240.035823 
L 329.27747 240.161411 
L 341.628184 240.161411 
L 346.958331 240.202502 
L 353.554759 240.208138 
L 364.32 240.208138 
" style="fill:none;stroke:#1f77b4;stroke-width:1.5;"/>
   </g>
   <g id="LineCollection_9">
    <path clip-path="url(#p32d0e8f356)" d="M 18.034863 33.12 
L 19.250257 51.357494 
L 19.357978 52.17797 
L 19.49947 53.351188 
L 20.199804 61.373614 
L 20.199804 64.920067 
L 20.719883 70.316001 
L 21.446086 75.766781 
L 22.352299 83.402523 
L 22.685615 87.131787 
L 22.831251 90.207918 
L 24.149506 99.514717 
L 24.408531 103.092998 
L 25.617185 110.157557 
L 26.943762 119.633853 
L 27.880463 123.331355 
L 30.080521 135.492331 
L 31.17641 139.005055 
L 32.567199 145.530815 
L 33.5631 150.876029 
L 37.361686 160.259024 
L 38.824886 164.770711 
L 44.69064 176.544606 
L 45.263521 177.897023 
L 45.962441 178.981959 
L 53.47918 190.077428 
L 57.932999 194.472833 
L 65.180445 201.332663 
L 69.888079 204.179294 
L 80.373423 210.437481 
L 83.776161 211.606042 
L 96.534416 216.975172 
L 121.689091 222.745878 
L 123.772087 223.440322 
L 124.566639 223.687071 
L 143.686124 226.574829 
L 143.876327 226.623547 
L 145.388159 226.793318 
L 163.719352 229.104417 
L 166.19577 229.104417 
L 168.672188 229.104417 
L 190.45655 231.115964 
L 196.832707 231.115964 
L 212.635543 232.446057 
L 220.294145 232.446057 
L 234.805005 233.451209 
L 243.433186 233.451209 
L 255.473438 234.133332 
L 269.970844 234.586261 
L 272.941021 234.586261 
L 292.980472 235.054916 
L 295.630679 235.054916 
L 313.623685 235.343363 
L 315.963001 235.343363 
L 333.716615 235.549064 
L 339.953103 235.549064 
L 348.683317 235.616366 
L 359.487565 235.625598 
L 364.32 235.625598 
" style="fill:none;stroke:#1f77b4;stroke-width:1.5;"/>
   </g>
   <g id="LineCollection_10">
    <path clip-path="url(#p32d0e8f356)" d="M 24.946353 33.12 
L 25.3191 38.713225 
L 26.847114 50.351646 
L 27.834093 58.535422 
L 28.556874 62.506837 
L 29.481348 67.66837 
L 30.612566 76.15914 
L 31.212742 81.216218 
L 33.735258 91.803853 
L 34.766587 99.079062 
L 36.716588 108.110547 
L 37.656498 110.962121 
L 40.804249 123.707539 
L 42.759439 128.545131 
L 45.768402 138.481611 
L 51.313151 149.670304 
L 53.091689 154.274864 
L 57.770937 161.810314 
L 61.708129 168.122958 
L 71.739578 179.571158 
L 72.236676 180.09059 
L 85.702758 191.028921 
L 86.695103 191.725139 
L 102.17271 200.321346 
L 110.846398 203.999466 
L 123.836687 208.330258 
L 135.916327 212.081607 
L 142.351388 213.053542 
L 154.312423 216.117144 
L 165.154644 217.334675 
L 183.323236 219.418945 
L 190.818311 220.796348 
L 211.239963 222.635806 
L 213.066358 222.939249 
L 234.515813 224.504179 
L 235.299525 224.558466 
L 235.351877 224.558466 
L 255.072529 225.675711 
L 257.665842 225.756731 
L 271.862293 226.437054 
L 278.447541 226.759409 
L 291.770272 227.074052 
L 302.113217 227.445151 
L 313.209396 227.625143 
L 321.972341 227.823545 
L 335.403761 227.960844 
L 339.576095 228.027004 
L 346.903653 228.069263 
L 351.508661 228.104764 
L 355.959907 228.108567 
L 364.32 228.136034 
" style="fill:none;stroke:#1f77b4;stroke-width:1.5;"/>
   </g>
   <g id="LineCollection_11">
    <path clip-path="url(#p32d0e8f356)" d="M 36.344945 33.12 
L 38.112386 44.742321 
L 39.321363 48.853338 
L 41.299984 56.964013 
L 42.449558 63.280495 
L 43.333085 68.213409 
L 46.951872 79.937656 
L 50.083321 92.349665 
L 52.456078 98.232067 
L 55.575676 107.854735 
L 59.57325 116.049923 
L 61.960229 122.236497 
L 68.613345 133.372259 
L 71.826039 139.28009 
L 79.208289 148.351794 
L 83.916326 154.939603 
L 88.482438 159.48692 
L 95.554051 166.180807 
L 102.473532 171.150496 
L 117.280599 180.720249 
L 123.941119 183.96944 
L 135.716986 189.392906 
L 140.148229 190.739711 
L 152.303381 195.4762 
L 163.443041 197.987321 
L 170.451694 199.930839 
L 184.449937 202.796045 
L 191.404852 204.07418 
L 194.021787 204.309898 
L 213.762346 207.589653 
L 220.007516 208.045294 
L 236.095341 210.239607 
L 243.893108 210.698944 
L 254.418547 211.887547 
L 268.177215 212.950724 
L 271.288271 213.099812 
L 277.239474 213.39113 
L 287.201932 214.036353 
L 291.936308 214.304818 
L 307.690401 214.882475 
L 313.936103 215.153984 
L 325.162796 215.41595 
L 332.625113 215.644873 
L 344.987548 215.788612 
L 345.357305 215.794475 
L 345.539496 215.795526 
L 346.929304 215.802539 
L 364.32 215.910451 
" style="fill:none;stroke:#1f77b4;stroke-width:1.5;"/>
   </g>
   <g id="LineCollection_12">
    <path clip-path="url(#p32d0e8f356)" d="M 55.132149 33.12 
L 59.213419 46.040138 
L 60.1428 49.200413 
L 60.332168 49.976662 
L 66.979359 67.323908 
L 68.170091 71.023335 
L 77.654518 90.406221 
L 77.849269 90.89247 
L 78.537067 92.082311 
L 89.273234 109.890027 
L 97.104273 119.438773 
L 99.597146 123.109273 
L 103.235014 126.850344 
L 113.516774 137.368274 
L 124.104708 145.755683 
L 129.192521 149.500441 
L 136.521553 154.002208 
L 143.258074 158.446691 
L 156.010993 164.205896 
L 158.939293 165.744867 
L 160.641631 166.321721 
L 175.517567 172.127527 
L 176.40823 172.394167 
L 184.664978 174.929566 
L 192.340951 177.379255 
L 195.972568 178.314993 
L 214.878308 182.962015 
L 232.273584 186.357173 
L 235.22898 186.753323 
L 238.2513 187.106858 
L 253.356757 189.498992 
L 266.32088 191.098343 
L 270.355571 191.487017 
L 278.146562 192.15213 
L 286.373344 193.008384 
L 290.35246 193.345541 
L 301.488526 194.151113 
L 313.055845 194.804331 
L 316.345307 194.948963 
L 330.218092 195.525388 
L 333.842317 195.619419 
L 342.130565 195.882409 
L 346.171425 195.942341 
L 353.483343 196.04412 
L 357.235109 196.06304 
L 364.32 196.111051 
" style="fill:none;stroke:#1f77b4;stroke-width:1.5;"/>
   </g>
   <g id="LineCollection_13">
    <path clip-path="url(#p32d0e8f356)" d="M 86.795068 33.12 
L 91.242346 42.651167 
L 95.501668 49.350602 
L 99.426855 56.652256 
L 107.207363 67.834743 
L 109.54852 71.171207 
L 115.025733 77.538404 
L 121.252684 85.717749 
L 124.348492 88.781209 
L 133.109106 97.802477 
L 140.054961 103.68868 
L 145.908325 108.626542 
L 156.177021 115.85319 
L 159.644256 118.402713 
L 165.131696 121.388636 
L 174.282033 127.193156 
L 180.716571 130.14458 
L 190.267075 134.670891 
L 201.125616 138.924186 
L 206.756292 141.210089 
L 216.614608 144.661334 
L 226.532072 147.64062 
L 233.378359 149.501659 
L 249.058818 153.082338 
L 251.661669 153.749313 
L 252.844809 153.997905 
L 268.883535 157.075609 
L 277.987345 158.49136 
L 285.09871 159.505054 
L 302.102209 161.441263 
L 302.71703 161.505148 
L 303.163328 161.536498 
L 315.278437 162.756771 
L 327.614441 163.447835 
L 328.724195 163.528744 
L 339.76403 164.077365 
L 346.149815 164.246989 
L 353.514447 164.440681 
L 361.360844 164.489434 
L 364.32 164.518947 
" style="fill:none;stroke:#1f77b4;stroke-width:1.5;"/>
   </g>
   <g id="LineCollection_14">
    <path clip-path="url(#p32d0e8f356)" d="M 142.764767 33.12 
L 149.503149 40.417654 
L 157.624119 48.620425 
L 166.445841 55.412645 
L 170.845927 59.479444 
L 175.441593 62.694088 
L 184.823556 69.538253 
L 195.889576 76.175203 
L 208.510123 82.659186 
L 219.178929 88.086346 
L 231.144654 92.892099 
L 233.306923 93.834357 
L 234.112303 94.130873 
L 249.087354 99.464343 
L 262.779759 103.257983 
L 270.880296 105.500205 
L 281.155899 107.628344 
L 286.959397 108.928169 
L 296.691911 110.748604 
L 311.158108 112.723528 
L 313.614971 113.056721 
L 318.494351 113.518695 
L 327.139346 114.464256 
L 334.200857 114.940465 
L 339.690709 115.363149 
L 343.175691 115.487666 
L 353.139009 115.931976 
L 360.683652 115.997693 
L 364.32 116.061121 
" style="fill:none;stroke:#1f77b4;stroke-width:1.5;"/>
   </g>
   <g id="LineCollection_15">
    <path clip-path="url(#p32d0e8f356)" d="M 272.332485 33.12 
L 291.663195 38.653338 
L 301.844351 40.723988 
L 314.527711 43.230023 
L 322.117099 44.420033 
L 335.103802 45.919007 
L 346.511199 46.584979 
L 350.961128 46.746311 
L 364.32 47.054699 
" style="fill:none;stroke:#1f77b4;stroke-width:1.5;"/>
   </g>
   <g id="line2d_2"/>
   <g id="line2d_3">
    <path d="M 364.32 247.392 
L 364.32 231.892992 
L 364.32 217.822464 
L 364.32 203.751936 
L 364.32 189.681408 
L 364.32 175.61088 
L 364.32 161.540352 
L 364.32 147.469824 
L 364.32 133.399296 
L 364.32 119.328768 
L 364.32 105.25824 
L 364.32 91.187712 
L 364.32 77.117184 
L 364.32 63.046656 
L 364.32 48.976128 
L 364.32 33.12 
" style="fill:none;stroke:#000000;stroke-linecap:square;stroke-width:1.5;"/>
   </g>
   <g id="line2d_4">
    <path d="M 42.912 247.392 
L 59.244026 247.392 
L 79.525371 247.392 
L 101.59753 247.392 
L 123.669688 247.392 
L 145.741847 247.392 
L 167.814006 247.392 
L 189.886164 247.392 
L 211.958323 247.392 
L 234.029768 247.392 
L 256.101926 247.392 
L 278.174085 247.392 
L 300.246244 247.392 
L 322.318403 247.392 
L 344.254141 247.392 
L 364.32 247.392 
" style="fill:none;stroke:#000000;stroke-linecap:square;stroke-width:1.5;"/>
   </g>
   <g id="line2d_5">
    <path d="M 7.2 211.68 
L 12.004671 212.004979 
L 15.77788 212.725647 
L 19.451787 213.847718 
L 22.98399 215.357622 
L 26.333561 217.238216 
L 29.461718 219.468073 
L 32.33232 222.020767 
L 34.912083 224.867013 
L 37.171225 227.973957 
L 39.083602 231.305172 
L 40.627003 234.822804 
L 41.783715 238.486141 
L 42.540167 242.252329 
L 42.912 247.392 
" style="fill:none;stroke:#000000;stroke-linecap:square;stroke-width:1.5;"/>
   </g>
   <g id="line2d_6">
    <path d="M 7.2 33.12 
L 7.2 47.082892 
L 7.2 59.061768 
L 7.2 71.040644 
L 7.2 83.019521 
L 7.2 94.998397 
L 7.2 106.977416 
L 7.2 118.955935 
L 7.2 130.935168 
L 7.2 142.913687 
L 7.2 154.89292 
L 7.2 166.871439 
L 7.2 178.850673 
L 7.2 190.829192 
L 7.2 202.180608 
L 7.2 211.68 
" style="fill:none;stroke:#000000;stroke-linecap:square;stroke-width:1.5;"/>
   </g>
   <g id="line2d_7">
    <path d="M 364.32 33.12 
L 342.745667 33.12 
L 318.754345 33.12 
L 294.483041 33.12 
L 270.212452 33.12 
L 245.941148 33.12 
L 221.670559 33.12 
L 197.399255 33.12 
L 173.128666 33.12 
L 148.857362 33.12 
L 124.586772 33.12 
L 100.315469 33.12 
L 76.044808 33.12 
L 51.773861 33.12 
L 28.003668 33.12 
L 7.2 33.12 
" style="fill:none;stroke:#000000;stroke-linecap:square;stroke-width:1.5;"/>
   </g>
  </g>
 </g>
 <defs>
  <clipPath id="p32d0e8f356">
   <rect height="266.112" width="357.12" x="7.2" y="7.2"/>
  </clipPath>
 </defs>
</svg>
