<?xml version="1.0" encoding="utf-8" standalone="no"?>
<!DOCTYPE svg PUBLIC "-//W3C//DTD SVG 1.1//EN"
  "http://www.w3.org/Graphics/SVG/1.1/DTD/svg11.dtd">
<!-- Created with matplotlib (https://matplotlib.org/) -->
<svg height="177.224007pt" version="1.1" viewBox="0 0 516.6 177.224007" width="516.6pt" xmlns="http://www.w3.org/2000/svg" xmlns:xlink="http://www.w3.org/1999/xlink">
 <defs>
  <style type="text/css">
*{stroke-linecap:butt;stroke-linejoin:round;}
  </style>
 </defs>
 <g id="figure_1">
  <g id="patch_1">
   <path d="M 0 177.224007 
L 516.6 177.224007 
L 516.6 0 
L 0 0 
z
" style="fill:#ffffff;"/>
  </g>
  <g id="axes_1">
   <g id="PathCollection_1">
    <path clip-path="url(#peec00cafcc)" d="M 38.524398 170.024007 
L 38.146155 170.023963 
L 36.492059 170.024007 
L 38.146155 170.024007 
M 55.059647 170.024007 
L 53.67727 170.021207 
L 53.67399 170.021209 
L 53.671812 170.021212 
L 48.026104 170.024007 
L 53.673588 170.024007 
M 70.491677 170.024007 
L 66.332253 169.97679 
L 66.282353 169.976518 
L 66.238277 169.976707 
L 61.81686 170.024007 
L 66.282353 170.024007 
M 82.454286 170.024007 
L 77.760561 170.021007 
L 77.756599 170.020999 
L 76.511092 170.024007 
L 77.759824 170.024007 
M 92.062499 170.024007 
L 90.3702 170.023937 
L 90.370117 170.023937 
L 89.941925 170.024007 
L 90.370154 170.024007 
" style="fill:#48186a;"/>
   </g>
   <g id="PathCollection_2">
    <path clip-path="url(#peec00cafcc)" d="M 36.492059 170.024007 
L 38.146155 170.023963 
L 38.524398 170.024007 
L 46.195387 170.024007 
L 48.026104 170.024007 
L 53.671812 170.021212 
L 53.67399 170.021209 
L 53.67727 170.021207 
L 55.059647 170.024007 
L 60.74161 170.024007 
L 61.81686 170.024007 
L 66.238277 169.976707 
L 66.282353 169.976518 
L 66.332253 169.97679 
L 70.491677 170.024007 
L 71.548777 170.024007 
L 76.511092 170.024007 
L 77.756599 170.020999 
L 77.760561 170.021007 
L 82.454286 170.024007 
L 83.988522 170.024007 
L 89.941925 170.024007 
L 90.370117 170.023937 
L 90.3702 170.023937 
L 92.062499 170.024007 
L 97.002665 170.024007 
L 103.917073 170.024007 
L 111.373414 170.024007 
L 119.630025 170.024007 
L 128.900194 170.024007 
L 140.179901 170.024007 
L 154.905882 170.024007 
L 154.905882 156.148207 
L 154.905882 147.218837 
L 147.996875 147.209752 
L 146.109693 147.208299 
L 145.259543 147.204844 
L 138.185757 147.188314 
L 132.011464 147.15614 
L 130.306083 147.150247 
L 127.021303 147.130033 
L 122.271492 147.100559 
L 120.169365 147.08146 
L 114.632677 147.042866 
L 111.934183 147.01688 
L 109.1197 146.98635 
L 104.537839 146.949422 
L 99.857768 146.902948 
L 99.221648 146.895347 
L 93.333191 146.837829 
L 92.728569 146.830307 
L 89.511157 146.799046 
L 86.770296 146.773079 
L 86.309035 146.769904 
L 83.651973 146.746814 
L 79.770761 146.712379 
L 79.023715 146.704859 
L 77.989618 146.696754 
L 73.342903 146.663643 
L 69.860549 146.64263 
L 69.560832 146.641066 
L 69.309859 146.640022 
L 67.586196 146.629604 
L 66.772522 146.625516 
L 66.282353 146.623262 
L 65.374452 146.623532 
L 64.908907 146.623494 
L 64.501132 146.623995 
L 62.840721 146.624062 
L 60.577161 146.626529 
L 59.103254 146.627684 
L 54.548692 146.637508 
L 54.294597 146.638524 
L 49.632284 146.650421 
L 46.42947 146.665465 
L 42.595273 146.678834 
L 39.943909 146.69286 
L 34.070564 146.718777 
L 32.719589 146.724103 
L 32.121723 146.725652 
L 25.903149 146.749026 
L 23.277435 146.759159 
L 23.016992 146.760365 
L 22.323634 146.761827 
L 15.201316 146.779376 
L 10.199912 146.782 
L 7.2 146.786021 
L 7.2 148.208439 
L 7.2 158.540274 
L 7.2 170.024007 
L 19.034786 170.024007 
L 29.218516 170.024007 
" style="fill:#424086;"/>
   </g>
   <g id="PathCollection_3">
    <path clip-path="url(#peec00cafcc)" d="M 7.2 146.786021 
L 10.199912 146.782 
L 15.201316 146.779376 
L 22.323634 146.761827 
L 23.016992 146.760365 
L 23.277435 146.759159 
L 25.903149 146.749026 
L 32.121723 146.725652 
L 32.719589 146.724103 
L 34.070564 146.718777 
L 39.943909 146.69286 
L 42.595273 146.678834 
L 46.42947 146.665465 
L 49.632284 146.650421 
L 54.294597 146.638524 
L 54.548692 146.637508 
L 59.103254 146.627684 
L 60.577161 146.626529 
L 62.840721 146.624062 
L 64.501132 146.623995 
L 64.908907 146.623494 
L 65.374452 146.623532 
L 66.282353 146.623262 
L 66.772522 146.625516 
L 67.586196 146.629604 
L 69.309859 146.640022 
L 69.560832 146.641066 
L 69.860549 146.64263 
L 73.342903 146.663643 
L 77.989618 146.696754 
L 79.023715 146.704859 
L 79.770761 146.712379 
L 83.651973 146.746814 
L 86.309035 146.769904 
L 86.770296 146.773079 
L 89.511157 146.799046 
L 92.728569 146.830307 
L 93.333191 146.837829 
L 99.221648 146.895347 
L 99.857768 146.902948 
L 104.537839 146.949422 
L 109.1197 146.98635 
L 111.934183 147.01688 
L 114.632677 147.042866 
L 120.169365 147.08146 
L 122.271492 147.100559 
L 127.021303 147.130033 
L 130.306083 147.150247 
L 132.011464 147.15614 
L 138.185757 147.188314 
L 145.259543 147.204844 
L 146.109693 147.208299 
L 147.996875 147.209752 
L 154.905882 147.218837 
L 154.905882 144.706481 
L 154.905882 134.703247 
L 154.905882 125.877526 
L 154.905882 124.529424 
L 152.247607 124.522682 
L 145.727345 124.51154 
L 140.10358 124.472958 
L 137.956531 124.46172 
L 136.121489 124.444483 
L 131.64837 124.402398 
L 126.415184 124.334158 
L 125.452133 124.321842 
L 124.830311 124.311231 
L 121.799247 124.262415 
L 119.361964 124.225676 
L 114.507756 124.134891 
L 113.739654 124.122041 
L 108.867754 124.016362 
L 107.886098 123.997939 
L 102.806599 123.875363 
L 102.768602 123.874612 
L 102.580624 123.869961 
L 97.354291 123.740252 
L 96.395266 123.71061 
L 94.212682 123.650772 
L 91.740703 123.587984 
L 88.20544 123.488342 
L 87.017046 123.461226 
L 83.6633 123.366522 
L 82.379562 123.338053 
L 79.808415 123.269163 
L 75.563812 123.173147 
L 75.50396 123.17152 
L 75.437481 123.169982 
L 71.458064 123.094277 
L 70.877927 123.082023 
L 68.060682 123.04648 
L 68.028314 123.045867 
L 68.005278 123.045593 
L 66.528604 123.024335 
L 66.282353 123.020065 
L 65.60149 123.024209 
L 65.452363 123.022765 
L 64.872015 123.025343 
L 63.821236 123.026156 
L 63.483434 123.028378 
L 61.81467 123.042787 
L 60.113684 123.052316 
L 59.521248 123.056887 
L 55.040898 123.110623 
L 54.702265 123.113648 
L 50.645767 123.174211 
L 50.18495 123.180958 
L 50.146695 123.181793 
L 49.646411 123.190288 
L 45.291661 123.26351 
L 44.92049 123.26839 
L 39.832451 123.357459 
L 38.998706 123.368653 
L 34.293887 123.448198 
L 32.15358 123.475437 
L 29.085971 123.523138 
L 24.2023 123.577283 
L 23.722561 123.583903 
L 22.313804 123.595822 
L 18.368643 123.631779 
L 17.053302 123.637686 
L 12.954448 123.662522 
L 9.717695 123.667135 
L 7.2 123.673157 
L 7.2 125.98284 
L 7.2 132.480569 
L 7.2 139.687878 
" style="fill:#33638d;"/>
   </g>
   <g id="PathCollection_4">
    <path clip-path="url(#peec00cafcc)" d="M 7.2 123.673157 
L 9.717695 123.667135 
L 12.954448 123.662522 
L 17.053302 123.637686 
L 18.368643 123.631779 
L 22.313804 123.595822 
L 23.722561 123.583903 
L 24.2023 123.577283 
L 29.085971 123.523138 
L 32.15358 123.475437 
L 34.293887 123.448198 
L 38.998706 123.368653 
L 39.832451 123.357459 
L 44.92049 123.26839 
L 45.291661 123.26351 
L 49.646411 123.190288 
L 50.146695 123.181793 
L 50.18495 123.180958 
L 50.645767 123.174211 
L 54.702265 123.113648 
L 55.040898 123.110623 
L 59.521248 123.056887 
L 60.113684 123.052316 
L 61.81467 123.042787 
L 63.483434 123.028378 
L 63.821236 123.026156 
L 64.872015 123.025343 
L 65.452363 123.022765 
L 65.60149 123.024209 
L 66.282353 123.020065 
L 66.528604 123.024335 
L 68.005278 123.045593 
L 68.028314 123.045867 
L 68.060682 123.04648 
L 70.877927 123.082023 
L 71.458064 123.094277 
L 75.437481 123.169982 
L 75.50396 123.17152 
L 75.563812 123.173147 
L 79.808415 123.269163 
L 82.379562 123.338053 
L 83.6633 123.366522 
L 87.017046 123.461226 
L 88.20544 123.488342 
L 91.740703 123.587984 
L 94.212682 123.650772 
L 96.395266 123.71061 
L 97.354291 123.740252 
L 102.580624 123.869961 
L 102.768602 123.874612 
L 102.806599 123.875363 
L 107.886098 123.997939 
L 108.867754 124.016362 
L 113.739654 124.122041 
L 114.507756 124.134891 
L 119.361964 124.225676 
L 121.799247 124.262415 
L 124.830311 124.311231 
L 125.452133 124.321842 
L 126.415184 124.334158 
L 131.64837 124.402398 
L 136.121489 124.444483 
L 137.956531 124.46172 
L 140.10358 124.472958 
L 145.727345 124.51154 
L 152.247607 124.522682 
L 154.905882 124.529424 
L 154.905882 117.932574 
L 154.905882 110.356887 
L 154.905882 103.014871 
L 154.905882 102.08077 
L 152.079718 102.073071 
L 148.726675 102.067733 
L 145.045809 102.042859 
L 142.751698 102.029921 
L 142.113374 102.02337 
L 136.775861 101.967621 
L 134.673099 101.934763 
L 131.32584 101.887965 
L 129.750509 101.859609 
L 126.107785 101.792231 
L 121.610502 101.682375 
L 120.816911 101.665162 
L 119.580936 101.629725 
L 115.17671 101.506552 
L 111.899344 101.390099 
L 110.258227 101.336277 
L 105.630662 101.149809 
L 104.962311 101.123526 
L 104.81299 101.116559 
L 100.225499 100.902912 
L 99.62163 100.869413 
L 97.494106 100.750525 
L 95.025082 100.618794 
L 94.113475 100.568744 
L 90.645731 100.344151 
L 90.089287 100.310562 
L 87.154466 100.099941 
L 87.043591 100.092805 
L 84.267981 99.877916 
L 83.709147 99.838467 
L 82.124544 99.706234 
L 80.457419 99.567766 
L 79.809119 99.503905 
L 78.052166 99.356164 
L 76.415209 99.210985 
L 75.809979 99.149145 
L 74.918707 99.060017 
L 73.375427 98.928101 
L 71.894023 98.785345 
L 71.178992 98.729197 
L 70.215057 98.655987 
L 69.256835 98.567651 
L 68.704168 98.521435 
L 67.807064 98.457972 
L 67.240381 98.429275 
L 66.858983 98.397991 
L 66.543324 98.390426 
L 66.282353 98.369941 
L 65.967049 98.389829 
L 65.794745 98.388973 
L 65.649612 98.400836 
L 64.972262 98.423701 
L 64.269506 98.475571 
L 63.51848 98.510788 
L 61.599314 98.658326 
L 61.011341 98.690661 
L 60.254957 98.742126 
L 58.272503 98.906523 
L 56.140743 99.085166 
L 55.588931 99.121902 
L 53.634904 99.270524 
L 52.442141 99.364553 
L 52.038274 99.397722 
L 49.186795 99.60274 
L 47.20031 99.73598 
L 46.48488 99.780361 
L 44.064579 99.925658 
L 43.516091 99.959434 
L 43.4093 99.966319 
L 42.704076 100.003279 
L 39.207845 100.190063 
L 38.628301 100.215645 
L 37.449616 100.26385 
L 34.295871 100.40527 
L 32.606263 100.470136 
L 29.842186 100.564169 
L 27.477712 100.63621 
L 25.623513 100.687544 
L 23.468119 100.731861 
L 21.486144 100.778758 
L 18.056593 100.833182 
L 17.543539 100.841093 
L 14.472933 100.871397 
L 12.863342 100.888654 
L 12.652625 100.890543 
L 12.278303 100.891522 
L 7.2 100.914871 
L 7.2 103.582947 
L 7.2 108.745416 
L 7.2 114.099311 
L 7.2 119.899278 
" style="fill:#26828e;"/>
   </g>
   <g id="PathCollection_5">
    <path clip-path="url(#peec00cafcc)" d="M 7.2 100.914871 
L 12.278303 100.891522 
L 12.652625 100.890543 
L 12.863342 100.888654 
L 14.472933 100.871397 
L 17.543539 100.841093 
L 18.056593 100.833182 
L 21.486144 100.778758 
L 23.468119 100.731861 
L 25.623513 100.687544 
L 27.477712 100.63621 
L 29.842186 100.564169 
L 32.606263 100.470136 
L 34.295871 100.40527 
L 37.449616 100.26385 
L 38.628301 100.215645 
L 39.207845 100.190063 
L 42.704076 100.003279 
L 43.4093 99.966319 
L 43.516091 99.959434 
L 44.064579 99.925658 
L 46.48488 99.780361 
L 47.20031 99.73598 
L 49.186795 99.60274 
L 52.038274 99.397722 
L 52.442141 99.364553 
L 53.634904 99.270524 
L 55.588931 99.121902 
L 56.140743 99.085166 
L 58.272503 98.906523 
L 60.254957 98.742126 
L 61.011341 98.690661 
L 61.599314 98.658326 
L 63.51848 98.510788 
L 64.269506 98.475571 
L 64.972262 98.423701 
L 65.649612 98.400836 
L 65.794745 98.388973 
L 65.967049 98.389829 
L 66.282353 98.369941 
L 66.543324 98.390426 
L 66.858983 98.397991 
L 67.240381 98.429275 
L 67.807064 98.457972 
L 68.704168 98.521435 
L 69.256835 98.567651 
L 70.215057 98.655987 
L 71.178992 98.729197 
L 71.894023 98.785345 
L 73.375427 98.928101 
L 74.918707 99.060017 
L 75.809979 99.149145 
L 76.415209 99.210985 
L 78.052166 99.356164 
L 79.809119 99.503905 
L 80.457419 99.567766 
L 82.124544 99.706234 
L 83.709147 99.838467 
L 84.267981 99.877916 
L 87.043591 100.092805 
L 87.154466 100.099941 
L 90.089287 100.310562 
L 90.645731 100.344151 
L 94.113475 100.568744 
L 95.025082 100.618794 
L 97.494106 100.750525 
L 99.62163 100.869413 
L 100.225499 100.902912 
L 104.81299 101.116559 
L 104.962311 101.123526 
L 105.630662 101.149809 
L 110.258227 101.336277 
L 111.899344 101.390099 
L 115.17671 101.506552 
L 119.580936 101.629725 
L 120.816911 101.665162 
L 121.610502 101.682375 
L 126.107785 101.792231 
L 129.750509 101.859609 
L 131.32584 101.887965 
L 134.673099 101.934763 
L 136.775861 101.967621 
L 142.113374 102.02337 
L 142.751698 102.029921 
L 145.045809 102.042859 
L 148.726675 102.067733 
L 152.079718 102.073071 
L 154.905882 102.08077 
L 154.905882 95.782304 
L 154.905882 88.511778 
L 154.905882 81.108168 
L 154.905882 79.962376 
L 153.754802 79.959443 
L 147.440104 79.942241 
L 146.040005 79.931784 
L 141.066301 79.896347 
L 137.242164 79.849735 
L 134.307542 79.810202 
L 130.425729 79.743619 
L 127.813028 79.694272 
L 121.95709 79.553479 
L 121.764436 79.549053 
L 121.645489 79.545571 
L 120.843895 79.521769 
L 116.347915 79.391991 
L 112.850788 79.267361 
L 111.763945 79.229469 
L 111.602648 79.222751 
L 107.001856 79.032687 
L 106.891212 79.027323 
L 106.280442 78.996915 
L 102.361467 78.807886 
L 101.442247 78.75998 
L 98.513258 78.593948 
L 96.860314 78.49384 
L 94.70179 78.348708 
L 93.244898 78.249729 
L 91.391472 78.108171 
L 90.020118 78.000447 
L 88.635945 77.883738 
L 87.097005 77.751796 
L 85.77871 77.62123 
L 84.482753 77.499049 
L 82.918136 77.330612 
L 81.647003 77.19724 
L 80.628796 77.075369 
L 79.241322 76.91482 
L 78.644188 76.834049 
L 77.340399 76.66439 
L 76.844226 76.604193 
L 76.547133 76.567883 
L 75.278625 76.396294 
L 74.242177 76.249298 
L 73.722121 76.186517 
L 72.579676 76.038545 
L 72.089432 75.970608 
L 71.853146 75.937034 
L 70.492274 75.782779 
L 69.873311 75.707366 
L 69.120436 75.648005 
L 68.684773 75.615774 
L 68.113098 75.572363 
L 67.692738 75.558086 
L 66.961923 75.523109 
L 66.415348 75.518508 
L 65.775596 75.511953 
L 64.778277 75.548157 
L 64.702579 75.549791 
L 64.468387 75.564589 
L 63.273062 75.632938 
L 62.977973 75.659586 
L 62.302335 75.732306 
L 61.352247 75.816877 
L 60.510969 75.91035 
L 59.751379 76.004824 
L 59.179466 76.082493 
L 58.083099 76.207877 
L 56.680888 76.389597 
L 56.050056 76.459172 
L 54.773041 76.60783 
L 54.09061 76.692412 
L 53.776544 76.730057 
L 52.134435 76.908651 
L 50.951162 77.033115 
L 50.088137 77.116298 
L 48.474744 77.262171 
L 47.867883 77.32113 
L 47.547155 77.349304 
L 45.225656 77.539901 
L 44.108299 77.628976 
L 42.416604 77.747405 
L 39.919397 77.90692 
L 39.782109 77.914691 
L 37.147764 78.069118 
L 35.083789 78.172971 
L 33.77909 78.23461 
L 31.301573 78.332419 
L 30.113535 78.385131 
L 29.347509 78.411405 
L 26.118821 78.521038 
L 23.710586 78.584045 
L 21.864733 78.630214 
L 17.893144 78.703414 
L 17.204453 78.715321 
L 14.371306 78.746144 
L 12.655487 78.767073 
L 7.910456 78.786251 
L 7.2 78.789364 
L 7.2 83.369397 
L 7.2 88.423006 
L 7.2 93.429202 
L 7.2 98.47321 
" style="fill:#1fa088;"/>
   </g>
   <g id="PathCollection_6">
    <path clip-path="url(#peec00cafcc)" d="M 7.2 78.789364 
L 7.910456 78.786251 
L 12.655487 78.767073 
L 14.371306 78.746144 
L 17.204453 78.715321 
L 17.893144 78.703414 
L 21.864733 78.630214 
L 23.710586 78.584045 
L 26.118821 78.521038 
L 29.347509 78.411405 
L 30.113535 78.385131 
L 31.301573 78.332419 
L 33.77909 78.23461 
L 35.083789 78.172971 
L 37.147764 78.069118 
L 39.782109 77.914691 
L 39.919397 77.90692 
L 42.416604 77.747405 
L 44.108299 77.628976 
L 45.225656 77.539901 
L 47.547155 77.349304 
L 47.867883 77.32113 
L 48.474744 77.262171 
L 50.088137 77.116298 
L 50.951162 77.033115 
L 52.134435 76.908651 
L 53.776544 76.730057 
L 54.09061 76.692412 
L 54.773041 76.60783 
L 56.050056 76.459172 
L 56.680888 76.389597 
L 58.083099 76.207877 
L 59.179466 76.082493 
L 59.751379 76.004824 
L 60.510969 75.91035 
L 61.352247 75.816877 
L 62.302335 75.732306 
L 62.977973 75.659586 
L 63.273062 75.632938 
L 64.468387 75.564589 
L 64.702579 75.549791 
L 64.778277 75.548157 
L 65.775596 75.511953 
L 66.415348 75.518508 
L 66.961923 75.523109 
L 67.692738 75.558086 
L 68.113098 75.572363 
L 68.684773 75.615774 
L 69.120436 75.648005 
L 69.873311 75.707366 
L 70.492274 75.782779 
L 71.853146 75.937034 
L 72.089432 75.970608 
L 72.579676 76.038545 
L 73.722121 76.186517 
L 74.242177 76.249298 
L 75.278625 76.396294 
L 76.547133 76.567883 
L 76.844226 76.604193 
L 77.340399 76.66439 
L 78.644188 76.834049 
L 79.241322 76.91482 
L 80.628796 77.075369 
L 81.647003 77.19724 
L 82.918136 77.330612 
L 84.482753 77.499049 
L 85.77871 77.62123 
L 87.097005 77.751796 
L 88.635945 77.883738 
L 90.020118 78.000447 
L 91.391472 78.108171 
L 93.244898 78.249729 
L 94.70179 78.348708 
L 96.860314 78.49384 
L 98.513258 78.593948 
L 101.442247 78.75998 
L 102.361467 78.807886 
L 106.280442 78.996915 
L 106.891212 79.027323 
L 107.001856 79.032687 
L 111.602648 79.222751 
L 111.763945 79.229469 
L 112.850788 79.267361 
L 116.347915 79.391991 
L 120.843895 79.521769 
L 121.645489 79.545571 
L 121.764436 79.549053 
L 121.95709 79.553479 
L 127.813028 79.694272 
L 130.425729 79.743619 
L 134.307542 79.810202 
L 137.242164 79.849735 
L 141.066301 79.896347 
L 146.040005 79.931784 
L 147.440104 79.942241 
L 153.754802 79.959443 
L 154.905882 79.962376 
L 154.905882 73.49393 
L 154.905882 65.553262 
L 154.905882 58.173611 
L 150.884452 58.164194 
L 147.450225 58.158905 
L 142.23904 58.126359 
L 139.398841 58.110665 
L 138.86876 58.106224 
L 137.431716 58.090112 
L 132.261947 58.040752 
L 129.679446 58.008732 
L 125.81108 57.95217 
L 121.121623 57.871658 
L 119.795768 57.845734 
L 117.108153 57.786182 
L 114.093373 57.726119 
L 112.801888 57.697664 
L 108.515962 57.587366 
L 106.170117 57.529872 
L 102.665012 57.421206 
L 100.092945 57.350368 
L 96.814885 57.2366 
L 94.556904 57.171441 
L 91.383428 57.057174 
L 90.843389 57.042214 
L 86.714183 56.897775 
L 86.004805 56.878718 
L 82.758788 56.767206 
L 80.966062 56.718788 
L 79.231966 56.659639 
L 76.237892 56.584925 
L 75.825782 56.574113 
L 75.605758 56.570403 
L 72.552332 56.500752 
L 69.294584 56.460057 
L 69.227274 56.459188 
L 68.884229 56.457476 
L 65.408764 56.434923 
L 64.632822 56.436362 
L 61.394296 56.44584 
L 60.145523 56.46156 
L 57.345458 56.491853 
L 55.936724 56.521319 
L 53.256024 56.565943 
L 51.009686 56.62311 
L 49.498875 56.651113 
L 45.674744 56.748301 
L 45.507341 56.751694 
L 42.154237 56.83555 
L 39.69546 56.902605 
L 37.179254 56.953728 
L 34.636641 57.020117 
L 31.44921 57.077991 
L 28.899884 57.133657 
L 23.323244 57.218849 
L 22.505789 57.230406 
L 21.791901 57.235739 
L 15.362915 57.304075 
L 12.597743 57.31187 
L 7.2 57.334975 
L 7.2 60.770988 
L 7.2 67.139327 
L 7.2 72.85008 
L 7.2 78.189795 
" style="fill:#3fbc73;"/>
   </g>
   <g id="PathCollection_7">
    <path clip-path="url(#peec00cafcc)" d="M 7.2 57.334975 
L 12.597743 57.31187 
L 15.362915 57.304075 
L 21.791901 57.235739 
L 22.505789 57.230406 
L 23.323244 57.218849 
L 28.899884 57.133657 
L 31.44921 57.077991 
L 34.636641 57.020117 
L 37.179254 56.953728 
L 39.69546 56.902605 
L 42.154237 56.83555 
L 45.507341 56.751694 
L 45.674744 56.748301 
L 49.498875 56.651113 
L 51.009686 56.62311 
L 53.256024 56.565943 
L 55.936724 56.521319 
L 57.345458 56.491853 
L 60.145523 56.46156 
L 61.394296 56.44584 
L 64.632822 56.436362 
L 65.408764 56.434923 
L 68.884229 56.457476 
L 69.227274 56.459188 
L 69.294584 56.460057 
L 72.552332 56.500752 
L 75.605758 56.570403 
L 75.825782 56.574113 
L 76.237892 56.584925 
L 79.231966 56.659639 
L 80.966062 56.718788 
L 82.758788 56.767206 
L 86.004805 56.878718 
L 86.714183 56.897775 
L 90.843389 57.042214 
L 91.383428 57.057174 
L 94.556904 57.171441 
L 96.814885 57.2366 
L 100.092945 57.350368 
L 102.665012 57.421206 
L 106.170117 57.529872 
L 108.515962 57.587366 
L 112.801888 57.697664 
L 114.093373 57.726119 
L 117.108153 57.786182 
L 119.795768 57.845734 
L 121.121623 57.871658 
L 125.81108 57.95217 
L 129.679446 58.008732 
L 132.261947 58.040752 
L 137.431716 58.090112 
L 138.86876 58.106224 
L 139.398841 58.110665 
L 142.23904 58.126359 
L 147.450225 58.158905 
L 150.884452 58.164194 
L 154.905882 58.173611 
L 154.905882 56.974356 
L 154.905882 47.247481 
L 154.905882 36.621899 
L 153.533094 36.619259 
L 143.608366 36.611658 
L 137.764356 36.585689 
L 132.621204 36.573288 
L 127.82921 36.538869 
L 122.672238 36.515046 
L 118.433644 36.475229 
L 115.502594 36.460234 
L 109.811158 36.406352 
L 109.308329 36.403839 
L 108.768334 36.399629 
L 103.089046 36.338387 
L 99.525278 36.309982 
L 95.788965 36.263266 
L 91.873805 36.232383 
L 88.752268 36.193739 
L 83.941303 36.149768 
L 82.480928 36.140059 
L 81.005196 36.132293 
L 75.989045 36.091447 
L 70.563934 36.07099 
L 69.569967 36.063442 
L 68.417637 36.060282 
L 61.483706 36.051657 
L 58.899804 36.057275 
L 50.887575 36.078221 
L 48.839042 36.092476 
L 46.524762 36.11252 
L 39.828716 36.141989 
L 36.837682 36.169548 
L 29.823679 36.200134 
L 28.201398 36.214121 
L 26.374282 36.226778 
L 17.285744 36.257404 
L 14.715768 36.265562 
L 7.2 36.273726 
L 7.2 44.817424 
L 7.2 53.382592 
" style="fill:#84d44b;"/>
   </g>
   <g id="PathCollection_8">
    <path clip-path="url(#peec00cafcc)" d="M 7.2 36.273726 
L 14.715768 36.265562 
L 17.285744 36.257404 
L 26.374282 36.226778 
L 28.201398 36.214121 
L 29.823679 36.200134 
L 36.837682 36.169548 
L 39.828716 36.141989 
L 46.524762 36.11252 
L 48.839042 36.092476 
L 50.887575 36.078221 
L 58.899804 36.057275 
L 61.483706 36.051657 
L 68.417637 36.060282 
L 69.569967 36.063442 
L 70.563934 36.07099 
L 75.989045 36.091447 
L 81.005196 36.132293 
L 82.480928 36.140059 
L 83.941303 36.149768 
L 88.752268 36.193739 
L 91.873805 36.232383 
L 95.788965 36.263266 
L 99.525278 36.309982 
L 103.089046 36.338387 
L 108.768334 36.399629 
L 109.308329 36.403839 
L 109.811158 36.406352 
L 115.502594 36.460234 
L 118.433644 36.475229 
L 122.672238 36.515046 
L 127.82921 36.538869 
L 132.621204 36.573288 
L 137.764356 36.585689 
L 143.608366 36.611658 
L 153.533094 36.619259 
L 154.905882 36.621899 
L 154.905882 35.707516 
L 154.905882 22.318125 
L 141.30025 22.318125 
L 130.25185 22.318125 
L 120.940176 22.318125 
L 112.427591 22.318125 
L 104.400219 22.318125 
L 96.588794 22.318125 
L 88.510139 22.318125 
L 79.844936 22.318125 
L 69.942652 22.318125 
L 57.140688 22.318125 
L 44.471364 22.318125 
L 32.920173 22.318125 
L 20.675503 22.318125 
L 7.2 22.318125 
L 7.2 34.565601 
" style="fill:#d8e219;"/>
   </g>
   <g id="line2d_1">
    <path d="M 154.905882 22.318125 
L 141.30025 22.318125 
L 130.25185 22.318125 
L 120.940176 22.318125 
L 112.427591 22.318125 
L 104.400219 22.318125 
L 96.588794 22.318125 
L 88.510139 22.318125 
L 79.844936 22.318125 
L 69.942652 22.318125 
L 57.140688 22.318125 
L 44.471364 22.318125 
L 32.920173 22.318125 
L 20.675503 22.318125 
L 7.2 22.318125 
" style="fill:none;stroke:#1f77b4;stroke-linecap:square;stroke-width:1.5;"/>
   </g>
   <g id="line2d_2">
    <path d="M 66.282353 170.024007 
L 66.282353 161.802092 
L 66.282353 153.193808 
L 66.282353 145.257424 
L 66.282353 137.450429 
L 66.282353 130.600126 
L 66.282353 124.656293 
L 66.282353 119.295751 
L 66.282353 114.047909 
L 66.282353 109.292814 
L 66.282353 105.032385 
L 66.282353 101.155992 
L 66.282353 97.633945 
L 66.282353 94.442169 
L 66.282353 91.541668 
L 66.282353 88.968632 
L 66.282353 86.721878 
L 66.282353 84.846161 
L 66.282353 83.366886 
L 66.282353 82.330582 
L 66.282353 81.735623 
L 66.282353 81.400478 
" style="fill:none;stroke:#ff7f0e;stroke-linecap:square;stroke-width:1.5;"/>
   </g>
   <g id="line2d_3">
    <path d="M 7.2 170.024007 
L 19.034786 170.024007 
L 29.218516 170.024007 
L 38.146155 170.024007 
L 46.195387 170.024007 
L 53.673588 170.024007 
L 60.74161 170.024007 
L 66.282353 170.024007 
L 71.548777 170.024007 
L 77.759824 170.024007 
L 83.988522 170.024007 
L 90.370154 170.024007 
L 97.002665 170.024007 
L 103.917073 170.024007 
L 111.373414 170.024007 
L 119.630025 170.024007 
L 128.900194 170.024007 
L 140.179901 170.024007 
L 154.905882 170.024007 
" style="fill:none;stroke:#2ca02c;stroke-linecap:square;stroke-width:1.5;"/>
   </g>
   <g id="line2d_4">
    <path d="M 154.905882 170.024007 
L 154.905882 156.148207 
L 154.905882 144.706481 
L 154.905882 134.703247 
L 154.905882 125.877526 
L 154.905882 117.932574 
L 154.905882 110.356887 
L 154.905882 103.014871 
L 154.905882 95.782304 
L 154.905882 88.511778 
L 154.905882 81.108168 
L 154.905882 73.49393 
L 154.905882 65.553262 
L 154.905882 56.974356 
L 154.905882 47.247481 
L 154.905882 35.707516 
L 154.905882 22.318125 
M 7.2 22.318125 
L 7.2 34.565601 
L 7.2 44.817424 
L 7.2 53.382592 
L 7.2 60.770988 
L 7.2 67.139327 
L 7.2 72.85008 
L 7.2 78.189795 
L 7.2 83.369397 
L 7.2 88.423006 
L 7.2 93.429202 
L 7.2 98.47321 
L 7.2 103.582947 
L 7.2 108.745416 
L 7.2 114.099311 
L 7.2 119.899278 
L 7.2 125.98284 
L 7.2 132.480569 
L 7.2 139.687878 
L 7.2 148.208439 
L 7.2 158.540274 
L 7.2 170.024007 
" style="fill:none;stroke:#d62728;stroke-linecap:square;stroke-width:1.5;"/>
   </g>
   <g id="text_1">
    <!-- $\kappa=$0.1 -->
    <defs>
     <path d="M 14.65625 54.6875 
L 23.921875 54.6875 
L 19.484375 31.984375 
L 47.515625 54.6875 
L 58.453125 54.6875 
L 32.90625 34.078125 
L 51.171875 0 
L 40.1875 0 
L 25.4375 28.21875 
L 17.53125 21.921875 
L 13.28125 0 
L 4 0 
z
" id="DejaVuSans-Oblique-954"/>
     <path d="M 10.59375 45.40625 
L 73.1875 45.40625 
L 73.1875 37.203125 
L 10.59375 37.203125 
z
M 10.59375 25.484375 
L 73.1875 25.484375 
L 73.1875 17.1875 
L 10.59375 17.1875 
z
" id="DejaVuSans-61"/>
     <path d="M 31.78125 66.40625 
Q 24.171875 66.40625 20.328125 58.90625 
Q 16.5 51.421875 16.5 36.375 
Q 16.5 21.390625 20.328125 13.890625 
Q 24.171875 6.390625 31.78125 6.390625 
Q 39.453125 6.390625 43.28125 13.890625 
Q 47.125 21.390625 47.125 36.375 
Q 47.125 51.421875 43.28125 58.90625 
Q 39.453125 66.40625 31.78125 66.40625 
z
M 31.78125 74.21875 
Q 44.046875 74.21875 50.515625 64.515625 
Q 56.984375 54.828125 56.984375 36.375 
Q 56.984375 17.96875 50.515625 8.265625 
Q 44.046875 -1.421875 31.78125 -1.421875 
Q 19.53125 -1.421875 13.0625 8.265625 
Q 6.59375 17.96875 6.59375 36.375 
Q 6.59375 54.828125 13.0625 64.515625 
Q 19.53125 74.21875 31.78125 74.21875 
z
" id="DejaVuSans-48"/>
     <path d="M 10.6875 12.40625 
L 21 12.40625 
L 21 0 
L 10.6875 0 
z
" id="DejaVuSans-46"/>
     <path d="M 12.40625 8.296875 
L 28.515625 8.296875 
L 28.515625 63.921875 
L 10.984375 60.40625 
L 10.984375 69.390625 
L 28.421875 72.90625 
L 38.28125 72.90625 
L 38.28125 8.296875 
L 54.390625 8.296875 
L 54.390625 0 
L 12.40625 0 
z
" id="DejaVuSans-49"/>
    </defs>
    <g transform="translate(60.592941 16.318125)scale(0.12 -0.12)">
     <use transform="translate(0 0.78125)" xlink:href="#DejaVuSans-Oblique-954"/>
     <use transform="translate(78.417969 0.78125)" xlink:href="#DejaVuSans-61"/>
     <use transform="translate(181.689453 0.78125)" xlink:href="#DejaVuSans-48"/>
     <use transform="translate(245.3125 0.78125)" xlink:href="#DejaVuSans-46"/>
     <use transform="translate(277.099609 0.78125)" xlink:href="#DejaVuSans-49"/>
    </g>
   </g>
  </g>
  <g id="axes_2">
   <g id="PathCollection_9">
    <path clip-path="url(#p2e8e368bbb)" d="M 215.964482 170.024007 
L 215.393214 170.023928 
L 212.94362 170.024007 
L 215.393214 170.024007 
M 232.32216 170.024007 
L 230.925472 170.020337 
L 230.921158 170.020443 
L 230.918453 170.020555 
L 225.218894 170.024007 
L 230.920647 170.024007 
M 247.741692 170.024007 
L 243.59324 169.96361 
L 243.529412 169.960967 
L 243.472357 169.962779 
L 239.060682 170.024007 
L 243.529412 170.024007 
M 259.738729 170.024007 
L 255.007789 170.020316 
L 255.002713 170.020117 
L 253.746139 170.024007 
L 255.006883 170.024007 
M 269.725497 170.024007 
L 267.617278 170.023908 
L 267.617158 170.023904 
L 267.072633 170.024007 
L 267.617213 170.024007 
" style="fill:#48186a;"/>
   </g>
   <g id="PathCollection_10">
    <path clip-path="url(#p2e8e368bbb)" d="M 212.94362 170.024007 
L 215.393214 170.023928 
L 215.964482 170.024007 
L 223.442446 170.024007 
L 225.218894 170.024007 
L 230.918453 170.020555 
L 230.921158 170.020443 
L 230.925472 170.020337 
L 232.32216 170.024007 
L 237.988669 170.024007 
L 239.060682 170.024007 
L 243.472357 169.962779 
L 243.529412 169.960967 
L 243.59324 169.96361 
L 247.741692 170.024007 
L 248.795835 170.024007 
L 253.746139 170.024007 
L 255.002713 170.020117 
L 255.007789 170.020316 
L 259.738729 170.024007 
L 261.235581 170.024007 
L 267.072633 170.024007 
L 267.617158 170.023904 
L 267.617278 170.023908 
L 269.725497 170.024007 
L 274.249724 170.024007 
L 281.164132 170.024007 
L 288.620473 170.024007 
L 296.877084 170.024007 
L 306.147253 170.024007 
L 317.42696 170.024007 
L 332.152941 170.024007 
L 332.152941 156.148207 
L 332.152941 144.706481 
L 332.152941 143.208634 
L 330.387664 143.182862 
L 323.400398 143.137922 
L 317.295474 142.930043 
L 315.673995 142.897325 
L 313.64527 142.804403 
L 308.004004 142.547774 
L 303.039068 142.184721 
L 300.991473 142.068353 
L 299.061921 141.902574 
L 294.824048 141.538002 
L 289.234968 140.934108 
L 288.653977 140.865342 
L 288.074532 140.779649 
L 282.837408 140.152567 
L 280.215349 139.71827 
L 276.887405 139.251457 
L 273.806667 138.676177 
L 271.85099 138.358988 
L 268.711769 137.72506 
L 265.923673 137.176697 
L 264.06517 136.739524 
L 261.404533 136.083132 
L 259.769443 135.725965 
L 256.474551 134.824784 
L 254.58517 134.371165 
L 251.266248 133.377671 
L 251.075408 133.329668 
L 250.571771 133.17523 
L 247.550677 132.236878 
L 246.516267 131.876134 
L 245.724527 131.631226 
L 244.633411 131.256092 
L 244.248391 131.146539 
L 243.529412 130.907843 
L 243.241563 130.975865 
L 241.954348 131.275971 
L 241.480416 131.410994 
L 240.605446 131.660299 
L 238.726536 132.083324 
L 234.852602 132.995108 
L 234.658034 133.033299 
L 234.131055 133.139042 
L 229.889987 134.066567 
L 227.774927 134.510159 
L 224.239831 135.168028 
L 220.948097 135.677783 
L 218.443815 136.12958 
L 213.094356 136.830692 
L 211.875669 137.016652 
L 210.656915 137.150685 
L 205.499622 137.675706 
L 202.603172 137.939068 
L 197.947185 138.231909 
L 195.42985 138.366303 
L 191.8955 138.532461 
L 186.158349 138.594644 
L 184.447059 138.63304 
L 184.447059 139.687878 
L 184.447059 148.208439 
L 184.447059 158.540274 
L 184.447059 170.024007 
L 196.281845 170.024007 
L 206.465575 170.024007 
" style="fill:#424086;"/>
   </g>
   <g id="PathCollection_11">
    <path clip-path="url(#p2e8e368bbb)" d="M 184.447059 138.63304 
L 186.158349 138.594644 
L 191.8955 138.532461 
L 195.42985 138.366303 
L 197.947185 138.231909 
L 202.603172 137.939068 
L 205.499622 137.675706 
L 210.656915 137.150685 
L 211.875669 137.016652 
L 213.094356 136.830692 
L 218.443815 136.12958 
L 220.948097 135.677783 
L 224.239831 135.168028 
L 227.774927 134.510159 
L 229.889987 134.066567 
L 234.131055 133.139042 
L 234.658034 133.033299 
L 234.852602 132.995108 
L 238.726536 132.083324 
L 240.605446 131.660299 
L 241.480416 131.410994 
L 241.954348 131.275971 
L 243.241563 130.975865 
L 243.529412 130.907843 
L 244.248391 131.146539 
L 244.633411 131.256092 
L 245.724527 131.631226 
L 246.516267 131.876134 
L 247.550677 132.236878 
L 250.571771 133.17523 
L 251.075408 133.329668 
L 251.266248 133.377671 
L 254.58517 134.371165 
L 256.474551 134.824784 
L 259.769443 135.725965 
L 261.404533 136.083132 
L 264.06517 136.739524 
L 265.923673 137.176697 
L 268.711769 137.72506 
L 271.85099 138.358988 
L 273.806667 138.676177 
L 276.887405 139.251457 
L 280.215349 139.71827 
L 282.837408 140.152567 
L 288.074532 140.779649 
L 288.653977 140.865342 
L 289.234968 140.934108 
L 294.824048 141.538002 
L 299.061921 141.902574 
L 300.991473 142.068353 
L 303.039068 142.184721 
L 308.004004 142.547774 
L 313.64527 142.804403 
L 315.673995 142.897325 
L 317.295474 142.930043 
L 323.400398 143.137922 
L 330.387664 143.182862 
L 332.152941 143.208634 
L 332.152941 134.703247 
L 332.152941 125.877526 
L 332.152941 117.932574 
L 332.152941 117.841129 
L 331.890463 117.83712 
L 325.491055 117.766601 
L 321.208116 117.622721 
L 318.386078 117.496251 
L 313.850894 117.213477 
L 311.525863 117.026381 
L 308.187367 116.736358 
L 305.225096 116.41651 
L 303.519039 116.212663 
L 300.24315 115.809878 
L 297.647272 115.411666 
L 295.13452 115.033673 
L 291.347097 114.333635 
L 290.548314 114.186388 
L 286.11231 113.243425 
L 285.097455 113.015622 
L 281.005072 111.980307 
L 279.644802 111.595591 
L 276.353551 110.637945 
L 274.242532 109.918864 
L 272.695483 109.367048 
L 270.378596 108.505102 
L 268.30161 107.652078 
L 266.532626 106.848526 
L 265.0407 106.181575 
L 263.725615 105.48817 
L 261.640505 104.404137 
L 259.00724 102.788831 
L 258.820683 102.674934 
L 258.596292 102.511808 
L 256.177731 100.857545 
L 255.171619 100.110314 
L 253.883093 99.02718 
L 253.19984 98.410604 
L 252.308148 97.545605 
L 251.535192 96.810158 
L 250.480788 95.597322 
L 250.263846 95.375463 
L 249.69871 94.657586 
L 249.028467 93.836078 
L 248.79394 93.462347 
L 247.893604 92.192616 
L 247.486191 91.443016 
L 247.055389 90.780312 
L 246.535541 89.698783 
L 246.313768 89.30529 
L 245.825577 88.115756 
L 245.613357 87.690056 
L 245.212038 86.536502 
L 245.158161 86.36979 
L 245.138353 86.279114 
L 244.790946 85.216189 
L 244.644207 84.608045 
L 244.514121 84.168956 
L 244.433795 83.94319 
L 244.282312 83.326586 
L 244.191253 82.923702 
L 244.159829 82.732987 
L 244.010117 82.243582 
L 243.9362 81.919052 
L 243.87226 81.795155 
L 243.77946 81.563654 
L 243.760654 81.508254 
L 243.760679 81.4904 
L 243.657222 81.307738 
L 243.526064 81.262069 
L 243.379708 81.328908 
L 243.290061 81.541423 
L 243.261616 81.57224 
L 243.239894 81.614679 
L 243.150606 81.894144 
L 243.079807 82.054307 
L 243.01597 82.380118 
L 242.845761 82.958864 
L 242.835285 82.989321 
L 242.825602 83.012863 
L 242.599089 83.932351 
L 242.533739 84.117864 
L 242.446297 84.366315 
L 242.260622 85.112661 
L 241.977326 85.954656 
L 241.924175 86.103426 
L 241.871317 86.220907 
L 241.480257 87.366009 
L 241.246819 87.893586 
L 240.713892 88.967778 
L 240.579375 89.294713 
L 239.653714 90.904229 
L 239.517647 91.152469 
L 238.528399 92.583052 
L 237.945314 93.331872 
L 237.256083 94.216013 
L 236.67309 94.789975 
L 235.455692 96.073548 
L 234.732591 96.734189 
L 232.932608 98.221936 
L 232.567811 98.49838 
L 231.774659 99.027857 
L 230.214315 100.14407 
L 229.544118 100.553347 
L 227.766987 101.595326 
L 226.584933 102.243916 
L 224.095521 103.417152 
L 223.588996 103.671217 
L 222.988104 103.917875 
L 220.370256 105.009117 
L 217.848954 105.877062 
L 216.825082 106.230804 
L 214.831012 106.79443 
L 213.120691 107.311785 
L 211.90155 107.605316 
L 209.420717 108.235448 
L 206.647419 108.770595 
L 205.534328 109.005269 
L 204.773449 109.130864 
L 201.221358 109.705178 
L 198.641806 110.002482 
L 196.711808 110.23615 
L 192.27044 110.565318 
L 191.853078 110.602635 
L 191.684549 110.609753 
L 186.030617 110.812916 
L 184.447059 110.83652 
L 184.447059 114.099311 
L 184.447059 119.899278 
L 184.447059 125.98284 
L 184.447059 132.480569 
" style="fill:#33638d;"/>
   </g>
   <g id="PathCollection_12">
    <path clip-path="url(#p2e8e368bbb)" d="M 184.447059 110.83652 
L 186.030617 110.812916 
L 191.684549 110.609753 
L 191.853078 110.602635 
L 192.27044 110.565318 
L 196.711808 110.23615 
L 198.641806 110.002482 
L 201.221358 109.705178 
L 204.773449 109.130864 
L 205.534328 109.005269 
L 206.647419 108.770595 
L 209.420717 108.235448 
L 211.90155 107.605316 
L 213.120691 107.311785 
L 214.831012 106.79443 
L 216.825082 106.230804 
L 217.848954 105.877062 
L 220.370256 105.009117 
L 222.988104 103.917875 
L 223.588996 103.671217 
L 224.095521 103.417152 
L 226.584933 102.243916 
L 227.766987 101.595326 
L 229.544118 100.553347 
L 230.214315 100.14407 
L 231.774659 99.027857 
L 232.567811 98.49838 
L 232.932608 98.221936 
L 234.732591 96.734189 
L 235.455692 96.073548 
L 236.67309 94.789975 
L 237.256083 94.216013 
L 237.945314 93.331872 
L 238.528399 92.583052 
L 239.517647 91.152469 
L 239.653714 90.904229 
L 240.579375 89.294713 
L 240.713892 88.967778 
L 241.246819 87.893586 
L 241.480257 87.366009 
L 241.871317 86.220907 
L 241.924175 86.103426 
L 241.977326 85.954656 
L 242.260622 85.112661 
L 242.446297 84.366315 
L 242.533739 84.117864 
L 242.599089 83.932351 
L 242.825602 83.012863 
L 242.835285 82.989321 
L 242.845761 82.958864 
L 243.01597 82.380118 
L 243.079807 82.054307 
L 243.150606 81.894144 
L 243.239894 81.614679 
L 243.261616 81.57224 
L 243.290061 81.541423 
L 243.379708 81.328908 
L 243.526064 81.262069 
L 243.657222 81.307738 
L 243.760679 81.4904 
L 243.760654 81.508254 
L 243.77946 81.563654 
L 243.87226 81.795155 
L 243.9362 81.919052 
L 244.010117 82.243582 
L 244.159829 82.732987 
L 244.191253 82.923702 
L 244.282312 83.326586 
L 244.433795 83.94319 
L 244.514121 84.168956 
L 244.644207 84.608045 
L 244.790946 85.216189 
L 245.138353 86.279114 
L 245.158161 86.36979 
L 245.212038 86.536502 
L 245.613357 87.690056 
L 245.825577 88.115756 
L 246.313768 89.30529 
L 246.535541 89.698783 
L 247.055389 90.780312 
L 247.486191 91.443016 
L 247.893604 92.192616 
L 248.79394 93.462347 
L 249.028467 93.836078 
L 249.69871 94.657586 
L 250.263846 95.375463 
L 250.480788 95.597322 
L 251.535192 96.810158 
L 252.308148 97.545605 
L 253.19984 98.410604 
L 253.883093 99.02718 
L 255.171619 100.110314 
L 256.177731 100.857545 
L 258.596292 102.511808 
L 258.820683 102.674934 
L 259.00724 102.788831 
L 261.640505 104.404137 
L 263.725615 105.48817 
L 265.0407 106.181575 
L 266.532626 106.848526 
L 268.30161 107.652078 
L 270.378596 108.505102 
L 272.695483 109.367048 
L 274.242532 109.918864 
L 276.353551 110.637945 
L 279.644802 111.595591 
L 281.005072 111.980307 
L 285.097455 113.015622 
L 286.11231 113.243425 
L 290.548314 114.186388 
L 291.347097 114.333635 
L 295.13452 115.033673 
L 297.647272 115.411666 
L 300.24315 115.809878 
L 303.519039 116.212663 
L 305.225096 116.41651 
L 308.187367 116.736358 
L 311.525863 117.026381 
L 313.850894 117.213477 
L 318.386078 117.496251 
L 321.208116 117.622721 
L 325.491055 117.766601 
L 331.890463 117.83712 
L 332.152941 117.841129 
L 332.152941 110.356887 
L 332.152941 103.014871 
L 332.152941 95.782304 
L 332.152941 94.688149 
L 328.55687 94.630624 
L 326.085801 94.607912 
L 324.768448 94.554015 
L 320.308895 94.402542 
L 316.337806 94.155325 
L 314.127434 94.015086 
L 308.553758 93.490938 
L 308.037424 93.44343 
L 306.524798 93.255271 
L 302.131015 92.7393 
L 300.597745 92.503594 
L 296.74017 91.935092 
L 293.888925 91.41506 
L 291.527259 90.97951 
L 289.654488 90.606388 
L 285.889547 89.755565 
L 285.19829 89.587951 
L 284.527925 89.40233 
L 280.825493 88.470909 
L 279.038574 87.927911 
L 276.997554 87.36163 
L 274.461811 86.524389 
L 273.83791 86.331494 
L 271.191732 85.401491 
L 269.603439 84.842707 
L 267.98962 84.209417 
L 265.894997 83.370918 
L 265.552042 83.220787 
L 263.682995 82.422363 
L 263.171085 82.206976 
L 263.099784 82.180224 
L 262.897905 82.092128 
L 260.947541 81.242521 
L 259.658096 80.639267 
L 258.982824 80.344841 
L 258.467164 80.121782 
L 257.155188 79.516605 
L 256.352313 79.119019 
L 255.242918 78.646561 
L 254.597819 78.334182 
L 253.579154 77.898707 
L 252.498783 77.452414 
L 252.371243 77.392857 
L 251.009802 76.864612 
L 250.722493 76.745275 
L 249.382038 76.293897 
L 248.836253 76.112184 
L 247.761686 75.83385 
L 247.145998 75.668098 
L 246.34417 75.529967 
L 246.316145 75.525513 
L 245.420865 75.376913 
L 244.499354 75.306715 
L 244.165622 75.272905 
L 243.94489 75.268047 
L 242.997028 75.24347 
L 242.27108 75.293179 
L 241.868328 75.309492 
L 240.920001 75.432382 
L 240.400656 75.490894 
L 240.239084 75.520375 
L 239.709917 75.639615 
L 238.604201 75.855074 
L 238.010183 76.005568 
L 237.033903 76.286761 
L 235.744204 76.707822 
L 235.562237 76.759981 
L 235.297563 76.849541 
L 233.906866 77.332787 
L 233.388708 77.546543 
L 231.635646 78.204979 
L 231.623262 78.210376 
L 231.608079 78.21682 
L 229.883541 78.891325 
L 228.360942 79.489874 
L 227.968054 79.633936 
L 227.437444 79.823597 
L 225.868567 80.42893 
L 223.782175 81.19438 
L 223.15296 81.417361 
L 222.877969 81.500658 
L 220.469715 82.327287 
L 219.729968 82.536461 
L 217.60439 83.217877 
L 215.913638 83.66216 
L 214.799639 83.996997 
L 211.921872 84.695098 
L 211.78496 84.73337 
L 211.430888 84.810568 
L 208.291729 85.510368 
L 205.846744 85.933121 
L 204.476796 86.197845 
L 203.559572 86.333846 
L 200.566069 86.782349 
L 197.567628 87.113312 
L 196.644122 87.215475 
L 195.362468 87.307463 
L 192.517692 87.554959 
L 189.763069 87.664014 
L 188.486781 87.733349 
L 187.744099 87.745733 
L 184.447059 87.797026 
L 184.447059 88.423006 
L 184.447059 93.429202 
L 184.447059 98.47321 
L 184.447059 103.582947 
L 184.447059 108.745416 
" style="fill:#26828e;"/>
   </g>
   <g id="PathCollection_13">
    <path clip-path="url(#p2e8e368bbb)" d="M 184.447059 87.797026 
L 187.744099 87.745733 
L 188.486781 87.733349 
L 189.763069 87.664014 
L 192.517692 87.554959 
L 195.362468 87.307463 
L 196.644122 87.215475 
L 197.567628 87.113312 
L 200.566069 86.782349 
L 203.559572 86.333846 
L 204.476796 86.197845 
L 205.846744 85.933121 
L 208.291729 85.510368 
L 211.430888 84.810568 
L 211.78496 84.73337 
L 211.921872 84.695098 
L 214.799639 83.996997 
L 215.913638 83.66216 
L 217.60439 83.217877 
L 219.729968 82.536461 
L 220.469715 82.327287 
L 222.877969 81.500658 
L 223.15296 81.417361 
L 223.782175 81.19438 
L 225.868567 80.42893 
L 227.437444 79.823597 
L 227.968054 79.633936 
L 228.360942 79.489874 
L 229.883541 78.891325 
L 231.608079 78.21682 
L 231.623262 78.210376 
L 231.635646 78.204979 
L 233.388708 77.546543 
L 233.906866 77.332787 
L 235.297563 76.849541 
L 235.562237 76.759981 
L 235.744204 76.707822 
L 237.033903 76.286761 
L 238.010183 76.005568 
L 238.604201 75.855074 
L 239.709917 75.639615 
L 240.239084 75.520375 
L 240.400656 75.490894 
L 240.920001 75.432382 
L 241.868328 75.309492 
L 242.27108 75.293179 
L 242.997028 75.24347 
L 243.94489 75.268047 
L 244.165622 75.272905 
L 244.499354 75.306715 
L 245.420865 75.376913 
L 246.316145 75.525513 
L 246.34417 75.529967 
L 247.145998 75.668098 
L 247.761686 75.83385 
L 248.836253 76.112184 
L 249.382038 76.293897 
L 250.722493 76.745275 
L 251.009802 76.864612 
L 252.371243 77.392857 
L 252.498783 77.452414 
L 253.579154 77.898707 
L 254.597819 78.334182 
L 255.242918 78.646561 
L 256.352313 79.119019 
L 257.155188 79.516605 
L 258.467164 80.121782 
L 258.982824 80.344841 
L 259.658096 80.639267 
L 260.947541 81.242521 
L 262.897905 82.092128 
L 263.099784 82.180224 
L 263.171085 82.206976 
L 263.682995 82.422363 
L 265.552042 83.220787 
L 265.894997 83.370918 
L 267.98962 84.209417 
L 269.603439 84.842707 
L 271.191732 85.401491 
L 273.83791 86.331494 
L 274.461811 86.524389 
L 276.997554 87.36163 
L 279.038574 87.927911 
L 280.825493 88.470909 
L 284.527925 89.40233 
L 285.19829 89.587951 
L 285.889547 89.755565 
L 289.654488 90.606388 
L 291.527259 90.97951 
L 293.888925 91.41506 
L 296.74017 91.935092 
L 300.597745 92.503594 
L 302.131015 92.7393 
L 306.524798 93.255271 
L 308.037424 93.44343 
L 308.553758 93.490938 
L 314.127434 94.015086 
L 316.337806 94.155325 
L 320.308895 94.402542 
L 324.768448 94.554015 
L 326.085801 94.607912 
L 328.55687 94.630624 
L 332.152941 94.688149 
L 332.152941 88.511778 
L 332.152941 81.108168 
L 332.152941 73.501839 
L 332.110603 73.501285 
L 325.723612 73.444905 
L 323.906103 73.384784 
L 319.17732 73.236492 
L 314.770846 72.996538 
L 312.747244 72.879077 
L 306.684079 72.402773 
L 306.358088 72.375089 
L 305.663407 72.300886 
L 300.190411 71.767399 
L 297.665986 71.473581 
L 294.542499 71.083367 
L 290.883655 70.557714 
L 290.445988 70.502271 
L 289.906405 70.419822 
L 286.648688 69.934804 
L 284.758092 69.596504 
L 282.801243 69.290639 
L 279.573723 68.721169 
L 278.499202 68.52325 
L 276.612357 68.156549 
L 274.26293 67.720164 
L 273.583607 67.601043 
L 270.284481 66.940544 
L 267.543086 66.418617 
L 266.310227 66.160931 
L 265.516196 65.987761 
L 262.021913 65.346769 
L 261.554441 65.247882 
L 260.64166 65.0819 
L 258.204154 64.653188 
L 256.610812 64.42131 
L 255.132474 64.171628 
L 253.628295 63.965644 
L 252.244849 63.788321 
L 248.969918 63.461242 
L 248.874159 63.452656 
L 248.773301 63.446921 
L 246.001744 63.254804 
L 244.703978 63.215989 
L 243.159222 63.179017 
L 241.977332 63.172798 
L 240.074456 63.205927 
L 238.79994 63.246937 
L 236.869299 63.353903 
L 234.835101 63.487683 
L 233.220087 63.652647 
L 231.398928 63.816688 
L 229.454684 64.055485 
L 227.207723 64.334529 
L 226.802001 64.395309 
L 223.712048 64.802006 
L 222.976489 64.923347 
L 219.486686 65.399654 
L 219.305011 65.429192 
L 219.084272 65.463626 
L 215.827001 65.912317 
L 212.145912 66.386334 
L 212.13202 66.387928 
L 212.114459 66.389786 
L 208.323886 66.847852 
L 205.918795 67.113482 
L 204.167081 67.27723 
L 200.0309 67.634556 
L 199.546823 67.665249 
L 196.158868 67.911492 
L 193.715237 68.012366 
L 190.391342 68.159336 
L 186.529387 68.206011 
L 184.447059 68.243012 
L 184.447059 72.85008 
L 184.447059 78.189795 
L 184.447059 83.369397 
" style="fill:#1fa088;"/>
   </g>
   <g id="PathCollection_14">
    <path clip-path="url(#p2e8e368bbb)" d="M 184.447059 68.243012 
L 186.529387 68.206011 
L 190.391342 68.159336 
L 193.715237 68.012366 
L 196.158868 67.911492 
L 199.546823 67.665249 
L 200.0309 67.634556 
L 204.167081 67.27723 
L 205.918795 67.113482 
L 208.323886 66.847852 
L 212.114459 66.389786 
L 212.13202 66.387928 
L 212.145912 66.386334 
L 215.827001 65.912317 
L 219.084272 65.463626 
L 219.305011 65.429192 
L 219.486686 65.399654 
L 222.976489 64.923347 
L 223.712048 64.802006 
L 226.802001 64.395309 
L 227.207723 64.334529 
L 229.454684 64.055485 
L 231.398928 63.816688 
L 233.220087 63.652647 
L 234.835101 63.487683 
L 236.869299 63.353903 
L 238.79994 63.246937 
L 240.074456 63.205927 
L 241.977332 63.172798 
L 243.159222 63.179017 
L 244.703978 63.215989 
L 246.001744 63.254804 
L 248.773301 63.446921 
L 248.874159 63.452656 
L 248.969918 63.461242 
L 252.244849 63.788321 
L 253.628295 63.965644 
L 255.132474 64.171628 
L 256.610812 64.42131 
L 258.204154 64.653188 
L 260.64166 65.0819 
L 261.554441 65.247882 
L 262.021913 65.346769 
L 265.516196 65.987761 
L 266.310227 66.160931 
L 267.543086 66.418617 
L 270.284481 66.940544 
L 273.583607 67.601043 
L 274.26293 67.720164 
L 276.612357 68.156549 
L 278.499202 68.52325 
L 279.573723 68.721169 
L 282.801243 69.290639 
L 284.758092 69.596504 
L 286.648688 69.934804 
L 289.906405 70.419822 
L 290.445988 70.502271 
L 290.883655 70.557714 
L 294.542499 71.083367 
L 297.665986 71.473581 
L 300.190411 71.767399 
L 305.663407 72.300886 
L 306.358088 72.375089 
L 306.684079 72.402773 
L 312.747244 72.879077 
L 314.770846 72.996538 
L 319.17732 73.236492 
L 323.906103 73.384784 
L 325.723612 73.444905 
L 332.110603 73.501285 
L 332.152941 73.501839 
L 332.152941 73.49393 
L 332.152941 65.553262 
L 332.152941 56.974356 
L 332.152941 53.757622 
L 325.76243 53.684555 
L 322.830477 53.663483 
L 320.246545 53.588738 
L 315.413161 53.476469 
L 311.289214 53.290744 
L 311.253975 53.289416 
L 304.288107 52.93939 
L 301.866223 52.803781 
L 297.993792 52.542252 
L 292.276771 52.110529 
L 292.120716 52.100777 
L 291.90991 52.084986 
L 286.138048 51.624178 
L 283.668096 51.377027 
L 279.048612 50.990355 
L 277.546355 50.829523 
L 272.636274 50.397573 
L 271.58238 50.280156 
L 266.656644 49.870287 
L 265.17165 49.718288 
L 263.917115 49.596028 
L 258.801016 49.23248 
L 257.46966 49.128664 
L 251.798079 48.83431 
L 251.153623 48.794162 
L 250.621464 48.774878 
L 245.536721 48.614311 
L 244.489175 48.598654 
L 240.106976 48.562382 
L 238.335792 48.584706 
L 235.594208 48.60178 
L 232.140095 48.696493 
L 229.521104 48.784555 
L 227.492037 48.877423 
L 222.264539 49.100628 
L 220.896266 49.189471 
L 214.641238 49.498491 
L 213.601162 49.571468 
L 212.377133 49.646086 
L 206.348069 49.939233 
L 200.96025 50.16557 
L 199.124186 50.221639 
L 193.290769 50.397706 
L 189.465194 50.435884 
L 184.447059 50.491707 
L 184.447059 53.382592 
L 184.447059 60.770988 
L 184.447059 67.139327 
" style="fill:#3fbc73;"/>
   </g>
   <g id="PathCollection_15">
    <path clip-path="url(#p2e8e368bbb)" d="M 184.447059 50.491707 
L 189.465194 50.435884 
L 193.290769 50.397706 
L 199.124186 50.221639 
L 200.96025 50.16557 
L 206.348069 49.939233 
L 212.377133 49.646086 
L 213.601162 49.571468 
L 214.641238 49.498491 
L 220.896266 49.189471 
L 222.264539 49.100628 
L 227.492037 48.877423 
L 229.521104 48.784555 
L 232.140095 48.696493 
L 235.594208 48.60178 
L 238.335792 48.584706 
L 240.106976 48.562382 
L 244.489175 48.598654 
L 245.536721 48.614311 
L 250.621464 48.774878 
L 251.153623 48.794162 
L 251.798079 48.83431 
L 257.46966 49.128664 
L 258.801016 49.23248 
L 263.917115 49.596028 
L 265.17165 49.718288 
L 266.656644 49.870287 
L 271.58238 50.280156 
L 272.636274 50.397573 
L 277.546355 50.829523 
L 279.048612 50.990355 
L 283.668096 51.377027 
L 286.138048 51.624178 
L 291.90991 52.084986 
L 292.120716 52.100777 
L 292.276771 52.110529 
L 297.993792 52.542252 
L 301.866223 52.803781 
L 304.288107 52.93939 
L 311.253975 53.289416 
L 311.289214 53.290744 
L 315.413161 53.476469 
L 320.246545 53.588738 
L 322.830477 53.663483 
L 325.76243 53.684555 
L 332.152941 53.757622 
L 332.152941 47.247481 
L 332.152941 35.707516 
L 332.152941 34.771649 
L 328.74729 34.757182 
L 320.562286 34.729337 
L 317.371373 34.666693 
L 309.503094 34.584041 
L 306.871174 34.502277 
L 299.363965 34.354581 
L 297.779387 34.29182 
L 292.380481 34.17713 
L 288.95573 34.044309 
L 286.356556 33.991609 
L 283.461336 33.90129 
L 282.052515 33.840936 
L 274.712622 33.611882 
L 274.704015 33.611467 
L 266.789171 33.37382 
L 266.352107 33.353536 
L 265.722294 33.332071 
L 259.343956 33.175022 
L 253.209137 33.054499 
L 253.023972 33.051436 
L 252.831659 33.051436 
L 246.675594 32.963142 
L 237.437128 32.941477 
L 237.306636 32.941477 
L 226.549387 33.022119 
L 225.946675 33.022119 
L 220.684586 33.097876 
L 216.106566 33.164493 
L 215.699099 33.177259 
L 212.456474 33.225979 
L 205.750824 33.326342 
L 204.766058 33.326342 
L 194.095823 33.450735 
L 193.366616 33.450735 
L 184.447059 33.48985 
L 184.447059 34.565601 
L 184.447059 44.817424 
" style="fill:#84d44b;"/>
   </g>
   <g id="PathCollection_16">
    <path clip-path="url(#p2e8e368bbb)" d="M 184.447059 33.48985 
L 193.366616 33.450735 
L 194.095823 33.450735 
L 204.766058 33.326342 
L 205.750824 33.326342 
L 212.456474 33.225979 
L 215.699099 33.177259 
L 216.106566 33.164493 
L 220.684586 33.097876 
L 225.946675 33.022119 
L 226.549387 33.022119 
L 237.306636 32.941477 
L 237.437128 32.941477 
L 246.675594 32.963142 
L 252.831659 33.051436 
L 253.023972 33.051436 
L 253.209137 33.054499 
L 259.343956 33.175022 
L 265.722294 33.332071 
L 266.352107 33.353536 
L 266.789171 33.37382 
L 274.704015 33.611467 
L 274.712622 33.611882 
L 282.052515 33.840936 
L 283.461336 33.90129 
L 286.356556 33.991609 
L 288.95573 34.044309 
L 292.380481 34.17713 
L 297.779387 34.29182 
L 299.363965 34.354581 
L 306.871174 34.502277 
L 309.503094 34.584041 
L 317.371373 34.666693 
L 320.562286 34.729337 
L 328.74729 34.757182 
L 332.152941 34.771649 
L 332.152941 22.318125 
L 318.547309 22.318125 
L 307.498909 22.318125 
L 298.187235 22.318125 
L 289.67465 22.318125 
L 281.647278 22.318125 
L 273.835852 22.318125 
L 265.757197 22.318125 
L 257.091995 22.318125 
L 247.189711 22.318125 
L 234.387747 22.318125 
L 221.718423 22.318125 
L 210.167232 22.318125 
L 197.922562 22.318125 
L 184.447059 22.318125 
" style="fill:#d8e219;"/>
   </g>
   <g id="line2d_5">
    <path d="M 332.152941 22.318125 
L 318.547309 22.318125 
L 307.498909 22.318125 
L 298.187235 22.318125 
L 289.67465 22.318125 
L 281.647278 22.318125 
L 273.835852 22.318125 
L 265.757197 22.318125 
L 257.091995 22.318125 
L 247.189711 22.318125 
L 234.387747 22.318125 
L 221.718423 22.318125 
L 210.167232 22.318125 
L 197.922562 22.318125 
L 184.447059 22.318125 
" style="fill:none;stroke:#1f77b4;stroke-linecap:square;stroke-width:1.5;"/>
   </g>
   <g id="line2d_6">
    <path d="M 243.529412 170.024007 
L 243.529412 161.802092 
L 243.529412 153.193808 
L 243.529412 145.257424 
L 243.529412 137.450429 
L 243.529412 130.600126 
L 243.529412 124.656293 
L 243.529412 119.295751 
L 243.529412 114.047909 
L 243.529412 109.292814 
L 243.529412 105.032385 
L 243.529412 101.155992 
L 243.529412 97.633945 
L 243.529412 94.442169 
L 243.529412 91.541668 
L 243.529412 88.968632 
L 243.529412 86.721878 
L 243.529412 84.846161 
L 243.529412 83.366886 
L 243.529412 82.330582 
L 243.529412 81.735623 
L 243.529412 81.400478 
" style="fill:none;stroke:#ff7f0e;stroke-linecap:square;stroke-width:1.5;"/>
   </g>
   <g id="line2d_7">
    <path d="M 184.447059 170.024007 
L 196.281845 170.024007 
L 206.465575 170.024007 
L 215.393214 170.024007 
L 223.442446 170.024007 
L 230.920647 170.024007 
L 237.988669 170.024007 
L 243.529412 170.024007 
L 248.795835 170.024007 
L 255.006883 170.024007 
L 261.235581 170.024007 
L 267.617213 170.024007 
L 274.249724 170.024007 
L 281.164132 170.024007 
L 288.620473 170.024007 
L 296.877084 170.024007 
L 306.147253 170.024007 
L 317.42696 170.024007 
L 332.152941 170.024007 
" style="fill:none;stroke:#2ca02c;stroke-linecap:square;stroke-width:1.5;"/>
   </g>
   <g id="line2d_8">
    <path d="M 332.152941 170.024007 
L 332.152941 156.148207 
L 332.152941 144.706481 
L 332.152941 134.703247 
L 332.152941 125.877526 
L 332.152941 117.932574 
L 332.152941 110.356887 
L 332.152941 103.014871 
L 332.152941 95.782304 
L 332.152941 88.511778 
L 332.152941 81.108168 
L 332.152941 73.49393 
L 332.152941 65.553262 
L 332.152941 56.974356 
L 332.152941 47.247481 
L 332.152941 35.707516 
L 332.152941 22.318125 
M 184.447059 22.318125 
L 184.447059 34.565601 
L 184.447059 44.817424 
L 184.447059 53.382592 
L 184.447059 60.770988 
L 184.447059 67.139327 
L 184.447059 72.85008 
L 184.447059 78.189795 
L 184.447059 83.369397 
L 184.447059 88.423006 
L 184.447059 93.429202 
L 184.447059 98.47321 
L 184.447059 103.582947 
L 184.447059 108.745416 
L 184.447059 114.099311 
L 184.447059 119.899278 
L 184.447059 125.98284 
L 184.447059 132.480569 
L 184.447059 139.687878 
L 184.447059 148.208439 
L 184.447059 158.540274 
L 184.447059 170.024007 
" style="fill:none;stroke:#d62728;stroke-linecap:square;stroke-width:1.5;"/>
   </g>
   <g id="text_2">
    <!-- $\kappa=$1.0 -->
    <g transform="translate(237.84 16.318125)scale(0.12 -0.12)">
     <use transform="translate(0 0.78125)" xlink:href="#DejaVuSans-Oblique-954"/>
     <use transform="translate(78.417969 0.78125)" xlink:href="#DejaVuSans-61"/>
     <use transform="translate(181.689453 0.78125)" xlink:href="#DejaVuSans-49"/>
     <use transform="translate(245.3125 0.78125)" xlink:href="#DejaVuSans-46"/>
     <use transform="translate(277.099609 0.78125)" xlink:href="#DejaVuSans-48"/>
    </g>
   </g>
  </g>
  <g id="axes_3">
   <g id="PathCollection_17">
    <path clip-path="url(#p4882b523d3)" d="M 394.172211 170.024007 
L 392.640295 170.021772 
L 386.001601 170.024007 
L 392.640272 170.024007 
M 409.623393 170.024007 
L 408.271381 169.945145 
L 408.175949 169.966574 
L 408.139037 169.978888 
L 402.241324 170.024007 
L 408.167706 170.024007 
M 424.998354 170.024007 
L 421.785672 169.069045 
L 420.776471 168.41965 
L 419.792461 168.968025 
L 416.297616 170.024007 
L 420.776471 170.024007 
M 437.162795 170.024007 
L 432.266064 169.974648 
L 432.173093 169.948574 
L 430.947178 170.024007 
L 432.253941 170.024007 
M 449.756939 170.024007 
L 444.865601 170.021985 
L 444.862957 170.021548 
L 443.615331 170.024007 
L 444.864272 170.024007 
" style="fill:#48186a;"/>
   </g>
   <g id="PathCollection_18">
    <path clip-path="url(#p4882b523d3)" d="M 386.001601 170.024007 
L 392.640295 170.021772 
L 394.172211 170.024007 
L 400.689505 170.024007 
L 402.241324 170.024007 
L 408.139037 169.978888 
L 408.175949 169.966574 
L 408.271381 169.945145 
L 409.623393 170.024007 
L 415.235728 170.024007 
L 416.297616 170.024007 
L 419.792461 168.968025 
L 420.776471 168.41965 
L 421.785672 169.069045 
L 424.998354 170.024007 
L 426.042894 170.024007 
L 430.947178 170.024007 
L 432.173093 169.948574 
L 432.266064 169.974648 
L 437.162795 170.024007 
L 438.482639 170.024007 
L 443.615331 170.024007 
L 444.862957 170.021548 
L 444.865601 170.021985 
L 449.756939 170.024007 
L 451.496783 170.024007 
L 458.411191 170.024007 
L 465.867532 170.024007 
L 474.124143 170.024007 
L 483.394312 170.024007 
L 494.674019 170.024007 
L 509.4 170.024007 
L 509.4 156.148207 
L 509.4 144.706481 
L 509.4 137.182559 
L 501.721362 136.915885 
L 500.677711 136.891291 
L 500.036342 136.825929 
L 492.593388 136.265197 
L 487.66137 135.558601 
L 485.599486 135.272907 
L 481.558402 134.410685 
L 479.103487 133.959002 
L 477.883129 133.644428 
L 472.709722 132.261526 
L 470.345777 131.475715 
L 466.628282 130.098349 
L 463.851316 128.854859 
L 461.611184 127.879064 
L 459.356266 126.600486 
L 456.958987 125.347948 
L 455.252628 124.189011 
L 452.500034 122.446235 
L 449.75866 120.231086 
L 448.676607 119.357356 
L 447.635047 118.318191 
L 445.243582 116.196026 
L 442.273687 112.864612 
L 442.05644 112.649312 
L 441.89796 112.474215 
L 439.339402 109.269971 
L 438.73571 108.44386 
L 437.24766 106.366315 
L 436.848672 105.659231 
L 435.334512 103.409612 
L 434.711652 102.236691 
L 433.713276 100.68375 
L 432.634586 98.834296 
L 432.259057 98.087529 
L 431.944409 97.42275 
L 431.1106 96.000029 
L 430.526851 94.788456 
L 429.930611 93.53083 
L 429.503109 92.797061 
L 429.141884 92.135165 
L 428.58096 90.947168 
L 428.141468 89.973324 
L 427.611983 89.030232 
L 427.052961 87.96982 
L 426.815737 87.460632 
L 426.692783 87.171117 
L 426.073924 86.056014 
L 425.7643 85.445095 
L 425.489455 85.019618 
L 425.156191 84.421121 
L 425.052745 84.271622 
L 424.728949 83.715993 
L 424.518093 83.377998 
L 424.326838 83.103431 
L 424.093163 82.794284 
L 423.90029 82.49912 
L 423.643968 82.188334 
L 423.423741 81.893773 
L 423.167938 81.632935 
L 423.000959 81.432396 
L 422.731592 81.196457 
L 422.624088 81.087726 
L 422.25733 80.810464 
L 422.252388 80.806351 
L 422.214623 80.784141 
L 421.869786 80.575489 
L 421.829026 80.556997 
L 421.474583 80.408112 
L 421.459749 80.40347 
L 421.420826 80.395231 
L 421.104557 80.309722 
L 420.873278 80.293884 
L 420.761394 80.282795 
L 420.688158 80.288676 
L 420.424652 80.305724 
L 420.158843 80.373881 
L 420.106763 80.387052 
L 419.881459 80.479328 
L 419.730817 80.535171 
L 419.69063 80.551081 
L 419.536358 80.637878 
L 419.376766 80.722694 
L 419.351635 80.742698 
L 419.067528 80.925018 
L 418.956507 81.024754 
L 418.701515 81.221557 
L 418.495485 81.436281 
L 418.286243 81.619025 
L 417.990495 81.96872 
L 417.774546 82.186437 
L 417.310013 82.788364 
L 417.308896 82.78986 
L 417.308374 82.790712 
L 416.833135 83.431563 
L 416.390291 84.093033 
L 416.365147 84.135194 
L 416.334417 84.189824 
L 415.835241 84.94177 
L 415.402402 85.674765 
L 415.284453 85.840878 
L 414.830398 86.605499 
L 414.387439 87.425102 
L 413.952766 88.067237 
L 413.000148 89.741652 
L 412.963914 89.809078 
L 412.941081 89.855378 
L 412.213378 91.15957 
L 411.28601 92.631917 
L 411.113507 92.982078 
L 410.697676 93.679341 
L 409.729017 95.225509 
L 408.920333 96.393045 
L 408.249091 97.507187 
L 406.927822 99.392587 
L 406.796163 99.572452 
L 406.715092 99.669044 
L 405.211392 101.70553 
L 403.98661 103.258206 
L 403.471307 103.810691 
L 402.196685 105.379201 
L 400.669058 106.854457 
L 399.783528 107.876238 
L 397.349251 110.066316 
L 396.923034 110.449235 
L 396.657885 110.636575 
L 393.715211 113.021288 
L 391.563561 114.358565 
L 390.120405 115.378957 
L 386.25577 117.413519 
L 385.911382 117.616164 
L 384.535072 118.18855 
L 381.842497 119.359222 
L 381.052203 119.591484 
L 377.505323 120.857353 
L 373.283518 121.777204 
L 372.528297 121.961396 
L 371.266955 122.11399 
L 367.366926 122.728341 
L 365.139155 122.814192 
L 361.694118 123.014046 
L 361.694118 125.98284 
L 361.694118 132.480569 
L 361.694118 139.687878 
L 361.694118 148.208439 
L 361.694118 158.540274 
L 361.694118 170.024007 
L 373.528904 170.024007 
L 383.712634 170.024007 
" style="fill:#424086;"/>
   </g>
   <g id="PathCollection_19">
    <path clip-path="url(#p4882b523d3)" d="M 361.694118 123.014046 
L 365.139155 122.814192 
L 367.366926 122.728341 
L 371.266955 122.11399 
L 372.528297 121.961396 
L 373.283518 121.777204 
L 377.505323 120.857353 
L 381.052203 119.591484 
L 381.842497 119.359222 
L 384.535072 118.18855 
L 385.911382 117.616164 
L 386.25577 117.413519 
L 390.120405 115.378957 
L 391.563561 114.358565 
L 393.715211 113.021288 
L 396.657885 110.636575 
L 396.923034 110.449235 
L 397.349251 110.066316 
L 399.783528 107.876238 
L 400.669058 106.854457 
L 402.196685 105.379201 
L 403.471307 103.810691 
L 403.98661 103.258206 
L 405.211392 101.70553 
L 406.715092 99.669044 
L 406.796163 99.572452 
L 406.927822 99.392587 
L 408.249091 97.507187 
L 408.920333 96.393045 
L 409.729017 95.225509 
L 410.697676 93.679341 
L 411.113507 92.982078 
L 411.28601 92.631917 
L 412.213378 91.15957 
L 412.941081 89.855378 
L 412.963914 89.809078 
L 413.000148 89.741652 
L 413.952766 88.067237 
L 414.387439 87.425102 
L 414.830398 86.605499 
L 415.284453 85.840878 
L 415.402402 85.674765 
L 415.835241 84.94177 
L 416.334417 84.189824 
L 416.365147 84.135194 
L 416.390291 84.093033 
L 416.833135 83.431563 
L 417.308374 82.790712 
L 417.308896 82.78986 
L 417.310013 82.788364 
L 417.774546 82.186437 
L 417.990495 81.96872 
L 418.286243 81.619025 
L 418.495485 81.436281 
L 418.701515 81.221557 
L 418.956507 81.024754 
L 419.067528 80.925018 
L 419.351635 80.742698 
L 419.376766 80.722694 
L 419.536358 80.637878 
L 419.69063 80.551081 
L 419.730817 80.535171 
L 419.881459 80.479328 
L 420.106763 80.387052 
L 420.158843 80.373881 
L 420.424652 80.305724 
L 420.688158 80.288676 
L 420.761394 80.282795 
L 420.873278 80.293884 
L 421.104557 80.309722 
L 421.420826 80.395231 
L 421.459749 80.40347 
L 421.474583 80.408112 
L 421.829026 80.556997 
L 421.869786 80.575489 
L 422.214623 80.784141 
L 422.252388 80.806351 
L 422.25733 80.810464 
L 422.624088 81.087726 
L 422.731592 81.196457 
L 423.000959 81.432396 
L 423.167938 81.632935 
L 423.423741 81.893773 
L 423.643968 82.188334 
L 423.90029 82.49912 
L 424.093163 82.794284 
L 424.326838 83.103431 
L 424.518093 83.377998 
L 424.728949 83.715993 
L 425.052745 84.271622 
L 425.156191 84.421121 
L 425.489455 85.019618 
L 425.7643 85.445095 
L 426.073924 86.056014 
L 426.692783 87.171117 
L 426.815737 87.460632 
L 427.052961 87.96982 
L 427.611983 89.030232 
L 428.141468 89.973324 
L 428.58096 90.947168 
L 429.141884 92.135165 
L 429.503109 92.797061 
L 429.930611 93.53083 
L 430.526851 94.788456 
L 431.1106 96.000029 
L 431.944409 97.42275 
L 432.259057 98.087529 
L 432.634586 98.834296 
L 433.713276 100.68375 
L 434.711652 102.236691 
L 435.334512 103.409612 
L 436.848672 105.659231 
L 437.24766 106.366315 
L 438.73571 108.44386 
L 439.339402 109.269971 
L 441.89796 112.474215 
L 442.05644 112.649312 
L 442.273687 112.864612 
L 445.243582 116.196026 
L 447.635047 118.318191 
L 448.676607 119.357356 
L 449.75866 120.231086 
L 452.500034 122.446235 
L 455.252628 124.189011 
L 456.958987 125.347948 
L 459.356266 126.600486 
L 461.611184 127.879064 
L 463.851316 128.854859 
L 466.628282 130.098349 
L 470.345777 131.475715 
L 472.709722 132.261526 
L 477.883129 133.644428 
L 479.103487 133.959002 
L 481.558402 134.410685 
L 485.599486 135.272907 
L 487.66137 135.558601 
L 492.593388 136.265197 
L 500.036342 136.825929 
L 500.677711 136.891291 
L 501.721362 136.915885 
L 509.4 137.182559 
L 509.4 134.703247 
L 509.4 125.877526 
L 509.4 117.932574 
L 509.4 110.356887 
L 509.4 109.577945 
L 505.769495 109.450828 
L 502.324259 109.37032 
L 501.535612 109.310937 
L 495.604842 108.739378 
L 494.557698 108.647201 
L 494.425961 108.62982 
L 488.885414 107.745886 
L 487.629256 107.547595 
L 487.598978 107.541617 
L 481.414267 106.176446 
L 480.889982 106.047441 
L 479.884725 105.737274 
L 475.068392 104.391493 
L 470.957061 102.878905 
L 469.575326 102.409114 
L 465.115684 100.473868 
L 465.078616 100.459263 
L 464.978341 100.411173 
L 460.972047 98.51166 
L 458.006905 96.860861 
L 457.010314 96.337004 
L 456.728935 96.197134 
L 455.692411 95.578201 
L 453.094891 94.040315 
L 452.042438 93.314084 
L 449.472888 91.69604 
L 448.575485 91.047144 
L 447.023777 89.926969 
L 445.7659 89.080416 
L 445.069557 88.608079 
L 443.280291 87.264085 
L 441.32686 85.826072 
L 441.104213 85.644895 
L 440.846382 85.44086 
L 439.200873 84.23194 
L 437.918818 83.284917 
L 437.691496 83.103869 
L 437.493975 82.952588 
L 435.945044 81.847672 
L 434.63213 80.886769 
L 434.219183 80.621286 
L 432.715229 79.592311 
L 432.411939 79.41799 
L 431.123696 78.583106 
L 430.644536 78.313877 
L 429.99858 77.966903 
L 429.356854 77.582288 
L 428.271371 77.050873 
L 427.837056 76.825497 
L 426.633614 76.325958 
L 426.092944 76.105792 
L 424.974212 75.754952 
L 424.447567 75.584574 
L 423.80589 75.45233 
L 423.517518 75.390506 
L 422.713423 75.230428 
L 421.400793 75.10946 
L 421.384006 75.107439 
L 421.373423 75.107144 
L 420.227514 75.069842 
L 419.693268 75.11147 
L 419.058211 75.140516 
L 417.674046 75.35044 
L 417.54383 75.367373 
L 417.500661 75.376559 
L 417.33775 75.419746 
L 415.840142 75.768319 
L 415.171104 75.973041 
L 414.280708 76.284745 
L 412.87147 76.849311 
L 412.849331 76.859098 
L 412.820036 76.873467 
L 411.34873 77.521498 
L 410.600062 77.919314 
L 409.49426 78.459321 
L 408.957167 78.769763 
L 408.041112 79.290642 
L 407.363307 79.649848 
L 406.761637 79.973641 
L 405.71209 80.598142 
L 403.788926 81.732178 
L 403.743241 81.76143 
L 403.679722 81.801532 
L 401.6276 82.994159 
L 400.278809 83.835261 
L 399.250266 84.368177 
L 397.477756 85.421555 
L 396.507057 85.90477 
L 394.210211 87.09504 
L 393.521878 87.473104 
L 393.213377 87.652972 
L 390.070123 89.112489 
L 389.657468 89.32632 
L 386.512218 90.619635 
L 385.962589 90.848458 
L 385.820782 90.894372 
L 382.320291 92.181301 
L 379.261842 93.059345 
L 378.565773 93.261214 
L 377.637741 93.458791 
L 374.798088 94.174601 
L 371.117475 94.775783 
L 370.884086 94.817748 
L 367.011926 95.222589 
L 366.365507 95.302288 
L 365.399412 95.332302 
L 361.694118 95.507315 
L 361.694118 98.47321 
L 361.694118 103.582947 
L 361.694118 108.745416 
L 361.694118 114.099311 
L 361.694118 119.899278 
" style="fill:#33638d;"/>
   </g>
   <g id="PathCollection_20">
    <path clip-path="url(#p4882b523d3)" d="M 361.694118 95.507315 
L 365.399412 95.332302 
L 366.365507 95.302288 
L 367.011926 95.222589 
L 370.884086 94.817748 
L 371.117475 94.775783 
L 374.798088 94.174601 
L 377.637741 93.458791 
L 378.565773 93.261214 
L 379.261842 93.059345 
L 382.320291 92.181301 
L 385.820782 90.894372 
L 385.962589 90.848458 
L 386.512218 90.619635 
L 389.657468 89.32632 
L 390.070123 89.112489 
L 393.213377 87.652972 
L 393.521878 87.473104 
L 394.210211 87.09504 
L 396.507057 85.90477 
L 397.477756 85.421555 
L 399.250266 84.368177 
L 400.278809 83.835261 
L 401.6276 82.994159 
L 403.679722 81.801532 
L 403.743241 81.76143 
L 403.788926 81.732178 
L 405.71209 80.598142 
L 406.761637 79.973641 
L 407.363307 79.649848 
L 408.041112 79.290642 
L 408.957167 78.769763 
L 409.49426 78.459321 
L 410.600062 77.919314 
L 411.34873 77.521498 
L 412.820036 76.873467 
L 412.849331 76.859098 
L 412.87147 76.849311 
L 414.280708 76.284745 
L 415.171104 75.973041 
L 415.840142 75.768319 
L 417.33775 75.419746 
L 417.500661 75.376559 
L 417.54383 75.367373 
L 417.674046 75.35044 
L 419.058211 75.140516 
L 419.693268 75.11147 
L 420.227514 75.069842 
L 421.373423 75.107144 
L 421.384006 75.107439 
L 421.400793 75.10946 
L 422.713423 75.230428 
L 423.517518 75.390506 
L 423.80589 75.45233 
L 424.447567 75.584574 
L 424.974212 75.754952 
L 426.092944 76.105792 
L 426.633614 76.325958 
L 427.837056 76.825497 
L 428.271371 77.050873 
L 429.356854 77.582288 
L 429.99858 77.966903 
L 430.644536 78.313877 
L 431.123696 78.583106 
L 432.411939 79.41799 
L 432.715229 79.592311 
L 434.219183 80.621286 
L 434.63213 80.886769 
L 435.945044 81.847672 
L 437.493975 82.952588 
L 437.691496 83.103869 
L 437.918818 83.284917 
L 439.200873 84.23194 
L 440.846382 85.44086 
L 441.104213 85.644895 
L 441.32686 85.826072 
L 443.280291 87.264085 
L 445.069557 88.608079 
L 445.7659 89.080416 
L 447.023777 89.926969 
L 448.575485 91.047144 
L 449.472888 91.69604 
L 452.042438 93.314084 
L 453.094891 94.040315 
L 455.692411 95.578201 
L 456.728935 96.197134 
L 457.010314 96.337004 
L 458.006905 96.860861 
L 460.972047 98.51166 
L 464.978341 100.411173 
L 465.078616 100.459263 
L 465.115684 100.473868 
L 469.575326 102.409114 
L 470.957061 102.878905 
L 475.068392 104.391493 
L 479.884725 105.737274 
L 480.889982 106.047441 
L 481.414267 106.176446 
L 487.598978 107.541617 
L 487.629256 107.547595 
L 488.885414 107.745886 
L 494.425961 108.62982 
L 494.557698 108.647201 
L 495.604842 108.739378 
L 501.535612 109.310937 
L 502.324259 109.37032 
L 505.769495 109.450828 
L 509.4 109.577945 
L 509.4 103.014871 
L 509.4 95.782304 
L 509.4 88.511778 
L 509.4 87.044655 
L 502.533004 86.849564 
L 502.5007 86.848776 
L 502.437376 86.843719 
L 495.769657 86.390402 
L 492.963619 86.043762 
L 489.008201 85.54552 
L 486.165782 85.063256 
L 482.505985 84.417715 
L 479.977404 83.85244 
L 477.052231 83.242835 
L 473.781864 82.381631 
L 471.358239 81.756036 
L 469.629652 81.226195 
L 466.382345 80.27291 
L 465.51481 79.96657 
L 462.46701 78.944508 
L 461.618735 78.673245 
L 461.176314 78.529058 
L 457.691319 77.282374 
L 454.31974 76.018145 
L 453.96138 75.895706 
L 453.651741 75.786363 
L 450.310706 74.506288 
L 447.560281 73.45979 
L 446.79356 73.143341 
L 445.965877 72.800475 
L 443.351405 71.82667 
L 440.341919 70.718493 
L 440.324674 70.712774 
L 440.304603 70.70649 
L 437.349143 69.684735 
L 434.841878 68.916769 
L 434.590441 68.830982 
L 434.363168 68.763329 
L 431.964644 68.098459 
L 429.806274 67.611676 
L 429.523034 67.539177 
L 429.229923 67.48351 
L 426.961575 67.055132 
L 424.823052 66.790271 
L 424.50296 66.74247 
L 424.387396 66.729471 
L 424.11905 66.712023 
L 422.27718 66.542583 
L 420.919507 66.506851 
L 420.593806 66.49565 
L 418.402313 66.509391 
L 418.191223 66.5192 
L 415.906641 66.645885 
L 415.447944 66.695066 
L 413.959398 66.820589 
L 412.580212 67.036272 
L 411.149476 67.221891 
L 408.92843 67.654448 
L 408.781356 67.678866 
L 406.061531 68.272055 
L 405.213967 68.451521 
L 403.166072 68.96318 
L 401.577762 69.399782 
L 400.381134 69.675932 
L 398.531028 70.148261 
L 397.405159 70.467405 
L 396.1605 70.823762 
L 394.240975 71.314383 
L 392.078892 71.846049 
L 390.805767 72.203553 
L 389.638699 72.506312 
L 387.255159 73.071048 
L 384.576327 73.628406 
L 383.492317 73.892882 
L 382.471641 74.101106 
L 379.459379 74.659406 
L 375.623867 75.235501 
L 375.407038 75.264381 
L 375.023219 75.304051 
L 371.138377 75.778833 
L 369.507972 75.907554 
L 366.571008 76.107241 
L 364.068683 76.175199 
L 361.694118 76.240808 
L 361.694118 78.189795 
L 361.694118 83.369397 
L 361.694118 88.423006 
L 361.694118 93.429202 
" style="fill:#26828e;"/>
   </g>
   <g id="PathCollection_21">
    <path clip-path="url(#p4882b523d3)" d="M 361.694118 76.240808 
L 364.068683 76.175199 
L 366.571008 76.107241 
L 369.507972 75.907554 
L 371.138377 75.778833 
L 375.023219 75.304051 
L 375.407038 75.264381 
L 375.623867 75.235501 
L 379.459379 74.659406 
L 382.471641 74.101106 
L 383.492317 73.892882 
L 384.576327 73.628406 
L 387.255159 73.071048 
L 389.638699 72.506312 
L 390.805767 72.203553 
L 392.078892 71.846049 
L 394.240975 71.314383 
L 396.1605 70.823762 
L 397.405159 70.467405 
L 398.531028 70.148261 
L 400.381134 69.675932 
L 401.577762 69.399782 
L 403.166072 68.96318 
L 405.213967 68.451521 
L 406.061531 68.272055 
L 408.781356 67.678866 
L 408.92843 67.654448 
L 411.149476 67.221891 
L 412.580212 67.036272 
L 413.959398 66.820589 
L 415.447944 66.695066 
L 415.906641 66.645885 
L 418.191223 66.5192 
L 418.402313 66.509391 
L 420.593806 66.49565 
L 420.919507 66.506851 
L 422.27718 66.542583 
L 424.11905 66.712023 
L 424.387396 66.729471 
L 424.50296 66.74247 
L 424.823052 66.790271 
L 426.961575 67.055132 
L 429.229923 67.48351 
L 429.523034 67.539177 
L 429.806274 67.611676 
L 431.964644 68.098459 
L 434.363168 68.763329 
L 434.590441 68.830982 
L 434.841878 68.916769 
L 437.349143 69.684735 
L 440.304603 70.70649 
L 440.324674 70.712774 
L 440.341919 70.718493 
L 443.351405 71.82667 
L 445.965877 72.800475 
L 446.79356 73.143341 
L 447.560281 73.45979 
L 450.310706 74.506288 
L 453.651741 75.786363 
L 453.96138 75.895706 
L 454.31974 76.018145 
L 457.691319 77.282374 
L 461.176314 78.529058 
L 461.618735 78.673245 
L 462.46701 78.944508 
L 465.51481 79.96657 
L 466.382345 80.27291 
L 469.629652 81.226195 
L 471.358239 81.756036 
L 473.781864 82.381631 
L 477.052231 83.242835 
L 479.977404 83.85244 
L 482.505985 84.417715 
L 486.165782 85.063256 
L 489.008201 85.54552 
L 492.963619 86.043762 
L 495.769657 86.390402 
L 502.437376 86.843719 
L 502.5007 86.848776 
L 502.533004 86.849564 
L 509.4 87.044655 
L 509.4 81.108168 
L 509.4 73.49393 
L 509.4 67.641609 
L 503.408293 67.517227 
L 503.319415 67.515885 
L 503.157587 67.506758 
L 497.129134 67.257824 
L 493.19057 66.953689 
L 490.790691 66.754913 
L 485.371115 66.145878 
L 484.664887 66.076212 
L 484.310649 66.032896 
L 478.71103 65.278826 
L 474.763151 64.654921 
L 472.912684 64.337344 
L 470.224814 63.813807 
L 467.246942 63.294119 
L 465.300236 62.939224 
L 461.478151 62.142827 
L 459.613852 61.709016 
L 456.225726 61.053784 
L 455.019585 60.757602 
L 450.214764 59.773144 
L 449.883277 59.690411 
L 449.418039 59.585301 
L 445.336679 58.754311 
L 441.427105 58.025873 
L 440.917198 57.915262 
L 439.916395 57.74008 
L 437.166693 57.27069 
L 435.858898 57.097056 
L 433.699713 56.748778 
L 431.128602 56.447589 
L 430.404658 56.356856 
L 429.887307 56.314921 
L 427.140371 56.025912 
L 424.573976 55.872493 
L 423.701044 55.818594 
L 419.844304 55.711262 
L 419.606862 55.70545 
L 418.346196 55.719456 
L 415.613014 55.73561 
L 415.144084 55.756861 
L 411.604032 55.89829 
L 410.798304 55.964914 
L 407.548199 56.183677 
L 405.682507 56.384211 
L 403.94744 56.522231 
L 400.430557 56.921881 
L 400.169759 56.951385 
L 400.004838 56.975624 
L 396.729343 57.358297 
L 393.611423 57.769706 
L 392.338215 57.896833 
L 388.644246 58.388228 
L 386.801859 58.560985 
L 383.017627 59.002882 
L 381.58662 59.121419 
L 377.891541 59.486805 
L 376.181193 59.652212 
L 370.596801 59.975928 
L 370.149028 60.006357 
L 366.94481 60.0746 
L 361.694118 60.205021 
L 361.694118 60.770988 
L 361.694118 67.139327 
L 361.694118 72.85008 
" style="fill:#1fa088;"/>
   </g>
   <g id="PathCollection_22">
    <path clip-path="url(#p4882b523d3)" d="M 361.694118 60.205021 
L 366.94481 60.0746 
L 370.149028 60.006357 
L 370.596801 59.975928 
L 376.181193 59.652212 
L 377.891541 59.486805 
L 381.58662 59.121419 
L 383.017627 59.002882 
L 386.801859 58.560985 
L 388.644246 58.388228 
L 392.338215 57.896833 
L 393.611423 57.769706 
L 396.729343 57.358297 
L 400.004838 56.975624 
L 400.169759 56.951385 
L 400.430557 56.921881 
L 403.94744 56.522231 
L 405.682507 56.384211 
L 407.548199 56.183677 
L 410.798304 55.964914 
L 411.604032 55.89829 
L 415.144084 55.756861 
L 415.613014 55.73561 
L 418.346196 55.719456 
L 419.606862 55.70545 
L 419.844304 55.711262 
L 423.701044 55.818594 
L 424.573976 55.872493 
L 427.140371 56.025912 
L 429.887307 56.314921 
L 430.404658 56.356856 
L 431.128602 56.447589 
L 433.699713 56.748778 
L 435.858898 57.097056 
L 437.166693 57.27069 
L 439.916395 57.74008 
L 440.917198 57.915262 
L 441.427105 58.025873 
L 445.336679 58.754311 
L 449.418039 59.585301 
L 449.883277 59.690411 
L 450.214764 59.773144 
L 455.019585 60.757602 
L 456.225726 61.053784 
L 459.613852 61.709016 
L 461.478151 62.142827 
L 465.300236 62.939224 
L 467.246942 63.294119 
L 470.224814 63.813807 
L 472.912684 64.337344 
L 474.763151 64.654921 
L 478.71103 65.278826 
L 484.310649 66.032896 
L 484.664887 66.076212 
L 485.371115 66.145878 
L 490.790691 66.754913 
L 493.19057 66.953689 
L 497.129134 67.257824 
L 503.157587 67.506758 
L 503.319415 67.515885 
L 503.408293 67.517227 
L 509.4 67.641609 
L 509.4 65.553262 
L 509.4 56.974356 
L 509.4 50.010615 
L 503.471885 49.900004 
L 499.237772 49.857882 
L 495.538945 49.700386 
L 491.822981 49.56024 
L 490.373621 49.454637 
L 484.281999 49.0854 
L 482.483434 48.940907 
L 478.693548 48.602995 
L 476.063467 48.398042 
L 473.98838 48.221657 
L 469.612019 47.795872 
L 466.092884 47.387242 
L 462.788374 47.073111 
L 460.204723 46.817348 
L 456.585622 46.373019 
L 452.929221 46.006632 
L 450.920933 45.744829 
L 446.645477 45.319924 
L 446.004095 45.24167 
L 442.507387 44.897559 
L 438.516242 44.574714 
L 437.134976 44.432239 
L 432.707234 44.151548 
L 430.219563 43.962979 
L 426.036456 43.804816 
L 424.741 43.74949 
L 419.915957 43.648545 
L 417.919544 43.626519 
L 411.839902 43.69626 
L 411.013813 43.70248 
L 410.507293 43.721149 
L 409.717839 43.757369 
L 404.023097 43.908937 
L 401.469096 44.059635 
L 397.129689 44.23358 
L 393.926304 44.456219 
L 389.783487 44.643164 
L 384.272832 44.963298 
L 383.078997 45.014731 
L 379.630991 45.13704 
L 374.621276 45.359149 
L 373.191455 45.422165 
L 362.375384 45.580191 
L 361.694118 45.591349 
L 361.694118 53.382592 
" style="fill:#3fbc73;"/>
   </g>
   <g id="PathCollection_23">
    <path clip-path="url(#p4882b523d3)" d="M 361.694118 45.591349 
L 362.375384 45.580191 
L 373.191455 45.422165 
L 374.621276 45.359149 
L 379.630991 45.13704 
L 383.078997 45.014731 
L 384.272832 44.963298 
L 389.783487 44.643164 
L 393.926304 44.456219 
L 397.129689 44.23358 
L 401.469096 44.059635 
L 404.023097 43.908937 
L 409.717839 43.757369 
L 410.507293 43.721149 
L 411.013813 43.70248 
L 411.839902 43.69626 
L 417.919544 43.626519 
L 419.915957 43.648545 
L 424.741 43.74949 
L 426.036456 43.804816 
L 430.219563 43.962979 
L 432.707234 44.151548 
L 437.134976 44.432239 
L 438.516242 44.574714 
L 442.507387 44.897559 
L 446.004095 45.24167 
L 446.645477 45.319924 
L 450.920933 45.744829 
L 452.929221 46.006632 
L 456.585622 46.373019 
L 460.204723 46.817348 
L 462.788374 47.073111 
L 466.092884 47.387242 
L 469.612019 47.795872 
L 473.98838 48.221657 
L 476.063467 48.398042 
L 478.693548 48.602995 
L 482.483434 48.940907 
L 484.281999 49.0854 
L 490.373621 49.454637 
L 491.822981 49.56024 
L 495.538945 49.700386 
L 499.237772 49.857882 
L 503.471885 49.900004 
L 509.4 50.010615 
L 509.4 47.247481 
L 509.4 35.707516 
L 509.4 33.266151 
L 500.433288 33.205391 
L 497.56959 33.189807 
L 496.476789 33.155574 
L 486.457344 32.988976 
L 485.493573 32.941745 
L 479.004493 32.741923 
L 476.502091 32.667571 
L 476.237522 32.66385 
L 475.187651 32.634078 
L 469.347087 32.442701 
L 467.574221 32.337137 
L 463.456755 32.209902 
L 460.439119 32.066991 
L 459.016652 32.035044 
L 453.168165 31.764114 
L 450.668493 31.705587 
L 445.022467 31.455689 
L 443.563706 31.424381 
L 440.867083 31.364244 
L 436.335439 31.201763 
L 432.93001 31.104025 
L 431.026502 31.058156 
L 429.030953 31.058155 
L 424.019713 30.953478 
L 416.535313 30.925072 
L 413.999664 30.925072 
L 405.267297 31.013538 
L 402.400312 31.013539 
L 394.046242 31.181808 
L 392.355722 31.181809 
L 383.7852 31.363898 
L 380.793122 31.363899 
L 372.009707 31.510831 
L 369.059404 31.510831 
L 361.694118 31.557476 
L 361.694118 34.565601 
L 361.694118 44.817424 
" style="fill:#84d44b;"/>
   </g>
   <g id="PathCollection_24">
    <path clip-path="url(#p4882b523d3)" d="M 361.694118 31.557476 
L 369.059404 31.510831 
L 372.009707 31.510831 
L 380.793122 31.363899 
L 383.7852 31.363898 
L 392.355722 31.181809 
L 394.046242 31.181808 
L 402.400312 31.013539 
L 405.267297 31.013538 
L 413.999664 30.925072 
L 416.535313 30.925072 
L 424.019713 30.953478 
L 429.030953 31.058155 
L 431.026502 31.058156 
L 432.93001 31.104025 
L 436.335439 31.201763 
L 440.867083 31.364244 
L 443.563706 31.424381 
L 445.022467 31.455689 
L 450.668493 31.705587 
L 453.168165 31.764114 
L 459.016652 32.035044 
L 460.439119 32.066991 
L 463.456755 32.209902 
L 467.574221 32.337137 
L 469.347087 32.442701 
L 475.187651 32.634078 
L 476.237522 32.66385 
L 476.502091 32.667571 
L 479.004493 32.741923 
L 485.493573 32.941745 
L 486.457344 32.988976 
L 496.476789 33.155574 
L 497.56959 33.189807 
L 500.433288 33.205391 
L 509.4 33.266151 
L 509.4 22.318125 
L 495.794368 22.318125 
L 484.745968 22.318125 
L 475.434294 22.318125 
L 466.921708 22.318125 
L 458.894337 22.318125 
L 451.082911 22.318125 
L 443.004256 22.318125 
L 434.339054 22.318125 
L 424.43677 22.318125 
L 411.634806 22.318125 
L 398.965481 22.318125 
L 387.414291 22.318125 
L 375.169621 22.318125 
L 361.694118 22.318125 
" style="fill:#d8e219;"/>
   </g>
   <g id="line2d_9">
    <path d="M 509.4 22.318125 
L 495.794368 22.318125 
L 484.745968 22.318125 
L 475.434294 22.318125 
L 466.921708 22.318125 
L 458.894337 22.318125 
L 451.082911 22.318125 
L 443.004256 22.318125 
L 434.339054 22.318125 
L 424.43677 22.318125 
L 411.634806 22.318125 
L 398.965481 22.318125 
L 387.414291 22.318125 
L 375.169621 22.318125 
L 361.694118 22.318125 
" style="fill:none;stroke:#1f77b4;stroke-linecap:square;stroke-width:1.5;"/>
   </g>
   <g id="line2d_10">
    <path d="M 420.776471 170.024007 
L 420.776471 161.802092 
L 420.776471 153.193808 
L 420.776471 145.257424 
L 420.776471 137.450429 
L 420.776471 130.600126 
L 420.776471 124.656293 
L 420.776471 119.295751 
L 420.776471 114.047909 
L 420.776471 109.292814 
L 420.776471 105.032385 
L 420.776471 101.155992 
L 420.776471 97.633945 
L 420.776471 94.442169 
L 420.776471 91.541668 
L 420.776471 88.968632 
L 420.776471 86.721878 
L 420.776471 84.846161 
L 420.776471 83.366886 
L 420.776471 82.330582 
L 420.776471 81.735623 
L 420.776471 81.400478 
" style="fill:none;stroke:#ff7f0e;stroke-linecap:square;stroke-width:1.5;"/>
   </g>
   <g id="line2d_11">
    <path d="M 361.694118 170.024007 
L 373.528904 170.024007 
L 383.712634 170.024007 
L 392.640272 170.024007 
L 400.689505 170.024007 
L 408.167706 170.024007 
L 415.235728 170.024007 
L 420.776471 170.024007 
L 426.042894 170.024007 
L 432.253941 170.024007 
L 438.482639 170.024007 
L 444.864272 170.024007 
L 451.496783 170.024007 
L 458.411191 170.024007 
L 465.867532 170.024007 
L 474.124143 170.024007 
L 483.394312 170.024007 
L 494.674019 170.024007 
L 509.4 170.024007 
" style="fill:none;stroke:#2ca02c;stroke-linecap:square;stroke-width:1.5;"/>
   </g>
   <g id="line2d_12">
    <path d="M 509.4 170.024007 
L 509.4 156.148207 
L 509.4 144.706481 
L 509.4 134.703247 
L 509.4 125.877526 
L 509.4 117.932574 
L 509.4 110.356887 
L 509.4 103.014871 
L 509.4 95.782304 
L 509.4 88.511778 
L 509.4 81.108168 
L 509.4 73.49393 
L 509.4 65.553262 
L 509.4 56.974356 
L 509.4 47.247481 
L 509.4 35.707516 
L 509.4 22.318125 
M 361.694118 22.318125 
L 361.694118 34.565601 
L 361.694118 44.817424 
L 361.694118 53.382592 
L 361.694118 60.770988 
L 361.694118 67.139327 
L 361.694118 72.85008 
L 361.694118 78.189795 
L 361.694118 83.369397 
L 361.694118 88.423006 
L 361.694118 93.429202 
L 361.694118 98.47321 
L 361.694118 103.582947 
L 361.694118 108.745416 
L 361.694118 114.099311 
L 361.694118 119.899278 
L 361.694118 125.98284 
L 361.694118 132.480569 
L 361.694118 139.687878 
L 361.694118 148.208439 
L 361.694118 158.540274 
L 361.694118 170.024007 
" style="fill:none;stroke:#d62728;stroke-linecap:square;stroke-width:1.5;"/>
   </g>
   <g id="text_3">
    <!-- $\kappa=$10.0 -->
    <g transform="translate(411.247059 16.318125)scale(0.12 -0.12)">
     <use transform="translate(0 0.78125)" xlink:href="#DejaVuSans-Oblique-954"/>
     <use transform="translate(78.417969 0.78125)" xlink:href="#DejaVuSans-61"/>
     <use transform="translate(181.689453 0.78125)" xlink:href="#DejaVuSans-49"/>
     <use transform="translate(245.3125 0.78125)" xlink:href="#DejaVuSans-48"/>
     <use transform="translate(308.935547 0.78125)" xlink:href="#DejaVuSans-46"/>
     <use transform="translate(340.722656 0.78125)" xlink:href="#DejaVuSans-48"/>
    </g>
   </g>
  </g>
 </g>
 <defs>
  <clipPath id="peec00cafcc">
   <rect height="147.705882" width="147.705882" x="7.2" y="22.318125"/>
  </clipPath>
  <clipPath id="p2e8e368bbb">
   <rect height="147.705882" width="147.705882" x="184.447059" y="22.318125"/>
  </clipPath>
  <clipPath id="p4882b523d3">
   <rect height="147.705882" width="147.705882" x="361.694118" y="22.318125"/>
  </clipPath>
 </defs>
</svg>
