<?xml version="1.0" encoding="utf-8" standalone="no"?>
<!DOCTYPE svg PUBLIC "-//W3C//DTD SVG 1.1//EN"
  "http://www.w3.org/Graphics/SVG/1.1/DTD/svg11.dtd">
<!-- Created with matplotlib (https://matplotlib.org/) -->
<svg height="280.512pt" version="1.1" viewBox="0 0 280.512 280.512" width="280.512pt" xmlns="http://www.w3.org/2000/svg" xmlns:xlink="http://www.w3.org/1999/xlink">
 <defs>
  <style type="text/css">
*{stroke-linecap:butt;stroke-linejoin:round;}
  </style>
 </defs>
 <g id="figure_1">
  <g id="patch_1">
   <path d="M 0 280.512 
L 280.512 280.512 
L 280.512 0 
L 0 0 
z
" style="fill:#ffffff;"/>
  </g>
  <g id="axes_1">
   <g id="PathCollection_1">
    <path clip-path="url(#p8c67a597c0)" d="M 142.965681 214.670238 
L 140.255479 220.088766 
L 140.255479 220.089809 
L 140.256 237.648949 
L 140.256521 220.089809 
" style="fill:#48186a;"/>
   </g>
   <g id="PathCollection_2">
    <path clip-path="url(#p8c67a597c0)" d="M 160.213562 273.312 
L 160.214906 228.073162 
L 182.830842 182.830842 
L 182.830804 142.921795 
L 142.921809 142.921809 
L 120.297155 188.155448 
L 120.297098 228.073161 
L 120.298441 273.312 
L 140.256 273.312 
M 140.256521 220.089809 
L 140.256 237.648949 
L 140.255479 220.089809 
L 140.255479 220.088766 
L 142.965681 214.670238 
" style="fill:#424086;"/>
   </g>
   <g id="PathCollection_3">
    <path clip-path="url(#p8c67a597c0)" d="M 120.298441 273.312 
L 120.297098 228.073161 
L 120.297155 188.155448 
L 142.921809 142.921809 
L 182.830804 142.921795 
L 182.830842 182.830842 
L 160.214906 228.073162 
L 160.213562 273.312 
L 180.172184 273.312 
L 180.17329 236.056516 
L 198.798164 198.798164 
L 198.798087 118.97087 
L 118.970899 118.970899 
L 100.338831 156.22213 
L 100.338717 236.056513 
L 100.339823 273.312 
" style="fill:#33638d;"/>
   </g>
   <g id="PathCollection_4">
    <path clip-path="url(#p8c67a597c0)" d="M 100.339823 273.312 
L 100.338717 236.056513 
L 100.338831 156.22213 
L 118.970899 118.970899 
L 198.798087 118.97087 
L 198.798164 198.798164 
L 180.17329 236.056516 
L 180.172184 273.312 
L 200.130805 273.312 
L 200.131674 244.03987 
L 214.765486 214.765486 
L 214.76537 95.019946 
L 95.019989 95.019989 
L 80.380507 124.288812 
L 80.380337 244.039865 
L 80.381206 273.312 
" style="fill:#26828e;"/>
   </g>
   <g id="PathCollection_5">
    <path clip-path="url(#p8c67a597c0)" d="M 80.381206 273.312 
L 80.380337 244.039865 
L 80.380507 124.288812 
L 95.019989 95.019989 
L 214.76537 95.019946 
L 214.765486 214.765486 
L 200.131674 244.03987 
L 200.130805 273.312 
L 220.089426 273.312 
L 220.090058 252.023223 
L 230.732808 230.732808 
L 230.732653 71.069021 
L 71.069078 71.069078 
L 60.422184 92.355494 
L 60.421956 252.023218 
L 60.422588 273.312 
" style="fill:#1f9f88;"/>
   </g>
   <g id="PathCollection_6">
    <path clip-path="url(#p8c67a597c0)" d="M 60.422588 273.312 
L 60.421956 252.023218 
L 60.422184 92.355494 
L 71.069078 71.069078 
L 230.732653 71.069021 
L 230.732808 230.732808 
L 220.090058 252.023223 
L 220.089426 273.312 
L 240.048047 273.312 
L 240.048443 260.006577 
L 246.70013 246.70013 
L 246.699936 47.118097 
L 47.118168 47.118168 
L 40.46386 60.422176 
L 40.463575 260.00657 
L 40.46397 273.312 
" style="fill:#3fbc73;"/>
   </g>
   <g id="PathCollection_7">
    <path clip-path="url(#p8c67a597c0)" d="M 40.46397 273.312 
L 40.463575 260.00657 
L 40.46386 60.422176 
L 47.118168 47.118168 
L 246.699936 47.118097 
L 246.70013 246.70013 
L 240.048443 260.006577 
L 240.048047 273.312 
L 260.006669 273.312 
L 260.006827 267.989931 
L 262.667452 262.667452 
L 262.667219 23.167172 
L 23.167258 23.167258 
L 20.505536 28.488858 
L 20.505194 267.989922 
L 20.505352 273.312 
" style="fill:#84d44b;"/>
   </g>
   <g id="PathCollection_8">
    <path clip-path="url(#p8c67a597c0)" d="M 20.505352 273.312 
L 20.505194 267.989922 
L 20.505536 28.488858 
L 23.167258 23.167258 
L 262.667219 23.167172 
L 262.667452 262.667452 
L 260.006827 267.989931 
L 260.006669 273.312 
L 273.312 273.312 
L 273.312 7.2 
L 7.2 7.2 
L 7.2 273.312 
" style="fill:#d8e219;"/>
   </g>
   <g id="line2d_1">
    <path clip-path="url(#p8c67a597c0)" d="M 273.312 7.2 
L 273.312 273.312 
M 7.2 7.2 
L 273.312 7.2 
M 7.2 273.312 
L 7.2 7.2 
M 140.256 273.312 
L 273.312 273.312 
M 140.256 273.312 
L 7.2 273.312 
M 140.256 220.0896 
L 273.312 273.312 
M 140.256 220.0896 
L 7.2 7.2 
M 140.256 220.0896 
L 7.2 273.312 
M 140.256 220.0896 
L 140.256 273.312 
M 166.8672 166.8672 
L 273.312 273.312 
M 166.8672 166.8672 
L 273.312 7.2 
M 166.8672 166.8672 
L 7.2 7.2 
M 166.8672 166.8672 
L 140.256 220.0896 
" style="fill:none;stroke:#ffffff;stroke-linecap:square;stroke-opacity:0.3;stroke-width:1.5;"/>
   </g>
   <g id="line2d_2">
    <path d="M 273.312 273.312 
L 273.312 7.2 
L 7.2 7.2 
L 7.2 273.312 
" style="fill:none;stroke:#1f77b4;stroke-linecap:square;stroke-width:1.5;"/>
   </g>
   <g id="line2d_3">
    <path d="M 140.256 273.312 
L 140.256 220.0896 
L 166.8672 166.8672 
" style="fill:none;stroke:#ff7f0e;stroke-linecap:square;stroke-width:1.5;"/>
   </g>
   <g id="line2d_4"/>
  </g>
 </g>
 <defs>
  <clipPath id="p8c67a597c0">
   <rect height="266.112" width="266.112" x="7.2" y="7.2"/>
  </clipPath>
 </defs>
</svg>
